<svg width="1600" height="1600" viewBox="0 0 1600 1600" fill="none" xmlns="http://www.w3.org/2000/svg">
<g clip-path="url(#clip0_1_21983)">
<mask id="mask0_1_21983" style="mask-type:luminance" maskUnits="userSpaceOnUse" x="0" y="0" width="1600" height="1600">
<path d="M1600 0H0V1600H1600V0Z" fill="white"/>
</mask>
<g mask="url(#mask0_1_21983)">
<path d="M409.742 389.079C409.742 393.231 406.377 396.596 402.225 396.596C398.073 396.596 394.708 393.231 394.708 389.079C394.708 384.927 398.073 381.562 402.225 381.562C406.377 381.562 409.742 384.927 409.742 389.079Z" fill="#8869D5"/>
<path d="M662.286 428.52C662.286 432.672 658.921 436.037 654.769 436.037C650.617 436.037 647.252 432.672 647.252 428.52C647.252 424.368 650.617 421.003 654.769 421.003C658.921 421.003 662.286 424.368 662.286 428.52Z" fill="#84AAE4"/>
<path d="M662.286 428.52C662.286 432.672 658.921 436.037 654.769 436.037C650.617 436.037 647.252 432.672 647.252 428.52C647.252 424.368 650.617 421.003 654.769 421.003C658.921 421.003 662.286 424.368 662.286 428.52Z" stroke="#0626A9" stroke-width="2" stroke-linecap="round" stroke-linejoin="round"/>
<path d="M961.201 337.678C961.201 345.572 954.801 351.972 946.907 351.972C939.013 351.972 932.613 345.572 932.613 337.678C932.613 329.784 939.013 323.384 946.907 323.384C954.801 323.384 961.201 329.784 961.201 337.678Z" fill="white"/>
<path d="M961.201 337.678C961.201 345.572 954.801 351.972 946.907 351.972C939.013 351.972 932.613 345.572 932.613 337.678C932.613 329.784 939.013 323.384 946.907 323.384C954.801 323.384 961.201 329.784 961.201 337.678Z" stroke="#0626A9" stroke-width="2" stroke-linecap="round" stroke-linejoin="round"/>
<path d="M1345.67 954.425C1345.67 959.575 1341.5 963.75 1336.35 963.75C1331.2 963.75 1327.02 959.575 1327.02 954.425C1327.02 949.275 1331.2 945.1 1336.35 945.1C1341.5 945.1 1345.67 949.275 1345.67 954.425Z" fill="white"/>
<path d="M1345.67 954.425C1345.67 959.575 1341.5 963.75 1336.35 963.75C1331.2 963.75 1327.02 959.575 1327.02 954.425C1327.02 949.275 1331.2 945.1 1336.35 945.1C1341.5 945.1 1345.67 949.275 1345.67 954.425Z" stroke="#0626A9" stroke-width="2" stroke-linecap="round" stroke-linejoin="round"/>
<path d="M1336.03 1070.54C1336.03 1074.37 1332.92 1077.48 1329.09 1077.48C1325.26 1077.48 1322.15 1074.37 1322.15 1070.54C1322.15 1066.71 1325.26 1063.6 1329.09 1063.6C1332.92 1063.6 1336.03 1066.71 1336.03 1070.54Z" fill="#0626A9"/>
<path d="M1226.8 1143.89C1226.8 1147.72 1223.7 1150.83 1219.87 1150.83C1216.03 1150.83 1212.93 1147.72 1212.93 1143.89C1212.93 1140.06 1216.03 1136.95 1219.87 1136.95C1223.7 1136.95 1226.8 1140.06 1226.8 1143.89Z" fill="#8869D5"/>
<path d="M795.062 1294.7C795.062 1302.33 788.877 1308.51 781.248 1308.51C773.619 1308.51 767.434 1302.33 767.434 1294.7C767.434 1287.07 773.619 1280.89 781.248 1280.89C788.877 1280.89 795.062 1287.07 795.062 1294.7Z" fill="white"/>
<path d="M795.062 1294.7C795.062 1302.33 788.877 1308.51 781.248 1308.51C773.619 1308.51 767.434 1302.33 767.434 1294.7C767.434 1287.07 773.619 1280.89 781.248 1280.89C788.877 1280.89 795.062 1287.07 795.062 1294.7Z" stroke="#0626A9" stroke-width="2" stroke-linecap="round" stroke-linejoin="round"/>
<mask id="mask1_1_21983" style="mask-type:luminance" maskUnits="userSpaceOnUse" x="0" y="0" width="1600" height="1600">
<path d="M0 0H1600V1600H0V0Z" fill="white"/>
</mask>
<g mask="url(#mask1_1_21983)">
<path d="M744.355 797.144H205.419V516.48H744.355V797.144Z" fill="#84AAE4"/>
<path d="M744.355 797.144H205.419V516.48H744.355V797.144Z" stroke="#0626A9" stroke-width="2" stroke-linecap="round" stroke-linejoin="round"/>
<path d="M744.355 559.7H205.419V516.48H744.355V559.7Z" fill="#0626A9"/>
<path d="M744.355 559.7H205.419V516.48H744.355V559.7Z" stroke="#0626A9" stroke-width="2" stroke-linecap="round" stroke-linejoin="round"/>
<path d="M722.485 775.976H502.225V586.784H722.485V775.976Z" fill="white"/>
<path d="M722.485 775.976H502.225V586.784H722.485V775.976Z" stroke="#0626A9" stroke-width="2" stroke-linecap="round" stroke-linejoin="round"/>
<path d="M240.085 538.09C240.085 541.974 236.937 545.122 233.053 545.122C229.169 545.122 226.021 541.974 226.021 538.09C226.021 534.206 229.169 531.058 233.053 531.058C236.937 531.058 240.085 534.206 240.085 538.09Z" fill="white"/>
<path d="M272.303 538.09C272.303 541.974 269.155 545.122 265.271 545.122C261.387 545.122 258.239 541.974 258.239 538.09C258.239 534.206 261.387 531.058 265.271 531.058C269.155 531.058 272.303 534.206 272.303 538.09Z" fill="white"/>
<path d="M304.521 538.09C304.521 541.974 301.373 545.122 297.489 545.122C293.605 545.122 290.457 541.974 290.457 538.09C290.457 534.206 293.605 531.058 297.489 531.058C301.373 531.058 304.521 534.206 304.521 538.09Z" fill="white"/>
<path d="M235.803 644.318H435.757" stroke="#0626A9" stroke-width="2" stroke-linecap="round" stroke-linejoin="round"/>
<path d="M235.803 675.911H435.757" stroke="#0626A9" stroke-width="2" stroke-linecap="round" stroke-linejoin="round"/>
<path d="M235.803 707.504H435.757" stroke="#0626A9" stroke-width="2" stroke-linecap="round" stroke-linejoin="round"/>
<path d="M527.378 797.143H744.356V599.641L576.74 661.579L527.378 797.143Z" fill="#0626A9"/>
<path d="M527.378 797.143H744.356V599.641L576.74 661.579L527.378 797.143Z" stroke="#0626A9" stroke-width="2" stroke-linecap="round" stroke-linejoin="round"/>
</g>
<mask id="mask2_1_21983" style="mask-type:luminance" maskUnits="userSpaceOnUse" x="0" y="0" width="1600" height="1600">
<path d="M0 0H1600V1600H0V0Z" fill="white"/>
</mask>
<g mask="url(#mask2_1_21983)">
<path d="M693.441 1209.04H380.815V942.318H716.089V1186.39C716.089 1198.9 705.949 1209.04 693.441 1209.04Z" fill="#0626A9"/>
<path d="M693.441 1209.04H380.815V942.318H716.089V1186.39C716.089 1198.9 705.949 1209.04 693.441 1209.04Z" stroke="#0626A9" stroke-width="2" stroke-linecap="round" stroke-linejoin="round"/>
<path d="M594.957 1242.43H250.483C235.206 1242.43 222.821 1230.04 222.821 1214.77V888.51H565.835V1213.31C565.835 1229.39 578.874 1242.43 594.957 1242.43Z" fill="#84AAE4"/>
<path d="M594.957 1242.43H250.483C235.206 1242.43 222.821 1230.04 222.821 1214.77V888.51H565.835V1213.31C565.835 1229.39 578.874 1242.43 594.957 1242.43Z" stroke="#0626A9" stroke-width="2" stroke-linecap="round" stroke-linejoin="round"/>
<path d="M624.077 1214.23C624.077 1198.15 611.039 1185.11 594.956 1185.11C578.873 1185.11 565.835 1198.15 565.835 1214.23C565.835 1230.31 578.873 1243.35 594.956 1243.35C611.039 1243.35 624.077 1230.31 624.077 1214.23Z" fill="#0626A9"/>
<path d="M565.835 1090.85H646.857C634.134 1091.35 624.078 1101.81 624.078 1114.54V1214.23H565.835V1090.85Z" fill="#0626A9"/>
<path d="M566.484 1091.75H646.856" stroke="white" stroke-width="2" stroke-linecap="round" stroke-linejoin="round"/>
<path d="M646.857 1091.75C634.487 1091.75 624.46 1101.77 624.46 1114.14V1209.04H669.254V1114.14C669.254 1101.77 659.227 1091.75 646.857 1091.75Z" fill="#84AAE4"/>
<path d="M646.857 1091.75C634.487 1091.75 624.46 1101.77 624.46 1114.14V1209.04H669.254V1114.14C669.254 1101.77 659.227 1091.75 646.857 1091.75Z" stroke="#0626A9" stroke-width="2" stroke-linecap="round" stroke-linejoin="round"/>
<path d="M693.692 1208.88C681.322 1208.88 671.295 1198.85 671.295 1186.48V1091.59H716.089V1186.48C716.089 1198.85 706.062 1208.88 693.692 1208.88Z" fill="#0626A9"/>
<path d="M693.692 1208.88C681.322 1208.88 671.295 1198.85 671.295 1186.48V1091.59H716.089V1186.48C716.089 1198.85 706.062 1208.88 693.692 1208.88Z" stroke="#0626A9" stroke-width="2" stroke-linecap="round" stroke-linejoin="round"/>
<path d="M479.631 895.749V1040.93H309.025V843.708H427.589" fill="white"/>
<path d="M479.631 895.749V1040.93H309.025V843.708H427.589" stroke="#0626A9" stroke-width="2" stroke-linecap="round" stroke-linejoin="round"/>
<path d="M427.589 895.75H479.631L427.589 843.708V895.75Z" fill="white"/>
<path d="M427.589 895.75H479.631L427.589 843.708V895.75Z" stroke="#0626A9" stroke-width="2" stroke-linecap="round" stroke-linejoin="round"/>
<path d="M532.803 1163.44H255.853V967.496H363.103L405.641 1016.82H532.803V1163.44Z" fill="white"/>
<path d="M532.803 1163.44H255.853V967.496H363.103L405.641 1016.82H532.803V1163.44Z" stroke="#0626A9" stroke-width="2" stroke-linecap="round" stroke-linejoin="round"/>
</g>
<mask id="mask3_1_21983" style="mask-type:luminance" maskUnits="userSpaceOnUse" x="0" y="0" width="1600" height="1600">
<path d="M0 0H1600V1600H0V0Z" fill="white"/>
</mask>
<g mask="url(#mask3_1_21983)">
<path d="M792.428 1120.67H1166.86V924.721H792.428V1120.67Z" fill="#84AAE4"/>
<path d="M792.428 1120.67H1166.86V924.721H792.428V1120.67Z" stroke="#0626A9" stroke-width="2" stroke-linecap="round" stroke-linejoin="round"/>
<path d="M1189.72 924.721H1166.86V1120.67H1189.72V924.721Z" fill="#0626A9"/>
<path d="M1189.72 924.721H1166.86V1120.67H1189.72V924.721Z" stroke="#0626A9" stroke-width="2" stroke-linecap="round" stroke-linejoin="round"/>
<path d="M937.61 1120.67H814.3V923.164L1005.19 924.721L937.61 1120.67Z" fill="#0626A9"/>
<path d="M937.61 1120.67H814.3V923.164L1005.19 924.721L937.61 1120.67Z" stroke="#0626A9" stroke-width="2" stroke-linecap="round" stroke-linejoin="round"/>
<path d="M1102.16 1057.78C1102.16 1073.48 1089.43 1086.2 1073.73 1086.2C1058.04 1086.2 1045.31 1073.48 1045.31 1057.78C1045.31 1042.08 1058.04 1029.35 1073.73 1029.35C1089.43 1029.35 1102.16 1042.08 1102.16 1057.78Z" fill="white"/>
<path d="M1102.16 1057.78C1102.16 1073.48 1089.43 1086.2 1073.73 1086.2C1058.04 1086.2 1045.31 1073.48 1045.31 1057.78C1045.31 1042.08 1058.04 1029.35 1073.73 1029.35C1089.43 1029.35 1102.16 1042.08 1102.16 1057.78Z" stroke="#0626A9" stroke-width="2" stroke-linecap="round" stroke-linejoin="round"/>
<path d="M1142.68 1057.78C1142.68 1073.48 1129.95 1086.2 1114.25 1086.2C1098.55 1086.2 1085.83 1073.48 1085.83 1057.78C1085.83 1042.08 1098.55 1029.35 1114.25 1029.35C1129.95 1029.35 1142.68 1042.08 1142.68 1057.78Z" fill="white"/>
<path d="M1142.68 1057.78C1142.68 1073.48 1129.95 1086.2 1114.25 1086.2C1098.55 1086.2 1085.83 1073.48 1085.83 1057.78C1085.83 1042.08 1098.55 1029.35 1114.25 1029.35C1129.95 1029.35 1142.68 1042.08 1142.68 1057.78Z" stroke="#0626A9" stroke-width="2" stroke-linecap="round" stroke-linejoin="round"/>
<path d="M1102.16 1057.78C1102.16 1073.48 1089.43 1086.2 1073.73 1086.2C1058.04 1086.2 1045.31 1073.48 1045.31 1057.78C1045.31 1042.08 1058.04 1029.35 1073.73 1029.35C1089.43 1029.35 1102.16 1042.08 1102.16 1057.78Z" stroke="#0626A9" stroke-width="2" stroke-linecap="round" stroke-linejoin="round"/>
</g>
<mask id="mask4_1_21983" style="mask-type:luminance" maskUnits="userSpaceOnUse" x="0" y="0" width="1600" height="1600">
<path d="M0 0H1600V1600H0V0Z" fill="white"/>
</mask>
<g mask="url(#mask4_1_21983)">
<path d="M1045.55 421.12H1320.42V631.714H1045.55V421.12Z" fill="white"/>
<path d="M1045.55 421.12H1320.42V631.714H1045.55V421.12Z" stroke="#0626A9" stroke-width="2" stroke-linecap="round" stroke-linejoin="round"/>
<path d="M1325.11 631.712H1222.45" stroke="#0626A9" stroke-width="2" stroke-linecap="round" stroke-linejoin="round"/>
<path d="M1354.14 323.111V603.664C1354.14 619.155 1341.59 631.713 1326.1 631.713C1310.6 631.713 1298.05 619.155 1298.05 603.664V456.016C1298.05 436.743 1282.08 421.116 1262.39 421.116C1242.69 421.116 1226.74 436.743 1226.74 456.016V631.713H1045.55V323.111H1354.14Z" fill="#0626A9"/>
<path d="M1354.14 323.111V603.664C1354.14 619.155 1341.59 631.713 1326.1 631.713C1310.6 631.713 1298.05 619.155 1298.05 603.664V456.016C1298.05 436.743 1282.08 421.116 1262.39 421.116C1242.69 421.116 1226.74 436.743 1226.74 456.016V631.713H1045.55V323.111H1354.14Z" stroke="#0626A9" stroke-width="2" stroke-linecap="round" stroke-linejoin="round"/>
<path d="M1226.73 877.148H841.839V456.149C841.839 436.803 857.522 421.12 876.868 421.12H1262.39C1242.7 421.12 1226.73 437.083 1226.73 456.775V877.148Z" fill="#84AAE4"/>
<path d="M1226.73 877.148H841.839V456.149C841.839 436.803 857.522 421.12 876.868 421.12H1262.39C1242.7 421.12 1226.73 437.083 1226.73 456.775V877.148Z" stroke="#0626A9" stroke-width="2" stroke-linecap="round" stroke-linejoin="round"/>
<path d="M898.626 545.122H1112.26" stroke="#0626A9" stroke-width="2" stroke-linecap="round" stroke-linejoin="round"/>
<path d="M898.626 513.529H1016.68" stroke="#0626A9" stroke-width="2" stroke-linecap="round" stroke-linejoin="round"/>
<path d="M898.626 481.936H1169.95" stroke="#0626A9" stroke-width="2" stroke-linecap="round" stroke-linejoin="round"/>
</g>
<mask id="mask5_1_21983" style="mask-type:luminance" maskUnits="userSpaceOnUse" x="0" y="0" width="1600" height="1600">
<path d="M0 0H1600V1600H0V0Z" fill="white"/>
</mask>
<g mask="url(#mask5_1_21983)">
<path d="M1444.12 844.735H1051.29V710.443H1444.12V844.735Z" fill="white"/>
<path d="M1444.12 844.735H1051.29V710.443H1444.12V844.735Z" stroke="#0626A9" stroke-width="2" stroke-linecap="round" stroke-linejoin="round"/>
<path d="M1444.12 763.245H1051.29V710.443H1444.12V763.245Z" fill="#0626A9"/>
<path d="M1444.12 763.245H1051.29V710.443H1444.12V763.245Z" stroke="#0626A9" stroke-width="2" stroke-linecap="round" stroke-linejoin="round"/>
<path d="M1355.92 736.844C1355.92 740.728 1352.77 743.876 1348.88 743.876C1345 743.876 1341.85 740.728 1341.85 736.844C1341.85 732.96 1345 729.812 1348.88 729.812C1352.77 729.812 1355.92 732.96 1355.92 736.844Z" fill="#8869D5"/>
<path d="M1388.13 736.844C1388.13 740.728 1384.99 743.876 1381.1 743.876C1377.22 743.876 1374.07 740.728 1374.07 736.844C1374.07 732.96 1377.22 729.812 1381.1 729.812C1384.99 729.812 1388.13 732.96 1388.13 736.844Z" fill="#8869D5"/>
<path d="M1420.35 736.844C1420.35 740.728 1417.2 743.876 1413.32 743.876C1409.44 743.876 1406.29 740.728 1406.29 736.844C1406.29 732.96 1409.44 729.812 1413.32 729.812C1417.2 729.812 1420.35 732.96 1420.35 736.844Z" fill="#8869D5"/>
<path d="M1099.25 812.72C1099.25 812.72 1159.71 797.981 1183.14 807.807C1206.57 817.633 1212.99 826.324 1228.87 818.766C1244.74 811.208 1283.66 788.156 1292.73 789.29C1301.8 790.424 1284.8 818.767 1302.18 817.255C1319.56 815.743 1342.01 780.598 1355.92 783.621C1369.83 786.644 1354.33 809.696 1363.78 811.586C1373.23 813.476 1406.29 807.429 1406.29 807.429" stroke="#0626A9" stroke-width="2" stroke-linecap="round" stroke-linejoin="round"/>
</g>
<mask id="mask6_1_21983" style="mask-type:luminance" maskUnits="userSpaceOnUse" x="0" y="0" width="1600" height="1600">
<path d="M0 0H1600V1600H0V0Z" fill="white"/>
</mask>
<g mask="url(#mask6_1_21983)">
<path d="M878.3 1089.64L800.726 1142.83L723.152 1089.64C631.512 1026.8 576.739 922.826 576.739 811.711V661.579L800.726 578.811L1024.71 661.579V811.711C1024.71 922.826 969.94 1026.8 878.3 1089.64Z" fill="#8869D5"/>
<path d="M878.3 1089.64L800.726 1142.83L723.152 1089.64C631.512 1026.8 576.739 922.826 576.739 811.711V661.579L800.726 578.811L1024.71 661.579V811.711C1024.71 922.826 969.94 1026.8 878.3 1089.64Z" stroke="#0626A9" stroke-width="2" stroke-linecap="round" stroke-linejoin="round"/>
<path d="M863.747 1046.71L800.726 1089.93L737.705 1046.71C663.257 995.663 618.758 911.194 618.758 820.924V698.956L800.726 631.714L982.694 698.956V820.924C982.694 911.194 938.195 995.663 863.747 1046.71Z" fill="white"/>
<path d="M863.747 1046.71L800.726 1089.93L737.705 1046.71C663.257 995.663 618.758 911.194 618.758 820.924V698.956L800.726 631.714L982.694 698.956V820.924C982.694 911.194 938.195 995.663 863.747 1046.71Z" stroke="#0626A9" stroke-width="2" stroke-linecap="round" stroke-linejoin="round"/>
<path d="M890.026 842.833C894.174 863.192 891.218 884.357 881.65 902.8C872.082 921.242 856.48 935.847 837.447 944.179C818.414 952.511 797.1 954.066 777.059 948.585C757.018 943.104 739.462 930.918 727.319 914.06C715.175 897.201 709.178 876.689 710.327 855.944C711.477 835.199 719.703 815.475 733.635 800.061C747.567 784.648 766.361 774.476 786.885 771.243C807.409 768.009 828.421 771.909 846.417 782.293" stroke="#8869D5" stroke-width="10" stroke-linecap="round" stroke-linejoin="round"/>
<path d="M773.75 851.917L801 879.167L891.833 788.333" stroke="#8869D5" stroke-width="10" stroke-linecap="round" stroke-linejoin="round"/>
</g>
<path d="M1071.27 589.47C1071.27 595.383 1066.47 600.177 1060.56 600.177C1054.65 600.177 1049.85 595.383 1049.85 589.47C1049.85 583.557 1054.65 578.763 1060.56 578.763C1066.47 578.763 1071.27 583.557 1071.27 589.47Z" fill="white"/>
<path d="M1071.27 589.47C1071.27 595.383 1066.47 600.177 1060.56 600.177C1054.65 600.177 1049.85 595.383 1049.85 589.47C1049.85 583.557 1054.65 578.763 1060.56 578.763C1066.47 578.763 1071.27 583.557 1071.27 589.47Z" stroke="#0626A9" stroke-width="2" stroke-linecap="round" stroke-linejoin="round"/>
</g>
</g>
<defs>
<clipPath id="clip0_1_21983">
<rect width="1600" height="1600" fill="white"/>
</clipPath>
</defs>
</svg>
