<svg width="1600" height="1600" viewBox="0 0 1600 1600" fill="none" xmlns="http://www.w3.org/2000/svg">
<g clip-path="url(#clip0_40000055_7901)">
<mask id="mask0_40000055_7901" style="mask-type:luminance" maskUnits="userSpaceOnUse" x="0" y="0" width="1600" height="1600">
<path d="M1600 0H0V1600H1600V0Z" fill="white"/>
</mask>
<g mask="url(#mask0_40000055_7901)">
<mask id="mask1_40000055_7901" style="mask-type:luminance" maskUnits="userSpaceOnUse" x="0" y="0" width="1600" height="1600">
<path d="M1600 0H0V1600H1600V0Z" fill="white"/>
</mask>
<g mask="url(#mask1_40000055_7901)">
<path d="M70.667 1136.07H1529.33" stroke="#0626A9" stroke-width="2" stroke-linecap="round" stroke-linejoin="round"/>
<path d="M516.825 961.03L244.592 954.457L242.844 1026.87L515.077 1033.45L516.825 961.03Z" fill="#0626A9"/>
<path d="M516.825 961.03L244.592 954.457L242.844 1026.87L515.077 1033.45L516.825 961.03Z" stroke="#0626A9" stroke-width="2" stroke-linecap="round" stroke-linejoin="round"/>
<path d="M270.034 991.292C270.034 991.292 362.786 993.531 427.731 995.099" stroke="white" stroke-width="2" stroke-linecap="round" stroke-linejoin="round"/>
<path d="M1445.33 889.401L1173.22 878.895L1170.42 951.279L1442.53 961.785L1445.33 889.401Z" fill="#0626A9"/>
<path d="M1445.33 889.401L1173.22 878.895L1170.42 951.279L1442.53 961.785L1445.33 889.401Z" stroke="#0626A9" stroke-width="2" stroke-linecap="round" stroke-linejoin="round"/>
<path d="M1218.32 916.873C1272.61 918.969 1417.63 924.568 1417.63 924.568" stroke="white" stroke-width="2" stroke-linecap="round" stroke-linejoin="round"/>
<mask id="mask2_40000055_7901" style="mask-type:luminance" maskUnits="userSpaceOnUse" x="0" y="0" width="1600" height="1600">
<path d="M0 0H1600V1600H0V0Z" fill="white"/>
</mask>
<g mask="url(#mask2_40000055_7901)">
<path d="M1394.33 732.623L1210.33 731.477L1212.01 461.82L1396.01 462.967L1394.33 732.623Z" fill="white"/>
<path d="M1394.33 732.623L1210.33 731.477L1212.01 461.82L1396.01 462.967L1394.33 732.623Z" stroke="#0626A9" stroke-width="2" stroke-linecap="round" stroke-linejoin="round"/>
<path d="M1371.06 687.145L1234.17 686.292L1235.29 507.299L1372.17 508.152L1371.06 687.145Z" fill="white"/>
<path d="M1371.06 687.145L1234.17 686.292L1235.29 507.299L1372.17 508.152L1371.06 687.145Z" stroke="#0626A9" stroke-width="2" stroke-linecap="round" stroke-linejoin="round"/>
<path d="M1351.67 660.472L1299.4 660.147L1299.63 624.591L1351.89 624.917L1351.67 660.472Z" fill="#84AAE4"/>
<path d="M1351.67 660.472L1299.4 660.147L1299.63 624.591L1351.89 624.917L1351.67 660.472Z" stroke="#0626A9" stroke-width="2" stroke-linecap="round" stroke-linejoin="round"/>
<path d="M1256.49 586.989C1256.49 586.989 1265.52 587.045 1275.68 587.108" stroke="#0626A9" stroke-width="2" stroke-linecap="round" stroke-linejoin="round"/>
<path d="M1256.45 562.988C1256.45 562.988 1299.98 563.259 1325.5 563.418" stroke="#0626A9" stroke-width="2" stroke-linecap="round" stroke-linejoin="round"/>
<path d="M1256.42 538.987L1293.53 539.219" stroke="#0626A9" stroke-width="2" stroke-linecap="round" stroke-linejoin="round"/>
<path d="M1290.96 484.979C1290.94 487.923 1288.54 490.295 1285.59 490.276C1282.65 490.258 1280.28 487.856 1280.3 484.912C1280.31 481.968 1282.72 479.596 1285.66 479.615C1288.6 479.633 1290.98 482.035 1290.96 484.979Z" fill="#0626A9"/>
<path d="M1290.96 484.979C1290.94 487.923 1288.54 490.295 1285.59 490.276C1282.65 490.258 1280.28 487.856 1280.3 484.912C1280.31 481.968 1282.72 479.596 1285.66 479.615C1288.6 479.633 1290.98 482.035 1290.96 484.979Z" stroke="#0626A9" stroke-width="2" stroke-linecap="round" stroke-linejoin="round"/>
<path d="M1268.52 484.839C1268.51 487.783 1266.1 490.155 1263.16 490.137C1260.22 490.118 1257.84 487.716 1257.86 484.772C1257.88 481.828 1260.28 479.456 1263.23 479.475C1266.17 479.493 1268.54 481.895 1268.52 484.839Z" fill="#8869D5"/>
<path d="M1268.52 484.839C1268.51 487.783 1266.1 490.155 1263.16 490.137C1260.22 490.118 1257.84 487.716 1257.86 484.772C1257.88 481.828 1260.28 479.456 1263.23 479.475C1266.17 479.493 1268.54 481.895 1268.52 484.839Z" stroke="#0626A9" stroke-width="2" stroke-linecap="round" stroke-linejoin="round"/>
<path d="M1246.09 484.699C1246.07 487.643 1243.67 490.015 1240.73 489.997C1237.78 489.978 1235.41 487.577 1235.43 484.633C1235.45 481.689 1237.85 479.317 1240.79 479.335C1243.74 479.353 1246.11 481.755 1246.09 484.699Z" fill="#84AAE4"/>
<path d="M1246.09 484.699C1246.07 487.643 1243.67 490.015 1240.73 489.997C1237.78 489.978 1235.41 487.577 1235.43 484.633C1235.45 481.689 1237.85 479.317 1240.79 479.335C1243.74 479.353 1246.11 481.755 1246.09 484.699Z" stroke="#0626A9" stroke-width="2" stroke-linecap="round" stroke-linejoin="round"/>
</g>
<path d="M802.198 1087.24L758.968 1087.49V1098.43V1111.9L802.198 1111.66V1087.24Z" fill="#84AAE4"/>
<path d="M802.198 1087.24L758.968 1087.49V1098.43V1111.9L802.198 1111.66V1087.24Z" stroke="#0626A9" stroke-width="2" stroke-linecap="round" stroke-linejoin="round"/>
<path d="M759.448 1087.24L716.218 1087.49V1098.43V1111.9L759.448 1111.66V1087.24Z" fill="#84AAE4"/>
<path d="M759.448 1087.24L716.218 1087.49V1098.43V1111.9L759.448 1111.66V1087.24Z" stroke="#0626A9" stroke-width="2" stroke-linecap="round" stroke-linejoin="round"/>
<path d="M716.448 1087.24L673.218 1087.49V1098.43V1111.9L716.448 1111.66V1087.24Z" fill="#84AAE4"/>
<path d="M716.448 1087.24L673.218 1087.49V1098.43V1111.9L716.448 1111.66V1087.24Z" stroke="#0626A9" stroke-width="2" stroke-linecap="round" stroke-linejoin="round"/>
<path d="M673.073 1087.24L629.843 1087.49V1098.43V1111.9L673.073 1111.66V1087.24Z" fill="#84AAE4"/>
<path d="M673.073 1087.24L629.843 1087.49V1098.43V1111.9L673.073 1111.66V1087.24Z" stroke="#0626A9" stroke-width="2" stroke-linecap="round" stroke-linejoin="round"/>
<path d="M630.323 1087.24L587.093 1087.49V1098.43V1111.9L630.323 1111.66V1087.24Z" fill="#84AAE4"/>
<path d="M630.323 1087.24L587.093 1087.49V1098.43V1111.9L630.323 1111.66V1087.24Z" stroke="#0626A9" stroke-width="2" stroke-linecap="round" stroke-linejoin="round"/>
<path d="M587.323 1087.24L544.093 1087.49V1098.43V1111.9L587.323 1111.66V1087.24Z" fill="#84AAE4"/>
<path d="M587.323 1087.24L544.093 1087.49V1098.43V1111.9L587.323 1111.66V1087.24Z" stroke="#0626A9" stroke-width="2" stroke-linecap="round" stroke-linejoin="round"/>
<path d="M931.073 1087.24L887.843 1087.49V1098.43V1111.9L931.073 1111.66V1087.24Z" fill="#84AAE4"/>
<path d="M931.073 1087.24L887.843 1087.49V1098.43V1111.9L931.073 1111.66V1087.24Z" stroke="#0626A9" stroke-width="2" stroke-linecap="round" stroke-linejoin="round"/>
<path d="M888.323 1087.24L845.093 1087.49V1098.43V1111.9L888.323 1111.66V1087.24Z" fill="#84AAE4"/>
<path d="M888.323 1087.24L845.093 1087.49V1098.43V1111.9L888.323 1111.66V1087.24Z" stroke="#0626A9" stroke-width="2" stroke-linecap="round" stroke-linejoin="round"/>
<path d="M845.323 1087.24L802.093 1087.49V1098.43V1111.9L845.323 1111.66V1087.24Z" fill="#84AAE4"/>
<path d="M845.323 1087.24L802.093 1087.49V1098.43V1111.9L845.323 1111.66V1087.24Z" stroke="#0626A9" stroke-width="2" stroke-linecap="round" stroke-linejoin="round"/>
<path d="M974.448 1087.24L931.218 1087.49V1098.43V1111.9L974.448 1111.66V1087.24Z" fill="#84AAE4"/>
<path d="M974.448 1087.24L931.218 1087.49V1098.43V1111.9L974.448 1111.66V1087.24Z" stroke="#0626A9" stroke-width="2" stroke-linecap="round" stroke-linejoin="round"/>
<path d="M1017.45 1087.24L974.218 1087.49V1098.43V1111.9L1017.45 1111.66V1087.24Z" fill="#84AAE4"/>
<path d="M1017.45 1087.24L974.218 1087.49V1098.43V1111.9L1017.45 1111.66V1087.24Z" stroke="#0626A9" stroke-width="2" stroke-linecap="round" stroke-linejoin="round"/>
<path d="M1060.2 1087.24L1016.97 1087.49V1098.43V1111.9L1060.2 1111.66V1087.24Z" fill="#84AAE4"/>
<path d="M1060.2 1087.24L1016.97 1087.49V1098.43V1111.9L1060.2 1111.66V1087.24Z" stroke="#0626A9" stroke-width="2" stroke-linecap="round" stroke-linejoin="round"/>
<path d="M1089.23 1111.66H519.44V1136.07H1089.23V1111.66Z" fill="#84AAE4"/>
<path d="M1089.23 1111.66H519.44V1136.07H1089.23V1111.66Z" stroke="#0626A9" stroke-width="2" stroke-linecap="round" stroke-linejoin="round"/>
<mask id="mask3_40000055_7901" style="mask-type:luminance" maskUnits="userSpaceOnUse" x="-1" y="-5" width="1603" height="1603">
<path d="M1.23318 -4.37134L1601.23 -2.38864L1599.25 1597.61L-0.749512 1595.63L1.23318 -4.37134Z" fill="white"/>
</mask>
<g mask="url(#mask3_40000055_7901)">
<path d="M1179 992.08L409.666 991.126L410.334 451.803L1179.67 452.756L1179 992.08Z" stroke="#0626A9" stroke-width="2" stroke-linecap="round" stroke-linejoin="round"/>
<path d="M1179 992.08L409.666 991.126L410.334 451.803L1179.67 452.756L1179 992.08Z" fill="white"/>
<path d="M1179.61 498.089L410.278 497.136L410.334 451.802L1179.67 452.755L1179.61 498.089Z" fill="#0626A9"/>
<path d="M1179.61 498.089L410.278 497.136L410.334 451.802L1179.67 452.755L1179.61 498.089Z" stroke="#0626A9" stroke-width="2" stroke-linecap="round" stroke-linejoin="round"/>
<path d="M508.743 474.591C508.738 478.6 505.484 481.846 501.475 481.841C497.466 481.836 494.22 478.582 494.225 474.573C494.23 470.564 497.484 467.318 501.493 467.323C505.502 467.328 508.748 470.582 508.743 474.591Z" fill="white"/>
<path d="M508.743 474.591C508.738 478.6 505.484 481.846 501.475 481.841C497.466 481.836 494.22 478.582 494.225 474.573C494.23 470.564 497.484 467.318 501.493 467.323C505.502 467.328 508.748 470.582 508.743 474.591Z" stroke="#0626A9" stroke-width="2" stroke-linecap="round" stroke-linejoin="round"/>
<path d="M478.191 474.553C478.186 478.562 474.932 481.808 470.923 481.803C466.914 481.798 463.668 478.544 463.673 474.535C463.678 470.526 466.932 467.28 470.941 467.285C474.95 467.29 478.196 470.544 478.191 474.553Z" fill="#8869D5"/>
<path d="M478.191 474.553C478.186 478.562 474.932 481.808 470.923 481.803C466.914 481.798 463.668 478.544 463.673 474.535C463.678 470.526 466.932 467.28 470.941 467.285C474.95 467.29 478.196 470.544 478.191 474.553Z" stroke="#0626A9" stroke-width="2" stroke-linecap="round" stroke-linejoin="round"/>
<path d="M447.64 474.515C447.635 478.524 444.381 481.77 440.372 481.765C436.363 481.76 433.117 478.506 433.122 474.497C433.127 470.488 436.381 467.242 440.39 467.247C444.399 467.252 447.645 470.506 447.64 474.515Z" fill="#84AAE4"/>
<path d="M447.64 474.515C447.635 478.524 444.381 481.77 440.372 481.765C436.363 481.76 433.117 478.506 433.122 474.497C433.127 470.488 436.381 467.242 440.39 467.247C444.399 467.252 447.645 470.506 447.64 474.515Z" stroke="#0626A9" stroke-width="2" stroke-linecap="round" stroke-linejoin="round"/>
<path d="M735.548 947.038L467 945.365L469.452 551.801L738 553.475L735.548 947.038Z" fill="white"/>
<path d="M735.548 947.038L467 945.365L469.452 551.801L738 553.475L735.548 947.038Z" stroke="#0626A9" stroke-width="2" stroke-linecap="round" stroke-linejoin="round"/>
<path d="M701.584 880.663L501.793 879.418L503.428 618.178L703.204 619.423L701.584 880.663Z" fill="white"/>
<path d="M701.584 880.663L501.793 879.418L503.428 618.178L703.204 619.423L701.584 880.663Z" stroke="#0626A9" stroke-width="2" stroke-linecap="round" stroke-linejoin="round"/>
<path d="M673.285 841.734L596.997 841.26L597.332 789.366L673.606 789.842L673.285 841.734Z" fill="#84AAE4"/>
<path d="M673.285 841.734L596.997 841.26L597.332 789.366L673.606 789.842L673.285 841.734Z" stroke="#0626A9" stroke-width="2" stroke-linecap="round" stroke-linejoin="round"/>
<path d="M534.37 734.485C534.37 734.485 547.549 734.567 562.378 734.659" stroke="#0626A9" stroke-width="2" stroke-linecap="round" stroke-linejoin="round"/>
<path d="M534.31 699.456C534.31 699.456 597.842 699.852 635.089 700.084" stroke="#0626A9" stroke-width="2" stroke-linecap="round" stroke-linejoin="round"/>
<path d="M534.267 664.426L588.429 664.765" stroke="#0626A9" stroke-width="2" stroke-linecap="round" stroke-linejoin="round"/>
<path d="M584.679 585.602C584.65 589.899 581.147 593.36 576.841 593.333C572.55 593.306 569.092 589.801 569.121 585.504C569.135 581.207 572.653 577.745 576.944 577.773C581.235 577.799 584.708 581.305 584.679 585.602Z" fill="#0626A9"/>
<path d="M584.679 585.602C584.65 589.899 581.147 593.36 576.841 593.333C572.55 593.306 569.092 589.801 569.121 585.504C569.135 581.207 572.653 577.745 576.944 577.773C581.235 577.799 584.708 581.305 584.679 585.602Z" stroke="#0626A9" stroke-width="2" stroke-linecap="round" stroke-linejoin="round"/>
<path d="M551.927 585.397C551.913 589.694 548.395 593.156 544.104 593.129C539.813 593.102 536.34 589.596 536.369 585.299C536.398 581.002 539.901 577.541 544.206 577.568C548.497 577.595 551.956 581.1 551.927 585.397Z" fill="#8869D5"/>
<path d="M551.927 585.397C551.913 589.694 548.395 593.156 544.104 593.129C539.813 593.102 536.34 589.596 536.369 585.299C536.398 581.002 539.901 577.541 544.206 577.568C548.497 577.595 551.956 581.1 551.927 585.397Z" stroke="#0626A9" stroke-width="2" stroke-linecap="round" stroke-linejoin="round"/>
<path d="M519.192 585.193C519.162 589.49 515.66 592.952 511.369 592.926C507.063 592.898 503.604 589.394 503.633 585.097C503.663 580.8 507.165 577.338 511.456 577.364C515.762 577.391 519.221 580.896 519.192 585.193Z" fill="#84AAE4"/>
<path d="M519.192 585.193C519.162 589.49 515.66 592.952 511.369 592.926C507.063 592.898 503.604 589.394 503.633 585.097C503.663 580.8 507.165 577.338 511.456 577.364C515.762 577.391 519.221 580.896 519.192 585.193Z" stroke="#0626A9" stroke-width="2" stroke-linecap="round" stroke-linejoin="round"/>
<path d="M1130.55 947.038L862 945.365L864.452 551.801L1133 553.475L1130.55 947.038Z" fill="white"/>
<path d="M1130.55 947.038L862 945.365L864.452 551.801L1133 553.475L1130.55 947.038Z" stroke="#0626A9" stroke-width="2" stroke-linecap="round" stroke-linejoin="round"/>
<path d="M1096.58 880.663L896.793 879.418L898.428 618.178L1098.2 619.423L1096.58 880.663Z" fill="white"/>
<path d="M1096.58 880.663L896.793 879.418L898.428 618.178L1098.2 619.423L1096.58 880.663Z" stroke="#0626A9" stroke-width="2" stroke-linecap="round" stroke-linejoin="round"/>
<path d="M1068.28 841.734L991.997 841.26L992.332 789.366L1068.61 789.842L1068.28 841.734Z" fill="#84AAE4"/>
<path d="M1068.28 841.734L991.997 841.26L992.332 789.366L1068.61 789.842L1068.28 841.734Z" stroke="#0626A9" stroke-width="2" stroke-linecap="round" stroke-linejoin="round"/>
<path d="M929.37 734.485C929.37 734.485 942.549 734.567 957.378 734.659" stroke="#0626A9" stroke-width="2" stroke-linecap="round" stroke-linejoin="round"/>
<path d="M929.31 699.456C929.31 699.456 992.842 699.852 1030.09 700.084" stroke="#0626A9" stroke-width="2" stroke-linecap="round" stroke-linejoin="round"/>
<path d="M929.267 664.426L983.429 664.765" stroke="#0626A9" stroke-width="2" stroke-linecap="round" stroke-linejoin="round"/>
<path d="M979.679 585.602C979.65 589.899 976.147 593.36 971.841 593.333C967.55 593.306 964.092 589.801 964.121 585.504C964.135 581.207 967.653 577.745 971.944 577.773C976.235 577.799 979.708 581.305 979.679 585.602Z" fill="#0626A9"/>
<path d="M979.679 585.602C979.65 589.899 976.147 593.36 971.841 593.333C967.55 593.306 964.092 589.801 964.121 585.504C964.135 581.207 967.653 577.745 971.944 577.773C976.235 577.799 979.708 581.305 979.679 585.602Z" stroke="#0626A9" stroke-width="2" stroke-linecap="round" stroke-linejoin="round"/>
<path d="M946.927 585.397C946.913 589.694 943.395 593.156 939.104 593.129C934.813 593.102 931.34 589.596 931.369 585.299C931.398 581.002 934.901 577.541 939.206 577.568C943.497 577.595 946.956 581.1 946.927 585.397Z" fill="#8869D5"/>
<path d="M946.927 585.397C946.913 589.694 943.395 593.156 939.104 593.129C934.813 593.102 931.34 589.596 931.369 585.299C931.398 581.002 934.901 577.541 939.206 577.568C943.497 577.595 946.956 581.1 946.927 585.397Z" stroke="#0626A9" stroke-width="2" stroke-linecap="round" stroke-linejoin="round"/>
<path d="M914.192 585.193C914.162 589.49 910.66 592.952 906.369 592.926C902.063 592.898 898.604 589.394 898.633 585.097C898.663 580.8 902.165 577.338 906.456 577.364C910.762 577.391 914.221 580.896 914.192 585.193Z" fill="#84AAE4"/>
<path d="M914.192 585.193C914.162 589.49 910.66 592.952 906.369 592.926C902.063 592.898 898.604 589.394 898.633 585.097C898.663 580.8 902.165 577.338 906.456 577.364C910.762 577.391 914.221 580.896 914.192 585.193Z" stroke="#0626A9" stroke-width="2" stroke-linecap="round" stroke-linejoin="round"/>
</g>
<mask id="mask4_40000055_7901" style="mask-type:luminance" maskUnits="userSpaceOnUse" x="0" y="0" width="1600" height="1600">
<path d="M0 0H1600V1600H0V0Z" fill="white"/>
</mask>
<g mask="url(#mask4_40000055_7901)">
<path d="M600.852 1057H379V713.26H600.852V1057Z" fill="white"/>
<path d="M600.852 1057H379V713.26H600.852V1057Z" stroke="#0626A9" stroke-width="2" stroke-linecap="round" stroke-linejoin="round"/>
<path d="M574.51 1032.19H405.342V770.074H574.51V1032.19Z" fill="#84AAE4"/>
<path d="M491.75 804.75H513.75" stroke="#0626A9" stroke-width="4" stroke-linecap="round" stroke-linejoin="round"/>
<path d="M491.75 824H513.75" stroke="#0626A9" stroke-width="4" stroke-linecap="round" stroke-linejoin="round"/>
<path d="M491.75 843.25H513.75" stroke="#0626A9" stroke-width="4" stroke-linecap="round" stroke-linejoin="round"/>
<path d="M464.25 837.75L469.75 843.25L480.75 832.25" stroke="#0626A9" stroke-width="4" stroke-linecap="round" stroke-linejoin="round"/>
<path d="M464.25 810.25L469.75 815.75L480.75 804.75" stroke="#0626A9" stroke-width="4" stroke-linecap="round" stroke-linejoin="round"/>
<path d="M574.51 1032.19H405.342V770.074H574.51V1032.19Z" stroke="#0626A9" stroke-width="2" stroke-linecap="round" stroke-linejoin="round"/>
<path d="M548.922 906.766H466V891H548.922V906.766Z" fill="#8869D5"/>
<path d="M548.922 938.766H466V923H548.922V938.766Z" fill="#8869D5"/>
<mask id="mask5_40000055_7901" style="mask-type:luminance" maskUnits="userSpaceOnUse" x="426" y="920" width="24" height="24">
<path d="M450 920H426V944H450V920Z" fill="white"/>
</mask>
<g mask="url(#mask5_40000055_7901)">
<path d="M447.801 930C448.258 932.241 447.932 934.571 446.879 936.602C445.826 938.632 444.108 940.24 442.013 941.157C439.917 942.075 437.571 942.246 435.364 941.642C433.158 941.039 431.225 939.697 429.888 937.841C428.551 935.985 427.891 933.727 428.018 931.443C428.144 929.16 429.05 926.988 430.584 925.291C432.118 923.594 434.187 922.474 436.446 922.118C438.706 921.762 441.019 922.192 443 923.335" stroke="#8869D5" stroke-width="3" stroke-linecap="round" stroke-linejoin="round"/>
<path d="M435 931L438 934L448 924" stroke="#8869D5" stroke-width="3" stroke-linecap="round" stroke-linejoin="round"/>
</g>
<mask id="mask6_40000055_7901" style="mask-type:luminance" maskUnits="userSpaceOnUse" x="426" y="888" width="24" height="24">
<path d="M450 888H426V912H450V888Z" fill="white"/>
</mask>
<g mask="url(#mask6_40000055_7901)">
<path d="M447.801 898C448.258 900.241 447.932 902.571 446.879 904.602C445.826 906.632 444.108 908.24 442.013 909.157C439.917 910.075 437.571 910.246 435.364 909.642C433.158 909.039 431.225 907.697 429.888 905.841C428.551 903.985 427.891 901.727 428.018 899.443C428.144 897.16 429.05 894.988 430.584 893.291C432.118 891.594 434.187 890.474 436.446 890.118C438.706 889.762 441.019 890.192 443 891.335" stroke="#8869D5" stroke-width="3" stroke-linecap="round" stroke-linejoin="round"/>
<path d="M435 899L438 902L448 892" stroke="#8869D5" stroke-width="3" stroke-linecap="round" stroke-linejoin="round"/>
</g>
<path d="M480.963 743.769C480.963 747.778 477.713 751.028 473.704 751.028C469.695 751.028 466.445 747.778 466.445 743.769C466.445 739.76 469.695 736.51 473.704 736.51C477.713 736.51 480.963 739.76 480.963 743.769Z" fill="white"/>
<path d="M480.963 743.769C480.963 747.778 477.713 751.028 473.704 751.028C469.695 751.028 466.445 747.778 466.445 743.769C466.445 739.76 469.695 736.51 473.704 736.51C477.713 736.51 480.963 739.76 480.963 743.769Z" stroke="#0626A9" stroke-width="2" stroke-linecap="round" stroke-linejoin="round"/>
<path d="M450.412 743.769C450.412 747.778 447.162 751.028 443.153 751.028C439.144 751.028 435.894 747.778 435.894 743.769C435.894 739.76 439.144 736.51 443.153 736.51C447.162 736.51 450.412 739.76 450.412 743.769Z" fill="#8869D5"/>
<path d="M450.412 743.769C450.412 747.778 447.162 751.028 443.153 751.028C439.144 751.028 435.894 747.778 435.894 743.769C435.894 739.76 439.144 736.51 443.153 736.51C447.162 736.51 450.412 739.76 450.412 743.769Z" stroke="#0626A9" stroke-width="2" stroke-linecap="round" stroke-linejoin="round"/>
<path d="M419.86 743.769C419.86 747.778 416.61 751.028 412.601 751.028C408.592 751.028 405.342 747.778 405.342 743.769C405.342 739.76 408.592 736.51 412.601 736.51C416.61 736.51 419.86 739.76 419.86 743.769Z" fill="#84AAE4"/>
<path d="M419.86 743.769C419.86 747.778 416.61 751.028 412.601 751.028C408.592 751.028 405.342 747.778 405.342 743.769C405.342 739.76 408.592 736.51 412.601 736.51C416.61 736.51 419.86 739.76 419.86 743.769Z" stroke="#0626A9" stroke-width="2" stroke-linecap="round" stroke-linejoin="round"/>
</g>
<path d="M181 647.088V1123.86" stroke="#0626A9" stroke-width="2" stroke-linecap="round" stroke-linejoin="round"/>
<path d="M231.705 1111.66H127.183V1136.07H231.705V1111.66Z" fill="#84AAE4"/>
<path d="M231.705 1111.66H127.183V1136.07H231.705V1111.66Z" stroke="#0626A9" stroke-width="2" stroke-linecap="round" stroke-linejoin="round"/>
<path d="M149 729.593H213" stroke="#0626A9" stroke-width="2" stroke-linecap="round" stroke-linejoin="round"/>
<path d="M190.926 729.593C190.926 735.075 186.482 739.519 181 739.519C175.518 739.519 171.074 735.075 171.074 729.593C171.074 724.111 175.518 719.667 181 719.667C186.482 719.667 190.926 724.111 190.926 729.593Z" fill="#0626A9"/>
<path d="M190.926 729.593C190.926 735.075 186.482 739.519 181 739.519C175.518 739.519 171.074 735.075 171.074 729.593C171.074 724.111 175.518 719.667 181 719.667C186.482 719.667 190.926 724.111 190.926 729.593Z" stroke="#0626A9" stroke-width="2" stroke-linecap="round" stroke-linejoin="round"/>
<path d="M108.775 890.803L254.124 565.942" stroke="#0626A9" stroke-width="2" stroke-linecap="round" stroke-linejoin="round"/>
<path d="M92.1901 944.81L127.339 865.011L115.685 859.877L80.5361 939.677L92.1901 944.81Z" fill="#84AAE4"/>
<path d="M92.1901 944.81L127.339 865.011L115.685 859.877L80.5361 939.677L92.1901 944.81Z" stroke="#0626A9" stroke-width="2" stroke-linecap="round" stroke-linejoin="round"/>
<path d="M236.58 590.532L219.155 581.988C209.531 577.269 205.554 565.642 210.274 556.019C214.993 546.395 226.619 542.418 236.243 547.137L253.669 555.682L236.58 590.532Z" fill="#84AAE4"/>
<path d="M236.58 590.532L219.155 581.988C209.531 577.269 205.554 565.642 210.274 556.019C214.993 546.395 226.619 542.418 236.243 547.137L253.669 555.682L236.58 590.532Z" stroke="#0626A9" stroke-width="2" stroke-linecap="round" stroke-linejoin="round"/>
<path d="M289.602 666.128L259.124 645.794C233.074 629.759 223.47 596.557 236.937 569.092C250.404 541.627 282.536 528.89 311.163 539.667L345.902 551.312L289.602 666.128Z" fill="#84AAE4"/>
<path d="M289.602 666.128L259.124 645.794C233.074 629.759 223.47 596.557 236.937 569.092C250.404 541.627 282.536 528.89 311.163 539.667L345.902 551.312L289.602 666.128Z" stroke="#0626A9" stroke-width="2" stroke-linecap="round" stroke-linejoin="round"/>
<path d="M359.719 629.298C344.173 661.003 313.942 678.062 292.197 667.4C270.451 656.737 265.426 622.39 280.973 590.686C296.519 558.981 326.75 541.921 348.495 552.584C370.241 563.247 375.266 597.593 359.719 629.298Z" fill="white"/>
<path d="M359.719 629.298C344.173 661.003 313.942 678.062 292.197 667.4C270.451 656.737 265.426 622.39 280.973 590.686C296.519 558.981 326.75 541.921 348.495 552.584C370.241 563.247 375.266 597.593 359.719 629.298Z" stroke="#0626A9" stroke-width="2" stroke-linecap="round" stroke-linejoin="round"/>
<path d="M303.193 568.086C301.664 567.336 300.101 566.736 298.521 566.264C291.754 572.819 285.686 581.074 280.973 590.686C276.26 600.297 273.45 610.149 272.41 619.513C273.751 620.474 275.182 621.342 276.711 622.091C291.624 629.404 309.642 623.242 316.954 608.329C324.267 593.415 318.106 575.399 303.193 568.086Z" fill="#0626A9"/>
<path d="M303.193 568.086C301.664 567.336 300.101 566.736 298.521 566.264C291.754 572.819 285.686 581.074 280.973 590.686C276.26 600.297 273.45 610.149 272.41 619.513C273.751 620.474 275.182 621.342 276.711 622.091C291.624 629.404 309.642 623.242 316.954 608.329C324.267 593.415 318.106 575.399 303.193 568.086Z" stroke="#0626A9" stroke-width="2" stroke-linecap="round" stroke-linejoin="round"/>
</g>
</g>
</g>
<defs>
<clipPath id="clip0_40000055_7901">
<rect width="1600" height="1600" fill="white"/>
</clipPath>
</defs>
</svg>
