<svg xmlns="http://www.w3.org/2000/svg" xmlns:xlink="http://www.w3.org/1999/xlink" viewBox="0 0 1600 1600" width="1600" height="1600" preserveAspectRatio="xMidYMid meet" style="width: 100%; height: 100%; transform: translate3d(0px, 0px, 0px); content-visibility: visible;"><defs><clipPath id="__lottie_element_2"><rect width="1600" height="1600" x="0" y="0"></rect></clipPath><clipPath id="__lottie_element_10"><path d="M0,0 L1600,0 L1600,1600 L0,1600z"></path></clipPath><clipPath id="__lottie_element_32"><path d="M0,0 L1600,0 L1600,1600 L0,1600z"></path></clipPath><clipPath id="__lottie_element_54"><path d="M0,0 L1600,0 L1600,1600 L0,1600z"></path></clipPath><clipPath id="__lottie_element_125"><path d="M0,0 L1600,0 L1600,1600 L0,1600z"></path></clipPath></defs><g clip-path="url(#__lottie_element_2)"><g transform="matrix(1,0,0,1,800,1136.0699462890625)" opacity="1" style="display: block;"><g opacity="1" transform="matrix(1,0,0,1,0,0)"><path fill="rgb(255,255,255)" fill-opacity="1" d=" M-729.3330078125,0 C-729.3330078125,0 729.3330078125,0 729.3330078125,0"></path><path stroke-linecap="round" stroke-linejoin="round" fill-opacity="0" stroke="rgb(32,40,112)" stroke-opacity="1" stroke-width="2" d=" M-729.3330078125,0 C-729.3330078125,0 729.3330078125,0 729.3330078125,0"></path></g></g><g transform="matrix(0.9997087121009827,0.024135559797286987,-0.024135559797286987,0.9997087121009827,24.959564208984375,-9.896728515625)" opacity="1" style="display: block;"><g opacity="1" transform="matrix(1,0,0,1,379,994.9910278320312)"><path fill="rgb(32,40,112)" fill-opacity="1" d=" M136.156005859375,-36.21900177001953 C136.156005859375,-36.21900177001953 -136.156005859375,-36.21900177001953 -136.156005859375,-36.21900177001953 C-136.156005859375,-36.21900177001953 -136.156005859375,36.21900177001953 -136.156005859375,36.21900177001953 C-136.156005859375,36.21900177001953 136.156005859375,36.21900177001953 136.156005859375,36.21900177001953 C136.156005859375,36.21900177001953 136.156005859375,-36.21900177001953 136.156005859375,-36.21900177001953z"></path><path stroke-linecap="round" stroke-linejoin="round" fill-opacity="0" stroke="rgb(32,40,112)" stroke-opacity="1" stroke-width="2" d=" M136.156005859375,-36.21900177001953 C136.156005859375,-36.21900177001953 -136.156005859375,-36.21900177001953 -136.156005859375,-36.21900177001953 C-136.156005859375,-36.21900177001953 -136.156005859375,36.21900177001953 -136.156005859375,36.21900177001953 C-136.156005859375,36.21900177001953 136.156005859375,36.21900177001953 136.156005859375,36.21900177001953 C136.156005859375,36.21900177001953 136.156005859375,-36.21900177001953 136.156005859375,-36.21900177001953z"></path></g><g opacity="1" transform="matrix(1,0,0,1,379,994.9819946289062)"><path stroke-linecap="round" stroke-linejoin="round" fill-opacity="0" stroke="rgb(255,255,255)" stroke-opacity="1" stroke-width="2" d=" M-109.83300018310547,0 C-109.83300018310547,0 -17.054000854492188,0 47.90999984741211,0"></path></g></g><g transform="matrix(0.9992555379867554,0.038579653948545456,-0.038579653948545456,0.9992555379867554,38.22607421875,-56.1475830078125)" opacity="1" style="display: block;"><g opacity="1" transform="matrix(1,0,0,1,1306.3780517578125,926.7780151367188)"><path fill="rgb(32,40,112)" fill-opacity="1" d=" M136.156005859375,-36.21900177001953 C136.156005859375,-36.21900177001953 -136.156005859375,-36.21900177001953 -136.156005859375,-36.21900177001953 C-136.156005859375,-36.21900177001953 -136.156005859375,36.21900177001953 -136.156005859375,36.21900177001953 C-136.156005859375,36.21900177001953 136.156005859375,36.21900177001953 136.156005859375,36.21900177001953 C136.156005859375,36.21900177001953 136.156005859375,-36.21900177001953 136.156005859375,-36.21900177001953z"></path><path stroke-linecap="round" stroke-linejoin="round" fill-opacity="0" stroke="rgb(32,40,112)" stroke-opacity="1" stroke-width="2" d=" M136.156005859375,-36.21900177001953 C136.156005859375,-36.21900177001953 -136.156005859375,-36.21900177001953 -136.156005859375,-36.21900177001953 C-136.156005859375,-36.21900177001953 -136.156005859375,36.21900177001953 -136.156005859375,36.21900177001953 C-136.156005859375,36.21900177001953 136.156005859375,36.21900177001953 136.156005859375,36.21900177001953 C136.156005859375,36.21900177001953 136.156005859375,-36.21900177001953 136.156005859375,-36.21900177001953z"></path></g><g opacity="1" transform="matrix(1,0,0,1,1306.3780517578125,926.7689819335938)"><path stroke-linecap="round" stroke-linejoin="round" fill-opacity="0" stroke="rgb(255,255,255)" stroke-opacity="1" stroke-width="2" d=" M-89.6259994506836,0 C-35.29600143432617,0 109.83300018310547,0 109.83300018310547,0"></path></g></g><g clip-path="url(#__lottie_element_125)" transform="matrix(1,0,0,1,0,0)" opacity="1" style="display: block;"><g transform="matrix(0.9999805688858032,0.006230785045772791,-0.006230785045772791,0.9999805688858032,4.5428466796875,-1.37921142578125)" opacity="1" style="display: block;"><g opacity="1" transform="matrix(1,0,0,1,1302.3330078125,590.4979858398438)"><path fill="rgb(255,255,255)" fill-opacity="1" d=" M92,134.83099365234375 C92,134.83099365234375 -92,134.83099365234375 -92,134.83099365234375 C-92,134.83099365234375 -92,-134.83099365234375 -92,-134.83099365234375 C-92,-134.83099365234375 92,-134.83099365234375 92,-134.83099365234375 C92,-134.83099365234375 92,134.83099365234375 92,134.83099365234375z"></path><path stroke-linecap="round" stroke-linejoin="round" fill-opacity="0" stroke="rgb(32,40,112)" stroke-opacity="1" stroke-width="2" d=" M92,134.83099365234375 C92,134.83099365234375 -92,134.83099365234375 -92,134.83099365234375 C-92,134.83099365234375 -92,-134.83099365234375 -92,-134.83099365234375 C-92,-134.83099365234375 92,-134.83099365234375 92,-134.83099365234375 C92,-134.83099365234375 92,134.83099365234375 92,134.83099365234375z"></path></g><g opacity="1" transform="matrix(1,0,0,1,1302.3330078125,590.4979858398438)"><path fill="rgb(255,255,255)" fill-opacity="1" d=" M68.44400024414062,89.49800109863281 C68.44400024414062,89.49800109863281 -68.44400024414062,89.49800109863281 -68.44400024414062,89.49800109863281 C-68.44400024414062,89.49800109863281 -68.44400024414062,-89.49800109863281 -68.44400024414062,-89.49800109863281 C-68.44400024414062,-89.49800109863281 68.44400024414062,-89.49800109863281 68.44400024414062,-89.49800109863281 C68.44400024414062,-89.49800109863281 68.44400024414062,89.49800109863281 68.44400024414062,89.49800109863281z"></path><path stroke-linecap="round" stroke-linejoin="round" fill-opacity="0" stroke="rgb(32,40,112)" stroke-opacity="1" stroke-width="2" d=" M68.44400024414062,89.49800109863281 C68.44400024414062,89.49800109863281 -68.44400024414062,89.49800109863281 -68.44400024414062,89.49800109863281 C-68.44400024414062,89.49800109863281 -68.44400024414062,-89.49800109863281 -68.44400024414062,-89.49800109863281 C-68.44400024414062,-89.49800109863281 68.44400024414062,-89.49800109863281 68.44400024414062,-89.49800109863281 C68.44400024414062,-89.49800109863281 68.44400024414062,89.49800109863281 68.44400024414062,89.49800109863281z"></path></g><g opacity="1" transform="matrix(1,0,0,1,1325.0909423828125,635.6669921875)"><path fill="rgb(132,132,250)" fill-opacity="1" d=" M26.131999969482422,17.777999877929688 C26.131999969482422,17.777999877929688 -26.131999969482422,17.777999877929688 -26.131999969482422,17.777999877929688 C-26.131999969482422,17.777999877929688 -26.131999969482422,-17.777999877929688 -26.131999969482422,-17.777999877929688 C-26.131999969482422,-17.777999877929688 26.131999969482422,-17.777999877929688 26.131999969482422,-17.777999877929688 C26.131999969482422,-17.777999877929688 26.131999969482422,17.777999877929688 26.131999969482422,17.777999877929688z"></path><path stroke-linecap="round" stroke-linejoin="round" fill-opacity="0" stroke="rgb(32,40,112)" stroke-opacity="1" stroke-width="2" d=" M26.131999969482422,17.777999877929688 C26.131999969482422,17.777999877929688 -26.131999969482422,17.777999877929688 -26.131999969482422,17.777999877929688 C-26.131999969482422,17.777999877929688 -26.131999969482422,-17.777999877929688 -26.131999969482422,-17.777999877929688 C-26.131999969482422,-17.777999877929688 26.131999969482422,-17.777999877929688 26.131999969482422,-17.777999877929688 C26.131999969482422,-17.777999877929688 26.131999969482422,17.777999877929688 26.131999969482422,17.777999877929688z"></path></g></g><g transform="matrix(0.9999805688858032,0.006230785045772791,-0.006230785045772791,0.9999805688858032,4.5428466796875,-1.37921142578125)" opacity="1" style="display: block;"><g opacity="1" transform="matrix(1,0,0,1,1279.1400146484375,580.5560302734375)"><path stroke-linecap="round" stroke-linejoin="round" fill-opacity="0" stroke="rgb(32,40,112)" stroke-opacity="1" stroke-width="2" d=" M-23.555999755859375,0 C-23.555999755859375,0 -14.520000457763672,0 -4.36299991607666,0"></path></g></g><g transform="matrix(0.9999805688858032,0.006230785045772791,-0.006230785045772791,0.9999805688858032,4.5428466796875,-1.37921142578125)" opacity="1" style="display: block;"><g opacity="1" transform="matrix(1,0,0,1,1298.958984375,556.5560302734375)"><path stroke-linecap="round" stroke-linejoin="round" fill-opacity="0" stroke="rgb(32,40,112)" stroke-opacity="1" stroke-width="2" d=" M-43.555999755859375,0 C-43.555999755859375,0 -0.02800000086426735,0 25.489999771118164,0"></path></g></g><g transform="matrix(0.9999805688858032,0.006230785045772791,-0.006230785045772791,0.9999805688858032,4.5428466796875,-1.37921142578125)" opacity="1" style="display: block;"><g opacity="1" transform="matrix(1,0,0,1,1273.7779541015625,532.5560302734375)"><path stroke-linecap="round" stroke-linejoin="round" fill-opacity="0" stroke="rgb(32,40,112)" stroke-opacity="1" stroke-width="2" d=" M-18.555999755859375,0 C-18.555999755859375,0 18.555999755859375,0 18.555999755859375,0"></path></g></g><g transform="matrix(0.9999805688858032,0.006230785045772791,-0.006230785045772791,0.9999805688858032,4.5428466796875,-1.37921142578125)" opacity="1" style="display: block;"><g opacity="1" transform="matrix(1,0,0,1,1284.0889892578125,478.3330078125)"><path fill="rgb(32,40,112)" fill-opacity="1" d=" M5.330999851226807,0 C5.330999851226807,2.944000005722046 2.944000005722046,5.330999851226807 0,5.330999851226807 C-2.944000005722046,5.330999851226807 -5.330999851226807,2.944000005722046 -5.330999851226807,0 C-5.330999851226807,-2.944000005722046 -2.944000005722046,-5.330999851226807 0,-5.330999851226807 C2.944000005722046,-5.330999851226807 5.330999851226807,-2.944000005722046 5.330999851226807,0z"></path><path stroke-linecap="round" stroke-linejoin="round" fill-opacity="0" stroke="rgb(32,40,112)" stroke-opacity="1" stroke-width="2" d=" M5.330999851226807,0 C5.330999851226807,2.944000005722046 2.944000005722046,5.330999851226807 0,5.330999851226807 C-2.944000005722046,5.330999851226807 -5.330999851226807,2.944000005722046 -5.330999851226807,0 C-5.330999851226807,-2.944000005722046 -2.944000005722046,-5.330999851226807 0,-5.330999851226807 C2.944000005722046,-5.330999851226807 5.330999851226807,-2.944000005722046 5.330999851226807,0z"></path></g></g><g transform="matrix(0.9999805688858032,0.006230785045772791,-0.006230785045772791,0.9999805688858032,4.5428466796875,-1.37921142578125)" opacity="1" style="display: block;"><g opacity="1" transform="matrix(1,0,0,1,1261.655029296875,478.3330078125)"><path fill="rgb(249,74,130)" fill-opacity="1" d=" M5.330999851226807,0 C5.330999851226807,2.944000005722046 2.944000005722046,5.330999851226807 0,5.330999851226807 C-2.944000005722046,5.330999851226807 -5.330999851226807,2.944000005722046 -5.330999851226807,0 C-5.330999851226807,-2.944000005722046 -2.944000005722046,-5.330999851226807 0,-5.330999851226807 C2.944000005722046,-5.330999851226807 5.330999851226807,-2.944000005722046 5.330999851226807,0z"></path><path stroke-linecap="round" stroke-linejoin="round" fill-opacity="0" stroke="rgb(32,40,112)" stroke-opacity="1" stroke-width="2" d=" M5.330999851226807,0 C5.330999851226807,2.944000005722046 2.944000005722046,5.330999851226807 0,5.330999851226807 C-2.944000005722046,5.330999851226807 -5.330999851226807,2.944000005722046 -5.330999851226807,0 C-5.330999851226807,-2.944000005722046 -2.944000005722046,-5.330999851226807 0,-5.330999851226807 C2.944000005722046,-5.330999851226807 5.330999851226807,-2.944000005722046 5.330999851226807,0z"></path></g></g><g transform="matrix(0.9999805688858032,0.006230785045772791,-0.006230785045772791,0.9999805688858032,4.5428466796875,-1.37921142578125)" opacity="1" style="display: block;"><g opacity="1" transform="matrix(1,0,0,1,1239.219970703125,478.3330078125)"><path fill="rgb(132,132,250)" fill-opacity="1" d=" M5.330999851226807,0 C5.330999851226807,2.944000005722046 2.944000005722046,5.330999851226807 0,5.330999851226807 C-2.944000005722046,5.330999851226807 -5.330999851226807,2.944000005722046 -5.330999851226807,0 C-5.330999851226807,-2.944000005722046 -2.944000005722046,-5.330999851226807 0,-5.330999851226807 C2.944000005722046,-5.330999851226807 5.330999851226807,-2.944000005722046 5.330999851226807,0z"></path><path stroke-linecap="round" stroke-linejoin="round" fill-opacity="0" stroke="rgb(32,40,112)" stroke-opacity="1" stroke-width="2" d=" M5.330999851226807,0 C5.330999851226807,2.944000005722046 2.944000005722046,5.330999851226807 0,5.330999851226807 C-2.944000005722046,5.330999851226807 -5.330999851226807,2.944000005722046 -5.330999851226807,0 C-5.330999851226807,-2.944000005722046 -2.944000005722046,-5.330999851226807 0,-5.330999851226807 C2.944000005722046,-5.330999851226807 5.330999851226807,-2.944000005722046 5.330999851226807,0z"></path></g></g></g><g transform="matrix(1,0,0,1,0,0)" opacity="1" style="display: block;"><g opacity="1" transform="matrix(1,0,0,1,546.3330078125,1099.449951171875)"><path fill="rgb(132,132,250)" fill-opacity="1" d=" M255.86500549316406,-12.206999778747559 C255.86500549316406,-12.206999778747559 212.63499450683594,-11.961000442504883 212.63499450683594,-11.961000442504883 C212.63499450683594,-11.961000442504883 212.63499450683594,-1.0190000534057617 212.63499450683594,-1.0190000534057617 C212.63499450683594,-1.0190000534057617 212.63499450683594,12.45300006866455 212.63499450683594,12.45300006866455 C212.63499450683594,12.45300006866455 255.86500549316406,12.206999778747559 255.86500549316406,12.206999778747559 C255.86500549316406,12.206999778747559 255.86500549316406,-12.206999778747559 255.86500549316406,-12.206999778747559z"></path><path stroke-linecap="round" stroke-linejoin="round" fill-opacity="0" stroke="rgb(32,40,112)" stroke-opacity="1" stroke-width="2" d=" M255.86500549316406,-12.206999778747559 C255.86500549316406,-12.206999778747559 212.63499450683594,-11.961000442504883 212.63499450683594,-11.961000442504883 C212.63499450683594,-11.961000442504883 212.63499450683594,-1.0190000534057617 212.63499450683594,-1.0190000534057617 C212.63499450683594,-1.0190000534057617 212.63499450683594,12.45300006866455 212.63499450683594,12.45300006866455 C212.63499450683594,12.45300006866455 255.86500549316406,12.206999778747559 255.86500549316406,12.206999778747559 C255.86500549316406,12.206999778747559 255.86500549316406,-12.206999778747559 255.86500549316406,-12.206999778747559z"></path></g><g opacity="1" transform="matrix(1,0,0,1,503.5830078125,1099.449951171875)"><path fill="rgb(132,132,250)" fill-opacity="1" d=" M255.86500549316406,-12.206999778747559 C255.86500549316406,-12.206999778747559 212.63499450683594,-11.961000442504883 212.63499450683594,-11.961000442504883 C212.63499450683594,-11.961000442504883 212.63499450683594,-1.0190000534057617 212.63499450683594,-1.0190000534057617 C212.63499450683594,-1.0190000534057617 212.63499450683594,12.45300006866455 212.63499450683594,12.45300006866455 C212.63499450683594,12.45300006866455 255.86500549316406,12.206999778747559 255.86500549316406,12.206999778747559 C255.86500549316406,12.206999778747559 255.86500549316406,-12.206999778747559 255.86500549316406,-12.206999778747559z"></path><path stroke-linecap="round" stroke-linejoin="round" fill-opacity="0" stroke="rgb(32,40,112)" stroke-opacity="1" stroke-width="2" d=" M255.86500549316406,-12.206999778747559 C255.86500549316406,-12.206999778747559 212.63499450683594,-11.961000442504883 212.63499450683594,-11.961000442504883 C212.63499450683594,-11.961000442504883 212.63499450683594,-1.0190000534057617 212.63499450683594,-1.0190000534057617 C212.63499450683594,-1.0190000534057617 212.63499450683594,12.45300006866455 212.63499450683594,12.45300006866455 C212.63499450683594,12.45300006866455 255.86500549316406,12.206999778747559 255.86500549316406,12.206999778747559 C255.86500549316406,12.206999778747559 255.86500549316406,-12.206999778747559 255.86500549316406,-12.206999778747559z"></path></g><g opacity="1" transform="matrix(1,0,0,1,460.5830078125,1099.449951171875)"><path fill="rgb(132,132,250)" fill-opacity="1" d=" M255.86500549316406,-12.206999778747559 C255.86500549316406,-12.206999778747559 212.63499450683594,-11.961000442504883 212.63499450683594,-11.961000442504883 C212.63499450683594,-11.961000442504883 212.63499450683594,-1.0190000534057617 212.63499450683594,-1.0190000534057617 C212.63499450683594,-1.0190000534057617 212.63499450683594,12.45300006866455 212.63499450683594,12.45300006866455 C212.63499450683594,12.45300006866455 255.86500549316406,12.206999778747559 255.86500549316406,12.206999778747559 C255.86500549316406,12.206999778747559 255.86500549316406,-12.206999778747559 255.86500549316406,-12.206999778747559z"></path><path stroke-linecap="round" stroke-linejoin="round" fill-opacity="0" stroke="rgb(32,40,112)" stroke-opacity="1" stroke-width="2" d=" M255.86500549316406,-12.206999778747559 C255.86500549316406,-12.206999778747559 212.63499450683594,-11.961000442504883 212.63499450683594,-11.961000442504883 C212.63499450683594,-11.961000442504883 212.63499450683594,-1.0190000534057617 212.63499450683594,-1.0190000534057617 C212.63499450683594,-1.0190000534057617 212.63499450683594,12.45300006866455 212.63499450683594,12.45300006866455 C212.63499450683594,12.45300006866455 255.86500549316406,12.206999778747559 255.86500549316406,12.206999778747559 C255.86500549316406,12.206999778747559 255.86500549316406,-12.206999778747559 255.86500549316406,-12.206999778747559z"></path></g><g opacity="1" transform="matrix(1,0,0,1,417.2080078125,1099.449951171875)"><path fill="rgb(132,132,250)" fill-opacity="1" d=" M255.86500549316406,-12.206999778747559 C255.86500549316406,-12.206999778747559 212.63499450683594,-11.961000442504883 212.63499450683594,-11.961000442504883 C212.63499450683594,-11.961000442504883 212.63499450683594,-1.0190000534057617 212.63499450683594,-1.0190000534057617 C212.63499450683594,-1.0190000534057617 212.63499450683594,12.45300006866455 212.63499450683594,12.45300006866455 C212.63499450683594,12.45300006866455 255.86500549316406,12.206999778747559 255.86500549316406,12.206999778747559 C255.86500549316406,12.206999778747559 255.86500549316406,-12.206999778747559 255.86500549316406,-12.206999778747559z"></path><path stroke-linecap="round" stroke-linejoin="round" fill-opacity="0" stroke="rgb(32,40,112)" stroke-opacity="1" stroke-width="2" d=" M255.86500549316406,-12.206999778747559 C255.86500549316406,-12.206999778747559 212.63499450683594,-11.961000442504883 212.63499450683594,-11.961000442504883 C212.63499450683594,-11.961000442504883 212.63499450683594,-1.0190000534057617 212.63499450683594,-1.0190000534057617 C212.63499450683594,-1.0190000534057617 212.63499450683594,12.45300006866455 212.63499450683594,12.45300006866455 C212.63499450683594,12.45300006866455 255.86500549316406,12.206999778747559 255.86500549316406,12.206999778747559 C255.86500549316406,12.206999778747559 255.86500549316406,-12.206999778747559 255.86500549316406,-12.206999778747559z"></path></g><g opacity="1" transform="matrix(1,0,0,1,374.4580078125,1099.449951171875)"><path fill="rgb(132,132,250)" fill-opacity="1" d=" M255.86500549316406,-12.206999778747559 C255.86500549316406,-12.206999778747559 212.63499450683594,-11.961000442504883 212.63499450683594,-11.961000442504883 C212.63499450683594,-11.961000442504883 212.63499450683594,-1.0190000534057617 212.63499450683594,-1.0190000534057617 C212.63499450683594,-1.0190000534057617 212.63499450683594,12.45300006866455 212.63499450683594,12.45300006866455 C212.63499450683594,12.45300006866455 255.86500549316406,12.206999778747559 255.86500549316406,12.206999778747559 C255.86500549316406,12.206999778747559 255.86500549316406,-12.206999778747559 255.86500549316406,-12.206999778747559z"></path><path stroke-linecap="round" stroke-linejoin="round" fill-opacity="0" stroke="rgb(32,40,112)" stroke-opacity="1" stroke-width="2" d=" M255.86500549316406,-12.206999778747559 C255.86500549316406,-12.206999778747559 212.63499450683594,-11.961000442504883 212.63499450683594,-11.961000442504883 C212.63499450683594,-11.961000442504883 212.63499450683594,-1.0190000534057617 212.63499450683594,-1.0190000534057617 C212.63499450683594,-1.0190000534057617 212.63499450683594,12.45300006866455 212.63499450683594,12.45300006866455 C212.63499450683594,12.45300006866455 255.86500549316406,12.206999778747559 255.86500549316406,12.206999778747559 C255.86500549316406,12.206999778747559 255.86500549316406,-12.206999778747559 255.86500549316406,-12.206999778747559z"></path></g><g opacity="1" transform="matrix(1,0,0,1,331.4580078125,1099.449951171875)"><path fill="rgb(132,132,250)" fill-opacity="1" d=" M255.86500549316406,-12.206999778747559 C255.86500549316406,-12.206999778747559 212.63499450683594,-11.961000442504883 212.63499450683594,-11.961000442504883 C212.63499450683594,-11.961000442504883 212.63499450683594,-1.0190000534057617 212.63499450683594,-1.0190000534057617 C212.63499450683594,-1.0190000534057617 212.63499450683594,12.45300006866455 212.63499450683594,12.45300006866455 C212.63499450683594,12.45300006866455 255.86500549316406,12.206999778747559 255.86500549316406,12.206999778747559 C255.86500549316406,12.206999778747559 255.86500549316406,-12.206999778747559 255.86500549316406,-12.206999778747559z"></path><path stroke-linecap="round" stroke-linejoin="round" fill-opacity="0" stroke="rgb(32,40,112)" stroke-opacity="1" stroke-width="2" d=" M255.86500549316406,-12.206999778747559 C255.86500549316406,-12.206999778747559 212.63499450683594,-11.961000442504883 212.63499450683594,-11.961000442504883 C212.63499450683594,-11.961000442504883 212.63499450683594,-1.0190000534057617 212.63499450683594,-1.0190000534057617 C212.63499450683594,-1.0190000534057617 212.63499450683594,12.45300006866455 212.63499450683594,12.45300006866455 C212.63499450683594,12.45300006866455 255.86500549316406,12.206999778747559 255.86500549316406,12.206999778747559 C255.86500549316406,12.206999778747559 255.86500549316406,-12.206999778747559 255.86500549316406,-12.206999778747559z"></path></g><g opacity="1" transform="matrix(1,0,0,1,675.2080078125,1099.449951171875)"><path fill="rgb(132,132,250)" fill-opacity="1" d=" M255.86500549316406,-12.206999778747559 C255.86500549316406,-12.206999778747559 212.63499450683594,-11.961000442504883 212.63499450683594,-11.961000442504883 C212.63499450683594,-11.961000442504883 212.63499450683594,-1.0190000534057617 212.63499450683594,-1.0190000534057617 C212.63499450683594,-1.0190000534057617 212.63499450683594,12.45300006866455 212.63499450683594,12.45300006866455 C212.63499450683594,12.45300006866455 255.86500549316406,12.206999778747559 255.86500549316406,12.206999778747559 C255.86500549316406,12.206999778747559 255.86500549316406,-12.206999778747559 255.86500549316406,-12.206999778747559z"></path><path stroke-linecap="round" stroke-linejoin="round" fill-opacity="0" stroke="rgb(32,40,112)" stroke-opacity="1" stroke-width="2" d=" M255.86500549316406,-12.206999778747559 C255.86500549316406,-12.206999778747559 212.63499450683594,-11.961000442504883 212.63499450683594,-11.961000442504883 C212.63499450683594,-11.961000442504883 212.63499450683594,-1.0190000534057617 212.63499450683594,-1.0190000534057617 C212.63499450683594,-1.0190000534057617 212.63499450683594,12.45300006866455 212.63499450683594,12.45300006866455 C212.63499450683594,12.45300006866455 255.86500549316406,12.206999778747559 255.86500549316406,12.206999778747559 C255.86500549316406,12.206999778747559 255.86500549316406,-12.206999778747559 255.86500549316406,-12.206999778747559z"></path></g><g opacity="1" transform="matrix(1,0,0,1,632.4580078125,1099.449951171875)"><path fill="rgb(132,132,250)" fill-opacity="1" d=" M255.86500549316406,-12.206999778747559 C255.86500549316406,-12.206999778747559 212.63499450683594,-11.961000442504883 212.63499450683594,-11.961000442504883 C212.63499450683594,-11.961000442504883 212.63499450683594,-1.0190000534057617 212.63499450683594,-1.0190000534057617 C212.63499450683594,-1.0190000534057617 212.63499450683594,12.45300006866455 212.63499450683594,12.45300006866455 C212.63499450683594,12.45300006866455 255.86500549316406,12.206999778747559 255.86500549316406,12.206999778747559 C255.86500549316406,12.206999778747559 255.86500549316406,-12.206999778747559 255.86500549316406,-12.206999778747559z"></path><path stroke-linecap="round" stroke-linejoin="round" fill-opacity="0" stroke="rgb(32,40,112)" stroke-opacity="1" stroke-width="2" d=" M255.86500549316406,-12.206999778747559 C255.86500549316406,-12.206999778747559 212.63499450683594,-11.961000442504883 212.63499450683594,-11.961000442504883 C212.63499450683594,-11.961000442504883 212.63499450683594,-1.0190000534057617 212.63499450683594,-1.0190000534057617 C212.63499450683594,-1.0190000534057617 212.63499450683594,12.45300006866455 212.63499450683594,12.45300006866455 C212.63499450683594,12.45300006866455 255.86500549316406,12.206999778747559 255.86500549316406,12.206999778747559 C255.86500549316406,12.206999778747559 255.86500549316406,-12.206999778747559 255.86500549316406,-12.206999778747559z"></path></g><g opacity="1" transform="matrix(1,0,0,1,589.4580078125,1099.449951171875)"><path fill="rgb(132,132,250)" fill-opacity="1" d=" M255.86500549316406,-12.206999778747559 C255.86500549316406,-12.206999778747559 212.63499450683594,-11.961000442504883 212.63499450683594,-11.961000442504883 C212.63499450683594,-11.961000442504883 212.63499450683594,-1.0190000534057617 212.63499450683594,-1.0190000534057617 C212.63499450683594,-1.0190000534057617 212.63499450683594,12.45300006866455 212.63499450683594,12.45300006866455 C212.63499450683594,12.45300006866455 255.86500549316406,12.206999778747559 255.86500549316406,12.206999778747559 C255.86500549316406,12.206999778747559 255.86500549316406,-12.206999778747559 255.86500549316406,-12.206999778747559z"></path><path stroke-linecap="round" stroke-linejoin="round" fill-opacity="0" stroke="rgb(32,40,112)" stroke-opacity="1" stroke-width="2" d=" M255.86500549316406,-12.206999778747559 C255.86500549316406,-12.206999778747559 212.63499450683594,-11.961000442504883 212.63499450683594,-11.961000442504883 C212.63499450683594,-11.961000442504883 212.63499450683594,-1.0190000534057617 212.63499450683594,-1.0190000534057617 C212.63499450683594,-1.0190000534057617 212.63499450683594,12.45300006866455 212.63499450683594,12.45300006866455 C212.63499450683594,12.45300006866455 255.86500549316406,12.206999778747559 255.86500549316406,12.206999778747559 C255.86500549316406,12.206999778747559 255.86500549316406,-12.206999778747559 255.86500549316406,-12.206999778747559z"></path></g><g opacity="1" transform="matrix(1,0,0,1,718.5830078125,1099.449951171875)"><path fill="rgb(132,132,250)" fill-opacity="1" d=" M255.86500549316406,-12.206999778747559 C255.86500549316406,-12.206999778747559 212.63499450683594,-11.961000442504883 212.63499450683594,-11.961000442504883 C212.63499450683594,-11.961000442504883 212.63499450683594,-1.0190000534057617 212.63499450683594,-1.0190000534057617 C212.63499450683594,-1.0190000534057617 212.63499450683594,12.45300006866455 212.63499450683594,12.45300006866455 C212.63499450683594,12.45300006866455 255.86500549316406,12.206999778747559 255.86500549316406,12.206999778747559 C255.86500549316406,12.206999778747559 255.86500549316406,-12.206999778747559 255.86500549316406,-12.206999778747559z"></path><path stroke-linecap="round" stroke-linejoin="round" fill-opacity="0" stroke="rgb(32,40,112)" stroke-opacity="1" stroke-width="2" d=" M255.86500549316406,-12.206999778747559 C255.86500549316406,-12.206999778747559 212.63499450683594,-11.961000442504883 212.63499450683594,-11.961000442504883 C212.63499450683594,-11.961000442504883 212.63499450683594,-1.0190000534057617 212.63499450683594,-1.0190000534057617 C212.63499450683594,-1.0190000534057617 212.63499450683594,12.45300006866455 212.63499450683594,12.45300006866455 C212.63499450683594,12.45300006866455 255.86500549316406,12.206999778747559 255.86500549316406,12.206999778747559 C255.86500549316406,12.206999778747559 255.86500549316406,-12.206999778747559 255.86500549316406,-12.206999778747559z"></path></g><g opacity="1" transform="matrix(1,0,0,1,761.5830078125,1099.449951171875)"><path fill="rgb(132,132,250)" fill-opacity="1" d=" M255.86500549316406,-12.206999778747559 C255.86500549316406,-12.206999778747559 212.63499450683594,-11.961000442504883 212.63499450683594,-11.961000442504883 C212.63499450683594,-11.961000442504883 212.63499450683594,-1.0190000534057617 212.63499450683594,-1.0190000534057617 C212.63499450683594,-1.0190000534057617 212.63499450683594,12.45300006866455 212.63499450683594,12.45300006866455 C212.63499450683594,12.45300006866455 255.86500549316406,12.206999778747559 255.86500549316406,12.206999778747559 C255.86500549316406,12.206999778747559 255.86500549316406,-12.206999778747559 255.86500549316406,-12.206999778747559z"></path><path stroke-linecap="round" stroke-linejoin="round" fill-opacity="0" stroke="rgb(32,40,112)" stroke-opacity="1" stroke-width="2" d=" M255.86500549316406,-12.206999778747559 C255.86500549316406,-12.206999778747559 212.63499450683594,-11.961000442504883 212.63499450683594,-11.961000442504883 C212.63499450683594,-11.961000442504883 212.63499450683594,-1.0190000534057617 212.63499450683594,-1.0190000534057617 C212.63499450683594,-1.0190000534057617 212.63499450683594,12.45300006866455 212.63499450683594,12.45300006866455 C212.63499450683594,12.45300006866455 255.86500549316406,12.206999778747559 255.86500549316406,12.206999778747559 C255.86500549316406,12.206999778747559 255.86500549316406,-12.206999778747559 255.86500549316406,-12.206999778747559z"></path></g><g opacity="1" transform="matrix(1,0,0,1,804.3330078125,1099.449951171875)"><path fill="rgb(132,132,250)" fill-opacity="1" d=" M255.86500549316406,-12.206999778747559 C255.86500549316406,-12.206999778747559 212.63499450683594,-11.961000442504883 212.63499450683594,-11.961000442504883 C212.63499450683594,-11.961000442504883 212.63499450683594,-1.0190000534057617 212.63499450683594,-1.0190000534057617 C212.63499450683594,-1.0190000534057617 212.63499450683594,12.45300006866455 212.63499450683594,12.45300006866455 C212.63499450683594,12.45300006866455 255.86500549316406,12.206999778747559 255.86500549316406,12.206999778747559 C255.86500549316406,12.206999778747559 255.86500549316406,-12.206999778747559 255.86500549316406,-12.206999778747559z"></path><path stroke-linecap="round" stroke-linejoin="round" fill-opacity="0" stroke="rgb(32,40,112)" stroke-opacity="1" stroke-width="2" d=" M255.86500549316406,-12.206999778747559 C255.86500549316406,-12.206999778747559 212.63499450683594,-11.961000442504883 212.63499450683594,-11.961000442504883 C212.63499450683594,-11.961000442504883 212.63499450683594,-1.0190000534057617 212.63499450683594,-1.0190000534057617 C212.63499450683594,-1.0190000534057617 212.63499450683594,12.45300006866455 212.63499450683594,12.45300006866455 C212.63499450683594,12.45300006866455 255.86500549316406,12.206999778747559 255.86500549316406,12.206999778747559 C255.86500549316406,12.206999778747559 255.86500549316406,-12.206999778747559 255.86500549316406,-12.206999778747559z"></path></g><g opacity="1" transform="matrix(1,0,0,1,804.3330078125,1123.863037109375)"><g opacity="1" transform="matrix(1,0,0,1,0,0)"><path fill="rgb(132,132,250)" fill-opacity="1" d=" M284.89300537109375,-12.206999778747559 C284.89300537109375,-12.206999778747559 -284.89300537109375,-12.206999778747559 -284.89300537109375,-12.206999778747559 C-284.89300537109375,-12.206999778747559 -284.89300537109375,12.206999778747559 -284.89300537109375,12.206999778747559 C-284.89300537109375,12.206999778747559 284.89300537109375,12.206999778747559 284.89300537109375,12.206999778747559 C284.89300537109375,12.206999778747559 284.89300537109375,-12.206999778747559 284.89300537109375,-12.206999778747559z"></path><path stroke-linecap="round" stroke-linejoin="round" fill-opacity="0" stroke="rgb(32,40,112)" stroke-opacity="1" stroke-width="2" d=" M284.89300537109375,-12.206999778747559 C284.89300537109375,-12.206999778747559 -284.89300537109375,-12.206999778747559 -284.89300537109375,-12.206999778747559 C-284.89300537109375,-12.206999778747559 -284.89300537109375,12.206999778747559 -284.89300537109375,12.206999778747559 C-284.89300537109375,12.206999778747559 284.89300537109375,12.206999778747559 284.89300537109375,12.206999778747559 C284.89300537109375,12.206999778747559 284.89300537109375,-12.206999778747559 284.89300537109375,-12.206999778747559z"></path></g></g></g><g clip-path="url(#__lottie_element_54)" transform="matrix(0.9999992251396179,0.0012391834752634168,-0.0012391834752634168,0.9999992251396179,1.233306884765625,-4.371337890625)" opacity="1" style="display: block;"><g transform="matrix(1,0,0,1,0,0)" opacity="1" style="display: block;"><g opacity="1" transform="matrix(1,0,0,1,794.3330078125,725.3289794921875)"><path stroke-linecap="round" stroke-linejoin="round" fill-opacity="0" stroke="rgb(32,40,112)" stroke-opacity="1" stroke-width="2" d=" M384.6669921875,269.6619873046875 C384.6669921875,269.6619873046875 -384.6669921875,269.6619873046875 -384.6669921875,269.6619873046875 C-384.6669921875,269.6619873046875 -384.6669921875,-269.6619873046875 -384.6669921875,-269.6619873046875 C-384.6669921875,-269.6619873046875 384.6669921875,-269.6619873046875 384.6669921875,-269.6619873046875 C384.6669921875,-269.6619873046875 384.6669921875,269.6619873046875 384.6669921875,269.6619873046875z"></path><path fill="rgb(255,255,255)" fill-opacity="1" d=" M384.6669921875,269.6619873046875 C384.6669921875,269.6619873046875 -384.6669921875,269.6619873046875 -384.6669921875,269.6619873046875 C-384.6669921875,269.6619873046875 -384.6669921875,-269.6619873046875 -384.6669921875,-269.6619873046875 C-384.6669921875,-269.6619873046875 384.6669921875,-269.6619873046875 384.6669921875,-269.6619873046875 C384.6669921875,-269.6619873046875 384.6669921875,269.6619873046875 384.6669921875,269.6619873046875z"></path></g><g opacity="1" transform="matrix(1,0,0,1,794.3330078125,478.3330078125)"><path fill="rgb(32,40,112)" fill-opacity="1" d=" M384.6669921875,22.66699981689453 C384.6669921875,22.66699981689453 -384.6669921875,22.66699981689453 -384.6669921875,22.66699981689453 C-384.6669921875,22.66699981689453 -384.6669921875,-22.66699981689453 -384.6669921875,-22.66699981689453 C-384.6669921875,-22.66699981689453 384.6669921875,-22.66699981689453 384.6669921875,-22.66699981689453 C384.6669921875,-22.66699981689453 384.6669921875,22.66699981689453 384.6669921875,22.66699981689453z"></path><path stroke-linecap="round" stroke-linejoin="round" fill-opacity="0" stroke="rgb(32,40,112)" stroke-opacity="1" stroke-width="2" d=" M384.6669921875,22.66699981689453 C384.6669921875,22.66699981689453 -384.6669921875,22.66699981689453 -384.6669921875,22.66699981689453 C-384.6669921875,22.66699981689453 -384.6669921875,-22.66699981689453 -384.6669921875,-22.66699981689453 C-384.6669921875,-22.66699981689453 384.6669921875,-22.66699981689453 384.6669921875,-22.66699981689453 C384.6669921875,-22.66699981689453 384.6669921875,22.66699981689453 384.6669921875,22.66699981689453z"></path></g><g opacity="1" transform="matrix(1,0,0,1,0,0)"><g opacity="1" transform="matrix(1,0,0,1,0,0)"><g opacity="1" transform="matrix(1,0,0,1,794.3330078125,554.8469848632812)"><path fill="rgb(132,132,250)" fill-opacity="1" d=" M347.3330078125,22.66699981689453 C347.3330078125,22.66699981689453 -347.3330078125,22.66699981689453 -347.3330078125,22.66699981689453 C-347.3330078125,22.66699981689453 -347.3330078125,-22.66699981689453 -347.3330078125,-22.66699981689453 C-347.3330078125,-22.66699981689453 347.3330078125,-22.66699981689453 347.3330078125,-22.66699981689453 C347.3330078125,-22.66699981689453 347.3330078125,22.66699981689453 347.3330078125,22.66699981689453z"></path><path stroke-linecap="round" stroke-linejoin="round" fill-opacity="0" stroke="rgb(32,40,112)" stroke-opacity="1" stroke-width="2" d=" M347.3330078125,22.66699981689453 C347.3330078125,22.66699981689453 -347.3330078125,22.66699981689453 -347.3330078125,22.66699981689453 C-347.3330078125,22.66699981689453 -347.3330078125,-22.66699981689453 -347.3330078125,-22.66699981689453 C-347.3330078125,-22.66699981689453 347.3330078125,-22.66699981689453 347.3330078125,-22.66699981689453 C347.3330078125,-22.66699981689453 347.3330078125,22.66699981689453 347.3330078125,22.66699981689453z"></path></g><g opacity="1" transform="matrix(1,0,0,1,591.6669921875,554.8469848632812)"><path stroke-linecap="round" stroke-linejoin="round" fill-opacity="0" stroke="rgb(32,40,112)" stroke-opacity="1" stroke-width="2" d=" M-118,0 C-118,0 44.992000579833984,0 100.06700134277344,0"></path></g></g><g opacity="1" transform="matrix(1,0,0,1,0,0)"><g opacity="1" transform="matrix(1,0,0,1,949,782.3289794921875)"><path stroke-linecap="round" stroke-linejoin="round" fill-opacity="0" stroke="rgb(32,40,112)" stroke-opacity="1" stroke-width="2" d=" M192.66700744628906,184.1479949951172 C192.66700744628906,184.1479949951172 -192.66700744628906,184.1479949951172 -192.66700744628906,184.1479949951172 C-192.66700744628906,184.1479949951172 -192.66700744628906,-184.1479949951172 -192.66700744628906,-184.1479949951172 C-192.66700744628906,-184.1479949951172 192.66700744628906,-184.1479949951172 192.66700744628906,-184.1479949951172 C192.66700744628906,-184.1479949951172 192.66700744628906,184.1479949951172 192.66700744628906,184.1479949951172z"></path></g><g opacity="1" transform="matrix(1,0,0,1,0,0)"><g opacity="1" transform="matrix(1,0,0,1,0,0)"><g opacity="1" transform="matrix(1,0,0,1,952,680.2919921875)"><path stroke-linecap="round" stroke-linejoin="round" fill-opacity="0" stroke="rgb(32,40,112)" stroke-opacity="1" stroke-width="2" d=" M-153,0 C-153,0 153,0 153,0"></path></g><g opacity="1" transform="matrix(1,0,0,1,952,721.1069946289062)"><path stroke-linecap="round" stroke-linejoin="round" fill-opacity="0" stroke="rgb(32,40,112)" stroke-opacity="1" stroke-width="2" d=" M-153,0 C-153,0 153,0 153,0"></path></g><g opacity="1" transform="matrix(1,0,0,1,952,761.9210205078125)"><path stroke-linecap="round" stroke-linejoin="round" fill-opacity="0" stroke="rgb(32,40,112)" stroke-opacity="1" stroke-width="2" d=" M-153,0 C-153,0 153,0 153,0"></path></g><g opacity="1" transform="matrix(1,0,0,1,952,802.7360229492188)"><path stroke-linecap="round" stroke-linejoin="round" fill-opacity="0" stroke="rgb(32,40,112)" stroke-opacity="1" stroke-width="2" d=" M-153,0 C-153,0 153,0 153,0"></path></g><g opacity="1" transform="matrix(1,0,0,1,952,843.551025390625)"><path stroke-linecap="round" stroke-linejoin="round" fill-opacity="0" stroke="rgb(32,40,112)" stroke-opacity="1" stroke-width="2" d=" M-153,0 C-153,0 153,0 153,0"></path></g><g opacity="1" transform="matrix(1,0,0,1,952,884.3660278320312)"><path stroke-linecap="round" stroke-linejoin="round" fill-opacity="0" stroke="rgb(32,40,112)" stroke-opacity="1" stroke-width="2" d=" M-153,0 C-153,0 153,0 153,0"></path></g></g></g></g></g></g><g transform="matrix(1,0,0,1,0,0)" opacity="1" style="display: block;"><g opacity="1" transform="matrix(1,0,0,1,0,0)"><g opacity="1" transform="matrix(1,0,0,1,590.8519897460938,782.3289794921875)"><path stroke-linecap="round" stroke-linejoin="round" fill-opacity="0" stroke="rgb(32,40,112)" stroke-opacity="1" stroke-width="2" d=" M143.8520050048828,184.1479949951172 C143.8520050048828,184.1479949951172 -143.8520050048828,184.1479949951172 -143.8520050048828,184.1479949951172 C-143.8520050048828,184.1479949951172 -143.8520050048828,-184.1479949951172 -143.8520050048828,-184.1479949951172 C-143.8520050048828,-184.1479949951172 143.8520050048828,-184.1479949951172 143.8520050048828,-184.1479949951172 C143.8520050048828,-184.1479949951172 143.8520050048828,184.1479949951172 143.8520050048828,184.1479949951172z"></path></g><g opacity="1" transform="matrix(1,0,0,1,591.906982421875,812.9359741210938)"><path fill="rgb(132,132,250)" fill-opacity="1" d=" M116.75900268554688,122.60199737548828 C116.75900268554688,122.60199737548828 -116.75900268554688,122.60199737548828 -116.75900268554688,122.60199737548828 C-116.75900268554688,122.60199737548828 -116.75900268554688,-122.60199737548828 -116.75900268554688,-122.60199737548828 C-116.75900268554688,-122.60199737548828 116.75900268554688,-122.60199737548828 116.75900268554688,-122.60199737548828 C116.75900268554688,-122.60199737548828 116.75900268554688,122.60199737548828 116.75900268554688,122.60199737548828z"></path><path stroke-linecap="round" stroke-linejoin="round" fill-opacity="0" stroke="rgb(32,40,112)" stroke-opacity="1" stroke-width="2" d=" M116.75900268554688,122.60199737548828 C116.75900268554688,122.60199737548828 -116.75900268554688,122.60199737548828 -116.75900268554688,122.60199737548828 C-116.75900268554688,122.60199737548828 -116.75900268554688,-122.60199737548828 -116.75900268554688,-122.60199737548828 C-116.75900268554688,-122.60199737548828 116.75900268554688,-122.60199737548828 116.75900268554688,-122.60199737548828 C116.75900268554688,-122.60199737548828 116.75900268554688,122.60199737548828 116.75900268554688,122.60199737548828z"></path></g><g opacity="1" transform="matrix(1,0,0,1,0,0)"><g opacity="1" transform="matrix(1,0,0,1,487.0740051269531,642.8099975585938)"><path fill="rgb(249,74,130)" fill-opacity="1" d=" M11.925999641418457,0 C11.925999641418457,6.585999965667725 6.586999893188477,11.925999641418457 0,11.925999641418457 C-6.586999893188477,11.925999641418457 -11.925999641418457,6.585999965667725 -11.925999641418457,0 C-11.925999641418457,-6.585999965667725 -6.586999893188477,-11.925999641418457 0,-11.925999641418457 C6.586999893188477,-11.925999641418457 11.925999641418457,-6.585999965667725 11.925999641418457,0z"></path><path stroke-linecap="round" stroke-linejoin="round" fill-opacity="0" stroke="rgb(32,40,112)" stroke-opacity="1" stroke-width="2" d=" M11.925999641418457,0 C11.925999641418457,6.585999965667725 6.586999893188477,11.925999641418457 0,11.925999641418457 C-6.586999893188477,11.925999641418457 -11.925999641418457,6.585999965667725 -11.925999641418457,0 C-11.925999641418457,-6.585999965667725 -6.586999893188477,-11.925999641418457 0,-11.925999641418457 C6.586999893188477,-11.925999641418457 11.925999641418457,-6.585999965667725 11.925999641418457,0z"></path></g><g opacity="1" transform="matrix(1,0,0,1,613.8150024414062,642.8099975585938)"><path stroke-linecap="round" stroke-linejoin="round" fill-opacity="0" stroke="rgb(32,40,112)" stroke-opacity="1" stroke-width="2" d=" M-92.74099731445312,0 C-92.74099731445312,0 -28.930999755859375,0 23.834999084472656,0"></path></g></g></g></g><g transform="matrix(1,0,0,1,0,0)" opacity="1" style="display: block;"><g opacity="1" transform="matrix(1,0,0,1,956.489013671875,812.9400024414062)"><path stroke-linecap="round" stroke-linejoin="round" fill-opacity="0" stroke="rgb(32,40,112)" stroke-opacity="1" stroke-width="2" d=" M-148.5,11.562000274658203 C-148.5,11.562000274658203 -120.43800354003906,30.625 -120.43800354003906,30.625 C-120.43800354003906,30.625 -46.388999938964844,-1.1019999980926514 -46.388999938964844,-1.1019999980926514 C-46.388999938964844,-1.1019999980926514 30.909000396728516,5.552000045776367 30.909000396728516,5.552000045776367 C30.909000396728516,5.552000045776367 90.9280014038086,30.708999633789062 90.9280014038086,30.708999633789062 C90.9280014038086,30.708999633789062 148.5,-30.625 148.5,-30.625"></path></g></g><g transform="matrix(0.9999984502792358,0,0,0.9999984502792358,-26.464527130126953,-25.071706771850586)" opacity="1" style="display: block;"><g opacity="1" transform="matrix(1,0,0,1,1013.2230224609375,843.551025390625)"><path fill="rgb(32,40,112)" fill-opacity="1" d=" M6,0 C6,3.313999891281128 3.313999891281128,6 0,6 C-3.313999891281128,6 -6,3.313999891281128 -6,0 C-6,-3.313999891281128 -3.313999891281128,-6 0,-6 C3.313999891281128,-6 6,-3.313999891281128 6,0z"></path><path stroke-linecap="round" stroke-linejoin="round" fill-opacity="0" stroke="rgb(32,40,112)" stroke-opacity="1" stroke-width="2" d=" M6,0 C6,3.313999891281128 3.313999891281128,6 0,6 C-3.313999891281128,6 -6,3.313999891281128 -6,0 C-6,-3.313999891281128 -3.313999891281128,-6 0,-6 C3.313999891281128,-6 6,-3.313999891281128 6,0z"></path></g></g><g transform="matrix(0.9999989867210388,0,0,0.9999989867210388,-3.5766546726226807,9.086027145385742)" opacity="1" style="display: block;"><g opacity="1" transform="matrix(1,0,0,1,913.5570068359375,802.7360229492188)"><path fill="rgb(32,40,112)" fill-opacity="1" d=" M6,0 C6,3.313999891281128 3.313999891281128,6 0,6 C-3.313999891281128,6 -6,3.313999891281128 -6,0 C-6,-3.313999891281128 -3.313999891281128,-6 0,-6 C3.313999891281128,-6 6,-3.313999891281128 6,0z"></path><path stroke-linecap="round" stroke-linejoin="round" fill-opacity="0" stroke="rgb(32,40,112)" stroke-opacity="1" stroke-width="2" d=" M6,0 C6,3.313999891281128 3.313999891281128,6 0,6 C-3.313999891281128,6 -6,3.313999891281128 -6,0 C-6,-3.313999891281128 -3.313999891281128,-6 0,-6 C3.313999891281128,-6 6,-3.313999891281128 6,0z"></path></g></g><g transform="matrix(1.0000017881393433,0,0,1.0000017881393433,-0.0010316921398043633,-0.0017118242103606462)" opacity="1" style="display: block;"><g opacity="1" transform="matrix(1,0,0,1,836.1259765625,843.551025390625)"><path fill="rgb(32,40,112)" fill-opacity="1" d=" M6,0 C6,3.313999891281128 3.313999891281128,6 0,6 C-3.313999891281128,6 -6,3.313999891281128 -6,0 C-6,-3.313999891281128 -3.313999891281128,-6 0,-6 C3.313999891281128,-6 6,-3.313999891281128 6,0z"></path><path stroke-linecap="round" stroke-linejoin="round" fill-opacity="0" stroke="rgb(32,40,112)" stroke-opacity="1" stroke-width="2" d=" M6,0 C6,3.313999891281128 3.313999891281128,6 0,6 C-3.313999891281128,6 -6,3.313999891281128 -6,0 C-6,-3.313999891281128 -3.313999891281128,-6 0,-6 C3.313999891281128,-6 6,-3.313999891281128 6,0z"></path></g></g><g transform="matrix(0.999998152256012,0,0,0.999998152256012,-15.632095336914062,61.335079193115234)" opacity="1" style="display: block;"><g opacity="1" transform="matrix(1,0,0,1,1062.9840087890625,782.3289794921875)"><path fill="rgb(32,40,112)" fill-opacity="1" d=" M6,0 C6,3.313999891281128 3.313999891281128,6 0,6 C-3.313999891281128,6 -6,3.313999891281128 -6,0 C-6,-3.313999891281128 -3.313999891281128,-6 0,-6 C3.313999891281128,-6 6,-3.313999891281128 6,0z"></path><path stroke-linecap="round" stroke-linejoin="round" fill-opacity="0" stroke="rgb(32,40,112)" stroke-opacity="1" stroke-width="2" d=" M6,0 C6,3.313999891281128 3.313999891281128,6 0,6 C-3.313999891281128,6 -6,3.313999891281128 -6,0 C-6,-3.313999891281128 -3.313999891281128,-6 0,-6 C3.313999891281128,-6 6,-3.313999891281128 6,0z"></path></g></g><g transform="matrix(1,0,0,1,0,0)" opacity="1" style="display: block;"><g opacity="1" transform="matrix(1,0,0,1,944.0180053710938,744.2550048828125)"><path stroke-linecap="round" stroke-linejoin="round" fill-opacity="0" stroke="rgb(32,40,112)" stroke-opacity="1" stroke-width="2" d=" M-151,-11.062000274658203 C-151,-11.062000274658203 -105.55000305175781,18.31999969482422 -105.55000305175781,18.31999969482422 C-105.55000305175781,18.31999969482422 -69.52799987792969,41.82699966430664 -69.52799987792969,41.82699966430664 C-69.52799987792969,41.82699966430664 2.1410000324249268,-25.85700035095215 2.1410000324249268,-25.85700035095215 C2.1410000324249268,-25.85700035095215 12.197999954223633,36.694000244140625 12.197999954223633,36.694000244140625 C12.197999954223633,36.694000244140625 151,-42.6879997253418 151,-42.6879997253418"></path></g></g><g transform="matrix(0.9999989867210388,0,0,0.9999989867210388,-15.52741527557373,7.765099048614502)" opacity="1" style="display: block;"><g opacity="1" transform="matrix(1,0,0,1,889.6729736328125,778.0349731445312)"><path fill="rgb(32,40,112)" fill-opacity="1" d=" M6,0 C6,3.313999891281128 3.313999891281128,6 0,6 C-3.313999891281128,6 -6,3.313999891281128 -6,0 C-6,-3.313999891281128 -3.313999891281128,-6 0,-6 C3.313999891281128,-6 6,-3.313999891281128 6,0z"></path><path stroke-linecap="round" stroke-linejoin="round" fill-opacity="0" stroke="rgb(32,40,112)" stroke-opacity="1" stroke-width="2" d=" M6,0 C6,3.313999891281128 3.313999891281128,6 0,6 C-3.313999891281128,6 -6,3.313999891281128 -6,0 C-6,-3.313999891281128 -3.313999891281128,-6 0,-6 C3.313999891281128,-6 6,-3.313999891281128 6,0z"></path></g></g><g transform="matrix(1.0000004768371582,0,0,1.0000004768371582,0.32474416494369507,-16.242063522338867)" opacity="1" style="display: block;"><g opacity="1" transform="matrix(1,0,0,1,838.6849975585938,778.0349731445312)"><path fill="rgb(32,40,112)" fill-opacity="1" d=" M6,0 C6,3.313999891281128 3.313999891281128,6 0,6 C-3.313999891281128,6 -6,3.313999891281128 -6,0 C-6,-3.313999891281128 -3.313999891281128,-6 0,-6 C3.313999891281128,-6 6,-3.313999891281128 6,0z"></path><path stroke-linecap="round" stroke-linejoin="round" fill-opacity="0" stroke="rgb(32,40,112)" stroke-opacity="1" stroke-width="2" d=" M6,0 C6,3.313999891281128 3.313999891281128,6 0,6 C-3.313999891281128,6 -6,3.313999891281128 -6,0 C-6,-3.313999891281128 -3.313999891281128,-6 0,-6 C3.313999891281128,-6 6,-3.313999891281128 6,0z"></path></g></g><g transform="matrix(1.0000011920928955,0,0,1.0000011920928955,-43.99785614013672,-5.256702423095703)" opacity="1" style="display: block;"><g opacity="1" transform="matrix(1,0,0,1,999.9940185546875,786.9210205078125)"><path fill="rgb(32,40,112)" fill-opacity="1" d=" M6,0 C6,3.313999891281128 3.313999891281128,6 0,6 C-3.313999891281128,6 -6,3.313999891281128 -6,0 C-6,-3.313999891281128 -3.313999891281128,-6 0,-6 C3.313999891281128,-6 6,-3.313999891281128 6,0z"></path><path stroke-linecap="round" stroke-linejoin="round" fill-opacity="0" stroke="rgb(32,40,112)" stroke-opacity="1" stroke-width="2" d=" M6,0 C6,3.313999891281128 3.313999891281128,6 0,6 C-3.313999891281128,6 -6,3.313999891281128 -6,0 C-6,-3.313999891281128 -3.313999891281128,-6 0,-6 C3.313999891281128,-6 6,-3.313999891281128 6,0z"></path></g></g><g transform="matrix(1,0,0,1,-20.875,0)" opacity="1" style="display: block;"><g opacity="1" transform="matrix(1,0,0,1,1058.0810546875,734.81201171875)"><path fill="rgb(32,40,112)" fill-opacity="1" d=" M6,0 C6,3.313999891281128 3.313999891281128,6 0,6 C-3.313999891281128,6 -6,3.313999891281128 -6,0 C-6,-3.313999891281128 -3.313999891281128,-6 0,-6 C3.313999891281128,-6 6,-3.313999891281128 6,0z"></path><path stroke-linecap="round" stroke-linejoin="round" fill-opacity="0" stroke="rgb(32,40,112)" stroke-opacity="1" stroke-width="2" d=" M6,0 C6,3.313999891281128 3.313999891281128,6 0,6 C-3.313999891281128,6 -6,3.313999891281128 -6,0 C-6,-3.313999891281128 -3.313999891281128,-6 0,-6 C3.313999891281128,-6 6,-3.313999891281128 6,0z"></path></g></g><g transform="matrix(0.999998927116394,0,0,0.999998927116394,23.14137840270996,-26.919403076171875)" opacity="1" style="display: block;"><g opacity="1" transform="matrix(1,0,0,1,922.85302734375,745.6160278320312)"><path fill="rgb(32,40,112)" fill-opacity="1" d=" M6,0 C6,3.313999891281128 3.313999891281128,6 0,6 C-3.313999891281128,6 -6,3.313999891281128 -6,0 C-6,-3.313999891281128 -3.313999891281128,-6 0,-6 C3.313999891281128,-6 6,-3.313999891281128 6,0z"></path><path stroke-linecap="round" stroke-linejoin="round" fill-opacity="0" stroke="rgb(32,40,112)" stroke-opacity="1" stroke-width="2" d=" M6,0 C6,3.313999891281128 3.313999891281128,6 0,6 C-3.313999891281128,6 -6,3.313999891281128 -6,0 C-6,-3.313999891281128 -3.313999891281128,-6 0,-6 C3.313999891281128,-6 6,-3.313999891281128 6,0z"></path></g></g><g transform="matrix(1,0,0,1,0,0)" opacity="1" style="display: block;"><g opacity="1" transform="matrix(1,0,0,1,500.843994140625,478.3330078125)"><path fill="rgb(255,255,255)" fill-opacity="1" d=" M7.258999824523926,0 C7.258999824523926,4.008999824523926 4.008999824523926,7.258999824523926 0,7.258999824523926 C-4.008999824523926,7.258999824523926 -7.258999824523926,4.008999824523926 -7.258999824523926,0 C-7.258999824523926,-4.008999824523926 -4.008999824523926,-7.258999824523926 0,-7.258999824523926 C4.008999824523926,-7.258999824523926 7.258999824523926,-4.008999824523926 7.258999824523926,0z"></path><path stroke-linecap="round" stroke-linejoin="round" fill-opacity="0" stroke="rgb(32,40,112)" stroke-opacity="1" stroke-width="2" d=" M7.258999824523926,0 C7.258999824523926,4.008999824523926 4.008999824523926,7.258999824523926 0,7.258999824523926 C-4.008999824523926,7.258999824523926 -7.258999824523926,4.008999824523926 -7.258999824523926,0 C-7.258999824523926,-4.008999824523926 -4.008999824523926,-7.258999824523926 0,-7.258999824523926 C4.008999824523926,-7.258999824523926 7.258999824523926,-4.008999824523926 7.258999824523926,0z"></path></g></g><g transform="matrix(1,0,0,1,0,0)" opacity="1" style="display: block;"><g opacity="1" transform="matrix(1,0,0,1,470.2919921875,478.3330078125)"><path fill="rgb(249,74,130)" fill-opacity="1" d=" M7.258999824523926,0 C7.258999824523926,4.008999824523926 4.008999824523926,7.258999824523926 0,7.258999824523926 C-4.008999824523926,7.258999824523926 -7.258999824523926,4.008999824523926 -7.258999824523926,0 C-7.258999824523926,-4.008999824523926 -4.008999824523926,-7.258999824523926 0,-7.258999824523926 C4.008999824523926,-7.258999824523926 7.258999824523926,-4.008999824523926 7.258999824523926,0z"></path><path stroke-linecap="round" stroke-linejoin="round" fill-opacity="0" stroke="rgb(32,40,112)" stroke-opacity="1" stroke-width="2" d=" M7.258999824523926,0 C7.258999824523926,4.008999824523926 4.008999824523926,7.258999824523926 0,7.258999824523926 C-4.008999824523926,7.258999824523926 -7.258999824523926,4.008999824523926 -7.258999824523926,0 C-7.258999824523926,-4.008999824523926 -4.008999824523926,-7.258999824523926 0,-7.258999824523926 C4.008999824523926,-7.258999824523926 7.258999824523926,-4.008999824523926 7.258999824523926,0z"></path></g></g><g transform="matrix(1,0,0,1,0,0)" opacity="1" style="display: block;"><g opacity="1" transform="matrix(1,0,0,1,439.7409973144531,478.3330078125)"><path fill="rgb(132,132,250)" fill-opacity="1" d=" M7.258999824523926,0 C7.258999824523926,4.008999824523926 4.008999824523926,7.258999824523926 0,7.258999824523926 C-4.008999824523926,7.258999824523926 -7.258999824523926,4.008999824523926 -7.258999824523926,0 C-7.258999824523926,-4.008999824523926 -4.008999824523926,-7.258999824523926 0,-7.258999824523926 C4.008999824523926,-7.258999824523926 7.258999824523926,-4.008999824523926 7.258999824523926,0z"></path><path stroke-linecap="round" stroke-linejoin="round" fill-opacity="0" stroke="rgb(32,40,112)" stroke-opacity="1" stroke-width="2" d=" M7.258999824523926,0 C7.258999824523926,4.008999824523926 4.008999824523926,7.258999824523926 0,7.258999824523926 C-4.008999824523926,7.258999824523926 -7.258999824523926,4.008999824523926 -7.258999824523926,0 C-7.258999824523926,-4.008999824523926 -4.008999824523926,-7.258999824523926 0,-7.258999824523926 C4.008999824523926,-7.258999824523926 7.258999824523926,-4.008999824523926 7.258999824523926,0z"></path></g></g></g><g clip-path="url(#__lottie_element_32)" transform="matrix(1,0,0,1,0,0)" opacity="1" style="display: block;"><g transform="matrix(1,0,0,1,0,0)" opacity="1" style="display: block;"><g opacity="1" transform="matrix(1,0,0,1,489.9259948730469,885.1300048828125)"><path fill="rgb(255,255,255)" fill-opacity="1" d=" M110.9260025024414,171.8699951171875 C110.9260025024414,171.8699951171875 -110.9260025024414,171.8699951171875 -110.9260025024414,171.8699951171875 C-110.9260025024414,171.8699951171875 -110.9260025024414,-171.8699951171875 -110.9260025024414,-171.8699951171875 C-110.9260025024414,-171.8699951171875 110.9260025024414,-171.8699951171875 110.9260025024414,-171.8699951171875 C110.9260025024414,-171.8699951171875 110.9260025024414,171.8699951171875 110.9260025024414,171.8699951171875z"></path><path stroke-linecap="round" stroke-linejoin="round" fill-opacity="0" stroke="rgb(32,40,112)" stroke-opacity="1" stroke-width="2" d=" M110.9260025024414,171.8699951171875 C110.9260025024414,171.8699951171875 -110.9260025024414,171.8699951171875 -110.9260025024414,171.8699951171875 C-110.9260025024414,171.8699951171875 -110.9260025024414,-171.8699951171875 -110.9260025024414,-171.8699951171875 C-110.9260025024414,-171.8699951171875 110.9260025024414,-171.8699951171875 110.9260025024414,-171.8699951171875 C110.9260025024414,-171.8699951171875 110.9260025024414,171.8699951171875 110.9260025024414,171.8699951171875z"></path></g><g opacity="1" transform="matrix(1,0,0,1,489.9259948730469,901.1300048828125)"><path fill="rgb(132,132,250)" fill-opacity="1" d=" M84.58399963378906,131.05599975585938 C84.58399963378906,131.05599975585938 -84.58399963378906,131.05599975585938 -84.58399963378906,131.05599975585938 C-84.58399963378906,131.05599975585938 -84.58399963378906,-131.05599975585938 -84.58399963378906,-131.05599975585938 C-84.58399963378906,-131.05599975585938 84.58399963378906,-131.05599975585938 84.58399963378906,-131.05599975585938 C84.58399963378906,-131.05599975585938 84.58399963378906,131.05599975585938 84.58399963378906,131.05599975585938z"></path><path stroke-linecap="round" stroke-linejoin="round" fill-opacity="0" stroke="rgb(32,40,112)" stroke-opacity="1" stroke-width="2" d=" M84.58399963378906,131.05599975585938 C84.58399963378906,131.05599975585938 -84.58399963378906,131.05599975585938 -84.58399963378906,131.05599975585938 C-84.58399963378906,131.05599975585938 -84.58399963378906,-131.05599975585938 -84.58399963378906,-131.05599975585938 C-84.58399963378906,-131.05599975585938 84.58399963378906,-131.05599975585938 84.58399963378906,-131.05599975585938 C84.58399963378906,-131.05599975585938 84.58399963378906,131.05599975585938 84.58399963378906,131.05599975585938z"></path></g></g><g transform="matrix(1,0,0,1,-1.18701171875,-2.4239501953125)" opacity="1" style="display: block;"><g opacity="1" transform="matrix(1,0,0,1,489.6130065917969,962.8889770507812)"><path fill="rgb(32,40,112)" fill-opacity="1" d=" M41.46099853515625,7.882999897003174 C41.46099853515625,7.882999897003174 -41.46099853515625,7.882999897003174 -41.46099853515625,7.882999897003174 C-41.46099853515625,7.882999897003174 -41.46099853515625,-7.882999897003174 -41.46099853515625,-7.882999897003174 C-41.46099853515625,-7.882999897003174 41.46099853515625,-7.882999897003174 41.46099853515625,-7.882999897003174 C41.46099853515625,-7.882999897003174 41.46099853515625,7.882999897003174 41.46099853515625,7.882999897003174z"></path><path stroke-linecap="round" stroke-linejoin="round" fill-opacity="0" stroke="rgb(32,40,112)" stroke-opacity="1" stroke-width="2" d=" M41.46099853515625,7.882999897003174 C41.46099853515625,7.882999897003174 -41.46099853515625,7.882999897003174 -41.46099853515625,7.882999897003174 C-41.46099853515625,7.882999897003174 -41.46099853515625,-7.882999897003174 -41.46099853515625,-7.882999897003174 C-41.46099853515625,-7.882999897003174 41.46099853515625,-7.882999897003174 41.46099853515625,-7.882999897003174 C41.46099853515625,-7.882999897003174 41.46099853515625,7.882999897003174 41.46099853515625,7.882999897003174z"></path></g></g><g transform="matrix(1,0,0,1,0,0)" opacity="1" style="display: block;"><g opacity="1" transform="matrix(1,0,0,1,473.7040100097656,743.7689819335938)"><path fill="rgb(255,255,255)" fill-opacity="1" d=" M7.258999824523926,0 C7.258999824523926,4.008999824523926 4.008999824523926,7.258999824523926 0,7.258999824523926 C-4.008999824523926,7.258999824523926 -7.258999824523926,4.008999824523926 -7.258999824523926,0 C-7.258999824523926,-4.008999824523926 -4.008999824523926,-7.258999824523926 0,-7.258999824523926 C4.008999824523926,-7.258999824523926 7.258999824523926,-4.008999824523926 7.258999824523926,0z"></path><path stroke-linecap="round" stroke-linejoin="round" fill-opacity="0" stroke="rgb(32,40,112)" stroke-opacity="1" stroke-width="2" d=" M7.258999824523926,0 C7.258999824523926,4.008999824523926 4.008999824523926,7.258999824523926 0,7.258999824523926 C-4.008999824523926,7.258999824523926 -7.258999824523926,4.008999824523926 -7.258999824523926,0 C-7.258999824523926,-4.008999824523926 -4.008999824523926,-7.258999824523926 0,-7.258999824523926 C4.008999824523926,-7.258999824523926 7.258999824523926,-4.008999824523926 7.258999824523926,0z"></path></g></g><g transform="matrix(1,0,0,1,0,0)" opacity="1" style="display: block;"><g opacity="1" transform="matrix(1,0,0,1,443.15301513671875,743.7689819335938)"><path fill="rgb(249,74,130)" fill-opacity="1" d=" M7.258999824523926,0 C7.258999824523926,4.008999824523926 4.008999824523926,7.258999824523926 0,7.258999824523926 C-4.008999824523926,7.258999824523926 -7.258999824523926,4.008999824523926 -7.258999824523926,0 C-7.258999824523926,-4.008999824523926 -4.008999824523926,-7.258999824523926 0,-7.258999824523926 C4.008999824523926,-7.258999824523926 7.258999824523926,-4.008999824523926 7.258999824523926,0z"></path><path stroke-linecap="round" stroke-linejoin="round" fill-opacity="0" stroke="rgb(32,40,112)" stroke-opacity="1" stroke-width="2" d=" M7.258999824523926,0 C7.258999824523926,4.008999824523926 4.008999824523926,7.258999824523926 0,7.258999824523926 C-4.008999824523926,7.258999824523926 -7.258999824523926,4.008999824523926 -7.258999824523926,0 C-7.258999824523926,-4.008999824523926 -4.008999824523926,-7.258999824523926 0,-7.258999824523926 C4.008999824523926,-7.258999824523926 7.258999824523926,-4.008999824523926 7.258999824523926,0z"></path></g></g><g transform="matrix(1,0,0,1,0,0)" opacity="1" style="display: block;"><g opacity="1" transform="matrix(1,0,0,1,412.60101318359375,743.7689819335938)"><path fill="rgb(132,132,250)" fill-opacity="1" d=" M7.258999824523926,0 C7.258999824523926,4.008999824523926 4.008999824523926,7.258999824523926 0,7.258999824523926 C-4.008999824523926,7.258999824523926 -7.258999824523926,4.008999824523926 -7.258999824523926,0 C-7.258999824523926,-4.008999824523926 -4.008999824523926,-7.258999824523926 0,-7.258999824523926 C4.008999824523926,-7.258999824523926 7.258999824523926,-4.008999824523926 7.258999824523926,0z"></path><path stroke-linecap="round" stroke-linejoin="round" fill-opacity="0" stroke="rgb(32,40,112)" stroke-opacity="1" stroke-width="2" d=" M7.258999824523926,0 C7.258999824523926,4.008999824523926 4.008999824523926,7.258999824523926 0,7.258999824523926 C-4.008999824523926,7.258999824523926 -7.258999824523926,4.008999824523926 -7.258999824523926,0 C-7.258999824523926,-4.008999824523926 -4.008999824523926,-7.258999824523926 0,-7.258999824523926 C4.008999824523926,-7.258999824523926 7.258999824523926,-4.008999824523926 7.258999824523926,0z"></path></g></g><g transform="matrix(0.9958622455596924,-0.09087591618299484,0.09087591618299484,0.9958622455596924,-83.13137817382812,51.9967041015625)" opacity="1" style="display: block;"><g opacity="1" transform="matrix(1,0,0,1,0,0)"><g opacity="1" transform="matrix(1,0,0,1,489.9259948730469,896.3350219726562)"><path fill="rgb(249,74,130)" fill-opacity="1" d=" M0,39.20399856567383 C0,39.20399856567383 0,39.20399856567383 0,39.20399856567383 C-23.070999145507812,39.20399856567383 -41.77299880981445,20.500999450683594 -41.77299880981445,-2.569999933242798 C-41.77299880981445,-2.569999933242798 -41.77299880981445,-39.20399856567383 -41.77299880981445,-39.20399856567383 C-41.77299880981445,-39.20399856567383 41.77299880981445,-39.20399856567383 41.77299880981445,-39.20399856567383 C41.77299880981445,-39.20399856567383 41.77299880981445,-2.569999933242798 41.77299880981445,-2.569999933242798 C41.77299880981445,20.500999450683594 23.070999145507812,39.20399856567383 0,39.20399856567383z"></path><path stroke-linecap="round" stroke-linejoin="round" fill-opacity="0" stroke="rgb(32,40,112)" stroke-opacity="1" stroke-width="2" d=" M0,39.20399856567383 C0,39.20399856567383 0,39.20399856567383 0,39.20399856567383 C-23.070999145507812,39.20399856567383 -41.77299880981445,20.500999450683594 -41.77299880981445,-2.569999933242798 C-41.77299880981445,-2.569999933242798 -41.77299880981445,-39.20399856567383 -41.77299880981445,-39.20399856567383 C-41.77299880981445,-39.20399856567383 41.77299880981445,-39.20399856567383 41.77299880981445,-39.20399856567383 C41.77299880981445,-39.20399856567383 41.77299880981445,-2.569999933242798 41.77299880981445,-2.569999933242798 C41.77299880981445,20.500999450683594 23.070999145507812,39.20399856567383 0,39.20399856567383z"></path></g><g opacity="1" transform="matrix(1,0,0,1,489.9259948730469,891.2960205078125)"><path fill="rgb(32,40,112)" fill-opacity="1" d=" M9.406999588012695,-8.222000122070312 C9.406999588012695,-13.515000343322754 5.035999774932861,-17.78700065612793 -0.2939999997615814,-17.625 C-5.289999961853027,-17.472999572753906 -9.397000312805176,-13.23900032043457 -9.406999588012695,-8.241000175476074 C-9.413999557495117,-4.586999893188477 -7.334000110626221,-1.4240000247955322 -4.296000003814697,0.14000000059604645 C-4.296000003814697,0.14000000059604645 -4.296000003814697,13.333000183105469 -4.296000003814697,13.333000183105469 C-4.296000003814697,15.706000328063965 -2.372999906539917,17.6299991607666 0,17.6299991607666 C0,17.6299991607666 0,17.6299991607666 0,17.6299991607666 C2.372999906539917,17.6299991607666 4.296000003814697,15.706000328063965 4.296000003814697,13.333000183105469 C4.296000003814697,13.333000183105469 4.296000003814697,0.14000000059604645 4.296000003814697,0.14000000059604645 C7.328999996185303,-1.4210000038146973 9.406999588012695,-4.576000213623047 9.406999588012695,-8.222000122070312z"></path><path stroke-linecap="round" stroke-linejoin="round" fill-opacity="0" stroke="rgb(32,40,112)" stroke-opacity="1" stroke-width="2" d=" M9.406999588012695,-8.222000122070312 C9.406999588012695,-13.515000343322754 5.035999774932861,-17.78700065612793 -0.2939999997615814,-17.625 C-5.289999961853027,-17.472999572753906 -9.397000312805176,-13.23900032043457 -9.406999588012695,-8.241000175476074 C-9.413999557495117,-4.586999893188477 -7.334000110626221,-1.4240000247955322 -4.296000003814697,0.14000000059604645 C-4.296000003814697,0.14000000059604645 -4.296000003814697,13.333000183105469 -4.296000003814697,13.333000183105469 C-4.296000003814697,15.706000328063965 -2.372999906539917,17.6299991607666 0,17.6299991607666 C0,17.6299991607666 0,17.6299991607666 0,17.6299991607666 C2.372999906539917,17.6299991607666 4.296000003814697,15.706000328063965 4.296000003814697,13.333000183105469 C4.296000003814697,13.333000183105469 4.296000003814697,0.14000000059604645 4.296000003814697,0.14000000059604645 C7.328999996185303,-1.4210000038146973 9.406999588012695,-4.576000213623047 9.406999588012695,-8.222000122070312z"></path></g><g opacity="1" transform="matrix(1,0,0,1,489.9259948730469,840.0650024414062)"><path stroke-linecap="round" stroke-linejoin="round" fill-opacity="0" stroke="rgb(32,40,112)" stroke-opacity="1" stroke-width="2" d=" M-20.444000244140625,17.065000534057617 C-20.444000244140625,17.065000534057617 -20.444000244140625,3.378999948501587 -20.444000244140625,3.378999948501587 C-20.444000244140625,-7.9120001792907715 -11.291000366210938,-17.065000534057617 0,-17.065000534057617 C0,-17.065000534057617 0,-17.065000534057617 0,-17.065000534057617 C11.291000366210938,-17.065000534057617 20.444000244140625,-7.9120001792907715 20.444000244140625,3.378999948501587 C20.444000244140625,3.378999948501587 20.444000244140625,17.065000534057617 20.444000244140625,17.065000534057617"></path></g></g></g></g><g clip-path="url(#__lottie_element_10)" transform="matrix(1,0,0,1,0,0)" opacity="1" style="display: block;"><g transform="matrix(0.995570182800293,-0.09402143210172653,0.09402143210172653,0.995570182800293,-92.88525390625,117.09588623046875)" opacity="1" style="display: block;"><g opacity="1" transform="matrix(1,0,0,1,1196.2159423828125,826.1229858398438)"><path fill="rgb(132,132,250)" fill-opacity="1" d=" M67.66100311279297,0 C67.66100311279297,120.48200225830078 0,218.15199279785156 0,218.15199279785156 C0,218.15199279785156 -67.66100311279297,120.48200225830078 -67.66100311279297,0 C-67.66100311279297,-120.48200225830078 0,-218.15199279785156 0,-218.15199279785156 C0,-218.15199279785156 67.66100311279297,-120.48200225830078 67.66100311279297,0z"></path><path stroke-linecap="round" stroke-linejoin="round" fill-opacity="0" stroke="rgb(32,40,112)" stroke-opacity="1" stroke-width="2" d=" M67.66100311279297,0 C67.66100311279297,120.48200225830078 0,218.15199279785156 0,218.15199279785156 C0,218.15199279785156 -67.66100311279297,120.48200225830078 -67.66100311279297,0 C-67.66100311279297,-120.48200225830078 0,-218.15199279785156 0,-218.15199279785156 C0,-218.15199279785156 67.66100311279297,-120.48200225830078 67.66100311279297,0z"></path></g><g opacity="1" transform="matrix(1,0,0,1,1196.5560302734375,893.02197265625)"><path fill="rgb(255,255,255)" fill-opacity="1" d=" M0,-157.57899475097656 C0,-157.57899475097656 0,157.57899475097656 0,157.57899475097656"></path><path stroke-linecap="round" stroke-linejoin="round" fill-opacity="0" stroke="rgb(32,40,112)" stroke-opacity="1" stroke-width="2" d=" M0,-157.57899475097656 C0,-157.57899475097656 0,157.57899475097656 0,157.57899475097656"></path></g></g><g transform="matrix(0.9968234896659851,-0.07964220643043518,0.07964220643043518,0.9968234896659851,-83.236572265625,98.12579345703125)" opacity="1" style="display: block;"><g opacity="1" transform="matrix(1,0,0,1,1213.887939453125,950.3839721679688)"><path fill="rgb(32,40,112)" fill-opacity="1" d=" M-29.17799949645996,-7.754000186920166 C-36.55699920654297,9.487000465393066 -42.974998474121094,18.031999588012695 -48.959999084472656,35.810001373291016 C-32.93299865722656,71.85099792480469 -17.672000885009766,93.89199829101562 -17.672000885009766,93.89199829101562 C-17.672000885009766,93.89199829101562 41.270999908447266,15.692000389099121 48.959999084472656,-93.89199829101562 C43.78300094604492,-92.66200256347656 -2.5320000648498535,-70.01100158691406 -29.17799949645996,-7.754000186920166z"></path><path stroke-linecap="round" stroke-linejoin="round" fill-opacity="0" stroke="rgb(32,40,112)" stroke-opacity="1" stroke-width="2" d=" M-29.17799949645996,-7.754000186920166 C-36.55699920654297,9.487000465393066 -42.974998474121094,18.031999588012695 -48.959999084472656,35.810001373291016 C-32.93299865722656,71.85099792480469 -17.672000885009766,93.89199829101562 -17.672000885009766,93.89199829101562 C-17.672000885009766,93.89199829101562 41.270999908447266,15.692000389099121 48.959999084472656,-93.89199829101562 C43.78300094604492,-92.66200256347656 -2.5320000648498535,-70.01100158691406 -29.17799949645996,-7.754000186920166z"></path></g></g><g transform="matrix(0.9968234896659851,-0.07964220643043518,0.07964220643043518,0.9968234896659851,-83.236572265625,98.12579345703125)" opacity="1" style="display: block;"><g opacity="1" transform="matrix(1,0,0,1,1247.5179443359375,956.6129760742188)"><path fill="rgb(132,132,250)" fill-opacity="1" d=" M42.15599822998047,18.302000045776367 C9.5649995803833,93.36900329589844 -59.01100158691406,135.92100524902344 -59.01100158691406,135.92100524902344 C-59.01100158691406,135.92100524902344 -74.74700164794922,56.76499938964844 -42.15599822998047,-18.302000045776367 C-9.5649995803833,-93.36900329589844 59.01100158691406,-135.92100524902344 59.01100158691406,-135.92100524902344 C59.01100158691406,-135.92100524902344 74.74700164794922,-56.76499938964844 42.15599822998047,18.302000045776367z"></path><path stroke-linecap="round" stroke-linejoin="round" fill-opacity="0" stroke="rgb(32,40,112)" stroke-opacity="1" stroke-width="2" d=" M42.15599822998047,18.302000045776367 C9.5649995803833,93.36900329589844 -59.01100158691406,135.92100524902344 -59.01100158691406,135.92100524902344 C-59.01100158691406,135.92100524902344 -74.74700164794922,56.76499938964844 -42.15599822998047,-18.302000045776367 C-9.5649995803833,-93.36900329589844 59.01100158691406,-135.92100524902344 59.01100158691406,-135.92100524902344 C59.01100158691406,-135.92100524902344 74.74700164794922,-56.76499938964844 42.15599822998047,18.302000045776367z"></path></g><g opacity="1" transform="matrix(1,0,0,1,1229.634033203125,998.385986328125)"><path fill="rgb(255,255,255)" fill-opacity="1" d=" M42.625,-98.18000030517578 C42.625,-98.18000030517578 -42.625,98.18000030517578 -42.625,98.18000030517578"></path><path stroke-linecap="round" stroke-linejoin="round" fill-opacity="0" stroke="rgb(32,40,112)" stroke-opacity="1" stroke-width="2" d=" M42.625,-98.18000030517578 C42.625,-98.18000030517578 -42.625,98.18000030517578 -42.625,98.18000030517578"></path></g></g><g transform="matrix(0.9993908405303955,-0.03489949554204941,0.03489949554204941,0.9993908405303955,1174.2271728515625,968.1657104492188)" opacity="1" style="display: block;"><g opacity="1" transform="matrix(1,0,0,1,0,0)"><path fill="rgb(32,40,112)" fill-opacity="1" d=" M15.074000358581543,-22.86199951171875 C-4.4120001792907715,-55.599998474121094 -33.222999572753906,-73.08499908447266 -43.23699951171875,-76.85900115966797 C-27.965999603271484,16.621999740600586 18.290000915527344,76.85900115966797 18.290000915527344,76.85900115966797 C18.290000915527344,76.85900115966797 42.62900161743164,71.80500030517578 42.62900161743164,71.80500030517578 C42.62900161743164,71.80500030517578 49.77000045776367,35.43199920654297 15.074000358581543,-22.86199951171875z"></path><path stroke-linecap="round" stroke-linejoin="round" fill-opacity="0" stroke="rgb(32,40,112)" stroke-opacity="1" stroke-width="2" d=" M15.074000358581543,-22.86199951171875 C-4.4120001792907715,-55.599998474121094 -33.222999572753906,-73.08499908447266 -43.23699951171875,-76.85900115966797 C-27.965999603271484,16.621999740600586 18.290000915527344,76.85900115966797 18.290000915527344,76.85900115966797 C18.290000915527344,76.85900115966797 42.62900161743164,71.80500030517578 42.62900161743164,71.80500030517578 C42.62900161743164,71.80500030517578 49.77000045776367,35.43199920654297 15.074000358581543,-22.86199951171875z"></path></g></g><g transform="matrix(0.9993908405303955,-0.03489949554204941,0.03489949554204941,0.9993908405303955,-36.7435302734375,42.447021484375)" opacity="1" style="display: block;"><g opacity="1" transform="matrix(1,0,0,1,1149.1510009765625,964.4320068359375)"><path fill="rgb(132,132,250)" fill-opacity="1" d=" M33.79899978637695,-14.947999954223633 C60.41699981689453,45.23699951171875 48.19599914550781,108.9749984741211 48.19599914550781,108.9749984741211 C48.19599914550781,108.9749984741211 -7.181000232696533,75.13300323486328 -33.79899978637695,14.947999954223633 C-60.41699981689453,-45.23699951171875 -48.19599914550781,-108.9749984741211 -48.19599914550781,-108.9749984741211 C-48.19599914550781,-108.9749984741211 7.181000232696533,-75.13300323486328 33.79899978637695,-14.947999954223633z"></path><path stroke-linecap="round" stroke-linejoin="round" fill-opacity="0" stroke="rgb(32,40,112)" stroke-opacity="1" stroke-width="2" d=" M33.79899978637695,-14.947999954223633 C60.41699981689453,45.23699951171875 48.19599914550781,108.9749984741211 48.19599914550781,108.9749984741211 C48.19599914550781,108.9749984741211 -7.181000232696533,75.13300323486328 -33.79899978637695,14.947999954223633 C-60.41699981689453,-45.23699951171875 -48.19599914550781,-108.9749984741211 -48.19599914550781,-108.9749984741211 C-48.19599914550781,-108.9749984741211 7.181000232696533,-75.13300323486328 33.79899978637695,-14.947999954223633z"></path></g><g opacity="1" transform="matrix(1,0,0,1,1164.1009521484375,997.7750244140625)"><path fill="rgb(255,255,255)" fill-opacity="1" d=" M-34.8129997253418,-78.71600341796875 C-34.8129997253418,-78.71600341796875 34.8129997253418,78.71600341796875 34.8129997253418,78.71600341796875"></path><path stroke-linecap="round" stroke-linejoin="round" fill-opacity="0" stroke="rgb(32,40,112)" stroke-opacity="1" stroke-width="2" d=" M-34.8129997253418,-78.71600341796875 C-34.8129997253418,-78.71600341796875 34.8129997253418,78.71600341796875 34.8129997253418,78.71600341796875"></path></g></g><g transform="matrix(1,0,0,1,0,0)" opacity="1" style="display: block;"><g opacity="1" transform="matrix(1,0,0,1,1202.0989990234375,1080.001953125)"><g opacity="1" transform="matrix(1,0,0,1,0,0)"><path fill="rgb(249,74,130)" fill-opacity="1" d=" M37.57600021362305,56.06800079345703 C37.57600021362305,56.06800079345703 -37.57600021362305,56.06800079345703 -37.57600021362305,56.06800079345703 C-57.439998626708984,56.06800079345703 -73.54299926757812,39.96500015258789 -73.54299926757812,20.10099983215332 C-73.54299926757812,20.10099983215332 -73.54299926757812,-56.06800079345703 -73.54299926757812,-56.06800079345703 C-73.54299926757812,-56.06800079345703 73.54299926757812,-56.06800079345703 73.54299926757812,-56.06800079345703 C73.54299926757812,-56.06800079345703 73.54299926757812,20.10099983215332 73.54299926757812,20.10099983215332 C73.54299926757812,39.96500015258789 57.439998626708984,56.06800079345703 37.57600021362305,56.06800079345703z"></path><path stroke-linecap="round" stroke-linejoin="round" fill-opacity="0" stroke="rgb(32,40,112)" stroke-opacity="1" stroke-width="2" d=" M37.57600021362305,56.06800079345703 C37.57600021362305,56.06800079345703 -37.57600021362305,56.06800079345703 -37.57600021362305,56.06800079345703 C-57.439998626708984,56.06800079345703 -73.54299926757812,39.96500015258789 -73.54299926757812,20.10099983215332 C-73.54299926757812,20.10099983215332 -73.54299926757812,-56.06800079345703 -73.54299926757812,-56.06800079345703 C-73.54299926757812,-56.06800079345703 73.54299926757812,-56.06800079345703 73.54299926757812,-56.06800079345703 C73.54299926757812,-56.06800079345703 73.54299926757812,20.10099983215332 73.54299926757812,20.10099983215332 C73.54299926757812,39.96500015258789 57.439998626708984,56.06800079345703 37.57600021362305,56.06800079345703z"></path></g></g><g opacity="1" transform="matrix(1,0,0,1,1201.5059814453125,1050.6009521484375)"><g opacity="1" transform="matrix(1,0,0,1,0,0)"><path fill="rgb(249,74,130)" fill-opacity="1" d=" M-73.54299926757812,0 C-73.54299926757812,0 73.54299926757812,0 73.54299926757812,0"></path><path stroke-linecap="round" stroke-linejoin="round" fill-opacity="0" stroke="rgb(32,40,112)" stroke-opacity="1" stroke-width="2" d=" M-73.54299926757812,0 C-73.54299926757812,0 73.54299926757812,0 73.54299926757812,0"></path></g></g></g></g><g transform="matrix(1,0,0,1,0,0)" opacity="1" style="display: block;"><g opacity="1" transform="matrix(1,0,0,1,181,885.4760131835938)"><path stroke-linecap="round" stroke-linejoin="round" fill-opacity="0" stroke="rgb(32,40,112)" stroke-opacity="1" stroke-width="2" d=" M0,-238.38800048828125 C0,-238.38800048828125 0,238.38800048828125 0,238.38800048828125"></path></g><g opacity="1" transform="matrix(1,0,0,1,179.44400024414062,1123.863037109375)"><g opacity="1" transform="matrix(1,0,0,1,0,0)"><path fill="rgb(132,132,250)" fill-opacity="1" d=" M52.26100158691406,-12.206999778747559 C52.26100158691406,-12.206999778747559 -52.26100158691406,-12.206999778747559 -52.26100158691406,-12.206999778747559 C-52.26100158691406,-12.206999778747559 -52.26100158691406,12.206999778747559 -52.26100158691406,12.206999778747559 C-52.26100158691406,12.206999778747559 52.26100158691406,12.206999778747559 52.26100158691406,12.206999778747559 C52.26100158691406,12.206999778747559 52.26100158691406,-12.206999778747559 52.26100158691406,-12.206999778747559z"></path><path stroke-linecap="round" stroke-linejoin="round" fill-opacity="0" stroke="rgb(32,40,112)" stroke-opacity="1" stroke-width="2" d=" M52.26100158691406,-12.206999778747559 C52.26100158691406,-12.206999778747559 -52.26100158691406,-12.206999778747559 -52.26100158691406,-12.206999778747559 C-52.26100158691406,-12.206999778747559 -52.26100158691406,12.206999778747559 -52.26100158691406,12.206999778747559 C-52.26100158691406,12.206999778747559 52.26100158691406,12.206999778747559 52.26100158691406,12.206999778747559 C52.26100158691406,12.206999778747559 52.26100158691406,-12.206999778747559 52.26100158691406,-12.206999778747559z"></path></g></g><g opacity="1" transform="matrix(1,0,0,1,181,729.593017578125)"><path fill="rgb(255,255,255)" fill-opacity="1" d=" M-32,0 C-32,0 32,0 32,0"></path><path stroke-linecap="round" stroke-linejoin="round" fill-opacity="0" stroke="rgb(32,40,112)" stroke-opacity="1" stroke-width="2" d=" M-32,0 C-32,0 32,0 32,0"></path></g><g opacity="1" transform="matrix(1,0,0,1,181,729.593017578125)"><path fill="rgb(32,40,112)" fill-opacity="1" d=" M9.925999641418457,0 C9.925999641418457,5.48199987411499 5.48199987411499,9.925999641418457 0,9.925999641418457 C-5.48199987411499,9.925999641418457 -9.925999641418457,5.48199987411499 -9.925999641418457,0 C-9.925999641418457,-5.48199987411499 -5.48199987411499,-9.925999641418457 0,-9.925999641418457 C5.48199987411499,-9.925999641418457 9.925999641418457,-5.48199987411499 9.925999641418457,0z"></path><path stroke-linecap="round" stroke-linejoin="round" fill-opacity="0" stroke="rgb(32,40,112)" stroke-opacity="1" stroke-width="2" d=" M9.925999641418457,0 C9.925999641418457,5.48199987411499 5.48199987411499,9.925999641418457 0,9.925999641418457 C-5.48199987411499,9.925999641418457 -9.925999641418457,5.48199987411499 -9.925999641418457,0 C-9.925999641418457,-5.48199987411499 -5.48199987411499,-9.925999641418457 0,-9.925999641418457 C5.48199987411499,-9.925999641418457 9.925999641418457,-5.48199987411499 9.925999641418457,0z"></path></g></g><g transform="matrix(0.9999763369560242,0.006876543164253235,-0.006876543164253235,0.9999763369560242,5.018707275390625,-1.22796630859375)" opacity="1" style="display: block;"><g opacity="1" transform="matrix(1,0,0,1,181.44400024414062,728.3699951171875)"><path fill="rgb(255,255,255)" fill-opacity="1" d=" M-71.55599975585938,162.92599487304688 C-71.55599975585938,162.92599487304688 71.55599975585938,-162.92599487304688 71.55599975585938,-162.92599487304688"></path><path stroke-linecap="round" stroke-linejoin="round" fill-opacity="0" stroke="rgb(32,40,112)" stroke-opacity="1" stroke-width="2" d=" M-71.55599975585938,162.92599487304688 C-71.55599975585938,162.92599487304688 71.55599975585938,-162.92599487304688 71.55599975585938,-162.92599487304688"></path></g><g opacity="1" transform="matrix(1,0,0,1,105.12999725341797,902.8699951171875)"><g opacity="1" transform="matrix(1,0,0,1,0,0)"><path fill="rgb(132,132,250)" fill-opacity="1" d=" M-11.454999923706055,42.54600143432617 C-11.454999923706055,42.54600143432617 23.143999099731445,-37.49300003051758 23.143999099731445,-37.49300003051758 C23.143999099731445,-37.49300003051758 11.454999923706055,-42.54600143432617 11.454999923706055,-42.54600143432617 C11.454999923706055,-42.54600143432617 -23.143999099731445,37.49300003051758 -23.143999099731445,37.49300003051758 C-23.143999099731445,37.49300003051758 -11.454999923706055,42.54600143432617 -11.454999923706055,42.54600143432617z"></path><path stroke-linecap="round" stroke-linejoin="round" fill-opacity="0" stroke="rgb(32,40,112)" stroke-opacity="1" stroke-width="2" d=" M-11.454999923706055,42.54600143432617 C-11.454999923706055,42.54600143432617 23.143999099731445,-37.49300003051758 23.143999099731445,-37.49300003051758 C23.143999099731445,-37.49300003051758 11.454999923706055,-42.54600143432617 11.454999923706055,-42.54600143432617 C11.454999923706055,-42.54600143432617 -23.143999099731445,37.49300003051758 -23.143999099731445,37.49300003051758 C-23.143999099731445,37.49300003051758 -11.454999923706055,42.54600143432617 -11.454999923706055,42.54600143432617z"></path></g></g><g opacity="1" transform="matrix(1,0,0,1,229.81399536132812,567.4940185546875)"><path fill="rgb(132,132,250)" fill-opacity="1" d=" M5.810999870300293,22.65999984741211 C5.810999870300293,22.65999984741211 -11.67199993133545,14.236000061035156 -11.67199993133545,14.236000061035156 C-21.327999114990234,9.583000183105469 -25.385000228881836,-2.0160000324249268 -20.73200035095215,-11.67199993133545 C-20.73200035095215,-11.67199993133545 -20.73200035095215,-11.67199993133545 -20.73200035095215,-11.67199993133545 C-16.07900047302246,-21.327999114990234 -4.480000019073486,-25.385000228881836 5.176000118255615,-20.73200035095215 C5.176000118255615,-20.73200035095215 22.65999984741211,-12.307000160217285 22.65999984741211,-12.307000160217285 C22.65999984741211,-12.307000160217285 5.810999870300293,22.65999984741211 5.810999870300293,22.65999984741211z"></path><path stroke-linecap="round" stroke-linejoin="round" fill-opacity="0" stroke="rgb(32,40,112)" stroke-opacity="1" stroke-width="2" d=" M5.810999870300293,22.65999984741211 C5.810999870300293,22.65999984741211 -11.67199993133545,14.236000061035156 -11.67199993133545,14.236000061035156 C-21.327999114990234,9.583000183105469 -25.385000228881836,-2.0160000324249268 -20.73200035095215,-11.67199993133545 C-20.73200035095215,-11.67199993133545 -20.73200035095215,-11.67199993133545 -20.73200035095215,-11.67199993133545 C-16.07900047302246,-21.327999114990234 -4.480000019073486,-25.385000228881836 5.176000118255615,-20.73200035095215 C5.176000118255615,-20.73200035095215 22.65999984741211,-12.307000160217285 22.65999984741211,-12.307000160217285 C22.65999984741211,-12.307000160217285 5.810999870300293,22.65999984741211 5.810999870300293,22.65999984741211z"></path></g><g opacity="1" transform="matrix(1,0,0,1,287.3080139160156,600.2420043945312)"><path fill="rgb(132,132,250)" fill-opacity="1" d=" M1.8580000400543213,65.14099884033203 C1.8580000400543213,65.14099884033203 -28.759000778198242,45.016998291015625 -28.759000778198242,45.016998291015625 C-54.91899871826172,29.16200065612793 -64.7509994506836,-3.9730000495910645 -51.472999572753906,-31.530000686645508 C-51.472999572753906,-31.530000686645508 -51.472999572753906,-31.530000686645508 -51.472999572753906,-31.530000686645508 C-38.19499969482422,-59.08700180053711 -6.1519999504089355,-72.04499816894531 22.548999786376953,-61.46500015258789 C22.548999786376953,-61.46500015258789 57.367000579833984,-50.058998107910156 57.367000579833984,-50.058998107910156 C57.367000579833984,-50.058998107910156 1.8580000400543213,65.14099884033203 1.8580000400543213,65.14099884033203z"></path><path stroke-linecap="round" stroke-linejoin="round" fill-opacity="0" stroke="rgb(32,40,112)" stroke-opacity="1" stroke-width="2" d=" M1.8580000400543213,65.14099884033203 C1.8580000400543213,65.14099884033203 -28.759000778198242,45.016998291015625 -28.759000778198242,45.016998291015625 C-54.91899871826172,29.16200065612793 -64.7509994506836,-3.9730000495910645 -51.472999572753906,-31.530000686645508 C-51.472999572753906,-31.530000686645508 -51.472999572753906,-31.530000686645508 -51.472999572753906,-31.530000686645508 C-38.19499969482422,-59.08700180053711 -6.1519999504089355,-72.04499816894531 22.548999786376953,-61.46500015258789 C22.548999786376953,-61.46500015258789 57.367000579833984,-50.058998107910156 57.367000579833984,-50.058998107910156 C57.367000579833984,-50.058998107910156 1.8580000400543213,65.14099884033203 1.8580000400543213,65.14099884033203z"></path></g><g opacity="1" transform="matrix(1,0,0,1,319.52301025390625,609.0369873046875)"><path fill="rgb(255,255,255)" fill-opacity="1" d=" M39.505001068115234,19.03499984741211 C24.177000045776367,50.84600067138672 -5.935999870300293,68.11299896240234 -27.753999710083008,57.599998474121094 C-49.571998596191406,47.08700180053711 -54.83300018310547,12.776000022888184 -39.505001068115234,-19.03499984741211 C-24.177000045776367,-50.84600067138672 5.935999870300293,-68.11299896240234 27.753999710083008,-57.599998474121094 C49.571998596191406,-47.08700180053711 54.83300018310547,-12.776000022888184 39.505001068115234,19.03499984741211z"></path><path stroke-linecap="round" stroke-linejoin="round" fill-opacity="0" stroke="rgb(32,40,112)" stroke-opacity="1" stroke-width="2" d=" M39.505001068115234,19.03499984741211 C24.177000045776367,50.84600067138672 -5.935999870300293,68.11299896240234 -27.753999710083008,57.599998474121094 C-49.571998596191406,47.08700180053711 -54.83300018310547,12.776000022888184 -39.505001068115234,-19.03499984741211 C-24.177000045776367,-50.84600067138672 5.935999870300293,-68.11299896240234 27.753999710083008,-57.599998474121094 C49.571998596191406,-47.08700180053711 54.83300018310547,-12.776000022888184 39.505001068115234,19.03499984741211z"></path></g><g opacity="1" transform="matrix(1,0,0,1,295.3810119628906,594.9420166015625)"><path fill="rgb(32,40,112)" fill-opacity="1" d=" M6.701000213623047,-27.691999435424805 C5.166999816894531,-28.430999755859375 3.5999999046325684,-29.020999908447266 2.0169999599456787,-29.48200035095215 C-4.704999923706055,-22.8799991607666 -10.715999603271484,-14.583999633789062 -15.36299991607666,-4.940000057220459 C-20.010000228881836,4.703999996185303 -22.75200080871582,14.574999809265137 -23.726999282836914,23.945999145507812 C-22.3799991607666,24.89699935913086 -20.94300079345703,25.7549991607666 -19.409000396728516,26.493999481201172 C-4.446000099182129,33.70399856567383 13.529000282287598,27.417999267578125 20.73900032043457,12.454999923706055 C27.948999404907227,-2.507999897003174 21.663999557495117,-20.48200035095215 6.701000213623047,-27.691999435424805z"></path><path stroke-linecap="round" stroke-linejoin="round" fill-opacity="0" stroke="rgb(32,40,112)" stroke-opacity="1" stroke-width="2" d=" M6.701000213623047,-27.691999435424805 C5.166999816894531,-28.430999755859375 3.5999999046325684,-29.020999908447266 2.0169999599456787,-29.48200035095215 C-4.704999923706055,-22.8799991607666 -10.715999603271484,-14.583999633789062 -15.36299991607666,-4.940000057220459 C-20.010000228881836,4.703999996185303 -22.75200080871582,14.574999809265137 -23.726999282836914,23.945999145507812 C-22.3799991607666,24.89699935913086 -20.94300079345703,25.7549991607666 -19.409000396728516,26.493999481201172 C-4.446000099182129,33.70399856567383 13.529000282287598,27.417999267578125 20.73900032043457,12.454999923706055 C27.948999404907227,-2.507999897003174 21.663999557495117,-20.48200035095215 6.701000213623047,-27.691999435424805z"></path></g></g></g></svg>