<svg width="1600" height="1600" viewBox="0 0 1600 1600" fill="none" xmlns="http://www.w3.org/2000/svg">
<g clip-path="url(#clip0_40000055_8081)">
<mask id="mask0_40000055_8081" style="mask-type:luminance" maskUnits="userSpaceOnUse" x="0" y="0" width="1600" height="1600">
<path d="M1600 0H0V1600H1600V0Z" fill="white"/>
</mask>
<g mask="url(#mask0_40000055_8081)">
<mask id="mask1_40000055_8081" style="mask-type:luminance" maskUnits="userSpaceOnUse" x="0" y="0" width="1600" height="1600">
<path d="M1600 0H0V1600H1600V0Z" fill="white"/>
</mask>
<g mask="url(#mask1_40000055_8081)">
<path d="M260.67 734.246H172.188V667.928H260.67V734.246Z" stroke="#0626A9" stroke-width="2" stroke-linecap="round" stroke-linejoin="round"/>
<path d="M260.67 800.752H172.188V734.433H260.67V800.752Z" stroke="#0626A9" stroke-width="2" stroke-linecap="round" stroke-linejoin="round"/>
<path d="M260.67 867.071H172.188V800.752H260.67V867.071Z" stroke="#0626A9" stroke-width="2" stroke-linecap="round" stroke-linejoin="round"/>
<path d="M260.67 933.389H172.188V867.071H260.67V933.389Z" stroke="#0626A9" stroke-width="2" stroke-linecap="round" stroke-linejoin="round"/>
<path d="M349.151 734.246H260.67V667.928H349.151V734.246Z" stroke="#0626A9" stroke-width="2" stroke-linecap="round" stroke-linejoin="round"/>
<path d="M349.151 800.752H260.67V734.433H349.151V800.752Z" stroke="#0626A9" stroke-width="2" stroke-linecap="round" stroke-linejoin="round"/>
<path d="M349.151 867.071H260.67V800.752H349.151V867.071Z" stroke="#0626A9" stroke-width="2" stroke-linecap="round" stroke-linejoin="round"/>
<path d="M349.151 933.389H260.67V867.071H349.151V933.389Z" stroke="#0626A9" stroke-width="2" stroke-linecap="round" stroke-linejoin="round"/>
<path d="M437.633 734.246H349.151V667.928H437.633V734.246Z" stroke="#0626A9" stroke-width="2" stroke-linecap="round" stroke-linejoin="round"/>
<path d="M437.633 800.752H349.151V734.433H437.633V800.752Z" stroke="#0626A9" stroke-width="2" stroke-linecap="round" stroke-linejoin="round"/>
<path d="M437.633 867.071H349.151V800.752H437.633V867.071Z" stroke="#0626A9" stroke-width="2" stroke-linecap="round" stroke-linejoin="round"/>
<path d="M437.633 933.389H349.151V867.071H437.633V933.389Z" stroke="#0626A9" stroke-width="2" stroke-linecap="round" stroke-linejoin="round"/>
<path d="M1281.24 395.418H1122.13V236.315H1281.24V395.418Z" stroke="#0626A9" stroke-width="2" stroke-linecap="round" stroke-linejoin="round"/>
<path d="M1218.65 356.033C1218.65 365.405 1211.06 373.002 1201.69 373.002C1192.31 373.002 1184.72 365.405 1184.72 356.033C1184.72 346.661 1192.31 339.064 1201.69 339.064C1211.06 339.064 1218.65 346.661 1218.65 356.033Z" fill="#84AAE4"/>
<path d="M1218.65 356.033C1218.65 365.405 1211.06 373.002 1201.69 373.002C1192.31 373.002 1184.72 365.405 1184.72 356.033C1184.72 346.661 1192.31 339.064 1201.69 339.064C1211.06 339.064 1218.65 346.661 1218.65 356.033Z" stroke="#0626A9" stroke-width="2" stroke-linecap="round" stroke-linejoin="round"/>
<path d="M1234.08 319.144C1234.08 332.99 1243.67 344.588 1256.57 347.669V356.033H1146.8V347.669C1159.7 344.588 1169.29 332.99 1169.29 319.144V302.202C1169.29 284.313 1183.8 269.811 1201.69 269.811C1219.57 269.811 1234.08 284.313 1234.08 302.202V319.144Z" fill="#84AAE4"/>
<path d="M1234.08 319.144C1234.08 332.99 1243.67 344.588 1256.57 347.669V356.033H1146.8V347.669C1159.7 344.588 1169.29 332.99 1169.29 319.144V302.202C1169.29 284.313 1183.8 269.811 1201.69 269.811C1219.57 269.811 1234.08 284.313 1234.08 302.202V319.144Z" stroke="#0626A9" stroke-width="2" stroke-linecap="round" stroke-linejoin="round"/>
<path d="M1208.72 269.814C1209.91 268.296 1210.62 266.383 1210.62 264.304C1210.62 259.368 1206.62 255.367 1201.69 255.367C1196.75 255.367 1192.75 259.368 1192.75 264.304C1192.75 266.691 1193.68 268.86 1195.21 270.463" fill="#84AAE4"/>
<path d="M1208.72 269.814C1209.91 268.296 1210.62 266.383 1210.62 264.304C1210.62 259.368 1206.62 255.367 1201.69 255.367C1196.75 255.367 1192.75 259.368 1192.75 264.304C1192.75 266.691 1193.68 268.86 1195.21 270.463" stroke="#0626A9" stroke-width="2" stroke-linecap="round" stroke-linejoin="round"/>
<path d="M1281.24 581.14H1122.13V422.037H1281.24V581.14Z" stroke="#0626A9" stroke-width="2" stroke-linecap="round" stroke-linejoin="round"/>
<path d="M1256.57 501.588C1256.57 471.274 1232 446.7 1201.69 446.7C1171.37 446.7 1146.8 471.274 1146.8 501.588C1146.8 531.902 1171.37 556.477 1201.69 556.477C1232 556.477 1256.57 531.902 1256.57 501.588Z" stroke="#0626A9" stroke-width="2" stroke-linecap="round" stroke-linejoin="round"/>
<path d="M1201.69 501.588V459.222" stroke="#0626A9" stroke-width="2" stroke-linecap="round" stroke-linejoin="round"/>
<path d="M1226.78 501.588H1201.69" stroke="#0626A9" stroke-width="2" stroke-linecap="round" stroke-linejoin="round"/>
<path d="M1002.04 440.072C1002.04 426.551 991.081 415.591 977.56 415.591C964.039 415.591 953.079 426.551 953.079 440.072C953.079 453.593 964.039 464.553 977.56 464.553C991.081 464.553 1002.04 453.593 1002.04 440.072Z" fill="white"/>
<path d="M1002.04 440.072C1002.04 426.551 991.081 415.591 977.56 415.591C964.039 415.591 953.079 426.551 953.079 440.072C953.079 453.593 964.039 464.553 977.56 464.553C991.081 464.553 1002.04 453.593 1002.04 440.072Z" stroke="#0626A9" stroke-width="2" stroke-linecap="round" stroke-linejoin="round"/>
<path d="M1020.68 414.328C1020.68 408.3 1015.8 403.413 1009.77 403.413C1003.74 403.413 998.853 408.3 998.853 414.328C998.853 420.356 1003.74 425.244 1009.77 425.244C1015.8 425.244 1020.68 420.356 1020.68 414.328Z" fill="#84AAE4"/>
<path d="M1020.68 414.328C1020.68 408.3 1015.8 403.413 1009.77 403.413C1003.74 403.413 998.853 408.3 998.853 414.328C998.853 420.356 1003.74 425.244 1009.77 425.244C1015.8 425.244 1020.68 420.356 1020.68 414.328Z" stroke="#0626A9" stroke-width="2" stroke-linecap="round" stroke-linejoin="round"/>
<path d="M1413.19 621.326C1413.19 603.69 1398.9 589.394 1381.26 589.394C1363.63 589.394 1349.33 603.69 1349.33 621.326C1349.33 638.962 1363.63 653.258 1381.26 653.258C1398.9 653.258 1413.19 638.962 1413.19 621.326Z" fill="#84AAE4"/>
<path d="M1413.19 621.326C1413.19 603.69 1398.9 589.394 1381.26 589.394C1363.63 589.394 1349.33 603.69 1349.33 621.326C1349.33 638.962 1363.63 653.258 1381.26 653.258C1398.9 653.258 1413.19 638.962 1413.19 621.326Z" stroke="#0626A9" stroke-width="2" stroke-linecap="round" stroke-linejoin="round"/>
<path d="M1497.25 630.339C1497.25 624.463 1492.48 619.699 1486.61 619.699C1480.73 619.699 1475.97 624.463 1475.97 630.339C1475.97 636.215 1480.73 640.978 1486.61 640.978C1492.48 640.978 1497.25 636.215 1497.25 630.339Z" fill="#84AAE4"/>
<path d="M1497.25 630.339C1497.25 624.463 1492.48 619.699 1486.61 619.699C1480.73 619.699 1475.97 624.463 1475.97 630.339C1475.97 636.215 1480.73 640.978 1486.61 640.978C1492.48 640.978 1497.25 636.215 1497.25 630.339Z" stroke="#0626A9" stroke-width="2" stroke-linecap="round" stroke-linejoin="round"/>
<path d="M1530.58 620.362C1530.58 616.541 1527.48 613.444 1523.66 613.444C1519.84 613.444 1516.74 616.541 1516.74 620.362C1516.74 624.183 1519.84 627.281 1523.66 627.281C1527.48 627.281 1530.58 624.183 1530.58 620.362Z" fill="#84AAE4"/>
<path d="M1530.58 620.362C1530.58 616.541 1527.48 613.444 1523.66 613.444C1519.84 613.444 1516.74 616.541 1516.74 620.362C1516.74 624.183 1519.84 627.281 1523.66 627.281C1527.48 627.281 1530.58 624.183 1530.58 620.362Z" stroke="#0626A9" stroke-width="2" stroke-linecap="round" stroke-linejoin="round"/>
<path d="M159.414 1073.07C159.414 1063.27 151.467 1055.32 141.665 1055.32C131.863 1055.32 123.916 1063.27 123.916 1073.07C123.916 1082.87 131.863 1090.82 141.665 1090.82C151.467 1090.82 159.414 1082.87 159.414 1073.07Z" fill="#84AAE4"/>
<path d="M159.414 1073.07C159.414 1063.27 151.467 1055.32 141.665 1055.32C131.863 1055.32 123.916 1063.27 123.916 1073.07C123.916 1082.87 131.863 1090.82 141.665 1090.82C151.467 1090.82 159.414 1082.87 159.414 1073.07Z" stroke="#0626A9" stroke-width="2" stroke-linecap="round" stroke-linejoin="round"/>
<path d="M93.9499 1005.19C93.9499 1001.61 91.0479 998.704 87.4679 998.704C83.8879 998.704 80.9849 1001.61 80.9849 1005.19C80.9849 1008.77 83.8879 1011.67 87.4679 1011.67C91.0479 1011.67 93.9499 1008.77 93.9499 1005.19Z" fill="white"/>
<path d="M93.9499 1005.19C93.9499 1001.61 91.0479 998.704 87.4679 998.704C83.8879 998.704 80.9849 1001.61 80.9849 1005.19C80.9849 1008.77 83.8879 1011.67 87.4679 1011.67C91.0479 1011.67 93.9499 1008.77 93.9499 1005.19Z" stroke="#0626A9" stroke-width="2" stroke-linecap="round" stroke-linejoin="round"/>
<path d="M174.937 551.455C174.937 545.928 170.457 541.447 164.93 541.447C159.403 541.447 154.923 545.928 154.923 551.455C154.923 556.982 159.403 561.462 164.93 561.462C170.457 561.462 174.937 556.982 174.937 551.455Z" fill="white"/>
<path d="M174.937 551.455C174.937 545.928 170.457 541.447 164.93 541.447C159.403 541.447 154.923 545.928 154.923 551.455C154.923 556.982 159.403 561.462 164.93 561.462C170.457 561.462 174.937 556.982 174.937 551.455Z" stroke="#0626A9" stroke-width="2" stroke-linecap="round" stroke-linejoin="round"/>
<path d="M640.561 1151.85C623.824 1152.01 610.382 1165.7 610.536 1182.43C610.69 1199.17 624.382 1212.61 641.119 1212.46C657.856 1212.31 671.298 1198.61 671.144 1181.88C670.99 1165.14 657.298 1151.7 640.561 1151.85Z" fill="white"/>
<path d="M640.561 1151.85C623.824 1152.01 610.382 1165.7 610.536 1182.43C610.69 1199.17 624.382 1212.61 641.119 1212.46C657.856 1212.31 671.298 1198.61 671.144 1181.88C670.99 1165.14 657.298 1151.7 640.561 1151.85Z" stroke="#0626A9" stroke-width="2" stroke-linecap="round" stroke-linejoin="round"/>
<path d="M621.028 1204.93C619.913 1203.47 559.537 1160.46 558.009 1143.06C556.504 1125.93 574.078 1119.4 593.228 1124.61C610.873 1129.41 655.115 1156.49 655.115 1156.49" fill="white"/>
<path d="M621.028 1204.93C619.913 1203.47 559.537 1160.46 558.009 1143.06C556.504 1125.93 574.078 1119.4 593.228 1124.61C610.873 1129.41 655.115 1156.49 655.115 1156.49" stroke="#0626A9" stroke-width="2" stroke-linecap="round" stroke-linejoin="round"/>
<path d="M732.008 1209.05C710.504 1209.25 693.232 1226.84 693.43 1248.35C693.628 1269.85 711.22 1287.12 732.724 1286.93C754.228 1286.73 771.501 1269.14 771.303 1247.63C771.105 1226.13 753.512 1208.86 732.008 1209.05Z" fill="white"/>
<path d="M732.008 1209.05C710.504 1209.25 693.232 1226.84 693.43 1248.35C693.628 1269.85 711.22 1287.12 732.724 1286.93C754.228 1286.73 771.501 1269.14 771.303 1247.63C771.105 1226.13 753.512 1208.86 732.008 1209.05Z" stroke="#0626A9" stroke-width="2" stroke-linecap="round" stroke-linejoin="round"/>
<path d="M623.62 1207.11C658.191 1231.41 708.034 1278.52 708.034 1278.52C708.034 1278.52 730.766 1273.72 744.202 1256.7C757.638 1239.67 752.636 1215.11 752.636 1215.11L751.872 1214.64L656.216 1156.48" fill="white"/>
<path d="M623.62 1207.11C658.191 1231.41 708.034 1278.52 708.034 1278.52C708.034 1278.52 730.766 1273.72 744.202 1256.7C757.638 1239.67 752.636 1215.11 752.636 1215.11L751.872 1214.64L656.216 1156.48" stroke="#0626A9" stroke-width="2" stroke-linecap="round" stroke-linejoin="round"/>
<path d="M660.172 1150.52C644.152 1150.66 631.284 1163.77 631.431 1179.79C631.578 1195.81 644.686 1208.68 660.706 1208.53C676.726 1208.39 689.593 1195.28 689.446 1179.26C689.299 1163.24 676.192 1150.37 660.172 1150.52Z" fill="white"/>
<path d="M660.172 1150.52C644.152 1150.66 631.284 1163.77 631.431 1179.79C631.578 1195.81 644.686 1208.68 660.706 1208.53C676.726 1208.39 689.593 1195.28 689.446 1179.26C689.299 1163.24 676.192 1150.37 660.172 1150.52Z" stroke="#0626A9" stroke-width="2" stroke-linecap="round" stroke-linejoin="round"/>
<path d="M641.475 1201.32C640.407 1199.93 582.616 1158.75 581.153 1142.1C579.713 1125.71 596.533 1119.45 614.864 1124.44C631.754 1129.04 674.102 1154.96 674.102 1154.96" fill="white"/>
<path d="M641.475 1201.32C640.407 1199.93 582.616 1158.75 581.153 1142.1C579.713 1125.71 596.533 1119.45 614.864 1124.44C631.754 1129.04 674.102 1154.96 674.102 1154.96" stroke="#0626A9" stroke-width="2" stroke-linecap="round" stroke-linejoin="round"/>
<path d="M747.705 1205.27C727.121 1205.46 710.589 1222.3 710.778 1242.88C710.967 1263.47 727.807 1280 748.391 1279.81C768.975 1279.62 785.507 1262.78 785.318 1242.2C785.129 1221.61 768.289 1205.08 747.705 1205.27Z" fill="white"/>
<path d="M747.705 1205.27C727.121 1205.46 710.589 1222.3 710.778 1242.88C710.967 1263.47 727.807 1280 748.391 1279.81C768.975 1279.62 785.507 1262.78 785.318 1242.2C785.129 1221.61 768.289 1205.08 747.705 1205.27Z" stroke="#0626A9" stroke-width="2" stroke-linecap="round" stroke-linejoin="round"/>
<path d="M643.956 1203.41C677.048 1226.67 724.757 1271.77 724.757 1271.77C724.757 1271.77 746.516 1267.17 759.377 1250.88C772.238 1234.58 767.45 1211.07 767.45 1211.07L766.719 1210.62L675.157 1154.95" fill="white"/>
<path d="M643.956 1203.41C677.048 1226.67 724.757 1271.77 724.757 1271.77C724.757 1271.77 746.516 1267.17 759.377 1250.88C772.238 1234.58 767.45 1211.07 767.45 1211.07L766.719 1210.62L675.157 1154.95" stroke="#0626A9" stroke-width="2" stroke-linecap="round" stroke-linejoin="round"/>
<path d="M944.279 1207.28C925.788 1191.35 897.888 1193.43 881.962 1211.92C866.036 1230.41 868.114 1258.31 886.605 1274.24C905.096 1290.17 932.996 1288.09 948.922 1269.6C964.848 1251.11 962.77 1223.21 944.279 1207.28Z" fill="white"/>
<path d="M944.279 1207.28C925.788 1191.35 897.888 1193.43 881.962 1211.92C866.036 1230.41 868.114 1258.31 886.605 1274.24C905.096 1290.17 932.996 1288.09 948.922 1269.6C964.848 1251.11 962.77 1223.21 944.279 1207.28Z" stroke="#0626A9" stroke-width="2" stroke-linecap="round" stroke-linejoin="round"/>
<path d="M958.474 1251.68C965.667 1205.27 983.345 1143.78 972.442 1131.3C961.539 1118.81 948.523 1118.12 935.662 1137.36C922.801 1156.61 889.188 1202.42 880.786 1213.36" fill="white"/>
<path d="M958.474 1251.68C965.667 1205.27 983.345 1143.78 972.442 1131.3C961.539 1118.81 948.523 1118.12 935.662 1137.36C922.801 1156.61 889.188 1202.42 880.786 1213.36" stroke="#0626A9" stroke-width="2" stroke-linecap="round" stroke-linejoin="round"/>
<path d="M909.683 1291.15C855.878 1275.19 799.322 1305.87 783.363 1359.68C767.404 1413.48 798.084 1470.04 851.889 1485.99C905.694 1501.95 962.25 1471.27 978.209 1417.47C994.168 1363.66 963.488 1307.11 909.683 1291.15Z" fill="white"/>
<path d="M909.683 1291.15C855.878 1275.19 799.322 1305.87 783.363 1359.68C767.404 1413.48 798.084 1470.04 851.889 1485.99C905.694 1501.95 962.25 1471.27 978.209 1417.47C994.168 1363.66 963.488 1307.11 909.683 1291.15Z" stroke="#0626A9" stroke-width="2" stroke-linecap="round" stroke-linejoin="round"/>
<path d="M783.68 1418.5C783.68 1418.5 751.599 1312.64 708.034 1278.52C718.499 1262.87 766.719 1210.62 766.719 1210.62C766.719 1210.62 847.096 1263.88 880.786 1213.36C880.786 1213.36 936.555 1240.76 958.474 1251.68C952.92 1288.9 976.822 1355.34 976.822 1355.34" fill="white"/>
<path d="M958.474 1251.68C952.92 1288.9 976.822 1355.34 976.822 1355.34" stroke="#0626A9" stroke-width="2" stroke-linecap="round" stroke-linejoin="round"/>
<path d="M766.719 1210.62C766.719 1210.62 847.096 1263.88 880.786 1213.36" stroke="#0626A9" stroke-width="2" stroke-linecap="round" stroke-linejoin="round"/>
<path d="M783.68 1418.5C783.68 1418.5 751.599 1312.64 708.034 1278.52" stroke="#0626A9" stroke-width="2" stroke-linecap="round" stroke-linejoin="round"/>
<path d="M382.419 1110.99H1187.95V526.428C1187.95 515.356 1178.97 506.381 1167.9 506.381H402.466C391.394 506.381 382.419 515.356 382.419 526.428V1110.99Z" fill="#84AAE4"/>
<path d="M382.419 1110.99H1187.95V526.428C1187.95 515.356 1178.97 506.381 1167.9 506.381H402.466C391.394 506.381 382.419 515.356 382.419 526.428V1110.99Z" stroke="#0626A9" stroke-width="2" stroke-linecap="round" stroke-linejoin="round"/>
<path d="M400.796 1090.62H1169.57V526.751H400.796V1090.62Z" fill="white"/>
<path d="M400.796 1090.62H1169.57V526.751H400.796V1090.62Z" stroke="#0626A9" stroke-width="2" stroke-linecap="round" stroke-linejoin="round"/>
<path d="M347.634 1120.93H1222.73C1243.68 1120.93 1260.67 1103.94 1260.67 1082.99H309.701C309.701 1103.94 326.684 1120.93 347.634 1120.93Z" fill="#84AAE4"/>
<path d="M347.634 1120.93H1222.73C1243.68 1120.93 1260.67 1103.94 1260.67 1082.99H309.701C309.701 1103.94 326.684 1120.93 347.634 1120.93Z" stroke="#0626A9" stroke-width="2" stroke-linecap="round" stroke-linejoin="round"/>
<mask id="mask2_40000055_8081" style="mask-type:alpha" maskUnits="userSpaceOnUse" x="382" y="506" width="806" height="577">
<path d="M382.419 1082.77H1187.95V526.428C1187.95 515.356 1178.97 506.381 1167.9 506.381H402.466C391.394 506.381 382.419 515.356 382.419 526.428V1082.77Z" fill="#8484FA"/>
</mask>
<g mask="url(#mask2_40000055_8081)">
<path d="M1064.9 944.762L1351.11 1085.7V710.543L1064.9 654.095V944.762Z" fill="#0626A9"/>
</g>
<path d="M1315.56 944.762H1064.9V654.095H1315.56V944.762Z" fill="white"/>
<path d="M1315.56 944.762H1064.9V654.095H1315.56V944.762Z" stroke="#0626A9" stroke-width="2" stroke-linecap="round" stroke-linejoin="round"/>
<path d="M1121.03 896.267C1121.03 887.333 1113.79 880.09 1104.85 880.09C1095.92 880.09 1088.68 887.333 1088.68 896.267C1088.68 905.201 1095.92 912.443 1104.85 912.443C1113.79 912.443 1121.03 905.201 1121.03 896.267Z" fill="#84AAE4"/>
<path d="M1121.03 896.267C1121.03 887.333 1113.79 880.09 1104.85 880.09C1095.92 880.09 1088.68 887.333 1088.68 896.267C1088.68 905.201 1095.92 912.443 1104.85 912.443C1113.79 912.443 1121.03 905.201 1121.03 896.267Z" stroke="#0626A9" stroke-width="2" stroke-linecap="round" stroke-linejoin="round"/>
<path d="M1291.78 910.646H1133.61V881.887H1291.78V910.646Z" stroke="#0626A9" stroke-width="2" stroke-linecap="round" stroke-linejoin="round"/>
<path d="M1121.03 831.267C1121.03 822.333 1113.79 815.09 1104.85 815.09C1095.92 815.09 1088.68 822.333 1088.68 831.267C1088.68 840.201 1095.92 847.443 1104.85 847.443C1113.79 847.443 1121.03 840.201 1121.03 831.267Z" fill="#84AAE4"/>
<path d="M1121.03 831.267C1121.03 822.333 1113.79 815.09 1104.85 815.09C1095.92 815.09 1088.68 822.333 1088.68 831.267C1088.68 840.201 1095.92 847.443 1104.85 847.443C1113.79 847.443 1121.03 840.201 1121.03 831.267Z" stroke="#0626A9" stroke-width="2" stroke-linecap="round" stroke-linejoin="round"/>
<path d="M1291.78 845.646H1133.61V816.887H1291.78V845.646Z" stroke="#0626A9" stroke-width="2" stroke-linecap="round" stroke-linejoin="round"/>
<path d="M1121.03 767.267C1121.03 758.333 1113.79 751.09 1104.85 751.09C1095.92 751.09 1088.68 758.333 1088.68 767.267C1088.68 776.201 1095.92 783.443 1104.85 783.443C1113.79 783.443 1121.03 776.201 1121.03 767.267Z" fill="#84AAE4"/>
<path d="M1121.03 767.267C1121.03 758.333 1113.79 751.09 1104.85 751.09C1095.92 751.09 1088.68 758.333 1088.68 767.267C1088.68 776.201 1095.92 783.443 1104.85 783.443C1113.79 783.443 1121.03 776.201 1121.03 767.267Z" stroke="#0626A9" stroke-width="2" stroke-linecap="round" stroke-linejoin="round"/>
<path d="M1291.78 781.646H1133.61V752.887H1291.78V781.646Z" stroke="#0626A9" stroke-width="2" stroke-linecap="round" stroke-linejoin="round"/>
<path d="M1121.03 703.267C1121.03 694.333 1113.79 687.09 1104.85 687.09C1095.92 687.09 1088.68 694.333 1088.68 703.267C1088.68 712.201 1095.92 719.443 1104.85 719.443C1113.79 719.443 1121.03 712.201 1121.03 703.267Z" fill="#84AAE4"/>
<path d="M1121.03 703.267C1121.03 694.333 1113.79 687.09 1104.85 687.09C1095.92 687.09 1088.68 694.333 1088.68 703.267C1088.68 712.201 1095.92 719.443 1104.85 719.443C1113.79 719.443 1121.03 712.201 1121.03 703.267Z" stroke="#0626A9" stroke-width="2" stroke-linecap="round" stroke-linejoin="round"/>
<path d="M1291.78 717.646H1133.61V688.887H1291.78V717.646Z" stroke="#0626A9" stroke-width="2" stroke-linecap="round" stroke-linejoin="round"/>
<mask id="mask3_40000055_8081" style="mask-type:alpha" maskUnits="userSpaceOnUse" x="382" y="506" width="806" height="577">
<path d="M382.419 1082.77H1187.95V526.428C1187.95 515.356 1178.97 506.381 1167.9 506.381H402.466C391.394 506.381 382.419 515.356 382.419 526.428V1082.77Z" fill="#8484FA"/>
</mask>
<g mask="url(#mask3_40000055_8081)">
<path d="M654.839 608.814L114.037 700.379V407.831L654.839 387.48V608.814Z" fill="#0626A9"/>
<path d="M682.5 679.5V810.021H450.5V679.5H682.5Z" fill="white" stroke="#0626A9"/>
<path d="M555.291 712.48H476.231V791.54H555.291V712.48Z" fill="#84AAE4"/>
<path d="M656.813 732.699H570.389V713.709H656.813V732.699Z" fill="white"/>
<path d="M570.389 755.819H632.195" stroke="#0626A9" stroke-width="2" stroke-linecap="round" stroke-linejoin="round"/>
<path d="M570.389 773.066H612.632" stroke="#0626A9" stroke-width="2" stroke-linecap="round" stroke-linejoin="round"/>
<path d="M570.389 790.312H625.034" stroke="#0626A9" stroke-width="2" stroke-linecap="round" stroke-linejoin="round"/>
<path d="M683 694.968H450V679H683V694.968Z" fill="#8869D5"/>
<path d="M1013.5 876.5V1007.02H781.5V876.5H1013.5Z" fill="white" stroke="#0626A9"/>
<path d="M886.291 909.48H807.231V988.54H886.291V909.48Z" fill="#84AAE4"/>
<path d="M987.813 929.699H901.389V910.709H987.813V929.699Z" fill="white"/>
<path d="M901.389 952.819H963.195" stroke="#0626A9" stroke-width="2" stroke-linecap="round" stroke-linejoin="round"/>
<path d="M901.389 970.066H943.632" stroke="#0626A9" stroke-width="2" stroke-linecap="round" stroke-linejoin="round"/>
<path d="M901.389 987.312H956.034" stroke="#0626A9" stroke-width="2" stroke-linecap="round" stroke-linejoin="round"/>
<path d="M1014 891.968H781V876H1014V891.968Z" fill="#8869D5"/>
</g>
<path d="M654.839 608.814H262.73V387.48H654.839V608.814Z" fill="white"/>
<path d="M654.839 608.814H262.73V387.48H654.839V608.814Z" stroke="#0626A9" stroke-width="2" stroke-linecap="round" stroke-linejoin="round"/>
<path d="M439.921 443.823H306.873V576.871H439.921V443.823Z" fill="#84AAE4"/>
<path d="M439.921 443.823H306.873V576.871H439.921V443.823Z" stroke="#0626A9" stroke-width="2" stroke-linecap="round" stroke-linejoin="round"/>
<path d="M610.769 477.849H465.329V445.891H610.769V477.849Z" fill="white"/>
<path d="M610.769 477.849H465.329V445.891H610.769V477.849Z" stroke="#0626A9" stroke-width="2" stroke-linecap="round" stroke-linejoin="round"/>
<path d="M465.329 516.757H569.34" stroke="#0626A9" stroke-width="2" stroke-linecap="round" stroke-linejoin="round"/>
<path d="M465.329 545.78H536.418" stroke="#0626A9" stroke-width="2" stroke-linecap="round" stroke-linejoin="round"/>
<path d="M465.329 574.803H557.289" stroke="#0626A9" stroke-width="2" stroke-linecap="round" stroke-linejoin="round"/>
<path d="M654.839 414.352H262.73V387.48H654.839V414.352Z" fill="#8869D5"/>
<path d="M654.839 414.352H262.73V387.48H654.839V414.352Z" stroke="#0626A9" stroke-width="2" stroke-linecap="round" stroke-linejoin="round"/>
</g>
</g>
</g>
<defs>
<clipPath id="clip0_40000055_8081">
<rect width="1600" height="1600" fill="white"/>
</clipPath>
</defs>
</svg>
