<svg width="1600" height="1600" viewBox="0 0 1600 1600" fill="none" xmlns="http://www.w3.org/2000/svg">
<g clip-path="url(#clip0_40000055_8224)">
<mask id="mask0_40000055_8224" style="mask-type:luminance" maskUnits="userSpaceOnUse" x="0" y="0" width="1600" height="1600">
<path d="M1600 0H0V1600H1600V0Z" fill="white"/>
</mask>
<g mask="url(#mask0_40000055_8224)">
<mask id="mask1_40000055_8224" style="mask-type:luminance" maskUnits="userSpaceOnUse" x="0" y="0" width="1600" height="1600">
<path d="M1600 0H0V1600H1600V0Z" fill="white"/>
</mask>
<g mask="url(#mask1_40000055_8224)">
<mask id="mask2_40000055_8224" style="mask-type:luminance" maskUnits="userSpaceOnUse" x="0" y="0" width="1600" height="1600">
<path d="M1600 0H0V1600H1600V0Z" fill="white"/>
</mask>
<g mask="url(#mask2_40000055_8224)">
<path d="M198.374 1407.97H1410.81" stroke="#0626A9" stroke-width="2" stroke-linecap="round" stroke-linejoin="round"/>
<path d="M636.349 643.337H183.529V491.313H636.349V643.337Z" fill="white"/>
<path d="M636.349 643.337H183.529V491.313H636.349V643.337Z" stroke="#0626A9" stroke-width="2" stroke-linecap="round" stroke-linejoin="round"/>
<path d="M265.91 539.029C265.91 547.732 258.856 554.786 250.153 554.786C241.45 554.786 234.396 547.732 234.396 539.029C234.396 530.326 241.45 523.272 250.153 523.272C258.856 523.272 265.91 530.326 265.91 539.029Z" fill="#0626A9"/>
<path d="M265.91 539.029C265.91 547.732 258.856 554.786 250.153 554.786C241.45 554.786 234.396 547.732 234.396 539.029C234.396 530.326 241.45 523.272 250.153 523.272C258.856 523.272 265.91 530.326 265.91 539.029Z" stroke="#0626A9" stroke-width="2" stroke-linecap="round" stroke-linejoin="round"/>
<path d="M265.91 595.621C265.91 604.324 258.856 611.378 250.153 611.378C241.45 611.378 234.396 604.324 234.396 595.621C234.396 586.918 241.45 579.864 250.153 579.864C258.856 579.864 265.91 586.918 265.91 595.621Z" stroke="#0626A9" stroke-width="2" stroke-linecap="round" stroke-linejoin="round"/>
<path d="M300.742 539.029H495.178" stroke="#0626A9" stroke-width="2" stroke-linecap="round" stroke-linejoin="round"/>
<path d="M302.771 603.261H499.971" stroke="#0626A9" stroke-width="2" stroke-linecap="round" stroke-linejoin="round"/>
<path d="M447.013 1002.28H223.747V779.01H447.013V1002.28Z" fill="white"/>
<path d="M447.013 1002.28H223.747V779.01H447.013V1002.28Z" stroke="#0626A9" stroke-width="2" stroke-linecap="round" stroke-linejoin="round"/>
<path d="M418.382 884.443H252.378V844.235H418.382V884.443Z" fill="#0626A9"/>
<path d="M418.382 884.443H252.378V844.235H418.382V884.443Z" stroke="#0626A9" stroke-width="2" stroke-linecap="round" stroke-linejoin="round"/>
<path d="M252.377 937.05H359.977" stroke="#0626A9" stroke-width="2" stroke-linecap="round" stroke-linejoin="round"/>
<path d="M452.614 959.63H1274.59V305.548H452.614V959.63Z" fill="white"/>
<path d="M727.766 461.5V683.771H505.5V461.5H727.766Z" fill="white" stroke="#0626A9"/>
<path d="M699.635 566.433H533.631V526.225H699.635V566.433Z" stroke="#0626A9" stroke-width="2" stroke-linecap="round" stroke-linejoin="round"/>
<path d="M533.63 619.04H641.23" stroke="#0626A9" stroke-width="2" stroke-linecap="round" stroke-linejoin="round"/>
<path d="M1033.77 603.5V825.771H811.5V603.5H1033.77Z" fill="white" stroke="#0626A9"/>
<path d="M1005.64 708.433H839.631V668.225H1005.64V708.433Z" stroke="#0626A9" stroke-width="2" stroke-linecap="round" stroke-linejoin="round"/>
<path d="M839.63 761.04H947.23" stroke="#0626A9" stroke-width="2" stroke-linecap="round" stroke-linejoin="round"/>
<path d="M452.614 959.63H1274.59V305.548H452.614V959.63Z" stroke="#0626A9" stroke-width="2" stroke-linecap="round" stroke-linejoin="round"/>
<path d="M452.614 367.429H1274.59V305.549H452.614V367.429Z" fill="#84AAE4"/>
<path d="M452.614 367.429H1274.59V305.549H452.614V367.429Z" stroke="#0626A9" stroke-width="2" stroke-linecap="round" stroke-linejoin="round"/>
<path d="M496.66 336.489C496.66 343.011 491.373 348.298 484.851 348.298C478.329 348.298 473.042 343.011 473.042 336.489C473.042 329.967 478.329 324.68 484.851 324.68C491.373 324.68 496.66 329.967 496.66 336.489Z" fill="#0626A9"/>
<path d="M540.303 336.489C540.303 343.011 535.016 348.298 528.494 348.298C521.972 348.298 516.685 343.011 516.685 336.489C516.685 329.967 521.972 324.68 528.494 324.68C535.016 324.68 540.303 329.967 540.303 336.489Z" fill="#0626A9"/>
<path d="M583.946 336.489C583.946 343.011 578.659 348.298 572.137 348.298C565.615 348.298 560.328 343.011 560.328 336.489C560.328 329.967 565.615 324.68 572.137 324.68C578.659 324.68 583.946 329.967 583.946 336.489Z" fill="#0626A9"/>
<path d="M1393.17 632.589H1099.8V403.961H1393.17V632.589Z" fill="white"/>
<path d="M1393.17 632.589H1099.8V403.961H1393.17V632.589Z" stroke="#0626A9" stroke-width="2" stroke-linecap="round" stroke-linejoin="round"/>
<path d="M1138.47 604.576H1354.5" stroke="#0626A9" stroke-width="2" stroke-linecap="round" stroke-linejoin="round"/>
<path d="M1082.37 1286.99H664V899H1082.37V1286.99Z" fill="#84AAE4"/>
<path d="M1082.37 1286.99H664V899H1082.37V1286.99Z" stroke="#0626A9" stroke-width="2" stroke-linecap="round" stroke-linejoin="round"/>
<path d="M1025.34 1234.1H721.033V951.892H1025.34V1234.1Z" fill="white"/>
<path d="M1025.34 1234.1H721.033V951.892H1025.34V1234.1Z" stroke="#0626A9" stroke-width="2" stroke-linecap="round" stroke-linejoin="round"/>
<path d="M759.681 1001.84H875.597" stroke="#0626A9" stroke-width="2" stroke-linecap="round" stroke-linejoin="round"/>
<path d="M950.747 1104.45C950.747 1117.78 946.997 1130.24 940.477 1140.82L881.257 1104.45V1034.95C919.637 1034.95 950.747 1066.07 950.747 1104.45Z" fill="#0626A9"/>
<path d="M950.747 1104.45C950.747 1117.78 946.997 1130.24 940.477 1140.82L881.257 1104.45V1034.95C919.637 1034.95 950.747 1066.07 950.747 1104.45Z" stroke="#0626A9" stroke-width="2" stroke-linecap="round" stroke-linejoin="round"/>
<path d="M795.626 1104.45C795.626 1117.78 799.379 1130.24 805.896 1140.82L865.117 1104.45V1034.95C826.738 1034.95 795.626 1066.07 795.626 1104.45Z" fill="#84AAE4"/>
<path d="M795.626 1104.45C795.626 1117.78 799.379 1130.24 805.896 1140.82L865.117 1104.45V1034.95C826.738 1034.95 795.626 1066.07 795.626 1104.45Z" stroke="#0626A9" stroke-width="2" stroke-linecap="round" stroke-linejoin="round"/>
<path d="M813.726 1150.65C825.9 1170.74 847.979 1184.16 873.187 1184.16C898.257 1184.16 920.217 1170.89 932.427 1150.99" fill="white"/>
<path d="M813.726 1150.65C825.9 1170.74 847.979 1184.16 873.187 1184.16C898.257 1184.16 920.217 1170.89 932.427 1150.99" stroke="#0626A9" stroke-width="2" stroke-linecap="round" stroke-linejoin="round"/>
<path d="M813.726 1150.65L873.187 1114.67L932.427 1150.99" fill="white"/>
<path d="M813.726 1150.65L873.187 1114.67L932.427 1150.99" stroke="#0626A9" stroke-width="2" stroke-linecap="round" stroke-linejoin="round"/>
</g>
</g>
</g>
</g>
<defs>
<clipPath id="clip0_40000055_8224">
<rect width="1600" height="1600" fill="white"/>
</clipPath>
</defs>
</svg>
