<svg width="1600" height="1600" viewBox="0 0 1600 1600" fill="none" xmlns="http://www.w3.org/2000/svg">
<g clip-path="url(#clip0_18_2223)">
<mask id="mask0_18_2223" style="mask-type:luminance" maskUnits="userSpaceOnUse" x="0" y="0" width="1600" height="1600">
<path d="M1600 0H0V1600H1600V0Z" fill="white"/>
</mask>
<g mask="url(#mask0_18_2223)">
<mask id="mask1_18_2223" style="mask-type:luminance" maskUnits="userSpaceOnUse" x="0" y="-175" width="1600" height="1600">
<path d="M0 -175H1600V1425H0V-175Z" fill="white"/>
</mask>
<g mask="url(#mask1_18_2223)">
<path d="M393.111 968.887C393.111 974.821 388.3 979.632 382.366 979.632C376.432 979.632 371.621 974.821 371.621 968.887C371.621 962.953 376.432 958.142 382.366 958.142C388.3 958.142 393.111 962.953 393.111 968.887Z" fill="#8869D5"/>
<path d="M393.111 968.887C393.111 974.821 388.3 979.632 382.366 979.632C376.432 979.632 371.621 974.821 371.621 968.887C371.621 962.953 376.432 958.142 382.366 958.142C388.3 958.142 393.111 962.953 393.111 968.887Z" stroke="#0626A9" stroke-width="2" stroke-linecap="round" stroke-linejoin="round"/>
<path d="M436.495 866.79C436.495 870.299 433.65 873.144 430.141 873.144C426.632 873.144 423.787 870.299 423.787 866.79C423.787 863.281 426.632 860.436 430.141 860.436C433.65 860.436 436.495 863.281 436.495 866.79Z" fill="#0626A9"/>
<path d="M436.495 866.79C436.495 870.299 433.65 873.144 430.141 873.144C426.632 873.144 423.787 870.299 423.787 866.79C423.787 863.281 426.632 860.436 430.141 860.436C433.65 860.436 436.495 863.281 436.495 866.79Z" stroke="#0626A9" stroke-width="2" stroke-linecap="round" stroke-linejoin="round"/>
<path d="M786.801 1153.33C786.801 1156.35 784.349 1158.81 781.324 1158.81C778.299 1158.81 775.847 1156.35 775.847 1153.33C775.847 1150.3 778.299 1147.85 781.324 1147.85C784.349 1147.85 786.801 1150.3 786.801 1153.33Z" fill="white"/>
<path d="M786.801 1153.33C786.801 1156.35 784.349 1158.81 781.324 1158.81C778.299 1158.81 775.847 1156.35 775.847 1153.33C775.847 1150.3 778.299 1147.85 781.324 1147.85C784.349 1147.85 786.801 1150.3 786.801 1153.33Z" stroke="#0626A9" stroke-width="2" stroke-linecap="round" stroke-linejoin="round"/>
<path d="M493.815 981.992C493.815 985.017 491.363 987.469 488.338 987.469C485.313 987.469 482.861 985.017 482.861 981.992C482.861 978.967 485.313 976.515 488.338 976.515C491.363 976.515 493.815 978.967 493.815 981.992Z" fill="white"/>
<path d="M493.815 981.992C493.815 985.017 491.363 987.469 488.338 987.469C485.313 987.469 482.861 985.017 482.861 981.992C482.861 978.967 485.313 976.515 488.338 976.515C491.363 976.515 493.815 978.967 493.815 981.992Z" stroke="#0626A9" stroke-width="2" stroke-linecap="round" stroke-linejoin="round"/>
<path d="M737.182 1236.18C737.182 1243.99 730.849 1250.33 723.037 1250.33C715.225 1250.33 708.892 1243.99 708.892 1236.18C708.892 1228.37 715.225 1222.04 723.037 1222.04C730.849 1222.04 737.182 1228.37 737.182 1236.18Z" fill="#8869D5"/>
<path d="M737.182 1236.18C737.182 1243.99 730.849 1250.33 723.037 1250.33C715.225 1250.33 708.892 1243.99 708.892 1236.18C708.892 1228.37 715.225 1222.04 723.037 1222.04C730.849 1222.04 737.182 1228.37 737.182 1236.18Z" stroke="#0626A9" stroke-width="2" stroke-linecap="round" stroke-linejoin="round"/>
<path d="M915.352 1204.21C915.352 1208.51 911.868 1211.99 907.57 1211.99C903.272 1211.99 899.788 1208.51 899.788 1204.21C899.788 1199.91 903.272 1196.43 907.57 1196.43C911.868 1196.43 915.352 1199.91 915.352 1204.21Z" fill="#0626A9"/>
<path d="M915.352 1204.21C915.352 1208.51 911.868 1211.99 907.57 1211.99C903.272 1211.99 899.788 1208.51 899.788 1204.21C899.788 1199.91 903.272 1196.43 907.57 1196.43C911.868 1196.43 915.352 1199.91 915.352 1204.21Z" stroke="#0626A9" stroke-width="2" stroke-linecap="round" stroke-linejoin="round"/>
<path d="M956.838 1075.11C956.838 1079.23 953.494 1082.58 949.369 1082.58C945.244 1082.58 941.9 1079.23 941.9 1075.11C941.9 1070.98 945.244 1067.64 949.369 1067.64C953.494 1067.64 956.838 1070.98 956.838 1075.11Z" fill="white"/>
<path d="M956.838 1075.11C956.838 1079.23 953.494 1082.58 949.369 1082.58C945.244 1082.58 941.9 1079.23 941.9 1075.11C941.9 1070.98 945.244 1067.64 949.369 1067.64C953.494 1067.64 956.838 1070.98 956.838 1075.11Z" stroke="#0626A9" stroke-width="2" stroke-linecap="round" stroke-linejoin="round"/>
<path d="M1168.3 937.297C1168.3 941.284 1165.07 944.517 1161.08 944.517C1157.1 944.517 1153.86 941.284 1153.86 937.297C1153.86 933.31 1157.1 930.077 1161.08 930.077C1165.07 930.077 1168.3 933.31 1168.3 937.297Z" fill="white"/>
<path d="M1168.3 937.297C1168.3 941.284 1165.07 944.517 1161.08 944.517C1157.1 944.517 1153.86 941.284 1153.86 937.297C1153.86 933.31 1157.1 930.077 1161.08 930.077C1165.07 930.077 1168.3 933.31 1168.3 937.297Z" stroke="#0626A9" stroke-width="2" stroke-linecap="round" stroke-linejoin="round"/>
<path d="M1239.86 878.391C1239.86 882.791 1236.3 886.357 1231.9 886.357C1227.5 886.357 1223.93 882.791 1223.93 878.391C1223.93 873.991 1227.5 870.425 1231.9 870.425C1236.3 870.425 1239.86 873.991 1239.86 878.391Z" fill="#0626A9"/>
<path d="M1239.86 878.391C1239.86 882.791 1236.3 886.357 1231.9 886.357C1227.5 886.357 1223.93 882.791 1223.93 878.391C1223.93 873.991 1227.5 870.425 1231.9 870.425C1236.3 870.425 1239.86 873.991 1239.86 878.391Z" stroke="#0626A9" stroke-width="2" stroke-linecap="round" stroke-linejoin="round"/>
<path d="M1267.02 1019.8C1267.02 1025.85 1262.11 1030.76 1256.06 1030.76C1250.01 1030.76 1245.11 1025.85 1245.11 1019.8C1245.11 1013.75 1250.01 1008.85 1256.06 1008.85C1262.11 1008.85 1267.02 1013.75 1267.02 1019.8Z" fill="#8869D5"/>
<path d="M1267.02 1019.8C1267.02 1025.85 1262.11 1030.76 1256.06 1030.76C1250.01 1030.76 1245.11 1025.85 1245.11 1019.8C1245.11 1013.75 1250.01 1008.85 1256.06 1008.85C1262.11 1008.85 1267.02 1013.75 1267.02 1019.8Z" stroke="#0626A9" stroke-width="2" stroke-linecap="round" stroke-linejoin="round"/>
</g>
<mask id="mask2_18_2223" style="mask-type:luminance" maskUnits="userSpaceOnUse" x="0" y="-175" width="1600" height="1600">
<path d="M0 -175H1600V1425H0V-175Z" fill="white"/>
</mask>
<g mask="url(#mask2_18_2223)">
<mask id="mask3_18_2223" style="mask-type:alpha" maskUnits="userSpaceOnUse" x="684" y="648" width="231" height="232">
<path d="M898.894 820.754C867.586 875.617 797.731 894.711 742.868 863.403C688.005 832.095 668.91 762.24 700.218 707.377C731.526 652.514 801.382 633.42 856.245 664.728C911.108 696.036 930.202 765.891 898.894 820.754Z" fill="white"/>
<path d="M898.894 820.754C867.586 875.617 797.731 894.711 742.868 863.403C688.005 832.095 668.91 762.24 700.218 707.377C731.526 652.514 801.382 633.42 856.245 664.728C911.108 696.036 930.202 765.891 898.894 820.754Z" stroke="#202870" stroke-width="2" stroke-linecap="round" stroke-linejoin="round"/>
</mask>
<g mask="url(#mask3_18_2223)">
<path d="M1065.5 721.678L1065.92 805.775L1112.4 868.596L1047.83 981.74L970.102 973.684L897.484 1016.1L866.316 1087.76L736.047 1088.42L704.16 1017.07L631.119 975.39L553.476 984.228L487.773 871.74L533.615 808.453L533.191 724.356" fill="#84AAE4"/>
<path d="M1065.5 721.678L1065.92 805.775L1112.4 868.596L1047.83 981.74L970.102 973.684L897.484 1016.1L866.316 1087.76L736.047 1088.42L704.16 1017.07L631.119 975.39L553.476 984.228L487.773 871.74L533.615 808.453L533.191 724.356" stroke="#0626A9" stroke-width="2" stroke-linecap="round" stroke-linejoin="round"/>
</g>
<mask id="mask4_18_2223" style="mask-type:alpha" maskUnits="userSpaceOnUse" x="485" y="440" width="629" height="650">
<path d="M967.994 554.741L1045.64 545.903L1111.34 658.391L1065.5 721.678L1065.92 805.775L1112.4 868.596L1047.83 981.74L970.102 973.684L897.484 1016.1L866.316 1087.76L736.047 1088.41L704.16 1017.07L631.119 975.39L553.476 984.228L487.773 871.74L533.615 808.453L533.191 724.356L486.715 661.535L551.282 548.39L629.011 556.447L701.629 514.032L732.796 442.372L863.065 441.716L894.952 513.059L967.994 554.741Z" fill="#8484FA"/>
<path d="M967.994 554.741L1045.64 545.903L1111.34 658.391L1065.5 721.678L1065.92 805.775L1112.4 868.596L1047.83 981.74L970.102 973.684L897.484 1016.1L866.316 1087.76L736.047 1088.41L704.16 1017.07L631.119 975.39L553.476 984.228L487.773 871.74L533.615 808.453L533.191 724.356L486.715 661.535L551.282 548.39L629.011 556.447L701.629 514.032L732.796 442.372L863.065 441.716L894.952 513.059L967.994 554.741Z" stroke="#202870" stroke-width="2" stroke-linecap="round" stroke-linejoin="round"/>
</mask>
<g mask="url(#mask4_18_2223)">
<mask id="mask5_18_2223" style="mask-type:luminance" maskUnits="userSpaceOnUse" x="0" y="-175" width="1600" height="1600">
<path d="M0 -175H1600V1425H0V-175Z" fill="white"/>
</mask>
<g mask="url(#mask5_18_2223)">
<path d="M958.608 761.101C960.675 835.384 910.527 903.438 835.365 921.215" stroke="#0626A9" stroke-width="2" stroke-linecap="round" stroke-linejoin="round"/>
<path d="M842.669 921.837C842.669 925.046 840.068 927.647 836.86 927.647C833.652 927.647 831.051 925.046 831.051 921.837C831.051 918.629 833.652 916.029 836.86 916.029C840.068 916.029 842.669 918.629 842.669 921.837Z" fill="#0626A9"/>
<path d="M842.669 921.837C842.669 925.046 840.068 927.647 836.86 927.647C833.652 927.647 831.051 925.046 831.051 921.837C831.051 918.629 833.652 916.029 836.86 916.029C840.068 916.029 842.669 918.629 842.669 921.837Z" stroke="#0626A9" stroke-width="2" stroke-linecap="round" stroke-linejoin="round"/>
<path d="M693.47 885.045C655.633 851.659 636.322 802.63 639.809 753.593" stroke="#0626A9" stroke-width="2" stroke-linecap="round" stroke-linejoin="round"/>
<path d="M699.111 884.981C699.111 888.189 696.51 890.79 693.302 890.79C690.094 890.79 687.494 888.189 687.494 884.981C687.494 881.773 690.094 879.172 693.302 879.172C696.51 879.172 699.111 881.773 699.111 884.981Z" fill="#0626A9"/>
<path d="M699.111 884.981C699.111 888.189 696.51 890.79 693.302 890.79C690.094 890.79 687.494 888.189 687.494 884.981C687.494 881.773 690.094 879.172 693.302 879.172C696.51 879.172 699.111 881.773 699.111 884.981Z" stroke="#0626A9" stroke-width="2" stroke-linecap="round" stroke-linejoin="round"/>
<path d="M970.93 878.985C1002.31 828.195 1009.03 769.122 994.383 715.757" stroke="#0626A9" stroke-width="2" stroke-linecap="round" stroke-linejoin="round"/>
<path d="M977.826 878.879C977.826 882.087 975.225 884.688 972.017 884.688C968.809 884.688 966.208 882.087 966.208 878.879C966.208 875.671 968.809 873.07 972.017 873.07C975.225 873.07 977.826 875.671 977.826 878.879Z" fill="#0626A9"/>
<path d="M977.826 878.879C977.826 882.087 975.225 884.688 972.017 884.688C968.809 884.688 966.208 882.087 966.208 878.879C966.208 875.671 968.809 873.07 972.017 873.07C975.225 873.07 977.826 875.671 977.826 878.879Z" stroke="#0626A9" stroke-width="2" stroke-linecap="round" stroke-linejoin="round"/>
<path d="M594.045 745.504C586.222 824.14 624.148 903.709 697.215 945.405C741.904 970.907 792.103 977.885 838.934 968.765" stroke="#0626A9" stroke-width="2" stroke-linecap="round" stroke-linejoin="round"/>
<path d="M843.227 968.931C843.227 972.139 840.626 974.74 837.418 974.74C834.21 974.74 831.609 972.139 831.609 968.931C831.609 965.723 834.21 963.122 837.418 963.122C840.626 963.122 843.227 965.723 843.227 968.931Z" fill="#0626A9"/>
<path d="M843.227 968.931C843.227 972.139 840.626 974.74 837.418 974.74C834.21 974.74 831.609 972.139 831.609 968.931C831.609 965.723 834.21 963.122 837.418 963.122C840.626 963.122 843.227 965.723 843.227 968.931Z" stroke="#0626A9" stroke-width="2" stroke-linecap="round" stroke-linejoin="round"/>
</g>
</g>
<path d="M913.844 769.561C911.479 830.708 861.124 879.517 799.414 879.44C737.778 879.363 687.589 830.545 685.265 769.494" stroke="#0626A9" stroke-width="2" stroke-linecap="round" stroke-linejoin="round"/>
</g>
<mask id="mask6_18_2223" style="mask-type:luminance" maskUnits="userSpaceOnUse" x="0" y="-175" width="1600" height="1600">
<path d="M0 -175H1600V1425H0V-175Z" fill="white"/>
</mask>
<g mask="url(#mask6_18_2223)">
<path d="M1194.94 1097.36L1186.18 1075.35L1191.69 1054.04L1162.89 1031.3L1143.45 1041.61L1120.01 1038.19L1104.31 1022.76L1070.22 1036.34L1069.42 1058.33L1054.74 1076.92L1033.53 1082.81L1028.24 1119.11L1046.88 1130.81L1055.65 1152.81L1050.14 1174.12L1078.93 1196.86L1098.38 1186.56L1121.82 1189.97L1137.52 1205.4L1171.61 1191.83L1172.41 1169.83L1187.09 1151.24L1208.3 1145.36L1213.59 1109.05L1194.94 1097.36ZM1152.79 1118.73C1150.23 1136.33 1133.87 1148.53 1116.27 1145.96C1098.66 1143.39 1086.47 1127.04 1089.04 1109.44C1091.6 1091.83 1107.95 1079.64 1125.56 1082.2C1143.17 1084.77 1155.36 1101.12 1152.79 1118.73Z" fill="#0626A9"/>
<path d="M1194.94 1097.36L1186.18 1075.35L1191.69 1054.04L1162.89 1031.3L1143.45 1041.61L1120.01 1038.19L1104.31 1022.76L1070.22 1036.34L1069.42 1058.33L1054.74 1076.92L1033.53 1082.81L1028.24 1119.11L1046.88 1130.81L1055.65 1152.81L1050.14 1174.12L1078.93 1196.86L1098.38 1186.56L1121.82 1189.97L1137.52 1205.4L1171.61 1191.83L1172.41 1169.83L1187.09 1151.24L1208.3 1145.36L1213.59 1109.05L1194.94 1097.36ZM1152.79 1118.73C1150.23 1136.33 1133.87 1148.53 1116.27 1145.96C1098.66 1143.39 1086.47 1127.04 1089.04 1109.44C1091.6 1091.83 1107.95 1079.64 1125.56 1082.2C1143.17 1084.77 1155.36 1101.12 1152.79 1118.73Z" stroke="#0626A9" stroke-width="2" stroke-linecap="round" stroke-linejoin="round"/>
<path d="M598.18 1154.73L585.91 1123.92L593.63 1094.09L553.31 1062.26L526.08 1076.68L493.26 1071.9L471.28 1050.3L423.56 1069.3L422.43 1100.1L401.88 1126.13L372.19 1134.36L364.78 1185.2L390.89 1201.56L403.16 1232.38L395.44 1262.21L435.76 1294.04L462.99 1279.62L495.81 1284.4L517.79 1306L565.51 1287L566.63 1256.2L587.18 1230.17L616.88 1221.94L624.29 1171.1L598.18 1154.73ZM539.17 1184.65C535.57 1209.3 512.68 1226.37 488.03 1222.78C463.38 1219.19 446.31 1196.29 449.9 1171.64C453.5 1147 476.39 1129.93 501.04 1133.52C525.69 1137.11 542.76 1160 539.17 1184.65Z" fill="#0626A9"/>
<path d="M598.18 1154.73L585.91 1123.92L593.63 1094.09L553.31 1062.26L526.08 1076.68L493.26 1071.9L471.28 1050.3L423.56 1069.3L422.43 1100.1L401.88 1126.13L372.19 1134.36L364.78 1185.2L390.89 1201.56L403.16 1232.38L395.44 1262.21L435.76 1294.04L462.99 1279.62L495.81 1284.4L517.79 1306L565.51 1287L566.63 1256.2L587.18 1230.17L616.88 1221.94L624.29 1171.1L598.18 1154.73ZM539.17 1184.65C535.57 1209.3 512.68 1226.37 488.03 1222.78C463.38 1219.19 446.31 1196.29 449.9 1171.64C453.5 1147 476.39 1129.93 501.04 1133.52C525.69 1137.11 542.76 1160 539.17 1184.65Z" stroke="#0626A9" stroke-width="2" stroke-linecap="round" stroke-linejoin="round"/>
</g>
<mask id="mask7_18_2223" style="mask-type:luminance" maskUnits="userSpaceOnUse" x="0" y="-175" width="1600" height="1600">
<path d="M0 -175H1600V1425H0V-175Z" fill="white"/>
</mask>
<g mask="url(#mask7_18_2223)">
<path d="M1321.74 711.4H1066.76V593.382H1321.74V711.4Z" fill="#84AAE4"/>
<path d="M1321.74 711.4H1066.76V593.382H1321.74V711.4Z" stroke="#0626A9" stroke-width="2" stroke-linecap="round" stroke-linejoin="round"/>
<path d="M1164.74 656.792H1120.91V593.382" stroke="#0626A9" stroke-width="2" stroke-linecap="round" stroke-linejoin="round"/>
<path d="M1169.46 656.792C1169.46 659.396 1167.35 661.507 1164.74 661.507C1162.14 661.507 1160.03 659.396 1160.03 656.792C1160.03 654.188 1162.14 652.077 1164.74 652.077C1167.35 652.077 1169.46 654.188 1169.46 656.792Z" fill="#0626A9"/>
<path d="M1169.46 656.792C1169.46 659.396 1167.35 661.507 1164.74 661.507C1162.14 661.507 1160.03 659.396 1160.03 656.792C1160.03 654.188 1162.14 652.077 1164.74 652.077C1167.35 652.077 1169.46 654.188 1169.46 656.792Z" stroke="#0626A9" stroke-width="2" stroke-linecap="round" stroke-linejoin="round"/>
<path d="M1147.14 627.332H1248.09V711.4" stroke="#0626A9" stroke-width="2" stroke-linecap="round" stroke-linejoin="round"/>
<path d="M1147.54 627.332C1147.54 629.936 1145.43 632.047 1142.83 632.047C1140.22 632.047 1138.11 629.936 1138.11 627.332C1138.11 624.728 1140.22 622.617 1142.83 622.617C1145.43 622.617 1147.54 624.728 1147.54 627.332Z" fill="#0626A9"/>
<path d="M1147.54 627.332C1147.54 629.936 1145.43 632.047 1142.83 632.047C1140.22 632.047 1138.11 629.936 1138.11 627.332C1138.11 624.728 1140.22 622.617 1142.83 622.617C1145.43 622.617 1147.54 624.728 1147.54 627.332Z" stroke="#0626A9" stroke-width="2" stroke-linecap="round" stroke-linejoin="round"/>
<path d="M1269.65 711.4V650.684H1321.74" stroke="#0626A9" stroke-width="2" stroke-linecap="round" stroke-linejoin="round"/>
<path d="M1290.13 593.382V620.866" stroke="#0626A9" stroke-width="2" stroke-linecap="round" stroke-linejoin="round"/>
<path d="M1294.84 625.581C1294.84 628.185 1292.73 630.296 1290.13 630.296C1287.52 630.296 1285.41 628.185 1285.41 625.581C1285.41 622.977 1287.52 620.866 1290.13 620.866C1292.73 620.866 1294.84 622.977 1294.84 625.581Z" fill="#0626A9"/>
<path d="M1294.84 625.581C1294.84 628.185 1292.73 630.296 1290.13 630.296C1287.52 630.296 1285.41 628.185 1285.41 625.581C1285.41 622.977 1287.52 620.866 1290.13 620.866C1292.73 620.866 1294.84 622.977 1294.84 625.581Z" stroke="#0626A9" stroke-width="2" stroke-linecap="round" stroke-linejoin="round"/>
<path d="M1212.17 652.391V681.043H1248.09" stroke="#0626A9" stroke-width="2" stroke-linecap="round" stroke-linejoin="round"/>
<path d="M1216.88 650.685C1216.88 653.289 1214.77 655.4 1212.17 655.4C1209.56 655.4 1207.45 653.289 1207.45 650.685C1207.45 648.081 1209.56 645.97 1212.17 645.97C1214.77 645.97 1216.88 648.081 1216.88 650.685Z" fill="#0626A9"/>
<path d="M1216.88 650.685C1216.88 653.289 1214.77 655.4 1212.17 655.4C1209.56 655.4 1207.45 653.289 1207.45 650.685C1207.45 648.081 1209.56 645.97 1212.17 645.97C1214.77 645.97 1216.88 648.081 1216.88 650.685Z" stroke="#0626A9" stroke-width="2" stroke-linecap="round" stroke-linejoin="round"/>
<path d="M1144.99 656.792V684.096H1094.33" stroke="#0626A9" stroke-width="2" stroke-linecap="round" stroke-linejoin="round"/>
<path d="M1099.04 684.096C1099.04 686.7 1096.93 688.811 1094.33 688.811C1091.72 688.811 1089.61 686.7 1089.61 684.096C1089.61 681.492 1091.72 679.381 1094.33 679.381C1096.93 679.381 1099.04 681.492 1099.04 684.096Z" fill="#0626A9"/>
<path d="M1099.04 684.096C1099.04 686.7 1096.93 688.811 1094.33 688.811C1091.72 688.811 1089.61 686.7 1089.61 684.096C1089.61 681.492 1091.72 679.381 1094.33 679.381C1096.93 679.381 1099.04 681.492 1099.04 684.096Z" stroke="#0626A9" stroke-width="2" stroke-linecap="round" stroke-linejoin="round"/>
</g>
<mask id="mask8_18_2223" style="mask-type:luminance" maskUnits="userSpaceOnUse" x="0" y="-175" width="1600" height="1600">
<path d="M0 -175H1600V1425H0V-175Z" fill="white"/>
</mask>
<g mask="url(#mask8_18_2223)">
<path d="M956.743 565.272H643.113V420.11H956.743V565.272Z" fill="#84AAE4"/>
<path d="M956.743 565.272H643.113V420.11H956.743V565.272Z" stroke="#0626A9" stroke-width="2.46" stroke-linecap="round" stroke-linejoin="round"/>
<path d="M763.636 498.104H709.725V420.11" stroke="#0626A9" stroke-width="2.46" stroke-linecap="round" stroke-linejoin="round"/>
<path d="M769.435 498.104C769.435 501.307 766.839 503.903 763.636 503.903C760.433 503.903 757.836 501.307 757.836 498.104C757.836 494.901 760.433 492.305 763.636 492.305C766.839 492.305 769.435 494.901 769.435 498.104Z" fill="#0626A9"/>
<path d="M769.435 498.104C769.435 501.307 766.839 503.903 763.636 503.903C760.433 503.903 757.836 501.307 757.836 498.104C757.836 494.901 760.433 492.305 763.636 492.305C766.839 492.305 769.435 494.901 769.435 498.104Z" stroke="#0626A9" stroke-width="2.46" stroke-linecap="round" stroke-linejoin="round"/>
<path d="M741.982 461.868H866.156V565.272" stroke="#0626A9" stroke-width="2.46" stroke-linecap="round" stroke-linejoin="round"/>
<path d="M742.479 461.869C742.479 465.072 739.883 467.668 736.68 467.668C733.477 467.668 730.88 465.072 730.88 461.869C730.88 458.666 733.477 456.07 736.68 456.07C739.883 456.07 742.479 458.666 742.479 461.869Z" fill="#0626A9"/>
<path d="M742.479 461.869C742.479 465.072 739.883 467.668 736.68 467.668C733.477 467.668 730.88 465.072 730.88 461.869C730.88 458.666 733.477 456.07 736.68 456.07C739.883 456.07 742.479 458.666 742.479 461.869Z" stroke="#0626A9" stroke-width="2.46" stroke-linecap="round" stroke-linejoin="round"/>
<path d="M892.668 565.272V490.592H956.744" stroke="#0626A9" stroke-width="2.46" stroke-linecap="round" stroke-linejoin="round"/>
<path d="M917.857 420.109V453.915" stroke="#0626A9" stroke-width="2.46" stroke-linecap="round" stroke-linejoin="round"/>
<path d="M923.657 459.715C923.657 462.918 921.06 465.514 917.857 465.514C914.654 465.514 912.058 462.918 912.058 459.715C912.058 456.512 914.654 453.916 917.857 453.916C921.06 453.916 923.657 456.512 923.657 459.715Z" fill="#0626A9"/>
<path d="M923.657 459.715C923.657 462.918 921.06 465.514 917.857 465.514C914.654 465.514 912.058 462.918 912.058 459.715C912.058 456.512 914.654 453.916 917.857 453.916C921.06 453.916 923.657 456.512 923.657 459.715Z" stroke="#0626A9" stroke-width="2.46" stroke-linecap="round" stroke-linejoin="round"/>
<path d="M821.965 492.69V527.932H866.154" stroke="#0626A9" stroke-width="2.46" stroke-linecap="round" stroke-linejoin="round"/>
<path d="M827.765 490.592C827.765 493.795 825.169 496.391 821.966 496.391C818.763 496.391 816.167 493.795 816.167 490.592C816.167 487.389 818.763 484.793 821.966 484.793C825.169 484.793 827.765 487.389 827.765 490.592Z" fill="#0626A9"/>
<path d="M827.765 490.592C827.765 493.795 825.169 496.391 821.966 496.391C818.763 496.391 816.167 493.795 816.167 490.592C816.167 487.389 818.763 484.793 821.966 484.793C825.169 484.793 827.765 487.389 827.765 490.592Z" stroke="#0626A9" stroke-width="2.46" stroke-linecap="round" stroke-linejoin="round"/>
<path d="M739.331 498.104V531.688H677.024" stroke="#0626A9" stroke-width="2.46" stroke-linecap="round" stroke-linejoin="round"/>
<path d="M682.824 531.688C682.824 534.891 680.227 537.487 677.024 537.487C673.821 537.487 671.225 534.891 671.225 531.688C671.225 528.485 673.821 525.889 677.024 525.889C680.227 525.889 682.824 528.485 682.824 531.688Z" fill="#0626A9"/>
<path d="M682.824 531.688C682.824 534.891 680.227 537.487 677.024 537.487C673.821 537.487 671.225 534.891 671.225 531.688C671.225 528.485 673.821 525.889 677.024 525.889C680.227 525.889 682.824 528.485 682.824 531.688Z" stroke="#0626A9" stroke-width="2.46" stroke-linecap="round" stroke-linejoin="round"/>
</g>
<mask id="mask9_18_2223" style="mask-type:luminance" maskUnits="userSpaceOnUse" x="0" y="-175" width="1600" height="1600">
<path d="M0 -175H1600V1425H0V-175Z" fill="white"/>
</mask>
<g mask="url(#mask9_18_2223)">
<path d="M530.808 710.672H280.924V595.014H530.808V710.672Z" fill="#84AAE4"/>
<path d="M530.808 710.672H280.924V595.014H530.808V710.672Z" stroke="#0626A9" stroke-width="1.96" stroke-linecap="round" stroke-linejoin="round"/>
<path d="M376.95 657.156H333.997V595.014" stroke="#0626A9" stroke-width="1.96" stroke-linecap="round" stroke-linejoin="round"/>
<path d="M381.57 657.156C381.57 659.708 379.501 661.777 376.949 661.777C374.397 661.777 372.329 659.708 372.329 657.156C372.329 654.604 374.397 652.535 376.949 652.535C379.501 652.535 381.57 654.604 381.57 657.156Z" fill="#0626A9"/>
<path d="M381.57 657.156C381.57 659.708 379.501 661.777 376.949 661.777C374.397 661.777 372.329 659.708 372.329 657.156C372.329 654.604 374.397 652.535 376.949 652.535C379.501 652.535 381.57 654.604 381.57 657.156Z" stroke="#0626A9" stroke-width="1.96" stroke-linecap="round" stroke-linejoin="round"/>
<path d="M359.698 628.286H458.633V710.672" stroke="#0626A9" stroke-width="1.96" stroke-linecap="round" stroke-linejoin="round"/>
<path d="M360.094 628.286C360.094 630.838 358.025 632.907 355.473 632.907C352.921 632.907 350.853 630.838 350.853 628.286C350.853 625.734 352.921 623.665 355.473 623.665C358.025 623.665 360.094 625.734 360.094 628.286Z" fill="#0626A9"/>
<path d="M360.094 628.286C360.094 630.838 358.025 632.907 355.473 632.907C352.921 632.907 350.853 630.838 350.853 628.286C350.853 625.734 352.921 623.665 355.473 623.665C358.025 623.665 360.094 625.734 360.094 628.286Z" stroke="#0626A9" stroke-width="1.96" stroke-linecap="round" stroke-linejoin="round"/>
<path d="M479.756 710.672V651.17H530.808" stroke="#0626A9" stroke-width="1.96" stroke-linecap="round" stroke-linejoin="round"/>
<path d="M499.825 595.014V621.948" stroke="#0626A9" stroke-width="1.96" stroke-linecap="round" stroke-linejoin="round"/>
<path d="M504.446 626.569C504.446 629.121 502.377 631.19 499.825 631.19C497.273 631.19 495.205 629.121 495.205 626.569C495.205 624.017 497.273 621.948 499.825 621.948C502.377 621.948 504.446 624.017 504.446 626.569Z" fill="#0626A9"/>
<path d="M504.446 626.569C504.446 629.121 502.377 631.19 499.825 631.19C497.273 631.19 495.205 629.121 495.205 626.569C495.205 624.017 497.273 621.948 499.825 621.948C502.377 621.948 504.446 624.017 504.446 626.569Z" stroke="#0626A9" stroke-width="1.96" stroke-linecap="round" stroke-linejoin="round"/>
<path d="M423.424 652.843V680.921H458.632" stroke="#0626A9" stroke-width="1.96" stroke-linecap="round" stroke-linejoin="round"/>
<path d="M428.045 651.171C428.045 653.723 425.976 655.792 423.424 655.792C420.872 655.792 418.803 653.723 418.803 651.171C418.803 648.619 420.872 646.55 423.424 646.55C425.976 646.55 428.045 648.619 428.045 651.171Z" fill="#0626A9"/>
<path d="M428.045 651.171C428.045 653.723 425.976 655.792 423.424 655.792C420.872 655.792 418.803 653.723 418.803 651.171C418.803 648.619 420.872 646.55 423.424 646.55C425.976 646.55 428.045 648.619 428.045 651.171Z" stroke="#0626A9" stroke-width="1.96" stroke-linecap="round" stroke-linejoin="round"/>
<path d="M357.586 657.156V683.914H307.943" stroke="#0626A9" stroke-width="1.96" stroke-linecap="round" stroke-linejoin="round"/>
<path d="M312.563 683.914C312.563 686.466 310.494 688.535 307.942 688.535C305.39 688.535 303.321 686.466 303.321 683.914C303.321 681.362 305.39 679.293 307.942 679.293C310.494 679.293 312.563 681.362 312.563 683.914Z" fill="#0626A9"/>
<path d="M312.563 683.914C312.563 686.466 310.494 688.535 307.942 688.535C305.39 688.535 303.321 686.466 303.321 683.914C303.321 681.362 305.39 679.293 307.942 679.293C310.494 679.293 312.563 681.362 312.563 683.914Z" stroke="#0626A9" stroke-width="1.96" stroke-linecap="round" stroke-linejoin="round"/>
</g>
<mask id="mask10_18_2223" style="mask-type:luminance" maskUnits="userSpaceOnUse" x="0" y="-175" width="1600" height="1600">
<path d="M0 -175H1600V1425H0V-175Z" fill="white"/>
</mask>
<g mask="url(#mask10_18_2223)">
<path d="M1384.75 711.25L215.938 711.438L254.375 770H1345L1384.75 711.25Z" fill="white"/>
<path d="M1384.12 711.4H807.101L807.077 536.594L807.101 536.296C810.177 534.065 812.185 530.452 812.185 526.362C812.185 519.582 806.689 514.086 799.909 514.086C793.129 514.086 787.633 519.582 787.633 526.362C787.633 530.452 789.641 534.065 792.717 536.296L792.699 536.653L792.717 711.4H215.699" fill="white"/>
<path d="M1384.12 711.4H807.101L807.077 536.594L807.101 536.296C810.177 534.065 812.185 530.452 812.185 526.362C812.185 519.582 806.689 514.086 799.909 514.086C793.129 514.086 787.633 519.582 787.633 526.362C787.633 530.452 789.641 534.065 792.717 536.296L792.699 536.653L792.717 711.4H215.699" stroke="#0626A9" stroke-width="2" stroke-linecap="round" stroke-linejoin="round"/>
<path d="M254.794 769.821H1344.8" stroke="#0626A9" stroke-width="2" stroke-linecap="round" stroke-linejoin="round"/>
</g>
</g>
</g>
<defs>
<clipPath id="clip0_18_2223">
<rect width="1600" height="1600" fill="white"/>
</clipPath>
</defs>
</svg>
