<svg width="1600" height="1600" viewBox="0 0 1600 1600" fill="none" xmlns="http://www.w3.org/2000/svg">
<g clip-path="url(#clip0_1_18382)">
<mask id="mask0_1_18382" style="mask-type:luminance" maskUnits="userSpaceOnUse" x="0" y="0" width="1600" height="1600">
<path d="M1600 0H0V1600H1600V0Z" fill="white"/>
</mask>
<g mask="url(#mask0_1_18382)">
<path d="M123.58 463.036H1453.35V1090.1H123.58V463.036Z" fill="white"/>
<path d="M123.58 463.036H1453.35V1090.1H123.58V463.036Z" stroke="#202870" stroke-width="2" stroke-linecap="round" stroke-linejoin="round"/>
<mask id="mask1_1_18382" style="mask-type:luminance" maskUnits="userSpaceOnUse" x="0" y="228" width="1600" height="1600">
<path d="M0 228H1600V1828H0V228Z" fill="white"/>
</mask>
<g mask="url(#mask1_1_18382)">
<path d="M182.134 527.887H353.596V708.969H182.134V527.887Z" fill="white"/>
<path d="M182.134 527.887H353.596V708.969H182.134V527.887Z" stroke="#202870" stroke-width="2" stroke-linecap="round" stroke-linejoin="round"/>
<path d="M170.995 618.428H248.519L277.441 651.388H362.654L364.735 763.922H170.995V618.428Z" fill="#8869D5"/>
<path d="M170.995 618.428H248.519L277.441 651.388H362.654L364.735 763.922H170.995V618.428Z" stroke="#8869D5" stroke-width="2" stroke-linecap="round" stroke-linejoin="round"/>
<path d="M311.252 706.462C311.252 728.218 293.615 745.855 271.859 745.855C250.103 745.855 232.466 728.218 232.466 706.462C232.466 684.706 250.103 667.069 271.859 667.069C293.615 667.069 311.252 684.706 311.252 706.462Z" fill="white"/>
<path d="M267.865 564.052H208.959" stroke="#202870" stroke-width="2" stroke-linecap="round" stroke-linejoin="round"/>
<path d="M305.47 582.435H208.96" stroke="#202870" stroke-width="2" stroke-linecap="round" stroke-linejoin="round"/>
<path d="M249.125 704.688L264.438 720.188L294.438 689.938" stroke="#8869D5" stroke-width="8"/>
</g>
<mask id="mask2_1_18382" style="mask-type:luminance" maskUnits="userSpaceOnUse" x="0" y="488" width="1600" height="1600">
<path d="M0 488H1600V2088H0V488Z" fill="white"/>
</mask>
<g mask="url(#mask2_1_18382)">
<path d="M182.134 787.887H353.596V968.969H182.134V787.887Z" fill="white"/>
<path d="M182.134 787.887H353.596V968.969H182.134V787.887Z" stroke="#202870" stroke-width="2" stroke-linecap="round" stroke-linejoin="round"/>
<path d="M170.995 878.428H248.519L277.441 911.388H362.654L364.735 1023.92H170.995V878.428Z" fill="#8869D5"/>
<path d="M170.995 878.428H248.519L277.441 911.388H362.654L364.735 1023.92H170.995V878.428Z" stroke="#8869D5" stroke-width="2" stroke-linecap="round" stroke-linejoin="round"/>
<path d="M311.252 966.462C311.252 988.218 293.615 1005.85 271.859 1005.85C250.103 1005.85 232.466 988.218 232.466 966.462C232.466 944.706 250.103 927.069 271.859 927.069C293.615 927.069 311.252 944.706 311.252 966.462Z" fill="white"/>
<path d="M267.865 824.052H208.959" stroke="#202870" stroke-width="2" stroke-linecap="round" stroke-linejoin="round"/>
<path d="M305.47 842.435H208.96" stroke="#202870" stroke-width="2" stroke-linecap="round" stroke-linejoin="round"/>
<path d="M249.125 964.688L264.438 980.188L294.438 949.938" stroke="#8869D5" stroke-width="8"/>
</g>
<path d="M691.003 1025.25H416.835V527.887H691.003V1025.25Z" fill="white"/>
<path d="M691.003 1025.25H416.835V527.887H691.003V1025.25Z" stroke="#202870" stroke-width="2" stroke-linecap="round" stroke-linejoin="round"/>
<path d="M664.66 683.681H548.102V553.447H664.66V683.681Z" fill="#84AAE4"/>
<path d="M664.66 683.681H548.102V553.447H664.66V683.681Z" stroke="#202870" stroke-width="2" stroke-linecap="round" stroke-linejoin="round"/>
<mask id="mask3_1_18382" style="mask-type:luminance" maskUnits="userSpaceOnUse" x="0" y="228" width="1600" height="1600">
<path d="M0 228H1600V1828H0V228Z" fill="white"/>
</mask>
<g mask="url(#mask3_1_18382)">
<path d="M1054.55 1025.25H734.022V527.887H1054.55V1025.25Z" fill="white"/>
<path d="M1054.55 1025.25H734.022V527.887H1054.55V1025.25Z" stroke="#202870" stroke-width="2" stroke-linecap="round" stroke-linejoin="round"/>
<path d="M950.685 966.278C950.685 966.278 930.731 1006.25 947.064 990.777C963.397 975.306 984.887 941.636 981.449 953.743C978.011 965.85 966.385 984.424 972.627 985.882C978.869 987.34 990.397 982.927 998.817 968.371C1007.24 953.815 1004.78 914.135 997.212 952.646C988.326 997.852 972.372 1006.43 953.941 1006.43" stroke="#8869D5" stroke-width="2" stroke-linecap="round" stroke-linejoin="round"/>
<path d="M1003.49 853.791H785.087" stroke="#202870" stroke-width="2" stroke-linecap="round" stroke-linejoin="round"/>
<path d="M1003.49 884.159H785.087" stroke="#202870" stroke-width="2" stroke-linecap="round" stroke-linejoin="round"/>
<path d="M1003.49 914.526H785.087" stroke="#202870" stroke-width="2" stroke-linecap="round" stroke-linejoin="round"/>
<path d="M1019.12 688.512C1019.12 742.972 984.242 789.292 935.592 806.342C933.612 807.042 931.612 807.682 929.592 808.282C918.392 811.572 906.542 813.342 894.282 813.342C825.342 813.342 769.452 757.452 769.452 688.512C769.452 619.562 825.342 563.672 894.282 563.672C963.232 563.672 1019.12 619.562 1019.12 688.512Z" fill="#84AAE4"/>
<path d="M1019.12 688.512C1019.12 742.972 984.242 789.292 935.592 806.342C933.612 807.042 931.612 807.682 929.592 808.282C918.392 811.572 906.542 813.342 894.282 813.342C825.342 813.342 769.452 757.452 769.452 688.512C769.452 619.562 825.342 563.672 894.282 563.672C963.232 563.672 1019.12 619.562 1019.12 688.512Z" stroke="#202870" stroke-width="2" stroke-linecap="round" stroke-linejoin="round"/>
<path d="M1019.12 688.512C1019.12 742.972 984.242 789.292 935.592 806.342L894.282 767.152L958.632 628.072L1019.12 688.512Z" fill="#202870"/>
<path d="M894.286 767.148C894.286 767.148 829.946 738.908 829.946 689.81V628.069L893.745 609.872L958.626 628.069V689.81C958.626 732.523 894.286 767.148 894.286 767.148Z" fill="white"/>
<path d="M894.286 767.148C894.286 767.148 829.946 738.908 829.946 689.81V628.069L893.745 609.872L958.626 628.069V689.81C958.626 732.523 894.286 767.148 894.286 767.148Z" stroke="#202870" stroke-width="2" stroke-linecap="round" stroke-linejoin="round"/>
<path d="M894.286 752.085C894.286 752.085 842.27 729.254 842.27 689.561V639.646L893.849 624.935L946.302 639.646V689.561C946.302 724.092 894.286 752.085 894.286 752.085Z" fill="white"/>
<path d="M894.286 752.085C894.286 752.085 842.27 729.254 842.27 689.561V639.646L893.849 624.935L946.302 639.646V689.561C946.302 724.092 894.286 752.085 894.286 752.085Z" stroke="#202870" stroke-width="2" stroke-linecap="round" stroke-linejoin="round"/>
<path d="M885.88 709.287L866.185 689.656L871.122 684.704L885.864 699.398L917.43 667.729L922.383 672.666L885.88 709.287Z" fill="#84AAE4"/>
<path d="M885.88 709.287L866.185 689.656L871.122 684.704L885.864 699.398L917.43 667.729L922.383 672.666L885.88 709.287Z" stroke="#202870" stroke-width="2" stroke-linecap="round" stroke-linejoin="round"/>
</g>
<mask id="mask4_1_18382" style="mask-type:luminance" maskUnits="userSpaceOnUse" x="0" y="228" width="1600" height="1600">
<path d="M0 228H1600V1828H0V228Z" fill="white"/>
</mask>
<g mask="url(#mask4_1_18382)">
<path d="M1405.94 730.827H1085.41V527.887H1405.94V730.827Z" fill="white"/>
<path d="M1405.94 730.827H1085.41V527.887H1405.94V730.827Z" stroke="#202870" stroke-width="2" stroke-linecap="round" stroke-linejoin="round"/>
<path d="M1381.1 618.565H1110.25V552.793H1381.1V618.565Z" fill="#8869D5"/>
<path d="M1381.1 618.565H1110.25V552.793H1381.1V618.565Z" stroke="#8869D5" stroke-width="2" stroke-linecap="round" stroke-linejoin="round"/>
<path d="M1168.35 571.572L1140.13 599.786Z" fill="white"/>
<path d="M1168.35 571.572L1140.13 599.786" stroke="white" stroke-width="2" stroke-linecap="round" stroke-linejoin="round"/>
<path d="M1140.13 571.572L1168.35 599.786Z" fill="white"/>
<path d="M1140.13 571.572L1168.35 599.786" stroke="white" stroke-width="2" stroke-linecap="round" stroke-linejoin="round"/>
<path d="M1229.3 571.572L1201.09 599.786Z" fill="white"/>
<path d="M1229.3 571.572L1201.09 599.786" stroke="white" stroke-width="2" stroke-linecap="round" stroke-linejoin="round"/>
<path d="M1201.09 571.572L1229.3 599.786Z" fill="white"/>
<path d="M1201.09 571.572L1229.3 599.786" stroke="white" stroke-width="2" stroke-linecap="round" stroke-linejoin="round"/>
<path d="M1290.26 571.572L1262.05 599.786Z" fill="white"/>
<path d="M1290.26 571.572L1262.05 599.786" stroke="white" stroke-width="2" stroke-linecap="round" stroke-linejoin="round"/>
<path d="M1262.05 571.572L1290.26 599.786Z" fill="white"/>
<path d="M1262.05 571.572L1290.26 599.786" stroke="white" stroke-width="2" stroke-linecap="round" stroke-linejoin="round"/>
<path d="M1351.22 571.572L1323 599.786Z" fill="white"/>
<path d="M1351.22 571.572L1323 599.786" stroke="white" stroke-width="2" stroke-linecap="round" stroke-linejoin="round"/>
<path d="M1323 571.572L1351.22 599.786Z" fill="white"/>
<path d="M1323 571.572L1351.22 599.786" stroke="white" stroke-width="2" stroke-linecap="round" stroke-linejoin="round"/>
<path d="M1381.1 707.565H1110.25V641.793H1381.1V707.565Z" fill="#8869D5"/>
<path d="M1381.1 707.565H1110.25V641.793H1381.1V707.565Z" stroke="#8869D5" stroke-width="2" stroke-linecap="round" stroke-linejoin="round"/>
<path d="M1168.35 660.572L1140.13 688.786Z" fill="white"/>
<path d="M1168.35 660.572L1140.13 688.786" stroke="white" stroke-width="2" stroke-linecap="round" stroke-linejoin="round"/>
<path d="M1140.13 660.572L1168.35 688.786Z" fill="white"/>
<path d="M1140.13 660.572L1168.35 688.786" stroke="white" stroke-width="2" stroke-linecap="round" stroke-linejoin="round"/>
<path d="M1229.3 660.572L1201.09 688.786Z" fill="white"/>
<path d="M1229.3 660.572L1201.09 688.786" stroke="white" stroke-width="2" stroke-linecap="round" stroke-linejoin="round"/>
<path d="M1201.09 660.572L1229.3 688.786Z" fill="white"/>
<path d="M1201.09 660.572L1229.3 688.786" stroke="white" stroke-width="2" stroke-linecap="round" stroke-linejoin="round"/>
<path d="M1290.26 660.572L1262.05 688.786Z" fill="white"/>
<path d="M1290.26 660.572L1262.05 688.786" stroke="white" stroke-width="2" stroke-linecap="round" stroke-linejoin="round"/>
<path d="M1262.05 660.572L1290.26 688.786Z" fill="white"/>
<path d="M1262.05 660.572L1290.26 688.786" stroke="white" stroke-width="2" stroke-linecap="round" stroke-linejoin="round"/>
<path d="M1351.22 660.572L1323 688.786Z" fill="white"/>
<path d="M1351.22 660.572L1323 688.786" stroke="white" stroke-width="2" stroke-linecap="round" stroke-linejoin="round"/>
<path d="M1323 660.572L1351.22 688.786Z" fill="white"/>
<path d="M1323 660.572L1351.22 688.786" stroke="white" stroke-width="2" stroke-linecap="round" stroke-linejoin="round"/>
</g>
<mask id="mask5_1_18382" style="mask-type:luminance" maskUnits="userSpaceOnUse" x="0" y="228" width="1600" height="1600">
<path d="M0 228H1600V1828H0V228Z" fill="white"/>
</mask>
<g mask="url(#mask5_1_18382)">
<path d="M1405.94 1025.25H1085.41V754.817H1405.94V1025.25Z" fill="#84AAE4"/>
<path d="M1405.94 1025.25H1085.41V754.817H1405.94V1025.25Z" stroke="#202870" stroke-width="2" stroke-linecap="round" stroke-linejoin="round"/>
<path d="M1209.36 804.002H1122.57" stroke="#202870" stroke-width="2" stroke-linecap="round" stroke-linejoin="round"/>
<path d="M1368.78 853.753H1122.57" stroke="#202870" stroke-width="2" stroke-linecap="round" stroke-linejoin="round"/>
<path d="M1368.78 884.12H1122.57" stroke="#202870" stroke-width="2" stroke-linecap="round" stroke-linejoin="round"/>
<path d="M1368.78 914.487H1122.57" stroke="#202870" stroke-width="2" stroke-linecap="round" stroke-linejoin="round"/>
<path d="M1268.2 945.696H1122.57" stroke="#202870" stroke-width="2" stroke-linecap="round" stroke-linejoin="round"/>
</g>
</g>
</g>
<defs>
<clipPath id="clip0_1_18382">
<rect width="1600" height="1600" fill="white"/>
</clipPath>
</defs>
</svg>
