<svg xmlns="http://www.w3.org/2000/svg" xmlns:xlink="http://www.w3.org/1999/xlink" viewBox="0 0 1600 1600" width="1600" height="1600" preserveAspectRatio="xMidYMid meet" style="width: 100%; height: 100%; transform: translate3d(0px, 0px, 0px); content-visibility: visible;"><defs><clipPath id="__lottie_element_2"><rect width="1600" height="1600" x="0" y="0"></rect></clipPath><g id="__lottie_element_6"><g transform="matrix(1,0,0,1,800,800)" opacity="1" style="display: block;"><g opacity="1" transform="matrix(1,0,0,1,0,0)"><path fill="rgb(132,132,250)" fill-opacity="1" d=" M-417.58099365234375,282.76800537109375 C-417.58099365234375,282.76800537109375 387.947998046875,282.76800537109375 387.947998046875,282.76800537109375 C387.947998046875,282.76800537109375 387.947998046875,-273.5719909667969 387.947998046875,-273.5719909667969 C387.947998046875,-284.6440124511719 378.9729919433594,-293.6189880371094 367.9010009765625,-293.6189880371094 C367.9010009765625,-293.6189880371094 -397.53399658203125,-293.6189880371094 -397.53399658203125,-293.6189880371094 C-408.6059875488281,-293.6189880371094 -417.58099365234375,-284.6440124511719 -417.58099365234375,-273.5719909667969 C-417.58099365234375,-273.5719909667969 -417.58099365234375,282.76800537109375 -417.58099365234375,282.76800537109375z"></path></g></g></g><mask id="__lottie_element_6_1" mask-type="alpha"><use xlink:href="#__lottie_element_6"></use></mask><g id="__lottie_element_21"><g transform="matrix(1,0,0,1,800,800)" opacity="1" style="display: block;"><g opacity="1" transform="matrix(1,0,0,1,0,0)"><path fill="rgb(132,132,250)" fill-opacity="1" d=" M-417.58099365234375,282.76800537109375 C-417.58099365234375,282.76800537109375 387.947998046875,282.76800537109375 387.947998046875,282.76800537109375 C387.947998046875,282.76800537109375 387.947998046875,-273.5719909667969 387.947998046875,-273.5719909667969 C387.947998046875,-284.6440124511719 378.9729919433594,-293.6189880371094 367.9010009765625,-293.6189880371094 C367.9010009765625,-293.6189880371094 -397.53399658203125,-293.6189880371094 -397.53399658203125,-293.6189880371094 C-408.6059875488281,-293.6189880371094 -417.58099365234375,-284.6440124511719 -417.58099365234375,-273.5719909667969 C-417.58099365234375,-273.5719909667969 -417.58099365234375,282.76800537109375 -417.58099365234375,282.76800537109375z"></path></g></g></g><mask id="__lottie_element_21_1" mask-type="alpha"><use xlink:href="#__lottie_element_21"></use></mask></defs><g clip-path="url(#__lottie_element_2)"><g transform="matrix(1,0,0,1,800,767.8150024414062)" opacity="1" style="display: block;"><g opacity="1" transform="matrix(1,0,0,1,0,0)"><path stroke-linecap="round" stroke-linejoin="round" fill-opacity="0" stroke="rgb(32,40,112)" stroke-opacity="1" stroke-width="2" d=" M-539.3300170898438,-33.569000244140625 C-539.3300170898438,-33.569000244140625 -627.81201171875,-33.569000244140625 -627.81201171875,-33.569000244140625 C-627.81201171875,-33.569000244140625 -627.81201171875,-99.88700103759766 -627.81201171875,-99.88700103759766 C-627.81201171875,-99.88700103759766 -539.3300170898438,-99.88700103759766 -539.3300170898438,-99.88700103759766 C-539.3300170898438,-99.88700103759766 -539.3300170898438,-33.569000244140625 -539.3300170898438,-33.569000244140625z"></path></g><g opacity="1" transform="matrix(1,0,0,1,0,0)"><path stroke-linecap="round" stroke-linejoin="round" fill-opacity="0" stroke="rgb(32,40,112)" stroke-opacity="1" stroke-width="2" d=" M-539.3300170898438,32.9370002746582 C-539.3300170898438,32.9370002746582 -627.81201171875,32.9370002746582 -627.81201171875,32.9370002746582 C-627.81201171875,32.9370002746582 -627.81201171875,-33.38199996948242 -627.81201171875,-33.38199996948242 C-627.81201171875,-33.38199996948242 -539.3300170898438,-33.38199996948242 -539.3300170898438,-33.38199996948242 C-539.3300170898438,-33.38199996948242 -539.3300170898438,32.9370002746582 -539.3300170898438,32.9370002746582z"></path></g><g opacity="1" transform="matrix(1,0,0,1,0,0)"><path stroke-linecap="round" stroke-linejoin="round" fill-opacity="0" stroke="rgb(32,40,112)" stroke-opacity="1" stroke-width="2" d=" M-539.3300170898438,99.25599670410156 C-539.3300170898438,99.25599670410156 -627.81201171875,99.25599670410156 -627.81201171875,99.25599670410156 C-627.81201171875,99.25599670410156 -627.81201171875,32.9370002746582 -627.81201171875,32.9370002746582 C-627.81201171875,32.9370002746582 -539.3300170898438,32.9370002746582 -539.3300170898438,32.9370002746582 C-539.3300170898438,32.9370002746582 -539.3300170898438,99.25599670410156 -539.3300170898438,99.25599670410156z"></path></g><g opacity="1" transform="matrix(1,0,0,1,0,0)"><path stroke-linecap="round" stroke-linejoin="round" fill-opacity="0" stroke="rgb(32,40,112)" stroke-opacity="1" stroke-width="2" d=" M-539.3300170898438,165.57400512695312 C-539.3300170898438,165.57400512695312 -627.81201171875,165.57400512695312 -627.81201171875,165.57400512695312 C-627.81201171875,165.57400512695312 -627.81201171875,99.25599670410156 -627.81201171875,99.25599670410156 C-627.81201171875,99.25599670410156 -539.3300170898438,99.25599670410156 -539.3300170898438,99.25599670410156 C-539.3300170898438,99.25599670410156 -539.3300170898438,165.57400512695312 -539.3300170898438,165.57400512695312z"></path></g><g opacity="1" transform="matrix(1,0,0,1,0,0)"><path stroke-linecap="round" stroke-linejoin="round" fill-opacity="0" stroke="rgb(32,40,112)" stroke-opacity="1" stroke-width="2" d=" M-450.8489990234375,-33.569000244140625 C-450.8489990234375,-33.569000244140625 -539.3300170898438,-33.569000244140625 -539.3300170898438,-33.569000244140625 C-539.3300170898438,-33.569000244140625 -539.3300170898438,-99.88700103759766 -539.3300170898438,-99.88700103759766 C-539.3300170898438,-99.88700103759766 -450.8489990234375,-99.88700103759766 -450.8489990234375,-99.88700103759766 C-450.8489990234375,-99.88700103759766 -450.8489990234375,-33.569000244140625 -450.8489990234375,-33.569000244140625z"></path></g><g opacity="1" transform="matrix(1,0,0,1,0,0)"><path stroke-linecap="round" stroke-linejoin="round" fill-opacity="0" stroke="rgb(32,40,112)" stroke-opacity="1" stroke-width="2" d=" M-450.8489990234375,32.9370002746582 C-450.8489990234375,32.9370002746582 -539.3300170898438,32.9370002746582 -539.3300170898438,32.9370002746582 C-539.3300170898438,32.9370002746582 -539.3300170898438,-33.38199996948242 -539.3300170898438,-33.38199996948242 C-539.3300170898438,-33.38199996948242 -450.8489990234375,-33.38199996948242 -450.8489990234375,-33.38199996948242 C-450.8489990234375,-33.38199996948242 -450.8489990234375,32.9370002746582 -450.8489990234375,32.9370002746582z"></path></g><g opacity="1" transform="matrix(1,0,0,1,0,0)"><path stroke-linecap="round" stroke-linejoin="round" fill-opacity="0" stroke="rgb(32,40,112)" stroke-opacity="1" stroke-width="2" d=" M-450.8489990234375,99.25599670410156 C-450.8489990234375,99.25599670410156 -539.3300170898438,99.25599670410156 -539.3300170898438,99.25599670410156 C-539.3300170898438,99.25599670410156 -539.3300170898438,32.9370002746582 -539.3300170898438,32.9370002746582 C-539.3300170898438,32.9370002746582 -450.8489990234375,32.9370002746582 -450.8489990234375,32.9370002746582 C-450.8489990234375,32.9370002746582 -450.8489990234375,99.25599670410156 -450.8489990234375,99.25599670410156z"></path></g><g opacity="1" transform="matrix(1,0,0,1,0,0)"><path stroke-linecap="round" stroke-linejoin="round" fill-opacity="0" stroke="rgb(32,40,112)" stroke-opacity="1" stroke-width="2" d=" M-450.8489990234375,165.57400512695312 C-450.8489990234375,165.57400512695312 -539.3300170898438,165.57400512695312 -539.3300170898438,165.57400512695312 C-539.3300170898438,165.57400512695312 -539.3300170898438,99.25599670410156 -539.3300170898438,99.25599670410156 C-539.3300170898438,99.25599670410156 -450.8489990234375,99.25599670410156 -450.8489990234375,99.25599670410156 C-450.8489990234375,99.25599670410156 -450.8489990234375,165.57400512695312 -450.8489990234375,165.57400512695312z"></path></g><g opacity="1" transform="matrix(1,0,0,1,0,0)"><path stroke-linecap="round" stroke-linejoin="round" fill-opacity="0" stroke="rgb(32,40,112)" stroke-opacity="1" stroke-width="2" d=" M-362.36700439453125,-33.569000244140625 C-362.36700439453125,-33.569000244140625 -450.8489990234375,-33.569000244140625 -450.8489990234375,-33.569000244140625 C-450.8489990234375,-33.569000244140625 -450.8489990234375,-99.88700103759766 -450.8489990234375,-99.88700103759766 C-450.8489990234375,-99.88700103759766 -362.36700439453125,-99.88700103759766 -362.36700439453125,-99.88700103759766 C-362.36700439453125,-99.88700103759766 -362.36700439453125,-33.569000244140625 -362.36700439453125,-33.569000244140625z"></path></g><g opacity="1" transform="matrix(1,0,0,1,0,0)"><path stroke-linecap="round" stroke-linejoin="round" fill-opacity="0" stroke="rgb(32,40,112)" stroke-opacity="1" stroke-width="2" d=" M-362.36700439453125,32.9370002746582 C-362.36700439453125,32.9370002746582 -450.8489990234375,32.9370002746582 -450.8489990234375,32.9370002746582 C-450.8489990234375,32.9370002746582 -450.8489990234375,-33.38199996948242 -450.8489990234375,-33.38199996948242 C-450.8489990234375,-33.38199996948242 -362.36700439453125,-33.38199996948242 -362.36700439453125,-33.38199996948242 C-362.36700439453125,-33.38199996948242 -362.36700439453125,32.9370002746582 -362.36700439453125,32.9370002746582z"></path></g><g opacity="1" transform="matrix(1,0,0,1,0,0)"><path stroke-linecap="round" stroke-linejoin="round" fill-opacity="0" stroke="rgb(32,40,112)" stroke-opacity="1" stroke-width="2" d=" M-362.36700439453125,99.25599670410156 C-362.36700439453125,99.25599670410156 -450.8489990234375,99.25599670410156 -450.8489990234375,99.25599670410156 C-450.8489990234375,99.25599670410156 -450.8489990234375,32.9370002746582 -450.8489990234375,32.9370002746582 C-450.8489990234375,32.9370002746582 -362.36700439453125,32.9370002746582 -362.36700439453125,32.9370002746582 C-362.36700439453125,32.9370002746582 -362.36700439453125,99.25599670410156 -362.36700439453125,99.25599670410156z"></path></g><g opacity="1" transform="matrix(1,0,0,1,0,0)"><path stroke-linecap="round" stroke-linejoin="round" fill-opacity="0" stroke="rgb(32,40,112)" stroke-opacity="1" stroke-width="2" d=" M-362.36700439453125,165.57400512695312 C-362.36700439453125,165.57400512695312 -450.8489990234375,165.57400512695312 -450.8489990234375,165.57400512695312 C-450.8489990234375,165.57400512695312 -450.8489990234375,99.25599670410156 -450.8489990234375,99.25599670410156 C-450.8489990234375,99.25599670410156 -362.36700439453125,99.25599670410156 -362.36700439453125,99.25599670410156 C-362.36700439453125,99.25599670410156 -362.36700439453125,165.57400512695312 -362.36700439453125,165.57400512695312z"></path></g></g><g transform="matrix(1,0,0,1,800,800)" opacity="1" style="display: block;"><g opacity="1" transform="matrix(1,0,0,1,0,0)"><path stroke-linecap="round" stroke-linejoin="round" fill-opacity="0" stroke="rgb(32,40,112)" stroke-opacity="1" stroke-width="2" d=" M481.23699951171875,-404.5820007324219 C481.23699951171875,-404.5820007324219 322.1340026855469,-404.5820007324219 322.1340026855469,-404.5820007324219 C322.1340026855469,-404.5820007324219 322.1340026855469,-563.6849975585938 322.1340026855469,-563.6849975585938 C322.1340026855469,-563.6849975585938 481.23699951171875,-563.6849975585938 481.23699951171875,-563.6849975585938 C481.23699951171875,-563.6849975585938 481.23699951171875,-404.5820007324219 481.23699951171875,-404.5820007324219z"></path></g><g opacity="1" transform="matrix(1,0,0,1,0,0)"><path fill="rgb(132,132,250)" fill-opacity="1" d=" M408.7229919433594,-530.1859741210938"></path><path stroke-linecap="round" stroke-linejoin="round" fill-opacity="0" stroke="rgb(32,40,112)" stroke-opacity="1" stroke-width="2" d=" M408.7229919433594,-530.1859741210938"></path></g><g opacity="1" transform="matrix(1,0,0,1,0,0)"><path fill="rgb(132,132,250)" fill-opacity="1" d=" M395.2090148925781,-529.5369873046875"></path><path stroke-linecap="round" stroke-linejoin="round" fill-opacity="0" stroke="rgb(32,40,112)" stroke-opacity="1" stroke-width="2" d=" M395.2090148925781,-529.5369873046875"></path></g><g opacity="1" transform="matrix(1,0,0,1,0,0)"><g opacity="1" transform="matrix(1,0,0,1,0,0)"><path fill="rgb(132,132,250)" fill-opacity="1" d=" M418.6549987792969,-443.9670104980469 C418.6549987792969,-434.5950012207031 411.0580139160156,-426.99798583984375 401.6860046386719,-426.99798583984375 C392.3139953613281,-426.99798583984375 384.7170104980469,-434.5950012207031 384.7170104980469,-443.9670104980469 C384.7170104980469,-453.3389892578125 392.3139953613281,-460.9360046386719 401.6860046386719,-460.9360046386719 C411.0580139160156,-460.9360046386719 418.6549987792969,-453.3389892578125 418.6549987792969,-443.9670104980469z"></path><path stroke-linecap="round" stroke-linejoin="round" fill-opacity="0" stroke="rgb(32,40,112)" stroke-opacity="1" stroke-width="2" d=" M418.6549987792969,-443.9670104980469 C418.6549987792969,-434.5950012207031 411.0580139160156,-426.99798583984375 401.6860046386719,-426.99798583984375 C392.3139953613281,-426.99798583984375 384.7170104980469,-434.5950012207031 384.7170104980469,-443.9670104980469 C384.7170104980469,-453.3389892578125 392.3139953613281,-460.9360046386719 401.6860046386719,-460.9360046386719 C411.0580139160156,-460.9360046386719 418.6549987792969,-453.3389892578125 418.6549987792969,-443.9670104980469z"></path></g><g opacity="1" transform="matrix(1,0,0,1,0,0)"><g opacity="1" transform="matrix(1,0,0,1,0,0)"><path fill="rgb(132,132,250)" fill-opacity="1" d=" M434.07598876953125,-480.8559875488281 C434.07598876953125,-467.010009765625 443.6730041503906,-455.4119873046875 456.57501220703125,-452.33099365234375 C456.57501220703125,-452.33099365234375 456.57501220703125,-443.9670104980469 456.57501220703125,-443.9670104980469 C456.57501220703125,-443.9670104980469 346.7969970703125,-443.9670104980469 346.7969970703125,-443.9670104980469 C346.7969970703125,-443.9670104980469 346.7969970703125,-452.33099365234375 346.7969970703125,-452.33099365234375 C359.6990051269531,-455.4119873046875 369.2950134277344,-467.010009765625 369.2950134277344,-480.8559875488281 C369.2950134277344,-480.8559875488281 369.2950134277344,-480.8559875488281 369.2950134277344,-480.8559875488281 C369.2950134277344,-480.8559875488281 369.2950134277344,-497.7980041503906 369.2950134277344,-497.7980041503906 C369.2950134277344,-515.68701171875 383.7969970703125,-530.1890258789062 401.6860046386719,-530.1890258789062 C419.57501220703125,-530.1890258789062 434.07598876953125,-515.68701171875 434.07598876953125,-497.7980041503906 C434.07598876953125,-497.7980041503906 434.07598876953125,-480.8559875488281 434.07598876953125,-480.8559875488281 C434.07598876953125,-480.8559875488281 434.07598876953125,-480.8559875488281 434.07598876953125,-480.8559875488281z"></path><path stroke-linecap="round" stroke-linejoin="round" fill-opacity="0" stroke="rgb(32,40,112)" stroke-opacity="1" stroke-width="2" d=" M434.07598876953125,-480.8559875488281 C434.07598876953125,-467.010009765625 443.6730041503906,-455.4119873046875 456.57501220703125,-452.33099365234375 C456.57501220703125,-452.33099365234375 456.57501220703125,-443.9670104980469 456.57501220703125,-443.9670104980469 C456.57501220703125,-443.9670104980469 346.7969970703125,-443.9670104980469 346.7969970703125,-443.9670104980469 C346.7969970703125,-443.9670104980469 346.7969970703125,-452.33099365234375 346.7969970703125,-452.33099365234375 C359.6990051269531,-455.4119873046875 369.2950134277344,-467.010009765625 369.2950134277344,-480.8559875488281 C369.2950134277344,-480.8559875488281 369.2950134277344,-480.8559875488281 369.2950134277344,-480.8559875488281 C369.2950134277344,-480.8559875488281 369.2950134277344,-497.7980041503906 369.2950134277344,-497.7980041503906 C369.2950134277344,-515.68701171875 383.7969970703125,-530.1890258789062 401.6860046386719,-530.1890258789062 C419.57501220703125,-530.1890258789062 434.07598876953125,-515.68701171875 434.07598876953125,-497.7980041503906 C434.07598876953125,-497.7980041503906 434.07598876953125,-480.8559875488281 434.07598876953125,-480.8559875488281 C434.07598876953125,-480.8559875488281 434.07598876953125,-480.8559875488281 434.07598876953125,-480.8559875488281z"></path></g><g opacity="1" transform="matrix(1,0,0,1,0,0)"><path fill="rgb(132,132,250)" fill-opacity="1" d=" M408.7229919433594,-530.1859741210938 C409.9129943847656,-531.7039794921875 410.62298583984375,-533.6170043945312 410.62298583984375,-535.6959838867188 C410.62298583984375,-540.6320190429688 406.62200927734375,-544.6329956054688 401.6860046386719,-544.6329956054688 C396.75,-544.6329956054688 392.74798583984375,-540.6320190429688 392.74798583984375,-535.6959838867188 C392.74798583984375,-533.3090209960938 393.6839904785156,-531.1400146484375 395.2090148925781,-529.5369873046875"></path><path stroke-linecap="round" stroke-linejoin="round" fill-opacity="0" stroke="rgb(32,40,112)" stroke-opacity="1" stroke-width="2" d=" M408.7229919433594,-530.1859741210938 C409.9129943847656,-531.7039794921875 410.62298583984375,-533.6170043945312 410.62298583984375,-535.6959838867188 C410.62298583984375,-540.6320190429688 406.62200927734375,-544.6329956054688 401.6860046386719,-544.6329956054688 C396.75,-544.6329956054688 392.74798583984375,-540.6320190429688 392.74798583984375,-535.6959838867188 C392.74798583984375,-533.3090209960938 393.6839904785156,-531.1400146484375 395.2090148925781,-529.5369873046875"></path></g></g></g></g><g transform="matrix(1,0,0,1,800,800)" opacity="1" style="display: block;"><g opacity="1" transform="matrix(1,0,0,1,0,0)"><path stroke-linecap="round" stroke-linejoin="round" fill-opacity="0" stroke="rgb(32,40,112)" stroke-opacity="1" stroke-width="2" d=" M481.23699951171875,-218.86000061035156 C481.23699951171875,-218.86000061035156 322.1340026855469,-218.86000061035156 322.1340026855469,-218.86000061035156 C322.1340026855469,-218.86000061035156 322.1340026855469,-377.9630126953125 322.1340026855469,-377.9630126953125 C322.1340026855469,-377.9630126953125 481.23699951171875,-377.9630126953125 481.23699951171875,-377.9630126953125 C481.23699951171875,-377.9630126953125 481.23699951171875,-218.86000061035156 481.23699951171875,-218.86000061035156z"></path></g><g opacity="1" transform="matrix(1,0,0,1,0,0)"><g opacity="1" transform="matrix(1,0,0,1,0,0)"><path stroke-linecap="round" stroke-linejoin="round" fill-opacity="0" stroke="rgb(32,40,112)" stroke-opacity="1" stroke-width="2" d=" M456.57501220703125,-298.4119873046875 C456.57501220703125,-328.72601318359375 432,-353.29998779296875 401.6860046386719,-353.29998779296875 C371.37200927734375,-353.29998779296875 346.7969970703125,-328.72601318359375 346.7969970703125,-298.4119873046875 C346.7969970703125,-268.0979919433594 371.37200927734375,-243.5229949951172 401.6860046386719,-243.5229949951172 C432,-243.5229949951172 456.57501220703125,-268.0979919433594 456.57501220703125,-298.4119873046875z"></path></g><g opacity="1" transform="matrix(1,0,0,1,0,0)"><path stroke-linecap="round" stroke-linejoin="round" fill-opacity="0" stroke="rgb(32,40,112)" stroke-opacity="1" stroke-width="2" d=" M401.6860046386719,-298.4119873046875 C401.6860046386719,-298.4119873046875 401.6860046386719,-340.77801513671875 401.6860046386719,-340.77801513671875"></path></g><g opacity="1" transform="matrix(1,0,0,1,0,0)"><path stroke-linecap="round" stroke-linejoin="round" fill-opacity="0" stroke="rgb(32,40,112)" stroke-opacity="1" stroke-width="2" d=" M426.77801513671875,-298.4119873046875 C426.77801513671875,-298.4119873046875 401.6860046386719,-298.4119873046875 401.6860046386719,-298.4119873046875"></path></g></g></g><g transform="matrix(1,0,0,1,812.18896484375,804.9859619140625)" opacity="1" style="display: block;"><g opacity="1" transform="matrix(1,0,0,1,0,0)"><path fill="rgb(255,255,255)" fill-opacity="1" d=" M189.8520050048828,-364.91400146484375 C189.8520050048828,-378.43499755859375 178.89199829101562,-389.3949890136719 165.37100219726562,-389.3949890136719 C151.85000610351562,-389.3949890136719 140.88999938964844,-378.43499755859375 140.88999938964844,-364.91400146484375 C140.88999938964844,-351.39300537109375 151.85000610351562,-340.4330139160156 165.37100219726562,-340.4330139160156 C178.89199829101562,-340.4330139160156 189.8520050048828,-351.39300537109375 189.8520050048828,-364.91400146484375z"></path><path stroke-linecap="round" stroke-linejoin="round" fill-opacity="0" stroke="rgb(32,40,112)" stroke-opacity="1" stroke-width="2" d=" M189.8520050048828,-364.91400146484375 C189.8520050048828,-378.43499755859375 178.89199829101562,-389.3949890136719 165.37100219726562,-389.3949890136719 C151.85000610351562,-389.3949890136719 140.88999938964844,-378.43499755859375 140.88999938964844,-364.91400146484375 C140.88999938964844,-351.39300537109375 151.85000610351562,-340.4330139160156 165.37100219726562,-340.4330139160156 C178.89199829101562,-340.4330139160156 189.8520050048828,-351.39300537109375 189.8520050048828,-364.91400146484375z"></path></g></g><g transform="matrix(1,0,0,1,792.2420043945312,807.9949951171875)" opacity="1" style="display: block;"><g opacity="1" transform="matrix(1,0,0,1,0,0)"><path fill="rgb(132,132,250)" fill-opacity="1" d=" M228.44200134277344,-393.6669921875 C228.44200134277344,-399.69500732421875 223.55499267578125,-404.5820007324219 217.52699279785156,-404.5820007324219 C211.49899291992188,-404.5820007324219 206.61099243164062,-399.69500732421875 206.61099243164062,-393.6669921875 C206.61099243164062,-387.6390075683594 211.49899291992188,-382.7510070800781 217.52699279785156,-382.7510070800781 C223.55499267578125,-382.7510070800781 228.44200134277344,-387.6390075683594 228.44200134277344,-393.6669921875z"></path><path stroke-linecap="round" stroke-linejoin="round" fill-opacity="0" stroke="rgb(32,40,112)" stroke-opacity="1" stroke-width="2" d=" M228.44200134277344,-393.6669921875 C228.44200134277344,-399.69500732421875 223.55499267578125,-404.5820007324219 217.52699279785156,-404.5820007324219 C211.49899291992188,-404.5820007324219 206.61099243164062,-399.69500732421875 206.61099243164062,-393.6669921875 C206.61099243164062,-387.6390075683594 211.49899291992188,-382.7510070800781 217.52699279785156,-382.7510070800781 C223.55499267578125,-382.7510070800781 228.44200134277344,-387.6390075683594 228.44200134277344,-393.6669921875z"></path></g></g><g transform="matrix(1,0,0,1,785.8729858398438,793.6589965820312)" opacity="1" style="display: block;"><g opacity="1" transform="matrix(1,0,0,1,0,0)"><path fill="rgb(132,132,250)" fill-opacity="1" d=" M627.3200073242188,-172.33299255371094 C627.3200073242188,-189.968994140625 613.0239868164062,-204.26499938964844 595.3880004882812,-204.26499938964844 C577.7520141601562,-204.26499938964844 563.4559936523438,-189.968994140625 563.4559936523438,-172.33299255371094 C563.4559936523438,-154.69700622558594 577.7520141601562,-140.4010009765625 595.3880004882812,-140.4010009765625 C613.0239868164062,-140.4010009765625 627.3200073242188,-154.69700622558594 627.3200073242188,-172.33299255371094z"></path><path stroke-linecap="round" stroke-linejoin="round" fill-opacity="0" stroke="rgb(32,40,112)" stroke-opacity="1" stroke-width="2" d=" M627.3200073242188,-172.33299255371094 C627.3200073242188,-189.968994140625 613.0239868164062,-204.26499938964844 595.3880004882812,-204.26499938964844 C577.7520141601562,-204.26499938964844 563.4559936523438,-189.968994140625 563.4559936523438,-172.33299255371094 C563.4559936523438,-154.69700622558594 577.7520141601562,-140.4010009765625 595.3880004882812,-140.4010009765625 C613.0239868164062,-140.4010009765625 627.3200073242188,-154.69700622558594 627.3200073242188,-172.33299255371094z"></path></g></g><g transform="matrix(1,0,0,1,822.0340576171875,730.2260131835938)" opacity="1" style="display: block;"><g opacity="1" transform="matrix(1,0,0,1,0,0)"><path fill="rgb(132,132,250)" fill-opacity="1" d=" M675.2130126953125,-99.88700103759766 C675.2130126953125,-105.76300048828125 670.4500122070312,-110.5270004272461 664.573974609375,-110.5270004272461 C658.697998046875,-110.5270004272461 653.9340209960938,-105.76300048828125 653.9340209960938,-99.88700103759766 C653.9340209960938,-94.01100158691406 658.697998046875,-89.24800109863281 664.573974609375,-89.24800109863281 C670.4500122070312,-89.24800109863281 675.2130126953125,-94.01100158691406 675.2130126953125,-99.88700103759766z"></path><path stroke-linecap="round" stroke-linejoin="round" fill-opacity="0" stroke="rgb(32,40,112)" stroke-opacity="1" stroke-width="2" d=" M675.2130126953125,-99.88700103759766 C675.2130126953125,-105.76300048828125 670.4500122070312,-110.5270004272461 664.573974609375,-110.5270004272461 C658.697998046875,-110.5270004272461 653.9340209960938,-105.76300048828125 653.9340209960938,-99.88700103759766 C653.9340209960938,-94.01100158691406 658.697998046875,-89.24800109863281 664.573974609375,-89.24800109863281 C670.4500122070312,-89.24800109863281 675.2130126953125,-94.01100158691406 675.2130126953125,-99.88700103759766z"></path></g></g><g transform="matrix(1,0,0,1,827.156982421875,800.0709838867188)" opacity="1" style="display: block;"><g opacity="1" transform="matrix(1,0,0,1,0,0)"><path fill="rgb(132,132,250)" fill-opacity="1" d=" M703.4240112304688,-179.70899963378906 C703.4240112304688,-183.52999877929688 700.3259887695312,-186.6269989013672 696.5050048828125,-186.6269989013672 C692.6840209960938,-186.6269989013672 689.5869750976562,-183.52999877929688 689.5869750976562,-179.70899963378906 C689.5869750976562,-175.88800048828125 692.6840209960938,-172.7899932861328 696.5050048828125,-172.7899932861328 C700.3259887695312,-172.7899932861328 703.4240112304688,-175.88800048828125 703.4240112304688,-179.70899963378906z"></path><path stroke-linecap="round" stroke-linejoin="round" fill-opacity="0" stroke="rgb(32,40,112)" stroke-opacity="1" stroke-width="2" d=" M703.4240112304688,-179.70899963378906 C703.4240112304688,-183.52999877929688 700.3259887695312,-186.6269989013672 696.5050048828125,-186.6269989013672 C692.6840209960938,-186.6269989013672 689.5869750976562,-183.52999877929688 689.5869750976562,-179.70899963378906 C689.5869750976562,-175.88800048828125 692.6840209960938,-172.7899932861328 696.5050048828125,-172.7899932861328 C700.3259887695312,-172.7899932861328 703.4240112304688,-175.88800048828125 703.4240112304688,-179.70899963378906z"></path></g></g><g transform="matrix(1,0,0,1,759.0079956054688,806.4549560546875)" opacity="1" style="display: block;"><g opacity="1" transform="matrix(1,0,0,1,0,0)"><path fill="rgb(132,132,250)" fill-opacity="1" d=" M-599.593994140625,266.6180114746094 C-599.593994140625,256.8160095214844 -607.541015625,248.86900329589844 -617.343017578125,248.86900329589844 C-627.14501953125,248.86900329589844 -635.0919799804688,256.8160095214844 -635.0919799804688,266.6180114746094 C-635.0919799804688,276.4200134277344 -627.14501953125,284.36700439453125 -617.343017578125,284.36700439453125 C-607.541015625,284.36700439453125 -599.593994140625,276.4200134277344 -599.593994140625,266.6180114746094z"></path><path stroke-linecap="round" stroke-linejoin="round" fill-opacity="0" stroke="rgb(32,40,112)" stroke-opacity="1" stroke-width="2" d=" M-599.593994140625,266.6180114746094 C-599.593994140625,256.8160095214844 -607.541015625,248.86900329589844 -617.343017578125,248.86900329589844 C-627.14501953125,248.86900329589844 -635.0919799804688,256.8160095214844 -635.0919799804688,266.6180114746094 C-635.0919799804688,276.4200134277344 -627.14501953125,284.36700439453125 -617.343017578125,284.36700439453125 C-607.541015625,284.36700439453125 -599.593994140625,276.4200134277344 -599.593994140625,266.6180114746094z"></path></g></g><g transform="matrix(1,0,0,1,748.239013671875,758.8350219726562)" opacity="1" style="display: block;"><g opacity="1" transform="matrix(1,0,0,1,0,0)"><path fill="rgb(255,255,255)" fill-opacity="1" d=" M-654.2890014648438,246.3520050048828 C-654.2890014648438,242.77200317382812 -657.1909790039062,239.86900329589844 -660.77099609375,239.86900329589844 C-664.3510131835938,239.86900329589844 -667.2540283203125,242.77200317382812 -667.2540283203125,246.3520050048828 C-667.2540283203125,249.9320068359375 -664.3510131835938,252.8350067138672 -660.77099609375,252.8350067138672 C-657.1909790039062,252.8350067138672 -654.2890014648438,249.9320068359375 -654.2890014648438,246.3520050048828z"></path><path stroke-linecap="round" stroke-linejoin="round" fill-opacity="0" stroke="rgb(32,40,112)" stroke-opacity="1" stroke-width="2" d=" M-654.2890014648438,246.3520050048828 C-654.2890014648438,242.77200317382812 -657.1909790039062,239.86900329589844 -660.77099609375,239.86900329589844 C-664.3510131835938,239.86900329589844 -667.2540283203125,242.77200317382812 -667.2540283203125,246.3520050048828 C-667.2540283203125,249.9320068359375 -664.3510131835938,252.8350067138672 -660.77099609375,252.8350067138672 C-657.1909790039062,252.8350067138672 -654.2890014648438,249.9320068359375 -654.2890014648438,246.3520050048828z"></path></g></g><g transform="matrix(1,0,0,1,757.3489990234375,726.2950439453125)" opacity="1" style="display: block;"><g opacity="1" transform="matrix(1,0,0,1,0,0)"><path fill="rgb(255,255,255)" fill-opacity="1" d=" M-582.4119873046875,-174.83999633789062 C-582.4119873046875,-180.36700439453125 -586.8920288085938,-184.84800720214844 -592.4190063476562,-184.84800720214844 C-597.9459838867188,-184.84800720214844 -602.426025390625,-180.36700439453125 -602.426025390625,-174.83999633789062 C-602.426025390625,-169.31300354003906 -597.9459838867188,-164.83299255371094 -592.4190063476562,-164.83299255371094 C-586.8920288085938,-164.83299255371094 -582.4119873046875,-169.31300354003906 -582.4119873046875,-174.83999633789062z"></path><path stroke-linecap="round" stroke-linejoin="round" fill-opacity="0" stroke="rgb(32,40,112)" stroke-opacity="1" stroke-width="2" d=" M-582.4119873046875,-174.83999633789062 C-582.4119873046875,-180.36700439453125 -586.8920288085938,-184.84800720214844 -592.4190063476562,-184.84800720214844 C-597.9459838867188,-184.84800720214844 -602.426025390625,-180.36700439453125 -602.426025390625,-174.83999633789062 C-602.426025390625,-169.31300354003906 -597.9459838867188,-164.83299255371094 -592.4190063476562,-164.83299255371094 C-586.8920288085938,-164.83299255371094 -582.4119873046875,-169.31300354003906 -582.4119873046875,-174.83999633789062z"></path></g></g><g transform="matrix(1,0,0,1,800,800)" opacity="1" style="display: block;"><g opacity="1" transform="matrix(1,0,0,1,0,0)"><g opacity="1" transform="matrix(1,0,0,1,0,0)"><path fill="rgb(255,255,255)" fill-opacity="1" d=" M-159.43899536132812,351.85198974609375 C-176.17599487304688,352.0060119628906 -189.6179962158203,365.697998046875 -189.46400451660156,382.43499755859375 C-189.30999755859375,399.1719970703125 -175.6179962158203,412.614013671875 -158.88099670410156,412.4599914550781 C-142.1439971923828,412.3059997558594 -128.70199584960938,398.614013671875 -128.8560028076172,381.87701416015625 C-129.00999450683594,365.1400146484375 -142.70199584960938,351.697998046875 -159.43899536132812,351.85198974609375z"></path><path stroke-linecap="round" stroke-linejoin="round" fill-opacity="0" stroke="rgb(32,40,112)" stroke-opacity="1" stroke-width="2" d=" M-159.43899536132812,351.85198974609375 C-176.17599487304688,352.0060119628906 -189.6179962158203,365.697998046875 -189.46400451660156,382.43499755859375 C-189.30999755859375,399.1719970703125 -175.6179962158203,412.614013671875 -158.88099670410156,412.4599914550781 C-142.1439971923828,412.3059997558594 -128.70199584960938,398.614013671875 -128.8560028076172,381.87701416015625 C-129.00999450683594,365.1400146484375 -142.70199584960938,351.697998046875 -159.43899536132812,351.85198974609375z"></path></g><g opacity="1" transform="matrix(1,0,0,1,0,0)"><path fill="rgb(255,255,255)" fill-opacity="1" d=" M-178.9720001220703,404.9309997558594 C-180.08700561523438,403.47198486328125 -240.46299743652344,360.45599365234375 -241.99099731445312,343.05999755859375 C-243.49600219726562,325.9309997558594 -225.9219970703125,319.4010009765625 -206.77200317382812,324.6130065917969 C-189.1269989013672,329.4150085449219 -144.88499450683594,356.4939880371094 -144.88499450683594,356.4939880371094"></path><path stroke-linecap="round" stroke-linejoin="round" fill-opacity="0" stroke="rgb(32,40,112)" stroke-opacity="1" stroke-width="2" d=" M-178.9720001220703,404.9309997558594 C-180.08700561523438,403.47198486328125 -240.46299743652344,360.45599365234375 -241.99099731445312,343.05999755859375 C-243.49600219726562,325.9309997558594 -225.9219970703125,319.4010009765625 -206.77200317382812,324.6130065917969 C-189.1269989013672,329.4150085449219 -144.88499450683594,356.4939880371094 -144.88499450683594,356.4939880371094"></path></g></g></g><g transform="matrix(1,0,0,1,800,800)" opacity="1" style="display: block;"><g opacity="1" transform="matrix(1,0,0,1,0,0)"><g opacity="1" transform="matrix(1,0,0,1,0,0)"><path fill="rgb(255,255,255)" fill-opacity="1" d=" M-67.99199676513672,409.0530090332031 C-89.49600219726562,409.2510070800781 -106.76799774169922,426.843994140625 -106.56999969482422,448.3479919433594 C-106.37200164794922,469.85198974609375 -88.77999877929688,487.1239929199219 -67.2760009765625,486.9259948730469 C-45.77199935913086,486.7279968261719 -28.499000549316406,469.135009765625 -28.69700050354004,447.6310119628906 C-28.895000457763672,426.12701416015625 -46.487998962402344,408.8550109863281 -67.99199676513672,409.0530090332031z"></path><path stroke-linecap="round" stroke-linejoin="round" fill-opacity="0" stroke="rgb(32,40,112)" stroke-opacity="1" stroke-width="2" d=" M-67.99199676513672,409.0530090332031 C-89.49600219726562,409.2510070800781 -106.76799774169922,426.843994140625 -106.56999969482422,448.3479919433594 C-106.37200164794922,469.85198974609375 -88.77999877929688,487.1239929199219 -67.2760009765625,486.9259948730469 C-45.77199935913086,486.7279968261719 -28.499000549316406,469.135009765625 -28.69700050354004,447.6310119628906 C-28.895000457763672,426.12701416015625 -46.487998962402344,408.8550109863281 -67.99199676513672,409.0530090332031z"></path></g><g opacity="1" transform="matrix(1,0,0,1,0,0)"><path fill="rgb(255,255,255)" fill-opacity="1" d=" M-176.3800048828125,407.1109924316406 C-141.8090057373047,431.406005859375 -91.96600341796875,478.5199890136719 -91.96600341796875,478.5199890136719 C-91.96600341796875,478.5199890136719 -69.23400115966797,473.718994140625 -55.79800033569336,456.6969909667969 C-42.36199951171875,439.67498779296875 -47.36399841308594,415.1080017089844 -47.36399841308594,415.1080017089844 C-47.36399841308594,415.1080017089844 -48.12799835205078,414.6440124511719 -48.12799835205078,414.6440124511719 C-48.12799835205078,414.6440124511719 -143.78399658203125,356.4830017089844 -143.78399658203125,356.4830017089844"></path><path stroke-linecap="round" stroke-linejoin="round" fill-opacity="0" stroke="rgb(32,40,112)" stroke-opacity="1" stroke-width="2" d=" M-176.3800048828125,407.1109924316406 C-141.8090057373047,431.406005859375 -91.96600341796875,478.5199890136719 -91.96600341796875,478.5199890136719 C-91.96600341796875,478.5199890136719 -69.23400115966797,473.718994140625 -55.79800033569336,456.6969909667969 C-42.36199951171875,439.67498779296875 -47.36399841308594,415.1080017089844 -47.36399841308594,415.1080017089844 C-47.36399841308594,415.1080017089844 -48.12799835205078,414.6440124511719 -48.12799835205078,414.6440124511719 C-48.12799835205078,414.6440124511719 -143.78399658203125,356.4830017089844 -143.78399658203125,356.4830017089844"></path></g></g></g><g transform="matrix(1,0,0,1,800,800)" opacity="1" style="display: block;"><g opacity="1" transform="matrix(1,0,0,1,0,0)"><g opacity="1" transform="matrix(1,0,0,1,0,0)"><path fill="rgb(255,255,255)" fill-opacity="1" d=" M-139.8280029296875,350.5169982910156 C-155.84800720214844,350.66400146484375 -168.71600341796875,363.77099609375 -168.56900024414062,379.7909851074219 C-168.4219970703125,395.8110046386719 -155.31399536132812,408.6789855957031 -139.29400634765625,408.5320129394531 C-123.27400207519531,408.385009765625 -110.40699768066406,395.27801513671875 -110.55400085449219,379.25799560546875 C-110.70099639892578,363.2380065917969 -123.80799865722656,350.3699951171875 -139.8280029296875,350.5169982910156z"></path><path stroke-linecap="round" stroke-linejoin="round" fill-opacity="0" stroke="rgb(32,40,112)" stroke-opacity="1" stroke-width="2" d=" M-139.8280029296875,350.5169982910156 C-155.84800720214844,350.66400146484375 -168.71600341796875,363.77099609375 -168.56900024414062,379.7909851074219 C-168.4219970703125,395.8110046386719 -155.31399536132812,408.6789855957031 -139.29400634765625,408.5320129394531 C-123.27400207519531,408.385009765625 -110.40699768066406,395.27801513671875 -110.55400085449219,379.25799560546875 C-110.70099639892578,363.2380065917969 -123.80799865722656,350.3699951171875 -139.8280029296875,350.5169982910156z"></path></g><g opacity="1" transform="matrix(1,0,0,1,0,0)"><path fill="rgb(255,255,255)" fill-opacity="1" d=" M-158.52499389648438,401.32501220703125 C-159.59300231933594,399.9280090332031 -217.38400268554688,358.7539978027344 -218.8470001220703,342.10198974609375 C-220.28700256347656,325.70599365234375 -203.4669952392578,319.4549865722656 -185.13600158691406,324.4440002441406 C-168.24600219726562,329.0409851074219 -125.89800262451172,354.9599914550781 -125.89800262451172,354.9599914550781"></path><path stroke-linecap="round" stroke-linejoin="round" fill-opacity="0" stroke="rgb(32,40,112)" stroke-opacity="1" stroke-width="2" d=" M-158.52499389648438,401.32501220703125 C-159.59300231933594,399.9280090332031 -217.38400268554688,358.7539978027344 -218.8470001220703,342.10198974609375 C-220.28700256347656,325.70599365234375 -203.4669952392578,319.4549865722656 -185.13600158691406,324.4440002441406 C-168.24600219726562,329.0409851074219 -125.89800262451172,354.9599914550781 -125.89800262451172,354.9599914550781"></path></g></g></g><g transform="matrix(1,0,0,1,800,800)" opacity="1" style="display: block;"><g opacity="1" transform="matrix(1,0,0,1,0,0)"><g opacity="1" transform="matrix(1,0,0,1,0,0)"><path fill="rgb(255,255,255)" fill-opacity="1" d=" M-52.29499816894531,405.27099609375 C-72.87899780273438,405.4599914550781 -89.41100311279297,422.29901123046875 -89.22200012207031,442.88299560546875 C-89.03299713134766,463.4670104980469 -72.19300079345703,480 -51.60900115966797,479.8110046386719 C-31.024999618530273,479.62200927734375 -14.493000030517578,462.7820129394531 -14.682000160217285,442.197998046875 C-14.871000289916992,421.614013671875 -31.711000442504883,405.0820007324219 -52.29499816894531,405.27099609375z"></path><path stroke-linecap="round" stroke-linejoin="round" fill-opacity="0" stroke="rgb(32,40,112)" stroke-opacity="1" stroke-width="2" d=" M-52.29499816894531,405.27099609375 C-72.87899780273438,405.4599914550781 -89.41100311279297,422.29901123046875 -89.22200012207031,442.88299560546875 C-89.03299713134766,463.4670104980469 -72.19300079345703,480 -51.60900115966797,479.8110046386719 C-31.024999618530273,479.62200927734375 -14.493000030517578,462.7820129394531 -14.682000160217285,442.197998046875 C-14.871000289916992,421.614013671875 -31.711000442504883,405.0820007324219 -52.29499816894531,405.27099609375z"></path></g><g opacity="1" transform="matrix(1,0,0,1,0,0)"><path fill="rgb(255,255,255)" fill-opacity="1" d=" M-156.04400634765625,403.4119873046875 C-122.9520034790039,426.6669921875 -75.24299621582031,471.7650146484375 -75.24299621582031,471.7650146484375 C-75.24299621582031,471.7650146484375 -53.48400115966797,467.16900634765625 -40.62300109863281,450.8760070800781 C-27.761999130249023,434.5830078125 -32.54999923706055,411.0669860839844 -32.54999923706055,411.0669860839844 C-32.54999923706055,411.0669860839844 -33.28099822998047,410.62200927734375 -33.28099822998047,410.62200927734375 C-33.28099822998047,410.62200927734375 -124.84300231933594,354.95098876953125 -124.84300231933594,354.95098876953125"></path><path stroke-linecap="round" stroke-linejoin="round" fill-opacity="0" stroke="rgb(32,40,112)" stroke-opacity="1" stroke-width="2" d=" M-156.04400634765625,403.4119873046875 C-122.9520034790039,426.6669921875 -75.24299621582031,471.7650146484375 -75.24299621582031,471.7650146484375 C-75.24299621582031,471.7650146484375 -53.48400115966797,467.16900634765625 -40.62300109863281,450.8760070800781 C-27.761999130249023,434.5830078125 -32.54999923706055,411.0669860839844 -32.54999923706055,411.0669860839844 C-32.54999923706055,411.0669860839844 -33.28099822998047,410.62200927734375 -33.28099822998047,410.62200927734375 C-33.28099822998047,410.62200927734375 -124.84300231933594,354.95098876953125 -124.84300231933594,354.95098876953125"></path></g></g></g><g transform="matrix(1,0,0,1,800,800)" opacity="1" style="display: block;"><g opacity="1" transform="matrix(1,0,0,1,0,0)"><g opacity="1" transform="matrix(1,0,0,1,0,0)"><path fill="rgb(255,255,255)" fill-opacity="1" d=" M144.2790069580078,407.2799987792969 C125.78800201416016,391.35400390625 97.88800048828125,393.4320068359375 81.96199798583984,411.9230041503906 C66.03600311279297,430.41400146484375 68.11399841308594,458.3139953613281 86.6050033569336,474.239990234375 C105.09600067138672,490.1659851074219 132.99600219726562,488.0870056152344 148.9219970703125,469.59600830078125 C164.84800720214844,451.1050109863281 162.77000427246094,423.20599365234375 144.2790069580078,407.2799987792969z"></path><path stroke-linecap="round" stroke-linejoin="round" fill-opacity="0" stroke="rgb(32,40,112)" stroke-opacity="1" stroke-width="2" d=" M144.2790069580078,407.2799987792969 C125.78800201416016,391.35400390625 97.88800048828125,393.4320068359375 81.96199798583984,411.9230041503906 C66.03600311279297,430.41400146484375 68.11399841308594,458.3139953613281 86.6050033569336,474.239990234375 C105.09600067138672,490.1659851074219 132.99600219726562,488.0870056152344 148.9219970703125,469.59600830078125 C164.84800720214844,451.1050109863281 162.77000427246094,423.20599365234375 144.2790069580078,407.2799987792969z"></path></g><g opacity="1" transform="matrix(1,0,0,1,0,0)"><path fill="rgb(255,255,255)" fill-opacity="1" d=" M158.4739990234375,451.6809997558594 C165.66700744628906,405.26800537109375 183.34500122070312,343.78399658203125 172.44200134277344,331.29901123046875 C161.53900146484375,318.8139953613281 148.5229949951172,318.12200927734375 135.66200256347656,337.364013671875 C122.8010025024414,356.6059875488281 89.18800354003906,402.4179992675781 80.78600311279297,413.3580017089844"></path><path stroke-linecap="round" stroke-linejoin="round" fill-opacity="0" stroke="rgb(32,40,112)" stroke-opacity="1" stroke-width="2" d=" M158.4739990234375,451.6809997558594 C165.66700744628906,405.26800537109375 183.34500122070312,343.78399658203125 172.44200134277344,331.29901123046875 C161.53900146484375,318.8139953613281 148.5229949951172,318.12200927734375 135.66200256347656,337.364013671875 C122.8010025024414,356.6059875488281 89.18800354003906,402.4179992675781 80.78600311279297,413.3580017089844"></path></g></g></g><g transform="matrix(1,0,0,1,800,800)" opacity="1" style="display: block;"><g opacity="1" transform="matrix(1,0,0,1,0,0)"><g opacity="1" transform="matrix(1,0,0,1,0,0)"><path fill="rgb(255,255,255)" fill-opacity="1" d=" M109.68299865722656,491.1499938964844 C55.87799835205078,475.1910095214844 -0.6779999732971191,505.8710021972656 -16.636999130249023,559.676025390625 C-32.59600067138672,613.4810180664062 -1.9160000085830688,670.0360107421875 51.888999938964844,685.9949951171875 C105.69400024414062,701.9539794921875 162.25,671.2739868164062 178.20899963378906,617.468994140625 C194.16799926757812,563.6640014648438 163.48800659179688,507.1090087890625 109.68299865722656,491.1499938964844z"></path><path stroke-linecap="round" stroke-linejoin="round" fill-opacity="0" stroke="rgb(32,40,112)" stroke-opacity="1" stroke-width="2" d=" M109.68299865722656,491.1499938964844 C55.87799835205078,475.1910095214844 -0.6779999732971191,505.8710021972656 -16.636999130249023,559.676025390625 C-32.59600067138672,613.4810180664062 -1.9160000085830688,670.0360107421875 51.888999938964844,685.9949951171875 C105.69400024414062,701.9539794921875 162.25,671.2739868164062 178.20899963378906,617.468994140625 C194.16799926757812,563.6640014648438 163.48800659179688,507.1090087890625 109.68299865722656,491.1499938964844z"></path></g><g opacity="1" transform="matrix(1,0,0,1,0,0)"><path fill="rgb(255,255,255)" fill-opacity="1" d=" M-16.31999969482422,618.5020141601562 C-16.31999969482422,618.5020141601562 -48.4010009765625,512.6439819335938 -91.96600341796875,478.5199890136719 C-81.5009994506836,462.8659973144531 -33.28099822998047,410.62200927734375 -33.28099822998047,410.62200927734375 C-33.28099822998047,410.62200927734375 47.09600067138672,463.8810119628906 80.78600311279297,413.3580017089844 C80.78600311279297,413.3580017089844 136.55499267578125,440.7590026855469 158.4739990234375,451.6809997558594 C152.9199981689453,488.9010009765625 176.82200622558594,555.3359985351562 176.82200622558594,555.3359985351562"></path></g><g opacity="1" transform="matrix(1,0,0,1,0,0)"><path stroke-linecap="round" stroke-linejoin="round" fill-opacity="0" stroke="rgb(32,40,112)" stroke-opacity="1" stroke-width="2" d=" M158.4739990234375,451.6809997558594 C152.9199981689453,488.9010009765625 176.82200622558594,555.3359985351562 176.82200622558594,555.3359985351562"></path></g><g opacity="1" transform="matrix(1,0,0,1,0,0)"><path stroke-linecap="round" stroke-linejoin="round" fill-opacity="0" stroke="rgb(32,40,112)" stroke-opacity="1" stroke-width="2" d=" M-33.28099822998047,410.62200927734375 C-33.28099822998047,410.62200927734375 47.09600067138672,463.8810119628906 80.78600311279297,413.3580017089844"></path></g><g opacity="1" transform="matrix(1,0,0,1,0,0)"><path stroke-linecap="round" stroke-linejoin="round" fill-opacity="0" stroke="rgb(32,40,112)" stroke-opacity="1" stroke-width="2" d=" M-16.31999969482422,618.5020141601562 C-16.31999969482422,618.5020141601562 -48.4010009765625,512.6439819335938 -91.96600341796875,478.5199890136719"></path></g></g></g><g transform="matrix(1,0,0,1,800,800)" opacity="1" style="display: block;"><g opacity="1" transform="matrix(1,0,0,1,0,0)"><g opacity="1" transform="matrix(1,0,0,1,0,0)"><path fill="rgb(132,132,250)" fill-opacity="1" d=" M-417.58099365234375,310.9909973144531 C-417.58099365234375,310.9909973144531 387.947998046875,310.9909973144531 387.947998046875,310.9909973144531 C387.947998046875,310.9909973144531 387.947998046875,-273.5719909667969 387.947998046875,-273.5719909667969 C387.947998046875,-284.6440124511719 378.9729919433594,-293.6189880371094 367.9010009765625,-293.6189880371094 C367.9010009765625,-293.6189880371094 -397.53399658203125,-293.6189880371094 -397.53399658203125,-293.6189880371094 C-408.6059875488281,-293.6189880371094 -417.58099365234375,-284.6440124511719 -417.58099365234375,-273.5719909667969 C-417.58099365234375,-273.5719909667969 -417.58099365234375,310.9909973144531 -417.58099365234375,310.9909973144531z"></path><path stroke-linecap="round" stroke-linejoin="round" fill-opacity="0" stroke="rgb(32,40,112)" stroke-opacity="1" stroke-width="2" d=" M-417.58099365234375,310.9909973144531 C-417.58099365234375,310.9909973144531 387.947998046875,310.9909973144531 387.947998046875,310.9909973144531 C387.947998046875,310.9909973144531 387.947998046875,-273.5719909667969 387.947998046875,-273.5719909667969 C387.947998046875,-284.6440124511719 378.9729919433594,-293.6189880371094 367.9010009765625,-293.6189880371094 C367.9010009765625,-293.6189880371094 -397.53399658203125,-293.6189880371094 -397.53399658203125,-293.6189880371094 C-408.6059875488281,-293.6189880371094 -417.58099365234375,-284.6440124511719 -417.58099365234375,-273.5719909667969 C-417.58099365234375,-273.5719909667969 -417.58099365234375,310.9909973144531 -417.58099365234375,310.9909973144531z"></path></g><g opacity="1" transform="matrix(1,0,0,1,0,0)"><path fill="rgb(255,255,255)" fill-opacity="1" d=" M-399.2040100097656,290.6210021972656 C-399.2040100097656,290.6210021972656 369.5719909667969,290.6210021972656 369.5719909667969,290.6210021972656 C369.5719909667969,290.6210021972656 369.5719909667969,-273.2489929199219 369.5719909667969,-273.2489929199219 C369.5719909667969,-273.2489929199219 -399.2040100097656,-273.2489929199219 -399.2040100097656,-273.2489929199219 C-399.2040100097656,-273.2489929199219 -399.2040100097656,290.6210021972656 -399.2040100097656,290.6210021972656z"></path><path stroke-linecap="round" stroke-linejoin="round" fill-opacity="0" stroke="rgb(32,40,112)" stroke-opacity="1" stroke-width="2" d=" M-399.2040100097656,290.6210021972656 C-399.2040100097656,290.6210021972656 369.5719909667969,290.6210021972656 369.5719909667969,290.6210021972656 C369.5719909667969,290.6210021972656 369.5719909667969,-273.2489929199219 369.5719909667969,-273.2489929199219 C369.5719909667969,-273.2489929199219 -399.2040100097656,-273.2489929199219 -399.2040100097656,-273.2489929199219 C-399.2040100097656,-273.2489929199219 -399.2040100097656,290.6210021972656 -399.2040100097656,290.6210021972656z"></path></g><g opacity="1" transform="matrix(1,0,0,1,0,0)"><path fill="rgb(132,132,250)" fill-opacity="1" d=" M-452.3659973144531,320.9259948730469 C-452.3659973144531,320.9259948730469 422.7330017089844,320.9259948730469 422.7330017089844,320.9259948730469 C443.6830139160156,320.9259948730469 460.6669921875,303.9419860839844 460.6669921875,282.99200439453125 C460.6669921875,282.99200439453125 460.6669921875,282.99200439453125 460.6669921875,282.99200439453125 C460.6669921875,282.99200439453125 -490.29901123046875,282.99200439453125 -490.29901123046875,282.99200439453125 C-490.29901123046875,282.99200439453125 -490.29901123046875,282.99200439453125 -490.29901123046875,282.99200439453125 C-490.29901123046875,303.9419860839844 -473.3160095214844,320.9259948730469 -452.3659973144531,320.9259948730469z"></path><path stroke-linecap="round" stroke-linejoin="round" fill-opacity="0" stroke="rgb(32,40,112)" stroke-opacity="1" stroke-width="2" d=" M-452.3659973144531,320.9259948730469 C-452.3659973144531,320.9259948730469 422.7330017089844,320.9259948730469 422.7330017089844,320.9259948730469 C443.6830139160156,320.9259948730469 460.6669921875,303.9419860839844 460.6669921875,282.99200439453125 C460.6669921875,282.99200439453125 460.6669921875,282.99200439453125 460.6669921875,282.99200439453125 C460.6669921875,282.99200439453125 -490.29901123046875,282.99200439453125 -490.29901123046875,282.99200439453125 C-490.29901123046875,282.99200439453125 -490.29901123046875,282.99200439453125 -490.29901123046875,282.99200439453125 C-490.29901123046875,303.9419860839844 -473.3160095214844,320.9259948730469 -452.3659973144531,320.9259948730469z"></path></g></g><g opacity="1" transform="matrix(1,0,0,1,0,0)"><g opacity="1" transform="matrix(1,0,0,1,0,0)"><g opacity="1" transform="matrix(1,0,0,1,0,0)"><path stroke-linecap="round" stroke-linejoin="round" fill-opacity="0" stroke="rgb(32,40,112)" stroke-opacity="1" stroke-width="2" d=" M329.87298583984375,-245.33299255371094 C329.87298583984375,-245.33299255371094 -360.36700439453125,-245.33299255371094 -360.36700439453125,-245.33299255371094 C-360.36700439453125,-245.33299255371094 -360.36700439453125,-34.125999450683594 -360.36700439453125,-34.125999450683594 C-360.36700439453125,-34.125999450683594 329.87298583984375,-34.125999450683594 329.87298583984375,-34.125999450683594 C329.87298583984375,-34.125999450683594 329.87298583984375,-245.33299255371094 329.87298583984375,-245.33299255371094z"></path></g><g opacity="1" transform="matrix(1,0,0,1,0,0)"><path fill="rgb(132,132,250)" fill-opacity="1" d=" M-187.77099609375,-245.33299255371094 C-247.87899780273438,-164.33299255371094 -268.7869873046875,-0.9359999895095825 -41.42100143432617,-123.13500213623047 C185.94500732421875,-245.33399963378906 329.87298583984375,-34.125999450683594 329.87298583984375,-34.125999450683594 C329.87298583984375,-34.125999450683594 329.87298583984375,-245.33299255371094 329.87298583984375,-245.33299255371094 C329.87298583984375,-245.33299255371094 -187.77099609375,-245.33299255371094 -187.77099609375,-245.33299255371094z"></path><path stroke-linecap="round" stroke-linejoin="round" fill-opacity="0" stroke="rgb(32,40,112)" stroke-opacity="1" stroke-width="2" d=" M-187.77099609375,-245.33299255371094 C-247.87899780273438,-164.33299255371094 -268.7869873046875,-0.9359999895095825 -41.42100143432617,-123.13500213623047 C185.94500732421875,-245.33399963378906 329.87298583984375,-34.125999450683594 329.87298583984375,-34.125999450683594 C329.87298583984375,-34.125999450683594 329.87298583984375,-245.33299255371094 329.87298583984375,-245.33299255371094 C329.87298583984375,-245.33299255371094 -187.77099609375,-245.33299255371094 -187.77099609375,-245.33299255371094z"></path></g></g><g opacity="1" transform="matrix(1,0,0,1,0,0)"><g opacity="1" transform="matrix(1,0,0,1,0,0)"><path stroke-linecap="round" stroke-linejoin="round" fill-opacity="0" stroke="rgb(32,40,112)" stroke-opacity="1" stroke-width="2" d=" M-176.90699768066406,0.05400000140070915 C-176.90699768066406,0.05400000140070915 -360.36700439453125,0.05400000140070915 -360.36700439453125,0.05400000140070915 C-360.36700439453125,0.05400000140070915 -360.36700439453125,254.3520050048828 -360.36700439453125,254.3520050048828 C-360.36700439453125,254.3520050048828 -176.90699768066406,254.3520050048828 -176.90699768066406,254.3520050048828 C-176.90699768066406,254.3520050048828 -176.90699768066406,0.05400000140070915 -176.90699768066406,0.05400000140070915z"></path></g><g opacity="1" transform="matrix(1,0,0,1,0,0)"><path stroke-linecap="round" stroke-linejoin="round" fill-opacity="0" stroke="rgb(32,40,112)" stroke-opacity="1" stroke-width="2" d=" M-329.6419982910156,30.77899932861328 C-329.6419982910156,30.77899932861328 -207.6320037841797,30.77899932861328 -207.6320037841797,30.77899932861328"></path></g><g opacity="1" transform="matrix(1,0,0,1,0,0)"><path stroke-linecap="round" stroke-linejoin="round" fill-opacity="0" stroke="rgb(32,40,112)" stroke-opacity="1" stroke-width="2" d=" M-329.6419982910156,223.62100219726562 C-329.6419982910156,223.62100219726562 -207.6320037841797,223.62100219726562 -207.6320037841797,223.62100219726562"></path></g><g opacity="1" transform="matrix(1,0,0,1,0,0)"><path stroke-linecap="round" stroke-linejoin="round" fill-opacity="0" stroke="rgb(32,40,112)" stroke-opacity="1" stroke-width="2" d=" M-329.6419982910156,185.05299377441406 C-329.6419982910156,185.05299377441406 -207.6320037841797,185.05299377441406 -207.6320037841797,185.05299377441406"></path></g><g opacity="1" transform="matrix(1,0,0,1,0,0)"><path stroke-linecap="round" stroke-linejoin="round" fill-opacity="0" stroke="rgb(32,40,112)" stroke-opacity="1" stroke-width="2" d=" M-329.6419982910156,146.48399353027344 C-329.6419982910156,146.48399353027344 -207.6320037841797,146.48399353027344 -207.6320037841797,146.48399353027344"></path></g><g opacity="1" transform="matrix(1,0,0,1,0,0)"><path stroke-linecap="round" stroke-linejoin="round" fill-opacity="0" stroke="rgb(32,40,112)" stroke-opacity="1" stroke-width="2" d=" M-329.6419982910156,107.91600036621094 C-329.6419982910156,107.91600036621094 -207.6320037841797,107.91600036621094 -207.6320037841797,107.91600036621094"></path></g><g opacity="1" transform="matrix(1,0,0,1,0,0)"><path stroke-linecap="round" stroke-linejoin="round" fill-opacity="0" stroke="rgb(32,40,112)" stroke-opacity="1" stroke-width="2" d=" M-329.6419982910156,69.3479995727539 C-329.6419982910156,69.3479995727539 -207.6320037841797,69.3479995727539 -207.6320037841797,69.3479995727539"></path></g></g><g opacity="1" transform="matrix(1,0,0,1,0,0)"><g opacity="1" transform="matrix(1,0,0,1,0,0)"><path stroke-linecap="round" stroke-linejoin="round" fill-opacity="0" stroke="rgb(32,40,112)" stroke-opacity="1" stroke-width="2" d=" M329.87298583984375,0.05400000140070915 C329.87298583984375,0.05400000140070915 -142.7270050048828,0.05400000140070915 -142.7270050048828,0.05400000140070915 C-142.7270050048828,0.05400000140070915 -142.7270050048828,254.3520050048828 -142.7270050048828,254.3520050048828 C-142.7270050048828,254.3520050048828 329.87298583984375,254.3520050048828 329.87298583984375,254.3520050048828 C329.87298583984375,254.3520050048828 329.87298583984375,0.05400000140070915 329.87298583984375,0.05400000140070915z"></path></g><g opacity="1" transform="matrix(0.8999999761581421,0,0,0.8999999761581421,9.407302856445312,12.720306396484375)"><path fill="rgb(249,74,130)" fill-opacity="1" d=" M143.572998046875,127.2030029296875 C143.572998046875,127.2030029296875 68.572998046875,83.9010009765625 68.572998046875,83.9010009765625 C68.572998046875,83.9010009765625 68.572998046875,170.50399780273438 68.572998046875,170.50399780273438 C68.572998046875,170.50399780273438 143.572998046875,127.2030029296875 143.572998046875,127.2030029296875z"></path><path stroke-linecap="round" stroke-linejoin="round" fill-opacity="0" stroke="rgb(32,40,112)" stroke-opacity="1" stroke-width="2" d=" M143.572998046875,127.2030029296875 C143.572998046875,127.2030029296875 68.572998046875,83.9010009765625 68.572998046875,83.9010009765625 C68.572998046875,83.9010009765625 68.572998046875,170.50399780273438 68.572998046875,170.50399780273438 C68.572998046875,170.50399780273438 143.572998046875,127.2030029296875 143.572998046875,127.2030029296875z"></path></g></g></g></g><g mask="url(#__lottie_element_21_1)" style="display: block;"><g transform="matrix(1,0,0,1,787.6689453125,809.5010375976562)" opacity="1"><g opacity="1" transform="matrix(1,0,0,1,0,0)"><path fill="rgb(32,40,112)" fill-opacity="1" d=" M277.2279968261719,135.26100158691406 C277.2279968261719,135.26100158691406 563.4420166015625,276.20001220703125 563.4420166015625,276.20001220703125 C563.4420166015625,276.20001220703125 563.4420166015625,-98.95800018310547 563.4420166015625,-98.95800018310547 C563.4420166015625,-98.95800018310547 277.2279968261719,-155.406005859375 277.2279968261719,-155.406005859375 C277.2279968261719,-155.406005859375 277.2279968261719,135.26100158691406 277.2279968261719,135.26100158691406z"></path></g></g></g><g transform="matrix(1,0,0,1,787.6689453125,809.5010375976562)" opacity="1" style="display: block;"><g opacity="1" transform="matrix(1,0,0,1,0,0)"><path fill="rgb(255,255,255)" fill-opacity="1" d=" M527.89501953125,135.26100158691406 C527.89501953125,135.26100158691406 277.2279968261719,135.26100158691406 277.2279968261719,135.26100158691406 C277.2279968261719,135.26100158691406 277.2279968261719,-155.406005859375 277.2279968261719,-155.406005859375 C277.2279968261719,-155.406005859375 527.89501953125,-155.406005859375 527.89501953125,-155.406005859375 C527.89501953125,-155.406005859375 527.89501953125,135.26100158691406 527.89501953125,135.26100158691406z"></path><path stroke-linecap="round" stroke-linejoin="round" fill-opacity="0" stroke="rgb(32,40,112)" stroke-opacity="1" stroke-width="2" d=" M527.89501953125,135.26100158691406 C527.89501953125,135.26100158691406 277.2279968261719,135.26100158691406 277.2279968261719,135.26100158691406 C277.2279968261719,135.26100158691406 277.2279968261719,-155.406005859375 277.2279968261719,-155.406005859375 C277.2279968261719,-155.406005859375 527.89501953125,-155.406005859375 527.89501953125,-155.406005859375 C527.89501953125,-155.406005859375 527.89501953125,135.26100158691406 527.89501953125,135.26100158691406z"></path></g><g opacity="1" transform="matrix(1,0,0,1,0,193)"><g opacity="1" transform="matrix(1,0,0,1,0,0)"><path fill="rgb(132,132,250)" fill-opacity="1" d=" M333.3609924316406,-106.23400115966797 C333.3609924316406,-115.16799926757812 326.1180114746094,-122.41100311279297 317.1839904785156,-122.41100311279297 C308.25,-122.41100311279297 301.0069885253906,-115.16799926757812 301.0069885253906,-106.23400115966797 C301.0069885253906,-97.30000305175781 308.25,-90.05799865722656 317.1839904785156,-90.05799865722656 C326.1180114746094,-90.05799865722656 333.3609924316406,-97.30000305175781 333.3609924316406,-106.23400115966797z"></path><path stroke-linecap="round" stroke-linejoin="round" fill-opacity="0" stroke="rgb(32,40,112)" stroke-opacity="1" stroke-width="2" d=" M333.3609924316406,-106.23400115966797 C333.3609924316406,-115.16799926757812 326.1180114746094,-122.41100311279297 317.1839904785156,-122.41100311279297 C308.25,-122.41100311279297 301.0069885253906,-115.16799926757812 301.0069885253906,-106.23400115966797 C301.0069885253906,-97.30000305175781 308.25,-90.05799865722656 317.1839904785156,-90.05799865722656 C326.1180114746094,-90.05799865722656 333.3609924316406,-97.30000305175781 333.3609924316406,-106.23400115966797z"></path></g><g opacity="1" transform="matrix(1,0,0,1,0,0)"><path stroke-linecap="round" stroke-linejoin="round" fill-opacity="0" stroke="rgb(32,40,112)" stroke-opacity="1" stroke-width="2" d=" M504.1159973144531,-91.8550033569336 C504.1159973144531,-91.8550033569336 345.9429931640625,-91.8550033569336 345.9429931640625,-91.8550033569336 C345.9429931640625,-91.8550033569336 345.9429931640625,-120.61399841308594 345.9429931640625,-120.61399841308594 C345.9429931640625,-120.61399841308594 504.1159973144531,-120.61399841308594 504.1159973144531,-120.61399841308594 C504.1159973144531,-120.61399841308594 504.1159973144531,-91.8550033569336 504.1159973144531,-91.8550033569336z"></path></g></g><g opacity="1" transform="matrix(1,0,0,1,0,128)"><g opacity="1" transform="matrix(1,0,0,1,0,0)"><path fill="rgb(132,132,250)" fill-opacity="1" d=" M333.3609924316406,-106.23400115966797 C333.3609924316406,-115.16799926757812 326.1180114746094,-122.41100311279297 317.1839904785156,-122.41100311279297 C308.25,-122.41100311279297 301.0069885253906,-115.16799926757812 301.0069885253906,-106.23400115966797 C301.0069885253906,-97.30000305175781 308.25,-90.05799865722656 317.1839904785156,-90.05799865722656 C326.1180114746094,-90.05799865722656 333.3609924316406,-97.30000305175781 333.3609924316406,-106.23400115966797z"></path><path stroke-linecap="round" stroke-linejoin="round" fill-opacity="0" stroke="rgb(32,40,112)" stroke-opacity="1" stroke-width="2" d=" M333.3609924316406,-106.23400115966797 C333.3609924316406,-115.16799926757812 326.1180114746094,-122.41100311279297 317.1839904785156,-122.41100311279297 C308.25,-122.41100311279297 301.0069885253906,-115.16799926757812 301.0069885253906,-106.23400115966797 C301.0069885253906,-97.30000305175781 308.25,-90.05799865722656 317.1839904785156,-90.05799865722656 C326.1180114746094,-90.05799865722656 333.3609924316406,-97.30000305175781 333.3609924316406,-106.23400115966797z"></path></g><g opacity="1" transform="matrix(1,0,0,1,0,0)"><path stroke-linecap="round" stroke-linejoin="round" fill-opacity="0" stroke="rgb(32,40,112)" stroke-opacity="1" stroke-width="2" d=" M504.1159973144531,-91.8550033569336 C504.1159973144531,-91.8550033569336 345.9429931640625,-91.8550033569336 345.9429931640625,-91.8550033569336 C345.9429931640625,-91.8550033569336 345.9429931640625,-120.61399841308594 345.9429931640625,-120.61399841308594 C345.9429931640625,-120.61399841308594 504.1159973144531,-120.61399841308594 504.1159973144531,-120.61399841308594 C504.1159973144531,-120.61399841308594 504.1159973144531,-91.8550033569336 504.1159973144531,-91.8550033569336z"></path></g></g><g opacity="1" transform="matrix(1,0,0,1,0,64)"><g opacity="1" transform="matrix(1,0,0,1,0,0)"><path fill="rgb(132,132,250)" fill-opacity="1" d=" M333.3609924316406,-106.23400115966797 C333.3609924316406,-115.16799926757812 326.1180114746094,-122.41100311279297 317.1839904785156,-122.41100311279297 C308.25,-122.41100311279297 301.0069885253906,-115.16799926757812 301.0069885253906,-106.23400115966797 C301.0069885253906,-97.30000305175781 308.25,-90.05799865722656 317.1839904785156,-90.05799865722656 C326.1180114746094,-90.05799865722656 333.3609924316406,-97.30000305175781 333.3609924316406,-106.23400115966797z"></path><path stroke-linecap="round" stroke-linejoin="round" fill-opacity="0" stroke="rgb(32,40,112)" stroke-opacity="1" stroke-width="2" d=" M333.3609924316406,-106.23400115966797 C333.3609924316406,-115.16799926757812 326.1180114746094,-122.41100311279297 317.1839904785156,-122.41100311279297 C308.25,-122.41100311279297 301.0069885253906,-115.16799926757812 301.0069885253906,-106.23400115966797 C301.0069885253906,-97.30000305175781 308.25,-90.05799865722656 317.1839904785156,-90.05799865722656 C326.1180114746094,-90.05799865722656 333.3609924316406,-97.30000305175781 333.3609924316406,-106.23400115966797z"></path></g><g opacity="1" transform="matrix(1,0,0,1,0,0)"><path stroke-linecap="round" stroke-linejoin="round" fill-opacity="0" stroke="rgb(32,40,112)" stroke-opacity="1" stroke-width="2" d=" M504.1159973144531,-91.8550033569336 C504.1159973144531,-91.8550033569336 345.9429931640625,-91.8550033569336 345.9429931640625,-91.8550033569336 C345.9429931640625,-91.8550033569336 345.9429931640625,-120.61399841308594 345.9429931640625,-120.61399841308594 C345.9429931640625,-120.61399841308594 504.1159973144531,-120.61399841308594 504.1159973144531,-120.61399841308594 C504.1159973144531,-120.61399841308594 504.1159973144531,-91.8550033569336 504.1159973144531,-91.8550033569336z"></path></g></g><g opacity="1" transform="matrix(1,0,0,1,0,0)"><g opacity="1" transform="matrix(1,0,0,1,0,0)"><path fill="rgb(132,132,250)" fill-opacity="1" d=" M333.3609924316406,-106.23400115966797 C333.3609924316406,-115.16799926757812 326.1180114746094,-122.41100311279297 317.1839904785156,-122.41100311279297 C308.25,-122.41100311279297 301.0069885253906,-115.16799926757812 301.0069885253906,-106.23400115966797 C301.0069885253906,-97.30000305175781 308.25,-90.05799865722656 317.1839904785156,-90.05799865722656 C326.1180114746094,-90.05799865722656 333.3609924316406,-97.30000305175781 333.3609924316406,-106.23400115966797z"></path><path stroke-linecap="round" stroke-linejoin="round" fill-opacity="0" stroke="rgb(32,40,112)" stroke-opacity="1" stroke-width="2" d=" M333.3609924316406,-106.23400115966797 C333.3609924316406,-115.16799926757812 326.1180114746094,-122.41100311279297 317.1839904785156,-122.41100311279297 C308.25,-122.41100311279297 301.0069885253906,-115.16799926757812 301.0069885253906,-106.23400115966797 C301.0069885253906,-97.30000305175781 308.25,-90.05799865722656 317.1839904785156,-90.05799865722656 C326.1180114746094,-90.05799865722656 333.3609924316406,-97.30000305175781 333.3609924316406,-106.23400115966797z"></path></g><g opacity="1" transform="matrix(1,0,0,1,0,0)"><path stroke-linecap="round" stroke-linejoin="round" fill-opacity="0" stroke="rgb(32,40,112)" stroke-opacity="1" stroke-width="2" d=" M504.1159973144531,-91.8550033569336 C504.1159973144531,-91.8550033569336 345.9429931640625,-91.8550033569336 345.9429931640625,-91.8550033569336 C345.9429931640625,-91.8550033569336 345.9429931640625,-120.61399841308594 345.9429931640625,-120.61399841308594 C345.9429931640625,-120.61399841308594 504.1159973144531,-120.61399841308594 504.1159973144531,-120.61399841308594 C504.1159973144531,-120.61399841308594 504.1159973144531,-91.8550033569336 504.1159973144531,-91.8550033569336z"></path></g></g></g><g mask="url(#__lottie_element_6_1)" style="display: block;"><g transform="matrix(1,0,0,1,771.56298828125,781.14697265625)" opacity="1"><g opacity="1" transform="matrix(1,0,0,1,0,0)"><path fill="rgb(32,40,112)" fill-opacity="1" d=" M-116.7239990234375,-172.33299255371094 C-116.7239990234375,-172.33299255371094 -657.5260009765625,-80.76799774169922 -657.5260009765625,-80.76799774169922 C-657.5260009765625,-80.76799774169922 -657.5260009765625,-373.3160095214844 -657.5260009765625,-373.3160095214844 C-657.5260009765625,-373.3160095214844 -116.7239990234375,-393.6669921875 -116.7239990234375,-393.6669921875 C-116.7239990234375,-393.6669921875 -116.7239990234375,-172.33299255371094 -116.7239990234375,-172.33299255371094z"></path></g></g></g><g transform="matrix(1,0,0,1,771.56298828125,781.14697265625)" opacity="1" style="display: block;"><g opacity="1" transform="matrix(1,0,0,1,0,0)"><path fill="rgb(255,255,255)" fill-opacity="1" d=" M-116.7239990234375,-172.33299255371094 C-116.7239990234375,-172.33299255371094 -508.8330078125,-172.33299255371094 -508.8330078125,-172.33299255371094 C-508.8330078125,-172.33299255371094 -508.8330078125,-393.6669921875 -508.8330078125,-393.6669921875 C-508.8330078125,-393.6669921875 -116.7239990234375,-393.6669921875 -116.7239990234375,-393.6669921875 C-116.7239990234375,-393.6669921875 -116.7239990234375,-172.33299255371094 -116.7239990234375,-172.33299255371094z"></path><path stroke-linecap="round" stroke-linejoin="round" fill-opacity="0" stroke="rgb(32,40,112)" stroke-opacity="1" stroke-width="2" d=" M-116.7239990234375,-172.33299255371094 C-116.7239990234375,-172.33299255371094 -508.8330078125,-172.33299255371094 -508.8330078125,-172.33299255371094 C-508.8330078125,-172.33299255371094 -508.8330078125,-393.6669921875 -508.8330078125,-393.6669921875 C-508.8330078125,-393.6669921875 -116.7239990234375,-393.6669921875 -116.7239990234375,-393.6669921875 C-116.7239990234375,-393.6669921875 -116.7239990234375,-172.33299255371094 -116.7239990234375,-172.33299255371094z"></path></g><g opacity="1" transform="matrix(1,0,0,1,0,0)"><g opacity="1" transform="matrix(1,0,0,1,0,0)"><path fill="rgb(132,132,250)" fill-opacity="1" d=" M-331.6419982910156,-337.3240051269531 C-331.6419982910156,-337.3240051269531 -464.69000244140625,-337.3240051269531 -464.69000244140625,-337.3240051269531 C-464.69000244140625,-337.3240051269531 -464.69000244140625,-204.2760009765625 -464.69000244140625,-204.2760009765625 C-464.69000244140625,-204.2760009765625 -331.6419982910156,-204.2760009765625 -331.6419982910156,-204.2760009765625 C-331.6419982910156,-204.2760009765625 -331.6419982910156,-337.3240051269531 -331.6419982910156,-337.3240051269531z"></path><path stroke-linecap="round" stroke-linejoin="round" fill-opacity="0" stroke="rgb(32,40,112)" stroke-opacity="1" stroke-width="2" d=" M-331.6419982910156,-337.3240051269531 C-331.6419982910156,-337.3240051269531 -464.69000244140625,-337.3240051269531 -464.69000244140625,-337.3240051269531 C-464.69000244140625,-337.3240051269531 -464.69000244140625,-204.2760009765625 -464.69000244140625,-204.2760009765625 C-464.69000244140625,-204.2760009765625 -331.6419982910156,-204.2760009765625 -331.6419982910156,-204.2760009765625 C-331.6419982910156,-204.2760009765625 -331.6419982910156,-337.3240051269531 -331.6419982910156,-337.3240051269531z"></path></g><g opacity="1" transform="matrix(1,0,0,1,0,0)"><g opacity="1" transform="matrix(1,0,0,1,0,0)"><path fill="rgb(255,255,255)" fill-opacity="1" d=" M-160.79400634765625,-303.2980041503906 C-160.79400634765625,-303.2980041503906 -306.2340087890625,-303.2980041503906 -306.2340087890625,-303.2980041503906 C-306.2340087890625,-303.2980041503906 -306.2340087890625,-335.2560119628906 -306.2340087890625,-335.2560119628906 C-306.2340087890625,-335.2560119628906 -160.79400634765625,-335.2560119628906 -160.79400634765625,-335.2560119628906 C-160.79400634765625,-335.2560119628906 -160.79400634765625,-303.2980041503906 -160.79400634765625,-303.2980041503906z"></path><path stroke-linecap="round" stroke-linejoin="round" fill-opacity="0" stroke="rgb(32,40,112)" stroke-opacity="1" stroke-width="2" d=" M-160.79400634765625,-303.2980041503906 C-160.79400634765625,-303.2980041503906 -306.2340087890625,-303.2980041503906 -306.2340087890625,-303.2980041503906 C-306.2340087890625,-303.2980041503906 -306.2340087890625,-335.2560119628906 -306.2340087890625,-335.2560119628906 C-306.2340087890625,-335.2560119628906 -160.79400634765625,-335.2560119628906 -160.79400634765625,-335.2560119628906 C-160.79400634765625,-335.2560119628906 -160.79400634765625,-303.2980041503906 -160.79400634765625,-303.2980041503906z"></path></g><g opacity="1" transform="matrix(1,0,0,1,0,0)"><g opacity="1" transform="matrix(1,0,0,1,0,0)"><path fill="rgb(255,255,255)" fill-opacity="1" d=" M-306.2340087890625,-264.3900146484375 C-306.2340087890625,-264.3900146484375 -202.22300720214844,-264.3900146484375 -202.22300720214844,-264.3900146484375"></path><path stroke-linecap="round" stroke-linejoin="round" fill-opacity="0" stroke="rgb(32,40,112)" stroke-opacity="1" stroke-width="2" d=" M-306.2340087890625,-264.3900146484375 C-306.2340087890625,-264.3900146484375 -202.22300720214844,-264.3900146484375 -202.22300720214844,-264.3900146484375"></path></g><g opacity="1" transform="matrix(1,0,0,1,0,0)"><path fill="rgb(255,255,255)" fill-opacity="1" d=" M-306.2340087890625,-235.36700439453125 C-306.2340087890625,-235.36700439453125 -235.14500427246094,-235.36700439453125 -235.14500427246094,-235.36700439453125"></path><path stroke-linecap="round" stroke-linejoin="round" fill-opacity="0" stroke="rgb(32,40,112)" stroke-opacity="1" stroke-width="2" d=" M-306.2340087890625,-235.36700439453125 C-306.2340087890625,-235.36700439453125 -235.14500427246094,-235.36700439453125 -235.14500427246094,-235.36700439453125"></path></g><g opacity="1" transform="matrix(1,0,0,1,0,0)"><path fill="rgb(255,255,255)" fill-opacity="1" d=" M-306.2340087890625,-206.343994140625 C-306.2340087890625,-206.343994140625 -214.2740020751953,-206.343994140625 -214.2740020751953,-206.343994140625"></path><path stroke-linecap="round" stroke-linejoin="round" fill-opacity="0" stroke="rgb(32,40,112)" stroke-opacity="1" stroke-width="2" d=" M-306.2340087890625,-206.343994140625 C-306.2340087890625,-206.343994140625 -214.2740020751953,-206.343994140625 -214.2740020751953,-206.343994140625"></path></g></g></g></g><g opacity="1" transform="matrix(1,0,0,1,0,0)"><path fill="rgb(249,74,130)" fill-opacity="1" d=" M-116.7239990234375,-366.7950134277344 C-116.7239990234375,-366.7950134277344 -508.8330078125,-366.7950134277344 -508.8330078125,-366.7950134277344 C-508.8330078125,-366.7950134277344 -508.8330078125,-393.6669921875 -508.8330078125,-393.6669921875 C-508.8330078125,-393.6669921875 -116.7239990234375,-393.6669921875 -116.7239990234375,-393.6669921875 C-116.7239990234375,-393.6669921875 -116.7239990234375,-366.7950134277344 -116.7239990234375,-366.7950134277344z"></path><path stroke-linecap="round" stroke-linejoin="round" fill-opacity="0" stroke="rgb(32,40,112)" stroke-opacity="1" stroke-width="2" d=" M-116.7239990234375,-366.7950134277344 C-116.7239990234375,-366.7950134277344 -508.8330078125,-366.7950134277344 -508.8330078125,-366.7950134277344 C-508.8330078125,-366.7950134277344 -508.8330078125,-393.6669921875 -508.8330078125,-393.6669921875 C-508.8330078125,-393.6669921875 -116.7239990234375,-393.6669921875 -116.7239990234375,-393.6669921875 C-116.7239990234375,-393.6669921875 -116.7239990234375,-366.7950134277344 -116.7239990234375,-366.7950134277344z"></path></g></g></g></svg>