<svg width="1600" height="1600" viewBox="0 0 1600 1600" fill="none" xmlns="http://www.w3.org/2000/svg">
<g clip-path="url(#clip0_40000055_8283)">
<mask id="mask0_40000055_8283" style="mask-type:luminance" maskUnits="userSpaceOnUse" x="0" y="0" width="1600" height="1600">
<path d="M1600 0H0V1600H1600V0Z" fill="white"/>
</mask>
<g mask="url(#mask0_40000055_8283)">
<mask id="mask1_40000055_8283" style="mask-type:luminance" maskUnits="userSpaceOnUse" x="0" y="0" width="1600" height="1600">
<path d="M1600 0H0V1600H1600V0Z" fill="white"/>
</mask>
<g mask="url(#mask1_40000055_8283)">
<path d="M260.67 734.246H172.188V667.928H260.67V734.246Z" stroke="#0626A9" stroke-width="2" stroke-linecap="round" stroke-linejoin="round"/>
<path d="M260.67 800.752H172.188V734.433H260.67V800.752Z" stroke="#0626A9" stroke-width="2" stroke-linecap="round" stroke-linejoin="round"/>
<path d="M260.67 867.071H172.188V800.752H260.67V867.071Z" stroke="#0626A9" stroke-width="2" stroke-linecap="round" stroke-linejoin="round"/>
<path d="M260.67 933.389H172.188V867.071H260.67V933.389Z" stroke="#0626A9" stroke-width="2" stroke-linecap="round" stroke-linejoin="round"/>
<path d="M349.151 734.246H260.67V667.928H349.151V734.246Z" stroke="#0626A9" stroke-width="2" stroke-linecap="round" stroke-linejoin="round"/>
<path d="M349.151 800.752H260.67V734.433H349.151V800.752Z" stroke="#0626A9" stroke-width="2" stroke-linecap="round" stroke-linejoin="round"/>
<path d="M349.151 867.071H260.67V800.752H349.151V867.071Z" stroke="#0626A9" stroke-width="2" stroke-linecap="round" stroke-linejoin="round"/>
<path d="M349.151 933.389H260.67V867.071H349.151V933.389Z" stroke="#0626A9" stroke-width="2" stroke-linecap="round" stroke-linejoin="round"/>
<path d="M437.633 734.246H349.151V667.928H437.633V734.246Z" stroke="#0626A9" stroke-width="2" stroke-linecap="round" stroke-linejoin="round"/>
<path d="M437.633 800.752H349.151V734.433H437.633V800.752Z" stroke="#0626A9" stroke-width="2" stroke-linecap="round" stroke-linejoin="round"/>
<path d="M437.633 867.071H349.151V800.752H437.633V867.071Z" stroke="#0626A9" stroke-width="2" stroke-linecap="round" stroke-linejoin="round"/>
<path d="M437.633 933.389H349.151V867.071H437.633V933.389Z" stroke="#0626A9" stroke-width="2" stroke-linecap="round" stroke-linejoin="round"/>
<path d="M1281.24 395.418H1122.13V236.315H1281.24V395.418Z" stroke="#0626A9" stroke-width="2" stroke-linecap="round" stroke-linejoin="round"/>
<path d="M1218.65 356.033C1218.65 365.405 1211.06 373.002 1201.69 373.002C1192.31 373.002 1184.72 365.405 1184.72 356.033C1184.72 346.661 1192.31 339.064 1201.69 339.064C1211.06 339.064 1218.65 346.661 1218.65 356.033Z" fill="#84AAE4"/>
<path d="M1218.65 356.033C1218.65 365.405 1211.06 373.002 1201.69 373.002C1192.31 373.002 1184.72 365.405 1184.72 356.033C1184.72 346.661 1192.31 339.064 1201.69 339.064C1211.06 339.064 1218.65 346.661 1218.65 356.033Z" stroke="#0626A9" stroke-width="2" stroke-linecap="round" stroke-linejoin="round"/>
<path d="M1234.08 319.144C1234.08 332.99 1243.67 344.588 1256.57 347.669V356.033H1146.8V347.669C1159.7 344.588 1169.29 332.99 1169.29 319.144V302.202C1169.29 284.313 1183.8 269.811 1201.69 269.811C1219.57 269.811 1234.08 284.313 1234.08 302.202V319.144Z" fill="#84AAE4"/>
<path d="M1234.08 319.144C1234.08 332.99 1243.67 344.588 1256.57 347.669V356.033H1146.8V347.669C1159.7 344.588 1169.29 332.99 1169.29 319.144V302.202C1169.29 284.313 1183.8 269.811 1201.69 269.811C1219.57 269.811 1234.08 284.313 1234.08 302.202V319.144Z" stroke="#0626A9" stroke-width="2" stroke-linecap="round" stroke-linejoin="round"/>
<path d="M1208.72 269.814C1209.91 268.296 1210.62 266.383 1210.62 264.304C1210.62 259.368 1206.62 255.367 1201.69 255.367C1196.75 255.367 1192.75 259.368 1192.75 264.304C1192.75 266.691 1193.68 268.86 1195.21 270.463" fill="#84AAE4"/>
<path d="M1208.72 269.814C1209.91 268.296 1210.62 266.383 1210.62 264.304C1210.62 259.368 1206.62 255.367 1201.69 255.367C1196.75 255.367 1192.75 259.368 1192.75 264.304C1192.75 266.691 1193.68 268.86 1195.21 270.463" stroke="#0626A9" stroke-width="2" stroke-linecap="round" stroke-linejoin="round"/>
<path d="M1281.24 581.14H1122.13V422.037H1281.24V581.14Z" stroke="#0626A9" stroke-width="2" stroke-linecap="round" stroke-linejoin="round"/>
<path d="M1256.57 501.588C1256.57 471.274 1232 446.7 1201.69 446.7C1171.37 446.7 1146.8 471.274 1146.8 501.588C1146.8 531.902 1171.37 556.477 1201.69 556.477C1232 556.477 1256.57 531.902 1256.57 501.588Z" stroke="#0626A9" stroke-width="2" stroke-linecap="round" stroke-linejoin="round"/>
<path d="M1201.69 501.588V459.222" stroke="#0626A9" stroke-width="2" stroke-linecap="round" stroke-linejoin="round"/>
<path d="M1226.78 501.588H1201.69" stroke="#0626A9" stroke-width="2" stroke-linecap="round" stroke-linejoin="round"/>
<path d="M1002.04 440.072C1002.04 426.551 991.081 415.591 977.56 415.591C964.039 415.591 953.079 426.551 953.079 440.072C953.079 453.593 964.039 464.553 977.56 464.553C991.081 464.553 1002.04 453.593 1002.04 440.072Z" fill="white"/>
<path d="M1002.04 440.072C1002.04 426.551 991.081 415.591 977.56 415.591C964.039 415.591 953.079 426.551 953.079 440.072C953.079 453.593 964.039 464.553 977.56 464.553C991.081 464.553 1002.04 453.593 1002.04 440.072Z" stroke="#0626A9" stroke-width="2" stroke-linecap="round" stroke-linejoin="round"/>
<path d="M1020.68 414.328C1020.68 408.3 1015.8 403.413 1009.77 403.413C1003.74 403.413 998.853 408.3 998.853 414.328C998.853 420.356 1003.74 425.244 1009.77 425.244C1015.8 425.244 1020.68 420.356 1020.68 414.328Z" fill="#84AAE4"/>
<path d="M1020.68 414.328C1020.68 408.3 1015.8 403.413 1009.77 403.413C1003.74 403.413 998.853 408.3 998.853 414.328C998.853 420.356 1003.74 425.244 1009.77 425.244C1015.8 425.244 1020.68 420.356 1020.68 414.328Z" stroke="#0626A9" stroke-width="2" stroke-linecap="round" stroke-linejoin="round"/>
<path d="M1413.19 621.326C1413.19 603.69 1398.9 589.394 1381.26 589.394C1363.63 589.394 1349.33 603.69 1349.33 621.326C1349.33 638.962 1363.63 653.258 1381.26 653.258C1398.9 653.258 1413.19 638.962 1413.19 621.326Z" fill="#84AAE4"/>
<path d="M1413.19 621.326C1413.19 603.69 1398.9 589.394 1381.26 589.394C1363.63 589.394 1349.33 603.69 1349.33 621.326C1349.33 638.962 1363.63 653.258 1381.26 653.258C1398.9 653.258 1413.19 638.962 1413.19 621.326Z" stroke="#0626A9" stroke-width="2" stroke-linecap="round" stroke-linejoin="round"/>
<path d="M1497.25 630.339C1497.25 624.463 1492.48 619.699 1486.61 619.699C1480.73 619.699 1475.97 624.463 1475.97 630.339C1475.97 636.215 1480.73 640.978 1486.61 640.978C1492.48 640.978 1497.25 636.215 1497.25 630.339Z" fill="#84AAE4"/>
<path d="M1497.25 630.339C1497.25 624.463 1492.48 619.699 1486.61 619.699C1480.73 619.699 1475.97 624.463 1475.97 630.339C1475.97 636.215 1480.73 640.978 1486.61 640.978C1492.48 640.978 1497.25 636.215 1497.25 630.339Z" stroke="#0626A9" stroke-width="2" stroke-linecap="round" stroke-linejoin="round"/>
<path d="M1530.58 620.362C1530.58 616.541 1527.48 613.444 1523.66 613.444C1519.84 613.444 1516.74 616.541 1516.74 620.362C1516.74 624.183 1519.84 627.281 1523.66 627.281C1527.48 627.281 1530.58 624.183 1530.58 620.362Z" fill="#84AAE4"/>
<path d="M1530.58 620.362C1530.58 616.541 1527.48 613.444 1523.66 613.444C1519.84 613.444 1516.74 616.541 1516.74 620.362C1516.74 624.183 1519.84 627.281 1523.66 627.281C1527.48 627.281 1530.58 624.183 1530.58 620.362Z" stroke="#0626A9" stroke-width="2" stroke-linecap="round" stroke-linejoin="round"/>
<path d="M159.414 1073.07C159.414 1063.27 151.467 1055.32 141.665 1055.32C131.863 1055.32 123.916 1063.27 123.916 1073.07C123.916 1082.87 131.863 1090.82 141.665 1090.82C151.467 1090.82 159.414 1082.87 159.414 1073.07Z" fill="#84AAE4"/>
<path d="M159.414 1073.07C159.414 1063.27 151.467 1055.32 141.665 1055.32C131.863 1055.32 123.916 1063.27 123.916 1073.07C123.916 1082.87 131.863 1090.82 141.665 1090.82C151.467 1090.82 159.414 1082.87 159.414 1073.07Z" stroke="#0626A9" stroke-width="2" stroke-linecap="round" stroke-linejoin="round"/>
<path d="M93.9499 1005.19C93.9499 1001.61 91.0479 998.704 87.4679 998.704C83.8879 998.704 80.9849 1001.61 80.9849 1005.19C80.9849 1008.77 83.8879 1011.67 87.4679 1011.67C91.0479 1011.67 93.9499 1008.77 93.9499 1005.19Z" fill="white"/>
<path d="M93.9499 1005.19C93.9499 1001.61 91.0479 998.704 87.4679 998.704C83.8879 998.704 80.9849 1001.61 80.9849 1005.19C80.9849 1008.77 83.8879 1011.67 87.4679 1011.67C91.0479 1011.67 93.9499 1008.77 93.9499 1005.19Z" stroke="#0626A9" stroke-width="2" stroke-linecap="round" stroke-linejoin="round"/>
<path d="M174.937 551.455C174.937 545.928 170.457 541.447 164.93 541.447C159.403 541.447 154.923 545.928 154.923 551.455C154.923 556.982 159.403 561.462 164.93 561.462C170.457 561.462 174.937 556.982 174.937 551.455Z" fill="white"/>
<path d="M174.937 551.455C174.937 545.928 170.457 541.447 164.93 541.447C159.403 541.447 154.923 545.928 154.923 551.455C154.923 556.982 159.403 561.462 164.93 561.462C170.457 561.462 174.937 556.982 174.937 551.455Z" stroke="#0626A9" stroke-width="2" stroke-linecap="round" stroke-linejoin="round"/>
<path d="M382.419 1110.99H1187.95V526.428C1187.95 515.356 1178.97 506.381 1167.9 506.381H402.466C391.394 506.381 382.419 515.356 382.419 526.428V1110.99Z" fill="#84AAE4"/>
<path d="M382.419 1110.99H1187.95V526.428C1187.95 515.356 1178.97 506.381 1167.9 506.381H402.466C391.394 506.381 382.419 515.356 382.419 526.428V1110.99Z" stroke="#0626A9" stroke-width="2" stroke-linecap="round" stroke-linejoin="round"/>
<path d="M400.796 1090.62H1169.57V526.751H400.796V1090.62Z" fill="white"/>
<path d="M400.796 1090.62H1169.57V526.751H400.796V1090.62Z" stroke="#0626A9" stroke-width="2" stroke-linecap="round" stroke-linejoin="round"/>
<path d="M347.634 1120.93H1222.73C1243.68 1120.93 1260.67 1103.94 1260.67 1082.99H309.701C309.701 1103.94 326.684 1120.93 347.634 1120.93Z" fill="#84AAE4"/>
<path d="M347.634 1120.93H1222.73C1243.68 1120.93 1260.67 1103.94 1260.67 1082.99H309.701C309.701 1103.94 326.684 1120.93 347.634 1120.93Z" stroke="#0626A9" stroke-width="2" stroke-linecap="round" stroke-linejoin="round"/>
<mask id="mask2_40000055_8283" style="mask-type:alpha" maskUnits="userSpaceOnUse" x="-326" y="506" width="806" height="577">
<path d="M-326 1082.77H479.529V526.428C479.529 515.356 470.554 506.381 459.482 506.381H-305.953C-317.025 506.381 -326 515.356 -326 526.428V1082.77Z" fill="#8484FA"/>
</mask>
<g mask="url(#mask2_40000055_8283)">
<path d="M356.478 944.762L642.692 1085.7V710.543L356.478 654.095V944.762Z" fill="#0626A9"/>
</g>
<mask id="mask3_40000055_8283" style="mask-type:alpha" maskUnits="userSpaceOnUse" x="382" y="506" width="806" height="577">
<path d="M382.419 1082.77H1187.95V526.428C1187.95 515.356 1178.97 506.381 1167.9 506.381H402.466C391.394 506.381 382.419 515.356 382.419 526.428V1082.77Z" fill="#8484FA"/>
</mask>
<g mask="url(#mask3_40000055_8283)">
<path d="M1486.8 608.814L946 700.379V407.831L1486.8 387.48V608.814Z" fill="#0626A9"/>
<path d="M787 800.149H521V650H787V800.149Z" fill="white"/>
<path d="M787 800.149H521V650H787V800.149Z" stroke="#0626A9" stroke-width="2" stroke-linecap="round" stroke-linejoin="round"/>
<path d="M641.202 688.222H550.944V778.479H641.202V688.222Z" fill="#84AAE4"/>
<path d="M641.202 688.222H550.944V778.479H641.202V688.222Z" stroke="#0626A9" stroke-width="2" stroke-linecap="round" stroke-linejoin="round"/>
<path d="M757.104 711.305H658.44V689.625H757.104V711.305Z" fill="white"/>
<path d="M757.104 711.305H658.44V689.625H757.104V711.305Z" stroke="#0626A9" stroke-width="2" stroke-linecap="round" stroke-linejoin="round"/>
<path d="M658.44 737.699H728.998" stroke="#0626A9" stroke-width="2" stroke-linecap="round" stroke-linejoin="round"/>
<path d="M658.44 757.388H706.666" stroke="#0626A9" stroke-width="2" stroke-linecap="round" stroke-linejoin="round"/>
<path d="M658.44 777.076H720.824" stroke="#0626A9" stroke-width="2" stroke-linecap="round" stroke-linejoin="round"/>
<path d="M787 668.229H521V650H787V668.229Z" fill="#8869D5"/>
<path d="M787 668.229H521V650H787V668.229Z" stroke="#0626A9" stroke-width="2" stroke-linecap="round" stroke-linejoin="round"/>
<path d="M1082 1030.15H816V880H1082V1030.15Z" fill="white"/>
<path d="M1082 1030.15H816V880H1082V1030.15Z" stroke="#0626A9" stroke-width="2" stroke-linecap="round" stroke-linejoin="round"/>
<path d="M936.202 918.222H845.944V1008.48H936.202V918.222Z" fill="#84AAE4"/>
<path d="M936.202 918.222H845.944V1008.48H936.202V918.222Z" stroke="#0626A9" stroke-width="2" stroke-linecap="round" stroke-linejoin="round"/>
<path d="M1052.1 941.305H953.44V919.625H1052.1V941.305Z" fill="white"/>
<path d="M1052.1 941.305H953.44V919.625H1052.1V941.305Z" stroke="#0626A9" stroke-width="2" stroke-linecap="round" stroke-linejoin="round"/>
<path d="M953.44 967.699H1024" stroke="#0626A9" stroke-width="2" stroke-linecap="round" stroke-linejoin="round"/>
<path d="M953.44 987.388H1001.67" stroke="#0626A9" stroke-width="2" stroke-linecap="round" stroke-linejoin="round"/>
<path d="M953.44 1007.08H1015.82" stroke="#0626A9" stroke-width="2" stroke-linecap="round" stroke-linejoin="round"/>
<path d="M1082 898.229H816V880H1082V898.229Z" fill="#8869D5"/>
<path d="M1082 898.229H816V880H1082V898.229Z" stroke="#0626A9" stroke-width="2" stroke-linecap="round" stroke-linejoin="round"/>
</g>
<path d="M477.667 944.762H227V654.095H477.667V944.762Z" fill="white"/>
<path d="M477.667 944.762H227V654.095H477.667V944.762Z" stroke="#0626A9" stroke-width="2" stroke-linecap="round" stroke-linejoin="round"/>
<path d="M283.133 896.267C283.133 887.333 275.89 880.09 266.956 880.09C258.022 880.09 250.779 887.333 250.779 896.267C250.779 905.201 258.022 912.443 266.956 912.443C275.89 912.443 283.133 905.201 283.133 896.267Z" fill="#84AAE4"/>
<path d="M283.133 896.267C283.133 887.333 275.89 880.09 266.956 880.09C258.022 880.09 250.779 887.333 250.779 896.267C250.779 905.201 258.022 912.443 266.956 912.443C275.89 912.443 283.133 905.201 283.133 896.267Z" stroke="#0626A9" stroke-width="2" stroke-linecap="round" stroke-linejoin="round"/>
<path d="M453.888 910.646H295.715V881.887H453.888V910.646Z" stroke="#0626A9" stroke-width="2" stroke-linecap="round" stroke-linejoin="round"/>
<path d="M283.133 831.267C283.133 822.333 275.89 815.09 266.956 815.09C258.022 815.09 250.779 822.333 250.779 831.267C250.779 840.201 258.022 847.443 266.956 847.443C275.89 847.443 283.133 840.201 283.133 831.267Z" fill="#84AAE4"/>
<path d="M283.133 831.267C283.133 822.333 275.89 815.09 266.956 815.09C258.022 815.09 250.779 822.333 250.779 831.267C250.779 840.201 258.022 847.443 266.956 847.443C275.89 847.443 283.133 840.201 283.133 831.267Z" stroke="#0626A9" stroke-width="2" stroke-linecap="round" stroke-linejoin="round"/>
<path d="M453.888 845.646H295.715V816.887H453.888V845.646Z" stroke="#0626A9" stroke-width="2" stroke-linecap="round" stroke-linejoin="round"/>
<path d="M283.133 767.267C283.133 758.333 275.89 751.09 266.956 751.09C258.022 751.09 250.779 758.333 250.779 767.267C250.779 776.201 258.022 783.443 266.956 783.443C275.89 783.443 283.133 776.201 283.133 767.267Z" fill="#84AAE4"/>
<path d="M283.133 767.267C283.133 758.333 275.89 751.09 266.956 751.09C258.022 751.09 250.779 758.333 250.779 767.267C250.779 776.201 258.022 783.443 266.956 783.443C275.89 783.443 283.133 776.201 283.133 767.267Z" stroke="#0626A9" stroke-width="2" stroke-linecap="round" stroke-linejoin="round"/>
<path d="M453.888 781.646H295.715V752.887H453.888V781.646Z" stroke="#0626A9" stroke-width="2" stroke-linecap="round" stroke-linejoin="round"/>
<path d="M283.133 703.267C283.133 694.333 275.89 687.09 266.956 687.09C258.022 687.09 250.779 694.333 250.779 703.267C250.779 712.201 258.022 719.443 266.956 719.443C275.89 719.443 283.133 712.201 283.133 703.267Z" fill="#84AAE4"/>
<path d="M283.133 703.267C283.133 694.333 275.89 687.09 266.956 687.09C258.022 687.09 250.779 694.333 250.779 703.267C250.779 712.201 258.022 719.443 266.956 719.443C275.89 719.443 283.133 712.201 283.133 703.267Z" stroke="#0626A9" stroke-width="2" stroke-linecap="round" stroke-linejoin="round"/>
<path d="M453.888 717.646H295.715V688.887H453.888V717.646Z" stroke="#0626A9" stroke-width="2" stroke-linecap="round" stroke-linejoin="round"/>
<path d="M1375.11 608.814H983V387.48H1375.11V608.814Z" fill="white"/>
<path d="M1375.11 608.814H983V387.48H1375.11V608.814Z" stroke="#0626A9" stroke-width="2" stroke-linecap="round" stroke-linejoin="round"/>
<path d="M1160.19 443.823H1027.14V576.871H1160.19V443.823Z" fill="#84AAE4"/>
<path d="M1160.19 443.823H1027.14V576.871H1160.19V443.823Z" stroke="#0626A9" stroke-width="2" stroke-linecap="round" stroke-linejoin="round"/>
<path d="M1331.04 477.849H1185.6V445.891H1331.04V477.849Z" fill="white"/>
<path d="M1331.04 477.849H1185.6V445.891H1331.04V477.849Z" stroke="#0626A9" stroke-width="2" stroke-linecap="round" stroke-linejoin="round"/>
<path d="M1185.6 516.757H1289.61" stroke="#0626A9" stroke-width="2" stroke-linecap="round" stroke-linejoin="round"/>
<path d="M1185.6 545.78H1256.69" stroke="#0626A9" stroke-width="2" stroke-linecap="round" stroke-linejoin="round"/>
<path d="M1185.6 574.803H1277.56" stroke="#0626A9" stroke-width="2" stroke-linecap="round" stroke-linejoin="round"/>
<path d="M1375.11 414.352H983V387.48H1375.11V414.352Z" fill="#8869D5"/>
<path d="M1375.11 414.352H983V387.48H1375.11V414.352Z" stroke="#0626A9" stroke-width="2" stroke-linecap="round" stroke-linejoin="round"/>
</g>
</g>
</g>
<defs>
<clipPath id="clip0_40000055_8283">
<rect width="1600" height="1600" fill="white"/>
</clipPath>
</defs>
</svg>
