<svg width="1600" height="1600" viewBox="0 0 1600 1600" fill="none" xmlns="http://www.w3.org/2000/svg">
<g clip-path="url(#clip0_20_3084)">
<mask id="mask0_20_3084" style="mask-type:luminance" maskUnits="userSpaceOnUse" x="34" y="0" width="1600" height="1600">
<path d="M1634 0H34V1600H1634V0Z" fill="white"/>
</mask>
<g mask="url(#mask0_20_3084)">
<path d="M1216.47 614.4H721.191V352.212H1216.47V614.4Z" fill="white"/>
<path d="M1216.47 614.4H721.191V352.212H1216.47V614.4Z" stroke="#0626A9" stroke-width="2" stroke-linecap="round" stroke-linejoin="round"/>
<path d="M1178.93 575.683H917.516V390.929H1178.93V575.683Z" fill="white"/>
<path d="M1178.93 575.683H917.516V390.929H1178.93V575.683Z" stroke="#0626A9" stroke-width="2" stroke-linecap="round" stroke-linejoin="round"/>
<path d="M883.152 469.191H758.727V390.929H883.152V469.191Z" fill="#84AAE4"/>
<path d="M883.152 469.191H758.727V390.929H883.152V469.191Z" stroke="#0626A9" stroke-width="2" stroke-linecap="round" stroke-linejoin="round"/>
<path d="M941.705 416.32H1154.74" stroke="#0626A9" stroke-width="2" stroke-linecap="round" stroke-linejoin="round"/>
<path d="M941.705 436.797H1072.17" stroke="#0626A9" stroke-width="2" stroke-linecap="round" stroke-linejoin="round"/>
<path d="M1216.47 317.897V352.212H721.191V317.897H1216.47Z" fill="#8869D5"/>
<path d="M1216.47 317.897V352.212H721.191V317.897H1216.47Z" stroke="#0626A9" stroke-width="2" stroke-linecap="round" stroke-linejoin="round"/>
<path d="M1168.89 335.054C1168.89 338.263 1166.29 340.864 1163.09 340.864C1159.88 340.864 1157.28 338.263 1157.28 335.054C1157.28 331.845 1159.88 329.245 1163.09 329.245C1166.29 329.245 1168.89 331.845 1168.89 335.054Z" fill="white"/>
<path d="M1186.14 335.054C1186.14 338.263 1183.54 340.864 1180.33 340.864C1177.12 340.864 1174.52 338.263 1174.52 335.054C1174.52 331.845 1177.12 329.245 1180.33 329.245C1183.54 329.245 1186.14 331.845 1186.14 335.054Z" fill="white"/>
<path d="M1203.39 335.054C1203.39 338.263 1200.79 340.864 1197.58 340.864C1194.37 340.864 1191.77 338.263 1191.77 335.054C1191.77 331.845 1194.37 329.245 1197.58 329.245C1200.79 329.245 1203.39 331.845 1203.39 335.054Z" fill="white"/>
<path d="M1275.32 502.338V816.07H798.181V502.338H1275.32Z" fill="white"/>
<path d="M1275.32 502.338V816.07H798.181V502.338H1275.32Z" stroke="#0626A9" stroke-width="2" stroke-linecap="round" stroke-linejoin="round"/>
<path d="M1275.32 502.338V536.652H798.181V502.338H1275.32Z" fill="#0626A9"/>
<path d="M1275.32 502.338V536.652H798.181V502.338H1275.32Z" stroke="#0626A9" stroke-width="2" stroke-linecap="round" stroke-linejoin="round"/>
<path d="M1201.46 766.625H879.118V598.44H1201.46V766.625Z" fill="#84AAE4"/>
<path d="M1201.46 766.625H879.118V598.44H1201.46V766.625Z" stroke="#0626A9" stroke-width="2" stroke-linecap="round" stroke-linejoin="round"/>
<path d="M1227.75 519.495C1227.75 522.704 1225.15 525.305 1221.94 525.305C1218.73 525.305 1216.13 522.704 1216.13 519.495C1216.13 516.286 1218.73 513.685 1221.94 513.685C1225.15 513.685 1227.75 516.286 1227.75 519.495Z" fill="white"/>
<path d="M1245 519.495C1245 522.704 1242.4 525.305 1239.19 525.305C1235.98 525.305 1233.38 522.704 1233.38 519.495C1233.38 516.286 1235.98 513.685 1239.19 513.685C1242.4 513.685 1245 516.286 1245 519.495Z" fill="white"/>
<path d="M1262.25 519.495C1262.25 522.704 1259.64 525.305 1256.44 525.305C1253.23 525.305 1250.63 522.704 1250.63 519.495C1250.63 516.286 1253.23 513.685 1256.44 513.685C1259.64 513.685 1262.25 516.286 1262.25 519.495Z" fill="white"/>
<path d="M1063.09 738.871L1036.75 756.934L1010.41 738.871C979.293 717.535 960.695 682.23 960.695 644.5V593.52L1036.75 565.416L1112.81 593.52V644.5C1112.81 682.23 1094.21 717.535 1063.09 738.871Z" fill="#8869D5"/>
<path d="M1063.09 738.871L1036.75 756.934L1010.41 738.871C979.293 717.535 960.695 682.23 960.695 644.5V593.52L1036.75 565.416L1112.81 593.52V644.5C1112.81 682.23 1094.21 717.535 1063.09 738.871Z" stroke="#0626A9" stroke-width="2.07456" stroke-linecap="round" stroke-linejoin="round"/>
<path d="M1058.66 723.714L1036.75 738.734L1014.85 723.714C988.969 705.969 973.501 676.61 973.501 645.233V602.838L1036.75 579.466L1100 602.838V645.233C1100 676.61 1084.53 705.969 1058.66 723.714Z" fill="white"/>
<path d="M1058.66 723.714L1036.75 738.734L1014.85 723.714C988.969 705.969 973.501 676.61 973.501 645.233V602.838L1036.75 579.466L1100 602.838V645.233C1100 676.61 1084.53 705.969 1058.66 723.714Z" stroke="#0626A9" stroke-width="2.07456" stroke-linecap="round" stroke-linejoin="round"/>
<path d="M1006.63 678.909L1062.04 623.503L1068.94 630.412L1013.38 685.976L1006.63 678.909Z" fill="#8869D5"/>
<path d="M1068.94 678.909L1013.54 623.503L1006.63 630.412L1062.2 685.976L1068.94 678.909Z" fill="#8869D5"/>
<path d="M1140.69 687.111V802.483H606.439V687.111H1140.69Z" fill="white"/>
<path d="M1140.69 687.111V802.483H606.439V687.111H1140.69Z" stroke="#0626A9" stroke-width="2" stroke-linecap="round" stroke-linejoin="round"/>
<path d="M1140.69 652.797V687.111H606.439V652.797H1140.69Z" fill="#8869D5"/>
<path d="M1140.69 652.797V687.111H606.439V652.797H1140.69Z" stroke="#0626A9" stroke-width="2" stroke-linecap="round" stroke-linejoin="round"/>
<path d="M873.563 724.321H1093.38" stroke="#0626A9" stroke-width="2" stroke-linecap="round" stroke-linejoin="round"/>
<path d="M653.743 724.321H832.419" stroke="#0626A9" stroke-width="2" stroke-linecap="round" stroke-linejoin="round"/>
<path d="M653.743 744.797H1011.29" stroke="#0626A9" stroke-width="2" stroke-linecap="round" stroke-linejoin="round"/>
<path d="M1093.11 669.954C1093.11 673.163 1090.51 675.764 1087.3 675.764C1084.1 675.764 1081.49 673.163 1081.49 669.954C1081.49 666.745 1084.1 664.144 1087.3 664.144C1090.51 664.144 1093.11 666.745 1093.11 669.954Z" fill="white"/>
<path d="M1110.36 669.954C1110.36 673.163 1107.76 675.764 1104.55 675.764C1101.34 675.764 1098.74 673.163 1098.74 669.954C1098.74 666.745 1101.34 664.144 1104.55 664.144C1107.76 664.144 1110.36 666.745 1110.36 669.954Z" fill="white"/>
<path d="M1127.61 669.954C1127.61 673.163 1125.01 675.764 1121.8 675.764C1118.59 675.764 1115.99 673.163 1115.99 669.954C1115.99 666.745 1118.59 664.144 1121.8 664.144C1125.01 664.144 1127.61 666.745 1127.61 669.954Z" fill="white"/>
<path d="M422.637 1168.19H1016.62C1031.68 1168.19 1041.9 1155.98 1039.46 1140.93L989.121 830.664C986.679 815.609 972.495 803.406 957.44 803.406H363.456C348.401 803.406 338.177 815.609 340.619 830.664L390.956 1140.93C393.398 1155.98 407.582 1168.19 422.637 1168.19Z" fill="#0626A9"/>
<path d="M422.637 1168.19H1016.62C1031.68 1168.19 1041.9 1155.98 1039.46 1140.93L989.121 830.664C986.679 815.609 972.495 803.406 957.44 803.406H363.456C348.401 803.406 338.177 815.609 340.619 830.664L390.956 1140.93C393.398 1155.98 407.582 1168.19 422.637 1168.19Z" stroke="#0626A9" stroke-width="2" stroke-linecap="round" stroke-linejoin="round"/>
<path d="M410.459 1168.19H1004.44C1019.5 1168.19 1029.72 1155.98 1027.28 1140.93L976.943 830.664C974.501 815.609 960.317 803.406 945.262 803.406H351.277C336.222 803.406 325.999 815.609 328.441 830.664L378.778 1140.93C381.22 1155.98 395.404 1168.19 410.459 1168.19Z" fill="#84AAE4"/>
<path d="M410.459 1168.19H1004.44C1019.5 1168.19 1029.72 1155.98 1027.28 1140.93L976.943 830.664C974.501 815.609 960.317 803.406 945.262 803.406H351.277C336.222 803.406 325.999 815.609 328.441 830.664L378.778 1140.93C381.22 1155.98 395.404 1168.19 410.459 1168.19Z" stroke="#0626A9" stroke-width="2" stroke-linecap="round" stroke-linejoin="round"/>
<path d="M553.399 1252.96H669.855L760.065 1058.61L756.513 1038.32L553.399 1252.96Z" fill="#0626A9"/>
<path d="M553.399 1252.96H669.855L760.065 1058.61L756.513 1038.32L553.399 1252.96Z" stroke="#0626A9" stroke-width="2" stroke-linecap="round" stroke-linejoin="round"/>
<path d="M642.847 1031.72L539.698 1252.96H656.154L756.906 1038.32" fill="#84AAE4"/>
<path d="M642.847 1031.72L539.698 1252.96H656.154L756.906 1038.32" stroke="#0626A9" stroke-width="2" stroke-linecap="round" stroke-linejoin="round"/>
<path d="M783.942 1237.46H666.246V1252.96H799.447C799.447 1244.4 792.505 1237.46 783.942 1237.46Z" fill="#0626A9"/>
<path d="M783.942 1237.46H666.246V1252.96H799.447C799.447 1244.4 792.505 1237.46 783.942 1237.46Z" stroke="#0626A9" stroke-width="2" stroke-linecap="round" stroke-linejoin="round"/>
<path d="M1568.28 1288.15H99.7168C99.7168 1268.71 115.47 1252.96 134.904 1252.96H1533.1C1552.53 1252.96 1568.28 1268.71 1568.28 1288.15Z" fill="#84AAE4"/>
<path d="M1568.28 1288.15H99.7168C99.7168 1268.71 115.47 1252.96 134.904 1252.96H1533.1C1552.53 1252.96 1568.28 1268.71 1568.28 1288.15Z" stroke="#0626A9" stroke-width="2" stroke-linecap="round" stroke-linejoin="round"/>
</g>
<path d="M139.71 722.534L455.302 493.709L443.007 476.752L127.415 705.577L139.71 722.534Z" fill="#0626A9"/>
<path d="M152.183 728.064L306.752 612.613L283.415 581.495L128.847 696.944C120.254 703.388 118.512 715.579 124.956 724.172C131.4 732.765 143.59 734.508 152.183 728.064Z" fill="#84AAE4"/>
<path d="M152.183 728.064L306.752 612.613L283.415 581.495L128.847 696.944C120.254 703.388 118.512 715.579 124.956 724.172C131.4 732.765 143.59 734.508 152.183 728.064Z" stroke="#0626A9" stroke-width="2" stroke-linecap="round" stroke-linejoin="round"/>
<path d="M295.06 438.553C284.068 535.502 353.751 623.005 450.7 633.996C547.648 644.987 635.151 575.304 646.142 478.356C657.133 381.407 587.45 293.905 490.502 282.914C393.554 271.923 306.051 341.605 295.06 438.553Z" fill="#8869D5"/>
<path d="M295.06 438.553C284.068 535.502 353.751 623.005 450.7 633.996C547.648 644.987 635.151 575.304 646.142 478.356C657.133 381.407 587.45 293.905 490.502 282.914C393.554 271.923 306.051 341.605 295.06 438.553Z" stroke="#0626A9" stroke-width="2" stroke-linecap="round" stroke-linejoin="round"/>
<path d="M327.58 442.24C318.625 521.228 375.398 592.521 454.387 601.476C533.375 610.431 604.667 553.657 613.622 474.668C622.577 395.68 565.804 324.388 486.815 315.433C407.827 306.478 336.535 363.251 327.58 442.24Z" fill="white"/>
<path d="M327.58 442.24C318.625 521.228 375.398 592.521 454.387 601.476C533.375 610.431 604.667 553.657 613.622 474.668C622.577 395.68 565.804 324.388 486.815 315.433C407.827 306.478 336.535 363.251 327.58 442.24Z" stroke="#0626A9" stroke-width="2" stroke-linecap="round" stroke-linejoin="round"/>
</g>
<defs>
<clipPath id="clip0_20_3084">
<rect width="1600" height="1600" fill="white"/>
</clipPath>
</defs>
</svg>
