<svg xmlns="http://www.w3.org/2000/svg" xmlns:xlink="http://www.w3.org/1999/xlink" viewBox="0 0 1600 1600" width="1600" height="1600" preserveAspectRatio="xMidYMid meet" style="width: 100%; height: 100%; transform: translate3d(0px, 0px, 0px); content-visibility: visible;"><defs><clipPath id="__lottie_element_2"><rect width="1600" height="1600" x="0" y="0"></rect></clipPath><g id="__lottie_element_51"><g transform="matrix(0.9914100170135498,0,0,0.9914100170135498,800.2355346679688,800.3230590820312)" opacity="1" style="display: block;"><g opacity="1" transform="matrix(1,0,0,1,0,0)"><g opacity="1" transform="matrix(1,0,0,1,0,0)"><path fill="rgb(249,74,130)" fill-opacity="1" d=" M64.60199737548828,147.2899932861328 C64.60199737548828,147.2899932861328 27.41699981689453,172.78799438476562 27.41699981689453,172.78799438476562 C27.41699981689453,172.78799438476562 -9.767999649047852,147.2899932861328 -9.767999649047852,147.2899932861328 C-53.69499969482422,117.16799926757812 -79.9520034790039,67.3290023803711 -79.9520034790039,14.065999984741211 C-79.9520034790039,14.065999984741211 -79.9520034790039,-57.900001525878906 -79.9520034790039,-57.900001525878906 C-79.9520034790039,-57.900001525878906 27.41699981689453,-97.57499694824219 27.41699981689453,-97.57499694824219 C27.41699981689453,-97.57499694824219 134.78500366210938,-57.900001525878906 134.78500366210938,-57.900001525878906 C134.78500366210938,-57.900001525878906 134.78500366210938,14.065999984741211 134.78500366210938,14.065999984741211 C134.78500366210938,67.3290023803711 108.52899932861328,117.16799926757812 64.60199737548828,147.2899932861328z"></path><path stroke-linecap="round" stroke-linejoin="round" fill-opacity="0" stroke="rgb(32,40,112)" stroke-opacity="1" stroke-width="2.017" d=" M64.60199737548828,147.2899932861328 C64.60199737548828,147.2899932861328 27.41699981689453,172.78799438476562 27.41699981689453,172.78799438476562 C27.41699981689453,172.78799438476562 -9.767999649047852,147.2899932861328 -9.767999649047852,147.2899932861328 C-53.69499969482422,117.16799926757812 -79.9520034790039,67.3290023803711 -79.9520034790039,14.065999984741211 C-79.9520034790039,14.065999984741211 -79.9520034790039,-57.900001525878906 -79.9520034790039,-57.900001525878906 C-79.9520034790039,-57.900001525878906 27.41699981689453,-97.57499694824219 27.41699981689453,-97.57499694824219 C27.41699981689453,-97.57499694824219 134.78500366210938,-57.900001525878906 134.78500366210938,-57.900001525878906 C134.78500366210938,-57.900001525878906 134.78500366210938,14.065999984741211 134.78500366210938,14.065999984741211 C134.78500366210938,67.3290023803711 108.52899932861328,117.16799926757812 64.60199737548828,147.2899932861328z"></path></g></g></g></g><mask id="__lottie_element_51_1" mask-type="alpha"><use xlink:href="#__lottie_element_51"></use></mask></defs><g clip-path="url(#__lottie_element_2)"><g transform="matrix(1,0,0,1,800,800)" opacity="1" style="display: block;"><g opacity="1" transform="matrix(1,0,0,1,0,0)"><path stroke-linecap="round" stroke-linejoin="round" fill-opacity="0" stroke="rgb(32,40,112)" stroke-opacity="1" stroke-width="2" d=" M-459.0270080566406,419.10400390625 C-459.0270080566406,419.10400390625 459.0270080566406,419.10400390625 459.0270080566406,419.10400390625"></path></g></g><g transform="matrix(1,0,0,1,800,800)" opacity="1" style="display: block;"><g opacity="1" transform="matrix(1,0,0,1,0,0)"><path fill="rgb(132,132,250)" fill-opacity="1" d=" M-297.67498779296875,237.87399291992188 C-297.67498779296875,237.87399291992188 -267.4339904785156,231.71800231933594 -267.4339904785156,231.71800231933594 C-267.4339904785156,231.71800231933594 -256.4859924316406,181.43800354003906 -256.4859924316406,181.43800354003906 C-256.4859924316406,181.43800354003906 -281.4309997558594,163.26499938964844 -281.4309997558594,163.26499938964844 C-281.4309997558594,163.26499938964844 -291.5409851074219,131.625 -291.5409851074219,131.625 C-291.5409851074219,131.625 -281.7510070800781,102.35199737548828 -281.7510070800781,102.35199737548828 C-281.7510070800781,102.35199737548828 -319.8160095214844,67.73400115966797 -319.8160095214844,67.73400115966797 C-319.8160095214844,67.73400115966797 -348.02801513671875,80.2490005493164 -348.02801513671875,80.2490005493164 C-348.02801513671875,80.2490005493164 -380.4859924316406,73.18599700927734 -380.4859924316406,73.18599700927734 C-380.4859924316406,73.18599700927734 -400.9410095214844,50.07400131225586 -400.9410095214844,50.07400131225586 C-400.9410095214844,50.07400131225586 -449.9540100097656,65.72799682617188 -449.9540100097656,65.72799682617188 C-449.9540100097656,65.72799682617188 -453.2239990234375,96.41999816894531 -453.2239990234375,96.41999816894531 C-453.2239990234375,96.41999816894531 -475.5690002441406,120.99400329589844 -475.5690002441406,120.99400329589844 C-475.5690002441406,120.99400329589844 -505.8139953613281,127.15399932861328 -505.8139953613281,127.15399932861328 C-505.8139953613281,127.15399932861328 -516.7630004882812,177.42599487304688 -516.7630004882812,177.42599487304688 C-516.7630004882812,177.42599487304688 -491.81298828125,195.60299682617188 -491.81298828125,195.60299682617188 C-491.81298828125,195.60299682617188 -481.71099853515625,227.2429962158203 -481.71099853515625,227.2429962158203 C-481.71099853515625,227.2429962158203 -491.49700927734375,256.5119934082031 -491.49700927734375,256.5119934082031 C-491.49700927734375,256.5119934082031 -453.4280090332031,291.1340026855469 -453.4280090332031,291.1340026855469 C-453.4280090332031,291.1340026855469 -425.21600341796875,278.6180114746094 -425.21600341796875,278.6180114746094 C-425.21600341796875,278.6180114746094 -392.7619934082031,285.68499755859375 -392.7619934082031,285.68499755859375 C-392.7619934082031,285.68499755859375 -372.3070068359375,308.7980041503906 -372.3070068359375,308.7980041503906 C-372.3070068359375,308.7980041503906 -323.2900085449219,293.1400146484375 -323.2900085449219,293.1400146484375 C-323.2900085449219,293.1400146484375 -320.02301025390625,262.45098876953125 -320.02301025390625,262.45098876953125 C-320.02301025390625,262.45098876953125 -297.67498779296875,237.87399291992188 -297.67498779296875,237.87399291992188z M-396.2340087890625,223.5749969482422 C-420.61199951171875,218.26400756835938 -436.07000732421875,194.19900512695312 -430.76300048828125,169.8249969482422 C-425.45599365234375,145.44400024414062 -401.3909912109375,129.98599243164062 -377.010009765625,135.29299926757812 C-352.635986328125,140.60000610351562 -337.17401123046875,164.66799926757812 -342.4849853515625,189.04600524902344 C-347.78900146484375,213.42300415039062 -371.8559875488281,228.88600158691406 -396.2340087890625,223.5749969482422z"></path><path stroke-linecap="round" stroke-linejoin="round" fill-opacity="0" stroke="rgb(32,40,112)" stroke-opacity="1" stroke-width="2" d=" M-297.67498779296875,237.87399291992188 C-297.67498779296875,237.87399291992188 -267.4339904785156,231.71800231933594 -267.4339904785156,231.71800231933594 C-267.4339904785156,231.71800231933594 -256.4859924316406,181.43800354003906 -256.4859924316406,181.43800354003906 C-256.4859924316406,181.43800354003906 -281.4309997558594,163.26499938964844 -281.4309997558594,163.26499938964844 C-281.4309997558594,163.26499938964844 -291.5409851074219,131.625 -291.5409851074219,131.625 C-291.5409851074219,131.625 -281.7510070800781,102.35199737548828 -281.7510070800781,102.35199737548828 C-281.7510070800781,102.35199737548828 -319.8160095214844,67.73400115966797 -319.8160095214844,67.73400115966797 C-319.8160095214844,67.73400115966797 -348.02801513671875,80.2490005493164 -348.02801513671875,80.2490005493164 C-348.02801513671875,80.2490005493164 -380.4859924316406,73.18599700927734 -380.4859924316406,73.18599700927734 C-380.4859924316406,73.18599700927734 -400.9410095214844,50.07400131225586 -400.9410095214844,50.07400131225586 C-400.9410095214844,50.07400131225586 -449.9540100097656,65.72799682617188 -449.9540100097656,65.72799682617188 C-449.9540100097656,65.72799682617188 -453.2239990234375,96.41999816894531 -453.2239990234375,96.41999816894531 C-453.2239990234375,96.41999816894531 -475.5690002441406,120.99400329589844 -475.5690002441406,120.99400329589844 C-475.5690002441406,120.99400329589844 -505.8139953613281,127.15399932861328 -505.8139953613281,127.15399932861328 C-505.8139953613281,127.15399932861328 -516.7630004882812,177.42599487304688 -516.7630004882812,177.42599487304688 C-516.7630004882812,177.42599487304688 -491.81298828125,195.60299682617188 -491.81298828125,195.60299682617188 C-491.81298828125,195.60299682617188 -481.71099853515625,227.2429962158203 -481.71099853515625,227.2429962158203 C-481.71099853515625,227.2429962158203 -491.49700927734375,256.5119934082031 -491.49700927734375,256.5119934082031 C-491.49700927734375,256.5119934082031 -453.4280090332031,291.1340026855469 -453.4280090332031,291.1340026855469 C-453.4280090332031,291.1340026855469 -425.21600341796875,278.6180114746094 -425.21600341796875,278.6180114746094 C-425.21600341796875,278.6180114746094 -392.7619934082031,285.68499755859375 -392.7619934082031,285.68499755859375 C-392.7619934082031,285.68499755859375 -372.3070068359375,308.7980041503906 -372.3070068359375,308.7980041503906 C-372.3070068359375,308.7980041503906 -323.2900085449219,293.1400146484375 -323.2900085449219,293.1400146484375 C-323.2900085449219,293.1400146484375 -320.02301025390625,262.45098876953125 -320.02301025390625,262.45098876953125 C-320.02301025390625,262.45098876953125 -297.67498779296875,237.87399291992188 -297.67498779296875,237.87399291992188z M-396.2340087890625,223.5749969482422 C-420.61199951171875,218.26400756835938 -436.07000732421875,194.19900512695312 -430.76300048828125,169.8249969482422 C-425.45599365234375,145.44400024414062 -401.3909912109375,129.98599243164062 -377.010009765625,135.29299926757812 C-352.635986328125,140.60000610351562 -337.17401123046875,164.66799926757812 -342.4849853515625,189.04600524902344 C-347.78900146484375,213.42300415039062 -371.8559875488281,228.88600158691406 -396.2340087890625,223.5749969482422z"></path></g></g><g transform="matrix(1,0,0,1,800,800)" opacity="1" style="display: block;"><g opacity="1" transform="matrix(1,0,0,1,0,0)"><path fill="rgb(32,40,112)" fill-opacity="1" d=" M-197.3159942626953,-214.6699981689453 C-197.3159942626953,-214.6699981689453 -170.5469970703125,-250.8159942626953 -170.5469970703125,-250.8159942626953 C-170.5469970703125,-250.8159942626953 -207.68899536132812,-315.97100830078125 -207.68899536132812,-315.97100830078125 C-207.68899536132812,-315.97100830078125 -252.4340057373047,-311.3500061035156 -252.4340057373047,-311.3500061035156 C-252.4340057373047,-311.3500061035156 -294.2279968261719,-335.7820129394531 -294.2279968261719,-335.7820129394531 C-294.2279968261719,-335.7820129394531 -312.1520080566406,-377.0450134277344 -312.1520080566406,-377.0450134277344 C-312.1520080566406,-377.0450134277344 -387.1419982910156,-377.4570007324219 -387.1419982910156,-377.4570007324219 C-387.1419982910156,-377.4570007324219 -405.5140075683594,-336.3970031738281 -405.5140075683594,-336.3970031738281 C-405.5140075683594,-336.3970031738281 -447.5710144042969,-312.41400146484375 -447.5710144042969,-312.41400146484375 C-447.5710144042969,-312.41400146484375 -492.26300048828125,-317.5220031738281 -492.26300048828125,-317.5220031738281 C-492.26300048828125,-317.5220031738281 -530.1179809570312,-252.78599548339844 -530.1179809570312,-252.78599548339844 C-530.1179809570312,-252.78599548339844 -503.7449951171875,-216.33999633789062 -503.7449951171875,-216.33999633789062 C-503.7449951171875,-216.33999633789062 -504.00799560546875,-167.9320068359375 -504.00799560546875,-167.9320068359375 C-504.00799560546875,-167.9320068359375 -530.7769775390625,-131.7779998779297 -530.7769775390625,-131.7779998779297 C-530.7769775390625,-131.7779998779297 -493.6409912109375,-66.62999725341797 -493.6409912109375,-66.62999725341797 C-493.6409912109375,-66.62999725341797 -448.8890075683594,-71.25199890136719 -448.8890075683594,-71.25199890136719 C-448.8890075683594,-71.25199890136719 -407.10198974609375,-46.8120002746582 -407.10198974609375,-46.8120002746582 C-407.10198974609375,-46.8120002746582 -389.1789855957031,-5.557000160217285 -389.1789855957031,-5.557000160217285 C-389.1789855957031,-5.557000160217285 -314.1820068359375,-5.144999980926514 -314.1820068359375,-5.144999980926514 C-314.1820068359375,-5.144999980926514 -295.8089904785156,-46.20500183105469 -295.8089904785156,-46.20500183105469 C-295.8089904785156,-46.20500183105469 -253.7530059814453,-70.18000030517578 -253.7530059814453,-70.18000030517578 C-253.7530059814453,-70.18000030517578 -209.05999755859375,-65.0719985961914 -209.05999755859375,-65.0719985961914 C-209.05999755859375,-65.0719985961914 -171.20599365234375,-129.8159942626953 -171.20599365234375,-129.8159942626953 C-171.20599365234375,-129.8159942626953 -197.5780029296875,-166.25399780273438 -197.5780029296875,-166.25399780273438 C-197.5780029296875,-166.25399780273438 -197.3159942626953,-214.6699981689453 -197.3159942626953,-214.6699981689453z M-318.0539855957031,-134.10000610351562 C-349.6470031738281,-116.09400177001953 -389.8529968261719,-127.10399627685547 -407.8590087890625,-158.68899536132812 C-425.87200927734375,-190.28199768066406 -414.86199951171875,-230.48899841308594 -383.2690124511719,-248.5019989013672 C-351.6839904785156,-266.50799560546875 -311.4700012207031,-255.4980010986328 -293.4639892578125,-223.90499877929688 C-275.45098876953125,-192.32000732421875 -286.46099853515625,-152.1060028076172 -318.0539855957031,-134.10000610351562z"></path><path stroke-linecap="round" stroke-linejoin="round" fill-opacity="0" stroke="rgb(32,40,112)" stroke-opacity="1" stroke-width="1.991" d=" M-197.3159942626953,-214.6699981689453 C-197.3159942626953,-214.6699981689453 -170.5469970703125,-250.8159942626953 -170.5469970703125,-250.8159942626953 C-170.5469970703125,-250.8159942626953 -207.68899536132812,-315.97100830078125 -207.68899536132812,-315.97100830078125 C-207.68899536132812,-315.97100830078125 -252.4340057373047,-311.3500061035156 -252.4340057373047,-311.3500061035156 C-252.4340057373047,-311.3500061035156 -294.2279968261719,-335.7820129394531 -294.2279968261719,-335.7820129394531 C-294.2279968261719,-335.7820129394531 -312.1520080566406,-377.0450134277344 -312.1520080566406,-377.0450134277344 C-312.1520080566406,-377.0450134277344 -387.1419982910156,-377.4570007324219 -387.1419982910156,-377.4570007324219 C-387.1419982910156,-377.4570007324219 -405.5140075683594,-336.3970031738281 -405.5140075683594,-336.3970031738281 C-405.5140075683594,-336.3970031738281 -447.5710144042969,-312.41400146484375 -447.5710144042969,-312.41400146484375 C-447.5710144042969,-312.41400146484375 -492.26300048828125,-317.5220031738281 -492.26300048828125,-317.5220031738281 C-492.26300048828125,-317.5220031738281 -530.1179809570312,-252.78599548339844 -530.1179809570312,-252.78599548339844 C-530.1179809570312,-252.78599548339844 -503.7449951171875,-216.33999633789062 -503.7449951171875,-216.33999633789062 C-503.7449951171875,-216.33999633789062 -504.00799560546875,-167.9320068359375 -504.00799560546875,-167.9320068359375 C-504.00799560546875,-167.9320068359375 -530.7769775390625,-131.7779998779297 -530.7769775390625,-131.7779998779297 C-530.7769775390625,-131.7779998779297 -493.6409912109375,-66.62999725341797 -493.6409912109375,-66.62999725341797 C-493.6409912109375,-66.62999725341797 -448.8890075683594,-71.25199890136719 -448.8890075683594,-71.25199890136719 C-448.8890075683594,-71.25199890136719 -407.10198974609375,-46.8120002746582 -407.10198974609375,-46.8120002746582 C-407.10198974609375,-46.8120002746582 -389.1789855957031,-5.557000160217285 -389.1789855957031,-5.557000160217285 C-389.1789855957031,-5.557000160217285 -314.1820068359375,-5.144999980926514 -314.1820068359375,-5.144999980926514 C-314.1820068359375,-5.144999980926514 -295.8089904785156,-46.20500183105469 -295.8089904785156,-46.20500183105469 C-295.8089904785156,-46.20500183105469 -253.7530059814453,-70.18000030517578 -253.7530059814453,-70.18000030517578 C-253.7530059814453,-70.18000030517578 -209.05999755859375,-65.0719985961914 -209.05999755859375,-65.0719985961914 C-209.05999755859375,-65.0719985961914 -171.20599365234375,-129.8159942626953 -171.20599365234375,-129.8159942626953 C-171.20599365234375,-129.8159942626953 -197.5780029296875,-166.25399780273438 -197.5780029296875,-166.25399780273438 C-197.5780029296875,-166.25399780273438 -197.3159942626953,-214.6699981689453 -197.3159942626953,-214.6699981689453z M-318.0539855957031,-134.10000610351562 C-349.6470031738281,-116.09400177001953 -389.8529968261719,-127.10399627685547 -407.8590087890625,-158.68899536132812 C-425.87200927734375,-190.28199768066406 -414.86199951171875,-230.48899841308594 -383.2690124511719,-248.5019989013672 C-351.6839904785156,-266.50799560546875 -311.4700012207031,-255.4980010986328 -293.4639892578125,-223.90499877929688 C-275.45098876953125,-192.32000732421875 -286.46099853515625,-152.1060028076172 -318.0539855957031,-134.10000610351562z"></path></g></g><g transform="matrix(1,0,0,1,800,800)" opacity="1" style="display: block;"><g opacity="1" transform="matrix(1,0,0,1,0,0)"><g opacity="1" transform="matrix(1,0,0,1,0,0)"><path fill="rgb(132,132,250)" fill-opacity="1" d=" M105.05999755859375,406.49798583984375 C105.05999755859375,406.49798583984375 -63.020999908447266,406.49798583984375 -63.020999908447266,406.49798583984375 C-63.020999908447266,406.49798583984375 -63.020999908447266,127.06400299072266 -63.020999908447266,127.06400299072266 C-63.020999908447266,127.06400299072266 105.05999755859375,127.06400299072266 105.05999755859375,127.06400299072266 C105.05999755859375,127.06400299072266 105.05999755859375,406.49798583984375 105.05999755859375,406.49798583984375z"></path><path stroke-linecap="round" stroke-linejoin="round" fill-opacity="0" stroke="rgb(32,40,112)" stroke-opacity="1" stroke-width="2" d=" M105.05999755859375,406.49798583984375 C105.05999755859375,406.49798583984375 -63.020999908447266,406.49798583984375 -63.020999908447266,406.49798583984375 C-63.020999908447266,406.49798583984375 -63.020999908447266,127.06400299072266 -63.020999908447266,127.06400299072266 C-63.020999908447266,127.06400299072266 105.05999755859375,127.06400299072266 105.05999755859375,127.06400299072266 C105.05999755859375,127.06400299072266 105.05999755859375,406.49798583984375 105.05999755859375,406.49798583984375z"></path></g><g opacity="1" transform="matrix(1,0,0,1,0,0)"><path fill="rgb(132,132,250)" fill-opacity="1" d=" M158.28599548339844,419.10400390625 C158.28599548339844,419.10400390625 -116.24600219726562,419.10400390625 -116.24600219726562,419.10400390625 C-116.24600219726562,419.10400390625 -116.24600219726562,416.82000732421875 -116.24600219726562,416.82000732421875 C-116.24600219726562,404.1570129394531 -105.98200225830078,393.8919982910156 -93.31900024414062,393.8919982910156 C-93.31900024414062,393.8919982910156 135.35800170898438,393.8919982910156 135.35800170898438,393.8919982910156 C148.02099609375,393.8919982910156 158.28599548339844,404.1570129394531 158.28599548339844,416.82000732421875 C158.28599548339844,416.82000732421875 158.28599548339844,419.10400390625 158.28599548339844,419.10400390625z"></path><path stroke-linecap="round" stroke-linejoin="round" fill-opacity="0" stroke="rgb(32,40,112)" stroke-opacity="1" stroke-width="2" d=" M158.28599548339844,419.10400390625 C158.28599548339844,419.10400390625 -116.24600219726562,419.10400390625 -116.24600219726562,419.10400390625 C-116.24600219726562,419.10400390625 -116.24600219726562,416.82000732421875 -116.24600219726562,416.82000732421875 C-116.24600219726562,404.1570129394531 -105.98200225830078,393.8919982910156 -93.31900024414062,393.8919982910156 C-93.31900024414062,393.8919982910156 135.35800170898438,393.8919982910156 135.35800170898438,393.8919982910156 C148.02099609375,393.8919982910156 158.28599548339844,404.1570129394531 158.28599548339844,416.82000732421875 C158.28599548339844,416.82000732421875 158.28599548339844,419.10400390625 158.28599548339844,419.10400390625z"></path></g><g opacity="1" transform="matrix(1,0,0,1,0,0)"><path fill="rgb(32,40,112)" fill-opacity="1" d=" M109.0260009765625,256.1780090332031 C109.0260009765625,256.1780090332031 -62.89400100708008,356.1520080566406 -62.89400100708008,356.1520080566406 C-62.89400100708008,356.1520080566406 -62.89400100708008,259.1600036621094 -62.89400100708008,259.1600036621094"></path><path stroke-linecap="round" stroke-linejoin="round" fill-opacity="0" stroke="rgb(32,40,112)" stroke-opacity="1" stroke-width="1.991" d=" M109.0260009765625,256.1780090332031 C109.0260009765625,256.1780090332031 -62.89400100708008,356.1520080566406 -62.89400100708008,356.1520080566406 C-62.89400100708008,356.1520080566406 -62.89400100708008,259.1600036621094 -62.89400100708008,259.1600036621094"></path></g></g><g opacity="1" transform="matrix(1,0,0,1,0,0)"><path fill="rgb(132,132,250)" fill-opacity="1" d=" M376.0899963378906,266.2560119628906 C376.0899963378906,266.2560119628906 -334.0509948730469,266.2560119628906 -334.0509948730469,266.2560119628906 C-343.3340148925781,266.2560119628906 -350.8590087890625,258.7309875488281 -350.8590087890625,249.447998046875 C-350.8590087890625,249.447998046875 -350.8590087890625,-178.63299560546875 -350.8590087890625,-178.63299560546875 C-350.8590087890625,-187.91600036621094 -343.3340148925781,-195.4409942626953 -334.0509948730469,-195.4409942626953 C-334.0509948730469,-195.4409942626953 376.0899963378906,-195.4409942626953 376.0899963378906,-195.4409942626953 C385.37298583984375,-195.4409942626953 392.89801025390625,-187.91600036621094 392.89801025390625,-178.63299560546875 C392.89801025390625,-178.63299560546875 392.89801025390625,249.447998046875 392.89801025390625,249.447998046875 C392.89801025390625,258.7309875488281 385.37298583984375,266.2560119628906 376.0899963378906,266.2560119628906z"></path><path stroke-linecap="round" stroke-linejoin="round" fill-opacity="0" stroke="rgb(32,40,112)" stroke-opacity="1" stroke-width="2" d=" M376.0899963378906,266.2560119628906 C376.0899963378906,266.2560119628906 -334.0509948730469,266.2560119628906 -334.0509948730469,266.2560119628906 C-343.3340148925781,266.2560119628906 -350.8590087890625,258.7309875488281 -350.8590087890625,249.447998046875 C-350.8590087890625,249.447998046875 -350.8590087890625,-178.63299560546875 -350.8590087890625,-178.63299560546875 C-350.8590087890625,-187.91600036621094 -343.3340148925781,-195.4409942626953 -334.0509948730469,-195.4409942626953 C-334.0509948730469,-195.4409942626953 376.0899963378906,-195.4409942626953 376.0899963378906,-195.4409942626953 C385.37298583984375,-195.4409942626953 392.89801025390625,-187.91600036621094 392.89801025390625,-178.63299560546875 C392.89801025390625,-178.63299560546875 392.89801025390625,249.447998046875 392.89801025390625,249.447998046875 C392.89801025390625,258.7309875488281 385.37298583984375,266.2560119628906 376.0899963378906,266.2560119628906z"></path></g><g opacity="1" transform="matrix(1,0,0,1,0,0)"><path fill="rgb(255,255,255)" fill-opacity="1" d=" M-320.1600036621094,-157.93800354003906 C-320.1600036621094,-157.93800354003906 -320.1600036621094,228.7519989013672 -320.1600036621094,228.7519989013672 C-320.1600036621094,228.7519989013672 362.1990051269531,228.7519989013672 362.1990051269531,228.7519989013672 C362.1990051269531,228.7519989013672 362.1990051269531,-157.93800354003906 362.1990051269531,-157.93800354003906 C362.1990051269531,-157.93800354003906 -320.1600036621094,-157.93800354003906 -320.1600036621094,-157.93800354003906z"></path><path stroke-linecap="round" stroke-linejoin="round" fill-opacity="0" stroke="rgb(32,40,112)" stroke-opacity="1" stroke-width="2" d=" M-320.1600036621094,-157.93800354003906 C-320.1600036621094,-157.93800354003906 -320.1600036621094,228.7519989013672 -320.1600036621094,228.7519989013672 C-320.1600036621094,228.7519989013672 362.1990051269531,228.7519989013672 362.1990051269531,228.7519989013672 C362.1990051269531,228.7519989013672 362.1990051269531,-157.93800354003906 362.1990051269531,-157.93800354003906 C362.1990051269531,-157.93800354003906 -320.1600036621094,-157.93800354003906 -320.1600036621094,-157.93800354003906z"></path></g></g><g transform="matrix(1,0,0,1,800,800)" opacity="1" style="display: block;"><g opacity="1" transform="matrix(1,0,0,1,0,0)"><g opacity="1" transform="matrix(1,0,0,1,0,0)"><path fill="rgb(249,74,130)" fill-opacity="1" d=" M64.60199737548828,147.2899932861328 C64.60199737548828,147.2899932861328 27.41699981689453,172.78799438476562 27.41699981689453,172.78799438476562 C27.41699981689453,172.78799438476562 -9.767999649047852,147.2899932861328 -9.767999649047852,147.2899932861328 C-53.69499969482422,117.16799926757812 -79.9520034790039,67.3290023803711 -79.9520034790039,14.065999984741211 C-79.9520034790039,14.065999984741211 -79.9520034790039,-57.900001525878906 -79.9520034790039,-57.900001525878906 C-79.9520034790039,-57.900001525878906 27.41699981689453,-97.57499694824219 27.41699981689453,-97.57499694824219 C27.41699981689453,-97.57499694824219 134.78500366210938,-57.900001525878906 134.78500366210938,-57.900001525878906 C134.78500366210938,-57.900001525878906 134.78500366210938,14.065999984741211 134.78500366210938,14.065999984741211 C134.78500366210938,67.3290023803711 108.52899932861328,117.16799926757812 64.60199737548828,147.2899932861328z"></path><path stroke-linecap="round" stroke-linejoin="round" fill-opacity="0" stroke="rgb(32,40,112)" stroke-opacity="1" stroke-width="2" d=" M64.60199737548828,147.2899932861328 C64.60199737548828,147.2899932861328 27.41699981689453,172.78799438476562 27.41699981689453,172.78799438476562 C27.41699981689453,172.78799438476562 -9.767999649047852,147.2899932861328 -9.767999649047852,147.2899932861328 C-53.69499969482422,117.16799926757812 -79.9520034790039,67.3290023803711 -79.9520034790039,14.065999984741211 C-79.9520034790039,14.065999984741211 -79.9520034790039,-57.900001525878906 -79.9520034790039,-57.900001525878906 C-79.9520034790039,-57.900001525878906 27.41699981689453,-97.57499694824219 27.41699981689453,-97.57499694824219 C27.41699981689453,-97.57499694824219 134.78500366210938,-57.900001525878906 134.78500366210938,-57.900001525878906 C134.78500366210938,-57.900001525878906 134.78500366210938,14.065999984741211 134.78500366210938,14.065999984741211 C134.78500366210938,67.3290023803711 108.52899932861328,117.16799926757812 64.60199737548828,147.2899932861328z"></path></g></g></g><g mask="url(#__lottie_element_51_1)" style="display: block;"><g transform="matrix(0.9414100050926208,0,0,0.9414100050926208,801.6063842773438,802.2035522460938)" opacity="1"><g opacity="1" transform="matrix(1,0,0,1,0,0)"><path fill="rgb(32,40,112)" fill-opacity="1" d=" M-246,58 C-246,58 6,-226 6,-226"></path><path stroke-linecap="butt" stroke-linejoin="miter" fill-opacity="0" stroke-miterlimit="4" stroke="rgb(255,255,255)" stroke-opacity="1" stroke-width="54" d=" M-246,58 C-246,58 6,-226 6,-226"></path></g><g opacity="1" transform="matrix(1,0,0,1,-62,-52)"><path fill="rgb(32,40,112)" fill-opacity="1" d=" M-217.39500427246094,58.60499954223633 C-217.39500427246094,58.60499954223633 34.60499954223633,-225.39500427246094 34.60499954223633,-225.39500427246094"></path><path stroke-linecap="butt" stroke-linejoin="miter" fill-opacity="0" stroke-miterlimit="4" stroke="rgb(255,255,255)" stroke-opacity="1" stroke-width="32" d=" M-217.39500427246094,58.60499954223633 C-217.39500427246094,58.60499954223633 34.60499954223633,-225.39500427246094 34.60499954223633,-225.39500427246094"></path></g></g></g><g transform="matrix(0.9414100050926208,0,0,0.9414100050926208,801.6063842773438,802.203369140625)" opacity="1" style="display: block;"><g opacity="1" transform="matrix(1,0,0,1,0,0)"><g opacity="1" transform="matrix(1.0242400169372559,0,0,1.0242400169372559,-0.7587127685546875,-0.8945045471191406)"><path fill="rgb(255,255,255)" fill-opacity="1" d=" M14.920999526977539,88.80400085449219 C14.920999526977539,88.80400085449219 -42.196998596191406,31.687999725341797 -42.196998596191406,31.687999725341797 C-42.196998596191406,31.687999725341797 -28.266000747680664,17.756999969482422 -28.266000747680664,17.756999969482422 C-28.266000747680664,17.756999969482422 14.920999526977539,60.944000244140625 14.920999526977539,60.944000244140625 C14.920999526977539,60.944000244140625 90.86499786376953,-15 90.86499786376953,-15 C90.86499786376953,-15 104.7959976196289,-1.069000005722046 104.7959976196289,-1.069000005722046 C104.7959976196289,-1.069000005722046 14.920999526977539,88.80400085449219 14.920999526977539,88.80400085449219z"></path><path stroke-linecap="round" stroke-linejoin="round" fill-opacity="0" stroke="rgb(32,40,112)" stroke-opacity="1" stroke-width="2.124" d=" M14.920999526977539,88.80400085449219 C14.920999526977539,88.80400085449219 -42.196998596191406,31.687999725341797 -42.196998596191406,31.687999725341797 C-42.196998596191406,31.687999725341797 -28.266000747680664,17.756999969482422 -28.266000747680664,17.756999969482422 C-28.266000747680664,17.756999969482422 14.920999526977539,60.944000244140625 14.920999526977539,60.944000244140625 C14.920999526977539,60.944000244140625 90.86499786376953,-15 90.86499786376953,-15 C90.86499786376953,-15 104.7959976196289,-1.069000005722046 104.7959976196289,-1.069000005722046 C104.7959976196289,-1.069000005722046 14.920999526977539,88.80400085449219 14.920999526977539,88.80400085449219z"></path></g></g></g><g transform="matrix(1,0,0,1,800,796.0230102539062)" opacity="1" style="display: block;"><g opacity="1" transform="matrix(1,0,0,1,0,0)"><path fill="rgb(132,132,250)" fill-opacity="1" d=" M524.0859985351562,-56.678001403808594 C524.0859985351562,-56.678001403808594 196.5749969482422,-56.678001403808594 196.5749969482422,-56.678001403808594 C196.5749969482422,-56.678001403808594 196.5749969482422,-267.8550109863281 196.5749969482422,-267.8550109863281 C196.5749969482422,-267.8550109863281 524.0859985351562,-267.8550109863281 524.0859985351562,-267.8550109863281 C524.0859985351562,-267.8550109863281 524.0859985351562,-56.678001403808594 524.0859985351562,-56.678001403808594z"></path><path stroke-linecap="round" stroke-linejoin="round" fill-opacity="0" stroke="rgb(32,40,112)" stroke-opacity="1" stroke-width="2" d=" M524.0859985351562,-56.678001403808594 C524.0859985351562,-56.678001403808594 196.5749969482422,-56.678001403808594 196.5749969482422,-56.678001403808594 C196.5749969482422,-56.678001403808594 196.5749969482422,-267.8550109863281 196.5749969482422,-267.8550109863281 C196.5749969482422,-267.8550109863281 524.0859985351562,-267.8550109863281 524.0859985351562,-267.8550109863281 C524.0859985351562,-267.8550109863281 524.0859985351562,-56.678001403808594 524.0859985351562,-56.678001403808594z"></path></g><g opacity="1" transform="matrix(1,0,0,1,0,0)"><g opacity="1" transform="matrix(1,0,0,1,0,0)"><g opacity="1" transform="matrix(1,0,0,1,0,0)"><path fill="rgb(32,40,112)" fill-opacity="1" d=" M487.1029968261719,-196.06300354003906 C487.1029968261719,-183.06300354003906 481.6629943847656,-171.33299255371094 472.9230041503906,-163.04299926757812 C464.75299072265625,-155.26300048828125 453.7030029296875,-150.4929962158203 441.5329895019531,-150.4929962158203 C429.37298583984375,-150.4929962158203 418.322998046875,-155.26300048828125 410.14300537109375,-163.0330047607422 C401.4129943847656,-171.33299255371094 395.9630126953125,-183.06300354003906 395.9630126953125,-196.06300354003906 C395.9630126953125,-221.22300720214844 416.37298583984375,-241.63299560546875 441.5329895019531,-241.63299560546875 C466.7030029296875,-241.63299560546875 487.1029968261719,-221.22300720214844 487.1029968261719,-196.06300354003906z"></path><path stroke-linecap="round" stroke-linejoin="round" fill-opacity="0" stroke="rgb(32,40,112)" stroke-opacity="1" stroke-width="2" d=" M487.1029968261719,-196.06300354003906 C487.1029968261719,-183.06300354003906 481.6629943847656,-171.33299255371094 472.9230041503906,-163.04299926757812 C464.75299072265625,-155.26300048828125 453.7030029296875,-150.4929962158203 441.5329895019531,-150.4929962158203 C429.37298583984375,-150.4929962158203 418.322998046875,-155.26300048828125 410.14300537109375,-163.0330047607422 C401.4129943847656,-171.33299255371094 395.9630126953125,-183.06300354003906 395.9630126953125,-196.06300354003906 C395.9630126953125,-221.22300720214844 416.37298583984375,-241.63299560546875 441.5329895019531,-241.63299560546875 C466.7030029296875,-241.63299560546875 487.1029968261719,-221.22300720214844 487.1029968261719,-196.06300354003906z"></path></g><g opacity="1" transform="matrix(1,0,0,1,0,0)"><path fill="rgb(255,255,255)" fill-opacity="1" d=" M457.5610046386719,-204.093994140625 C457.5610046386719,-195.2429962158203 450.3869934082031,-188.0679931640625 441.5360107421875,-188.0679931640625 C432.68499755859375,-188.0679931640625 425.510009765625,-195.2429962158203 425.510009765625,-204.093994140625 C425.510009765625,-212.94500732421875 432.68499755859375,-220.1199951171875 441.5360107421875,-220.1199951171875 C450.3869934082031,-220.1199951171875 457.5610046386719,-212.94500732421875 457.5610046386719,-204.093994140625z"></path><path stroke-linecap="round" stroke-linejoin="round" fill-opacity="0" stroke="rgb(32,40,112)" stroke-opacity="1" stroke-width="2" d=" M457.5610046386719,-204.093994140625 C457.5610046386719,-195.2429962158203 450.3869934082031,-188.0679931640625 441.5360107421875,-188.0679931640625 C432.68499755859375,-188.0679931640625 425.510009765625,-195.2429962158203 425.510009765625,-204.093994140625 C425.510009765625,-212.94500732421875 432.68499755859375,-220.1199951171875 441.5360107421875,-220.1199951171875 C450.3869934082031,-220.1199951171875 457.5610046386719,-212.94500732421875 457.5610046386719,-204.093994140625z"></path></g><g opacity="1" transform="matrix(1,0,0,1,0,0)"><path fill="rgb(255,255,255)" fill-opacity="1" d=" M472.9230041503906,-163.04299926757812 C464.75299072265625,-155.26300048828125 453.7030029296875,-150.4929962158203 441.5329895019531,-150.4929962158203 C429.37298583984375,-150.4929962158203 418.322998046875,-155.26300048828125 410.14300537109375,-163.0330047607422 C413.40301513671875,-177.3730010986328 426.2229919433594,-188.072998046875 441.5329895019531,-188.072998046875 C456.8529968261719,-188.072998046875 469.6730041503906,-177.3730010986328 472.9230041503906,-163.04299926757812z"></path><path stroke-linecap="round" stroke-linejoin="round" fill-opacity="0" stroke="rgb(32,40,112)" stroke-opacity="1" stroke-width="2" d=" M472.9230041503906,-163.04299926757812 C464.75299072265625,-155.26300048828125 453.7030029296875,-150.4929962158203 441.5329895019531,-150.4929962158203 C429.37298583984375,-150.4929962158203 418.322998046875,-155.26300048828125 410.14300537109375,-163.0330047607422 C413.40301513671875,-177.3730010986328 426.2229919433594,-188.072998046875 441.5329895019531,-188.072998046875 C456.8529968261719,-188.072998046875 469.6730041503906,-177.3730010986328 472.9230041503906,-163.04299926757812z"></path></g></g><g opacity="1" transform="matrix(1,0,0,1,0,0)"><path stroke-linecap="round" stroke-linejoin="round" fill-opacity="0" stroke="rgb(32,40,112)" stroke-opacity="1" stroke-width="2" d=" M357.5740051269531,-196.06300354003906 C357.5740051269531,-196.06300354003906 233.55799865722656,-196.06300354003906 233.55799865722656,-196.06300354003906"></path></g><g opacity="1" transform="matrix(1,0,0,1,0,0)"><path stroke-linecap="round" stroke-linejoin="round" fill-opacity="0" stroke="rgb(32,40,112)" stroke-opacity="1" stroke-width="2" d=" M451.1029968261719,-126.30599975585938 C451.1029968261719,-126.30599975585938 233.55799865722656,-126.30599975585938 233.55799865722656,-126.30599975585938"></path></g><g opacity="1" transform="matrix(1,0,0,1,0,0)"><path stroke-linecap="round" stroke-linejoin="round" fill-opacity="0" stroke="rgb(32,40,112)" stroke-opacity="1" stroke-width="2" d=" M451.1029968261719,-104.60299682617188 C451.1029968261719,-104.60299682617188 233.55799865722656,-104.60299682617188 233.55799865722656,-104.60299682617188"></path></g><g opacity="1" transform="matrix(1,0,0,1,0,0)"><path stroke-linecap="round" stroke-linejoin="round" fill-opacity="0" stroke="rgb(32,40,112)" stroke-opacity="1" stroke-width="2" d=" M331.7380065917969,-82.9000015258789 C331.7380065917969,-82.9000015258789 233.55799865722656,-82.9000015258789 233.55799865722656,-82.9000015258789"></path></g></g></g><g transform="matrix(1,0,0,1,800,852.8579711914062)" opacity="1" style="display: block;"><g opacity="1" transform="matrix(1,0,0,1,0,0)"><path fill="rgb(32,40,112)" fill-opacity="1" d=" M-188.36700439453125,78.2969970703125 C-188.36700439453125,78.2969970703125 -350.8590087890625,172.78799438476562 -350.8590087890625,172.78799438476562 C-350.8590087890625,172.78799438476562 -350.8590087890625,78.2969970703125 -350.8590087890625,78.2969970703125"></path><path stroke-linecap="round" stroke-linejoin="round" fill-opacity="0" stroke="rgb(32,40,112)" stroke-opacity="1" stroke-width="1.991" d=" M-188.36700439453125,78.2969970703125 C-188.36700439453125,78.2969970703125 -350.8590087890625,172.78799438476562 -350.8590087890625,172.78799438476562 C-350.8590087890625,172.78799438476562 -350.8590087890625,78.2969970703125 -350.8590087890625,78.2969970703125"></path></g></g><g transform="matrix(1,0,0,1,800,852.8579711914062)" opacity="1" style="display: block;"><g opacity="1" transform="matrix(1,0,0,1,0,0)"><path fill="rgb(255,255,255)" fill-opacity="1" d=" M-619.1619873046875,78.2969970703125 C-619.1619873046875,78.2969970703125 -188.36700439453125,78.2969970703125 -188.36700439453125,78.2969970703125 C-188.36700439453125,78.2969970703125 -188.36700439453125,-55.99599838256836 -188.36700439453125,-55.99599838256836 C-188.36700439453125,-55.99599838256836 -619.1619873046875,-55.99599838256836 -619.1619873046875,-55.99599838256836 C-619.1619873046875,-55.99599838256836 -619.1619873046875,78.2969970703125 -619.1619873046875,78.2969970703125z"></path><path stroke-linecap="round" stroke-linejoin="round" fill-opacity="0" stroke="rgb(32,40,112)" stroke-opacity="1" stroke-width="2" d=" M-619.1619873046875,78.2969970703125 C-619.1619873046875,78.2969970703125 -188.36700439453125,78.2969970703125 -188.36700439453125,78.2969970703125 C-188.36700439453125,78.2969970703125 -188.36700439453125,-55.99599838256836 -188.36700439453125,-55.99599838256836 C-188.36700439453125,-55.99599838256836 -619.1619873046875,-55.99599838256836 -619.1619873046875,-55.99599838256836 C-619.1619873046875,-55.99599838256836 -619.1619873046875,78.2969970703125 -619.1619873046875,78.2969970703125z"></path></g><g opacity="1" transform="matrix(1,0,0,1,0,0)"><g opacity="1" transform="matrix(1,0,0,1,0,0)"><path fill="rgb(132,132,250)" fill-opacity="1" d=" M-619.1619873046875,-3.193000078201294 C-619.1619873046875,-3.193000078201294 -188.36700439453125,-3.193000078201294 -188.36700439453125,-3.193000078201294 C-188.36700439453125,-3.193000078201294 -188.36700439453125,-55.99599838256836 -188.36700439453125,-55.99599838256836 C-188.36700439453125,-55.99599838256836 -619.1619873046875,-55.99599838256836 -619.1619873046875,-55.99599838256836 C-619.1619873046875,-55.99599838256836 -619.1619873046875,-3.193000078201294 -619.1619873046875,-3.193000078201294z"></path><path stroke-linecap="round" stroke-linejoin="round" fill-opacity="0" stroke="rgb(32,40,112)" stroke-opacity="1" stroke-width="2" d=" M-619.1619873046875,-3.193000078201294 C-619.1619873046875,-3.193000078201294 -188.36700439453125,-3.193000078201294 -188.36700439453125,-3.193000078201294 C-188.36700439453125,-3.193000078201294 -188.36700439453125,-55.99599838256836 -188.36700439453125,-55.99599838256836 C-188.36700439453125,-55.99599838256836 -619.1619873046875,-55.99599838256836 -619.1619873046875,-55.99599838256836 C-619.1619873046875,-55.99599838256836 -619.1619873046875,-3.193000078201294 -619.1619873046875,-3.193000078201294z"></path></g><g opacity="1" transform="matrix(1,0,0,1,0,0)"><g opacity="1" transform="matrix(1,0,0,1,0,0)"><path fill="rgb(249,74,130)" fill-opacity="1" d=" M-505.7080078125,-29.594999313354492 C-505.7080078125,-24.06599998474121 -501.2250061035156,-19.58300018310547 -495.6960144042969,-19.58300018310547 C-490.1669921875,-19.58300018310547 -485.68499755859375,-24.06599998474121 -485.68499755859375,-29.594999313354492 C-485.68499755859375,-35.124000549316406 -490.1669921875,-39.60599899291992 -495.6960144042969,-39.60599899291992 C-501.2250061035156,-39.60599899291992 -505.7080078125,-35.124000549316406 -505.7080078125,-29.594999313354492z"></path><path stroke-linecap="round" stroke-linejoin="round" fill-opacity="0" stroke="rgb(32,40,112)" stroke-opacity="1" stroke-width="2" d=" M-505.7080078125,-29.594999313354492 C-505.7080078125,-24.06599998474121 -501.2250061035156,-19.58300018310547 -495.6960144042969,-19.58300018310547 C-490.1669921875,-19.58300018310547 -485.68499755859375,-24.06599998474121 -485.68499755859375,-29.594999313354492 C-485.68499755859375,-35.124000549316406 -490.1669921875,-39.60599899291992 -495.6960144042969,-39.60599899291992 C-501.2250061035156,-39.60599899291992 -505.7080078125,-35.124000549316406 -505.7080078125,-29.594999313354492z"></path></g><g opacity="1" transform="matrix(1,0,0,1,0,0)"><path fill="rgb(249,74,130)" fill-opacity="1" d=" M-551.5750122070312,-29.594999313354492 C-551.5750122070312,-24.06599998474121 -547.093017578125,-19.58300018310547 -541.5640258789062,-19.58300018310547 C-536.0349731445312,-19.58300018310547 -531.552001953125,-24.06599998474121 -531.552001953125,-29.594999313354492 C-531.552001953125,-35.124000549316406 -536.0349731445312,-39.60599899291992 -541.5640258789062,-39.60599899291992 C-547.093017578125,-39.60599899291992 -551.5750122070312,-35.124000549316406 -551.5750122070312,-29.594999313354492z"></path><path stroke-linecap="round" stroke-linejoin="round" fill-opacity="0" stroke="rgb(32,40,112)" stroke-opacity="1" stroke-width="2" d=" M-551.5750122070312,-29.594999313354492 C-551.5750122070312,-24.06599998474121 -547.093017578125,-19.58300018310547 -541.5640258789062,-19.58300018310547 C-536.0349731445312,-19.58300018310547 -531.552001953125,-24.06599998474121 -531.552001953125,-29.594999313354492 C-531.552001953125,-35.124000549316406 -536.0349731445312,-39.60599899291992 -541.5640258789062,-39.60599899291992 C-547.093017578125,-39.60599899291992 -551.5750122070312,-35.124000549316406 -551.5750122070312,-29.594999313354492z"></path></g><g opacity="1" transform="matrix(1,0,0,1,0,0)"><path fill="rgb(249,74,130)" fill-opacity="1" d=" M-597.4429931640625,-29.594999313354492 C-597.4429931640625,-24.06599998474121 -592.9609985351562,-19.58300018310547 -587.4320068359375,-19.58300018310547 C-581.9030151367188,-19.58300018310547 -577.4199829101562,-24.06599998474121 -577.4199829101562,-29.594999313354492 C-577.4199829101562,-35.124000549316406 -581.9030151367188,-39.60599899291992 -587.4320068359375,-39.60599899291992 C-592.9609985351562,-39.60599899291992 -597.4429931640625,-35.124000549316406 -597.4429931640625,-29.594999313354492z"></path><path stroke-linecap="round" stroke-linejoin="round" fill-opacity="0" stroke="rgb(32,40,112)" stroke-opacity="1" stroke-width="2" d=" M-597.4429931640625,-29.594999313354492 C-597.4429931640625,-24.06599998474121 -592.9609985351562,-19.58300018310547 -587.4320068359375,-19.58300018310547 C-581.9030151367188,-19.58300018310547 -577.4199829101562,-24.06599998474121 -577.4199829101562,-29.594999313354492 C-577.4199829101562,-35.124000549316406 -581.9030151367188,-39.60599899291992 -587.4320068359375,-39.60599899291992 C-592.9609985351562,-39.60599899291992 -597.4429931640625,-35.124000549316406 -597.4429931640625,-29.594999313354492z"></path></g></g></g><g opacity="1" transform="matrix(1,0,0,1,0,0)"><path stroke-linecap="round" stroke-linejoin="round" fill-opacity="0" stroke="rgb(32,40,112)" stroke-opacity="1" stroke-width="2" d="M0 0"></path></g></g><g transform="matrix(0.9961947202682495,-0.08715574443340302,0.08715574443340302,0.9961947202682495,774.7138671875,847.4887084960938)" opacity="1" style="display: block;"><g opacity="1" transform="matrix(1,0,0,1,0,0)"><path fill="rgb(255,255,255)" fill-opacity="1" d=" M508.13800048828125,291.4700012207031 C508.13800048828125,291.4700012207031 452.7380065917969,291.572998046875 452.7380065917969,291.572998046875 C452.7380065917969,291.572998046875 452.7380065917969,194.197998046875 452.7380065917969,194.197998046875 C452.7380065917969,194.197998046875 508.13800048828125,194.0959930419922 508.13800048828125,194.0959930419922 C508.13800048828125,194.0959930419922 508.13800048828125,291.4700012207031 508.13800048828125,291.4700012207031z"></path><path stroke-linecap="round" stroke-linejoin="round" fill-opacity="0" stroke="rgb(32,40,112)" stroke-opacity="1" stroke-width="2" d=" M508.13800048828125,291.4700012207031 C508.13800048828125,291.4700012207031 452.7380065917969,291.572998046875 452.7380065917969,291.572998046875 C452.7380065917969,291.572998046875 452.7380065917969,194.197998046875 452.7380065917969,194.197998046875 C452.7380065917969,194.197998046875 508.13800048828125,194.0959930419922 508.13800048828125,194.0959930419922 C508.13800048828125,194.0959930419922 508.13800048828125,291.4700012207031 508.13800048828125,291.4700012207031z"></path></g><g opacity="1" transform="matrix(1,0,0,1,0,0)"><g opacity="1" transform="matrix(1,0,0,1,0,0)"><g opacity="1" transform="matrix(1,0,0,1,274,0)"><g opacity="1" transform="matrix(1,0,0,1,0,0)"><path stroke-linecap="round" stroke-linejoin="round" fill-opacity="0" stroke="rgb(32,40,112)" stroke-opacity="1" stroke-width="2" d=" M188.3780059814453,263.7760009765625 C188.3780059814453,263.7760009765625 230.36500549316406,221.7899932861328 230.36500549316406,221.7899932861328"></path></g><g opacity="1" transform="matrix(1,0,0,1,0,0)"><path stroke-linecap="round" stroke-linejoin="round" fill-opacity="0" stroke="rgb(32,40,112)" stroke-opacity="1" stroke-width="2" d=" M230.36500549316406,263.7760009765625 C230.36500549316406,263.7760009765625 188.3780059814453,221.7899932861328 188.3780059814453,221.7899932861328"></path></g></g><g opacity="1" transform="matrix(1,0,0,1,197,0)"><g opacity="1" transform="matrix(1,0,0,1,0,0)"><path stroke-linecap="round" stroke-linejoin="round" fill-opacity="0" stroke="rgb(32,40,112)" stroke-opacity="1" stroke-width="2" d=" M267.43499755859375,263.7760009765625 C267.43499755859375,263.7760009765625 309.4219970703125,221.7899932861328 309.4219970703125,221.7899932861328"></path></g><g opacity="1" transform="matrix(1,0,0,1,0,0)"><path stroke-linecap="round" stroke-linejoin="round" fill-opacity="0" stroke="rgb(32,40,112)" stroke-opacity="1" stroke-width="2" d=" M309.4219970703125,263.7760009765625 C309.4219970703125,263.7760009765625 267.43499755859375,221.7899932861328 267.43499755859375,221.7899932861328"></path></g></g><g opacity="1" transform="matrix(1,0,0,1,118,0)"><g opacity="1" transform="matrix(1,0,0,1,0,0)"><path stroke-linecap="round" stroke-linejoin="round" fill-opacity="0" stroke="rgb(32,40,112)" stroke-opacity="1" stroke-width="2" d=" M346.49200439453125,263.7760009765625 C346.49200439453125,263.7760009765625 388.47900390625,221.7899932861328 388.47900390625,221.7899932861328"></path></g><g opacity="1" transform="matrix(1,0,0,1,0,0)"><path stroke-linecap="round" stroke-linejoin="round" fill-opacity="0" stroke="rgb(32,40,112)" stroke-opacity="1" stroke-width="2" d=" M388.47900390625,263.7760009765625 C388.47900390625,263.7760009765625 346.49200439453125,221.7899932861328 346.49200439453125,221.7899932861328"></path></g></g><g opacity="1" transform="matrix(1,0,0,1,35,0)"><g opacity="1" transform="matrix(1,0,0,1,0,0)"><path stroke-linecap="round" stroke-linejoin="round" fill-opacity="0" stroke="rgb(32,40,112)" stroke-opacity="1" stroke-width="2" d=" M425.54901123046875,263.7760009765625 C425.54901123046875,263.7760009765625 467.5360107421875,221.7899932861328 467.5360107421875,221.7899932861328"></path></g><g opacity="1" transform="matrix(1,0,0,1,0,0)"><path stroke-linecap="round" stroke-linejoin="round" fill-opacity="0" stroke="rgb(32,40,112)" stroke-opacity="1" stroke-width="2" d=" M467.5360107421875,263.7760009765625 C467.5360107421875,263.7760009765625 425.54901123046875,221.7899932861328 425.54901123046875,221.7899932861328"></path></g></g></g></g></g><g transform="matrix(0.9961947202682495,-0.08715574443340302,0.08715574443340302,0.9961947202682495,774.7138671875,847.4887084960938)" opacity="1" style="display: block;"><g opacity="1" transform="matrix(1,0,0,1,0,0)"><g opacity="1" transform="matrix(1,0,0,1,0,0)"><path fill="rgb(249,74,130)" fill-opacity="1" d=" M593.6420288085938,186.1439971923828 C593.6420288085938,186.1439971923828 575.343017578125,186.61700439453125 575.343017578125,186.61700439453125 C575.343017578125,186.61700439453125 575.8480224609375,153.33799743652344 575.8480224609375,153.33799743652344 C575.8480224609375,130.67599487304688 557.4110107421875,112.23899841308594 534.75,112.23899841308594 C534.75,112.23899841308594 527.6339721679688,112.23899841308594 527.6339721679688,112.23899841308594 C504.9729919433594,112.23899841308594 486.5360107421875,130.67599487304688 486.5360107421875,153.33799743652344 C486.5360107421875,153.33799743652344 486.5360107421875,179.1300048828125 486.5360107421875,179.1300048828125 C486.5360107421875,179.1300048828125 468.5360107421875,179.1300048828125 468.5360107421875,179.1300048828125 C468.5360107421875,179.1300048828125 468.5360107421875,153.33799743652344 468.5360107421875,153.33799743652344 C468.5360107421875,120.7509994506836 495.0469970703125,94.23899841308594 527.6339721679688,94.23899841308594 C527.6339721679688,94.23899841308594 534.75,94.23899841308594 534.75,94.23899841308594 C567.3369750976562,94.23899841308594 593.8480224609375,120.7509994506836 593.8480224609375,153.33799743652344 C593.8480224609375,153.33799743652344 593.6420288085938,186.1439971923828 593.6420288085938,186.1439971923828z"></path><path stroke-linecap="round" stroke-linejoin="round" fill-opacity="0" stroke="rgb(32,40,112)" stroke-opacity="1" stroke-width="2" d=" M593.6420288085938,186.1439971923828 C593.6420288085938,186.1439971923828 575.343017578125,186.61700439453125 575.343017578125,186.61700439453125 C575.343017578125,186.61700439453125 575.8480224609375,153.33799743652344 575.8480224609375,153.33799743652344 C575.8480224609375,130.67599487304688 557.4110107421875,112.23899841308594 534.75,112.23899841308594 C534.75,112.23899841308594 527.6339721679688,112.23899841308594 527.6339721679688,112.23899841308594 C504.9729919433594,112.23899841308594 486.5360107421875,130.67599487304688 486.5360107421875,153.33799743652344 C486.5360107421875,153.33799743652344 486.5360107421875,179.1300048828125 486.5360107421875,179.1300048828125 C486.5360107421875,179.1300048828125 468.5360107421875,179.1300048828125 468.5360107421875,179.1300048828125 C468.5360107421875,179.1300048828125 468.5360107421875,153.33799743652344 468.5360107421875,153.33799743652344 C468.5360107421875,120.7509994506836 495.0469970703125,94.23899841308594 527.6339721679688,94.23899841308594 C527.6339721679688,94.23899841308594 534.75,94.23899841308594 534.75,94.23899841308594 C567.3369750976562,94.23899841308594 593.8480224609375,120.7509994506836 593.8480224609375,153.33799743652344 C593.8480224609375,153.33799743652344 593.6420288085938,186.1439971923828 593.6420288085938,186.1439971923828z"></path></g></g><g opacity="1" transform="matrix(1,0,0,1,0,0)"><g opacity="1" transform="matrix(1,0,0,1,0,0)"><path fill="rgb(249,74,130)" fill-opacity="1" d=" M595.5289916992188,313.3179931640625 C595.5289916992188,313.3179931640625 466.8550109863281,313.3179931640625 466.8550109863281,313.3179931640625 C455.0950012207031,313.3179931640625 445.56201171875,303.7850036621094 445.56201171875,292.0249938964844 C445.56201171875,292.0249938964844 445.56201171875,179.1300048828125 445.56201171875,179.1300048828125 C445.56201171875,179.1300048828125 616.822021484375,179.1300048828125 616.822021484375,179.1300048828125 C616.822021484375,179.1300048828125 616.822021484375,292.0249938964844 616.822021484375,292.0249938964844 C616.822021484375,303.7850036621094 607.2890014648438,313.3179931640625 595.5289916992188,313.3179931640625z"></path><path stroke-linecap="round" stroke-linejoin="round" fill-opacity="0" stroke="rgb(32,40,112)" stroke-opacity="1" stroke-width="2" d=" M595.5289916992188,313.3179931640625 C595.5289916992188,313.3179931640625 466.8550109863281,313.3179931640625 466.8550109863281,313.3179931640625 C455.0950012207031,313.3179931640625 445.56201171875,303.7850036621094 445.56201171875,292.0249938964844 C445.56201171875,292.0249938964844 445.56201171875,179.1300048828125 445.56201171875,179.1300048828125 C445.56201171875,179.1300048828125 616.822021484375,179.1300048828125 616.822021484375,179.1300048828125 C616.822021484375,179.1300048828125 616.822021484375,292.0249938964844 616.822021484375,292.0249938964844 C616.822021484375,303.7850036621094 607.2890014648438,313.3179931640625 595.5289916992188,313.3179931640625z"></path></g><g opacity="1" transform="matrix(1,0,0,1,0,0)"><path fill="rgb(255,255,255)" fill-opacity="1" d=" M548.8510131835938,233.24200439453125 C548.8510131835938,223.48899841308594 540.9450073242188,215.58299255371094 531.1920166015625,215.58299255371094 C521.4390258789062,215.58299255371094 513.5330200195312,223.48899841308594 513.5330200195312,233.24200439453125 C513.5330200195312,239.92599487304688 517.2479858398438,245.74099731445312 522.7249755859375,248.74000549316406 C522.7249755859375,248.74000549316406 515.8410034179688,276.864990234375 515.8410034179688,276.864990234375 C515.8410034179688,276.864990234375 546.5440063476562,276.864990234375 546.5440063476562,276.864990234375 C546.5440063476562,276.864990234375 539.6589965820312,248.74000549316406 539.6589965820312,248.74000549316406 C545.135986328125,245.74099731445312 548.8510131835938,239.92599487304688 548.8510131835938,233.24200439453125z"></path><path stroke-linecap="round" stroke-linejoin="round" fill-opacity="0" stroke="rgb(32,40,112)" stroke-opacity="1" stroke-width="2" d=" M548.8510131835938,233.24200439453125 C548.8510131835938,223.48899841308594 540.9450073242188,215.58299255371094 531.1920166015625,215.58299255371094 C521.4390258789062,215.58299255371094 513.5330200195312,223.48899841308594 513.5330200195312,233.24200439453125 C513.5330200195312,239.92599487304688 517.2479858398438,245.74099731445312 522.7249755859375,248.74000549316406 C522.7249755859375,248.74000549316406 515.8410034179688,276.864990234375 515.8410034179688,276.864990234375 C515.8410034179688,276.864990234375 546.5440063476562,276.864990234375 546.5440063476562,276.864990234375 C546.5440063476562,276.864990234375 539.6589965820312,248.74000549316406 539.6589965820312,248.74000549316406 C545.135986328125,245.74099731445312 548.8510131835938,239.92599487304688 548.8510131835938,233.24200439453125z"></path></g></g></g><g transform="matrix(0.9812422394752502,-0.19277887046337128,0.19277887046337128,0.9812422394752502,757.945556640625,971.2813720703125)" opacity="1" style="display: block;"><g opacity="1" transform="matrix(1,0,0,1,0,0)"><path stroke-linecap="butt" stroke-linejoin="miter" fill-opacity="0" stroke-miterlimit="4" stroke="rgb(32,40,112)" stroke-opacity="1" stroke-width="2" d="M0 0"></path></g><g opacity="1" transform="matrix(0.9455185532569885,-0.32556816935539246,0.32556816935539246,0.9455185532569885,-5.57818603515625,161.66604614257812)"><path stroke-linecap="butt" stroke-linejoin="miter" fill-opacity="0" stroke-miterlimit="4" stroke="rgb(32,40,112)" stroke-opacity="1" stroke-width="2" d="M0 0"></path></g><g opacity="1" transform="matrix(0.4694715738296509,-0.882947564125061,0.882947564125061,0.4694715738296509,168.69888305664062,475.7621154785156)"><path stroke-linecap="butt" stroke-linejoin="miter" fill-opacity="0" stroke-miterlimit="4" stroke="rgb(32,40,112)" stroke-opacity="1" stroke-width="2" d="M0 0"></path></g></g><g transform="matrix(1,0,0,1,810.5899658203125,765.947021484375)" opacity="1" style="display: block;"><g opacity="1" transform="matrix(1,0,0,1,0,0)"><path fill="rgb(249,74,130)" fill-opacity="1" d=" M-197.7790069580078,-451.5069885253906 C-197.7790069580078,-443.98699951171875 -203.87600708007812,-437.8900146484375 -211.39599609375,-437.8900146484375 C-218.91600036621094,-437.8900146484375 -225.01199340820312,-443.98699951171875 -225.01199340820312,-451.5069885253906 C-225.01199340820312,-459.0270080566406 -218.91600036621094,-465.12298583984375 -211.39599609375,-465.12298583984375 C-203.87600708007812,-465.12298583984375 -197.7790069580078,-459.0270080566406 -197.7790069580078,-451.5069885253906z"></path></g></g><g transform="matrix(1,0,0,1,813.4310302734375,801.7160034179688)" opacity="1" style="display: block;"><g opacity="1" transform="matrix(1,0,0,1,0,0)"><path fill="rgb(132,132,250)" fill-opacity="1" d=" M-455.0679931640625,-377.4570007324219 C-455.0679931640625,-373.7489929199219 -458.07501220703125,-370.74200439453125 -461.7829895019531,-370.74200439453125 C-465.4909973144531,-370.74200439453125 -468.49700927734375,-373.7489929199219 -468.49700927734375,-377.4570007324219 C-468.49700927734375,-381.1650085449219 -465.4909973144531,-384.1709899902344 -461.7829895019531,-384.1709899902344 C-458.07501220703125,-384.1709899902344 -455.0679931640625,-381.1650085449219 -455.0679931640625,-377.4570007324219z"></path><path stroke-linecap="round" stroke-linejoin="round" fill-opacity="0" stroke="rgb(32,40,112)" stroke-opacity="1" stroke-width="2" d=" M-455.0679931640625,-377.4570007324219 C-455.0679931640625,-373.7489929199219 -458.07501220703125,-370.74200439453125 -461.7829895019531,-370.74200439453125 C-465.4909973144531,-370.74200439453125 -468.49700927734375,-373.7489929199219 -468.49700927734375,-377.4570007324219 C-468.49700927734375,-381.1650085449219 -465.4909973144531,-384.1709899902344 -461.7829895019531,-384.1709899902344 C-458.07501220703125,-384.1709899902344 -455.0679931640625,-381.1650085449219 -455.0679931640625,-377.4570007324219z"></path></g></g><g transform="matrix(1,0,0,1,818.428955078125,813.781005859375)" opacity="1" style="display: block;"><g opacity="1" transform="matrix(1,0,0,1,0,0)"><path fill="rgb(32,40,112)" fill-opacity="1" d=" M-73.86100006103516,-251.34100341796875 C-73.86100006103516,-247.58099365234375 -76.91000366210938,-244.5330047607422 -80.66999816894531,-244.5330047607422 C-84.43000030517578,-244.5330047607422 -87.47799682617188,-247.58099365234375 -87.47799682617188,-251.34100341796875 C-87.47799682617188,-255.1009979248047 -84.43000030517578,-258.1499938964844 -80.66999816894531,-258.1499938964844 C-76.91000366210938,-258.1499938964844 -73.86100006103516,-255.1009979248047 -73.86100006103516,-251.34100341796875z"></path><path stroke-linecap="round" stroke-linejoin="round" fill-opacity="0" stroke="rgb(32,40,112)" stroke-opacity="1" stroke-width="2" d=" M-73.86100006103516,-251.34100341796875 C-73.86100006103516,-247.58099365234375 -76.91000366210938,-244.5330047607422 -80.66999816894531,-244.5330047607422 C-84.43000030517578,-244.5330047607422 -87.47799682617188,-247.58099365234375 -87.47799682617188,-251.34100341796875 C-87.47799682617188,-255.1009979248047 -84.43000030517578,-258.1499938964844 -80.66999816894531,-258.1499938964844 C-76.91000366210938,-258.1499938964844 -73.86100006103516,-255.1009979248047 -73.86100006103516,-251.34100341796875z"></path></g></g><g transform="matrix(1,0,0,1,821.177978515625,799.1029663085938)" opacity="1" style="display: block;"><g opacity="1" transform="matrix(1,0,0,1,0,0)"><path fill="rgb(32,40,112)" fill-opacity="1" d=" M-576.5269775390625,-125.4489974975586 C-576.5269775390625,-122.23999786376953 -579.1290283203125,-119.63800048828125 -582.3380126953125,-119.63800048828125 C-585.5469970703125,-119.63800048828125 -588.1489868164062,-122.23999786376953 -588.1489868164062,-125.4489974975586 C-588.1489868164062,-128.6580047607422 -585.5469970703125,-131.25999450683594 -582.3380126953125,-131.25999450683594 C-579.1290283203125,-131.25999450683594 -576.5269775390625,-128.6580047607422 -576.5269775390625,-125.4489974975586z"></path><path stroke-linecap="round" stroke-linejoin="round" fill-opacity="0" stroke="rgb(32,40,112)" stroke-opacity="1" stroke-width="2" d=" M-576.5269775390625,-125.4489974975586 C-576.5269775390625,-122.23999786376953 -579.1290283203125,-119.63800048828125 -582.3380126953125,-119.63800048828125 C-585.5469970703125,-119.63800048828125 -588.1489868164062,-122.23999786376953 -588.1489868164062,-125.4489974975586 C-588.1489868164062,-128.6580047607422 -585.5469970703125,-131.25999450683594 -582.3380126953125,-131.25999450683594 C-579.1290283203125,-131.25999450683594 -576.5269775390625,-128.6580047607422 -576.5269775390625,-125.4489974975586z"></path></g></g><g transform="matrix(1,0,0,1,790.9700317382812,833.779052734375)" opacity="1" style="display: block;"><g opacity="1" transform="matrix(1,0,0,1,0,0)"><path fill="rgb(249,74,130)" fill-opacity="1" d=" M90.27300262451172,-310.3739929199219 C90.27300262451172,-307.1650085449219 87.66999816894531,-304.56298828125 84.46099853515625,-304.56298828125 C81.25199890136719,-304.56298828125 78.6500015258789,-307.1650085449219 78.6500015258789,-310.3739929199219 C78.6500015258789,-313.5830078125 81.25199890136719,-316.18499755859375 84.46099853515625,-316.18499755859375 C87.66999816894531,-316.18499755859375 90.27300262451172,-313.5830078125 90.27300262451172,-310.3739929199219z"></path></g></g><g transform="matrix(1,0,0,1,785.282958984375,796.885986328125)" opacity="1" style="display: block;"><g opacity="1" transform="matrix(1,0,0,1,0,0)"><path fill="rgb(255,255,255)" fill-opacity="1" d=" M276.4389953613281,-342.5199890136719 C276.4389953613281,-337.1510009765625 272.08599853515625,-332.7980041503906 266.7170104980469,-332.7980041503906 C261.3479919433594,-332.7980041503906 256.9960021972656,-337.1510009765625 256.9960021972656,-342.5199890136719 C256.9960021972656,-347.8890075683594 261.3479919433594,-352.24200439453125 266.7170104980469,-352.24200439453125 C272.08599853515625,-352.24200439453125 276.4389953613281,-347.8890075683594 276.4389953613281,-342.5199890136719z"></path><path stroke-linecap="round" stroke-linejoin="round" fill-opacity="0" stroke="rgb(32,40,112)" stroke-opacity="1" stroke-width="2" d=" M276.4389953613281,-342.5199890136719 C276.4389953613281,-337.1510009765625 272.08599853515625,-332.7980041503906 266.7170104980469,-332.7980041503906 C261.3479919433594,-332.7980041503906 256.9960021972656,-337.1510009765625 256.9960021972656,-342.5199890136719 C256.9960021972656,-347.8890075683594 261.3479919433594,-352.24200439453125 266.7170104980469,-352.24200439453125 C272.08599853515625,-352.24200439453125 276.4389953613281,-347.8890075683594 276.4389953613281,-342.5199890136719z"></path></g></g><g transform="matrix(1,0,0,1,841.3599853515625,760.9630126953125)" opacity="1" style="display: block;"><g opacity="1" transform="matrix(1,0,0,1,0,0)"><path fill="rgb(255,255,255)" fill-opacity="1" d=" M-638.7520141601562,-262.9639892578125 C-638.7520141601562,-257.5950012207031 -643.10498046875,-253.24200439453125 -648.4739990234375,-253.24200439453125 C-653.843017578125,-253.24200439453125 -658.1950073242188,-257.5950012207031 -658.1950073242188,-262.9639892578125 C-658.1950073242188,-268.3330078125 -653.843017578125,-272.6860046386719 -648.4739990234375,-272.6860046386719 C-643.10498046875,-272.6860046386719 -638.7520141601562,-268.3330078125 -638.7520141601562,-262.9639892578125z"></path><path stroke-linecap="round" stroke-linejoin="round" fill-opacity="0" stroke="rgb(32,40,112)" stroke-opacity="1" stroke-width="2" d=" M-638.7520141601562,-262.9639892578125 C-638.7520141601562,-257.5950012207031 -643.10498046875,-253.24200439453125 -648.4739990234375,-253.24200439453125 C-653.843017578125,-253.24200439453125 -658.1950073242188,-257.5950012207031 -658.1950073242188,-262.9639892578125 C-658.1950073242188,-268.3330078125 -653.843017578125,-272.6860046386719 -648.4739990234375,-272.6860046386719 C-643.10498046875,-272.6860046386719 -638.7520141601562,-268.3330078125 -638.7520141601562,-262.9639892578125z"></path></g></g><g transform="matrix(1,0,0,1,800,800)" opacity="1" style="display: block;"><g opacity="1" transform="matrix(1,0,0,1,0,0)"><path fill="rgb(255,255,255)" fill-opacity="1" d=" M-194.98599243164062,333.4739990234375 C-194.98599243164062,338.8429870605469 -199.33900451660156,343.1960144042969 -204.70799255371094,343.1960144042969 C-210.07699584960938,343.1960144042969 -214.42999267578125,338.8429870605469 -214.42999267578125,333.4739990234375 C-214.42999267578125,328.1050109863281 -210.07699584960938,323.75299072265625 -204.70799255371094,323.75299072265625 C-199.33900451660156,323.75299072265625 -194.98599243164062,328.1050109863281 -194.98599243164062,333.4739990234375z"></path><path stroke-linecap="round" stroke-linejoin="round" fill-opacity="0" stroke="rgb(32,40,112)" stroke-opacity="1" stroke-width="2" d=" M-194.98599243164062,333.4739990234375 C-194.98599243164062,338.8429870605469 -199.33900451660156,343.1960144042969 -204.70799255371094,343.1960144042969 C-210.07699584960938,343.1960144042969 -214.42999267578125,338.8429870605469 -214.42999267578125,333.4739990234375 C-214.42999267578125,328.1050109863281 -210.07699584960938,323.75299072265625 -204.70799255371094,323.75299072265625 C-199.33900451660156,323.75299072265625 -194.98599243164062,328.1050109863281 -194.98599243164062,333.4739990234375z"></path></g></g></g></svg>