<svg width="1600" height="1600" viewBox="0 0 1600 1600" fill="none" xmlns="http://www.w3.org/2000/svg">
<g clip-path="url(#clip0_40000055_8478)">
<mask id="mask0_40000055_8478" style="mask-type:luminance" maskUnits="userSpaceOnUse" x="0" y="0" width="1600" height="1600">
<path d="M1600 0H0V1600H1600V0Z" fill="white"/>
</mask>
<g mask="url(#mask0_40000055_8478)">
<mask id="mask1_40000055_8478" style="mask-type:luminance" maskUnits="userSpaceOnUse" x="0" y="0" width="1600" height="1600">
<path d="M1600 0H0V1600H1600V0Z" fill="white"/>
</mask>
<g mask="url(#mask1_40000055_8478)">
<path d="M823.552 839.056H779.865C775.926 824.594 770.197 810.87 762.914 798.147L793.81 767.251C800.237 760.825 800.237 750.405 793.81 743.978L751.593 701.761C745.166 695.334 734.746 695.334 728.319 701.761L697.424 732.656C684.7 725.373 670.977 719.644 656.514 715.706L659.996 672.018C659.996 662.929 652.628 655.561 643.539 655.561H583.835C574.746 655.561 567.378 662.929 567.378 672.018L563.896 715.706C549.434 719.644 535.71 725.373 522.987 732.656L492.091 701.761C485.664 695.334 475.244 695.334 468.817 701.761L426.6 743.978C420.173 750.405 420.173 760.825 426.6 767.251L457.496 798.147C450.213 810.87 444.484 824.594 440.545 839.056H396.858C387.769 839.056 380.4 846.425 380.4 855.514V915.217C380.4 924.306 387.769 931.675 396.858 931.675H440.545C444.484 946.14 450.213 959.858 457.496 972.581L426.6 1003.48C420.173 1009.91 420.173 1020.32 426.6 1026.75L468.817 1068.97C475.244 1075.39 485.664 1075.39 492.091 1068.97L522.987 1038.08C535.71 1045.36 549.434 1051.08 563.896 1055.03V1098.71C563.896 1107.8 571.264 1115.17 580.353 1115.17H640.057C649.146 1115.17 656.514 1107.8 656.514 1098.71V1055.03C670.977 1051.08 684.7 1045.36 697.424 1038.08L728.319 1068.97C734.746 1075.39 745.166 1075.39 751.593 1068.97L793.81 1026.75C800.237 1020.32 800.237 1009.91 793.81 1003.48L762.914 972.581C770.197 959.858 775.926 946.14 779.865 931.675H823.552C832.641 931.675 840.01 924.306 840.01 915.217V855.514C840.01 846.425 832.641 839.056 823.552 839.056ZM697.252 885.365C697.252 933.441 658.28 972.414 610.205 972.414C562.13 972.414 523.158 933.441 523.158 885.365C523.158 837.29 562.13 798.318 610.205 798.318C658.28 798.318 697.252 837.29 697.252 885.365Z" fill="#84AAE4"/>
<path d="M823.552 839.056H779.865C775.926 824.594 770.197 810.87 762.914 798.147L793.81 767.251C800.237 760.825 800.237 750.405 793.81 743.978L751.593 701.761C745.166 695.334 734.746 695.334 728.319 701.761L697.424 732.656C684.7 725.373 670.977 719.644 656.514 715.706L659.996 672.018C659.996 662.929 652.628 655.561 643.539 655.561H583.835C574.746 655.561 567.378 662.929 567.378 672.018L563.896 715.706C549.434 719.644 535.71 725.373 522.987 732.656L492.091 701.761C485.664 695.334 475.244 695.334 468.817 701.761L426.6 743.978C420.173 750.405 420.173 760.825 426.6 767.251L457.496 798.147C450.213 810.87 444.484 824.594 440.545 839.056H396.858C387.769 839.056 380.4 846.425 380.4 855.514V915.217C380.4 924.306 387.769 931.675 396.858 931.675H440.545C444.484 946.14 450.213 959.858 457.496 972.581L426.6 1003.48C420.173 1009.91 420.173 1020.32 426.6 1026.75L468.817 1068.97C475.244 1075.39 485.664 1075.39 492.091 1068.97L522.987 1038.08C535.71 1045.36 549.434 1051.08 563.896 1055.03V1098.71C563.896 1107.8 571.264 1115.17 580.353 1115.17H640.057C649.146 1115.17 656.514 1107.8 656.514 1098.71V1055.03C670.977 1051.08 684.7 1045.36 697.424 1038.08L728.319 1068.97C734.746 1075.39 745.166 1075.39 751.593 1068.97L793.81 1026.75C800.237 1020.32 800.237 1009.91 793.81 1003.48L762.914 972.581C770.197 959.858 775.926 946.14 779.865 931.675H823.552C832.641 931.675 840.01 924.306 840.01 915.217V855.514C840.01 846.425 832.641 839.056 823.552 839.056ZM697.252 885.365C697.252 933.441 658.28 972.414 610.205 972.414C562.13 972.414 523.158 933.441 523.158 885.365C523.158 837.29 562.13 798.318 610.205 798.318C658.28 798.318 697.252 837.29 697.252 885.365Z" stroke="#0626A9" stroke-width="2" stroke-miterlimit="10" stroke-linecap="round"/>
<path d="M519.524 1259.06L1082.94 1251.24L1167.41 955.513C1169.31 948.918 1165.49 943.57 1158.9 943.57H621.914C615.318 943.57 608.439 948.918 606.548 955.513L519.524 1259.06Z" fill="#0626A9"/>
<path d="M519.524 1259.06L1082.94 1251.24L1167.41 955.513C1169.31 948.918 1165.49 943.57 1158.9 943.57H621.914C615.318 943.57 608.439 948.918 606.548 955.513L519.524 1259.06Z" stroke="#0626A9" stroke-width="2" stroke-linecap="round" stroke-linejoin="round"/>
<path d="M509.193 1259.06H1070.06L1157.09 955.513C1158.98 948.918 1155.17 943.57 1148.56 943.57H611.582C604.987 943.57 598.107 948.918 596.216 955.513L509.193 1259.06Z" fill="#84AAE4"/>
<path d="M509.193 1259.06H1070.06L1157.09 955.513C1158.98 948.918 1155.17 943.57 1148.56 943.57H611.582C604.987 943.57 598.107 948.918 596.216 955.513L509.193 1259.06Z" stroke="#0626A9" stroke-width="2" stroke-linecap="round" stroke-linejoin="round"/>
<path d="M523.618 1246.93H1062.6L1146.09 955.708H607.108L523.618 1246.93Z" fill="white"/>
<path d="M523.618 1246.93H1062.6L1146.09 955.708H607.108L523.618 1246.93Z" stroke="#0626A9" stroke-width="2" stroke-linecap="round" stroke-linejoin="round"/>
<path d="M385.342 1260.64H1062.16L1077.46 1242.29H366.986C366.986 1252.43 375.205 1260.64 385.342 1260.64Z" fill="#84AAE4"/>
<path d="M385.342 1260.64H1062.16L1077.46 1242.29H366.986C366.986 1252.43 375.205 1260.64 385.342 1260.64Z" stroke="#0626A9" stroke-width="2" stroke-linecap="round" stroke-linejoin="round"/>
<path d="M848.28 1261H1073.01C1077.32 1261 1081.11 1258.1 1082.21 1253.92L1085.19 1242.64H829.924C829.924 1252.78 838.142 1261 848.28 1261Z" fill="#0626A9"/>
<path d="M848.28 1261H1073.01C1077.32 1261 1081.11 1258.1 1082.21 1253.92L1085.19 1242.64H829.924C829.924 1252.78 838.142 1261 848.28 1261Z" stroke="#0626A9" stroke-width="2" stroke-linecap="round" stroke-linejoin="round"/>
<path d="M334.113 1261H1265.88" stroke="#0626A9" stroke-width="2" stroke-miterlimit="10"/>
<path d="M1008.13 944.998C1008.13 858.059 937.646 787.582 850.708 787.582C763.769 787.582 693.292 858.059 693.292 944.998C693.292 991.892 713.803 1033.98 746.333 1062.82C754.828 1070.94 786.391 1102.8 786.391 1128.33H915.025C915.025 1098.83 957.373 1060.87 957.373 1060.87H957.248C988.522 1032.1 1008.13 990.84 1008.13 944.998Z" fill="white"/>
<path d="M1008.13 944.998C1008.13 858.059 937.646 787.582 850.708 787.582C763.769 787.582 693.292 858.059 693.292 944.998C693.292 991.892 713.803 1033.98 746.333 1062.82C754.828 1070.94 786.391 1102.8 786.391 1128.33H915.025C915.025 1098.83 957.373 1060.87 957.373 1060.87H957.248C988.522 1032.1 1008.13 990.84 1008.13 944.998Z" stroke="#0626A9" stroke-width="2" stroke-miterlimit="10" stroke-linecap="round"/>
<path d="M885.29 1206.82H816.126C809.668 1206.82 804.432 1201.59 804.432 1195.13C804.432 1188.67 809.668 1183.44 816.126 1183.44H885.29C891.748 1183.44 896.984 1188.67 896.984 1195.13C896.984 1201.59 891.748 1206.82 885.29 1206.82Z" fill="#84AAE4"/>
<path d="M885.29 1206.82H816.126C809.668 1206.82 804.432 1201.59 804.432 1195.13C804.432 1188.67 809.668 1183.44 816.126 1183.44H885.29C891.748 1183.44 896.984 1188.67 896.984 1195.13C896.984 1201.59 891.748 1206.82 885.29 1206.82Z" stroke="#0626A9" stroke-width="2" stroke-miterlimit="10" stroke-linecap="round"/>
<path d="M915.026 1145.39H786.392C779.933 1145.39 774.697 1140.16 774.697 1133.7C774.697 1127.25 779.933 1122.01 786.392 1122.01H915.026C921.484 1122.01 926.719 1127.25 926.719 1133.7C926.719 1140.16 921.484 1145.39 915.026 1145.39Z" fill="#84AAE4"/>
<path d="M915.026 1145.39H786.392C779.933 1145.39 774.697 1140.16 774.697 1133.7C774.697 1127.25 779.933 1122.01 786.392 1122.01H915.026C921.484 1122.01 926.719 1127.25 926.719 1133.7C926.719 1140.16 921.484 1145.39 915.026 1145.39Z" stroke="#0626A9" stroke-width="2" stroke-miterlimit="10" stroke-linecap="round"/>
<path d="M911.06 1168.79H790.355C783.897 1168.79 778.661 1163.55 778.661 1157.09C778.661 1150.63 783.897 1145.39 790.355 1145.39H911.06C917.518 1145.39 922.754 1150.63 922.754 1157.09C922.754 1163.55 917.518 1168.79 911.06 1168.79Z" fill="#84AAE4"/>
<path d="M911.06 1168.79H790.355C783.897 1168.79 778.661 1163.55 778.661 1157.09C778.661 1150.63 783.897 1145.39 790.355 1145.39H911.06C917.518 1145.39 922.754 1150.63 922.754 1157.09C922.754 1163.55 917.518 1168.79 911.06 1168.79Z" stroke="#0626A9" stroke-width="2" stroke-miterlimit="10" stroke-linecap="round"/>
<path d="M905.113 1192.17H796.302C789.844 1192.17 784.608 1186.93 784.608 1180.48C784.608 1174.02 789.844 1168.79 796.302 1168.79H905.113C911.571 1168.79 916.807 1174.02 916.807 1180.48C916.807 1186.93 911.571 1192.17 905.113 1192.17Z" fill="#84AAE4"/>
<path d="M905.113 1192.17H796.302C789.844 1192.17 784.608 1186.93 784.608 1180.48C784.608 1174.02 789.844 1168.79 796.302 1168.79H905.113C911.571 1168.79 916.807 1174.02 916.807 1180.48C916.807 1186.93 911.571 1192.17 905.113 1192.17Z" stroke="#0626A9" stroke-width="2" stroke-miterlimit="10" stroke-linecap="round"/>
<path d="M971.099 945.13C971.058 931.25 961.009 919.745 947.805 917.413C951.858 912.901 954.324 906.931 954.303 900.386C954.268 886.372 942.875 875.042 928.861 875.079C927.34 875.084 925.851 875.23 924.405 875.49C924.418 875.178 924.428 874.865 924.427 874.551C924.395 862.579 914.663 852.901 902.692 852.934C899.188 852.943 895.884 853.788 892.959 855.272C890.381 849.134 884.309 844.829 877.236 844.849C867.849 844.874 860.26 852.504 860.285 861.892L860.737 1028.97C860.762 1038.35 868.393 1045.94 877.781 1045.92C884.963 1045.9 891.088 1041.43 893.56 1035.12C896.629 1036.77 900.14 1037.71 903.87 1037.69C915.842 1037.66 925.521 1027.93 925.488 1015.96C925.487 1015.69 925.476 1015.41 925.465 1015.14C926.696 1015.32 927.957 1015.42 929.24 1015.41C943.251 1015.37 954.581 1003.98 954.546 989.963C954.526 983.424 952.033 977.463 947.952 972.978C961.148 970.569 971.134 959.009 971.099 945.13Z" fill="#8869D5"/>
<path d="M971.099 945.13C971.058 931.25 961.009 919.745 947.805 917.413C951.858 912.901 954.324 906.931 954.303 900.386C954.268 886.372 942.875 875.042 928.861 875.079C927.34 875.084 925.851 875.23 924.405 875.49C924.418 875.178 924.428 874.865 924.427 874.551C924.395 862.579 914.663 852.901 902.692 852.934C899.188 852.943 895.884 853.788 892.959 855.272C890.381 849.134 884.309 844.829 877.236 844.849C867.849 844.874 860.26 852.504 860.285 861.892L860.737 1028.97C860.762 1038.35 868.393 1045.94 877.781 1045.92C884.963 1045.9 891.088 1041.43 893.56 1035.12C896.629 1036.77 900.14 1037.71 903.87 1037.69C915.842 1037.66 925.521 1027.93 925.488 1015.96C925.487 1015.69 925.476 1015.41 925.465 1015.14C926.696 1015.32 927.957 1015.42 929.24 1015.41C943.251 1015.37 954.581 1003.98 954.546 989.963C954.526 983.424 952.033 977.463 947.952 972.978C961.148 970.569 971.134 959.009 971.099 945.13Z" stroke="#0626A9" stroke-width="2.00032" stroke-linecap="round" stroke-linejoin="round"/>
<path d="M905.093 937.993C905.099 940.234 903.29 942.052 901.051 942.059C898.813 942.066 896.993 940.255 896.987 938.015C896.981 935.776 898.79 933.957 901.029 933.951C903.268 933.945 905.087 935.755 905.093 937.993Z" fill="white"/>
<path d="M905.093 937.993C905.099 940.234 903.29 942.052 901.051 942.059C898.813 942.066 896.993 940.255 896.987 938.015C896.981 935.776 898.79 933.957 901.029 933.951C903.268 933.945 905.087 935.755 905.093 937.993Z" stroke="#0626A9" stroke-width="2.00032" stroke-miterlimit="10"/>
<path d="M900.958 907.975C900.964 910.214 899.155 912.033 896.916 912.039C894.678 912.044 892.858 910.235 892.853 907.996C892.846 905.758 894.655 903.939 896.894 903.933C899.133 903.927 900.952 905.736 900.958 907.975Z" fill="white"/>
<path d="M900.958 907.975C900.964 910.214 899.155 912.033 896.916 912.039C894.678 912.044 892.858 910.235 892.853 907.996C892.846 905.758 894.655 903.939 896.894 903.933C899.133 903.927 900.952 905.736 900.958 907.975Z" stroke="#0626A9" stroke-width="2.00032" stroke-miterlimit="10"/>
<path d="M926.038 995.868C926.044 998.11 924.234 999.928 921.996 999.935C919.757 999.942 917.937 998.131 917.932 995.889C917.925 993.654 919.735 991.836 921.973 991.829C924.212 991.822 926.031 993.633 926.038 995.868Z" fill="white"/>
<path d="M926.038 995.868C926.044 998.11 924.234 999.928 921.996 999.935C919.757 999.942 917.937 998.131 917.932 995.889C917.925 993.654 919.735 991.836 921.973 991.829C924.212 991.822 926.031 993.633 926.038 995.868Z" stroke="#0626A9" stroke-width="2.00032" stroke-miterlimit="10"/>
<path d="M887.347 955.513C887.353 957.755 885.544 959.573 883.305 959.58C881.066 959.587 879.247 957.776 879.241 955.534C879.235 953.299 881.045 951.481 883.283 951.474C885.522 951.467 887.342 953.278 887.347 955.513Z" fill="white"/>
<path d="M887.347 955.513C887.353 957.755 885.544 959.573 883.305 959.58C881.066 959.587 879.247 957.776 879.241 955.534C879.235 953.299 881.045 951.481 883.283 951.474C885.522 951.467 887.342 953.278 887.347 955.513Z" stroke="#0626A9" stroke-width="2.00032" stroke-miterlimit="10"/>
<path d="M922.031 991.627L921.982 973.716L883.343 973.821L883.304 959.461" stroke="#0626A9" stroke-width="2.00032" stroke-linecap="round" stroke-linejoin="round"/>
<path d="M912.119 973.452L912.047 946.968L904.435 940.826" stroke="#0626A9" stroke-width="2.00032" stroke-linecap="round" stroke-linejoin="round"/>
<path d="M886.739 985.569C886.745 987.811 884.936 989.629 882.697 989.636C880.459 989.643 878.639 987.832 878.633 985.59C878.627 983.354 880.436 981.537 882.675 981.53C884.914 981.523 886.733 983.333 886.739 985.569Z" fill="white"/>
<path d="M886.739 985.569C886.745 987.811 884.936 989.629 882.697 989.636C880.459 989.643 878.639 987.832 878.633 985.59C878.627 983.354 880.436 981.537 882.675 981.53C884.914 981.523 886.733 983.333 886.739 985.569Z" stroke="#0626A9" stroke-width="2.00032" stroke-miterlimit="10"/>
<path d="M861.024 1008.7L879.808 988.452" stroke="#0626A9" stroke-width="2.00032" stroke-linecap="round" stroke-linejoin="round"/>
<path d="M886.843 1014.84C891.508 1017.82 894.606 1023.05 894.622 1029C894.627 1030.91 894.316 1032.74 893.739 1034.45" stroke="#0626A9" stroke-width="2.00032" stroke-linecap="round" stroke-linejoin="round"/>
<path d="M887.492 1014.42C887.497 1016.66 885.688 1018.47 883.449 1018.48C881.211 1018.49 879.391 1016.68 879.386 1014.44C879.379 1012.2 881.189 1010.38 883.428 1010.37C885.666 1010.37 887.485 1012.18 887.492 1014.42Z" fill="white"/>
<path d="M887.492 1014.42C887.497 1016.66 885.688 1018.47 883.449 1018.48C881.211 1018.49 879.391 1016.68 879.386 1014.44C879.379 1012.2 881.189 1010.38 883.428 1010.37C885.666 1010.37 887.485 1012.18 887.492 1014.42Z" stroke="#0626A9" stroke-width="2.00032" stroke-miterlimit="10"/>
<path d="M929.297 1015.42C918.966 1015.44 910.058 1009.29 906.08 1000.44" stroke="#0626A9" stroke-width="2.00032" stroke-linecap="round" stroke-linejoin="round"/>
<path d="M947.68 917.541C943.077 922.526 936.491 925.656 929.17 925.676C927.012 925.682 924.916 925.416 922.914 924.913L922.881 912.647L932.325 905.571" stroke="#0626A9" stroke-width="2.00032" stroke-linecap="round" stroke-linejoin="round"/>
<path d="M910.2 883.62C913.661 879.724 918.308 876.905 923.577 875.73" stroke="#0626A9" stroke-width="2.00032" stroke-linecap="round" stroke-linejoin="round"/>
<path d="M939.526 902.984C939.533 905.223 937.72 907.042 935.481 907.049C933.242 907.054 931.423 905.245 931.417 903.006C931.411 900.767 933.221 898.948 935.459 898.942C937.698 898.936 939.519 900.746 939.526 902.984Z" fill="white"/>
<path d="M939.526 902.984C939.533 905.223 937.72 907.042 935.481 907.049C933.242 907.054 931.423 905.245 931.417 903.006C931.411 900.767 933.221 898.948 935.459 898.942C937.698 898.936 939.519 900.746 939.526 902.984Z" stroke="#0626A9" stroke-width="2.00032" stroke-miterlimit="10"/>
<path d="M885.312 873.125C885.318 875.363 883.508 877.182 881.27 877.189C879.031 877.195 877.212 875.385 877.206 873.147C877.2 870.908 879.009 869.089 881.248 869.083C883.487 869.077 885.306 870.886 885.312 873.125Z" fill="white"/>
<path d="M885.312 873.125C885.318 875.363 883.508 877.182 881.27 877.189C879.031 877.195 877.212 875.385 877.206 873.147C877.2 870.908 879.009 869.089 881.248 869.083C883.487 869.077 885.306 870.886 885.312 873.125Z" stroke="#0626A9" stroke-width="2.00032" stroke-miterlimit="10"/>
<path d="M912.383 887.319C912.389 889.558 910.58 891.377 908.341 891.383C906.102 891.389 904.283 889.579 904.277 887.341C904.271 885.102 906.08 883.283 908.319 883.277C910.557 883.271 912.377 885.08 912.383 887.319Z" fill="white"/>
<path d="M912.383 887.319C912.389 889.558 910.58 891.377 908.341 891.383C906.102 891.389 904.283 889.579 904.277 887.341C904.271 885.102 906.08 883.283 908.319 883.277C910.557 883.271 912.377 885.08 912.383 887.319Z" stroke="#0626A9" stroke-width="2.00032" stroke-miterlimit="10"/>
<path d="M903.577 887.342L881.297 887.402L881.27 877.107" stroke="#0626A9" stroke-width="2.00032" stroke-linecap="round" stroke-linejoin="round"/>
<path d="M948.091 972.929C946.448 973.229 944.755 973.389 943.021 973.396C931.494 973.431 921.562 966.53 917.166 956.627" stroke="#0626A9" stroke-width="2.00032" stroke-linecap="round" stroke-linejoin="round"/>
<path d="M937.251 948.041C937.257 950.276 935.448 952.094 933.209 952.101C930.97 952.108 929.151 950.297 929.145 948.062C929.139 945.819 930.949 944.002 933.188 943.995C935.426 943.988 937.245 945.799 937.251 948.041Z" fill="white"/>
<path d="M937.251 948.041C937.257 950.276 935.448 952.094 933.209 952.101C930.97 952.108 929.151 950.297 929.145 948.062C929.139 945.819 930.949 944.002 933.188 943.995C935.426 943.988 937.245 945.799 937.251 948.041Z" stroke="#0626A9" stroke-width="2.00032" stroke-miterlimit="10"/>
<path d="M960.347 923.048L948.836 948.006L937.25 948.041" stroke="#0626A9" stroke-width="2.00032" stroke-linecap="round" stroke-linejoin="round"/>
<path d="M896.987 938.015L860.49 938.114" stroke="#0626A9" stroke-width="2.00032" stroke-linecap="round" stroke-linejoin="round"/>
<path d="M879.306 937.877L879.281 928.816L894.404 911.187" stroke="#0626A9" stroke-width="2.00032" stroke-linecap="round" stroke-linejoin="round"/>
<path d="M730.871 945.778C730.834 931.9 740.822 920.34 754.015 917.937C749.935 913.447 747.441 907.49 747.423 900.946C747.385 886.932 758.714 875.54 772.728 875.502C774.25 875.498 775.738 875.636 777.186 875.888C777.171 875.577 777.16 875.263 777.159 874.949C777.127 862.978 786.806 853.247 798.777 853.215C802.281 853.205 805.59 854.033 808.523 855.5C811.067 849.349 817.116 845.011 824.189 844.992C833.577 844.967 841.207 852.556 841.232 861.944L841.684 1029.02C841.709 1038.41 834.12 1046.04 824.733 1046.06C817.549 1046.08 811.4 1041.64 808.895 1035.35C805.835 1037.02 802.329 1037.97 798.599 1037.98C786.627 1038.01 776.896 1028.33 776.863 1016.36C776.862 1016.09 776.873 1015.81 776.882 1015.54C775.652 1015.73 774.391 1015.83 773.108 1015.83C759.094 1015.87 747.703 1004.54 747.666 990.527C747.648 983.981 750.109 978.013 754.165 973.501C740.96 971.168 730.909 959.663 730.871 945.778Z" fill="#8869D5"/>
<path d="M730.871 945.778C730.834 931.9 740.822 920.34 754.015 917.937C749.935 913.447 747.441 907.49 747.423 900.946C747.385 886.932 758.714 875.54 772.728 875.502C774.25 875.498 775.738 875.636 777.186 875.888C777.171 875.577 777.16 875.263 777.159 874.949C777.127 862.978 786.806 853.247 798.777 853.215C802.281 853.205 805.59 854.033 808.523 855.5C811.067 849.349 817.116 845.011 824.189 844.992C833.577 844.967 841.207 852.556 841.232 861.944L841.684 1029.02C841.709 1038.41 834.12 1046.04 824.733 1046.06C817.549 1046.08 811.4 1041.64 808.895 1035.35C805.835 1037.02 802.329 1037.97 798.599 1037.98C786.627 1038.01 776.896 1028.33 776.863 1016.36C776.862 1016.09 776.873 1015.81 776.882 1015.54C775.652 1015.73 774.391 1015.83 773.108 1015.83C759.094 1015.87 747.703 1004.54 747.666 990.527C747.648 983.981 750.109 978.013 754.165 973.501C740.96 971.168 730.909 959.663 730.871 945.778Z" stroke="#0626A9" stroke-width="2.00032" stroke-linecap="round" stroke-linejoin="round"/>
<path d="M796.836 938.286C796.843 940.527 798.662 942.338 800.901 942.331C803.139 942.324 804.949 940.506 804.942 938.264C804.937 936.026 803.117 934.216 800.878 934.222C798.64 934.228 796.83 936.047 796.836 938.286Z" fill="white"/>
<path d="M796.836 938.286C796.843 940.527 798.662 942.338 800.901 942.331C803.139 942.324 804.949 940.506 804.942 938.264C804.937 936.026 803.117 934.216 800.878 934.222C798.64 934.228 796.83 936.047 796.836 938.286Z" stroke="#0626A9" stroke-width="2.00032" stroke-miterlimit="10"/>
<path d="M800.809 908.246C800.814 910.484 802.634 912.294 804.873 912.287C807.111 912.282 808.921 910.462 808.914 908.224C808.908 905.985 807.089 904.176 804.85 904.182C802.612 904.188 800.802 906.007 800.809 908.246Z" fill="white"/>
<path d="M800.809 908.246C800.814 910.484 802.634 912.294 804.873 912.287C807.111 912.282 808.921 910.462 808.914 908.224C808.908 905.985 807.089 904.176 804.85 904.182C802.612 904.188 800.802 906.007 800.809 908.246Z" stroke="#0626A9" stroke-width="2.00032" stroke-miterlimit="10"/>
<path d="M776.206 996.279C776.212 998.514 778.031 1000.32 780.27 1000.32C782.509 1000.31 784.318 998.493 784.311 996.251C784.306 994.016 782.486 992.205 780.247 992.212C778.009 992.219 776.199 994.037 776.206 996.279Z" fill="white"/>
<path d="M776.206 996.279C776.212 998.514 778.031 1000.32 780.27 1000.32C782.509 1000.31 784.318 998.493 784.311 996.251C784.306 994.016 782.486 992.205 780.247 992.212C778.009 992.219 776.199 994.037 776.206 996.279Z" stroke="#0626A9" stroke-width="2.00032" stroke-miterlimit="10"/>
<path d="M814.677 955.715C814.683 957.95 816.502 959.761 818.741 959.754C820.98 959.747 822.789 957.929 822.783 955.687C822.777 953.452 820.957 951.641 818.719 951.648C816.48 951.655 814.671 953.473 814.677 955.715Z" fill="white"/>
<path d="M814.677 955.715C814.683 957.95 816.502 959.761 818.741 959.754C820.98 959.747 822.789 957.929 822.783 955.687C822.777 953.452 820.957 951.641 818.719 951.648C816.48 951.655 814.671 953.473 814.677 955.715Z" stroke="#0626A9" stroke-width="2.00032" stroke-miterlimit="10"/>
<path d="M780.189 992.01L780.141 974.099L818.779 973.995L818.741 959.635" stroke="#0626A9" stroke-width="2.00032" stroke-linecap="round" stroke-linejoin="round"/>
<path d="M790.003 973.786L789.931 947.296L797.51 941.119" stroke="#0626A9" stroke-width="2.00032" stroke-linecap="round" stroke-linejoin="round"/>
<path d="M815.447 985.764C815.453 987.999 817.272 989.81 819.511 989.803C821.75 989.803 823.559 987.978 823.553 985.743C823.547 983.5 821.727 981.697 819.489 981.697C817.25 981.704 815.441 983.521 815.447 985.764Z" fill="white"/>
<path d="M815.447 985.764C815.453 987.999 817.272 989.81 819.511 989.803C821.75 989.803 823.559 987.978 823.553 985.743C823.547 983.5 821.727 981.697 819.489 981.697C817.25 981.704 815.441 983.521 815.447 985.764Z" stroke="#0626A9" stroke-width="2.00032" stroke-miterlimit="10"/>
<path d="M841.286 1008.75L822.393 988.605" stroke="#0626A9" stroke-width="2.00032" stroke-linecap="round" stroke-linejoin="round"/>
<path d="M815.501 1015.03C810.852 1018.05 807.783 1023.28 807.799 1029.24C807.805 1031.14 808.125 1032.97 808.712 1034.68" stroke="#0626A9" stroke-width="2.00032" stroke-linecap="round" stroke-linejoin="round"/>
<path d="M814.851 1014.61C814.857 1016.85 816.676 1018.66 818.915 1018.65C821.153 1018.65 822.963 1016.83 822.957 1014.59C822.951 1012.35 821.132 1010.55 818.893 1010.55C816.654 1010.55 814.845 1012.38 814.851 1014.61Z" fill="white"/>
<path d="M814.851 1014.61C814.857 1016.85 816.676 1018.66 818.915 1018.65C821.153 1018.65 822.963 1016.83 822.957 1014.59C822.951 1012.35 821.132 1010.55 818.893 1010.55C816.654 1010.55 814.845 1012.38 814.851 1014.61Z" stroke="#0626A9" stroke-width="2.00032" stroke-miterlimit="10"/>
<path d="M773.051 1015.84C783.383 1015.81 792.256 1009.61 796.187 1000.74" stroke="#0626A9" stroke-width="2.00032" stroke-linecap="round" stroke-linejoin="round"/>
<path d="M754.141 918.065C758.77 923.025 765.373 926.119 772.693 926.099C774.851 926.094 776.945 925.817 778.944 925.302L778.911 913.037L769.429 906.012" stroke="#0626A9" stroke-width="2.00032" stroke-linecap="round" stroke-linejoin="round"/>
<path d="M791.435 883.941C787.953 880.064 783.291 877.269 778.016 876.124" stroke="#0626A9" stroke-width="2.00032" stroke-linecap="round" stroke-linejoin="round"/>
<path d="M762.218 903.464C762.223 905.703 764.043 907.512 766.282 907.506C768.52 907.5 770.33 905.681 770.324 903.442C770.317 901.204 768.498 899.394 766.26 899.4C764.021 899.406 762.212 901.225 762.218 903.464Z" fill="white"/>
<path d="M762.218 903.464C762.223 905.703 764.043 907.512 766.282 907.506C768.52 907.5 770.33 905.681 770.324 903.442C770.317 901.204 768.498 899.394 766.26 899.4C764.021 899.406 762.212 901.225 762.218 903.464Z" stroke="#0626A9" stroke-width="2.00032" stroke-miterlimit="10"/>
<path d="M816.266 873.312C816.272 875.551 818.091 877.36 820.33 877.354C822.569 877.347 824.378 875.528 824.372 873.29C824.366 871.051 822.547 869.242 820.308 869.248C818.07 869.254 816.26 871.073 816.266 873.312Z" fill="white"/>
<path d="M816.266 873.312C816.272 875.551 818.091 877.36 820.33 877.354C822.569 877.347 824.378 875.528 824.372 873.29C824.366 871.051 822.547 869.242 820.308 869.248C818.07 869.254 816.26 871.073 816.266 873.312Z" stroke="#0626A9" stroke-width="2.00032" stroke-miterlimit="10"/>
<path d="M789.271 887.652C789.278 889.891 791.097 891.7 793.336 891.694C795.574 891.688 797.384 889.869 797.377 887.63C797.372 885.391 795.552 883.582 793.314 883.588C791.075 883.595 789.266 885.414 789.271 887.652Z" fill="white"/>
<path d="M789.271 887.652C789.278 889.891 791.097 891.7 793.336 891.694C795.574 891.688 797.384 889.869 797.377 887.63C797.372 885.391 795.552 883.582 793.314 883.588C791.075 883.595 789.266 885.414 789.271 887.652Z" stroke="#0626A9" stroke-width="2.00032" stroke-miterlimit="10"/>
<path d="M798.078 887.627L820.357 887.567L820.329 877.272" stroke="#0626A9" stroke-width="2.00032" stroke-linecap="round" stroke-linejoin="round"/>
<path d="M754.03 973.452C755.675 973.751 757.368 973.897 759.097 973.897C770.627 973.863 780.521 966.913 784.864 956.989" stroke="#0626A9" stroke-width="2.00032" stroke-linecap="round" stroke-linejoin="round"/>
<path d="M764.733 948.507C764.739 950.743 766.559 952.553 768.797 952.546C771.036 952.539 772.845 950.722 772.839 948.48C772.833 946.244 771.014 944.434 768.775 944.441C766.536 944.448 764.727 946.265 764.733 948.507Z" fill="white"/>
<path d="M764.733 948.507C764.739 950.743 766.559 952.553 768.797 952.546C771.036 952.539 772.845 950.722 772.839 948.48C772.833 946.244 771.014 944.434 768.775 944.441C766.536 944.448 764.727 946.265 764.733 948.507Z" stroke="#0626A9" stroke-width="2.00032" stroke-miterlimit="10"/>
<path d="M741.501 923.641L753.151 948.535L764.733 948.507" stroke="#0626A9" stroke-width="2.00032" stroke-linecap="round" stroke-linejoin="round"/>
<path d="M804.942 938.264L841.439 938.166" stroke="#0626A9" stroke-width="2.00032" stroke-linecap="round" stroke-linejoin="round"/>
<path d="M822.623 938.03L822.598 928.969L807.38 911.423" stroke="#0626A9" stroke-width="2.00032" stroke-linecap="round" stroke-linejoin="round"/>
<path d="M415.86 731.12C415.86 723.677 409.827 717.644 402.384 717.644C394.941 717.644 388.908 723.677 388.908 731.12C388.908 738.563 394.941 744.597 402.384 744.597C409.827 744.597 415.86 738.563 415.86 731.12Z" stroke="#0626A9" stroke-width="2" stroke-miterlimit="10"/>
<path d="M420.761 675.657C420.761 670.956 416.951 667.145 412.25 667.145C407.55 667.145 403.738 670.956 403.738 675.657C403.738 680.357 407.55 684.168 412.25 684.168C416.951 684.168 420.761 680.357 420.761 675.657Z" fill="#84AAE4"/>
<path d="M420.761 675.657C420.761 670.956 416.951 667.145 412.25 667.145C407.55 667.145 403.738 670.956 403.738 675.657C403.738 680.357 407.55 684.168 412.25 684.168C416.951 684.168 420.761 680.357 420.761 675.657Z" stroke="#0626A9" stroke-width="2" stroke-miterlimit="10"/>
<path d="M431.601 642.857C431.601 639.039 428.507 635.944 424.688 635.944C420.87 635.944 417.775 639.039 417.775 642.857C417.775 646.675 420.87 649.77 424.688 649.77C428.507 649.77 431.601 646.675 431.601 642.857Z" stroke="#0626A9" stroke-width="2" stroke-miterlimit="10"/>
<path d="M1218.56 921.914C1218.56 914.471 1212.53 908.438 1205.09 908.438C1197.64 908.438 1191.61 914.471 1191.61 921.914C1191.61 929.357 1197.64 935.391 1205.09 935.391C1212.53 935.391 1218.56 929.357 1218.56 921.914Z" stroke="#0626A9" stroke-width="2" stroke-miterlimit="10"/>
<path d="M1144.58 889.483C1144.58 885.47 1141.33 882.218 1137.32 882.218C1133.31 882.218 1130.05 885.47 1130.05 889.483C1130.05 893.495 1133.31 896.748 1137.32 896.748C1141.33 896.748 1144.58 893.495 1144.58 889.483Z" fill="#84AAE4"/>
<path d="M1144.58 889.483C1144.58 885.47 1141.33 882.218 1137.32 882.218C1133.31 882.218 1130.05 885.47 1130.05 889.483C1130.05 893.495 1133.31 896.748 1137.32 896.748C1141.33 896.748 1144.58 893.495 1144.58 889.483Z" stroke="#0626A9" stroke-width="2" stroke-miterlimit="10"/>
<path d="M1186.54 846.776C1186.54 842.958 1183.45 839.863 1179.63 839.863C1175.81 839.863 1172.71 842.958 1172.71 846.776C1172.71 850.595 1175.81 853.689 1179.63 853.689C1183.45 853.689 1186.54 850.595 1186.54 846.776Z" stroke="#0626A9" stroke-width="2" stroke-miterlimit="10"/>
<path d="M1017.14 348.504C1017.14 343.678 1013.23 339.766 1008.4 339.766C1003.58 339.766 999.665 343.678 999.665 348.504C999.665 353.33 1003.58 357.243 1008.4 357.243C1013.23 357.243 1017.14 353.33 1017.14 348.504Z" stroke="#0626A9" stroke-width="2" stroke-miterlimit="10"/>
<path d="M1038.2 384.665C1038.2 381.382 1035.54 378.719 1032.26 378.719C1028.98 378.719 1026.31 381.382 1026.31 384.665C1026.31 387.948 1028.98 390.611 1032.26 390.611C1035.54 390.611 1038.2 387.948 1038.2 384.665Z" stroke="#0626A9" stroke-width="2" stroke-miterlimit="10"/>
<path d="M639.435 1023.1C639.435 1023.1 611.448 1023.1 580.23 1023.1" stroke="#0626A9" stroke-width="2" stroke-miterlimit="10"/>
<path d="M558.027 1023.1C525.833 1023.1 496.357 1023.1 496.357 1023.1C496.357 1023.1 496.357 997.922 496.357 958.96" stroke="#0626A9" stroke-width="2" stroke-miterlimit="10"/>
<path d="M496.357 929.356C496.357 876.845 496.357 809.068 496.357 744.332" stroke="#0626A9" stroke-width="2" stroke-miterlimit="10"/>
<path d="M496.357 677.725C496.357 618.199 496.357 567.928 496.357 544.509" stroke="#0626A9" stroke-width="2" stroke-miterlimit="10"/>
<path d="M511.851 530.405C540.904 530.405 600.661 530.405 600.661 530.405" stroke="#0626A9" stroke-width="2" stroke-miterlimit="10"/>
<path d="M650.686 1023.09C650.686 1029.31 645.649 1034.34 639.435 1034.34C633.221 1034.34 628.185 1029.31 628.185 1023.09C628.185 1016.88 633.221 1011.84 639.435 1011.84C645.649 1011.84 650.686 1016.88 650.686 1023.09Z" fill="#84AAE4"/>
<path d="M650.686 1023.09C650.686 1029.31 645.649 1034.34 639.435 1034.34C633.221 1034.34 628.185 1029.31 628.185 1023.09C628.185 1016.88 633.221 1011.84 639.435 1011.84C645.649 1011.84 650.686 1016.88 650.686 1023.09Z" stroke="#0626A9" stroke-width="2" stroke-miterlimit="10"/>
<path d="M971.83 393.543V618.891C971.83 635.123 958.676 648.278 942.443 648.278H618.906C602.674 648.278 589.519 635.123 589.519 618.891V393.543C589.519 377.317 602.674 364.156 618.906 364.156H942.443C958.676 364.156 971.83 377.317 971.83 393.543Z" fill="#0626A9"/>
<path d="M971.83 393.543V618.891C971.83 635.123 958.676 648.278 942.443 648.278H618.906C602.674 648.278 589.519 635.123 589.519 618.891V393.543C589.519 377.317 602.674 364.156 618.906 364.156H942.443C958.676 364.156 971.83 377.317 971.83 393.543Z" stroke="#0626A9" stroke-width="2" stroke-linecap="round" stroke-linejoin="round"/>
<path d="M971.83 393.543V618.891C971.83 635.123 958.676 648.278 942.443 648.278H618.906C602.674 648.278 589.519 635.123 589.519 618.891V393.543C589.519 377.317 602.674 364.156 618.906 364.156H942.443C958.676 364.156 971.83 377.317 971.83 393.543Z" fill="#84AAE4"/>
<path d="M971.83 393.543V618.891C971.83 635.123 958.676 648.278 942.443 648.278H618.906C602.674 648.278 589.519 635.123 589.519 618.891V393.543C589.519 377.317 602.674 364.156 618.906 364.156H942.443C958.676 364.156 971.83 377.317 971.83 393.543Z" stroke="#0626A9" stroke-width="2" stroke-miterlimit="10" stroke-linecap="round"/>
<path d="M618.419 506.218C618.419 501.314 614.444 497.339 609.54 497.339C604.636 497.339 600.661 501.314 600.661 506.218C600.661 511.122 604.636 515.097 609.54 515.097C614.444 515.097 618.419 511.122 618.419 506.218Z" fill="#0626A9"/>
<path d="M618.419 506.218C618.419 501.314 614.444 497.339 609.54 497.339C604.636 497.339 600.661 501.314 600.661 506.218C600.661 511.122 604.636 515.097 609.54 515.097C614.444 515.097 618.419 511.122 618.419 506.218Z" stroke="#0626A9" stroke-width="2" stroke-miterlimit="10" stroke-linecap="round"/>
<path d="M948.502 632.262H629.561V380.173H948.502V632.262Z" fill="white"/>
<path d="M948.502 632.262H629.561V380.173H948.502V632.262Z" stroke="#0626A9" stroke-width="2" stroke-miterlimit="10" stroke-linecap="round"/>
<path d="M900.812 576.027H677.25V436.409H900.812V576.027Z" fill="#8869D5"/>
<path d="M900.812 576.027H677.25V436.409H900.812V576.027Z" stroke="#0626A9" stroke-width="2" stroke-miterlimit="10" stroke-linecap="round"/>
<path d="M732.92 479.48C732.92 469.807 725.079 461.966 715.406 461.966C705.734 461.966 697.893 469.807 697.893 479.48C697.893 489.152 705.734 496.993 715.406 496.993C725.079 496.993 732.92 489.152 732.92 479.48Z" fill="white"/>
<path d="M800.157 484.92H744.822V474.038H800.157V484.92Z" fill="white"/>
<path d="M861.127 514.762H697.893V510.661H861.127V514.762Z" fill="white"/>
<path d="M814.537 550.47H697.893V546.369H814.537V550.47Z" fill="white"/>
<path d="M880.171 530.405H697.893V526.305H880.171V530.405Z" fill="white"/>
<path d="M1052.09 990.924C1052.09 990.924 1052.09 968.417 1052.09 936.331" stroke="#0626A9" stroke-width="2"/>
<path d="M1052.09 911.76C1052.09 884.491 1052.09 853.491 1052.09 824.405" stroke="#0626A9" stroke-width="2"/>
<path d="M1052.09 777.997C1052.09 761.683 1052.09 747.519 1052.09 737.05" stroke="#0626A9" stroke-width="2"/>
<path d="M1062.75 991.432C1062.75 997.644 1057.71 1002.69 1051.5 1002.69C1045.28 1002.69 1040.25 997.644 1040.25 991.432C1040.25 985.221 1045.28 980.179 1051.5 980.179C1057.71 980.179 1062.75 985.221 1062.75 991.432Z" fill="#84AAE4"/>
<path d="M1062.75 991.432C1062.75 997.644 1057.71 1002.69 1051.5 1002.69C1045.28 1002.69 1040.25 997.644 1040.25 991.432C1040.25 985.221 1045.28 980.179 1051.5 980.179C1057.71 980.179 1062.75 985.221 1062.75 991.432Z" stroke="#0626A9" stroke-width="2" stroke-miterlimit="10"/>
<mask id="mask2_40000055_8478" style="mask-type:alpha" maskUnits="userSpaceOnUse" x="588" y="363" width="385" height="287">
<path d="M971.83 393.543V618.891C971.83 635.123 958.676 648.278 942.443 648.278H618.906C602.674 648.278 589.519 635.123 589.519 618.891V393.543C589.519 377.317 602.674 364.156 618.906 364.156H942.443C958.676 364.156 971.83 377.317 971.83 393.543Z" fill="#8484FA"/>
<path d="M971.83 393.543V618.891C971.83 635.123 958.676 648.278 942.443 648.278H618.906C602.674 648.278 589.519 635.123 589.519 618.891V393.543C589.519 377.317 602.674 364.156 618.906 364.156H942.443C958.676 364.156 971.83 377.317 971.83 393.543Z" stroke="#202870" stroke-width="2" stroke-miterlimit="10" stroke-linecap="round"/>
</mask>
<g mask="url(#mask2_40000055_8478)">
<path d="M1171.22 563.145H951.169L857.856 729.928H1169.83L1171.22 563.145Z" fill="#0626A9"/>
</g>
<path d="M1175.28 759.221H950.772V563.015H1175.28V759.221Z" fill="white"/>
<path d="M1175.28 759.221H950.772V563.015H1175.28V759.221Z" stroke="#0626A9" stroke-width="2" stroke-miterlimit="10"/>
<path d="M1127.74 669.707C1127.74 671.622 1127.66 673.516 1127.5 675.389C1127.49 675.522 1127.48 675.647 1127.46 675.779V675.786C1126.66 685.076 1124 693.836 1119.87 701.692C1114.16 712.555 1105.63 721.712 1095.25 728.175C1084.7 734.763 1072.23 738.565 1058.87 738.565C1057.1 738.565 1055.33 738.495 1053.59 738.363C1051.8 738.231 1050.01 738.029 1048.26 737.743L1048.13 737.729C1048.12 737.729 1048.11 737.722 1048.11 737.722C1042.96 736.921 1038 735.543 1033.3 733.655C1007.93 723.509 990.013 698.697 990.013 669.707C990.013 663.934 990.724 658.328 992.061 652.973C993.022 649.143 994.296 645.438 995.87 641.894C1003.21 625.278 1016.94 612.117 1033.93 605.508C1041.66 602.5 1050.07 600.849 1058.87 600.849C1070.27 600.849 1081.02 603.621 1090.49 608.53C1092.11 609.366 1093.69 610.264 1095.23 611.232H1095.24C1114.75 623.377 1127.74 645.027 1127.74 669.707Z" stroke="#0626A9" stroke-width="2" stroke-miterlimit="10"/>
<mask id="mask3_40000055_8478" style="mask-type:alpha" maskUnits="userSpaceOnUse" x="990" y="600" width="138" height="139">
<path d="M1127.74 669.707C1127.74 671.622 1127.66 673.516 1127.5 675.389C1127.49 675.522 1127.48 675.647 1127.46 675.779V675.786C1126.66 685.076 1124 693.836 1119.87 701.692C1114.16 712.555 1105.63 721.712 1095.25 728.175C1084.7 734.763 1072.23 738.565 1058.87 738.565C1057.1 738.565 1055.33 738.495 1053.59 738.363C1051.8 738.231 1050.01 738.029 1048.26 737.743L1048.13 737.729C1048.12 737.729 1048.11 737.722 1048.11 737.722C1042.96 736.921 1038 735.543 1033.3 733.655C1007.93 723.509 990.013 698.697 990.013 669.707C990.013 663.934 990.724 658.328 992.061 652.973C993.022 649.143 994.296 645.438 995.87 641.894C1003.21 625.278 1016.94 612.117 1033.93 605.508C1041.66 602.5 1050.07 600.849 1058.87 600.849C1070.27 600.849 1081.02 603.621 1090.49 608.53C1092.11 609.366 1093.69 610.264 1095.23 611.232H1095.24C1114.75 623.377 1127.74 645.027 1127.74 669.707Z" fill="#8484FA"/>
</mask>
<g mask="url(#mask3_40000055_8478)">
<path d="M1095.24 611.232H1095.23C1069.29 606.323 1040.08 615.905 1023.12 631.949C1009.96 644.408 1029.08 649.836 1064.59 662.197C1091.13 671.439 1091.7 700.11 1100.46 686.476C1130.06 640.371 1128.01 680.05 1137.34 680.483C1151.32 681.131 1151.89 628.327 1151.89 626.412C1151.89 601.732 1114.75 623.377 1095.24 611.232Z" fill="#84AAE4"/>
<path d="M1047.68 719.021C1045.77 695.475 1072.65 702.504 1067.93 688.348C1065 679.563 1036.47 672.996 1014.84 672.815C988.801 672.599 1007.36 704.068 1021.43 716.117C1049.84 740.454 1043.47 746.998 1052.26 753.385C1053.54 754.323 1055.1 754.823 1056.69 754.871C1063.64 755.082 1067.61 747.018 1063.21 741.635C1056.73 733.708 1049.05 735.931 1047.68 719.021Z" fill="#84AAE4"/>
<path d="M1017.51 662.05C1021.38 653.639 1005.07 629.329 989.421 614.398C970.577 596.426 962.576 632.071 964.595 650.483C968.662 687.673 959.539 688.086 961.573 698.754C961.872 700.32 962.666 701.749 963.794 702.875C968.725 707.785 977.137 704.621 977.603 697.681C978.3 687.463 971.183 683.836 981.754 670.563C996.461 652.079 1011.27 675.603 1017.51 662.05Z" fill="#84AAE4"/>
<path d="M1094.48 728.066C1130.46 738.488 1140.89 732.981 1119.87 701.692C1110.44 687.655 1065.93 719.799 1094.48 728.066Z" fill="#84AAE4"/>
<path d="M1067.74 726.909C1063.57 726.909 1066.45 735.776 1067.93 739.69C1068.35 740.787 1069.4 741.509 1070.57 741.509C1072.26 741.509 1073.58 740.041 1073.38 738.364C1072.87 734.072 1071.48 726.909 1067.74 726.909Z" fill="#84AAE4"/>
</g>
<path d="M1127.74 669.707C1127.74 671.622 1127.66 673.516 1127.5 675.389C1127.49 675.522 1127.48 675.647 1127.46 675.779V675.786C1126.66 685.076 1124 693.836 1119.87 701.692C1114.16 712.555 1105.63 721.712 1095.25 728.175C1084.7 734.763 1072.23 738.565 1058.87 738.565C1057.1 738.565 1055.33 738.495 1053.59 738.363C1051.8 738.231 1050.01 738.029 1048.26 737.743L1048.13 737.729C1048.12 737.729 1048.11 737.722 1048.11 737.722C1042.96 736.921 1038 735.543 1033.3 733.655C1007.93 723.509 990.013 698.697 990.013 669.707C990.013 663.934 990.724 658.328 992.061 652.973C993.022 649.143 994.296 645.438 995.87 641.894C1003.21 625.278 1016.94 612.117 1033.93 605.508C1041.66 602.5 1050.07 600.849 1058.87 600.849C1070.27 600.849 1081.02 603.621 1090.49 608.53C1092.11 609.366 1093.69 610.264 1095.23 611.232H1095.24C1114.75 623.377 1127.74 645.027 1127.74 669.707Z" stroke="#0626A9" stroke-width="2" stroke-miterlimit="10"/>
</g>
</g>
</g>
<defs>
<clipPath id="clip0_40000055_8478">
<rect width="1600" height="1600" fill="white"/>
</clipPath>
</defs>
</svg>
