<svg width="1600" height="1600" viewBox="0 0 1600 1600" fill="none" xmlns="http://www.w3.org/2000/svg">
<g clip-path="url(#clip0_20_4567)">
<mask id="mask0_20_4567" style="mask-type:luminance" maskUnits="userSpaceOnUse" x="0" y="0" width="1600" height="1600">
<path d="M1600 0H0V1600H1600V0Z" fill="white"/>
</mask>
<g mask="url(#mask0_20_4567)">
<path d="M833.822 855.918H771.087C765.431 835.15 757.204 815.443 746.746 797.172L791.112 752.806C800.341 743.577 800.341 728.614 791.112 719.385L730.488 658.761C721.259 649.532 706.296 649.532 697.067 658.761L652.701 703.127C634.43 692.669 614.723 684.442 593.955 678.786L598.955 616.051C598.955 602.999 588.374 592.418 575.322 592.418H489.588C476.536 592.418 465.955 602.999 465.955 616.051L460.955 678.786C440.187 684.442 420.48 692.669 402.209 703.127L357.843 658.761C348.614 649.532 333.651 649.532 324.422 658.761L263.798 719.385C254.569 728.614 254.569 743.577 263.798 752.806L308.164 797.172C297.706 815.443 289.479 835.15 283.823 855.918H221.088C208.036 855.918 197.455 866.499 197.455 879.551V965.285C197.455 978.337 208.036 988.918 221.088 988.918H283.823C289.479 1009.69 297.706 1029.39 308.164 1047.66L263.798 1092.03C254.569 1101.26 254.569 1116.22 263.798 1125.45L324.422 1186.07C333.651 1195.3 348.614 1195.3 357.843 1186.07L402.209 1141.71C420.48 1152.17 440.187 1160.39 460.955 1166.05V1228.78C460.955 1241.84 471.536 1252.42 484.588 1252.42H570.322C583.374 1252.42 593.955 1241.84 593.955 1228.78V1166.05C614.723 1160.39 634.43 1152.17 652.701 1141.71L697.067 1186.07C706.296 1195.3 721.259 1195.3 730.488 1186.07L791.112 1125.45C800.341 1116.22 800.341 1101.26 791.112 1092.03L746.746 1047.66C757.204 1029.39 765.431 1009.69 771.087 988.918H833.822C846.874 988.918 857.455 978.337 857.455 965.285V879.551C857.455 866.499 846.874 855.918 833.822 855.918ZM652.455 922.418C652.455 991.454 596.491 1047.42 527.455 1047.42C458.419 1047.42 402.455 991.454 402.455 922.418C402.455 853.382 458.419 797.418 527.455 797.418C596.491 797.418 652.455 853.382 652.455 922.418Z" fill="#84AAE4"/>
<path d="M833.822 855.918H771.087C765.431 835.15 757.204 815.443 746.746 797.172L791.112 752.806C800.341 743.577 800.341 728.614 791.112 719.385L730.488 658.761C721.259 649.532 706.296 649.532 697.067 658.761L652.701 703.127C634.43 692.669 614.723 684.442 593.955 678.786L598.955 616.051C598.955 602.999 588.374 592.418 575.322 592.418H489.588C476.536 592.418 465.955 602.999 465.955 616.051L460.955 678.786C440.187 684.442 420.48 692.669 402.209 703.127L357.843 658.761C348.614 649.532 333.651 649.532 324.422 658.761L263.798 719.385C254.569 728.614 254.569 743.577 263.798 752.806L308.164 797.172C297.706 815.443 289.479 835.15 283.823 855.918H221.088C208.036 855.918 197.455 866.499 197.455 879.551V965.285C197.455 978.337 208.036 988.918 221.088 988.918H283.823C289.479 1009.69 297.706 1029.39 308.164 1047.66L263.798 1092.03C254.569 1101.26 254.569 1116.22 263.798 1125.45L324.422 1186.07C333.651 1195.3 348.614 1195.3 357.843 1186.07L402.209 1141.71C420.48 1152.17 440.187 1160.39 460.955 1166.05V1228.78C460.955 1241.84 471.536 1252.42 484.588 1252.42H570.322C583.374 1252.42 593.955 1241.84 593.955 1228.78V1166.05C614.723 1160.39 634.43 1152.17 652.701 1141.71L697.067 1186.07C706.296 1195.3 721.259 1195.3 730.488 1186.07L791.112 1125.45C800.341 1116.22 800.341 1101.26 791.112 1092.03L746.746 1047.66C757.204 1029.39 765.431 1009.69 771.087 988.918H833.822C846.874 988.918 857.455 978.337 857.455 965.285V879.551C857.455 866.499 846.874 855.918 833.822 855.918ZM652.455 922.418C652.455 991.454 596.491 1047.42 527.455 1047.42C458.419 1047.42 402.455 991.454 402.455 922.418C402.455 853.382 458.419 797.418 527.455 797.418C596.491 797.418 652.455 853.382 652.455 922.418Z" stroke="#0626A9" stroke-width="2" stroke-miterlimit="10" stroke-linecap="round"/>
<path d="M397.238 1459.04L1206.31 1447.82L1327.61 1023.15C1330.33 1013.68 1324.85 1006 1315.38 1006H544.269C534.798 1006 524.919 1013.68 522.204 1023.15L397.238 1459.04Z" fill="#0626A9"/>
<path d="M397.238 1459.04L1206.31 1447.82L1327.61 1023.15C1330.33 1013.68 1324.85 1006 1315.38 1006H544.269C534.798 1006 524.919 1013.68 522.204 1023.15L397.238 1459.04Z" stroke="#0626A9" stroke-width="2" stroke-linecap="round" stroke-linejoin="round"/>
<path d="M382.401 1459.04H1187.81L1312.78 1023.15C1315.49 1013.68 1310.02 1006 1300.54 1006H529.432C519.961 1006 510.082 1013.68 507.367 1023.15L382.401 1459.04Z" fill="#84AAE4"/>
<path d="M382.401 1459.04H1187.81L1312.78 1023.15C1315.49 1013.68 1310.02 1006 1300.54 1006H529.432C519.961 1006 510.082 1013.68 507.367 1023.15L382.401 1459.04Z" stroke="#0626A9" stroke-width="2" stroke-linecap="round" stroke-linejoin="round"/>
<path d="M403.116 1441.62H1177.09L1296.98 1023.43H523.008L403.116 1441.62Z" fill="white"/>
<path d="M403.116 1441.62H1177.09L1296.98 1023.43H523.008L403.116 1441.62Z" stroke="#0626A9" stroke-width="2" stroke-linecap="round" stroke-linejoin="round"/>
<path d="M204.551 1461.32H1176.46L1198.43 1434.96H178.192C178.192 1449.52 189.994 1461.32 204.551 1461.32Z" fill="#84AAE4"/>
<path d="M204.551 1461.32H1176.46L1198.43 1434.96H178.192C178.192 1449.52 189.994 1461.32 204.551 1461.32Z" stroke="#0626A9" stroke-width="2" stroke-linecap="round" stroke-linejoin="round"/>
<path d="M869.331 1461.83H1192.04C1198.24 1461.83 1203.67 1457.66 1205.25 1451.67L1209.54 1435.47H842.972C842.972 1450.03 854.774 1461.83 869.331 1461.83Z" fill="#0626A9"/>
<path d="M869.331 1461.83H1192.04C1198.24 1461.83 1203.67 1457.66 1205.25 1451.67L1209.54 1435.47H842.972C842.972 1450.03 854.774 1461.83 869.331 1461.83Z" stroke="#0626A9" stroke-width="2" stroke-linecap="round" stroke-linejoin="round"/>
<path d="M130.986 1461.83H1469.01" stroke="#0626A9" stroke-width="2" stroke-miterlimit="10"/>
<path d="M1098.87 1008.05C1098.87 883.206 997.662 782 872.818 782C747.974 782 646.768 883.206 646.768 1008.05C646.768 1075.39 676.222 1135.83 722.936 1177.25C735.134 1188.9 780.459 1234.66 780.459 1271.32H965.178C965.178 1228.96 1025.99 1174.44 1025.99 1174.44H1025.81C1070.72 1133.13 1098.87 1073.88 1098.87 1008.05Z" fill="white"/>
<path d="M1098.87 1008.05C1098.87 883.206 997.662 782 872.818 782C747.974 782 646.768 883.206 646.768 1008.05C646.768 1075.39 676.222 1135.83 722.936 1177.25C735.134 1188.9 780.459 1234.66 780.459 1271.32H965.178C965.178 1228.96 1025.99 1174.44 1025.99 1174.44H1025.81C1070.72 1133.13 1098.87 1073.88 1098.87 1008.05Z" stroke="#0626A9" stroke-width="2" stroke-miterlimit="10" stroke-linecap="round"/>
<path d="M922.478 1384.03H823.159C813.885 1384.03 806.366 1376.51 806.366 1367.24C806.366 1357.96 813.885 1350.45 823.159 1350.45H922.478C931.752 1350.45 939.27 1357.96 939.27 1367.24C939.27 1376.51 931.752 1384.03 922.478 1384.03Z" fill="#84AAE4"/>
<path d="M922.478 1384.03H823.159C813.885 1384.03 806.366 1376.51 806.366 1367.24C806.366 1357.96 813.885 1350.45 823.159 1350.45H922.478C931.752 1350.45 939.27 1357.96 939.27 1367.24C939.27 1376.51 931.752 1384.03 922.478 1384.03Z" stroke="#0626A9" stroke-width="2" stroke-miterlimit="10" stroke-linecap="round"/>
<path d="M965.178 1295.82H780.459C771.185 1295.82 763.666 1288.31 763.666 1279.03C763.666 1269.76 771.185 1262.24 780.459 1262.24H965.178C974.452 1262.24 981.97 1269.76 981.97 1279.03C981.97 1288.31 974.452 1295.82 965.178 1295.82Z" fill="#84AAE4"/>
<path d="M965.178 1295.82H780.459C771.185 1295.82 763.666 1288.31 763.666 1279.03C763.666 1269.76 771.185 1262.24 780.459 1262.24H965.178C974.452 1262.24 981.97 1269.76 981.97 1279.03C981.97 1288.31 974.452 1295.82 965.178 1295.82Z" stroke="#0626A9" stroke-width="2" stroke-miterlimit="10" stroke-linecap="round"/>
<path d="M959.483 1329.41H786.151C776.877 1329.41 769.358 1321.89 769.358 1312.62C769.358 1303.34 776.877 1295.82 786.151 1295.82H959.483C968.757 1295.82 976.276 1303.34 976.276 1312.62C976.276 1321.89 968.757 1329.41 959.483 1329.41Z" fill="#84AAE4"/>
<path d="M959.483 1329.41H786.151C776.877 1329.41 769.358 1321.89 769.358 1312.62C769.358 1303.34 776.877 1295.82 786.151 1295.82H959.483C968.757 1295.82 976.276 1303.34 976.276 1312.62C976.276 1321.89 968.757 1329.41 959.483 1329.41Z" stroke="#0626A9" stroke-width="2" stroke-miterlimit="10" stroke-linecap="round"/>
<path d="M950.943 1362.99H794.691C785.417 1362.99 777.898 1355.47 777.898 1346.2C777.898 1336.93 785.417 1329.41 794.691 1329.41H950.943C960.217 1329.41 967.736 1336.93 967.736 1346.2C967.736 1355.47 960.217 1362.99 950.943 1362.99Z" fill="#84AAE4"/>
<path d="M950.943 1362.99H794.691C785.417 1362.99 777.898 1355.47 777.898 1346.2C777.898 1336.93 785.417 1329.41 794.691 1329.41H950.943C960.217 1329.41 967.736 1336.93 967.736 1346.2C967.736 1355.47 960.217 1362.99 950.943 1362.99Z" stroke="#0626A9" stroke-width="2" stroke-miterlimit="10" stroke-linecap="round"/>
<path d="M1045.7 1008.24C1045.64 988.308 1031.21 971.787 1012.25 968.438C1018.07 961.959 1021.61 953.386 1021.58 943.988C1021.53 923.863 1005.17 907.593 985.045 907.647C982.861 907.653 980.724 907.863 978.647 908.236C978.666 907.789 978.68 907.339 978.679 906.888C978.632 889.697 964.658 875.799 947.467 875.846C942.435 875.859 937.69 877.073 933.49 879.203C929.789 870.389 921.069 864.208 910.912 864.236C897.432 864.272 886.534 875.229 886.57 888.71L887.219 1128.63C887.256 1142.11 898.213 1153.01 911.694 1152.97C922.008 1152.95 930.804 1146.52 934.353 1137.47C938.76 1139.84 943.802 1141.18 949.159 1141.16C966.35 1141.12 980.249 1127.14 980.202 1109.95C980.201 1109.56 980.185 1109.16 980.169 1108.77C981.937 1109.03 983.748 1109.17 985.59 1109.16C1005.71 1109.11 1021.98 1092.75 1021.93 1072.62C1021.9 1063.23 1018.32 1054.67 1012.46 1048.23C1031.41 1044.77 1045.75 1028.17 1045.7 1008.24Z" fill="#8869D5"/>
<path d="M1045.7 1008.24C1045.64 988.308 1031.21 971.787 1012.25 968.438C1018.07 961.959 1021.61 953.386 1021.58 943.988C1021.53 923.863 1005.17 907.593 985.045 907.647C982.861 907.653 980.724 907.863 978.647 908.236C978.666 907.789 978.68 907.339 978.679 906.888C978.632 889.697 964.658 875.799 947.467 875.846C942.435 875.859 937.69 877.073 933.49 879.203C929.789 870.389 921.069 864.208 910.912 864.236C897.432 864.272 886.534 875.229 886.57 888.71L887.219 1128.63C887.256 1142.11 898.213 1153.01 911.694 1152.97C922.008 1152.95 930.804 1146.52 934.353 1137.47C938.76 1139.84 943.802 1141.18 949.159 1141.16C966.35 1141.12 980.249 1127.14 980.202 1109.95C980.201 1109.56 980.185 1109.16 980.169 1108.77C981.937 1109.03 983.748 1109.17 985.59 1109.16C1005.71 1109.11 1021.98 1092.75 1021.93 1072.62C1021.9 1063.23 1018.32 1054.67 1012.46 1048.23C1031.41 1044.77 1045.75 1028.17 1045.7 1008.24Z" stroke="#0626A9" stroke-width="2.00032" stroke-linecap="round" stroke-linejoin="round"/>
<path d="M950.915 997.991C950.923 1001.21 948.325 1003.82 945.11 1003.83C941.896 1003.84 939.283 1001.24 939.275 998.023C939.266 994.808 941.864 992.196 945.079 992.187C948.294 992.178 950.906 994.777 950.915 997.991Z" fill="white"/>
<path d="M950.915 997.991C950.923 1001.21 948.325 1003.82 945.11 1003.83C941.896 1003.84 939.283 1001.24 939.275 998.023C939.266 994.808 941.864 992.196 945.079 992.187C948.294 992.178 950.906 994.777 950.915 997.991Z" stroke="#0626A9" stroke-width="2.00032" stroke-miterlimit="10"/>
<path d="M944.978 954.885C944.986 958.1 942.388 960.712 939.173 960.721C935.959 960.729 933.346 958.131 933.338 954.916C933.329 951.702 935.927 949.089 939.142 949.081C942.357 949.072 944.969 951.67 944.978 954.885Z" fill="white"/>
<path d="M944.978 954.885C944.986 958.1 942.388 960.712 939.173 960.721C935.959 960.729 933.346 958.131 933.338 954.916C933.329 951.702 935.927 949.089 939.142 949.081C942.357 949.072 944.969 951.67 944.978 954.885Z" stroke="#0626A9" stroke-width="2.00032" stroke-miterlimit="10"/>
<path d="M980.991 1081.1C981 1084.32 978.401 1086.93 975.187 1086.94C971.972 1086.95 969.359 1084.35 969.351 1081.13C969.342 1077.92 971.94 1075.31 975.155 1075.3C978.37 1075.29 980.982 1077.89 980.991 1081.1Z" fill="white"/>
<path d="M980.991 1081.1C981 1084.32 978.401 1086.93 975.187 1086.94C971.972 1086.95 969.359 1084.35 969.351 1081.13C969.342 1077.92 971.94 1075.31 975.155 1075.3C978.37 1075.29 980.982 1077.89 980.991 1081.1Z" stroke="#0626A9" stroke-width="2.00032" stroke-miterlimit="10"/>
<path d="M925.431 1023.15C925.44 1026.37 922.842 1028.98 919.627 1028.99C916.412 1029 913.8 1026.4 913.791 1023.18C913.782 1019.97 916.381 1017.36 919.595 1017.35C922.81 1017.34 925.423 1019.94 925.431 1023.15Z" fill="white"/>
<path d="M925.431 1023.15C925.44 1026.37 922.842 1028.98 919.627 1028.99C916.412 1029 913.8 1026.4 913.791 1023.18C913.782 1019.97 916.381 1017.36 919.595 1017.35C922.81 1017.34 925.423 1019.94 925.431 1023.15Z" stroke="#0626A9" stroke-width="2.00032" stroke-miterlimit="10"/>
<path d="M975.238 1075.01L975.168 1049.29L919.682 1049.44L919.626 1028.82" stroke="#0626A9" stroke-width="2.00032" stroke-linecap="round" stroke-linejoin="round"/>
<path d="M961.004 1048.91L960.901 1010.88L949.97 1002.06" stroke="#0626A9" stroke-width="2.00032" stroke-linecap="round" stroke-linejoin="round"/>
<path d="M924.559 1066.31C924.567 1069.53 921.969 1072.14 918.754 1072.15C915.54 1072.16 912.927 1069.56 912.919 1066.34C912.91 1063.13 915.508 1060.52 918.723 1060.51C921.938 1060.5 924.55 1063.1 924.559 1066.31Z" fill="white"/>
<path d="M924.559 1066.31C924.567 1069.53 921.969 1072.14 918.754 1072.15C915.54 1072.16 912.927 1069.56 912.919 1066.34C912.91 1063.13 915.508 1060.52 918.723 1060.51C921.938 1060.5 924.55 1063.1 924.559 1066.31Z" stroke="#0626A9" stroke-width="2.00032" stroke-miterlimit="10"/>
<path d="M887.632 1099.52L914.606 1070.45" stroke="#0626A9" stroke-width="2.00032" stroke-linecap="round" stroke-linejoin="round"/>
<path d="M924.708 1108.34C931.407 1112.63 935.855 1120.13 935.878 1128.68C935.885 1131.42 935.439 1134.05 934.61 1136.5" stroke="#0626A9" stroke-width="2.00032" stroke-linecap="round" stroke-linejoin="round"/>
<path d="M925.639 1107.74C925.647 1110.95 923.049 1113.56 919.834 1113.57C916.62 1113.58 914.007 1110.98 913.999 1107.77C913.99 1104.55 916.588 1101.94 919.803 1101.93C923.018 1101.92 925.63 1104.52 925.639 1107.74Z" fill="white"/>
<path d="M925.639 1107.74C925.647 1110.95 923.049 1113.56 919.834 1113.57C916.62 1113.58 914.007 1110.98 913.999 1107.77C913.99 1104.55 916.588 1101.94 919.803 1101.93C923.018 1101.92 925.63 1104.52 925.639 1107.74Z" stroke="#0626A9" stroke-width="2.00032" stroke-miterlimit="10"/>
<path d="M985.672 1109.17C970.836 1109.21 958.045 1100.37 952.332 1087.66" stroke="#0626A9" stroke-width="2.00032" stroke-linecap="round" stroke-linejoin="round"/>
<path d="M1012.07 968.622C1005.46 975.781 996.002 980.275 985.489 980.304C982.39 980.312 979.381 979.931 976.506 979.208L976.459 961.594L990.02 951.433" stroke="#0626A9" stroke-width="2.00032" stroke-linecap="round" stroke-linejoin="round"/>
<path d="M958.248 919.912C963.219 914.317 969.891 910.268 977.458 908.581" stroke="#0626A9" stroke-width="2.00032" stroke-linecap="round" stroke-linejoin="round"/>
<path d="M1000.36 947.719C1000.37 950.934 997.767 953.546 994.552 953.555C991.337 953.563 988.725 950.965 988.716 947.75C988.708 944.535 991.306 941.923 994.521 941.914C997.736 941.906 1000.35 944.504 1000.36 947.719Z" fill="white"/>
<path d="M1000.36 947.719C1000.37 950.934 997.767 953.546 994.552 953.555C991.337 953.563 988.725 950.965 988.716 947.75C988.708 944.535 991.306 941.923 994.521 941.914C997.736 941.906 1000.35 944.504 1000.36 947.719Z" stroke="#0626A9" stroke-width="2.00032" stroke-miterlimit="10"/>
<path d="M922.509 904.84C922.518 908.055 919.919 910.667 916.705 910.676C913.49 910.685 910.877 908.086 910.869 904.872C910.86 901.657 913.458 899.045 916.673 899.036C919.888 899.027 922.5 901.625 922.509 904.84Z" fill="white"/>
<path d="M922.509 904.84C922.518 908.055 919.919 910.667 916.705 910.676C913.49 910.685 910.877 908.086 910.869 904.872C910.86 901.657 913.458 899.045 916.673 899.036C919.888 899.027 922.5 901.625 922.509 904.84Z" stroke="#0626A9" stroke-width="2.00032" stroke-miterlimit="10"/>
<path d="M961.383 925.223C961.392 928.438 958.794 931.05 955.579 931.059C952.364 931.068 949.752 928.469 949.743 925.255C949.735 922.04 952.333 919.428 955.548 919.419C958.762 919.41 961.375 922.008 961.383 925.223Z" fill="white"/>
<path d="M961.383 925.223C961.392 928.438 958.794 931.05 955.579 931.059C952.364 931.068 949.752 928.469 949.743 925.255C949.735 922.04 952.333 919.428 955.548 919.419C958.762 919.41 961.375 922.008 961.383 925.223Z" stroke="#0626A9" stroke-width="2.00032" stroke-miterlimit="10"/>
<path d="M948.737 925.256L916.744 925.342L916.704 910.559" stroke="#0626A9" stroke-width="2.00032" stroke-linecap="round" stroke-linejoin="round"/>
<path d="M1012.66 1048.16C1010.3 1048.59 1007.87 1048.82 1005.38 1048.83C988.826 1048.88 974.564 1038.97 968.251 1024.75" stroke="#0626A9" stroke-width="2.00032" stroke-linecap="round" stroke-linejoin="round"/>
<path d="M997.093 1012.42C997.102 1015.63 994.504 1018.24 991.289 1018.25C988.074 1018.26 985.462 1015.66 985.453 1012.45C985.445 1009.23 988.043 1006.62 991.258 1006.61C994.472 1006.6 997.085 1009.2 997.093 1012.42Z" fill="white"/>
<path d="M997.093 1012.42C997.102 1015.63 994.504 1018.24 991.289 1018.25C988.074 1018.26 985.462 1015.66 985.453 1012.45C985.445 1009.23 988.043 1006.62 991.258 1006.61C994.472 1006.6 997.085 1009.2 997.093 1012.42Z" stroke="#0626A9" stroke-width="2.00032" stroke-miterlimit="10"/>
<path d="M1030.26 976.53L1013.73 1012.37L997.093 1012.42" stroke="#0626A9" stroke-width="2.00032" stroke-linecap="round" stroke-linejoin="round"/>
<path d="M939.275 998.023L886.865 998.165" stroke="#0626A9" stroke-width="2.00032" stroke-linecap="round" stroke-linejoin="round"/>
<path d="M913.884 997.824L913.849 984.813L935.565 959.498" stroke="#0626A9" stroke-width="2.00032" stroke-linecap="round" stroke-linejoin="round"/>
<path d="M700.732 1009.17C700.678 989.241 715.021 972.642 733.966 969.191C728.108 962.743 724.526 954.189 724.501 944.791C724.446 924.667 740.715 908.308 760.839 908.254C763.024 908.248 765.161 908.446 767.24 908.808C767.219 908.361 767.203 907.911 767.201 907.46C767.155 890.269 781.054 876.296 798.245 876.249C803.276 876.236 808.028 877.424 812.24 879.531C815.893 870.698 824.579 864.469 834.736 864.442C848.217 864.406 859.174 875.303 859.21 888.784L859.859 1128.71C859.896 1142.19 848.998 1153.14 835.517 1153.18C825.202 1153.21 816.372 1146.83 812.774 1137.8C808.38 1140.19 803.345 1141.56 797.989 1141.57C780.798 1141.62 766.823 1127.72 766.776 1110.53C766.775 1110.14 766.79 1109.74 766.804 1109.35C765.037 1109.62 763.227 1109.76 761.384 1109.77C741.26 1109.82 724.903 1093.55 724.849 1073.43C724.823 1064.03 728.358 1055.46 734.182 1048.98C715.219 1045.63 700.786 1029.11 700.732 1009.17Z" fill="#8869D5"/>
<path d="M700.732 1009.17C700.678 989.241 715.021 972.642 733.966 969.191C728.108 962.743 724.526 954.189 724.501 944.791C724.446 924.667 740.715 908.308 760.839 908.254C763.024 908.248 765.161 908.446 767.24 908.808C767.219 908.361 767.203 907.911 767.201 907.46C767.155 890.269 781.054 876.296 798.245 876.249C803.276 876.236 808.028 877.424 812.24 879.531C815.893 870.698 824.579 864.469 834.736 864.442C848.217 864.406 859.174 875.303 859.21 888.784L859.859 1128.71C859.896 1142.19 848.998 1153.14 835.517 1153.18C825.202 1153.21 816.372 1146.83 812.774 1137.8C808.38 1140.19 803.345 1141.56 797.989 1141.57C780.798 1141.62 766.823 1127.72 766.776 1110.53C766.775 1110.14 766.79 1109.74 766.804 1109.35C765.037 1109.62 763.227 1109.76 761.384 1109.77C741.26 1109.82 724.903 1093.55 724.849 1073.43C724.823 1064.03 728.358 1055.46 734.182 1048.98C715.219 1045.63 700.786 1029.11 700.732 1009.17Z" stroke="#0626A9" stroke-width="2.00032" stroke-linecap="round" stroke-linejoin="round"/>
<path d="M795.458 998.412C795.467 1001.63 798.079 1004.23 801.294 1004.22C804.509 1004.21 807.107 1001.6 807.098 998.381C807.09 995.166 804.477 992.568 801.262 992.576C798.048 992.585 795.449 995.197 795.458 998.412Z" fill="white"/>
<path d="M795.458 998.412C795.467 1001.63 798.079 1004.23 801.294 1004.22C804.509 1004.21 807.107 1001.6 807.098 998.381C807.09 995.166 804.477 992.568 801.262 992.576C798.048 992.585 795.449 995.197 795.458 998.412Z" stroke="#0626A9" stroke-width="2.00032" stroke-miterlimit="10"/>
<path d="M801.162 955.274C801.17 958.489 803.783 961.087 806.998 961.078C810.212 961.07 812.811 958.457 812.802 955.243C812.793 952.028 810.181 949.43 806.966 949.438C803.751 949.447 801.153 952.059 801.162 955.274Z" fill="white"/>
<path d="M801.162 955.274C801.17 958.489 803.783 961.087 806.998 961.078C810.212 961.07 812.811 958.457 812.802 955.243C812.793 952.028 810.181 949.43 806.966 949.438C803.751 949.447 801.153 952.059 801.162 955.274Z" stroke="#0626A9" stroke-width="2.00032" stroke-miterlimit="10"/>
<path d="M765.832 1081.69C765.841 1084.9 768.453 1087.5 771.668 1087.49C774.883 1087.48 777.481 1084.87 777.472 1081.65C777.464 1078.44 774.851 1075.84 771.636 1075.85C768.422 1075.86 765.823 1078.47 765.832 1081.69Z" fill="white"/>
<path d="M765.832 1081.69C765.841 1084.9 768.453 1087.5 771.668 1087.49C774.883 1087.48 777.481 1084.87 777.472 1081.65C777.464 1078.44 774.851 1075.84 771.636 1075.85C768.422 1075.86 765.823 1078.47 765.832 1081.69Z" stroke="#0626A9" stroke-width="2.00032" stroke-miterlimit="10"/>
<path d="M821.077 1023.44C821.086 1026.65 823.698 1029.25 826.913 1029.24C830.128 1029.23 832.726 1026.62 832.717 1023.4C832.709 1020.19 830.096 1017.59 826.882 1017.6C823.667 1017.61 821.069 1020.22 821.077 1023.44Z" fill="white"/>
<path d="M821.077 1023.44C821.086 1026.65 823.698 1029.25 826.913 1029.24C830.128 1029.23 832.726 1026.62 832.717 1023.4C832.709 1020.19 830.096 1017.59 826.882 1017.6C823.667 1017.61 821.069 1020.22 821.077 1023.44Z" stroke="#0626A9" stroke-width="2.00032" stroke-miterlimit="10"/>
<path d="M771.552 1075.56L771.483 1049.84L826.968 1049.69L826.913 1029.07" stroke="#0626A9" stroke-width="2.00032" stroke-linecap="round" stroke-linejoin="round"/>
<path d="M785.645 1049.39L785.542 1011.35L796.425 1002.48" stroke="#0626A9" stroke-width="2.00032" stroke-linecap="round" stroke-linejoin="round"/>
<path d="M822.183 1066.59C822.192 1069.8 824.804 1072.4 828.019 1072.39C831.234 1072.39 833.832 1069.77 833.823 1066.56C833.815 1063.34 831.202 1060.75 827.988 1060.75C824.773 1060.76 822.175 1063.37 822.183 1066.59Z" fill="white"/>
<path d="M822.183 1066.59C822.192 1069.8 824.804 1072.4 828.019 1072.39C831.234 1072.39 833.832 1069.77 833.823 1066.56C833.815 1063.34 831.202 1060.75 827.988 1060.75C824.773 1060.76 822.175 1063.37 822.183 1066.59Z" stroke="#0626A9" stroke-width="2.00032" stroke-miterlimit="10"/>
<path d="M859.289 1099.6L832.158 1070.67" stroke="#0626A9" stroke-width="2.00032" stroke-linecap="round" stroke-linejoin="round"/>
<path d="M822.26 1108.62C815.585 1112.95 811.178 1120.47 811.201 1129.02C811.209 1131.75 811.669 1134.38 812.511 1136.83" stroke="#0626A9" stroke-width="2.00032" stroke-linecap="round" stroke-linejoin="round"/>
<path d="M821.327 1108.02C821.335 1111.23 823.948 1113.83 827.163 1113.82C830.377 1113.82 832.976 1111.2 832.967 1107.99C832.958 1104.77 830.346 1102.18 827.131 1102.18C823.916 1102.19 821.318 1104.81 821.327 1108.02Z" fill="white"/>
<path d="M821.327 1108.02C821.335 1111.23 823.948 1113.83 827.163 1113.82C830.377 1113.82 832.976 1111.2 832.967 1107.99C832.958 1104.77 830.346 1102.18 827.131 1102.18C823.916 1102.19 821.318 1104.81 821.327 1108.02Z" stroke="#0626A9" stroke-width="2.00032" stroke-miterlimit="10"/>
<path d="M761.302 1109.78C776.139 1109.74 788.881 1100.83 794.525 1088.09" stroke="#0626A9" stroke-width="2.00032" stroke-linecap="round" stroke-linejoin="round"/>
<path d="M734.147 969.374C740.795 976.497 750.276 980.94 760.788 980.912C763.887 980.904 766.894 980.506 769.765 979.767L769.717 962.154L756.101 952.066" stroke="#0626A9" stroke-width="2.00032" stroke-linecap="round" stroke-linejoin="round"/>
<path d="M787.701 920.373C782.701 914.805 776.006 910.792 768.431 909.147" stroke="#0626A9" stroke-width="2.00032" stroke-linecap="round" stroke-linejoin="round"/>
<path d="M745.745 948.408C745.753 951.623 748.366 954.221 751.581 954.212C754.795 954.203 757.394 951.591 757.385 948.376C757.376 945.162 754.764 942.563 751.549 942.572C748.334 942.581 745.736 945.193 745.745 948.408Z" fill="white"/>
<path d="M745.745 948.408C745.753 951.623 748.366 954.221 751.581 954.212C754.795 954.203 757.394 951.591 757.385 948.376C757.376 945.162 754.764 942.563 751.549 942.572C748.334 942.581 745.736 945.193 745.745 948.408Z" stroke="#0626A9" stroke-width="2.00032" stroke-miterlimit="10"/>
<path d="M823.359 905.109C823.368 908.324 825.98 910.922 829.195 910.913C832.41 910.904 835.008 908.292 834.999 905.077C834.99 901.862 832.378 899.264 829.163 899.273C825.949 899.282 823.35 901.894 823.359 905.109Z" fill="white"/>
<path d="M823.359 905.109C823.368 908.324 825.98 910.922 829.195 910.913C832.41 910.904 835.008 908.292 834.999 905.077C834.99 901.862 832.378 899.264 829.163 899.273C825.949 899.282 823.35 901.894 823.359 905.109Z" stroke="#0626A9" stroke-width="2.00032" stroke-miterlimit="10"/>
<path d="M784.595 925.702C784.604 928.917 787.216 931.515 790.431 931.506C793.646 931.497 796.244 928.885 796.235 925.67C796.227 922.455 793.614 919.857 790.4 919.866C787.185 919.875 784.587 922.487 784.595 925.702Z" fill="white"/>
<path d="M784.595 925.702C784.604 928.917 787.216 931.515 790.431 931.506C793.646 931.497 796.244 928.885 796.235 925.67C796.227 922.455 793.614 919.857 790.4 919.866C787.185 919.875 784.587 922.487 784.595 925.702Z" stroke="#0626A9" stroke-width="2.00032" stroke-miterlimit="10"/>
<path d="M797.241 925.666L829.234 925.579L829.194 910.796" stroke="#0626A9" stroke-width="2.00032" stroke-linecap="round" stroke-linejoin="round"/>
<path d="M733.988 1048.91C736.35 1049.34 738.781 1049.55 741.265 1049.55C757.822 1049.5 772.03 1039.52 778.266 1025.27" stroke="#0626A9" stroke-width="2.00032" stroke-linecap="round" stroke-linejoin="round"/>
<path d="M749.358 1013.09C749.366 1016.3 751.979 1018.9 755.193 1018.89C758.408 1018.88 761.006 1016.27 760.998 1013.05C760.989 1009.84 758.377 1007.24 755.162 1007.25C751.947 1007.26 749.349 1009.87 749.358 1013.09Z" fill="white"/>
<path d="M749.358 1013.09C749.366 1016.3 751.979 1018.9 755.193 1018.89C758.408 1018.88 761.006 1016.27 760.998 1013.05C760.989 1009.84 758.377 1007.24 755.162 1007.25C751.947 1007.26 749.349 1009.87 749.358 1013.09Z" stroke="#0626A9" stroke-width="2.00032" stroke-miterlimit="10"/>
<path d="M715.997 977.381L732.726 1013.13L749.358 1013.09" stroke="#0626A9" stroke-width="2.00032" stroke-linecap="round" stroke-linejoin="round"/>
<path d="M807.098 998.381L859.508 998.239" stroke="#0626A9" stroke-width="2.00032" stroke-linecap="round" stroke-linejoin="round"/>
<path d="M832.488 998.044L832.453 985.033L810.6 959.836" stroke="#0626A9" stroke-width="2.00032" stroke-linecap="round" stroke-linejoin="round"/>
<path d="M248.376 700.921C248.376 690.233 239.712 681.569 229.024 681.569C218.336 681.569 209.672 690.233 209.672 700.921C209.672 711.609 218.336 720.274 229.024 720.274C239.712 720.274 248.376 711.609 248.376 700.921Z" stroke="#0626A9" stroke-width="2" stroke-miterlimit="10"/>
<path d="M255.413 621.276C255.413 614.526 249.941 609.053 243.191 609.053C236.441 609.053 230.968 614.526 230.968 621.276C230.968 628.026 236.441 633.498 243.191 633.498C249.941 633.498 255.413 628.026 255.413 621.276Z" fill="#84AAE4"/>
<path d="M255.413 621.276C255.413 614.526 249.941 609.053 243.191 609.053C236.441 609.053 230.968 614.526 230.968 621.276C230.968 628.026 236.441 633.498 243.191 633.498C249.941 633.498 255.413 628.026 255.413 621.276Z" stroke="#0626A9" stroke-width="2" stroke-miterlimit="10"/>
<path d="M270.98 574.175C270.98 568.692 266.536 564.248 261.053 564.248C255.57 564.248 251.126 568.692 251.126 574.175C251.126 579.658 255.57 584.102 261.053 584.102C266.536 584.102 270.98 579.658 270.98 574.175Z" stroke="#0626A9" stroke-width="2" stroke-miterlimit="10"/>
<path d="M1401.06 974.902C1401.06 964.214 1392.4 955.55 1381.71 955.55C1371.02 955.55 1362.36 964.214 1362.36 974.902C1362.36 985.59 1371.02 994.255 1381.71 994.255C1392.4 994.255 1401.06 985.59 1401.06 974.902Z" stroke="#0626A9" stroke-width="2" stroke-miterlimit="10"/>
<path d="M1294.82 928.33C1294.82 922.568 1290.15 917.898 1284.39 917.898C1278.63 917.898 1273.96 922.568 1273.96 928.33C1273.96 934.092 1278.63 938.763 1284.39 938.763C1290.15 938.763 1294.82 934.092 1294.82 928.33Z" fill="#84AAE4"/>
<path d="M1294.82 928.33C1294.82 922.568 1290.15 917.898 1284.39 917.898C1278.63 917.898 1273.96 922.568 1273.96 928.33C1273.96 934.092 1278.63 938.763 1284.39 938.763C1290.15 938.763 1294.82 934.092 1294.82 928.33Z" stroke="#0626A9" stroke-width="2" stroke-miterlimit="10"/>
<path d="M1355.08 867.004C1355.08 861.521 1350.63 857.076 1345.15 857.076C1339.67 857.076 1335.22 861.521 1335.22 867.004C1335.22 872.487 1339.67 876.931 1345.15 876.931C1350.63 876.931 1355.08 872.487 1355.08 867.004Z" stroke="#0626A9" stroke-width="2" stroke-miterlimit="10"/>
<path d="M1111.81 151.484C1111.81 144.554 1106.2 138.936 1099.27 138.936C1092.34 138.936 1086.72 144.554 1086.72 151.484C1086.72 158.414 1092.34 164.033 1099.27 164.033C1106.2 164.033 1111.81 158.414 1111.81 151.484Z" stroke="#0626A9" stroke-width="2" stroke-miterlimit="10"/>
<path d="M1142.06 203.411C1142.06 198.696 1138.24 194.873 1133.52 194.873C1128.81 194.873 1124.98 198.696 1124.98 203.411C1124.98 208.126 1128.81 211.949 1133.52 211.949C1138.24 211.949 1142.06 208.126 1142.06 203.411Z" stroke="#0626A9" stroke-width="2" stroke-miterlimit="10"/>
<path d="M569.43 1120.2C569.43 1120.2 529.24 1120.2 484.411 1120.2" stroke="#0626A9" stroke-width="2" stroke-miterlimit="10"/>
<path d="M452.528 1120.2C406.297 1120.2 363.97 1120.2 363.97 1120.2C363.97 1120.2 363.97 1084.05 363.97 1028.1" stroke="#0626A9" stroke-width="2" stroke-miterlimit="10"/>
<path d="M363.97 985.589C363.97 910.182 363.97 812.855 363.97 719.893" stroke="#0626A9" stroke-width="2" stroke-miterlimit="10"/>
<path d="M363.97 624.246C363.97 538.767 363.97 466.577 363.97 432.948" stroke="#0626A9" stroke-width="2" stroke-miterlimit="10"/>
<path d="M386.219 412.694C427.939 412.694 513.75 412.694 513.75 412.694" stroke="#0626A9" stroke-width="2" stroke-miterlimit="10"/>
<path d="M585.586 1120.19C585.586 1129.12 578.353 1136.35 569.43 1136.35C560.507 1136.35 553.274 1129.12 553.274 1120.19C553.274 1111.27 560.507 1104.04 569.43 1104.04C578.353 1104.04 585.586 1111.27 585.586 1120.19Z" fill="#84AAE4"/>
<path d="M585.586 1120.19C585.586 1129.12 578.353 1136.35 569.43 1136.35C560.507 1136.35 553.274 1129.12 553.274 1120.19C553.274 1111.27 560.507 1104.04 569.43 1104.04C578.353 1104.04 585.586 1111.27 585.586 1120.19Z" stroke="#0626A9" stroke-width="2" stroke-miterlimit="10"/>
<path d="M1046.75 216.16V539.76C1046.75 563.07 1027.86 581.96 1004.55 581.96H539.95C516.64 581.96 497.75 563.07 497.75 539.76V216.16C497.75 192.86 516.64 173.96 539.95 173.96H1004.55C1027.86 173.96 1046.75 192.86 1046.75 216.16Z" fill="#0626A9"/>
<path d="M1046.75 216.16V539.76C1046.75 563.07 1027.86 581.96 1004.55 581.96H539.95C516.64 581.96 497.75 563.07 497.75 539.76V216.16C497.75 192.86 516.64 173.96 539.95 173.96H1004.55C1027.86 173.96 1046.75 192.86 1046.75 216.16Z" stroke="#0626A9" stroke-width="2" stroke-linecap="round" stroke-linejoin="round"/>
<path d="M1046.75 216.16V539.76C1046.75 563.07 1027.86 581.96 1004.55 581.96H539.95C516.64 581.96 497.75 563.07 497.75 539.76V216.16C497.75 192.86 516.64 173.96 539.95 173.96H1004.55C1027.86 173.96 1046.75 192.86 1046.75 216.16Z" fill="#84AAE4"/>
<path d="M1046.75 216.16V539.76C1046.75 563.07 1027.86 581.96 1004.55 581.96H539.95C516.64 581.96 497.75 563.07 497.75 539.76V216.16C497.75 192.86 516.64 173.96 539.95 173.96H1004.55C1027.86 173.96 1046.75 192.86 1046.75 216.16Z" stroke="#0626A9" stroke-width="2" stroke-miterlimit="10" stroke-linecap="round"/>
<path d="M539.25 377.961C539.25 370.919 533.542 365.211 526.5 365.211C519.458 365.211 513.75 370.919 513.75 377.961C513.75 385.003 519.458 390.711 526.5 390.711C533.542 390.711 539.25 385.003 539.25 377.961Z" fill="#0626A9"/>
<path d="M539.25 377.961C539.25 370.919 533.542 365.211 526.5 365.211C519.458 365.211 513.75 370.919 513.75 377.961C513.75 385.003 519.458 390.711 526.5 390.711C533.542 390.711 539.25 385.003 539.25 377.961Z" stroke="#0626A9" stroke-width="2" stroke-miterlimit="10" stroke-linecap="round"/>
<path d="M1013.25 558.961H555.25V196.961H1013.25V558.961Z" fill="white"/>
<path d="M1013.25 558.961H555.25V196.961H1013.25V558.961Z" stroke="#0626A9" stroke-width="2" stroke-miterlimit="10" stroke-linecap="round"/>
<path d="M944.768 478.207H623.732V277.715H944.768V478.207Z" fill="#8869D5"/>
<path d="M944.768 478.207H623.732V277.715H944.768V478.207Z" stroke="#0626A9" stroke-width="2" stroke-miterlimit="10" stroke-linecap="round"/>
<path d="M703.673 339.565C703.673 325.675 692.414 314.415 678.524 314.415C664.634 314.415 653.374 325.675 653.374 339.565C653.374 353.455 664.634 364.715 678.524 364.715C692.414 364.715 703.673 353.455 703.673 339.565Z" fill="white"/>
<path d="M800.227 347.378H720.765V331.751H800.227V347.378Z" fill="white"/>
<path d="M887.779 390.231H653.374V384.342H887.779V390.231Z" fill="white"/>
<path d="M820.876 441.507H653.374V435.618H820.876V441.507Z" fill="white"/>
<path d="M915.126 412.694H653.374V406.806H915.126V412.694Z" fill="white"/>
<path d="M1162 1074C1162 1074 1162 1041.68 1162 995.604" stroke="#0626A9" stroke-width="2"/>
<path d="M1162 960.321C1162 921.162 1162 876.646 1162 834.878" stroke="#0626A9" stroke-width="2"/>
<path d="M1162 768.237C1162 744.81 1162 724.47 1162 709.437" stroke="#0626A9" stroke-width="2"/>
<path d="M1177.31 1074.73C1177.31 1083.65 1170.08 1090.89 1161.15 1090.89C1152.23 1090.89 1145 1083.65 1145 1074.73C1145 1065.81 1152.23 1058.57 1161.15 1058.57C1170.08 1058.57 1177.31 1065.81 1177.31 1074.73Z" fill="#84AAE4"/>
<path d="M1177.31 1074.73C1177.31 1083.65 1170.08 1090.89 1161.15 1090.89C1152.23 1090.89 1145 1083.65 1145 1074.73C1145 1065.81 1152.23 1058.57 1161.15 1058.57C1170.08 1058.57 1177.31 1065.81 1177.31 1074.73Z" stroke="#0626A9" stroke-width="2" stroke-miterlimit="10"/>
<mask id="mask1_20_4567" style="mask-type:alpha" maskUnits="userSpaceOnUse" x="496" y="172" width="552" height="411">
<path d="M1046.75 216.16V539.76C1046.75 563.07 1027.86 581.96 1004.55 581.96H539.95C516.64 581.96 497.75 563.07 497.75 539.76V216.16C497.75 192.86 516.64 173.96 539.95 173.96H1004.55C1027.86 173.96 1046.75 192.86 1046.75 216.16Z" fill="#8484FA"/>
<path d="M1046.75 216.16V539.76C1046.75 563.07 1027.86 581.96 1004.55 581.96H539.95C516.64 581.96 497.75 563.07 497.75 539.76V216.16C497.75 192.86 516.64 173.96 539.95 173.96H1004.55C1027.86 173.96 1046.75 192.86 1046.75 216.16Z" stroke="#202870" stroke-width="2" stroke-miterlimit="10" stroke-linecap="round"/>
</mask>
<g mask="url(#mask1_20_4567)">
<path d="M1333.08 459.709H1017.08L883.083 699.209H1331.08L1333.08 459.709Z" fill="#0626A9"/>
</g>
<path d="M1338.9 741.275H1016.51V459.522H1338.9V741.275Z" fill="white"/>
<path d="M1338.9 741.275H1016.51V459.522H1338.9V741.275Z" stroke="#0626A9" stroke-width="2" stroke-miterlimit="10"/>
<path d="M1270.63 612.732C1270.63 615.482 1270.52 618.202 1270.29 620.892C1270.27 621.082 1270.26 621.262 1270.24 621.452V621.462C1269.08 634.802 1265.27 647.382 1259.33 658.662C1251.13 674.262 1238.89 687.412 1223.98 696.692C1208.83 706.152 1190.92 711.612 1171.74 711.612C1169.19 711.612 1166.66 711.512 1164.15 711.322C1161.58 711.132 1159.02 710.842 1156.5 710.432L1156.31 710.412C1156.3 710.412 1156.29 710.402 1156.28 710.402C1148.89 709.252 1141.77 707.272 1135.02 704.562C1098.59 689.992 1072.86 654.362 1072.86 612.732C1072.86 604.442 1073.88 596.392 1075.8 588.702C1077.18 583.202 1079.01 577.882 1081.27 572.792C1091.81 548.932 1111.52 530.032 1135.92 520.542C1147.02 516.222 1159.1 513.852 1171.74 513.852C1188.11 513.852 1203.55 517.832 1217.15 524.882C1219.47 526.082 1221.74 527.372 1223.95 528.762H1223.96C1251.98 546.202 1270.63 577.292 1270.63 612.732Z" stroke="#0626A9" stroke-width="2" stroke-miterlimit="10"/>
<mask id="mask2_20_4567" style="mask-type:alpha" maskUnits="userSpaceOnUse" x="1072" y="513" width="199" height="199">
<path d="M1270.63 612.732C1270.63 615.482 1270.52 618.202 1270.29 620.892C1270.27 621.082 1270.26 621.262 1270.24 621.452V621.462C1269.08 634.802 1265.27 647.382 1259.33 658.662C1251.13 674.262 1238.89 687.412 1223.98 696.692C1208.83 706.152 1190.92 711.612 1171.74 711.612C1169.19 711.612 1166.66 711.512 1164.15 711.322C1161.58 711.132 1159.02 710.842 1156.5 710.432L1156.31 710.412C1156.3 710.412 1156.29 710.402 1156.28 710.402C1148.89 709.252 1141.77 707.272 1135.02 704.562C1098.59 689.992 1072.86 654.362 1072.86 612.732C1072.86 604.442 1073.88 596.392 1075.8 588.702C1077.18 583.202 1079.01 577.882 1081.27 572.792C1091.81 548.932 1111.52 530.032 1135.92 520.542C1147.02 516.222 1159.1 513.852 1171.74 513.852C1188.11 513.852 1203.55 517.832 1217.15 524.882C1219.47 526.082 1221.74 527.372 1223.95 528.762H1223.96C1251.98 546.202 1270.63 577.292 1270.63 612.732Z" fill="#8484FA"/>
</mask>
<g mask="url(#mask2_20_4567)">
<path d="M1223.96 528.762H1223.95C1186.7 521.712 1144.75 535.472 1120.4 558.512C1101.5 576.402 1128.96 584.197 1179.95 601.948C1218.07 615.219 1218.89 656.39 1231.46 636.812C1273.97 570.606 1271.02 627.585 1284.42 628.206C1304.5 629.137 1305.31 553.31 1305.31 550.56C1305.31 515.12 1251.98 546.202 1223.96 528.762Z" fill="#84AAE4"/>
<path d="M1155.67 683.547C1152.92 649.734 1191.53 659.829 1184.75 639.5C1180.54 626.885 1139.57 617.455 1108.51 617.195C1071.12 616.885 1097.77 662.074 1117.97 679.376C1158.77 714.324 1149.62 723.722 1162.24 732.894C1164.09 734.24 1166.32 734.959 1168.61 735.028C1178.59 735.331 1184.29 723.751 1177.97 716.021C1168.66 704.638 1157.64 707.829 1155.67 683.547Z" fill="#84AAE4"/>
<path d="M1112.34 601.736C1117.91 589.659 1094.48 554.749 1072.01 533.308C1044.95 507.5 1033.46 558.687 1036.36 585.127C1042.2 638.531 1029.1 639.124 1032.02 654.444C1032.45 656.693 1033.59 658.745 1035.21 660.361C1042.29 667.412 1054.37 662.868 1055.04 652.903C1056.04 638.23 1045.82 633.022 1061 613.961C1082.12 587.418 1103.38 621.199 1112.34 601.736Z" fill="#84AAE4"/>
<path d="M1222.87 696.536C1274.54 711.501 1289.52 703.593 1259.33 658.662C1245.79 638.506 1181.88 684.664 1222.87 696.536Z" fill="#84AAE4"/>
<path d="M1184.47 694.874C1178.49 694.874 1182.63 707.607 1184.75 713.227C1185.35 714.803 1186.86 715.84 1188.54 715.84C1190.97 715.84 1192.86 713.731 1192.57 711.323C1191.85 705.16 1189.84 694.874 1184.47 694.874Z" fill="#84AAE4"/>
</g>
<path d="M1270.63 612.732C1270.63 615.482 1270.52 618.202 1270.29 620.892C1270.27 621.082 1270.26 621.262 1270.24 621.452V621.462C1269.08 634.802 1265.27 647.382 1259.33 658.662C1251.13 674.262 1238.89 687.412 1223.98 696.692C1208.83 706.152 1190.92 711.612 1171.74 711.612C1169.19 711.612 1166.66 711.512 1164.15 711.322C1161.58 711.132 1159.02 710.842 1156.5 710.432L1156.31 710.412C1156.3 710.412 1156.29 710.402 1156.28 710.402C1148.89 709.252 1141.77 707.272 1135.02 704.562C1098.59 689.992 1072.86 654.362 1072.86 612.732C1072.86 604.442 1073.88 596.392 1075.8 588.702C1077.18 583.202 1079.01 577.882 1081.27 572.792C1091.81 548.932 1111.52 530.032 1135.92 520.542C1147.02 516.222 1159.1 513.852 1171.74 513.852C1188.11 513.852 1203.55 517.832 1217.15 524.882C1219.47 526.082 1221.74 527.372 1223.95 528.762H1223.96C1251.98 546.202 1270.63 577.292 1270.63 612.732Z" stroke="#0626A9" stroke-width="2" stroke-miterlimit="10"/>
</g>
</g>
<defs>
<clipPath id="clip0_20_4567">
<rect width="1600" height="1600" fill="white"/>
</clipPath>
</defs>
</svg>
