<svg width="1600" height="1600" viewBox="0 0 1600 1600" fill="none" xmlns="http://www.w3.org/2000/svg">
<g clip-path="url(#clip0_40000055_9009)">
<mask id="mask0_40000055_9009" style="mask-type:luminance" maskUnits="userSpaceOnUse" x="0" y="0" width="1600" height="1600">
<path d="M1600 0H0V1600H1600V0Z" fill="white"/>
</mask>
<g mask="url(#mask0_40000055_9009)">
<mask id="mask1_40000055_9009" style="mask-type:luminance" maskUnits="userSpaceOnUse" x="0" y="0" width="1600" height="1600">
<path d="M1600 0H0V1600H1600V0Z" fill="white"/>
</mask>
<g mask="url(#mask1_40000055_9009)">
<mask id="mask2_40000055_9009" style="mask-type:luminance" maskUnits="userSpaceOnUse" x="188" y="188" width="1224" height="1224">
<path d="M1412 188H188V1412H1412V188Z" fill="white"/>
</mask>
<g mask="url(#mask2_40000055_9009)">
<mask id="mask3_40000055_9009" style="mask-type:luminance" maskUnits="userSpaceOnUse" x="188" y="188" width="1224" height="1224">
<path d="M188 188H1412V1412H188V188Z" fill="white"/>
</mask>
<g mask="url(#mask3_40000055_9009)">
<path d="M1032.12 1013.8L1152.13 948.474" stroke="#0626A9" stroke-width="2" stroke-linecap="round" stroke-linejoin="round" stroke-dasharray="100 100"/>
<path d="M995.014 938.461L1356.84 453.973" stroke="#0626A9" stroke-width="2" stroke-linecap="round" stroke-linejoin="round" stroke-dasharray="130 130"/>
<path d="M949.995 889.328L1248.01 278.975" stroke="#0626A9" stroke-width="2" stroke-linecap="round" stroke-linejoin="round" stroke-dasharray="164 164"/>
<path d="M793.701 401.559L790.071 232.303" stroke="#0626A9" stroke-width="2" stroke-linecap="round" stroke-linejoin="round" stroke-dasharray="100 100"/>
<path d="M670.553 852.192L469.23 290.583" stroke="#0626A9" stroke-width="2" stroke-linecap="round" stroke-linejoin="round" stroke-dasharray="150 210"/>
<path d="M275.201 474.803L585.88 914.763" stroke="#0626A9" stroke-width="2" stroke-linecap="round" stroke-linejoin="round" stroke-dasharray="216 100"/>
<path d="M359.379 892.868L531.989 999.175" stroke="#0626A9" stroke-width="2" stroke-linecap="round" stroke-linejoin="round" stroke-dasharray="100 100"/>
</g>
<path d="M845.8 566.078L480.569 397.459L526.823 297.273L892.054 465.892L845.8 566.078Z" fill="white"/>
<path d="M845.8 566.078L480.569 397.459L526.823 297.273L892.054 465.892L845.8 566.078Z" stroke="#0626A9" stroke-width="2" stroke-linecap="round" stroke-linejoin="round"/>
<path d="M690.477 407.357L527.568 332.146L534.684 316.732L697.593 391.944L690.477 407.357Z" fill="#84AAE4"/>
<path d="M500.479 390.821L705.745 485.588" stroke="#0626A9" stroke-width="2" stroke-linecap="round" stroke-linejoin="round"/>
<path d="M511.011 368.008L800.997 501.888" stroke="#0626A9" stroke-width="2" stroke-linecap="round" stroke-linejoin="round"/>
<path d="M521.544 345.195L824.707 485.16" stroke="#0626A9" stroke-width="2" stroke-linecap="round" stroke-linejoin="round"/>
<path d="M749.858 767.016L494.407 695.151L546.804 508.901L802.255 580.767L749.858 767.016Z" fill="#84AAE4"/>
<path d="M749.858 767.016L494.407 695.151L546.804 508.901L802.255 580.767L749.858 767.016Z" stroke="#0626A9" stroke-width="2" stroke-linecap="round" stroke-linejoin="round"/>
<path d="M730.315 732.504L529.077 675.891L566.347 543.414L767.585 600.027L730.315 732.504Z" fill="white"/>
<path d="M1287.17 667.816L892.677 872.366L855.941 801.515L1250.44 596.966L1287.17 667.816Z" fill="white"/>
<path d="M1287.17 667.816L892.677 872.366L855.941 801.515L1250.44 596.966L1287.17 667.816Z" stroke="#0626A9" stroke-width="2" stroke-linecap="round" stroke-linejoin="round"/>
<path d="M961.254 806.844C961.254 806.844 993.905 789.913 1012.73 780.153" stroke="#0626A9" stroke-width="2" stroke-linecap="round" stroke-linejoin="round"/>
<path d="M1052.77 759.39C1052.77 759.39 1164.06 701.683 1197.63 684.277L1052.77 759.39Z" fill="white"/>
<path d="M1052.77 759.39C1052.77 759.39 1164.06 701.683 1197.63 684.277" stroke="#0626A9" stroke-width="2" stroke-linecap="round" stroke-linejoin="round"/>
<path d="M949.531 782.955L998.533 757.546" stroke="#0626A9" stroke-width="2" stroke-linecap="round" stroke-linejoin="round"/>
<path d="M938.374 822.174L909.942 838.871L893.245 810.438L921.678 793.741L938.374 822.174Z" fill="#8869D5"/>
<path d="M1152.57 533.905C1160.39 501.143 1140.18 468.235 1107.42 460.404C1074.66 452.574 1041.75 472.786 1033.91 505.548C1026.09 538.311 1046.3 571.219 1079.06 579.05C1111.82 586.88 1144.73 566.668 1152.57 533.905Z" fill="white"/>
<path d="M1113.53 511.652L1075.4 504.71L1088.45 541.2L1113.53 511.652Z" fill="#84AAE4"/>
<path d="M1152.57 533.905C1160.39 501.143 1140.18 468.235 1107.42 460.404C1074.66 452.574 1041.75 472.786 1033.91 505.548C1026.09 538.311 1046.3 571.219 1079.06 579.05C1111.82 586.88 1144.73 566.668 1152.57 533.905Z" stroke="#0626A9" stroke-width="2" stroke-linecap="round" stroke-linejoin="round"/>
<path d="M1042.69 363.997C1040.52 344.05 1022.58 329.644 1002.63 331.818C982.69 333.994 968.277 351.928 970.457 371.875C972.63 391.822 990.562 406.229 1010.51 404.053C1030.46 401.878 1044.86 383.944 1042.69 363.997Z" stroke="#0626A9" stroke-width="2" stroke-linecap="round" stroke-linejoin="round"/>
<path d="M1004.41 348.119L1008.73 387.753" stroke="#0626A9" stroke-width="2" stroke-linecap="round" stroke-linejoin="round"/>
<path d="M1026.39 365.775L986.752 370.098" stroke="#0626A9" stroke-width="2" stroke-linecap="round" stroke-linejoin="round"/>
<path d="M514.488 479.398C506.807 457.926 483.175 446.745 461.703 454.425C440.231 462.105 429.05 485.738 436.73 507.209C444.41 528.681 468.043 539.862 489.515 532.182C510.986 524.502 522.167 500.869 514.488 479.398Z" fill="white"/>
<path d="M514.488 479.398C506.807 457.926 483.175 446.745 461.703 454.425C440.231 462.105 429.05 485.738 436.73 507.209C444.41 528.681 468.043 539.862 489.515 532.182C510.986 524.502 522.167 500.869 514.488 479.398Z" stroke="#0626A9" stroke-width="2" stroke-linecap="round" stroke-linejoin="round"/>
<path d="M495.946 486.029L457.821 479.087L470.872 515.577L495.946 486.029Z" fill="#84AAE4"/>
<path d="M595.916 746.839L575.271 662.611L508.364 717.782L537.596 727.484L525.976 762.495L555.065 772.149L566.684 737.138L595.916 746.839Z" fill="white"/>
<path d="M595.916 746.839L575.271 662.611L508.364 717.782L537.596 727.484L525.976 762.495L555.065 772.149L566.684 737.138L595.916 746.839Z" stroke="#0626A9" stroke-width="2" stroke-linecap="round" stroke-linejoin="round"/>
<path d="M1028.9 588.463L725.293 755.935L610.569 547.952L914.177 380.482L1028.9 588.463Z" fill="white"/>
<path d="M1028.9 588.463L725.293 755.935L610.569 547.952L914.177 380.482L1028.9 588.463Z" stroke="#0626A9" stroke-width="2" stroke-linecap="round" stroke-linejoin="round"/>
<path d="M995.779 590.3L812.931 691.16L712.071 508.311L894.92 407.452L995.779 590.3Z" fill="white"/>
<path d="M995.779 590.3L812.931 691.16L712.071 508.311L894.92 407.452L995.779 590.3Z" stroke="#0626A9" stroke-width="2" stroke-linecap="round" stroke-linejoin="round"/>
<path d="M828.164 497.576C827.565 489.861 820.825 484.09 813.11 484.689C805.394 485.287 799.625 492.028 800.223 499.743C800.821 507.459 807.561 513.228 815.277 512.63C822.992 512.032 828.762 505.291 828.164 497.576Z" fill="#8869D5"/>
<path d="M775.169 622.701L799.094 547.193L851.999 555.145L870.699 469.329L934.548 479.295L995.779 590.299L812.93 691.159L775.169 622.701Z" fill="#84AAE4"/>
<path d="M775.169 622.701L799.094 547.193L851.999 555.145L870.699 469.329L934.548 479.295L995.779 590.299L812.93 691.159L775.169 622.701Z" stroke="#0626A9" stroke-width="2" stroke-linecap="round" stroke-linejoin="round"/>
<path d="M727.383 633.346C755.202 602.245 752.541 554.482 721.44 526.663C690.339 498.845 642.576 501.505 614.757 532.606C586.939 563.707 589.599 611.47 620.7 639.289C651.801 667.107 699.564 664.447 727.383 633.346Z" fill="white"/>
<path d="M727.383 633.346C755.202 602.245 752.541 554.482 721.44 526.663C690.339 498.845 642.576 501.505 614.757 532.606C586.939 563.707 589.599 611.47 620.7 639.289C651.801 667.107 699.564 664.447 727.383 633.346Z" stroke="#0626A9" stroke-width="2" stroke-linecap="round" stroke-linejoin="round"/>
<path d="M645.857 597.874L689.484 549.1C691.278 547.094 694.359 546.922 696.364 548.717L702.308 554.033C704.313 555.827 704.485 558.907 702.691 560.913L659.064 609.687L645.857 597.874Z" fill="#8869D5"/>
<path d="M645.857 597.874L689.484 549.1C691.278 547.094 694.359 546.922 696.364 548.717L702.308 554.033C704.313 555.827 704.485 558.907 702.691 560.913L659.064 609.687L645.857 597.874Z" stroke="#8869D5" stroke-miterlimit="10"/>
<path d="M642.803 614.578L659.064 609.687L645.858 597.875L642.803 614.578Z" stroke="#0626A9" stroke-width="2" stroke-linecap="round" stroke-linejoin="round"/>
<path d="M688.241 550.491L701.448 562.304L702.692 560.913C704.486 558.907 704.313 555.827 702.308 554.033L696.364 548.717C694.359 546.923 691.279 547.094 689.485 549.1L688.241 550.491Z" fill="white"/>
<path d="M688.241 550.491L701.448 562.304L702.692 560.913C704.486 558.907 704.313 555.827 702.308 554.033L696.364 548.717C694.359 546.923 691.279 547.094 689.485 549.1L688.241 550.491Z" stroke="#0626A9" stroke-width="2" stroke-linecap="round" stroke-linejoin="round"/>
<path d="M696.765 617.845L633.562 561.313L645.375 548.107L708.578 604.639L696.765 617.845Z" fill="white"/>
<path d="M696.765 617.845L633.562 561.313L645.375 548.107L708.578 604.639L696.765 617.845Z" stroke="#0626A9" stroke-width="2" stroke-linecap="round" stroke-linejoin="round"/>
<path d="M650.002 564.132L655.909 557.529" stroke="#0626A9" stroke-width="2" stroke-linecap="round" stroke-linejoin="round"/>
<path d="M660.535 573.555L666.442 566.951" stroke="#0626A9" stroke-width="2" stroke-linecap="round" stroke-linejoin="round"/>
<path d="M671.07 582.976L676.976 576.373" stroke="#0626A9" stroke-width="2" stroke-linecap="round" stroke-linejoin="round"/>
<path d="M681.603 592.398L687.51 585.795" stroke="#0626A9" stroke-width="2" stroke-linecap="round" stroke-linejoin="round"/>
<path d="M692.137 601.821L698.044 595.217" stroke="#0626A9" stroke-width="2" stroke-linecap="round" stroke-linejoin="round"/>
<path d="M745.477 752.103C749.931 731.272 736.655 710.774 715.825 706.32C694.995 701.866 674.497 715.142 670.043 735.972C665.588 756.803 678.864 777.3 699.695 781.754C720.525 786.209 741.023 772.933 745.477 752.103Z" fill="white"/>
<path d="M745.477 752.103C749.931 731.272 736.655 710.774 715.825 706.32C694.995 701.866 674.497 715.142 670.043 735.972C665.588 756.803 678.864 777.3 699.695 781.754C720.525 786.209 741.023 772.933 745.477 752.103Z" stroke="#0626A9" stroke-width="2" stroke-linecap="round" stroke-linejoin="round"/>
<mask id="mask4_40000055_9009" style="mask-type:alpha" maskUnits="userSpaceOnUse" x="689" y="734" width="46" height="24">
<path d="M691.341 737.615L703.184 755.902L732.998 736.591" stroke="#202870" stroke-width="4" stroke-linecap="round" stroke-linejoin="round"/>
</mask>
<g mask="url(#mask4_40000055_9009)">
<path d="M691.341 737.615L703.184 755.902L732.998 736.591" stroke="#0626A9" stroke-width="2" stroke-linecap="round" stroke-linejoin="round"/>
</g>
<path d="M925.888 1278.65H642.479C631.804 1278.65 623.15 1276.11 623.15 1265.43H945.217C945.217 1276.11 936.563 1278.65 925.888 1278.65Z" fill="#84AAE4"/>
<path d="M925.888 1278.65H642.479C631.804 1278.65 623.15 1276.11 623.15 1265.43H945.217C945.217 1276.11 936.563 1278.65 925.888 1278.65Z" stroke="#0626A9" stroke-width="2" stroke-linecap="round" stroke-linejoin="round"/>
<path d="M919.23 1278.65H649.137V1107.24C649.137 1099.97 655.024 1094.09 662.286 1094.09H906.081C913.343 1094.09 919.23 1099.97 919.23 1107.24V1278.65Z" fill="#84AAE4"/>
<path d="M919.23 1278.65H649.137V1107.24C649.137 1099.97 655.024 1094.09 662.286 1094.09H906.081C913.343 1094.09 919.23 1099.97 919.23 1107.24V1278.65Z" stroke="#0626A9" stroke-width="2" stroke-linecap="round" stroke-linejoin="round"/>
<path d="M800 1184.74C800 1176.01 792.919 1168.93 784.184 1168.93C775.448 1168.93 768.367 1176.01 768.367 1184.74C768.367 1193.48 775.448 1200.56 784.184 1200.56C792.919 1200.56 800 1193.48 800 1184.74Z" fill="#84AAE4"/>
<path d="M800 1184.74C800 1176.01 792.919 1168.93 784.184 1168.93C775.448 1168.93 768.367 1176.01 768.367 1184.74C768.367 1193.48 775.448 1200.56 784.184 1200.56C792.919 1200.56 800 1193.48 800 1184.74Z" stroke="#0626A9" stroke-width="2" stroke-linecap="round" stroke-linejoin="round"/>
<path d="M1182.25 1298.76H417.755V1278.65H1182.25V1298.76Z" fill="#0626A9"/>
</g>
</g>
</g>
</g>
<defs>
<clipPath id="clip0_40000055_9009">
<rect width="1600" height="1600" fill="white"/>
</clipPath>
</defs>
</svg>
