<svg width="1600" height="1600" viewBox="0 0 1600 1600" fill="none" xmlns="http://www.w3.org/2000/svg">
<g clip-path="url(#clip0_20_4957)">
<mask id="mask0_20_4957" style="mask-type:luminance" maskUnits="userSpaceOnUse" x="0" y="0" width="1600" height="1600">
<path d="M1600 0H0V1600H1600V0Z" fill="white"/>
</mask>
<g mask="url(#mask0_20_4957)">
<mask id="mask1_20_4957" style="mask-type:luminance" maskUnits="userSpaceOnUse" x="0" y="0" width="1600" height="1600">
<path d="M0 0H1600V1600H0V0Z" fill="white"/>
</mask>
<g mask="url(#mask1_20_4957)">
<path d="M1103.43 1079.48L1260.3 994.084" stroke="#0626A9" stroke-width="2" stroke-linecap="round" stroke-linejoin="round" stroke-dasharray="100 100"/>
<path d="M1054.92 980.995L1527.89 347.677" stroke="#0626A9" stroke-width="2" stroke-linecap="round" stroke-linejoin="round" stroke-dasharray="130 130"/>
<path d="M996.072 916.769L1385.63 118.921" stroke="#0626A9" stroke-width="2" stroke-linecap="round" stroke-linejoin="round" stroke-dasharray="164 164"/>
<path d="M791.766 279.162L787.021 57.9121" stroke="#0626A9" stroke-width="2" stroke-linecap="round" stroke-linejoin="round" stroke-dasharray="100 100"/>
<path d="M630.788 868.225L367.621 134.095" stroke="#0626A9" stroke-width="2" stroke-linecap="round" stroke-linejoin="round" stroke-dasharray="150 210"/>
<path d="M113.988 374.906L520.105 950.017" stroke="#0626A9" stroke-width="2" stroke-linecap="round" stroke-linejoin="round" stroke-dasharray="216 100"/>
<path d="M224.025 921.396L449.659 1060.36" stroke="#0626A9" stroke-width="2" stroke-linecap="round" stroke-linejoin="round" stroke-dasharray="100 100"/>
</g>
<path d="M859.87 494.22L382.444 273.803L442.906 142.841L920.333 363.258L859.87 494.22Z" fill="white"/>
<path d="M859.87 494.22L382.444 273.803L442.906 142.841L920.333 363.258L859.87 494.22Z" stroke="#0626A9" stroke-width="2" stroke-linecap="round" stroke-linejoin="round"/>
<path d="M656.832 286.741L443.88 188.426L453.182 168.277L666.134 266.593L656.832 286.741Z" fill="#84AAE4"/>
<path d="M408.469 265.125L676.791 389.004" stroke="#0626A9" stroke-width="2" stroke-linecap="round" stroke-linejoin="round"/>
<path d="M422.237 235.304L801.303 410.311" stroke="#0626A9" stroke-width="2" stroke-linecap="round" stroke-linejoin="round"/>
<path d="M436.006 205.484L832.297 388.444" stroke="#0626A9" stroke-width="2" stroke-linecap="round" stroke-linejoin="round"/>
<path d="M734.454 756.884L400.532 662.943L469.025 419.479L802.947 513.421L734.454 756.884Z" fill="#84AAE4"/>
<path d="M734.454 756.884L400.532 662.943L469.025 419.479L802.947 513.421L734.454 756.884Z" stroke="#0626A9" stroke-width="2" stroke-linecap="round" stroke-linejoin="round"/>
<path d="M708.908 711.77L445.852 637.766L494.571 464.593L757.627 538.597L708.908 711.77Z" fill="white"/>
<path d="M1436.83 627.211L921.147 894.596L873.126 801.981L1388.81 534.596L1436.83 627.211Z" fill="white"/>
<path d="M1436.83 627.211L921.147 894.596L873.126 801.981L1388.81 534.596L1436.83 627.211Z" stroke="#0626A9" stroke-width="2" stroke-linecap="round" stroke-linejoin="round"/>
<path d="M1010.79 808.946C1010.79 808.946 1053.47 786.814 1078.08 774.056" stroke="#0626A9" stroke-width="2" stroke-linecap="round" stroke-linejoin="round"/>
<path d="M1130.42 746.915C1130.42 746.915 1275.9 671.481 1319.78 648.728Z" fill="white"/>
<path d="M1130.42 746.915C1130.42 746.915 1275.9 671.481 1319.78 648.728" stroke="#0626A9" stroke-width="2" stroke-linecap="round" stroke-linejoin="round"/>
<path d="M995.465 777.719L1059.52 744.505" stroke="#0626A9" stroke-width="2" stroke-linecap="round" stroke-linejoin="round"/>
<path d="M980.881 828.986L943.715 850.812L921.889 813.645L959.056 791.819L980.881 828.986Z" fill="#8869D5"/>
<path d="M1260.87 452.164C1271.1 409.337 1244.68 366.32 1201.85 356.084C1159.03 345.848 1116.01 372.269 1105.77 415.096C1095.54 457.923 1121.96 500.94 1164.79 511.176C1207.61 521.412 1250.63 494.991 1260.87 452.164Z" fill="white"/>
<path d="M1260.87 452.164C1271.1 409.337 1244.68 366.32 1201.85 356.084C1159.03 345.848 1116.01 372.269 1105.77 415.096C1095.54 457.923 1121.96 500.94 1164.79 511.176C1207.61 521.412 1250.63 494.991 1260.87 452.164Z" stroke="#0626A9" stroke-width="2" stroke-linecap="round" stroke-linejoin="round"/>
<g clip-path="url(#clip1_20_4957)">
<path d="M1216.15 371.532L1112.47 431.392L1150.64 497.492L1254.31 437.633L1216.15 371.532Z" fill="#510D77" stroke="#510D77" stroke-width="2.4"/>
<mask id="mask2_20_4957" style="mask-type:luminance" maskUnits="userSpaceOnUse" x="1130" y="402" width="125" height="96">
<path d="M1234.46 402.715L1130.24 462.885L1150.49 497.968L1254.71 437.798L1234.46 402.715Z" fill="white"/>
</mask>
<g mask="url(#mask2_20_4957)">
<path d="M1120.32 471.533C1120.32 471.533 1134.1 476.595 1155.92 463.604L1156.88 463.052C1175.93 452.051 1192.45 435.422 1205.13 426.69C1208.09 424.679 1211.16 422.77 1214.41 421.056C1235.65 409.834 1253.52 409.78 1253.52 409.78L1267.36 433.76L1140.72 506.877L1120.31 471.515L1120.32 471.533Z" fill="#CDECF7"/>
<path d="M1212.6 418.854C1192.14 430.668 1180.12 448.519 1156.23 460.897C1146.6 465.906 1138.21 467.621 1131.83 468.174C1123.79 468.88 1118.85 467.557 1117.81 467.188L1119.46 470.056C1119.46 470.056 1124.5 472.316 1133.27 471.144C1139.1 470.372 1146.62 467.998 1155.34 462.802L1156.21 462.301C1175.13 451.38 1191.1 435.97 1204.19 426.144C1207.27 424.018 1210.47 422.029 1213.88 420.225C1235.1 409.013 1253.05 408.919 1253.05 408.919L1252.51 407.998L1250.67 404.8C1250.67 404.8 1233.4 406.823 1212.59 418.837" fill="#CDECF7"/>
</g>
<path d="M1236.69 421.143L1213.24 434.681L1221.87 449.625L1245.32 436.086L1236.69 421.143Z" fill="white"/>
<path d="M1155.86 412.92L1143.72 419.93L1146.17 424.17L1158.31 417.16L1155.86 412.92Z" fill="#CDECF7"/>
<path d="M1167.12 436.264L1170.98 433.202C1166.72 426.068 1157.57 423.614 1150.41 427.745C1143.25 431.877 1148.57 428.97 1147.8 429.69L1142.56 420.602L1138.34 423.039L1147.89 439.582C1148.29 436.502 1150.02 433.647 1152.89 431.993C1157.77 429.175 1164.03 430.885 1166.88 435.82L1167.12 436.237L1167.12 436.264Z" fill="#CDECF7"/>
<path d="M1161.22 479.034C1160.17 479.636 1159.82 480.952 1160.41 481.977C1161.01 483.002 1160.82 482.528 1161.11 482.708L1161.13 482.743L1161.95 482.271L1161.78 482.21C1161.47 482.084 1161.23 481.874 1161.07 481.596C1160.68 480.918 1160.92 480.041 1161.58 479.66C1162.24 479.279 1163.11 479.514 1163.51 480.192C1163.9 480.869 1163.74 480.798 1163.69 481.107L1163.65 481.289L1164.45 480.827L1164.43 480.793C1164.44 480.442 1164.34 480.106 1164.17 479.811C1163.57 478.786 1162.24 478.443 1161.22 479.034Z" fill="#510D77"/>
<path d="M1161.05 478.739C1161.76 478.328 1162.18 477.575 1162.13 476.769L1162.12 476.634L1161.36 477.075L1161.38 477.11C1161.31 477.546 1161.06 477.92 1160.68 478.141C1160.3 478.362 1159.86 478.378 1159.45 478.223L1159.43 478.189L1158.65 478.64L1158.76 478.714C1159.45 479.149 1160.32 479.16 1161.01 478.759L1161.05 478.739Z" fill="#510D77"/>
<path d="M1155.5 480.438L1153.13 481.802L1155.55 485.989L1156.16 485.638L1155.12 483.831L1156.37 483.109L1156.01 482.501L1154.76 483.223L1154.09 482.059L1155.85 481.046L1155.5 480.438Z" fill="#510D77"/>
<path d="M1158.76 483.28L1156.71 479.736L1156.09 480.097L1158.49 484.267L1160.47 483.124L1160.11 482.498L1158.76 483.28Z" fill="#510D77"/>
<path d="M1166.43 476.907L1165.51 476.045L1166.06 478.484L1163.28 475.945L1162.6 476.336L1166.34 479.734L1167 479.353L1166.41 476.917L1166.43 476.907ZM1166.07 478.501L1166 478.541C1166.01 478.559 1166.07 478.501 1166.07 478.501Z" fill="#510D77"/>
<path d="M1167.5 473.508L1168.3 477.19L1166.02 475.152L1165.42 475.493L1168.59 478.441L1169.26 478.049L1168.18 473.117L1167.5 473.508Z" fill="#510D77"/>
<path d="M1151.84 484.656L1151.79 484.686L1151.32 483.636L1152.29 483.074L1151.95 482.483L1150.44 483.356L1151.46 485.641L1152.05 485.3C1152.87 484.829 1153.28 485.352 1153.39 485.543C1153.63 485.96 1153.49 486.463 1153.05 486.714C1152.62 486.965 1152.37 486.944 1151.92 486.836L1151.75 486.792L1152.2 487.574L1152.24 487.554C1152.49 487.593 1152.95 487.583 1153.42 487.312C1154.24 486.841 1154.48 485.981 1154.02 485.182C1153.56 484.383 1152.69 484.165 1151.84 484.656Z" fill="#510D77"/>
<path d="M1152.84 481.972L1152.25 482.313L1152.59 482.904L1153.18 482.563L1152.84 481.972Z" fill="#510D77"/>
<path d="M1203.21 392.28L1177.62 407.052" stroke="#CDECF7" stroke-width="2" stroke-linecap="round" stroke-linejoin="round"/>
<path d="M1216.71 390.51L1180.23 411.569" stroke="#CDECF7" stroke-width="2" stroke-linecap="round" stroke-linejoin="round"/>
<path d="M1219.09 394.628L1182.61 415.688" stroke="#CDECF7" stroke-width="2" stroke-linecap="round" stroke-linejoin="round"/>
<path d="M1221.81 399.337L1185.33 420.397" stroke="#CDECF7" stroke-width="2" stroke-linecap="round" stroke-linejoin="round"/>
<path d="M1203.68 416.08L1188.05 425.106" stroke="#CDECF7" stroke-width="2" stroke-linecap="round" stroke-linejoin="round"/>
<path d="M1206.17 384.291L1174.91 402.342" stroke="#CDECF7" stroke-width="2" stroke-linecap="round" stroke-linejoin="round"/>
<path d="M1207.6 438.398L1191.97 447.423Z" fill="#510D77"/>
<path d="M1207.6 438.398L1191.97 447.423" stroke="#510D77" stroke-linecap="round" stroke-linejoin="round"/>
<path d="M1209.31 441.352L1193.68 450.377Z" fill="#510D77"/>
<path d="M1209.31 441.352L1193.68 450.377" stroke="#510D77" stroke-linecap="round" stroke-linejoin="round"/>
<path d="M1211 444.289L1195.37 453.314Z" fill="#510D77"/>
<path d="M1211 444.289L1195.37 453.314" stroke="#510D77" stroke-linecap="round" stroke-linejoin="round"/>
<path d="M1207.44 456.169L1199.63 460.682Z" fill="#510D77"/>
<path d="M1207.44 456.169L1199.63 460.682" stroke="#510D77" stroke-linecap="round" stroke-linejoin="round"/>
<path d="M1229.25 428.033L1233.76 435.852" stroke="black" stroke-width="2" stroke-linecap="round" stroke-linejoin="round"/>
<path d="M1218.74 434.1L1223.25 441.919" stroke="black" stroke-width="3" stroke-linecap="round" stroke-linejoin="round"/>
<path d="M1219.9 433.428L1224.42 441.247" stroke="black" stroke-width="3" stroke-linecap="round" stroke-linejoin="round"/>
<path d="M1221.24 432.656L1225.76 440.475" stroke="black" stroke-width="3" stroke-linecap="round" stroke-linejoin="round"/>
<path d="M1222.41 431.984L1226.92 439.803" stroke="black" stroke-width="3" stroke-linecap="round" stroke-linejoin="round"/>
<path d="M1223.66 431.262L1228.17 439.081" stroke="black" stroke-width="3" stroke-linecap="round" stroke-linejoin="round"/>
<path d="M1228.07 428.715L1232.58 436.534" stroke="black" stroke-width="3" stroke-linecap="round" stroke-linejoin="round"/>
<path d="M1230.57 427.271L1235.08 435.09" stroke="black" stroke-width="3" stroke-linecap="round" stroke-linejoin="round"/>
<path d="M1231.75 426.589L1236.26 434.408" stroke="black" stroke-width="3" stroke-linecap="round" stroke-linejoin="round"/>
<path d="M1233 425.867L1237.52 433.686" stroke="black" stroke-width="3" stroke-linecap="round" stroke-linejoin="round"/>
<path d="M1217.5 434.839L1223.52 445.265" stroke="black" stroke-width="3" stroke-linecap="round" stroke-linejoin="round"/>
<path d="M1216.02 435.692L1222.04 446.118" stroke="black" stroke-width="3" stroke-linecap="round" stroke-linejoin="round"/>
<path d="M1226.77 429.484L1232.79 439.91" stroke="black" stroke-width="3" stroke-linecap="round" stroke-linejoin="round"/>
<path d="M1225.3 430.337L1231.32 440.763" stroke="black" stroke-width="3" stroke-linecap="round" stroke-linejoin="round"/>
<path d="M1236.12 424.089L1242.14 434.515" stroke="black" stroke-width="3" stroke-linecap="round" stroke-linejoin="round"/>
<path d="M1234.64 424.941L1240.66 435.367" stroke="black" stroke-width="3" stroke-linecap="round" stroke-linejoin="round"/>
<path d="M1148.88 480.339L1149.47 479.998C1149.54 479.958 1149.74 479.848 1149.89 479.947C1149.99 480.003 1150.05 480.225 1150.06 480.332C1150.05 480.521 1149.88 480.621 1149.79 480.671L1149.55 480.812L1149.7 481.234L1149.3 481.465L1148.87 480.322L1148.88 480.339ZM1149.46 480.61C1149.6 480.53 1149.65 480.5 1149.62 480.403L1149.58 480.334C1149.54 480.192 1149.48 480.249 1149.36 480.32L1149.47 480.628L1149.46 480.61Z" fill="#510D77"/>
<path d="M1150.74 480.66C1150.65 480.71 1150.52 480.718 1150.39 480.654C1150.33 480.639 1150.26 480.562 1150.25 480.5L1150.11 480.14C1149.98 479.752 1150.12 479.6 1150.4 479.439L1150.49 479.389C1150.58 479.339 1150.73 479.249 1150.92 479.327C1151.04 479.374 1151.07 479.471 1151.11 479.585L1151.23 479.911C1151.29 480.087 1151.29 480.249 1151.14 480.429C1151.08 480.486 1150.75 480.65 1150.72 480.67M1150.5 479.847L1150.63 480.235L1150.72 480.391C1150.73 480.408 1150.81 480.386 1150.82 480.331C1150.87 480.283 1150.85 480.249 1150.82 480.124L1150.69 479.737L1150.6 479.58C1150.59 479.563 1150.5 479.613 1150.5 479.64C1150.45 479.688 1150.46 479.733 1150.5 479.847Z" fill="#510D77"/>
<path d="M1151.35 478.915L1151.71 479.496L1151.63 478.755L1151.99 478.544L1152.35 479.125L1152.27 478.384L1152.48 478.263L1152.62 479.549L1152.22 479.78L1151.92 479.303L1151.99 479.91L1151.58 480.151L1150.95 479.146L1151.35 478.915Z" fill="#510D77"/>
<path d="M1152.51 478.243L1153.37 477.752L1153.43 477.946L1152.98 478.206L1153.08 478.452L1153.39 478.272L1153.46 478.483L1153.15 478.664L1153.24 478.937L1153.69 478.676L1153.77 478.887L1152.93 479.369L1152.51 478.243Z" fill="#510D77"/>
<path d="M1153.45 477.702L1154.08 477.341C1154.29 477.22 1154.34 477.235 1154.44 477.292C1154.52 477.341 1154.58 477.535 1154.61 477.587C1154.61 477.704 1154.55 477.762 1154.48 477.829C1154.56 477.851 1154.61 477.893 1154.66 477.98L1154.87 478.273L1154.47 478.504L1154.27 478.228C1154.16 478.082 1154.18 478.072 1154.07 478.132L1154.25 478.634L1153.85 478.865L1153.42 477.722L1153.45 477.702ZM1154.01 477.911C1154.13 477.841 1154.18 477.766 1154.16 477.686C1154.11 477.555 1154.07 477.575 1153.92 477.665L1154.01 477.911Z" fill="#510D77"/>
<path d="M1154.53 477.08L1155.38 476.589L1155.45 476.782L1154.99 477.043L1155.09 477.289L1155.4 477.109L1155.48 477.32L1155.17 477.5L1155.27 477.764L1155.71 477.513L1155.8 477.714L1154.95 478.205L1154.53 477.08Z" fill="#510D77"/>
<path d="M1155.47 476.538L1156.08 476.187C1156.16 476.137 1156.3 476.057 1156.42 476.104C1156.54 476.151 1156.57 476.247 1156.61 476.344L1156.75 476.749C1156.86 477.058 1156.8 477.16 1156.5 477.33L1155.88 477.691L1155.45 476.548L1155.47 476.538ZM1156.22 477.239L1156.24 477.229C1156.34 477.169 1156.38 477.077 1156.35 476.98L1156.21 476.575C1156.14 476.381 1156.13 476.409 1155.96 476.509L1156.23 477.257L1156.22 477.239Z" fill="#510D77"/>
<path d="M1157.53 475.345C1157.62 475.295 1157.73 475.235 1157.86 475.299C1157.95 475.338 1157.98 475.435 1157.99 475.525C1157.99 475.659 1157.91 475.754 1157.83 475.821C1157.91 475.799 1157.97 475.813 1158.04 475.863C1158.12 475.912 1158.16 476.071 1158.17 476.161C1158.16 476.35 1157.99 476.45 1157.88 476.511L1157.24 476.882L1156.81 475.739L1157.52 475.328L1157.53 475.345ZM1157.63 476.427C1157.71 476.377 1157.78 476.337 1157.77 476.275C1157.77 476.275 1157.7 476.081 1157.68 476.073C1157.64 476.049 1157.61 476.069 1157.5 476.129L1157.61 476.437L1157.63 476.427ZM1157.43 475.918C1157.55 475.848 1157.58 475.827 1157.59 475.755C1157.59 475.755 1157.56 475.631 1157.52 475.634C1157.48 475.609 1157.43 475.639 1157.34 475.689L1157.44 475.935L1157.43 475.918Z" fill="#510D77"/>
<path d="M1157.88 475.144L1158.26 474.924L1158.6 475.263L1158.63 474.713L1158.85 474.583L1158.78 475.504L1158.94 475.899L1158.54 476.13L1158.36 475.655L1157.88 475.144Z" fill="#510D77"/>
<path d="M1156.85 433.598L1168.84 422.849L1173.72 430.97L1161.84 441.12L1156.85 433.598Z" fill="#510D77"/>
<path fill-rule="evenodd" clip-rule="evenodd" d="M1178.16 439.181C1178.44 439.667 1178.27 440.298 1177.78 440.578C1177.3 440.859 1176.67 440.69 1176.38 440.204C1176.1 439.717 1176.27 439.087 1176.76 438.806C1177.25 438.525 1177.88 438.694 1178.16 439.181Z" stroke="#CDECF7" stroke-width="0.7" stroke-miterlimit="10"/>
<path d="M1155.44 457.952L1155.17 458.175C1155.14 458.122 1155.11 458.07 1155.04 458.066C1154.99 458.068 1154.95 458.071 1154.91 458.118C1154.87 458.138 1154.87 458.183 1154.87 458.211C1154.87 458.211 1154.9 458.263 1154.92 458.298C1154.97 458.312 1155.02 458.31 1155.13 458.267L1155.17 458.247C1155.33 458.174 1155.45 458.131 1155.57 458.223C1155.64 458.272 1155.69 458.359 1155.71 458.466C1155.72 458.69 1155.5 458.937 1155.38 459.025C1155.3 459.075 1155.07 459.277 1154.87 459.226C1154.79 459.204 1154.73 459.144 1154.67 459.04L1154.94 458.818C1154.96 458.852 1155.01 458.939 1155.08 458.944C1155.13 458.941 1155.18 458.911 1155.22 458.864C1155.25 458.826 1155.26 458.771 1155.24 458.737C1155.22 458.702 1155.2 458.667 1155.14 458.68C1155.02 458.678 1154.82 458.816 1154.68 458.806C1154.58 458.794 1154.49 458.727 1154.44 458.641C1154.36 458.502 1154.41 458.382 1154.49 458.242C1154.58 458.12 1154.93 457.802 1155.12 457.809C1155.24 457.811 1155.32 457.878 1155.4 457.972L1155.44 457.952Z" fill="white"/>
<path d="M1156.32 457.998L1156.58 458.45L1156.16 458.807L1155.4 457.487L1155.82 457.129L1155.92 457.303C1155.94 457.104 1156.05 456.927 1156.15 456.822C1156.2 456.792 1156.31 456.731 1156.43 456.751C1156.54 456.78 1156.62 456.919 1156.68 457.023L1156.82 457.267C1156.91 457.423 1156.97 457.527 1156.89 457.712C1156.83 457.841 1156.68 457.976 1156.54 458.012C1156.46 458.035 1156.4 458.02 1156.33 458.015L1156.32 457.998ZM1156.02 457.477L1156.2 457.789C1156.25 457.876 1156.34 457.871 1156.37 457.851C1156.48 457.791 1156.44 457.694 1156.42 457.659L1156.24 457.346C1156.21 457.294 1156.15 457.217 1156.05 457.295C1156 457.325 1155.98 457.407 1156.03 457.494L1156.02 457.477Z" fill="white"/>
<path d="M1158.22 456.599L1157.75 456.986L1157.7 456.9C1157.63 457.101 1157.5 457.271 1157.35 457.334C1157.23 457.377 1157.13 457.365 1157.03 457.308C1156.96 457.259 1156.91 457.172 1156.89 457.065C1156.89 456.858 1157.02 456.688 1157.15 456.591L1157.2 456.561C1157.28 456.493 1157.37 456.416 1157.35 456.291C1157.34 456.274 1157.32 456.239 1157.31 456.222C1157.3 456.205 1157.24 456.217 1157.19 456.22C1157.15 456.223 1157.09 456.28 1157.08 456.38C1157.08 456.424 1157.07 456.452 1157.08 456.514L1156.77 456.767C1156.71 456.59 1156.7 456.483 1156.8 456.306C1156.89 456.139 1157.33 455.771 1157.53 455.795C1157.7 455.812 1157.73 455.837 1157.92 456.15L1158.19 456.619L1158.22 456.599ZM1157.47 456.545C1157.42 456.647 1157.34 456.714 1157.4 456.819C1157.42 456.853 1157.46 456.878 1157.5 456.876C1157.52 456.866 1157.56 456.863 1157.6 456.815C1157.64 456.795 1157.63 456.733 1157.62 456.716C1157.6 456.681 1157.51 456.525 1157.51 456.525C1157.51 456.525 1157.51 456.525 1157.49 456.535L1157.47 456.545Z" fill="white"/>
<path d="M1157.8 455.473L1158.22 455.115L1158.34 455.324C1158.32 455.127 1158.4 454.988 1158.52 454.873L1158.82 455.394C1158.79 455.369 1158.69 455.33 1158.62 455.37C1158.59 455.39 1158.54 455.42 1158.52 455.475C1158.5 455.557 1158.54 455.627 1158.57 455.679L1158.82 456.113L1158.4 456.471L1157.82 455.463L1157.8 455.473Z" fill="white"/>
<path d="M1158.79 453.859L1159.27 454.693L1159.47 454.07L1159.85 453.76L1159.71 454.208L1160.34 454.845L1159.9 455.213L1159.51 454.814L1159.46 455.006L1159.69 455.405L1159.27 455.763L1158.38 454.234L1158.8 453.876L1158.79 453.859Z" fill="white"/>
<path d="M1160.01 452.833L1160.89 454.363L1160.47 454.72L1159.59 453.191L1160.01 452.833Z" fill="white"/>
<path d="M1160.51 453.19L1160.93 452.832L1161.51 453.84L1161.1 454.197L1160.51 453.19ZM1160.37 452.623C1160.4 452.558 1160.5 452.48 1160.62 452.482C1160.71 452.477 1160.75 452.519 1160.78 452.571C1160.81 452.623 1160.84 452.676 1160.8 452.795C1160.77 452.905 1160.67 452.982 1160.58 453.015C1160.52 453.045 1160.44 453.023 1160.39 452.981C1160.36 452.929 1160.33 452.877 1160.33 452.787C1160.33 452.742 1160.35 452.705 1160.38 452.668L1160.37 452.623Z" fill="white"/>
<path d="M1162.72 452.842L1162.3 453.199L1161.94 452.574C1161.91 452.522 1161.84 452.445 1161.77 452.485C1161.69 452.535 1161.73 452.649 1161.75 452.684L1162.12 453.327L1161.7 453.685L1161.12 452.677L1161.54 452.319L1161.64 452.493C1161.65 452.276 1161.76 452.099 1161.89 452.002C1161.96 451.962 1162.03 451.921 1162.13 451.933C1162.21 451.955 1162.28 452.077 1162.36 452.216L1162.71 452.824L1162.72 452.842Z" fill="white"/>
<path d="M1162.97 451.352L1162.88 451.196L1163.3 450.838L1163.74 451.603C1164.02 452.09 1163.89 452.304 1163.56 452.612L1163.51 452.642C1163.43 452.737 1163.18 452.949 1163 452.888C1162.95 452.873 1162.9 452.831 1162.86 452.761L1163.19 452.481C1163.22 452.534 1163.24 452.541 1163.3 452.511L1163.43 452.431C1163.52 452.336 1163.5 452.301 1163.38 452.092C1163.34 452.346 1163.17 452.536 1162.97 452.557C1162.73 452.58 1162.65 452.441 1162.56 452.285L1162.48 452.146C1162.38 451.972 1162.29 451.816 1162.42 451.601C1162.5 451.489 1162.63 451.364 1162.79 451.363C1162.84 451.361 1162.88 451.358 1162.95 451.39L1162.97 451.352ZM1162.9 451.699L1163.07 451.994C1163.1 452.046 1163.14 452.116 1163.2 452.103C1163.22 452.093 1163.25 452.073 1163.27 452.063C1163.36 451.985 1163.3 451.881 1163.27 451.829L1163.1 451.534C1163.08 451.499 1163.04 451.429 1162.94 451.462C1162.93 451.472 1162.91 451.482 1162.89 451.492C1162.84 451.567 1162.88 451.637 1162.91 451.689L1162.9 451.699Z" fill="white"/>
<path d="M1163.51 449.882L1163.93 449.524L1164.33 450.219C1164.36 449.975 1164.45 449.826 1164.59 449.745C1164.66 449.705 1164.75 449.655 1164.86 449.685C1165.01 449.711 1165.07 449.843 1165.15 449.982L1165.23 450.121C1165.32 450.277 1165.42 450.451 1165.3 450.656C1165.26 450.775 1165.11 450.883 1164.99 450.908C1164.94 450.938 1164.82 450.936 1164.75 450.932L1164.83 451.071L1164.41 451.428L1163.52 449.899L1163.51 449.882ZM1164.47 450.445L1164.65 450.758C1164.68 450.81 1164.78 450.822 1164.83 450.792C1164.9 450.752 1164.9 450.68 1164.84 450.62L1164.65 450.29C1164.62 450.238 1164.59 450.186 1164.52 450.181C1164.47 450.167 1164.42 450.241 1164.41 450.269C1164.4 450.296 1164.39 450.351 1164.44 450.438L1164.47 450.445Z" fill="white"/>
<path d="M1165.02 449.405L1165.44 449.047L1165.8 449.673C1165.83 449.725 1165.9 449.802 1165.97 449.762C1166.06 449.712 1166.02 449.615 1165.99 449.563L1165.62 448.92L1166.04 448.562L1166.62 449.57L1166.2 449.928L1166.1 449.754C1166.1 449.916 1166.1 450.06 1165.85 450.245C1165.79 450.285 1165.72 450.325 1165.62 450.286C1165.54 450.264 1165.47 450.142 1165.39 450.003L1165.04 449.395L1165.02 449.405Z" fill="white"/>
<path d="M1167.29 448.029L1167.02 448.252C1166.99 448.2 1166.96 448.148 1166.89 448.143C1166.84 448.146 1166.8 448.148 1166.76 448.196C1166.72 448.216 1166.72 448.261 1166.72 448.288C1166.72 448.288 1166.75 448.34 1166.77 448.375C1166.82 448.39 1166.87 448.387 1166.98 448.344L1167.02 448.324C1167.18 448.251 1167.3 448.208 1167.42 448.3C1167.49 448.349 1167.54 448.436 1167.56 448.543C1167.57 448.767 1167.34 449.015 1167.23 449.102C1167.15 449.152 1166.92 449.355 1166.72 449.303C1166.64 449.281 1166.58 449.222 1166.52 449.118L1166.79 448.895C1166.81 448.93 1166.86 449.017 1166.93 449.021C1166.98 449.019 1167.03 448.988 1167.07 448.941C1167.09 448.904 1167.11 448.849 1167.09 448.814C1167.07 448.779 1167.05 448.745 1166.99 448.757C1166.87 448.755 1166.67 448.893 1166.53 448.884C1166.43 448.872 1166.34 448.805 1166.29 448.718C1166.21 448.579 1166.26 448.459 1166.34 448.32C1166.43 448.197 1166.78 447.88 1166.97 447.886C1167.09 447.888 1167.17 447.955 1167.25 448.049L1167.29 448.029Z" fill="white"/>
<path d="M1167.22 447.557L1167.64 447.199L1168.22 448.207L1167.8 448.565L1167.22 447.557ZM1167.1 446.98C1167.13 446.915 1167.22 446.838 1167.34 446.84C1167.43 446.834 1167.48 446.876 1167.51 446.928C1167.54 446.981 1167.57 447.033 1167.52 447.152C1167.49 447.262 1167.4 447.34 1167.3 447.372C1167.25 447.402 1167.17 447.38 1167.12 447.338C1167.09 447.286 1167.06 447.234 1167.05 447.144C1167.05 447.1 1167.07 447.062 1167.1 447.025L1167.1 446.98Z" fill="white"/>
<path d="M1169.45 447.199L1169.03 447.557L1168.67 446.931C1168.64 446.879 1168.57 446.802 1168.5 446.842C1168.41 446.892 1168.45 447.007 1168.47 447.041L1168.85 447.684L1168.43 448.042L1167.85 447.034L1168.26 446.676L1168.36 446.85C1168.38 446.634 1168.48 446.456 1168.61 446.359C1168.68 446.319 1168.75 446.279 1168.83 446.301C1168.92 446.323 1168.99 446.444 1169.07 446.583L1169.42 447.192L1169.45 447.199Z" fill="white"/>
<path d="M1170.38 445.776L1169.81 446.269C1169.88 446.391 1169.93 446.478 1169.96 446.485C1169.99 446.492 1170.06 446.497 1170.11 446.422C1170.15 446.375 1170.16 446.302 1170.13 446.25C1170.12 446.233 1170.1 446.198 1170.08 446.163L1170.42 445.873C1170.47 445.96 1170.55 446.144 1170.46 446.311C1170.4 446.413 1170.3 446.546 1170.17 446.643C1169.96 446.808 1169.83 446.861 1169.73 446.894C1169.55 446.905 1169.43 446.813 1169.39 446.744C1169.36 446.691 1169.23 446.538 1169.17 446.361C1169.14 446.264 1169.14 446.147 1169.16 446.065C1169.18 446.01 1169.22 445.918 1169.28 445.861C1169.32 445.813 1169.41 445.736 1169.47 445.678C1169.6 445.581 1169.71 445.493 1169.82 445.478C1169.96 445.442 1170.09 445.434 1170.2 445.536C1170.25 445.578 1170.34 445.734 1170.39 445.821L1170.38 445.776ZM1169.73 445.762C1169.67 445.747 1169.63 445.794 1169.62 445.822C1169.57 445.897 1169.6 445.949 1169.68 446.088L1169.87 445.933C1169.81 445.829 1169.78 445.776 1169.74 445.779L1169.73 445.762Z" fill="white"/>
<path d="M1171.25 444.7L1170.98 444.923C1170.95 444.871 1170.92 444.818 1170.85 444.814C1170.8 444.816 1170.76 444.819 1170.72 444.867C1170.68 444.887 1170.68 444.931 1170.68 444.959C1170.68 444.959 1170.71 445.011 1170.73 445.046C1170.78 445.06 1170.83 445.058 1170.94 445.015L1170.98 444.995C1171.14 444.922 1171.26 444.879 1171.38 444.971C1171.45 445.02 1171.5 445.107 1171.52 445.214C1171.53 445.438 1171.3 445.685 1171.19 445.773C1171.11 445.823 1170.88 446.026 1170.68 445.974C1170.6 445.952 1170.54 445.893 1170.48 445.788L1170.75 445.566C1170.77 445.6 1170.82 445.687 1170.89 445.692C1170.94 445.689 1170.99 445.659 1171.03 445.612C1171.06 445.574 1171.07 445.52 1171.05 445.485C1171.03 445.45 1171.01 445.415 1170.95 445.428C1170.83 445.426 1170.63 445.564 1170.49 445.554C1170.39 445.542 1170.3 445.476 1170.25 445.389C1170.17 445.25 1170.22 445.13 1170.3 444.99C1170.39 444.868 1170.74 444.55 1170.93 444.557C1171.05 444.559 1171.13 444.626 1171.21 444.72L1171.25 444.7Z" fill="white"/>
<path d="M1172.26 443.857L1172 444.08C1171.97 444.028 1171.94 443.976 1171.87 443.971C1171.82 443.974 1171.78 443.976 1171.73 444.024C1171.7 444.044 1171.7 444.089 1171.7 444.116C1171.7 444.116 1171.73 444.168 1171.75 444.203C1171.8 444.218 1171.85 444.215 1171.96 444.172L1171.99 444.152C1172.16 444.079 1172.27 444.036 1172.4 444.128C1172.47 444.177 1172.52 444.264 1172.54 444.371C1172.55 444.595 1172.32 444.842 1172.21 444.93C1172.12 444.98 1171.89 445.183 1171.7 445.131C1171.62 445.109 1171.56 445.05 1171.5 444.945L1171.77 444.723C1171.79 444.758 1171.84 444.844 1171.91 444.849C1171.96 444.846 1172.01 444.816 1172.05 444.769C1172.07 444.731 1172.09 444.677 1172.07 444.642C1172.05 444.607 1172.03 444.572 1171.97 444.585C1171.85 444.583 1171.65 444.721 1171.51 444.712C1171.41 444.699 1171.32 444.633 1171.27 444.546C1171.19 444.407 1171.24 444.287 1171.32 444.147C1171.41 444.025 1171.76 443.708 1171.95 443.714C1172.07 443.716 1172.15 443.783 1172.23 443.877L1172.26 443.857Z" fill="white"/>
<path d="M1173.57 443.105L1172.99 443.598C1173.06 443.719 1173.12 443.806 1173.14 443.814C1173.17 443.821 1173.24 443.826 1173.29 443.751C1173.33 443.703 1173.34 443.631 1173.31 443.579C1173.3 443.562 1173.28 443.527 1173.26 443.492L1173.6 443.202C1173.65 443.289 1173.73 443.473 1173.64 443.64C1173.59 443.742 1173.48 443.874 1173.35 443.972C1173.14 444.137 1173.01 444.19 1172.92 444.223C1172.74 444.233 1172.61 444.142 1172.57 444.072C1172.54 444.02 1172.41 443.867 1172.35 443.69C1172.32 443.593 1172.32 443.476 1172.34 443.394C1172.36 443.339 1172.4 443.247 1172.46 443.189C1172.5 443.142 1172.59 443.064 1172.65 443.007C1172.78 442.909 1172.89 442.822 1173 442.806C1173.14 442.771 1173.28 442.763 1173.38 442.864C1173.44 442.924 1173.52 443.063 1173.57 443.15L1173.57 443.105ZM1172.93 443.08C1172.87 443.066 1172.83 443.113 1172.82 443.141C1172.77 443.215 1172.8 443.268 1172.88 443.407L1173.07 443.252C1173.01 443.147 1172.98 443.095 1172.94 443.098L1172.93 443.08Z" fill="white"/>
<path d="M1174.45 442.019L1174.18 442.241C1174.15 442.189 1174.12 442.137 1174.05 442.133C1174 442.135 1173.96 442.138 1173.92 442.185C1173.88 442.205 1173.88 442.25 1173.88 442.278C1173.88 442.278 1173.91 442.33 1173.93 442.364C1173.98 442.379 1174.03 442.376 1174.14 442.334L1174.18 442.314C1174.34 442.241 1174.46 442.198 1174.58 442.289C1174.65 442.339 1174.7 442.426 1174.72 442.533C1174.73 442.757 1174.5 443.004 1174.39 443.092C1174.31 443.142 1174.08 443.344 1173.88 443.293C1173.8 443.271 1173.74 443.211 1173.68 443.107L1173.95 442.884C1173.97 442.919 1174.02 443.006 1174.09 443.011C1174.14 443.008 1174.19 442.978 1174.23 442.931C1174.26 442.893 1174.27 442.838 1174.25 442.804C1174.23 442.769 1174.21 442.734 1174.15 442.747C1174.03 442.745 1173.83 442.882 1173.69 442.873C1173.59 442.861 1173.5 442.794 1173.45 442.707C1173.37 442.568 1173.42 442.449 1173.5 442.309C1173.59 442.187 1173.94 441.869 1174.13 441.876C1174.25 441.878 1174.33 441.945 1174.41 442.039L1174.45 442.019Z" fill="white"/>
<path d="M1151.18 450.701L1153.72 448.473C1154.12 448.125 1154.61 447.611 1155.25 447.797C1155.77 447.937 1155.95 448.411 1156.13 448.93L1156.88 450.908C1157.44 452.439 1157.23 452.955 1155.97 454.028L1153.29 456.319L1151.18 450.746L1151.18 450.701ZM1154.61 453.867L1154.71 453.807C1155.33 453.239 1155.44 453.268 1155.09 452.381L1154.33 450.386C1153.97 449.482 1153.96 449.537 1153.22 450.175L1154.61 453.867Z" fill="#CDECF7"/>
<path d="M1155.83 446.603L1158.48 444.259C1159.39 443.459 1159.61 443.473 1160.1 443.767C1160.46 443.997 1160.83 444.874 1160.86 445.25C1160.89 445.814 1160.67 446.241 1160.34 446.593C1160.78 446.666 1160.92 446.864 1161.18 447.244L1162.25 448.69L1160.57 450.121L1159.6 448.804C1159.06 448.072 1159.11 448.114 1158.75 448.414L1159.68 450.866L1158.01 452.297L1155.84 446.62L1155.83 446.603ZM1158.34 447.378C1159.11 446.703 1159.18 446.708 1158.95 446.101C1158.7 445.433 1158.51 445.633 1157.9 446.173L1158.37 447.385L1158.34 447.378Z" fill="#CDECF7"/>
<path d="M1160.29 442.659L1161.95 441.194L1164.2 447.01L1162.52 448.44L1160.28 442.669L1160.29 442.659Z" fill="#CDECF7"/>
<path d="M1162.44 440.769L1164.16 439.246L1167.19 441.689L1165.7 437.868L1166.55 437.125L1168.84 443.028L1166.95 444.634L1164.19 442.426L1165.52 445.852L1164.7 446.557L1162.45 440.741L1162.44 440.769Z" fill="#CDECF7"/>
<path d="M1166.98 436.757L1168.64 435.292L1169.53 437.558L1170.42 433.729L1171.53 432.764L1170.88 435.967L1173.5 439.136L1171.79 440.587L1170.22 438.757L1170.17 439.183L1170.99 441.282L1169.31 442.712L1167 436.792L1166.98 436.757Z" fill="#CDECF7"/>
<path d="M1172.64 431.916L1173.99 430.72L1175.05 433.398C1175.16 432.547 1175.5 432.005 1175.9 431.703C1176.09 431.592 1176.39 431.422 1176.75 431.562C1177.2 431.742 1177.36 432.226 1177.54 432.746L1177.74 433.282C1177.97 433.916 1178.2 434.567 1177.86 435.298C1177.68 435.704 1177.24 436.072 1176.87 436.148C1176.68 436.186 1176.34 436.197 1176.14 436.129L1176.35 436.655L1174.98 437.816L1172.65 431.888L1172.64 431.916ZM1175.38 434.251L1175.87 435.498C1175.95 435.726 1176.24 435.79 1176.4 435.655C1176.59 435.5 1176.61 435.256 1176.51 435.01L1176.01 433.745C1175.94 433.534 1175.87 433.34 1175.65 433.281C1175.49 433.237 1175.32 433.472 1175.29 433.581C1175.26 433.691 1175.2 433.866 1175.35 434.243L1175.38 434.251Z" fill="#510D77"/>
<path d="M1145.4 447.506L1144.07 448.691C1143.97 448.4 1143.9 448.279 1143.67 448.247C1143.49 448.213 1143.34 448.348 1143.2 448.518C1143.09 448.678 1142.98 448.9 1143.02 449.158C1143.04 449.355 1143.17 449.536 1143.27 449.593C1143.45 449.672 1143.75 449.546 1143.98 449.388L1144.14 449.298C1144.57 449.002 1145.18 448.696 1145.72 448.987C1146.12 449.197 1146.39 449.739 1146.44 450.356C1146.55 451.589 1145.92 452.418 1145.4 452.97C1145.18 453.218 1144.61 453.728 1144.3 453.908C1143.81 454.189 1143.33 454.191 1143.08 454.125C1142.7 454.022 1142.51 453.782 1142.2 453.27L1143.52 452.113C1143.66 452.445 1143.74 452.584 1143.97 452.616C1144.15 452.65 1144.37 452.547 1144.51 452.377C1144.67 452.215 1144.71 452.005 1144.69 451.809C1144.68 451.719 1144.62 451.498 1144.45 451.392C1144.26 451.268 1144.11 451.376 1143.71 451.562L1143.57 451.642C1143.01 451.918 1142.47 452.095 1141.88 451.716C1141.51 451.487 1141.25 450.945 1141.27 450.306C1141.28 449.029 1142.27 447.945 1142.74 447.512C1143.22 447.07 1144.05 446.499 1144.71 446.747C1144.94 446.841 1145.18 447.168 1145.38 447.516L1145.4 447.506Z" fill="white"/>
<path d="M1145.07 445.611L1147.53 443.423C1147.84 443.153 1148.64 442.485 1149.33 442.875C1149.81 443.152 1150.24 444.178 1150.28 444.805C1150.35 445.78 1149.57 446.393 1149.15 446.751L1148.12 447.648L1148.96 449.782L1147.29 451.23L1145.08 445.628L1145.07 445.611ZM1147.7 446.595C1148.3 446.065 1148.49 445.927 1148.27 445.383L1148.12 445.006C1147.85 444.33 1147.6 444.659 1147.1 445.085L1147.69 446.578L1147.7 446.595Z" fill="white"/>
<path d="M1150.07 441.15L1152.15 439.3L1155.4 444.21L1153.73 445.658L1153.02 444.586L1151.72 445.707L1151.94 447.204L1151.08 447.957L1150.09 441.157L1150.07 441.15ZM1151.12 441.725L1151.52 444.478L1152.42 443.706L1151.13 441.743L1151.12 441.725Z" fill="white"/>
<path d="M1153.27 438.307L1155.91 435.946C1156.81 435.146 1157.05 435.15 1157.54 435.444C1157.91 435.674 1158.3 436.558 1158.33 436.934C1158.37 437.516 1158.15 437.943 1157.84 438.285C1158.27 438.358 1158.42 438.573 1158.7 438.943L1159.81 440.414L1158.14 441.862L1157.15 440.537C1156.58 439.798 1156.63 439.84 1156.29 440.13L1157.28 442.615L1155.62 444.063L1153.31 438.304L1153.27 438.307ZM1155.82 439.08C1156.59 438.405 1156.66 438.409 1156.4 437.796C1156.12 437.12 1155.96 437.31 1155.32 437.86L1155.8 439.09L1155.82 439.08Z" fill="white"/>
<path d="M1157.72 434.319L1159.37 432.836L1160.27 435.074L1161.14 431.256L1162.24 430.273L1161.6 433.449L1164.24 436.535L1162.54 438.003L1160.95 436.211L1160.89 436.637L1161.72 438.709L1160.05 440.157L1157.7 434.311L1157.72 434.319Z" fill="white"/>
<path d="M1163.99 428.73L1165.98 433.609L1167.7 432.103L1168.15 433.164L1164.73 436.138L1162.32 430.205L1163.97 428.723L1163.99 428.73Z" fill="white"/>
<path d="M1164.97 427.845L1166.61 426.362L1168.28 428.042L1168.14 424.994L1169.05 424.167L1169.25 429.243L1170.15 431.409L1168.48 432.857L1167.44 430.286L1164.96 427.8L1164.97 427.845Z" fill="white"/>
<path fill-rule="evenodd" clip-rule="evenodd" d="M1176.13 433.864C1176.32 434.194 1176.22 434.623 1175.87 434.823C1175.52 435.024 1175.11 434.914 1174.91 434.566C1174.71 434.219 1174.82 433.807 1175.17 433.607C1175.52 433.406 1175.93 433.517 1176.13 433.864Z" stroke="#CDECF7" stroke-width="0.7" stroke-miterlimit="10"/>
<path fill-rule="evenodd" clip-rule="evenodd" d="M1176.16 430.554C1176.27 430.745 1176.21 430.992 1176.02 431.102C1175.83 431.213 1175.58 431.147 1175.47 430.955C1175.36 430.764 1175.42 430.518 1175.62 430.407C1175.81 430.297 1176.05 430.363 1176.16 430.554Z" stroke="#CDECF7" stroke-width="0.7" stroke-miterlimit="10"/>
<path fill-rule="evenodd" clip-rule="evenodd" d="M1177.15 436.679C1177.26 436.87 1177.2 437.117 1177.01 437.227C1176.81 437.338 1176.57 437.271 1176.46 437.08C1176.35 436.889 1176.41 436.643 1176.6 436.532C1176.8 436.422 1177.04 436.488 1177.15 436.679Z" stroke="#CDECF7" stroke-width="0.7" stroke-miterlimit="10"/>
<path fill-rule="evenodd" clip-rule="evenodd" d="M1174.03 430.305C1174.12 430.461 1174.07 430.653 1173.91 430.743C1173.75 430.833 1173.56 430.782 1173.47 430.626C1173.38 430.469 1173.43 430.277 1173.59 430.187C1173.75 430.097 1173.94 430.148 1174.03 430.305Z" stroke="#CDECF7" stroke-width="0.7" stroke-miterlimit="10"/>
<path fill-rule="evenodd" clip-rule="evenodd" d="M1180.51 434.276C1180.6 434.432 1180.55 434.624 1180.39 434.714C1180.24 434.805 1180.05 434.753 1179.96 434.597C1179.87 434.44 1179.92 434.249 1180.07 434.158C1180.23 434.068 1180.42 434.119 1180.51 434.276Z" stroke="#CDECF7" stroke-width="0.7" stroke-miterlimit="10"/>
<path fill-rule="evenodd" clip-rule="evenodd" d="M1174.44 427.682C1174.53 427.839 1174.48 428.031 1174.32 428.121C1174.16 428.211 1173.97 428.16 1173.88 428.003C1173.79 427.847 1173.84 427.655 1174 427.565C1174.15 427.475 1174.35 427.526 1174.44 427.682Z" stroke="#CDECF7" stroke-width="0.7" stroke-miterlimit="10"/>
<path fill-rule="evenodd" clip-rule="evenodd" d="M1172.19 426.522C1172.28 426.679 1172.23 426.871 1172.07 426.961C1171.92 427.051 1171.73 427 1171.64 426.843C1171.55 426.687 1171.6 426.495 1171.75 426.405C1171.91 426.315 1172.1 426.366 1172.19 426.522Z" stroke="#CDECF7" stroke-width="0.7" stroke-miterlimit="10"/>
<path fill-rule="evenodd" clip-rule="evenodd" d="M1178.99 433.09C1179.21 433.473 1179.07 433.949 1178.71 434.159C1178.34 434.37 1177.85 434.238 1177.64 433.873C1177.43 433.508 1177.56 433.014 1177.93 432.804C1178.29 432.593 1178.78 432.726 1178.99 433.09Z" stroke="#CDECF7" stroke-width="0.7" stroke-miterlimit="10"/>
<path fill-rule="evenodd" clip-rule="evenodd" d="M1179.63 436.405C1179.85 436.787 1179.72 437.28 1179.34 437.501C1178.96 437.722 1178.47 437.589 1178.24 437.207C1178.02 436.825 1178.16 436.332 1178.54 436.111C1178.92 435.89 1179.41 436.023 1179.63 436.405Z" stroke="#CDECF7" stroke-width="0.6" stroke-miterlimit="10"/>
<path fill-rule="evenodd" clip-rule="evenodd" d="M1142.08 443.678C1142.27 444.008 1142.17 444.436 1141.82 444.637C1141.47 444.837 1141.06 444.727 1140.86 444.38C1140.66 444.032 1140.77 443.621 1141.12 443.42C1141.46 443.22 1141.88 443.33 1142.08 443.678Z" stroke="#CDECF7" stroke-width="0.7" stroke-miterlimit="10"/>
<path fill-rule="evenodd" clip-rule="evenodd" d="M1146.43 456.037C1146.54 456.228 1146.48 456.475 1146.29 456.585C1146.1 456.695 1145.85 456.629 1145.74 456.438C1145.63 456.247 1145.69 456 1145.88 455.89C1146.08 455.78 1146.32 455.846 1146.43 456.037Z" stroke="#CDECF7" stroke-width="0.7" stroke-miterlimit="10"/>
<path fill-rule="evenodd" clip-rule="evenodd" d="M1139.89 441.301C1140 441.492 1139.94 441.738 1139.75 441.849C1139.56 441.959 1139.31 441.893 1139.2 441.702C1139.09 441.511 1139.15 441.264 1139.35 441.154C1139.54 441.043 1139.78 441.109 1139.89 441.301Z" stroke="#CDECF7" stroke-width="0.7" stroke-miterlimit="10"/>
<path fill-rule="evenodd" clip-rule="evenodd" d="M1140.87 446.41C1140.99 446.601 1140.92 446.848 1140.73 446.958C1140.54 447.069 1140.29 447.003 1140.18 446.811C1140.07 446.62 1140.14 446.374 1140.33 446.263C1140.52 446.153 1140.76 446.219 1140.87 446.41Z" stroke="#CDECF7" stroke-width="0.7" stroke-miterlimit="10"/>
<path fill-rule="evenodd" clip-rule="evenodd" d="M1150.19 459.704C1150.3 459.895 1150.24 460.142 1150.05 460.252C1149.86 460.362 1149.61 460.296 1149.5 460.105C1149.39 459.914 1149.46 459.667 1149.65 459.557C1149.84 459.447 1150.08 459.513 1150.19 459.704Z" stroke="#CDECF7" stroke-width="0.7" stroke-miterlimit="10"/>
<path fill-rule="evenodd" clip-rule="evenodd" d="M1149.56 455.994C1149.65 456.15 1149.6 456.342 1149.44 456.432C1149.28 456.522 1149.09 456.471 1149 456.315C1148.91 456.158 1148.96 455.966 1149.12 455.876C1149.28 455.786 1149.47 455.837 1149.56 455.994Z" stroke="#CDECF7" stroke-width="0.7" stroke-miterlimit="10"/>
<path fill-rule="evenodd" clip-rule="evenodd" d="M1147.93 453.781C1148.13 454.128 1148.02 454.567 1147.67 454.767C1147.32 454.968 1146.88 454.85 1146.68 454.503C1146.48 454.155 1146.6 453.717 1146.95 453.516C1147.29 453.316 1147.73 453.433 1147.93 453.781Z" stroke="#CDECF7" stroke-width="0.6" stroke-miterlimit="10"/>
<path fill-rule="evenodd" clip-rule="evenodd" d="M1152.08 457.712C1152.33 458.147 1152.19 458.712 1151.74 458.973C1151.29 459.234 1150.74 459.087 1150.48 458.635C1150.22 458.183 1150.37 457.635 1150.82 457.374C1151.27 457.114 1151.82 457.261 1152.08 457.712Z" stroke="#CDECF7" stroke-width="0.8" stroke-miterlimit="10"/>
<path fill-rule="evenodd" clip-rule="evenodd" d="M1148.56 458.121C1148.78 458.503 1148.65 458.996 1148.27 459.217C1147.89 459.437 1147.39 459.305 1147.17 458.923C1146.95 458.541 1147.08 458.047 1147.47 457.827C1147.85 457.606 1148.34 457.738 1148.56 458.121Z" stroke="#CDECF7" stroke-width="0.6" stroke-miterlimit="10"/>
<path fill-rule="evenodd" clip-rule="evenodd" d="M1138.92 443.786C1139.03 443.977 1138.96 444.224 1138.77 444.334C1138.58 444.444 1138.34 444.378 1138.23 444.187C1138.11 443.996 1138.18 443.749 1138.37 443.639C1138.56 443.528 1138.81 443.595 1138.92 443.786Z" stroke="#CDECF7" stroke-width="0.7" stroke-miterlimit="10"/>
</g>
<path d="M1117.24 230.062C1114.4 203.987 1090.95 185.155 1064.88 187.998C1038.81 190.842 1019.97 214.285 1022.82 240.359C1025.66 266.434 1049.1 285.266 1075.18 282.422C1101.25 279.579 1120.08 256.136 1117.24 230.062Z" stroke="#0626A9" stroke-width="2" stroke-linecap="round" stroke-linejoin="round"/>
<path d="M1067.2 209.306L1072.85 261.115" stroke="#0626A9" stroke-width="2" stroke-linecap="round" stroke-linejoin="round"/>
<path d="M1095.93 232.385L1044.12 238.036" stroke="#0626A9" stroke-width="2" stroke-linecap="round" stroke-linejoin="round"/>
<path d="M426.781 380.912C416.741 352.844 385.849 338.229 357.781 348.268C329.713 358.307 315.098 389.2 325.137 417.267C335.176 445.335 366.069 459.951 394.137 449.911C422.204 439.872 436.82 408.979 426.781 380.912Z" fill="white"/>
<path d="M426.781 380.912C416.741 352.844 385.849 338.229 357.781 348.268C329.713 358.307 315.098 389.2 325.137 417.267C335.176 445.335 366.069 459.951 394.137 449.911C422.204 439.872 436.82 408.979 426.781 380.912Z" stroke="#0626A9" stroke-width="2" stroke-linecap="round" stroke-linejoin="round"/>
<path d="M402.544 389.581L352.707 380.506L369.767 428.205L402.544 389.581Z" fill="#84AAE4"/>
<path d="M533.224 730.508L506.237 620.407L418.776 692.526L456.988 705.208L441.799 750.974L479.823 763.593L495.012 717.827L533.224 730.508Z" fill="white"/>
<path d="M533.224 730.508L506.237 620.407L418.776 692.526L456.988 705.208L441.799 750.974L479.823 763.593L495.012 717.827L533.224 730.508Z" stroke="#0626A9" stroke-width="2" stroke-linecap="round" stroke-linejoin="round"/>
<path d="M1099.22 523.481L702.343 742.398L552.378 470.526L949.251 251.61L1099.22 523.481Z" fill="white"/>
<path d="M1099.22 523.481L702.343 742.398L552.378 470.526L949.251 251.61L1099.22 523.481Z" stroke="#0626A9" stroke-width="2" stroke-linecap="round" stroke-linejoin="round"/>
<path d="M1055.92 525.882L816.903 657.725L685.06 418.707L924.078 286.865L1055.92 525.882Z" fill="white"/>
<path d="M1055.92 525.882L816.903 657.725L685.06 418.707L924.078 286.865L1055.92 525.882Z" stroke="#0626A9" stroke-width="2" stroke-linecap="round" stroke-linejoin="round"/>
<path d="M836.815 404.674C836.033 394.589 827.222 387.046 817.137 387.829C807.051 388.611 799.509 397.422 800.291 407.507C801.073 417.593 809.884 425.135 819.97 424.353C830.055 423.571 837.597 414.76 836.815 404.674Z" fill="#8869D5"/>
<path d="M767.541 568.236L798.815 469.534L867.973 479.928L892.417 367.75L975.88 380.778L1055.92 525.881L816.902 657.724L767.541 568.236Z" fill="#84AAE4"/>
<path d="M767.541 568.236L798.815 469.534L867.973 479.928L892.417 367.75L975.88 380.778L1055.92 525.881L816.902 657.724L767.541 568.236Z" stroke="#0626A9" stroke-width="2" stroke-linecap="round" stroke-linejoin="round"/>
<path d="M1055.65 749.59C1079.52 697.546 1056.68 636.007 1004.63 612.138C952.588 588.269 891.049 611.109 867.18 663.154C843.311 715.198 866.151 776.737 918.196 800.606C970.24 824.475 1031.78 801.635 1055.65 749.59Z" fill="white"/>
<path d="M1055.65 749.59C1079.52 697.546 1056.68 636.007 1004.63 612.138C952.588 588.269 891.049 611.109 867.18 663.154C843.311 715.198 866.151 776.737 918.196 800.606C970.24 824.475 1031.78 801.635 1055.65 749.59Z" stroke="#0626A9" stroke-width="2" stroke-linecap="round" stroke-linejoin="round"/>
<g clip-path="url(#clip2_20_4957)">
<path d="M1038.42 692.758L918.243 641.45L885.344 718.508L1005.52 769.816L1038.42 692.758Z" fill="#510D77" stroke="#510D77" stroke-width="2.4"/>
<mask id="mask3_20_4957" style="mask-type:luminance" maskUnits="userSpaceOnUse" x="884" y="677" width="140" height="94">
<path d="M1023.1 729.373L902.296 677.799L884.835 718.698L1005.64 770.272L1023.1 729.373Z" fill="white"/>
</mask>
<g mask="url(#mask3_20_4957)">
<path d="M888.241 674.816C888.241 674.816 892.823 690.231 918.459 700.769L919.567 701.242C941.653 710.672 967.01 714.169 982.94 719.509C986.636 720.776 990.312 722.201 993.936 723.916C1017.65 735.117 1029.38 750.735 1029.38 750.735L1017.44 778.69L870.65 716.018L888.25 674.795L888.241 674.816Z" fill="#FFD5A6"/>
<path d="M994.683 720.882C970.966 710.757 947.484 712.011 921.033 699.257C910.348 694.121 903.361 687.905 898.71 682.686C892.832 676.105 890.764 670.911 890.403 669.751L888.976 673.094C888.976 673.094 890.289 678.995 897.05 685.905C901.538 690.503 908.534 695.526 918.782 699.734L919.789 700.163C941.714 709.524 965.647 713.347 982.803 718.325C986.677 719.62 990.514 721.114 994.319 722.906C1018.01 734.098 1029.82 749.751 1029.82 749.751L1030.28 748.678L1031.87 744.95C1031.87 744.95 1018.81 731.16 994.692 720.862" fill="#FFD5A6"/>
</g>
<path d="M1008.43 743.492L981.249 731.887L973.811 749.309L1000.99 760.913L1008.43 743.492Z" fill="white"/>
<path d="M962.778 667.266L948.705 661.257L946.595 666.2L960.668 672.208L962.778 667.266Z" fill="#FFD5A6"/>
<path d="M949.707 692.532L954.91 693.891C958.37 685.453 954.534 675.816 946.239 672.275C937.944 668.733 943.964 671.471 942.833 671.276L947.356 660.681L942.464 658.593L934.231 677.877C937.187 676.194 940.818 675.828 944.14 677.246C949.798 679.662 952.399 686.281 949.943 692.034L949.735 692.52L949.707 692.532Z" fill="#FFD5A6"/>
<path d="M908.417 715.593C907.209 715.078 905.827 715.637 905.317 716.833C904.807 718.028 905.103 717.556 905.135 717.928L905.117 717.969L906.064 718.373L906.003 718.179C905.914 717.83 905.943 717.483 906.082 717.159C906.419 716.369 907.34 715.996 908.105 716.323C908.87 716.649 909.238 717.573 908.901 718.363C908.563 719.153 908.523 718.968 908.218 719.125L908.037 719.215L908.963 719.611L908.98 719.57C909.291 719.344 909.519 719.034 909.666 718.689C910.176 717.494 909.604 716.101 908.417 715.593Z" fill="#510D77"/>
<path d="M908.563 715.249C909.389 715.602 910.324 715.474 910.998 714.899L911.11 714.804L910.224 714.425L910.207 714.466C909.778 714.69 909.289 714.721 908.846 714.532C908.403 714.342 908.107 713.977 907.972 713.512L907.99 713.471L907.083 713.084L907.092 713.232C907.163 714.124 907.718 714.888 908.523 715.232L908.563 715.249Z" fill="#510D77"/>
<path d="M903.448 711.508L900.71 710.339L898.626 715.221L899.33 715.522L900.23 713.415L901.679 714.034L901.982 713.325L900.532 712.706L901.112 711.349L903.145 712.217L903.448 711.508Z" fill="#510D77"/>
<path d="M903.093 716.242L904.858 712.11L904.133 711.801L902.057 716.662L904.352 717.642L904.664 716.913L903.093 716.242Z" fill="#510D77"/>
<path d="M913.685 718.753L913.841 717.383L912.067 719.475L912.468 715.359L911.683 715.024L911.157 720.548L911.922 720.874L913.665 718.744L913.685 718.753ZM912.059 719.496L911.978 719.461C911.97 719.481 912.059 719.496 912.059 719.496Z" fill="#510D77"/>
<path d="M917.361 717.448L914.665 720.584L914.953 717.234L914.268 716.942L913.755 721.656L914.54 721.992L918.146 717.783L917.361 717.448Z" fill="#510D77"/>
<path d="M897.366 711.091L897.306 711.065L897.919 709.962L899.047 710.444L899.341 709.755L897.589 709.007L896.255 711.407L896.94 711.699C897.886 712.103 897.701 712.815 897.606 713.038C897.398 713.524 896.86 713.725 896.357 713.51C895.854 713.295 895.713 713.068 895.509 712.597L895.44 712.424L895.051 713.336L895.091 713.353C895.223 713.601 895.531 713.996 896.074 714.228C897.021 714.632 897.933 714.279 898.331 713.347C898.729 712.415 898.353 711.512 897.366 711.091Z" fill="#510D77"/>
<path d="M900.368 710.193L899.683 709.901L899.389 710.59L900.074 710.882L900.368 710.193Z" fill="#510D77"/>
<path d="M1011.8 695.117L982.145 682.455" stroke="#FFD5A6" stroke-width="2" stroke-linecap="round" stroke-linejoin="round"/>
<path d="M1022.18 705.773L979.896 687.722" stroke="#FFD5A6" stroke-width="2" stroke-linecap="round" stroke-linejoin="round"/>
<path d="M1020.13 710.574L977.846 692.523" stroke="#FFD5A6" stroke-width="2" stroke-linecap="round" stroke-linejoin="round"/>
<path d="M1017.78 716.063L975.502 698.012" stroke="#FFD5A6" stroke-width="2" stroke-linecap="round" stroke-linejoin="round"/>
<path d="M991.279 711.238L973.159 703.502" stroke="#FFD5A6" stroke-width="2" stroke-linecap="round" stroke-linejoin="round"/>
<path d="M1020.73 692.438L984.488 676.965" stroke="#FFD5A6" stroke-width="2" stroke-linecap="round" stroke-linejoin="round"/>
<path d="M974.311 729.404L956.191 721.668Z" fill="#510D77"/>
<path d="M974.311 729.404L956.191 721.668" stroke="#510D77" stroke-linecap="round" stroke-linejoin="round"/>
<path d="M972.841 732.848L954.721 725.112Z" fill="#510D77"/>
<path d="M972.841 732.848L954.721 725.112" stroke="#510D77" stroke-linecap="round" stroke-linejoin="round"/>
<path d="M971.379 736.272L953.259 728.535Z" fill="#510D77"/>
<path d="M971.379 736.272L953.259 728.535" stroke="#510D77" stroke-linecap="round" stroke-linejoin="round"/>
<path d="M958.652 740.992L949.592 737.124Z" fill="#510D77"/>
<path d="M958.652 740.992L949.592 737.124" stroke="#510D77" stroke-linecap="round" stroke-linejoin="round"/>
<path d="M997.535 741.523L993.643 750.639" stroke="black" stroke-width="2" stroke-linecap="round" stroke-linejoin="round"/>
<path d="M985.354 736.322L981.462 745.438" stroke="black" stroke-width="3" stroke-linecap="round" stroke-linejoin="round"/>
<path d="M986.703 736.898L982.811 746.014" stroke="black" stroke-width="3" stroke-linecap="round" stroke-linejoin="round"/>
<path d="M988.253 737.56L984.361 746.676" stroke="black" stroke-width="3" stroke-linecap="round" stroke-linejoin="round"/>
<path d="M989.602 738.136L985.71 747.252" stroke="black" stroke-width="3" stroke-linecap="round" stroke-linejoin="round"/>
<path d="M991.052 738.755L987.16 747.871" stroke="black" stroke-width="3" stroke-linecap="round" stroke-linejoin="round"/>
<path d="M996.166 740.938L992.274 750.054" stroke="black" stroke-width="3" stroke-linecap="round" stroke-linejoin="round"/>
<path d="M999.065 742.176L995.173 751.292" stroke="black" stroke-width="3" stroke-linecap="round" stroke-linejoin="round"/>
<path d="M1000.43 742.761L996.542 751.876" stroke="black" stroke-width="3" stroke-linecap="round" stroke-linejoin="round"/>
<path d="M1001.88 743.38L997.991 752.495" stroke="black" stroke-width="3" stroke-linecap="round" stroke-linejoin="round"/>
<path d="M983.896 735.724L978.706 747.878" stroke="black" stroke-width="3" stroke-linecap="round" stroke-linejoin="round"/>
<path d="M982.184 734.993L976.995 747.147" stroke="black" stroke-width="3" stroke-linecap="round" stroke-linejoin="round"/>
<path d="M994.647 740.314L989.458 752.468" stroke="black" stroke-width="3" stroke-linecap="round" stroke-linejoin="round"/>
<path d="M992.936 739.583L987.746 751.738" stroke="black" stroke-width="3" stroke-linecap="round" stroke-linejoin="round"/>
<path d="M1005.48 744.938L1000.29 757.093" stroke="black" stroke-width="3" stroke-linecap="round" stroke-linejoin="round"/>
<path d="M1003.77 744.208L998.578 756.362" stroke="black" stroke-width="3" stroke-linecap="round" stroke-linejoin="round"/>
<path d="M899.212 705.652L899.896 705.944C899.977 705.979 900.198 706.073 900.21 706.27C900.227 706.397 900.071 706.594 899.988 706.678C899.818 706.797 899.617 706.711 899.516 706.668L899.234 706.548L898.963 706.959L898.5 706.761L899.22 705.632L899.212 705.652ZM899.349 706.334C899.51 706.402 899.571 706.428 899.634 706.336L899.669 706.254C899.77 706.13 899.68 706.116 899.539 706.056L899.341 706.354L899.349 706.334Z" fill="#510D77"/>
<path d="M900.142 707.487C900.042 707.444 899.947 707.331 899.918 707.175C899.895 707.118 899.918 707.008 899.964 706.955L900.189 706.596C900.443 706.226 900.67 706.251 900.992 706.388L901.093 706.431C901.193 706.474 901.375 706.552 901.426 706.765C901.464 706.901 901.4 706.994 901.328 707.107L901.121 707.425C901.003 707.59 900.862 707.698 900.606 707.684C900.516 707.67 900.163 707.495 900.122 707.478M900.698 706.742L900.445 707.113L900.367 707.295C900.358 707.315 900.43 707.37 900.488 707.347C900.557 707.352 900.574 707.312 900.666 707.207L900.92 706.836L900.998 706.654C901.006 706.634 900.906 706.591 900.877 706.603C900.808 706.597 900.77 706.629 900.698 706.742Z" fill="#510D77"/>
<path d="M902.07 706.873L901.797 707.57L902.393 707.01L902.815 707.191L902.542 707.888L903.138 707.328L903.379 707.432L902.345 708.403L901.882 708.206L902.104 707.63L901.621 708.094L901.137 707.888L901.607 706.675L902.07 706.873Z" fill="#510D77"/>
<path d="M903.42 707.449L904.406 707.87L904.279 708.055L903.756 707.832L903.603 708.078L903.966 708.233L903.83 708.438L903.468 708.284L903.286 708.541L903.81 708.765L903.674 708.971L902.708 708.558L903.42 707.449Z" fill="#510D77"/>
<path d="M904.507 707.913L905.232 708.222C905.473 708.326 905.496 708.383 905.513 708.51C905.519 708.609 905.392 708.794 905.366 708.855C905.263 708.93 905.173 708.916 905.064 708.893C905.099 708.98 905.093 709.049 905.05 709.151L904.934 709.532L904.471 709.335L904.578 708.973C904.635 708.782 904.656 708.791 904.535 708.739L904.209 709.223L903.746 709.025L904.466 707.896L904.507 707.913ZM904.69 708.542C904.831 708.602 904.929 708.596 904.984 708.524C905.065 708.391 905.024 708.373 904.843 708.296L904.69 708.542Z" fill="#510D77"/>
<path d="M905.755 708.446L906.742 708.867L906.615 709.052L906.091 708.829L905.939 709.075L906.301 709.23L906.166 709.435L905.803 709.281L905.642 709.547L906.145 709.762L906.03 709.976L905.043 709.555L905.755 708.446Z" fill="#510D77"/>
<path d="M906.843 708.91L907.547 709.211C907.648 709.254 907.809 709.323 907.846 709.458C907.884 709.594 907.82 709.687 907.757 709.779L907.495 710.17C907.296 710.469 907.169 710.486 906.827 710.34L906.102 710.031L906.822 708.901L906.843 708.91ZM906.721 710.032L906.741 710.04C906.862 710.092 906.968 710.065 907.032 709.973L907.294 709.582C907.42 709.396 907.392 709.408 907.19 709.322L906.712 710.052L906.721 710.032Z" fill="#510D77"/>
<path d="M909.238 709.933C909.339 709.976 909.46 710.027 909.488 710.183C909.514 710.29 909.451 710.383 909.376 710.447C909.264 710.542 909.126 710.531 909.016 710.509C909.088 710.563 909.111 710.621 909.117 710.719C909.123 710.817 909.013 710.962 908.938 711.026C908.768 711.145 908.567 711.059 908.446 711.008L907.701 710.69L908.422 709.56L909.247 709.913L909.238 709.933ZM908.352 710.728C908.452 710.771 908.533 710.805 908.579 710.753C908.579 710.753 908.706 710.568 908.694 710.539C908.691 710.49 908.651 710.472 908.53 710.421L908.331 710.719L908.352 710.728ZM908.666 710.215C908.807 710.275 908.847 710.293 908.913 710.249C908.913 710.249 909.005 710.145 908.974 710.107C908.971 710.058 908.91 710.032 908.81 709.989L908.657 710.235L908.666 710.215Z" fill="#510D77"/>
<path d="M909.641 710.105L910.084 710.294L910.006 710.811L910.507 710.474L910.769 710.586L909.916 711.132L909.674 711.532L909.211 711.334L909.508 710.862L909.641 710.105Z" fill="#510D77"/>
<path d="M945.155 689.702L962.407 693.116L958.486 702.746L941.835 699.038L945.155 689.702Z" fill="#510D77"/>
<path d="M918.832 673.243C919.663 671.299 921.879 670.401 923.812 671.226C925.745 672.051 926.629 674.273 925.799 676.217C924.968 678.162 922.752 679.06 920.819 678.235C918.887 677.41 918.002 675.188 918.832 673.243Z" fill="#FFD5A6"/>
<path d="M924.461 672.94C924.135 673.424 922.612 674.426 922.612 674.426C922.517 674.481 922.417 674.606 922.474 674.247C922.541 673.868 922.743 672.614 922.868 672.044C922.992 671.474 923.906 672.009 923.906 672.009C923.906 672.009 924.798 672.485 924.481 672.948L924.461 672.94ZM925.231 673.867C925.231 673.867 925.532 674.834 924.989 674.937C924.416 675.052 922.638 674.7 922.638 674.7C922.537 674.657 922.353 674.698 922.664 674.472C922.966 674.266 923.991 673.482 924.464 673.157C924.936 672.831 925.24 673.847 925.24 673.847L925.231 673.867ZM925.16 676.208C925.16 676.208 924.722 677.123 924.233 676.818C923.753 676.493 922.724 675 922.724 675C922.67 674.905 922.526 674.796 922.903 674.861C923.259 674.918 924.545 675.083 925.101 675.177C925.656 675.27 925.16 676.208 925.16 676.208ZM922.095 674.301C921.891 673.998 921.123 672.952 920.83 672.467C920.517 671.975 921.533 671.714 921.533 671.714C921.533 671.714 922.497 671.407 922.609 671.981C922.7 672.547 922.333 674.355 922.333 674.355C922.29 674.456 922.31 674.632 922.106 674.329L922.095 674.301ZM923.991 676.883C924.313 677.355 923.32 677.674 923.32 677.674C923.32 677.674 922.359 678.03 922.247 677.455C922.127 676.901 922.425 675.088 922.425 675.088C922.468 674.987 922.428 674.802 922.652 675.113C922.876 675.425 923.67 676.41 924.012 676.891L923.991 676.883ZM922.055 677.349C921.959 677.907 921.03 677.463 921.03 677.463C921.03 677.463 920.113 677.047 920.418 676.555C920.724 676.062 922.192 674.965 922.192 674.965C922.287 674.91 922.396 674.765 922.33 675.143C922.272 675.502 922.15 676.791 922.075 677.358L922.055 677.349ZM919.363 675.793C919.363 675.793 919.004 674.849 919.545 674.697C920.106 674.553 921.907 674.795 921.907 674.795C922.008 674.838 922.172 674.789 921.881 675.024C921.59 675.259 920.617 676.089 920.156 676.443C919.696 676.797 919.363 675.793 919.363 675.793ZM919.785 673.243C919.785 673.243 920.284 672.354 920.735 672.69C921.207 673.035 922.169 674.572 922.169 674.572C922.224 674.667 922.347 674.768 921.991 674.711C921.622 674.626 920.374 674.428 919.816 674.286C919.258 674.143 919.805 673.251 919.805 673.251L919.785 673.243ZM924.479 671.894C922.918 670.7 920.708 671.026 919.521 672.579C918.326 674.152 918.64 676.37 920.181 677.555C921.743 678.749 923.953 678.423 925.139 676.87C926.335 675.297 926.02 673.079 924.479 671.894Z" fill="white"/>
<path fill-rule="evenodd" clip-rule="evenodd" d="M916.026 692.139C915.862 692.523 915.43 692.698 915.048 692.535C914.665 692.372 914.493 691.939 914.657 691.554C914.821 691.169 915.253 690.994 915.636 691.158C916.018 691.321 916.191 691.754 916.026 692.139Z" fill="#FFD5A6"/>
<path fill-rule="evenodd" clip-rule="evenodd" d="M924.683 668.46C924.588 668.683 924.329 668.788 924.108 668.694C923.886 668.599 923.783 668.339 923.878 668.117C923.973 667.894 924.232 667.789 924.453 667.883C924.675 667.978 924.778 668.238 924.683 668.46Z" fill="#FFD5A6"/>
<path fill-rule="evenodd" clip-rule="evenodd" d="M919.002 687.733C918.906 687.956 918.656 688.041 918.455 687.955C918.253 687.869 918.15 687.609 918.237 687.406C918.323 687.204 918.582 687.099 918.783 687.185C918.985 687.271 919.088 687.53 919.002 687.733Z" fill="#FFD5A6"/>
<path fill-rule="evenodd" clip-rule="evenodd" d="M927.436 671.768C927.298 672.092 926.924 672.243 926.602 672.106C926.28 671.968 926.13 671.593 926.269 671.269C926.407 670.945 926.781 670.793 927.103 670.931C927.426 671.068 927.575 671.443 927.436 671.768Z" fill="#FFD5A6"/>
<path fill-rule="evenodd" clip-rule="evenodd" d="M920.181 691.494C920 691.919 919.511 692.117 919.088 691.937C918.665 691.756 918.47 691.266 918.651 690.84C918.833 690.415 919.322 690.217 919.745 690.397C920.168 690.578 920.363 691.068 920.181 691.494Z" fill="#FFD5A6"/>
<path fill-rule="evenodd" clip-rule="evenodd" d="M923.113 687.86C922.966 688.204 922.564 688.368 922.221 688.221C921.879 688.075 921.718 687.671 921.865 687.327C922.012 686.983 922.415 686.819 922.757 686.965C923.1 687.112 923.261 687.516 923.113 687.86Z" fill="#FFD5A6"/>
<path fill-rule="evenodd" clip-rule="evenodd" d="M928.456 667.82C928.361 668.043 928.11 668.127 927.909 668.041C927.708 667.955 927.604 667.696 927.691 667.493C927.777 667.291 928.036 667.186 928.238 667.272C928.439 667.358 928.542 667.617 928.456 667.82Z" fill="#FFD5A6"/>
<path d="M922.662 694.493L923.229 694.615L922.891 695.405C923.11 695.283 923.286 695.262 923.455 695.31C923.536 695.345 923.636 695.388 923.682 695.503C923.74 695.647 923.679 695.789 923.619 695.931L923.55 696.093C923.472 696.275 923.394 696.458 923.141 696.493C923.005 696.531 922.836 696.483 922.732 696.391C922.672 696.365 922.597 696.261 922.554 696.195L922.485 696.357L921.918 696.235L922.662 694.493ZM922.779 695.668L922.623 696.033C922.597 696.094 922.652 696.189 922.712 696.215C922.793 696.249 922.839 696.197 922.873 696.116L923.029 695.751C923.055 695.69 923.081 695.63 923.038 695.563C923.006 695.526 922.917 695.512 922.888 695.523C922.86 695.535 922.802 695.558 922.759 695.66L922.779 695.668Z" fill="white"/>
<path d="M924.025 695.482L924.591 695.604L924.289 696.313C924.263 696.374 924.228 696.455 924.329 696.498C924.429 696.541 924.493 696.448 924.519 696.387L924.83 695.658L925.397 695.78L924.913 696.915L924.346 696.792L924.432 696.59C924.311 696.706 924.167 696.764 923.839 696.696C923.759 696.662 923.678 696.627 923.644 696.541C923.61 696.454 923.67 696.312 923.739 696.15L924.033 695.461L924.025 695.482Z" fill="white"/>
<path d="M926.608 696.513L926.26 696.436C926.286 696.375 926.311 696.314 926.288 696.257C926.257 696.219 926.225 696.182 926.176 696.185C926.136 696.168 926.099 696.199 926.07 696.211C926.07 696.211 926.044 696.272 926.035 696.292C926.058 696.35 926.09 696.387 926.182 696.451L926.222 696.468C926.395 696.565 926.507 696.637 926.515 696.785C926.521 696.883 926.478 696.984 926.394 697.068C926.207 697.228 925.842 697.191 925.712 697.16C925.612 697.117 925.304 697.058 925.223 696.856C925.189 696.769 925.203 696.679 925.255 696.558L925.624 696.643C925.606 696.684 925.563 696.785 925.606 696.851C925.638 696.889 925.698 696.915 925.747 696.912C925.787 696.929 925.854 696.885 925.871 696.845C925.888 696.804 925.905 696.764 925.854 696.718C925.799 696.622 925.529 696.531 925.463 696.407C925.408 696.312 925.411 696.193 925.466 696.121C925.535 695.959 925.65 695.912 925.817 695.912C925.964 695.902 926.47 695.999 926.588 696.169C926.663 696.273 926.66 696.391 926.608 696.513Z" fill="white"/>
<path d="M926.99 696.173L927.557 696.295L927.073 697.43L926.506 697.308L926.99 696.173ZM927.394 695.675C927.471 695.66 927.601 695.691 927.676 695.795C927.739 695.87 927.742 695.919 927.716 695.98C927.69 696.041 927.664 696.101 927.549 696.148C927.434 696.195 927.304 696.163 927.241 696.088C927.18 696.063 927.146 695.976 927.152 695.907C927.178 695.846 927.204 695.785 927.279 695.721C927.316 695.689 927.365 695.686 927.414 695.683L927.394 695.675Z" fill="white"/>
<path d="M928.715 697.82L928.149 697.698L928.451 696.989C928.477 696.928 928.512 696.847 928.411 696.804C928.331 696.769 928.239 696.874 928.221 696.914L927.91 697.643L927.343 697.521L927.828 696.387L928.394 696.509L928.308 696.712C928.498 696.601 928.702 696.569 928.901 696.606C928.981 696.64 929.062 696.674 929.096 696.761C929.131 696.847 929.07 696.989 929.001 697.151L928.707 697.84L928.715 697.82Z" fill="white"/>
<path d="M930.505 697.698L929.729 697.51C929.668 697.652 929.633 697.733 929.636 697.782C929.648 697.811 929.691 697.877 929.789 697.871C929.858 697.876 929.924 697.833 929.95 697.772C929.959 697.752 929.967 697.731 929.993 697.671L930.471 697.779C930.427 697.88 930.321 698.074 930.117 698.107C929.99 698.124 929.823 698.125 929.633 698.068C929.374 698.005 929.222 697.916 929.15 697.862C929.024 697.712 929.044 697.553 929.058 697.463C929.084 697.402 929.13 697.183 929.24 697.038C929.303 696.945 929.398 696.89 929.485 696.855C929.542 696.831 929.649 696.805 929.738 696.819C929.807 696.825 929.916 696.847 930.025 696.87C930.195 696.919 930.345 696.959 930.408 697.034C930.532 697.134 930.606 697.238 930.606 697.406C930.6 697.475 930.523 697.657 930.468 697.73L930.505 697.698ZM930.12 697.15C930.089 697.113 930.028 697.087 929.999 697.099C929.902 697.105 929.876 697.165 929.815 697.307L930.074 697.37C930.126 697.248 930.143 697.208 930.12 697.15Z" fill="white"/>
<path d="M931.981 697.753L931.633 697.676C931.659 697.616 931.685 697.555 931.662 697.497C931.63 697.46 931.599 697.422 931.55 697.425C931.51 697.408 931.472 697.44 931.443 697.452C931.443 697.452 931.417 697.512 931.409 697.533C931.432 697.59 931.463 697.628 931.555 697.691L931.596 697.708C931.768 697.806 931.88 697.878 931.889 698.025C931.895 698.123 931.851 698.225 931.768 698.309C931.581 698.468 931.215 698.432 931.086 698.401C930.985 698.358 930.677 698.298 930.597 698.096C930.562 698.01 930.577 697.92 930.629 697.798L930.997 697.884C930.98 697.924 930.937 698.026 930.98 698.092C931.011 698.129 931.072 698.155 931.121 698.152C931.161 698.169 931.227 698.126 931.244 698.085C931.262 698.045 931.279 698.004 931.227 697.958C931.173 697.863 930.902 697.771 930.836 697.647C930.782 697.552 930.785 697.434 930.819 697.353C930.888 697.191 931.003 697.144 931.17 697.143C931.317 697.134 931.823 697.231 931.941 697.401C932.016 697.504 932.013 697.623 931.961 697.744L931.981 697.753Z" fill="white"/>
<path d="M933.345 698.072L932.997 697.995C933.023 697.934 933.049 697.873 933.026 697.816C932.994 697.778 932.963 697.741 932.914 697.744C932.873 697.727 932.836 697.759 932.807 697.77C932.807 697.77 932.781 697.831 932.773 697.851C932.796 697.909 932.827 697.947 932.919 698.01L932.959 698.027C933.132 698.125 933.244 698.196 933.253 698.344C933.258 698.442 933.215 698.543 933.132 698.627C932.944 698.787 932.579 698.751 932.45 698.719C932.349 698.676 932.041 698.617 931.961 698.415C931.926 698.328 931.941 698.239 931.993 698.117L932.361 698.202C932.344 698.243 932.3 698.344 932.343 698.411C932.375 698.448 932.435 698.474 932.484 698.471C932.525 698.488 932.591 698.444 932.608 698.404C932.625 698.363 932.643 698.323 932.591 698.277C932.536 698.182 932.266 698.09 932.2 697.966C932.145 697.871 932.148 697.752 932.183 697.671C932.252 697.509 932.367 697.463 932.534 697.462C932.681 697.453 933.187 697.549 933.305 697.719C933.38 697.823 933.377 697.942 933.325 698.063L933.345 698.072Z" fill="white"/>
<path d="M934.814 698.699L934.038 698.511C933.977 698.653 933.943 698.734 933.945 698.783C933.957 698.812 934 698.879 934.098 698.872C934.167 698.878 934.233 698.834 934.259 698.774C934.268 698.753 934.276 698.733 934.302 698.672L934.78 698.78C934.737 698.882 934.63 699.076 934.426 699.108C934.299 699.126 934.132 699.127 933.942 699.069C933.683 699.007 933.531 698.918 933.459 698.863C933.333 698.713 933.353 698.554 933.367 698.465C933.393 698.404 933.439 698.184 933.549 698.039C933.612 697.947 933.707 697.891 933.794 697.856C933.851 697.833 933.958 697.807 934.047 697.821C934.116 697.826 934.225 697.849 934.335 697.872C934.504 697.92 934.654 697.96 934.717 698.035C934.841 698.136 934.915 698.24 934.915 698.407C934.91 698.476 934.832 698.659 934.777 698.731L934.814 698.699ZM934.429 698.152C934.398 698.114 934.337 698.088 934.308 698.1C934.211 698.106 934.185 698.167 934.124 698.309L934.383 698.371C934.435 698.25 934.452 698.209 934.429 698.152Z" fill="white"/>
<path d="M936.29 698.755L935.942 698.678C935.968 698.617 935.994 698.556 935.971 698.499C935.939 698.461 935.908 698.424 935.859 698.427C935.819 698.41 935.781 698.442 935.752 698.453C935.752 698.453 935.727 698.514 935.718 698.534C935.741 698.592 935.772 698.629 935.864 698.693L935.905 698.71C936.077 698.807 936.189 698.879 936.198 699.027C936.204 699.125 936.16 699.226 936.077 699.31C935.89 699.47 935.524 699.434 935.395 699.402C935.294 699.359 934.986 699.3 934.906 699.098C934.872 699.011 934.886 698.922 934.938 698.8L935.306 698.885C935.289 698.926 935.246 699.027 935.289 699.093C935.32 699.131 935.381 699.157 935.43 699.154C935.47 699.171 935.536 699.127 935.553 699.087C935.571 699.046 935.588 699.006 935.536 698.96C935.482 698.864 935.211 698.773 935.145 698.649C935.091 698.554 935.094 698.435 935.128 698.354C935.197 698.192 935.313 698.146 935.479 698.145C935.626 698.136 936.132 698.232 936.25 698.402C936.325 698.506 936.322 698.625 936.27 698.746L936.29 698.755Z" fill="white"/>
<path d="M937.58 698.634L937.461 699.302L937.968 698.728L938.426 698.828L938.316 699.476L938.863 698.919L939.191 698.987L938.209 700.005L937.691 699.879L937.778 699.342L937.372 699.791L936.805 699.669L937.01 698.463L937.597 698.594L937.58 698.634Z" fill="white"/>
<path d="M939.331 699.047L939.898 699.169L939.414 700.304L938.847 700.181L939.331 699.047ZM939.735 698.549C939.812 698.534 939.942 698.565 940.016 698.669C940.08 698.744 940.082 698.793 940.057 698.854C940.031 698.915 940.005 698.975 939.89 699.022C939.774 699.069 939.645 699.037 939.582 698.962C939.521 698.937 939.487 698.85 939.493 698.781C939.519 698.72 939.545 698.659 939.619 698.595C939.657 698.563 939.706 698.56 939.755 698.557L939.735 698.549Z" fill="white"/>
<path d="M940.589 698.889L940.888 698.969L940.715 699.374L940.905 699.432L940.81 699.654L940.631 699.626L940.424 700.112C940.346 700.295 940.415 700.3 940.544 700.331L940.441 700.575L940.162 700.503C940.121 700.486 939.874 700.452 939.816 700.308C939.771 700.193 939.831 700.051 939.883 699.929L940.073 699.484L939.924 699.444L940.036 699.18C940.226 699.237 940.399 699.168 940.525 698.982L940.569 698.881L940.589 698.889Z" fill="white"/>
<path d="M941.302 698.835L941.869 698.957L941.532 699.747C941.673 699.64 942.082 699.575 942.257 699.721C942.412 699.859 942.352 700.001 942.265 700.204L941.963 700.913L941.396 700.791L941.69 700.102C941.724 700.021 941.742 699.98 941.699 699.914C941.678 699.905 941.618 699.88 941.598 699.871C941.529 699.866 941.483 699.918 941.431 700.039L941.137 700.728L940.57 700.606L941.314 698.864L941.302 698.835Z" fill="white"/>
<path d="M943.163 699.941L943.73 700.063L943.263 701.157C943.09 701.562 943.09 701.562 942.682 701.459L942.354 701.391L942.457 701.148C942.627 701.196 942.644 701.156 942.731 700.953L943.163 699.941ZM943.567 699.442C943.644 699.427 943.774 699.459 943.848 699.562C943.891 699.629 943.914 699.686 943.88 699.767C943.854 699.828 943.828 699.889 943.713 699.936C943.598 699.982 943.468 699.951 943.405 699.876C943.345 699.85 943.31 699.764 943.316 699.694C943.342 699.634 943.368 699.573 943.443 699.509C943.48 699.477 943.529 699.474 943.578 699.471L943.567 699.442Z" fill="white"/>
<path d="M943.989 700.125L944.556 700.248L944.253 700.957C944.227 701.017 944.192 701.098 944.293 701.141C944.394 701.184 944.457 701.092 944.483 701.031L944.794 700.302L945.361 700.424L944.877 701.558L944.31 701.436L944.397 701.233C944.276 701.349 944.132 701.408 943.804 701.34C943.723 701.305 943.643 701.271 943.608 701.184C943.574 701.098 943.634 700.956 943.704 700.794L943.998 700.105L943.989 700.125Z" fill="white"/>
<path d="M945.571 700.49L946.138 700.612L945.653 701.746L945.087 701.624L945.571 700.49ZM945.994 700C946.072 699.985 946.202 700.016 946.276 700.12C946.34 700.195 946.342 700.244 946.316 700.305C946.29 700.366 946.265 700.426 946.149 700.473C946.034 700.52 945.905 700.488 945.842 700.413C945.781 700.388 945.747 700.301 945.753 700.232C945.778 700.171 945.804 700.11 945.879 700.046C945.917 700.014 945.966 700.011 946.015 700.008L945.994 700Z" fill="white"/>
<path d="M947.512 701.462L947.075 701.371C947.136 701.229 947.17 701.148 947.119 701.102C947.087 701.065 947.047 701.048 946.998 701.051C946.92 701.065 946.874 701.118 946.839 701.199L946.64 701.665C946.597 701.766 946.689 701.829 946.709 701.838C946.81 701.881 946.876 701.837 946.92 701.736L946.963 701.635L947.4 701.725C947.331 701.887 947.23 702.012 947.046 702.053C946.813 702.097 946.327 702.01 946.148 701.814C946.053 701.701 946.025 701.545 946.057 701.415C946.083 701.355 946.186 701.111 946.212 701.051C946.273 700.909 946.405 700.822 946.492 700.787C946.664 700.717 946.834 700.765 947.053 700.811C947.202 700.851 947.352 700.891 947.415 700.965C947.527 701.037 947.602 701.141 947.57 701.271C947.544 701.332 947.538 701.401 947.504 701.482L947.512 701.462Z" fill="white"/>
<path d="M949.017 702.009L948.24 701.821C948.179 701.962 948.145 702.043 948.148 702.093C948.159 702.121 948.202 702.188 948.3 702.182C948.369 702.187 948.435 702.144 948.461 702.083C948.47 702.063 948.478 702.042 948.504 701.981L948.982 702.09C948.939 702.191 948.832 702.385 948.628 702.417C948.501 702.435 948.334 702.436 948.144 702.379C947.886 702.316 947.733 702.227 947.661 702.172C947.535 702.023 947.555 701.864 947.569 701.774C947.595 701.713 947.642 701.493 947.751 701.349C947.814 701.256 947.909 701.201 947.996 701.166C948.053 701.142 948.16 701.116 948.249 701.13C948.318 701.136 948.427 701.158 948.537 701.181C948.706 701.23 948.856 701.269 948.919 701.344C949.043 701.445 949.118 701.549 949.117 701.716C949.112 701.786 949.034 701.968 948.979 702.04L949.017 702.009ZM948.611 701.452C948.58 701.415 948.519 701.389 948.491 701.401C948.393 701.407 948.367 701.468 948.306 701.609L948.565 701.672C948.617 701.551 948.634 701.51 948.611 701.452Z" fill="white"/>
<path d="M926.323 692.44L926.444 692.491C927.319 692.673 927.373 692.768 927.903 691.917L929.128 689.997C929.675 689.105 929.618 689.128 928.614 688.915L926.344 692.448L926.323 692.44ZM926.891 687.485L930.401 688.241C930.948 688.355 931.69 688.456 931.954 689.12C932.152 689.659 931.864 690.111 931.559 690.603L930.343 692.503C929.395 693.943 928.817 694.127 927.114 693.711L923.472 692.875L926.903 687.514L926.891 687.485Z" fill="#FFD5A6"/>
<path d="M934.222 691.501C935.287 691.74 935.338 691.786 935.687 691.192C936.102 690.555 935.826 690.533 934.96 690.331L934.222 691.501ZM933.304 688.858L936.971 689.633C938.214 689.9 938.343 690.099 938.418 690.706C938.443 691.148 937.945 692.037 937.625 692.283C937.147 692.678 936.649 692.729 936.166 692.69C936.376 693.091 936.284 693.363 936.134 693.826L935.562 695.666L933.284 695.148L933.806 693.479C934.086 692.545 934.08 692.614 933.603 692.506L932.099 694.857L929.82 694.34L933.304 688.858Z" fill="#FFD5A6"/>
<path d="M939.477 690.176L941.793 690.662L938.249 696.286L935.971 695.768L939.477 690.176Z" fill="#FFD5A6"/>
<path d="M942.449 690.798L944.825 691.31L944.663 695.48L946.982 691.776L948.144 692.008L944.549 697.754L941.971 697.157L942.116 693.362L940.021 696.707L938.916 696.451L942.449 690.798Z" fill="#FFD5A6"/>
<path d="M948.732 692.139L951.047 692.625L949.653 694.832L953.493 693.142L955.014 693.48L951.868 694.939L950.829 699.214L948.519 698.659L949.091 696.149L948.702 696.39L947.414 698.403L945.136 697.885L948.732 692.139Z" fill="#FFD5A6"/>
<path d="M927.73 679.556L925.39 683.252C924.687 684.341 924.244 684.654 923.315 684.713C922.748 684.758 922.172 684.656 921.606 684.534C920.97 684.406 920.308 684.171 919.989 683.748C919.644 683.217 919.889 682.699 920.42 681.848L920.598 681.541L922.465 681.907L921.952 682.718C921.745 683.037 921.647 683.21 921.733 683.343C921.84 683.484 922.001 683.553 922.216 683.549C922.55 683.548 922.706 683.351 922.876 683.064L925.379 679.152L927.721 679.577L927.73 679.556Z" fill="white"/>
<path d="M928.345 679.676L930.687 680.101L928.742 683.15C928.31 683.828 928.039 684.239 928.257 684.62C928.433 684.934 929.031 685.094 929.411 685.04C930.004 684.934 930.269 684.592 930.655 683.967L932.85 680.497L933.932 680.696L931.532 684.533C930.875 685.57 930.492 685.909 929.283 686.064C928.414 686.148 926.467 685.747 925.898 684.906C925.447 684.234 925.755 683.791 926.187 683.113L928.365 679.684L928.345 679.676Z" fill="white"/>
<path d="M934.487 680.789L936.808 681.205L933.239 686.89L930.935 686.433L934.487 680.789Z" fill="white"/>
<path d="M941.732 684.84L939.816 684.477L939.986 684.19C940.3 683.678 940.507 683.359 940.355 683.103C940.246 682.912 939.878 682.827 939.613 682.834C939.27 682.855 939.043 682.997 938.527 683.759L937.216 685.882C936.828 686.458 936.957 686.657 937.454 686.774C937.754 686.854 938.076 686.824 938.436 686.259L938.958 685.428L941.112 685.845L940.87 686.244C940.303 687.128 939.79 687.771 938.443 687.914C937.488 688.034 935.448 687.57 934.94 686.754C934.494 686.013 934.904 685.278 935.255 684.733L936.056 683.47C936.644 682.596 937.107 681.956 938.437 681.685C939.476 681.482 941.467 681.781 942.076 682.472C942.496 682.939 942.547 683.32 942.334 683.876C942.273 684.017 941.994 684.449 941.752 684.848" fill="white"/>
<path d="M942.922 682.33L945.243 682.747L944.836 685.207L947.378 683.155L948.687 683.379L944.417 686.801L943.106 688.923L940.791 688.438L942.346 685.964L942.922 682.33Z" fill="white"/>
</g>
<path d="M705.075 582.152C741.44 541.497 737.962 479.061 697.307 442.697C656.652 406.333 594.217 409.81 557.852 450.465C521.488 491.12 524.966 553.556 565.621 589.92C606.276 626.284 668.711 622.807 705.075 582.152Z" fill="white"/>
<path d="M705.075 582.152C741.44 541.497 737.962 479.061 697.307 442.697C656.652 406.333 594.217 409.81 557.852 450.465C521.488 491.12 524.966 553.556 565.621 589.92C606.276 626.284 668.711 622.807 705.075 582.152Z" stroke="#0626A9" stroke-width="2" stroke-linecap="round" stroke-linejoin="round"/>
<path d="M598.506 535.783L655.535 472.026C657.88 469.404 661.907 469.179 664.528 471.525L672.298 478.474C674.919 480.819 675.144 484.846 672.799 487.468L615.77 551.225L598.506 535.783Z" fill="#8869D5"/>
<path d="M598.506 535.783L655.535 472.026C657.88 469.404 661.907 469.179 664.528 471.525L672.298 478.474C674.919 480.819 675.144 484.846 672.799 487.468L615.77 551.225L598.506 535.783Z" stroke="#8869D5" stroke-miterlimit="10"/>
<path d="M594.514 557.618L615.77 551.225L598.507 535.784L594.514 557.618Z" stroke="#0626A9" stroke-width="2" stroke-linecap="round" stroke-linejoin="round"/>
<path d="M653.909 473.844L671.173 489.286L672.799 487.468C675.144 484.846 674.919 480.819 672.298 478.474L664.528 471.525C661.907 469.18 657.88 469.404 655.535 472.026L653.909 473.844Z" fill="white"/>
<path d="M653.909 473.844L671.173 489.286L672.799 487.468C675.144 484.846 674.919 480.819 672.298 478.474L664.528 471.525C661.907 469.18 657.88 469.404 655.535 472.026L653.909 473.844Z" stroke="#0626A9" stroke-width="2" stroke-linecap="round" stroke-linejoin="round"/>
<path d="M665.052 561.889L582.434 487.991L597.876 470.728L680.494 544.626L665.052 561.889Z" fill="white"/>
<path d="M665.052 561.889L582.434 487.991L597.876 470.728L680.494 544.626L665.052 561.889Z" stroke="#0626A9" stroke-width="2" stroke-linecap="round" stroke-linejoin="round"/>
<path d="M603.924 491.676L611.645 483.045" stroke="#0626A9" stroke-width="2" stroke-linecap="round" stroke-linejoin="round"/>
<path d="M617.693 503.993L625.415 495.361" stroke="#0626A9" stroke-width="2" stroke-linecap="round" stroke-linejoin="round"/>
<path d="M631.464 516.308L639.185 507.677" stroke="#0626A9" stroke-width="2" stroke-linecap="round" stroke-linejoin="round"/>
<path d="M645.233 528.625L652.955 519.993" stroke="#0626A9" stroke-width="2" stroke-linecap="round" stroke-linejoin="round"/>
<path d="M659.003 540.942L666.724 532.31" stroke="#0626A9" stroke-width="2" stroke-linecap="round" stroke-linejoin="round"/>
<path d="M728.728 737.389C734.55 710.159 717.196 683.365 689.967 677.542C662.738 671.72 635.943 689.074 630.121 716.303C624.298 743.533 641.652 770.327 668.882 776.149C696.111 781.972 722.905 764.618 728.728 737.389Z" fill="white"/>
<path d="M728.728 737.389C734.55 710.159 717.196 683.365 689.967 677.542C662.738 671.72 635.943 689.074 630.121 716.303C624.298 743.533 641.652 770.327 668.882 776.149C696.111 781.972 722.905 764.618 728.728 737.389Z" stroke="#0626A9" stroke-width="2" stroke-linecap="round" stroke-linejoin="round"/>
<mask id="mask4_20_4957" style="mask-type:alpha" maskUnits="userSpaceOnUse" x="655" y="715" width="60" height="30">
<path d="M657.962 718.451L673.443 742.355L712.416 717.112" stroke="#202870" stroke-width="4" stroke-linecap="round" stroke-linejoin="round"/>
</mask>
<g mask="url(#mask4_20_4957)">
<path d="M657.962 718.451L673.443 742.355L712.416 717.112" stroke="#0626A9" stroke-width="2" stroke-linecap="round" stroke-linejoin="round"/>
</g>
<path d="M964.56 1425.68H594.09C580.136 1425.68 568.824 1422.36 568.824 1408.41H989.826C989.826 1422.36 978.514 1425.68 964.56 1425.68Z" fill="#84AAE4"/>
<path d="M964.56 1425.68H594.09C580.136 1425.68 568.824 1422.36 568.824 1408.41H989.826C989.826 1422.36 978.514 1425.68 964.56 1425.68Z" stroke="#0626A9" stroke-width="2" stroke-linecap="round" stroke-linejoin="round"/>
<path d="M955.856 1425.68H602.794V1201.62C602.794 1192.12 610.489 1184.43 619.982 1184.43H938.668C948.161 1184.43 955.856 1192.12 955.856 1201.62V1425.68Z" fill="#84AAE4"/>
<path d="M955.856 1425.68H602.794V1201.62C602.794 1192.12 610.489 1184.43 619.982 1184.43H938.668C948.161 1184.43 955.856 1192.12 955.856 1201.62V1425.68Z" stroke="#0626A9" stroke-width="2" stroke-linecap="round" stroke-linejoin="round"/>
<path d="M800 1302.93C800 1291.51 790.744 1282.26 779.325 1282.26C767.906 1282.26 758.65 1291.51 758.65 1302.93C758.65 1314.35 767.906 1323.61 779.325 1323.61C790.744 1323.61 800 1314.35 800 1302.93Z" fill="#84AAE4"/>
<path d="M800 1302.93C800 1291.51 790.744 1282.26 779.325 1282.26C767.906 1282.26 758.65 1291.51 758.65 1302.93C758.65 1314.35 767.906 1323.61 779.325 1323.61C790.744 1323.61 800 1314.35 800 1302.93Z" stroke="#0626A9" stroke-width="2" stroke-linecap="round" stroke-linejoin="round"/>
<path d="M1299.67 1451.98H300.333V1425.68H1299.67V1451.98Z" fill="#0626A9"/>
</g>
</g>
<defs>
<clipPath id="clip0_20_4957">
<rect width="1600" height="1600" fill="white"/>
</clipPath>
<clipPath id="clip1_20_4957">
<rect width="146.254" height="94.1842" fill="white" transform="translate(1096.94 431.045) rotate(-30)"/>
</clipPath>
<clipPath id="clip2_20_4957">
<rect width="159.634" height="103.39" fill="white" transform="translate(908.392 627.616) rotate(23.1194)"/>
</clipPath>
</defs>
</svg>
