<svg xmlns="http://www.w3.org/2000/svg" xmlns:xlink="http://www.w3.org/1999/xlink" viewBox="0 0 1600 1600" width="1600" height="1600" preserveAspectRatio="xMidYMid meet" style="width: 100%; height: 100%; transform: translate3d(0px, 0px, 0px); content-visibility: visible;"><defs><clipPath id="__lottie_element_2"><rect width="1600" height="1600" x="0" y="0"></rect></clipPath><g id="__lottie_element_39"><g transform="matrix(0.9778928756713867,0.20910656452178955,-0.20910656452178955,0.9778928756713867,182.90789794921875,-135.126708984375)" opacity="1" style="display: block;"><g opacity="1" transform="matrix(1,0,0,1,669.5260009765625,739.0919799804688)"><path stroke-linecap="round" stroke-linejoin="round" fill-opacity="0" stroke="rgb(32,40,112)" stroke-opacity="1" stroke-width="4" d=" M-26.485000610351562,-3.7209999561309814 C-26.485000610351562,-3.7209999561309814 -6.3480000495910645,16.41699981689453 -6.3480000495910645,16.41699981689453 C-6.3480000495910645,16.41699981689453 26.485000610351562,-16.41699981689453 26.485000610351562,-16.41699981689453"></path></g></g></g><mask id="__lottie_element_39_1" mask-type="alpha"><use xlink:href="#__lottie_element_39"></use></mask><clipPath id="__lottie_element_97"><path d="M0,0 L1600,0 L1600,1600 L0,1600z"></path></clipPath></defs><g clip-path="url(#__lottie_element_2)"><g clip-path="url(#__lottie_element_97)" transform="matrix(1,0,0,1,0,0)" opacity="1" style="display: block;"><g transform="matrix(1,0,0,1,1181.864013671875,1036.7840576171875)" opacity="1" style="display: block;"><g opacity="1" transform="matrix(1,0,0,1,0,0)"><path stroke-linecap="round" stroke-linejoin="round" fill-opacity="0" stroke-dasharray=" 100" stroke-dashoffset="0" stroke="rgb(32,40,112)" stroke-opacity="1" stroke-width="2" d=" M-78.43699645996094,42.70000076293945 C-78.43699645996094,42.70000076293945 78.43699645996094,-42.70000076293945 78.43699645996094,-42.70000076293945"></path></g></g><g transform="matrix(1,0,0,1,0,0)" opacity="1" style="display: block;"><g opacity="1" transform="matrix(1,0,0,1,1487.029052734375,402.36700439453125)"><path stroke-linecap="round" stroke-linejoin="round" fill-opacity="0" stroke-dasharray=" 130" stroke-dashoffset="0" stroke="rgb(32,40,112)" stroke-opacity="1" stroke-width="2" d=" M-432.10699462890625,578.6279907226562 C-432.10699462890625,578.6279907226562 40.856998443603516,-54.689998626708984 40.856998443603516,-54.689998626708984"></path></g></g><g transform="matrix(1,0,0,1,0,0)" opacity="1" style="display: block;"><g opacity="1" transform="matrix(1,0,0,1,1378.2249755859375,134.09500122070312)"><path stroke-linecap="round" stroke-linejoin="round" fill-opacity="0" stroke-dasharray=" 164" stroke-dashoffset="0" stroke="rgb(32,40,112)" stroke-opacity="1" stroke-width="2" d=" M-382.15301513671875,782.6740112304688 C-382.15301513671875,782.6740112304688 7.4029998779296875,-15.173999786376953 7.4029998779296875,-15.173999786376953"></path></g></g><g transform="matrix(1,0,0,1,0,0)" opacity="1" style="display: block;"><g opacity="1" transform="matrix(1,0,0,1,787.3619995117188,73.81800079345703)"><path stroke-linecap="round" stroke-linejoin="round" fill-opacity="0" stroke-dasharray=" 100" stroke-dashoffset="0" stroke="rgb(32,40,112)" stroke-opacity="1" stroke-width="2" d=" M4.4039998054504395,205.343994140625 C4.4039998054504395,205.343994140625 -0.3409999907016754,-15.906000137329102 -0.3409999907016754,-15.906000137329102"></path></g></g><g transform="matrix(1,0,0,1,0,0)" opacity="1" style="display: block;"><g opacity="1" transform="matrix(1,0,0,1,394.2980041503906,208.4409942626953)"><path stroke-linecap="round" stroke-linejoin="round" fill-opacity="0" stroke-dasharray=" 150 210" stroke-dashoffset="0" stroke="rgb(32,40,112)" stroke-opacity="1" stroke-width="2" d=" M236.49000549316406,659.7839965820312 C236.49000549316406,659.7839965820312 -26.677000045776367,-74.34600067138672 -26.677000045776367,-74.34600067138672"></path></g></g><g transform="matrix(1,0,0,1,0,0)" opacity="1" style="display: block;"><g opacity="1" transform="matrix(1,0,0,1,174.98399353027344,461.27398681640625)"><path stroke-linecap="round" stroke-linejoin="round" fill-opacity="0" stroke-dasharray=" 216 100" stroke-dashoffset="0" stroke="rgb(32,40,112)" stroke-opacity="1" stroke-width="2" d=" M-60.99599838256836,-86.36799621582031 C-60.99599838256836,-86.36799621582031 345.1210021972656,488.7430114746094 345.1210021972656,488.7430114746094"></path></g></g><g transform="matrix(1,0,0,1,0,0)" opacity="1" style="display: block;"><g opacity="1" transform="matrix(1,0,0,1,262.8420104980469,946.8800048828125)"><path stroke-linecap="round" stroke-linejoin="round" fill-opacity="0" stroke-dasharray=" 100" stroke-dashoffset="0" stroke="rgb(32,40,112)" stroke-opacity="1" stroke-width="2" d=" M-38.81700134277344,-25.483999252319336 C-38.81700134277344,-25.483999252319336 186.81700134277344,113.48400115966797 186.81700134277344,113.48400115966797"></path></g></g></g><g transform="matrix(0.9999753832817078,-0.007016166113317013,0.007016166113317013,0.9999753832817078,-4.24658203125,3.874725341796875)" opacity="1" style="display: block;"><g opacity="1" transform="matrix(1,0,0,1,653.4110107421875,319.24798583984375)"><path fill="rgb(255,255,255)" fill-opacity="1" d=" M207.24400329589844,177.1479949951172 C207.24400329589844,177.1479949951172 -268.6239929199219,-46.612998962402344 -268.6239929199219,-46.612998962402344 C-268.6239929199219,-46.612998962402344 -207.24400329589844,-177.1479949951172 -207.24400329589844,-177.1479949951172 C-207.24400329589844,-177.1479949951172 268.6239929199219,46.612998962402344 268.6239929199219,46.612998962402344 C268.6239929199219,46.612998962402344 207.24400329589844,177.1479949951172 207.24400329589844,177.1479949951172z"></path><path stroke-linecap="round" stroke-linejoin="round" fill-opacity="0" stroke="rgb(32,40,112)" stroke-opacity="1" stroke-width="2" d=" M207.24400329589844,177.1479949951172 C207.24400329589844,177.1479949951172 -268.6239929199219,-46.612998962402344 -268.6239929199219,-46.612998962402344 C-268.6239929199219,-46.612998962402344 -207.24400329589844,-177.1479949951172 -207.24400329589844,-177.1479949951172 C-207.24400329589844,-177.1479949951172 268.6239929199219,46.612998962402344 268.6239929199219,46.612998962402344 C268.6239929199219,46.612998962402344 207.24400329589844,177.1479949951172 207.24400329589844,177.1479949951172z"></path></g><g opacity="1" transform="matrix(1,0,0,1,557.6710205078125,227.55299377441406)"><path fill="rgb(132,132,250)" fill-opacity="1" d=" M101.40699768066406,59.94499969482422 C101.40699768066406,59.94499969482422 -110.8499984741211,-39.86199951171875 -110.8499984741211,-39.86199951171875 C-110.8499984741211,-39.86199951171875 -101.40699768066406,-59.94499969482422 -101.40699768066406,-59.94499969482422 C-101.40699768066406,-59.94499969482422 110.8499984741211,39.86199951171875 110.8499984741211,39.86199951171875 C110.8499984741211,39.86199951171875 101.40699768066406,59.94499969482422 101.40699768066406,59.94499969482422z"></path></g><g opacity="1" transform="matrix(1,0,0,1,544.5960083007812,327.0190124511719)"><path stroke-linecap="round" stroke-linejoin="round" fill-opacity="0" stroke="rgb(32,40,112)" stroke-opacity="1" stroke-width="2" d=" M-133.72300720214844,-62.87900161743164 C-133.72300720214844,-62.87900161743164 133.72300720214844,62.87900161743164 133.72300720214844,62.87900161743164"></path></g><g opacity="1" transform="matrix(1,0,0,1,613.7639770507812,323.24700927734375)"><path stroke-linecap="round" stroke-linejoin="round" fill-opacity="0" stroke="rgb(32,40,112)" stroke-opacity="1" stroke-width="2" d=" M-188.91400146484375,-88.83100128173828 C-188.91400146484375,-88.83100128173828 188.91400146484375,88.83100128173828 188.91400146484375,88.83100128173828"></path></g><g opacity="1" transform="matrix(1,0,0,1,636.3259887695312,297.5610046386719)"><path stroke-linecap="round" stroke-linejoin="round" fill-opacity="0" stroke="rgb(32,40,112)" stroke-opacity="1" stroke-width="2" d=" M-197.49899291992188,-92.86799621582031 C-197.49899291992188,-92.86799621582031 197.49899291992188,92.86799621582031 197.49899291992188,92.86799621582031"></path></g></g><g transform="matrix(0.9999805688858032,-0.006230785045772791,0.006230785045772791,0.9999805688858032,-4.7265625,0.5999755859375)" opacity="1" style="display: block;"><g opacity="1" transform="matrix(1,0,0,1,602.7930297851562,591.3489990234375)"><path fill="rgb(132,132,250)" fill-opacity="1" d=" M131.66099548339844,169.5260009765625 C131.66099548339844,169.5260009765625 -201.66900634765625,73.50599670410156 -201.66900634765625,73.50599670410156 C-201.66900634765625,73.50599670410156 -131.66099548339844,-169.5260009765625 -131.66099548339844,-169.5260009765625 C-131.66099548339844,-169.5260009765625 201.66900634765625,-73.50599670410156 201.66900634765625,-73.50599670410156 C201.66900634765625,-73.50599670410156 131.66099548339844,169.5260009765625 131.66099548339844,169.5260009765625z"></path><path stroke-linecap="round" stroke-linejoin="round" fill-opacity="0" stroke="rgb(32,40,112)" stroke-opacity="1" stroke-width="2" d=" M131.66099548339844,169.5260009765625 C131.66099548339844,169.5260009765625 -201.66900634765625,73.50599670410156 -201.66900634765625,73.50599670410156 C-201.66900634765625,73.50599670410156 -131.66099548339844,-169.5260009765625 -131.66099548339844,-169.5260009765625 C-131.66099548339844,-169.5260009765625 201.66900634765625,-73.50599670410156 201.66900634765625,-73.50599670410156 C201.66900634765625,-73.50599670410156 131.66099548339844,169.5260009765625 131.66099548339844,169.5260009765625z"></path></g><g opacity="1" transform="matrix(1.0518499612808228,0,0,1.0518499612808228,602.7930297851562,591.3489990234375)"><path fill="rgb(255,255,255)" fill-opacity="1" d=" M101.1520004272461,118.12899780273438 C101.1520004272461,118.12899780273438 -148.49400329589844,46.215999603271484 -148.49400329589844,46.215999603271484 C-148.49400329589844,46.215999603271484 -101.1520004272461,-118.12899780273438 -101.1520004272461,-118.12899780273438 C-101.1520004272461,-118.12899780273438 148.49400329589844,-46.215999603271484 148.49400329589844,-46.215999603271484 C148.49400329589844,-46.215999603271484 101.1520004272461,118.12899780273438 101.1520004272461,118.12899780273438z"></path></g></g><g transform="matrix(0.9991177320480347,-0.041997719556093216,0.041997719556093216,0.9991177320480347,-36.634521484375,42.41876220703125)" opacity="1" style="display: block;"><g opacity="1" transform="matrix(1,0,0,1,1162.33203125,721.6290283203125)"><g opacity="1" transform="matrix(1,0,0,1,0,0)"><path fill="rgb(255,255,255)" fill-opacity="1" d=" M285.27398681640625,-75.47100067138672 C285.27398681640625,-75.47100067138672 -241.18499755859375,170.02099609375 -241.18499755859375,170.02099609375 C-241.18499755859375,170.02099609375 -285.27398681640625,75.47100067138672 -285.27398681640625,75.47100067138672 C-285.27398681640625,75.47100067138672 241.18499755859375,-170.02099609375 241.18499755859375,-170.02099609375 C241.18499755859375,-170.02099609375 285.27398681640625,-75.47100067138672 285.27398681640625,-75.47100067138672z"></path><path stroke-linecap="round" stroke-linejoin="round" fill-opacity="0" stroke="rgb(32,40,112)" stroke-opacity="1" stroke-width="2" d=" M285.27398681640625,-75.47100067138672 C285.27398681640625,-75.47100067138672 -241.18499755859375,170.02099609375 -241.18499755859375,170.02099609375 C-241.18499755859375,170.02099609375 -285.27398681640625,75.47100067138672 -285.27398681640625,75.47100067138672 C-285.27398681640625,75.47100067138672 241.18499755859375,-170.02099609375 241.18499755859375,-170.02099609375 C241.18499755859375,-170.02099609375 285.27398681640625,-75.47100067138672 285.27398681640625,-75.47100067138672z"></path></g></g><g opacity="1" transform="matrix(1,0,0,1,0,0)"><g opacity="1" transform="matrix(1,0,0,1,0,0)"><g opacity="1" transform="matrix(1,0,0,1,1057.31005859375,789.7869873046875)"><path stroke-linecap="round" stroke-linejoin="round" fill-opacity="0" stroke="rgb(32,40,112)" stroke-opacity="1" stroke-width="2" d=" M-43.005001068115234,20.05299949645996 C-43.005001068115234,20.05299949645996 0.5730000138282776,-0.2669999897480011 25.69099998474121,-11.979999542236328"></path></g><g opacity="1" transform="matrix(1,0,0,1,1239.4200439453125,704.8670043945312)"><path fill="rgb(255,255,255)" fill-opacity="1" d=" M-102.9800033569336,48.020999908447266 C-102.9800033569336,48.020999908447266 45.540000915527344,-21.236000061035156 90.33899688720703,-42.125999450683594"></path><path stroke-linecap="round" stroke-linejoin="round" fill-opacity="0" stroke="rgb(32,40,112)" stroke-opacity="1" stroke-width="2" d=" M-102.9800033569336,48.020999908447266 C-102.9800033569336,48.020999908447266 45.540000915527344,-21.236000061035156 90.33899688720703,-42.125999450683594"></path></g></g><g opacity="1" transform="matrix(1,0,0,1,1033.0059814453125,762.75)"><path stroke-linecap="round" stroke-linejoin="round" fill-opacity="0" stroke="rgb(32,40,112)" stroke-opacity="1" stroke-width="2" d=" M-32.698001861572266,15.246999740600586 C-32.698001861572266,15.246999740600586 32.698001861572266,-15.246999740600586 32.698001861572266,-15.246999740600586"></path></g><g opacity="1" transform="matrix(0.9986139535903931,-0.052632253617048264,0.052632253617048264,0.9986139535903931,954.4366455078125,819.7040405273438)"><path fill="rgb(249,74,130)" fill-opacity="1" d=" M28.638999938964844,10.423999786376953 C28.638999938964844,10.423999786376953 -10.423999786376953,28.638999938964844 -10.423999786376953,28.638999938964844 C-10.423999786376953,28.638999938964844 -28.638999938964844,-10.423999786376953 -28.638999938964844,-10.423999786376953 C-28.638999938964844,-10.423999786376953 10.423999786376953,-28.638999938964844 10.423999786376953,-28.638999938964844 C10.423999786376953,-28.638999938964844 28.638999938964844,10.423999786376953 28.638999938964844,10.423999786376953z"></path></g></g></g><g transform="matrix(1,0,0,1,0,-0.725006103515625)" opacity="1" style="display: block;"><g opacity="1" transform="matrix(1,0,0,1,1183.322021484375,434.3550109863281)"><path fill="rgb(255,255,255)" fill-opacity="1" d=" M77.5459976196289,18.534000396728516 C87.78199768066406,-24.292999267578125 61.361000061035156,-67.30999755859375 18.534000396728516,-77.5459976196289 C-24.292999267578125,-87.78199768066406 -67.30999755859375,-61.361000061035156 -77.5459976196289,-18.534000396728516 C-87.78199768066406,24.292999267578125 -61.361000061035156,67.30999755859375 -18.534000396728516,77.5459976196289 C24.292999267578125,87.78199768066406 67.30999755859375,61.361000061035156 77.5459976196289,18.534000396728516z"></path><path stroke-linecap="round" stroke-linejoin="round" fill-opacity="0" stroke="rgb(32,40,112)" stroke-opacity="1" stroke-width="2" d=" M77.5459976196289,18.534000396728516 C87.78199768066406,-24.292999267578125 61.361000061035156,-67.30999755859375 18.534000396728516,-77.5459976196289 C-24.292999267578125,-87.78199768066406 -67.30999755859375,-61.361000061035156 -77.5459976196289,-18.534000396728516 C-87.78199768066406,24.292999267578125 -61.361000061035156,67.30999755859375 -18.534000396728516,77.5459976196289 C24.292999267578125,87.78199768066406 67.30999755859375,61.361000061035156 77.5459976196289,18.534000396728516z"></path></g><g opacity="1" transform="matrix(1,0,0,1,0,0)"><g opacity="1" transform="matrix(1,0,0,1,1178.0479736328125,421.822998046875)"><path stroke-linecap="round" stroke-linejoin="round" fill-opacity="0" stroke="rgb(32,40,112)" stroke-opacity="1" stroke-width="2" d=" M-23.97100067138672,28.871000289916992 C-23.97100067138672,28.871000289916992 17.909000396728516,-40.32899856567383 17.909000396728516,-40.32899856567383 C17.909000396728516,-40.32899856567383 23.97100067138672,40.32899856567383 23.97100067138672,40.32899856567383"></path></g><g opacity="1" transform="matrix(1,0,0,1,1154.0770263671875,450.6929931640625)"><path stroke-linecap="round" stroke-linejoin="round" fill-opacity="0" stroke="rgb(32,40,112)" stroke-opacity="1" stroke-width="2" d=" M-8.255000114440918,-1.9730000495910645 C-8.255000114440918,-1.9730000495910645 8.255000114440918,1.9730000495910645 8.255000114440918,1.9730000495910645"></path></g><g opacity="1" transform="matrix(1,0,0,1,1202.01904296875,462.1520080566406)"><path stroke-linecap="round" stroke-linejoin="round" fill-opacity="0" stroke="rgb(32,40,112)" stroke-opacity="1" stroke-width="2" d=" M-8.255000114440918,-1.9730000495910645 C-8.255000114440918,-1.9730000495910645 8.255000114440918,1.9730000495910645 8.255000114440918,1.9730000495910645"></path></g><g opacity="1" transform="matrix(1,0,0,1,1184.1219482421875,431.0069885253906)"><path stroke-linecap="round" stroke-linejoin="round" fill-opacity="0" stroke="rgb(32,40,112)" stroke-opacity="1" stroke-width="2" d=" M-8.255000114440918,-1.9730000495910645 C-8.255000114440918,-1.9730000495910645 8.255000114440918,1.9730000495910645 8.255000114440918,1.9730000495910645"></path></g></g></g><g transform="matrix(0.9941056370735168,-0.10841577500104904,0.10841577500104904,0.9941056370735168,-29.075927734375,121.85658264160156)" opacity="1" style="display: block;"><g opacity="1" transform="matrix(1,0,0,1,1080.3370361328125,231.8459930419922)"><path stroke-linecap="round" stroke-linejoin="round" fill-opacity="0" stroke="rgb(32,40,112)" stroke-opacity="1" stroke-width="2" d=" M47.492000579833984,0 C47.492000579833984,-26.229000091552734 26.229000091552734,-47.492000579833984 0,-47.492000579833984 C-26.229000091552734,-47.492000579833984 -47.492000579833984,-26.229000091552734 -47.492000579833984,0 C-47.492000579833984,26.229000091552734 -26.229000091552734,47.492000579833984 0,47.492000579833984 C26.229000091552734,47.492000579833984 47.492000579833984,26.229000091552734 47.492000579833984,0z"></path></g><g opacity="1" transform="matrix(1,0,0,1,0,0)"><g opacity="1" transform="matrix(1,0,0,1,1080.3370361328125,231.8459930419922)"><path stroke-linecap="round" stroke-linejoin="round" fill-opacity="0" stroke="rgb(32,40,112)" stroke-opacity="1" stroke-width="2" d=" M0,-26.058000564575195 C0,-26.058000564575195 0,26.058000564575195 0,26.058000564575195"></path></g><g opacity="1" transform="matrix(1,0,0,1,1080.3370361328125,231.8459930419922)"><path stroke-linecap="round" stroke-linejoin="round" fill-opacity="0" stroke="rgb(32,40,112)" stroke-opacity="1" stroke-width="2" d=" M26.058000564575195,0 C26.058000564575195,0 -26.058000564575195,0 -26.058000564575195,0"></path></g></g></g><g transform="matrix(0.9415822625160217,-0.3367830216884613,0.3367830216884613,0.9415822625160217,-129.93753051757812,145.6334228515625)" opacity="1" style="display: block;"><g opacity="1" transform="matrix(1,0,0,1,390.9830017089844,409.0270080566406)"><path fill="rgb(255,255,255)" fill-opacity="1" d=" M53.974998474121094,0 C53.974998474121094,-29.80900001525879 29.80900001525879,-53.974998474121094 0,-53.974998474121094 C-29.80900001525879,-53.974998474121094 -53.974998474121094,-29.80900001525879 -53.974998474121094,0 C-53.974998474121094,29.80900001525879 -29.80900001525879,53.974998474121094 0,53.974998474121094 C29.80900001525879,53.974998474121094 53.974998474121094,29.80900001525879 53.974998474121094,0z"></path><path stroke-linecap="round" stroke-linejoin="round" fill-opacity="0" stroke="rgb(32,40,112)" stroke-opacity="1" stroke-width="2" d=" M53.974998474121094,0 C53.974998474121094,-29.80900001525879 29.80900001525879,-53.974998474121094 0,-53.974998474121094 C-29.80900001525879,-53.974998474121094 -53.974998474121094,-29.80900001525879 -53.974998474121094,0 C-53.974998474121094,29.80900001525879 -29.80900001525879,53.974998474121094 0,53.974998474121094 C29.80900001525879,53.974998474121094 53.974998474121094,29.80900001525879 53.974998474121094,0z"></path></g><g opacity="1" transform="matrix(1,0,0,1,397.2829895019531,409.0270080566406)"><path fill="rgb(132,132,250)" fill-opacity="1" d=" M21.934999465942383,0 C21.934999465942383,0 -21.934999465942383,-25.32900047302246 -21.934999465942383,-25.32900047302246 C-21.934999465942383,-25.32900047302246 -21.934999465942383,25.32900047302246 -21.934999465942383,25.32900047302246 C-21.934999465942383,25.32900047302246 21.934999465942383,0 21.934999465942383,0z"></path></g></g><g transform="matrix(1,0,0,1,476,692)" opacity="1" style="display: block;"><g opacity="1" transform="matrix(1,0,0,1,0,0)"><path fill="rgb(255,255,255)" fill-opacity="1" d=" M57.2239990234375,38.507999420166016 C57.2239990234375,38.507999420166016 30.23699951171875,-71.59300231933594 30.23699951171875,-71.59300231933594 C30.23699951171875,-71.59300231933594 -57.2239990234375,0.5260000228881836 -57.2239990234375,0.5260000228881836 C-57.2239990234375,0.5260000228881836 -19.011999130249023,13.208000183105469 -19.011999130249023,13.208000183105469 C-19.011999130249023,13.208000183105469 -34.20100021362305,58.9739990234375 -34.20100021362305,58.9739990234375 C-34.20100021362305,58.9739990234375 3.822999954223633,71.59300231933594 3.822999954223633,71.59300231933594 C3.822999954223633,71.59300231933594 19.011999130249023,25.82699966430664 19.011999130249023,25.82699966430664 C19.011999130249023,25.82699966430664 57.2239990234375,38.507999420166016 57.2239990234375,38.507999420166016z"></path><path stroke-linecap="round" stroke-linejoin="round" fill-opacity="0" stroke="rgb(32,40,112)" stroke-opacity="1" stroke-width="2" d=" M57.2239990234375,38.507999420166016 C57.2239990234375,38.507999420166016 30.23699951171875,-71.59300231933594 30.23699951171875,-71.59300231933594 C30.23699951171875,-71.59300231933594 -57.2239990234375,0.5260000228881836 -57.2239990234375,0.5260000228881836 C-57.2239990234375,0.5260000228881836 -19.011999130249023,13.208000183105469 -19.011999130249023,13.208000183105469 C-19.011999130249023,13.208000183105469 -34.20100021362305,58.9739990234375 -34.20100021362305,58.9739990234375 C-34.20100021362305,58.9739990234375 3.822999954223633,71.59300231933594 3.822999954223633,71.59300231933594 C3.822999954223633,71.59300231933594 19.011999130249023,25.82699966430664 19.011999130249023,25.82699966430664 C19.011999130249023,25.82699966430664 57.2239990234375,38.507999420166016 57.2239990234375,38.507999420166016z"></path></g></g><g transform="matrix(0.9970057010650635,-0.07732807844877243,0.07732807844877243,0.9970057010650635,-54.463134765625,67.3902587890625)" opacity="1" style="display: block;"><g opacity="1" transform="matrix(1,0,0,1,844.4030151367188,496.39599609375)"><path fill="rgb(255,255,255)" fill-opacity="1" d=" M270.5530090332031,47.54100036621094 C270.5530090332031,47.54100036621094 -142.05999755859375,235.11300659179688 -142.05999755859375,235.11300659179688 C-142.05999755859375,235.11300659179688 -270.5530090332031,-47.54100036621094 -270.5530090332031,-47.54100036621094 C-270.5530090332031,-47.54100036621094 142.05999755859375,-235.11300659179688 142.05999755859375,-235.11300659179688 C142.05999755859375,-235.11300659179688 270.5530090332031,47.54100036621094 270.5530090332031,47.54100036621094z"></path><path stroke-linecap="round" stroke-linejoin="round" fill-opacity="0" stroke="rgb(32,40,112)" stroke-opacity="1" stroke-width="2" d=" M270.5530090332031,47.54100036621094 C270.5530090332031,47.54100036621094 -142.05999755859375,235.11300659179688 -142.05999755859375,235.11300659179688 C-142.05999755859375,235.11300659179688 -270.5530090332031,-47.54100036621094 -270.5530090332031,-47.54100036621094 C-270.5530090332031,-47.54100036621094 142.05999755859375,-235.11300659179688 142.05999755859375,-235.11300659179688 C142.05999755859375,-235.11300659179688 270.5530090332031,47.54100036621094 270.5530090332031,47.54100036621094z"></path></g><g opacity="1" transform="matrix(1,0,0,1,-18.509033203125,8.360015869140625)"><g opacity="1" transform="matrix(1,0,0,1,909.3820190429688,466.85699462890625)"><path fill="rgb(255,255,255)" fill-opacity="1" d=" M180.7310028076172,67.76599884033203 C180.7310028076172,67.76599884033203 -67.76599884033203,180.7310028076172 -67.76599884033203,180.7310028076172 C-67.76599884033203,180.7310028076172 -180.7310028076172,-67.76599884033203 -180.7310028076172,-67.76599884033203 C-180.7310028076172,-67.76599884033203 67.76599884033203,-180.7310028076172 67.76599884033203,-180.7310028076172 C67.76599884033203,-180.7310028076172 180.7310028076172,67.76599884033203 180.7310028076172,67.76599884033203z"></path><path stroke-linecap="round" stroke-linejoin="round" fill-opacity="0" stroke="rgb(32,40,112)" stroke-opacity="1" stroke-width="2" d=" M180.7310028076172,67.76599884033203 C180.7310028076172,67.76599884033203 -67.76599884033203,180.7310028076172 -67.76599884033203,180.7310028076172 C-67.76599884033203,180.7310028076172 -180.7310028076172,-67.76599884033203 -180.7310028076172,-67.76599884033203 C-180.7310028076172,-67.76599884033203 67.76599884033203,-180.7310028076172 67.76599884033203,-180.7310028076172 C67.76599884033203,-180.7310028076172 180.7310028076172,67.76599884033203 180.7310028076172,67.76599884033203z"></path></g><g opacity="1" transform="matrix(1,0,0,1,862.719970703125,396.8349914550781)"><path fill="rgb(249,74,130)" fill-opacity="1" d=" M18.316999435424805,0 C18.316999435424805,-10.116000175476074 10.116000175476074,-18.316999435424805 0,-18.316999435424805 C-10.116000175476074,-18.316999435424805 -18.316999435424805,-10.116000175476074 -18.316999435424805,0 C-18.316999435424805,10.116000175476074 -10.116000175476074,18.316999435424805 0,18.316999435424805 C10.116000175476074,18.316999435424805 18.316999435424805,10.116000175476074 18.316999435424805,0z"></path></g><g opacity="1" transform="matrix(1,0,0,1,944.7169799804688,505.9540100097656)"><path fill="rgb(132,132,250)" fill-opacity="1" d=" M-145.39500427246094,48.59600067138672 C-145.39500427246094,48.59600067138672 -106.58200073242188,-47.391998291015625 -106.58200073242188,-47.391998291015625 C-106.58200073242188,-47.391998291015625 -38.435001373291016,-31.680999755859375 -38.435001373291016,-31.680999755859375 C-38.435001373291016,-31.680999755859375 -5.388999938964844,-141.63299560546875 -5.388999938964844,-141.63299560546875 C-5.388999938964844,-141.63299560546875 76.81600189208984,-122.19000244140625 76.81600189208984,-122.19000244140625 C76.81600189208984,-122.19000244140625 145.39500427246094,28.667999267578125 145.39500427246094,28.667999267578125 C145.39500427246094,28.667999267578125 -103.10099792480469,141.63299560546875 -103.10099792480469,141.63299560546875 C-103.10099792480469,141.63299560546875 -145.39500427246094,48.59600067138672 -145.39500427246094,48.59600067138672z"></path><path stroke-linecap="round" stroke-linejoin="round" fill-opacity="0" stroke="rgb(32,40,112)" stroke-opacity="1" stroke-width="2" d=" M-145.39500427246094,48.59600067138672 C-145.39500427246094,48.59600067138672 -106.58200073242188,-47.391998291015625 -106.58200073242188,-47.391998291015625 C-106.58200073242188,-47.391998291015625 -38.435001373291016,-31.680999755859375 -38.435001373291016,-31.680999755859375 C-38.435001373291016,-31.680999755859375 -5.388999938964844,-141.63299560546875 -5.388999938964844,-141.63299560546875 C-5.388999938964844,-141.63299560546875 76.81600189208984,-122.19000244140625 76.81600189208984,-122.19000244140625 C76.81600189208984,-122.19000244140625 145.39500427246094,28.667999267578125 145.39500427246094,28.667999267578125 C145.39500427246094,28.667999267578125 -103.10099792480469,141.63299560546875 -103.10099792480469,141.63299560546875 C-103.10099792480469,141.63299560546875 -145.39500427246094,48.59600067138672 -145.39500427246094,48.59600067138672z"></path></g></g></g><g transform="matrix(0.9992062449455261,0.03983532264828682,-0.03983532264828682,0.9992062449455261,32.8798828125,-35.89044189453125)" opacity="1" style="display: block;"><g opacity="1" transform="matrix(1,0,0,1,957.364990234375,704.6849975585938)"><path fill="rgb(255,255,255)" fill-opacity="1" d=" M95.88099670410156,39.43000030517578 C117.65799713134766,-13.52400016784668 92.38400268554688,-74.10399627685547 39.43000030517578,-95.88099670410156 C-13.52400016784668,-117.65799713134766 -74.10399627685547,-92.38400268554688 -95.88099670410156,-39.43000030517578 C-117.65799713134766,13.52400016784668 -92.38400268554688,74.10399627685547 -39.43000030517578,95.88099670410156 C13.52400016784668,117.65799713134766 74.10399627685547,92.38400268554688 95.88099670410156,39.43000030517578z"></path><path stroke-linecap="round" stroke-linejoin="round" fill-opacity="0" stroke="rgb(32,40,112)" stroke-opacity="1" stroke-width="2" d=" M95.88099670410156,39.43000030517578 C117.65799713134766,-13.52400016784668 92.38400268554688,-74.10399627685547 39.43000030517578,-95.88099670410156 C-13.52400016784668,-117.65799713134766 -74.10399627685547,-92.38400268554688 -95.88099670410156,-39.43000030517578 C-117.65799713134766,13.52400016784668 -92.38400268554688,74.10399627685547 -39.43000030517578,95.88099670410156 C13.52400016784668,117.65799713134766 74.10399627685547,92.38400268554688 95.88099670410156,39.43000030517578z"></path></g><g opacity="1" transform="matrix(1,0,0,1,0,0)"><g opacity="1" transform="matrix(1,0,0,1,957.364990234375,704.6849975585938)"><path fill="rgb(132,132,250)" fill-opacity="1" d=" M33.24399948120117,53.143001556396484 C33.24399948120117,53.143001556396484 -61.01300048828125,14.380999565124512 -61.01300048828125,14.380999565124512 C-61.01300048828125,14.380999565124512 -33.24399948120117,-53.143001556396484 -33.24399948120117,-53.143001556396484 C-33.24399948120117,-53.143001556396484 61.01300048828125,-14.380999565124512 61.01300048828125,-14.380999565124512 C61.01300048828125,-14.380999565124512 33.24399948120117,53.143001556396484 33.24399948120117,53.143001556396484z"></path></g><g opacity="1" transform="matrix(1,0,0,1,971.25,678.114013671875)"><path stroke-linecap="butt" stroke-linejoin="miter" fill-opacity="0" stroke-miterlimit="10" stroke="rgb(255,255,255)" stroke-opacity="1" stroke-width="2" d=" M47.12900161743164,12.190999984741211 C47.12900161743164,12.190999984741211 -13.883999824523926,26.570999145507812 -13.883999824523926,26.570999145507812 C-13.883999824523926,26.570999145507812 -47.12900161743164,-26.570999145507812 -47.12900161743164,-26.570999145507812"></path><path fill="rgb(132,132,250)" fill-opacity="1" d=" M47.12900161743164,12.190999984741211 C47.12900161743164,12.190999984741211 -13.883999824523926,26.570999145507812 -13.883999824523926,26.570999145507812 C-13.883999824523926,26.570999145507812 -47.12900161743164,-26.570999145507812 -47.12900161743164,-26.570999145507812"></path></g></g></g><g transform="matrix(0.9987933039665222,-0.0491112545132637,0.0491112545132637,0.9987933039665222,-29.34295654296875,31.40240478515625)" opacity="1" style="display: block;"><g opacity="1" transform="matrix(1,0,0,1,636.1950073242188,516.7739868164062)"><path fill="rgb(255,255,255)" fill-opacity="1" d=" M70.28900146484375,69.37899780273438 C108.60600280761719,30.55900001525879 108.1989974975586,-31.972000122070312 69.37899780273438,-70.28900146484375 C30.55900001525879,-108.60600280761719 -31.972000122070312,-108.1989974975586 -70.28900146484375,-69.37899780273438 C-108.60600280761719,-30.55900001525879 -108.1989974975586,31.972000122070312 -69.37899780273438,70.28900146484375 C-30.55900001525879,108.60600280761719 31.972000122070312,108.1989974975586 70.28900146484375,69.37899780273438z"></path><path stroke-linecap="round" stroke-linejoin="round" fill-opacity="0" stroke="rgb(32,40,112)" stroke-opacity="1" stroke-width="2" d=" M70.28900146484375,69.37899780273438 C108.60600280761719,30.55900001525879 108.1989974975586,-31.972000122070312 69.37899780273438,-70.28900146484375 C30.55900001525879,-108.60600280761719 -31.972000122070312,-108.1989974975586 -70.28900146484375,-69.37899780273438 C-108.60600280761719,-30.55900001525879 -108.1989974975586,31.972000122070312 -69.37899780273438,70.28900146484375 C-30.55900001525879,108.60600280761719 31.972000122070312,108.1989974975586 70.28900146484375,69.37899780273438z"></path></g><g opacity="1" transform="matrix(1,0,0,1,0,0)"></g></g><g transform="matrix(0.9987933039665222,-0.0491112545132637,0.0491112545132637,0.9987933039665222,-29.34295654296875,31.40240478515625)" opacity="1" style="display: block;"><g opacity="1" transform="matrix(1,0,0,1,0,0)"><g opacity="1" transform="matrix(1,0,0,1,641.5269775390625,511.3550109863281)"><path fill="rgb(249,74,130)" fill-opacity="1" d=" M-39.20600128173828,23.25200080871582 C-39.20600128173828,23.25200080871582 20.885000228881836,-37.62799835205078 20.885000228881836,-37.62799835205078 C23.356000900268555,-40.13100051879883 27.388999938964844,-40.15800094604492 29.892000198364258,-37.6870002746582 C29.892000198364258,-37.6870002746582 37.31100082397461,-30.36400032043457 37.31100082397461,-30.36400032043457 C39.81399917602539,-27.89299964904785 39.840999603271484,-23.860000610351562 37.369998931884766,-21.35700035095215 C37.369998931884766,-21.35700035095215 -22.72100067138672,39.52299880981445 -22.72100067138672,39.52299880981445 C-22.72100067138672,39.52299880981445 -39.20600128173828,23.25200080871582 -39.20600128173828,23.25200080871582z"></path><path stroke-linecap="butt" stroke-linejoin="miter" fill-opacity="0" stroke-miterlimit="10" stroke="rgb(249,74,130)" stroke-opacity="1" stroke-width="1" d=" M-39.20600128173828,23.25200080871582 C-39.20600128173828,23.25200080871582 20.885000228881836,-37.62799835205078 20.885000228881836,-37.62799835205078 C23.356000900268555,-40.13100051879883 27.388999938964844,-40.15800094604492 29.892000198364258,-37.6870002746582 C29.892000198364258,-37.6870002746582 37.31100082397461,-30.36400032043457 37.31100082397461,-30.36400032043457 C39.81399917602539,-27.89299964904785 39.840999603271484,-23.860000610351562 37.369998931884766,-21.35700035095215 C37.369998931884766,-21.35700035095215 -22.72100067138672,39.52299880981445 -22.72100067138672,39.52299880981445 C-22.72100067138672,39.52299880981445 -39.20600128173828,23.25200080871582 -39.20600128173828,23.25200080871582z"></path></g><g opacity="1" transform="matrix(1,0,0,1,608.0330200195312,545.4130249023438)"><path stroke-linecap="round" stroke-linejoin="round" fill-opacity="0" stroke="rgb(32,40,112)" stroke-opacity="1" stroke-width="2" d=" M-10.772000312805176,10.805999755859375 C-10.772000312805176,10.805999755859375 10.772000312805176,5.465000152587891 10.772000312805176,5.465000152587891 C10.772000312805176,5.465000152587891 -5.711999893188477,-10.805999755859375 -5.711999893188477,-10.805999755859375 C-5.711999893188477,-10.805999755859375 -10.772000312805176,10.805999755859375 -10.772000312805176,10.805999755859375z"></path></g><g opacity="1" transform="matrix(1,0,0,1,670.7160034179688,481.7829895019531)"><path fill="rgb(255,255,255)" fill-opacity="1" d=" M-10.017000198364258,-6.320000171661377 C-10.017000198364258,-6.320000171661377 6.4679999351501465,9.951000213623047 6.4679999351501465,9.951000213623047 C6.4679999351501465,9.951000213623047 8.180999755859375,8.21500015258789 8.180999755859375,8.21500015258789 C10.652000427246094,5.711999893188477 10.625,1.6790000200271606 8.121999740600586,-0.7919999957084656 C8.121999740600586,-0.7919999957084656 0.703000009059906,-8.11400032043457 0.703000009059906,-8.11400032043457 C-1.7999999523162842,-10.585000038146973 -5.833000183105469,-10.559000015258789 -8.303999900817871,-8.055999755859375 C-8.303999900817871,-8.055999755859375 -10.017000198364258,-6.320000171661377 -10.017000198364258,-6.320000171661377z"></path><path stroke-linecap="round" stroke-linejoin="round" fill-opacity="0" stroke="rgb(32,40,112)" stroke-opacity="1" stroke-width="2" d=" M-10.017000198364258,-6.320000171661377 C-10.017000198364258,-6.320000171661377 6.4679999351501465,9.951000213623047 6.4679999351501465,9.951000213623047 C6.4679999351501465,9.951000213623047 8.180999755859375,8.21500015258789 8.180999755859375,8.21500015258789 C10.652000427246094,5.711999893188477 10.625,1.6790000200271606 8.121999740600586,-0.7919999957084656 C8.121999740600586,-0.7919999957084656 0.703000009059906,-8.11400032043457 0.703000009059906,-8.11400032043457 C-1.7999999523162842,-10.585000038146973 -5.833000183105469,-10.559000015258789 -8.303999900817871,-8.055999755859375 C-8.303999900817871,-8.055999755859375 -10.017000198364258,-6.320000171661377 -10.017000198364258,-6.320000171661377z"></path></g></g></g><g transform="matrix(0.9987933039665222,-0.0491112545132637,0.0491112545132637,0.9987933039665222,-29.34295654296875,31.40240478515625)" opacity="1" style="display: block;"><g opacity="1" transform="matrix(1,0,0,1,0,0)"><g opacity="1" transform="matrix(1,0,0,1,636.1950073242188,516.7739868164062)"><path fill="rgb(255,255,255)" fill-opacity="1" d=" M31.30900001525879,47.17499923706055 C31.30900001525879,47.17499923706055 -47.58000183105469,-30.69099998474121 -47.58000183105469,-30.69099998474121 C-47.58000183105469,-30.69099998474121 -31.30900001525879,-47.17499923706055 -31.30900001525879,-47.17499923706055 C-31.30900001525879,-47.17499923706055 47.58000183105469,30.69099998474121 47.58000183105469,30.69099998474121 C47.58000183105469,30.69099998474121 31.30900001525879,47.17499923706055 31.30900001525879,47.17499923706055z"></path><path stroke-linecap="round" stroke-linejoin="round" fill-opacity="0" stroke="rgb(32,40,112)" stroke-opacity="1" stroke-width="2" d=" M31.30900001525879,47.17499923706055 C31.30900001525879,47.17499923706055 -47.58000183105469,-30.69099998474121 -47.58000183105469,-30.69099998474121 C-47.58000183105469,-30.69099998474121 -31.30900001525879,-47.17499923706055 -31.30900001525879,-47.17499923706055 C-31.30900001525879,-47.17499923706055 47.58000183105469,30.69099998474121 47.58000183105469,30.69099998474121 C47.58000183105469,30.69099998474121 31.30900001525879,47.17499923706055 31.30900001525879,47.17499923706055z"></path></g><g opacity="1" transform="matrix(1,0,0,1,613.9660034179688,486.697998046875)"><path stroke-linecap="round" stroke-linejoin="round" fill-opacity="0" stroke="rgb(32,40,112)" stroke-opacity="1" stroke-width="2" d=" M-4.067999839782715,4.120999813079834 C-4.067999839782715,4.120999813079834 4.067999839782715,-4.120999813079834 4.067999839782715,-4.120999813079834"></path></g><g opacity="1" transform="matrix(1,0,0,1,627.114013671875,499.6759948730469)"><path stroke-linecap="round" stroke-linejoin="round" fill-opacity="0" stroke="rgb(32,40,112)" stroke-opacity="1" stroke-width="2" d=" M-4.067999839782715,4.120999813079834 C-4.067999839782715,4.120999813079834 4.067999839782715,-4.120999813079834 4.067999839782715,-4.120999813079834"></path></g><g opacity="1" transform="matrix(1,0,0,1,640.2630004882812,512.6530151367188)"><path stroke-linecap="round" stroke-linejoin="round" fill-opacity="0" stroke="rgb(32,40,112)" stroke-opacity="1" stroke-width="2" d=" M-4.067999839782715,4.120999813079834 C-4.067999839782715,4.120999813079834 4.067999839782715,-4.120999813079834 4.067999839782715,-4.120999813079834"></path></g><g opacity="1" transform="matrix(1,0,0,1,653.4110107421875,525.6309814453125)"><path stroke-linecap="round" stroke-linejoin="round" fill-opacity="0" stroke="rgb(32,40,112)" stroke-opacity="1" stroke-width="2" d=" M-4.067999839782715,4.120999813079834 C-4.067999839782715,4.120999813079834 4.067999839782715,-4.120999813079834 4.067999839782715,-4.120999813079834"></path></g><g opacity="1" transform="matrix(1,0,0,1,666.5590209960938,538.6090087890625)"><path stroke-linecap="round" stroke-linejoin="round" fill-opacity="0" stroke="rgb(32,40,112)" stroke-opacity="1" stroke-width="2" d=" M-4.067999839782715,4.120999813079834 C-4.067999839782715,4.120999813079834 4.067999839782715,-4.120999813079834 4.067999839782715,-4.120999813079834"></path></g></g></g><g style="display: none;"><g><g><path></path><path stroke-linecap="round" stroke-linejoin="round" fill-opacity="0"></path></g><g><path stroke-linecap="round" stroke-linejoin="round" fill-opacity="0"></path></g><g><path stroke-linecap="round" stroke-linejoin="round" fill-opacity="0"></path></g><g><path stroke-linecap="round" stroke-linejoin="round" fill-opacity="0"></path></g><g><path stroke-linecap="round" stroke-linejoin="round" fill-opacity="0"></path></g><g><path stroke-linecap="round" stroke-linejoin="round" fill-opacity="0"></path></g></g></g><g style="display: none;"><g><g><path></path><path stroke-linecap="butt" stroke-linejoin="miter" fill-opacity="0" stroke-miterlimit="10"></path></g><g><path stroke-linecap="round" stroke-linejoin="round" fill-opacity="0"></path></g><g><path></path><path stroke-linecap="round" stroke-linejoin="round" fill-opacity="0"></path></g></g></g><g style="display: none;"><g><g><path></path><path stroke-linecap="butt" stroke-linejoin="miter" fill-opacity="0" stroke-miterlimit="10"></path></g><g><path stroke-linecap="round" stroke-linejoin="round" fill-opacity="0"></path></g><g><path></path><path stroke-linecap="round" stroke-linejoin="round" fill-opacity="0"></path></g></g></g><g style="display: none;"><g><g><path></path><path stroke-linecap="round" stroke-linejoin="round" fill-opacity="0"></path></g><g><path stroke-linecap="round" stroke-linejoin="round" fill-opacity="0"></path></g><g><path stroke-linecap="round" stroke-linejoin="round" fill-opacity="0"></path></g><g><path stroke-linecap="round" stroke-linejoin="round" fill-opacity="0"></path></g><g><path stroke-linecap="round" stroke-linejoin="round" fill-opacity="0"></path></g><g><path stroke-linecap="round" stroke-linejoin="round" fill-opacity="0"></path></g></g></g><g transform="matrix(0.9778928756713867,0.20910656452178955,-0.20910656452178955,0.9778928756713867,182.90789794921875,-135.126708984375)" opacity="1" style="display: block;"><g opacity="1" transform="matrix(1,0,0,1,665.7839965820312,739.0919799804688)"><path fill="rgb(255,255,255)" fill-opacity="1" d=" M50.417999267578125,0 C50.417999267578125,-27.844999313354492 27.844999313354492,-50.417999267578125 0,-50.417999267578125 C-27.844999313354492,-50.417999267578125 -50.417999267578125,-27.844999313354492 -50.417999267578125,0 C-50.417999267578125,27.844999313354492 -27.844999313354492,50.417999267578125 0,50.417999267578125 C27.844999313354492,50.417999267578125 50.417999267578125,27.844999313354492 50.417999267578125,0z"></path><path stroke-linecap="round" stroke-linejoin="round" fill-opacity="0" stroke="rgb(32,40,112)" stroke-opacity="1" stroke-width="2" d=" M50.417999267578125,0 C50.417999267578125,-27.844999313354492 27.844999313354492,-50.417999267578125 0,-50.417999267578125 C-27.844999313354492,-50.417999267578125 -50.417999267578125,-27.844999313354492 -50.417999267578125,0 C-50.417999267578125,27.844999313354492 -27.844999313354492,50.417999267578125 0,50.417999267578125 C27.844999313354492,50.417999267578125 50.417999267578125,27.844999313354492 50.417999267578125,0z"></path></g></g><g mask="url(#__lottie_element_39_1)" style="display: block;"><g transform="matrix(0.9778928756713867,0.20910656452178955,-0.20910656452178955,0.9778928756713867,182.90789794921875,-135.126708984375)" opacity="1"><g opacity="1" transform="matrix(1,0,0,1,669.5260009765625,739.0919799804688)"><path stroke-linecap="round" stroke-linejoin="round" fill-opacity="0" stroke="rgb(32,40,112)" stroke-opacity="1" stroke-width="2" d=" M-26.485000610351562,-3.7209999561309814 C-26.485000610351562,-3.7209999561309814 -6.3480000495910645,16.41699981689453 -6.3480000495910645,16.41699981689453 C-6.3480000495910645,16.41699981689453 26.485000610351562,-16.41699981689453 26.485000610351562,-16.41699981689453"></path></g></g></g><g transform="matrix(1,0,0,1,792.7020263671875,1281.927978515625)" opacity="1" style="display: block;"><g opacity="1" transform="matrix(1,0,0,1,0,0)"><path fill="rgb(32,40,112)" fill-opacity="1" d=" M-150.05999755859375,-131.1009979248047 C-115.39700317382812,-148.6909942626953 -44.52000045776367,-166.74099731445312 -44.52000045776367,-166.74099731445312 C-44.52000045776367,-166.74099731445312 -34.17300033569336,-146.0469970703125 1.0069999694824219,-146.0469970703125 C41.36199951171875,-146.0469970703125 48.60300064086914,-166.74099731445312 48.60300064086914,-166.74099731445312 C48.60300064086914,-166.74099731445312 114.8239974975586,-149.49600219726562 150.00399780273438,-130.1820068359375 C151.54600524902344,-129.33599853515625 120.802001953125,-48.095001220703125 120.802001953125,-48.095001220703125 C120.802001953125,-48.095001220703125 123.1259994506836,107.07099914550781 124.48100280761719,129.531005859375 C125.78900146484375,151.2050018310547 121.96299743652344,161.46600341796875 120.72799682617188,166.74099731445312 C120.72799682617188,166.74099731445312 -124.99700164794922,166.71800231933594 -124.99700164794922,166.71800231933594 C-124.99700164794922,166.71800231933594 -130.7449951171875,153.6739959716797 -130.7449951171875,139.8780059814453 C-130.7449951171875,97.77799987792969 -125.5719985961914,38.474998474121094 -122.12300109863281,-48.439998626708984"></path></g></g><g transform="matrix(1,0,0,1,0,0)" opacity="1" style="display: block;"><g opacity="1" transform="matrix(1,0,0,1,795.3510131835938,1117.407958984375)"><path fill="rgb(255,255,255)" fill-opacity="1" d=" M45.00699996948242,0 C45.00699996948242,24.856000900268555 24.856000900268555,45.00699996948242 0,45.00699996948242 C-24.856000900268555,45.00699996948242 -45.00699996948242,24.856000900268555 -45.00699996948242,0 C-45.00699996948242,-24.856000900268555 -24.856000900268555,-45.00699996948242 0,-45.00699996948242 C24.856000900268555,-45.00699996948242 45.00699996948242,-24.856000900268555 45.00699996948242,0z"></path><path stroke-linecap="round" stroke-linejoin="round" fill-opacity="0" stroke="rgb(32,40,112)" stroke-opacity="1" stroke-width="2" d=" M45.00699996948242,0 C45.00699996948242,24.856000900268555 24.856000900268555,45.00699996948242 0,45.00699996948242 C-24.856000900268555,45.00699996948242 -45.00699996948242,24.856000900268555 -45.00699996948242,0 C-45.00699996948242,-24.856000900268555 -24.856000900268555,-45.00699996948242 0,-45.00699996948242 C24.856000900268555,-45.00699996948242 45.00699996948242,-24.856000900268555 45.00699996948242,0z"></path></g><g opacity="1" transform="matrix(1,0,0,1,794.3800048828125,1064.260986328125)"><path fill="rgb(255,255,255)" fill-opacity="1" d=" M-44.0359992980957,53.14699935913086 C-44.0359992980957,53.14699935913086 -45.840999603271484,-54.52199935913086 -45.840999603271484,-54.52199935913086 C-45.840999603271484,-54.52199935913086 45.07699966430664,-49.981998443603516 45.07699966430664,-49.981998443603516 C45.07699966430664,-49.981998443603516 45.840999603271484,54.52199935913086 45.840999603271484,54.52199935913086"></path><path stroke-linecap="round" stroke-linejoin="round" fill-opacity="0" stroke="rgb(32,40,112)" stroke-opacity="1" stroke-width="2" d=" M-44.0359992980957,53.14699935913086 C-44.0359992980957,53.14699935913086 -45.840999603271484,-54.52199935913086 -45.840999603271484,-54.52199935913086 C-45.840999603271484,-54.52199935913086 45.07699966430664,-49.981998443603516 45.07699966430664,-49.981998443603516 C45.07699966430664,-49.981998443603516 45.840999603271484,54.52199935913086 45.840999603271484,54.52199935913086"></path></g><g opacity="1" transform="matrix(1,0,0,1,803.7379760742188,1054.77099609375)"><path fill="rgb(32,40,112)" fill-opacity="1" d=" M-36.87699890136719,-31.878999710083008 C-36.87699890136719,-31.878999710083008 -36.40700149536133,45.63399887084961 35.46799850463867,34.35900115966797 C35.46799850463867,34.35900115966797 36.87699890136719,-35.47999954223633 36.87699890136719,-35.47999954223633 C36.87699890136719,-35.47999954223633 -36.87699890136719,-31.878999710083008 -36.87699890136719,-31.878999710083008z"></path></g></g><g transform="matrix(1,0,0,1,0,0)" opacity="1" style="display: block;"><g opacity="1" transform="matrix(1,0,0,1,795.7210083007812,1034.9110107421875)"><path fill="rgb(255,255,255)" fill-opacity="1" d=" M48.237998962402344,0 C48.237998962402344,-26.641000747680664 26.641000747680664,-48.237998962402344 0,-48.237998962402344 C-26.641000747680664,-48.237998962402344 -48.237998962402344,-26.641000747680664 -48.237998962402344,0 C-48.237998962402344,26.641000747680664 -26.641000747680664,48.237998962402344 0,48.237998962402344 C26.641000747680664,48.237998962402344 48.237998962402344,26.641000747680664 48.237998962402344,0z"></path></g><g opacity="1" transform="matrix(1,0,0,1,0,0)"><g opacity="1" transform="matrix(1,0,0,1,732.7880249023438,1013.916015625)"><path fill="rgb(255,255,255)" fill-opacity="1" d=" M14.368000030517578,-5.614999771118164 C14.368000030517578,-5.614999771118164 8.855999946594238,-20.084999084472656 -1.4800000190734863,-19.395999908447266 C-12.501999855041504,-18.660999298095703 -15.720000267028809,-10.439000129699707 -13.883000373840332,1.274999976158142 C-11.9399995803833,13.661999702453613 -0.3409999907016754,19.420000076293945 2.424999952316284,19.420000076293945 C7.708000183105469,19.420000076293945 11.383000373840332,15.975000381469727 11.842000007629395,11.840999603271484"></path><path stroke-linecap="round" stroke-linejoin="round" fill-opacity="0" stroke="rgb(32,40,112)" stroke-opacity="1" stroke-width="2" d=" M14.368000030517578,-5.614999771118164 C14.368000030517578,-5.614999771118164 8.855999946594238,-20.084999084472656 -1.4800000190734863,-19.395999908447266 C-12.501999855041504,-18.660999298095703 -15.720000267028809,-10.439000129699707 -13.883000373840332,1.274999976158142 C-11.9399995803833,13.661999702453613 -0.3409999907016754,19.420000076293945 2.424999952316284,19.420000076293945 C7.708000183105469,19.420000076293945 11.383000373840332,15.975000381469727 11.842000007629395,11.840999603271484"></path></g><g opacity="1" transform="matrix(1,0,0,1,732.2269897460938,1008.083984375)"><path fill="rgb(255,255,255)" fill-opacity="1" d=" M-5.9720001220703125,-2.5390000343322754 C-5.9720001220703125,-2.5390000343322754 0,-8.281000137329102 5.9720001220703125,3.8919999599456787 C5.9720001220703125,3.8919999599456787 0.46000000834465027,1.1360000371932983 -2.75600004196167,3.433000087738037"></path><path stroke-linecap="round" stroke-linejoin="round" fill-opacity="0" stroke="rgb(32,40,112)" stroke-opacity="1" stroke-width="2" d=" M-5.9720001220703125,-2.5390000343322754 C-5.9720001220703125,-2.5390000343322754 0,-8.281000137329102 5.9720001220703125,3.8919999599456787 C5.9720001220703125,3.8919999599456787 0.46000000834465027,1.1360000371932983 -2.75600004196167,3.433000087738037"></path></g></g><g opacity="1" transform="matrix(1,0,0,1,0,0)"><g opacity="1" transform="matrix(1,0,0,1,855.9719848632812,1013.916015625)"><path fill="rgb(255,255,255)" fill-opacity="1" d=" M-14.368000030517578,-5.614999771118164 C-14.368000030517578,-5.614999771118164 -8.855999946594238,-20.084999084472656 1.4800000190734863,-19.395999908447266 C12.501999855041504,-18.660999298095703 15.720000267028809,-10.439000129699707 13.883000373840332,1.274999976158142 C11.9399995803833,13.661999702453613 0.3409999907016754,19.420000076293945 -2.424999952316284,19.420000076293945 C-7.708000183105469,19.420000076293945 -11.383000373840332,15.975000381469727 -11.842000007629395,11.840999603271484"></path><path stroke-linecap="round" stroke-linejoin="round" fill-opacity="0" stroke="rgb(32,40,112)" stroke-opacity="1" stroke-width="2" d=" M-14.368000030517578,-5.614999771118164 C-14.368000030517578,-5.614999771118164 -8.855999946594238,-20.084999084472656 1.4800000190734863,-19.395999908447266 C12.501999855041504,-18.660999298095703 15.720000267028809,-10.439000129699707 13.883000373840332,1.274999976158142 C11.9399995803833,13.661999702453613 0.3409999907016754,19.420000076293945 -2.424999952316284,19.420000076293945 C-7.708000183105469,19.420000076293945 -11.383000373840332,15.975000381469727 -11.842000007629395,11.840999603271484"></path></g><g opacity="1" transform="matrix(1,0,0,1,856.5330200195312,1008.083984375)"><path fill="rgb(255,255,255)" fill-opacity="1" d=" M5.9720001220703125,-2.5390000343322754 C5.9720001220703125,-2.5390000343322754 0,-8.281000137329102 -5.9720001220703125,3.8919999599456787 C-5.9720001220703125,3.8919999599456787 -0.46000000834465027,1.1360000371932983 2.75600004196167,3.433000087738037"></path><path stroke-linecap="round" stroke-linejoin="round" fill-opacity="0" stroke="rgb(32,40,112)" stroke-opacity="1" stroke-width="2" d=" M5.9720001220703125,-2.5390000343322754 C5.9720001220703125,-2.5390000343322754 0,-8.281000137329102 -5.9720001220703125,3.8919999599456787 C-5.9720001220703125,3.8919999599456787 -0.46000000834465027,1.1360000371932983 2.75600004196167,3.433000087738037"></path></g></g><g opacity="1" transform="matrix(1,0,0,1,795.1890258789062,1014.7769775390625)"><path fill="rgb(255,255,255)" fill-opacity="1" d=" M-26.812000274658203,61.604000091552734 C-2.753999948501587,75.79299926757812 31.04800033569336,66.57099914550781 42.39500045776367,45.5629997253418 C54.167999267578125,23.764999389648438 52.65299987792969,-16.798999786376953 52.65299987792969,-16.798999786376953 C52.65299987792969,-16.798999786376953 55.96500015258789,-52.2140007019043 25.993999481201172,-63.987998962402344 C4.459000110626221,-72.447998046875 -45.266998291015625,-73.98899841308594 -52.02299880981445,-19.94700050354004 C-54.66999816894531,1.2280000448226929 -51.06700134277344,47.29899978637695 -26.812000274658203,61.604000091552734z"></path></g><g opacity="1" transform="matrix(1,0,0,1,795.4609985351562,972.4869995117188)"><path stroke-linecap="round" stroke-linejoin="round" fill-opacity="0" stroke="rgb(32,40,112)" stroke-opacity="1" stroke-width="2" d=" M-52.29499816894531,22.343000411987305 C-45.53900146484375,-31.698999404907227 4.185999870300293,-30.159000396728516 25.72100067138672,-21.698999404907227 C55.69200134277344,-9.925000190734863 52.16699981689453,26.131000518798828 52.16699981689453,26.131000518798828"></path></g><g opacity="1" transform="matrix(1,0,0,1,794.89697265625,1054.0560302734375)"><path stroke-linecap="round" stroke-linejoin="round" fill-opacity="0" stroke="rgb(32,40,112)" stroke-opacity="1" stroke-width="2" d=" M-51.7760009765625,-29.364999771118164 C-51.236000061035156,-24.06599998474121 -50.388999938964844,-18.639999389648438 -49.15800094604492,-13.36299991607666 C-45.54999923706055,2.1010000705718994 -38.22200012207031,15.510000228881836 -26.520000457763672,22.323999404907227 C-2.1519999504089355,36.51300048828125 29.74799919128418,28.31399917602539 42.45399856567383,6.166999816894531 C47.707000732421875,-2.989000082015991 50.59299850463867,-15.017999649047852 51.7760009765625,-26.6200008392334"></path></g><g opacity="1" transform="matrix(1,0,0,1,793.3839721679688,965.3489990234375)"><path fill="rgb(249,74,130)" fill-opacity="1" d=" M59.525001525878906,-2.8459999561309814 C56.10599899291992,-21.80699920654297 48.02399826049805,-36.106998443603516 32.17100143432617,-35.48500061035156 C32.17100143432617,-35.48500061035156 -23.780000686645508,-67.19100189208984 -53.01599884033203,-24.138999938964844 C-65.88300323486328,-5.191999912261963 -61.20500183105469,28.256999969482422 -61.20500183105469,28.256999969482422 C-61.20500183105469,28.256999969482422 -56.60900115966797,27.98200035095215 -53.220001220703125,31.725000381469727 C-49.314998626708984,36.03799819946289 -48.974998474121094,46.733001708984375 -48.974998474121094,46.733001708984375 C-48.974998474121094,46.733001708984375 -41.59299850463867,41.37099838256836 -41.59299850463867,41.37099838256836 C-41.59299850463867,41.37099838256836 -40.93600082397461,25.816999435424805 -36.4640007019043,11.762999534606934 C-33.20000076293945,1.5049999952316284 -24.190000534057617,3.8389999866485596 -8.548999786376953,10.831000328063965 C17.87299919128418,22.64299964904785 23.000999450683594,10.831000328063965 23.000999450683594,10.831000328063965 C23.000999450683594,10.831000328063965 30.82900047302246,15.630999565124512 35.27899932861328,14.25 C42.290000915527344,12.074000358581543 42.11800003051758,6.633999824523926 42.11800003051758,6.633999824523926 C42.11800003051758,6.633999824523926 45.597999572753906,37.874000549316406 45.597999572753906,37.874000549316406 C45.597999572753906,37.874000549316406 53.058998107910156,44.167999267578125 53.058998107910156,44.167999267578125 C53.058998107910156,44.167999267578125 53.25299835205078,39.255001068115234 54.39899826049805,34.82400131225586 C55.992000579833984,28.665000915527344 62.034000396728516,28.31599998474121 62.034000396728516,28.31599998474121 C62.034000396728516,28.31599998474121 60.904998779296875,4.808000087738037 59.525001525878906,-2.8459999561309814z"></path></g></g><g transform="matrix(1,0,0,1,0,0)" opacity="1" style="display: block;"><g opacity="1" transform="matrix(1,0,0,1,0,0)"><g opacity="1" transform="matrix(1,0,0,1,773.6740112304688,995.8829956054688)"><path fill="rgb(32,40,112)" fill-opacity="1" d=" M14.423999786376953,0.008999999612569809 C14.649999618530273,3.0360000133514404 7.955999851226807,3.431999921798706 -0.009999999776482582,4.0269999504089355 C-7.97599983215332,4.622000217437744 -14.197999954223633,5.191999912261963 -14.423999786376953,2.1649999618530273 C-14.649999618530273,-0.8619999885559082 -8.375,-3.7990000247955322 -0.4090000092983246,-4.394000053405762 C7.557000160217285,-4.988999843597412 14.197999954223633,-3.0179998874664307 14.423999786376953,0.008999999612569809z"></path></g><g opacity="1" transform="matrix(1,0,0,1,775.5089721679688,1017.1339721679688)"><path fill="rgb(32,40,112)" fill-opacity="1" d=" M2.7769999504089355,0 C2.7769999504089355,1.5329999923706055 1.5329999923706055,2.7769999504089355 0,2.7769999504089355 C-1.5329999923706055,2.7769999504089355 -2.7769999504089355,1.5329999923706055 -2.7769999504089355,0 C-2.7769999504089355,-1.5329999923706055 -1.5329999923706055,-2.7769999504089355 0,-2.7769999504089355 C1.5329999923706055,-2.7769999504089355 2.7769999504089355,-1.5329999923706055 2.7769999504089355,0z"></path></g><g opacity="1" transform="matrix(1,0,0,1,816.406005859375,995.3330078125)"><path fill="rgb(32,40,112)" fill-opacity="1" d=" M-14.423999786376953,0.008999999612569809 C-14.649999618530273,3.0360000133514404 -7.955999851226807,3.431999921798706 0.009999999776482582,4.0269999504089355 C7.97599983215332,4.622000217437744 14.197999954223633,5.191999912261963 14.423999786376953,2.1649999618530273 C14.649999618530273,-0.8619999885559082 8.375,-3.7990000247955322 0.4090000092983246,-4.394000053405762 C-7.557000160217285,-4.988999843597412 -14.197999954223633,-3.0179998874664307 -14.423999786376953,0.008999999612569809z"></path></g><g opacity="1" transform="matrix(1,0,0,1,814.260009765625,1016.3519897460938)"><path fill="rgb(32,40,112)" fill-opacity="1" d=" M-2.7769999504089355,0 C-2.7769999504089355,1.5329999923706055 -1.5329999923706055,2.7769999504089355 0,2.7769999504089355 C1.5329999923706055,2.7769999504089355 2.7769999504089355,1.5329999923706055 2.7769999504089355,0 C2.7769999504089355,-1.5329999923706055 1.5329999923706055,-2.7769999504089355 0,-2.7769999504089355 C-1.5329999923706055,-2.7769999504089355 -2.7769999504089355,-1.5329999923706055 -2.7769999504089355,0z"></path></g><g opacity="1" transform="matrix(1,0,0,1,0,0)"><g opacity="1" transform="matrix(1,0,0,1,792.97900390625,1018.9140014648438)"><path fill="rgb(255,255,255)" fill-opacity="1" d=" M0.20100000500679016,-6.15500020980835 C0.20100000500679016,-6.15500020980835 0.7360000014305115,1.8730000257492065 -0.33399999141693115,6.15500020980835"></path><path stroke-linecap="round" stroke-linejoin="round" fill-opacity="0" stroke="rgb(32,40,112)" stroke-opacity="1" stroke-width="2" d=" M0.20100000500679016,-6.15500020980835 C0.20100000500679016,-6.15500020980835 0.7360000014305115,1.8730000257492065 -0.33399999141693115,6.15500020980835"></path></g><g opacity="1" transform="matrix(1,0,0,1,795.7210083007812,1026.0689697265625)"><path fill="rgb(255,255,255)" fill-opacity="1" d=" M-7.359000205993652,1.1410000324249268 C-7.359000205993652,1.1410000324249268 0.4009999930858612,-3.4070000648498535 7.359000205993652,0.33899998664855957"></path><path stroke-linecap="round" stroke-linejoin="round" fill-opacity="0" stroke="rgb(32,40,112)" stroke-opacity="1" stroke-width="2" d=" M-7.359000205993652,1.1410000324249268 C-7.359000205993652,1.1410000324249268 0.4009999930858612,-3.4070000648498535 7.359000205993652,0.33899998664855957"></path></g></g><g opacity="1" transform="matrix(1,0,0,1,796.6929931640625,1044.8289794921875)"><path fill="rgb(255,255,255)" fill-opacity="1" d=" M-6.15500020980835,-0.06599999964237213 C-3.319999933242798,1.2910000085830688 1.8700000047683716,2.9079999923706055 6.15500020980835,-1.4040000438690186 C6.15500020980835,-1.4040000438690186 1.8700000047683716,3.7829999923706055 -6.130000114440918,-0.09200000017881393"></path><path stroke-linecap="round" stroke-linejoin="round" fill-opacity="0" stroke="rgb(32,40,112)" stroke-opacity="1" stroke-width="2" d=" M-6.15500020980835,-0.06599999964237213 C-3.319999933242798,1.2910000085830688 1.8700000047683716,2.9079999923706055 6.15500020980835,-1.4040000438690186 C6.15500020980835,-1.4040000438690186 1.8700000047683716,3.7829999923706055 -6.130000114440918,-0.09200000017881393"></path></g></g></g><g transform="matrix(0.9999999403953552,0,0,0.9999999403953552,0.00244140625,-10.001220703125)" opacity="1" style="display: block;"><g opacity="1" transform="matrix(1,0,0,1,891.8800048828125,1374.8289794921875)"><path fill="rgb(255,255,255)" fill-opacity="1" d=" M-48.96900177001953,0 C-48.96900177001953,27.045000076293945 -27.045000076293945,48.96900177001953 0,48.96900177001953 C27.045000076293945,48.96900177001953 48.96900177001953,27.045000076293945 48.96900177001953,0 C48.96900177001953,-27.045000076293945 27.045000076293945,-48.96900177001953 0,-48.96900177001953 C-27.045000076293945,-48.96900177001953 -48.96900177001953,-27.045000076293945 -48.96900177001953,0z"></path><path stroke-linecap="round" stroke-linejoin="round" fill-opacity="0" stroke="rgb(32,40,112)" stroke-opacity="1" stroke-width="2" d=" M-48.96900177001953,0 C-48.96900177001953,27.045000076293945 -27.045000076293945,48.96900177001953 0,48.96900177001953 C27.045000076293945,48.96900177001953 48.96900177001953,27.045000076293945 48.96900177001953,0 C48.96900177001953,-27.045000076293945 27.045000076293945,-48.96900177001953 0,-48.96900177001953 C-27.045000076293945,-48.96900177001953 -48.96900177001953,-27.045000076293945 -48.96900177001953,0z"></path></g><g opacity="1" transform="matrix(1,0,0,1,834.4959716796875,1364.6199951171875)"><path fill="rgb(255,255,255)" fill-opacity="1" d=" M58.43299865722656,-22.78700065612793 C58.43299865722656,-22.78700065612793 16.458999633789062,-59.630001068115234 3.867000102996826,-60.5629997253418 C-8.725000381469727,-61.49599838256836 -56.430999755859375,-35.83599853515625 -60.95800018310547,-30.014999389648438 C-66.26300048828125,-23.194000244140625 -59.61800003051758,-17.597999572753906 -59.61800003051758,-17.597999572753906 C-59.61800003051758,-17.597999572753906 -67.43000030517578,-8.852999687194824 -64.16500091552734,-3.256999969482422 C-60.900001525878906,2.3389999866485596 -54.895999908447266,0.29899999499320984 -54.895999908447266,0.29899999499320984 C-54.895999908447266,0.29899999499320984 -57.22800064086914,8.694000244140625 -52.56399917602539,12.890999794006348 C-47.900001525878906,17.08799934387207 -42.77000045776367,16.1560001373291 -42.77000045776367,16.1560001373291 C-42.77000045776367,16.1560001373291 -47.72600173950195,24.841999053955078 -40.72999954223633,28.572999954223633 C-33.73400115966797,32.30400085449219 -5.4019999504089355,18.429000854492188 -5.4019999504089355,18.429000854492188 C-5.4019999504089355,18.429000854492188 14.593999862670898,50.20100021362305 26.719999313354492,56.263999938964844 C38.84600067138672,62.32699966430664 57.034000396728516,60.928001403808594 64.96199798583984,58.59600067138672"></path><path stroke-linecap="round" stroke-linejoin="round" fill-opacity="0" stroke="rgb(32,40,112)" stroke-opacity="1" stroke-width="2" d=" M58.43299865722656,-22.78700065612793 C58.43299865722656,-22.78700065612793 16.458999633789062,-59.630001068115234 3.867000102996826,-60.5629997253418 C-8.725000381469727,-61.49599838256836 -56.430999755859375,-35.83599853515625 -60.95800018310547,-30.014999389648438 C-66.26300048828125,-23.194000244140625 -59.61800003051758,-17.597999572753906 -59.61800003051758,-17.597999572753906 C-59.61800003051758,-17.597999572753906 -67.43000030517578,-8.852999687194824 -64.16500091552734,-3.256999969482422 C-60.900001525878906,2.3389999866485596 -54.895999908447266,0.29899999499320984 -54.895999908447266,0.29899999499320984 C-54.895999908447266,0.29899999499320984 -57.22800064086914,8.694000244140625 -52.56399917602539,12.890999794006348 C-47.900001525878906,17.08799934387207 -42.77000045776367,16.1560001373291 -42.77000045776367,16.1560001373291 C-42.77000045776367,16.1560001373291 -47.72600173950195,24.841999053955078 -40.72999954223633,28.572999954223633 C-33.73400115966797,32.30400085449219 -5.4019999504089355,18.429000854492188 -5.4019999504089355,18.429000854492188 C-5.4019999504089355,18.429000854492188 14.593999862670898,50.20100021362305 26.719999313354492,56.263999938964844 C38.84600067138672,62.32699966430664 57.034000396728516,60.928001403808594 64.96199798583984,58.59600067138672"></path></g><g opacity="1" transform="matrix(1,0,0,1,808.02001953125,1333.9119873046875)"><path fill="rgb(255,255,255)" fill-opacity="1" d=" M-33.141998291015625,13.635000228881836 C-33.141998291015625,13.635000228881836 -3.7939999103546143,-5.809000015258789 16.351999282836914,-12.364999771118164 C23.81800079345703,-14.795000076293945 30.05299949645996,-13.222999572753906 33.141998291015625,-11.89900016784668"></path><path stroke-linecap="round" stroke-linejoin="round" fill-opacity="0" stroke="rgb(32,40,112)" stroke-opacity="1" stroke-width="2" d=" M-33.141998291015625,13.635000228881836 C-33.141998291015625,13.635000228881836 -3.7939999103546143,-5.809000015258789 16.351999282836914,-12.364999771118164 C23.81800079345703,-14.795000076293945 30.05299949645996,-13.222999572753906 33.141998291015625,-11.89900016784668"></path></g><g opacity="1" transform="matrix(1,0,0,1,810.031005859375,1352.4730224609375)"><path fill="rgb(255,255,255)" fill-opacity="1" d=" M-30.430999755859375,12.446000099182129 C-30.430999755859375,12.446000099182129 1.281999945640564,-6.441999912261963 12.008999824523926,-10.638999938964844 C22.736000061035156,-14.836000442504883 30.430999755859375,-10.406000137329102 30.430999755859375,-10.406000137329102"></path><path stroke-linecap="round" stroke-linejoin="round" fill-opacity="0" stroke="rgb(32,40,112)" stroke-opacity="1" stroke-width="2" d=" M-30.430999755859375,12.446000099182129 C-30.430999755859375,12.446000099182129 1.281999945640564,-6.441999912261963 12.008999824523926,-10.638999938964844 C22.736000061035156,-14.836000442504883 30.430999755859375,-10.406000137329102 30.430999755859375,-10.406000137329102"></path></g><g opacity="1" transform="matrix(1,0,0,1,815.9190063476562,1370.9759521484375)"><path fill="rgb(255,255,255)" fill-opacity="1" d=" M-24.19300079345703,9.798999786376953 C-24.19300079345703,9.798999786376953 -2.0399999618530273,-6.057000160217285 8.220000267028809,-8.854999542236328 C18.479999542236328,-11.652999877929688 24.19300079345703,-7.340000152587891 24.19300079345703,-7.340000152587891"></path><path stroke-linecap="round" stroke-linejoin="round" fill-opacity="0" stroke="rgb(32,40,112)" stroke-opacity="1" stroke-width="2" d=" M-24.19300079345703,9.798999786376953 C-24.19300079345703,9.798999786376953 -2.0399999618530273,-6.057000160217285 8.220000267028809,-8.854999542236328 C18.479999542236328,-11.652999877929688 24.19300079345703,-7.340000152587891 24.19300079345703,-7.340000152587891"></path></g></g><g transform="matrix(0.9999997019767761,0.0007330382359214127,-0.0007330382359214127,0.9999997019767761,0.88214111328125,-0.6734619140625)" opacity="1" style="display: block;"><g opacity="1" transform="matrix(1,0,0,1,991.0180053710938,1281.928955078125)"><path fill="rgb(255,255,255)" fill-opacity="1" d=" M114.40699768066406,55.13399887084961 C114.40699768066406,55.13399887084961 -30.687999725341797,-116.23600006103516 -30.687999725341797,-116.23600006103516 C-30.687999725341797,-116.23600006103516 -114.40699768066406,-45.452999114990234 -114.40699768066406,-45.452999114990234 C-114.40699768066406,-45.452999114990234 24.12700080871582,116.23600006103516 24.12700080871582,116.23600006103516 C24.12700080871582,116.23600006103516 114.40699768066406,55.13399887084961 114.40699768066406,55.13399887084961z"></path></g><g opacity="1" transform="matrix(1,0,0,1,917.64697265625,1201.613037109375)"><path fill="rgb(32,40,112)" fill-opacity="1" d=" M-30.125999450683594,-46.948001861572266 C-56.05500030517578,-30.309999465942383 -63.58599853515625,4.197000026702881 -46.948001861572266,30.125999450683594 C-30.309999465942383,56.05500030517578 4.197000026702881,63.58599853515625 30.125999450683594,46.948001861572266 C56.05500030517578,30.309999465942383 63.58599853515625,-4.197000026702881 46.948001861572266,-30.125999450683594 C30.309999465942383,-56.05500030517578 -4.197000026702881,-63.58599853515625 -30.125999450683594,-46.948001861572266z"></path><path stroke-linecap="round" stroke-linejoin="round" fill-opacity="0" stroke="rgb(32,40,112)" stroke-opacity="1" stroke-width="2" d=" M-30.125999450683594,-46.948001861572266 C-56.05500030517578,-30.309999465942383 -63.58599853515625,4.197000026702881 -46.948001861572266,30.125999450683594 C-30.309999465942383,56.05500030517578 4.197000026702881,63.58599853515625 30.125999450683594,46.948001861572266 C56.05500030517578,30.309999465942383 63.58599853515625,-4.197000026702881 46.948001861572266,-30.125999450683594 C30.309999465942383,-56.05500030517578 -4.197000026702881,-63.58599853515625 -30.125999450683594,-46.948001861572266z"></path></g><g opacity="1" transform="matrix(1,0,0,1,955.0609741210938,1327.7950439453125)"><path fill="rgb(255,255,255)" fill-opacity="1" d=" M60.402000427246094,71.25900268554688 C60.402000427246094,71.25900268554688 -60.402000427246094,-71.25900268554688 -60.402000427246094,-71.25900268554688"></path><path stroke-linecap="round" stroke-linejoin="round" fill-opacity="0" stroke="rgb(32,40,112)" stroke-opacity="1" stroke-width="2" d=" M60.402000427246094,71.25900268554688 C60.402000427246094,71.25900268554688 -60.402000427246094,-71.25900268554688 -60.402000427246094,-71.25900268554688"></path></g><g opacity="1" transform="matrix(1,0,0,1,1032.8780517578125,1251.3790283203125)"><path fill="rgb(255,255,255)" fill-opacity="1" d=" M-72.5479965209961,-85.68499755859375 C-72.5479965209961,-85.68499755859375 72.5479965209961,85.68499755859375 72.5479965209961,85.68499755859375"></path><path stroke-linecap="round" stroke-linejoin="round" fill-opacity="0" stroke="rgb(32,40,112)" stroke-opacity="1" stroke-width="2" d=" M-72.5479965209961,-85.68499755859375 C-72.5479965209961,-85.68499755859375 72.5479965209961,85.68499755859375 72.5479965209961,85.68499755859375"></path></g><g opacity="1" transform="matrix(1,0,0,1,948.5419921875,1236.06201171875)"><path fill="rgb(32,40,112)" fill-opacity="1" d=" M-10.663999557495117,71.46099853515625 C26.46299934387207,65.63400268554688 62.051998138427734,33.43899917602539 71.93000030517578,1.88100004196167 C71.93000030517578,1.88100004196167 10.850000381469727,-71.46099853515625 10.850000381469727,-71.46099853515625 C10.850000381469727,-71.46099853515625 -71.93000030517578,0.41499999165534973 -71.93000030517578,0.41499999165534973 C-71.93000030517578,0.41499999165534973 -10.663999557495117,71.46099853515625 -10.663999557495117,71.46099853515625z"></path></g></g><g transform="matrix(0.9983084797859192,0.05813901871442795,-0.05813901871442795,0.9983084797859192,81.4422607421875,-59.5286865234375)" opacity="1" style="display: block;"><g opacity="1" transform="matrix(1,0,0,1,1064.4420166015625,1381.2490234375)"><path fill="rgb(255,255,255)" fill-opacity="1" d=" M-53.68600082397461,-8.722999572753906 C-53.255001068115234,20.924999237060547 -28.8700008392334,44.61000061035156 0.777999997138977,44.17900085449219 C30.426000595092773,43.74800109863281 54.111000061035156,19.363000869750977 53.68000030517578,-10.28499984741211 C53.492000579833984,-23.222999572753906 48.742000579833984,-35.027000427246094 40.98400115966797,-44.185001373291016 C40.98400115966797,-44.185001373291016 28.509000778198242,-56.731998443603516 28.509000778198242,-56.731998443603516"></path><path stroke-linecap="round" stroke-linejoin="round" fill-opacity="0" stroke="rgb(32,40,112)" stroke-opacity="1" stroke-width="2" d=" M-53.68600082397461,-8.722999572753906 C-53.255001068115234,20.924999237060547 -28.8700008392334,44.61000061035156 0.777999997138977,44.17900085449219 C30.426000595092773,43.74800109863281 54.111000061035156,19.363000869750977 53.68000030517578,-10.28499984741211 C53.492000579833984,-23.222999572753906 48.742000579833984,-35.027000427246094 40.98400115966797,-44.185001373291016 C40.98400115966797,-44.185001373291016 28.509000778198242,-56.731998443603516 28.509000778198242,-56.731998443603516"></path></g><g opacity="1" transform="matrix(1,0,0,1,978.1190185546875,1371.9449462890625)"><path fill="rgb(255,255,255)" fill-opacity="1" d=" M-88.63300323486328,-46.4640007019043 C-88.63300323486328,-46.4640007019043 90.16999816894531,-53.73099899291992 90.16999816894531,-53.73099899291992 C90.16999816894531,-53.73099899291992 92.69000244140625,53.73099899291992 92.69000244140625,53.73099899291992 C92.69000244140625,53.73099899291992 -89.80999755859375,52.97700119018555 -92.69000244140625,53.58300018310547"></path></g><g opacity="1" transform="matrix(1,0,0,1,978.1170043945312,1425.3570556640625)"><path stroke-linecap="round" stroke-linejoin="round" fill-opacity="0" stroke="rgb(32,40,112)" stroke-opacity="1" stroke-width="2" d=" M92.69200134277344,0.3199999928474426 C92.69200134277344,0.3199999928474426 -89.81300354003906,-0.7680000066757202 -92.69200134277344,-0.10700000077486038"></path></g><g opacity="1" transform="matrix(1,0,0,1,954.3779907226562,1322.998046875)"><path stroke-linecap="round" stroke-linejoin="round" fill-opacity="0" stroke="rgb(32,40,112)" stroke-opacity="1" stroke-width="2" d=" M-64.79499816894531,2.7209999561309814 C-64.79499816894531,2.7209999561309814 64.79499816894531,-2.7209999561309814 64.79499816894531,-2.7209999561309814"></path></g></g><g transform="matrix(1,0.000017458338334108703,-0.000017458338334108703,1,0.02410888671875,-30.0115966796875)" opacity="1" style="display: block;"><g opacity="1" transform="matrix(1,0,0,1,691.6190185546875,1374.8289794921875)"><path fill="rgb(255,255,255)" fill-opacity="1" d=" M48.96900177001953,0 C48.96900177001953,27.045000076293945 27.045000076293945,48.96900177001953 0,48.96900177001953 C-27.045000076293945,48.96900177001953 -48.96900177001953,27.045000076293945 -48.96900177001953,0 C-48.96900177001953,-27.045000076293945 -27.045000076293945,-48.96900177001953 0,-48.96900177001953 C27.045000076293945,-48.96900177001953 48.96900177001953,-27.045000076293945 48.96900177001953,0z"></path><path stroke-linecap="round" stroke-linejoin="round" fill-opacity="0" stroke="rgb(32,40,112)" stroke-opacity="1" stroke-width="2" d=" M48.96900177001953,0 C48.96900177001953,27.045000076293945 27.045000076293945,48.96900177001953 0,48.96900177001953 C-27.045000076293945,48.96900177001953 -48.96900177001953,27.045000076293945 -48.96900177001953,0 C-48.96900177001953,-27.045000076293945 -27.045000076293945,-48.96900177001953 0,-48.96900177001953 C27.045000076293945,-48.96900177001953 48.96900177001953,-27.045000076293945 48.96900177001953,0z"></path></g><g opacity="1" transform="matrix(1,0,0,1,749.0029907226562,1364.6199951171875)"><path fill="rgb(255,255,255)" fill-opacity="1" d=" M-58.43299865722656,-22.78700065612793 C-58.43299865722656,-22.78700065612793 -16.458999633789062,-59.630001068115234 -3.867000102996826,-60.5629997253418 C8.725000381469727,-61.49599838256836 56.430999755859375,-35.83599853515625 60.95800018310547,-30.014999389648438 C66.26300048828125,-23.194000244140625 59.61800003051758,-17.597999572753906 59.61800003051758,-17.597999572753906 C59.61800003051758,-17.597999572753906 67.43000030517578,-8.852999687194824 64.16500091552734,-3.256999969482422 C60.900001525878906,2.3389999866485596 54.895999908447266,0.29899999499320984 54.895999908447266,0.29899999499320984 C54.895999908447266,0.29899999499320984 57.22800064086914,8.694000244140625 52.56399917602539,12.890999794006348 C47.900001525878906,17.08799934387207 42.77000045776367,16.1560001373291 42.77000045776367,16.1560001373291 C42.77000045776367,16.1560001373291 47.72600173950195,24.841999053955078 40.72999954223633,28.572999954223633 C33.73400115966797,32.30400085449219 5.4019999504089355,18.429000854492188 5.4019999504089355,18.429000854492188 C5.4019999504089355,18.429000854492188 -14.593999862670898,50.20100021362305 -26.719999313354492,56.263999938964844 C-38.84600067138672,62.32699966430664 -57.034000396728516,60.928001403808594 -64.96199798583984,58.59600067138672"></path><path stroke-linecap="round" stroke-linejoin="round" fill-opacity="0" stroke="rgb(32,40,112)" stroke-opacity="1" stroke-width="2" d=" M-58.43299865722656,-22.78700065612793 C-58.43299865722656,-22.78700065612793 -16.458999633789062,-59.630001068115234 -3.867000102996826,-60.5629997253418 C8.725000381469727,-61.49599838256836 56.430999755859375,-35.83599853515625 60.95800018310547,-30.014999389648438 C66.26300048828125,-23.194000244140625 59.61800003051758,-17.597999572753906 59.61800003051758,-17.597999572753906 C59.61800003051758,-17.597999572753906 67.43000030517578,-8.852999687194824 64.16500091552734,-3.256999969482422 C60.900001525878906,2.3389999866485596 54.895999908447266,0.29899999499320984 54.895999908447266,0.29899999499320984 C54.895999908447266,0.29899999499320984 57.22800064086914,8.694000244140625 52.56399917602539,12.890999794006348 C47.900001525878906,17.08799934387207 42.77000045776367,16.1560001373291 42.77000045776367,16.1560001373291 C42.77000045776367,16.1560001373291 47.72600173950195,24.841999053955078 40.72999954223633,28.572999954223633 C33.73400115966797,32.30400085449219 5.4019999504089355,18.429000854492188 5.4019999504089355,18.429000854492188 C5.4019999504089355,18.429000854492188 -14.593999862670898,50.20100021362305 -26.719999313354492,56.263999938964844 C-38.84600067138672,62.32699966430664 -57.034000396728516,60.928001403808594 -64.96199798583984,58.59600067138672"></path></g><g opacity="1" transform="matrix(1,0,0,1,775.47900390625,1333.9119873046875)"><path fill="rgb(255,255,255)" fill-opacity="1" d=" M33.141998291015625,13.635000228881836 C33.141998291015625,13.635000228881836 3.7939999103546143,-5.809000015258789 -16.351999282836914,-12.364999771118164 C-23.81800079345703,-14.795000076293945 -30.05299949645996,-13.222999572753906 -33.141998291015625,-11.89900016784668"></path><path stroke-linecap="round" stroke-linejoin="round" fill-opacity="0" stroke="rgb(32,40,112)" stroke-opacity="1" stroke-width="2" d=" M33.141998291015625,13.635000228881836 C33.141998291015625,13.635000228881836 3.7939999103546143,-5.809000015258789 -16.351999282836914,-12.364999771118164 C-23.81800079345703,-14.795000076293945 -30.05299949645996,-13.222999572753906 -33.141998291015625,-11.89900016784668"></path></g><g opacity="1" transform="matrix(1,0,0,1,773.4669799804688,1352.4730224609375)"><path fill="rgb(255,255,255)" fill-opacity="1" d=" M30.430999755859375,12.446000099182129 C30.430999755859375,12.446000099182129 -1.281999945640564,-6.441999912261963 -12.008999824523926,-10.638999938964844 C-22.736000061035156,-14.836000442504883 -30.430999755859375,-10.406000137329102 -30.430999755859375,-10.406000137329102"></path><path stroke-linecap="round" stroke-linejoin="round" fill-opacity="0" stroke="rgb(32,40,112)" stroke-opacity="1" stroke-width="2" d=" M30.430999755859375,12.446000099182129 C30.430999755859375,12.446000099182129 -1.281999945640564,-6.441999912261963 -12.008999824523926,-10.638999938964844 C-22.736000061035156,-14.836000442504883 -30.430999755859375,-10.406000137329102 -30.430999755859375,-10.406000137329102"></path></g><g opacity="1" transform="matrix(1,0,0,1,767.5789794921875,1370.9759521484375)"><path fill="rgb(255,255,255)" fill-opacity="1" d=" M24.19300079345703,9.798999786376953 C24.19300079345703,9.798999786376953 2.0399999618530273,-6.057000160217285 -8.220000267028809,-8.854999542236328 C-18.479999542236328,-11.652999877929688 -24.19300079345703,-7.340000152587891 -24.19300079345703,-7.340000152587891"></path><path stroke-linecap="round" stroke-linejoin="round" fill-opacity="0" stroke="rgb(32,40,112)" stroke-opacity="1" stroke-width="2" d=" M24.19300079345703,9.798999786376953 C24.19300079345703,9.798999786376953 2.0399999618530273,-6.057000160217285 -8.220000267028809,-8.854999542236328 C-18.479999542236328,-11.652999877929688 -24.19300079345703,-7.340000152587891 -24.19300079345703,-7.340000152587891"></path></g></g><g transform="matrix(0.9999037384986877,-0.013874921947717667,0.013874921947717667,0.9999037384986877,-16.607177734375,9.353271484375)" opacity="1" style="display: block;"><g opacity="1" transform="matrix(1,0,0,1,592.4879760742188,1281.928955078125)"><path fill="rgb(255,255,255)" fill-opacity="1" d=" M-24.12700080871582,116.23600006103516 C-24.12700080871582,116.23600006103516 114.40699768066406,-45.452999114990234 114.40699768066406,-45.452999114990234 C114.40699768066406,-45.452999114990234 30.687999725341797,-116.23600006103516 30.687999725341797,-116.23600006103516 C30.687999725341797,-116.23600006103516 -114.40699768066406,55.13399887084961 -114.40699768066406,55.13399887084961 C-114.40699768066406,55.13399887084961 -24.12700080871582,116.23600006103516 -24.12700080871582,116.23600006103516z"></path></g><g opacity="1" transform="matrix(1,0,0,1,665.8590087890625,1201.613037109375)"><path fill="rgb(32,40,112)" fill-opacity="1" d=" M30.125999450683594,-46.948001861572266 C56.05500030517578,-30.309999465942383 63.58599853515625,4.197000026702881 46.948001861572266,30.125999450683594 C30.309999465942383,56.05500030517578 -4.197000026702881,63.58599853515625 -30.125999450683594,46.948001861572266 C-56.05500030517578,30.309999465942383 -63.58599853515625,-4.197000026702881 -46.948001861572266,-30.125999450683594 C-30.309999465942383,-56.05500030517578 4.197000026702881,-63.58599853515625 30.125999450683594,-46.948001861572266z"></path><path stroke-linecap="round" stroke-linejoin="round" fill-opacity="0" stroke="rgb(32,40,112)" stroke-opacity="1" stroke-width="2" d=" M30.125999450683594,-46.948001861572266 C56.05500030517578,-30.309999465942383 63.58599853515625,4.197000026702881 46.948001861572266,30.125999450683594 C30.309999465942383,56.05500030517578 -4.197000026702881,63.58599853515625 -30.125999450683594,46.948001861572266 C-56.05500030517578,30.309999465942383 -63.58599853515625,-4.197000026702881 -46.948001861572266,-30.125999450683594 C-30.309999465942383,-56.05500030517578 4.197000026702881,-63.58599853515625 30.125999450683594,-46.948001861572266z"></path></g><g opacity="1" transform="matrix(1,0,0,1,628.4459838867188,1327.7950439453125)"><path fill="rgb(255,255,255)" fill-opacity="1" d=" M-60.402000427246094,71.25900268554688 C-60.402000427246094,71.25900268554688 60.402000427246094,-71.25900268554688 60.402000427246094,-71.25900268554688"></path><path stroke-linecap="round" stroke-linejoin="round" fill-opacity="0" stroke="rgb(32,40,112)" stroke-opacity="1" stroke-width="2" d=" M-60.402000427246094,71.25900268554688 C-60.402000427246094,71.25900268554688 60.402000427246094,-71.25900268554688 60.402000427246094,-71.25900268554688"></path></g><g opacity="1" transform="matrix(1,0,0,1,550.6290283203125,1251.3790283203125)"><path fill="rgb(255,255,255)" fill-opacity="1" d=" M72.5479965209961,-85.68499755859375 C72.5479965209961,-85.68499755859375 -72.5479965209961,85.68499755859375 -72.5479965209961,85.68499755859375"></path><path stroke-linecap="round" stroke-linejoin="round" fill-opacity="0" stroke="rgb(32,40,112)" stroke-opacity="1" stroke-width="2" d=" M72.5479965209961,-85.68499755859375 C72.5479965209961,-85.68499755859375 -72.5479965209961,85.68499755859375 -72.5479965209961,85.68499755859375"></path></g><g opacity="1" transform="matrix(1,0,0,1,634.9639892578125,1236.06201171875)"><path fill="rgb(32,40,112)" fill-opacity="1" d=" M10.663999557495117,71.46099853515625 C-26.46299934387207,65.63400268554688 -62.051998138427734,33.43899917602539 -71.93000030517578,1.88100004196167 C-71.93000030517578,1.88100004196167 -10.850000381469727,-71.46099853515625 -10.850000381469727,-71.46099853515625 C-10.850000381469727,-71.46099853515625 71.93000030517578,0.41499999165534973 71.93000030517578,0.41499999165534973 C71.93000030517578,0.41499999165534973 10.663999557495117,71.46099853515625 10.663999557495117,71.46099853515625z"></path></g></g><g transform="matrix(0.9838163256645203,-0.17917999625205994,0.17917999625205994,0.9838163256645203,-235.1488037109375,116.1744384765625)" opacity="1" style="display: block;"><g opacity="1" transform="matrix(1,0,0,1,519.0560302734375,1381.2490234375)"><path fill="rgb(255,255,255)" fill-opacity="1" d=" M53.68600082397461,-8.722999572753906 C53.255001068115234,20.924999237060547 28.8700008392334,44.61000061035156 -0.777999997138977,44.17900085449219 C-30.426000595092773,43.74800109863281 -54.111000061035156,19.363000869750977 -53.68000030517578,-10.28499984741211 C-53.492000579833984,-23.222999572753906 -48.742000579833984,-35.027000427246094 -40.98400115966797,-44.185001373291016 C-40.98400115966797,-44.185001373291016 -35.77299880981445,-48.78099822998047 -35.77299880981445,-48.78099822998047"></path><path stroke-linecap="round" stroke-linejoin="round" fill-opacity="0" stroke="rgb(32,40,112)" stroke-opacity="1" stroke-width="2" d=" M53.68600082397461,-8.722999572753906 C53.255001068115234,20.924999237060547 28.8700008392334,44.61000061035156 -0.777999997138977,44.17900085449219 C-30.426000595092773,43.74800109863281 -54.111000061035156,19.363000869750977 -53.68000030517578,-10.28499984741211 C-53.492000579833984,-23.222999572753906 -48.742000579833984,-35.027000427246094 -40.98400115966797,-44.185001373291016 C-40.98400115966797,-44.185001373291016 -35.77299880981445,-48.78099822998047 -35.77299880981445,-48.78099822998047"></path></g><g opacity="1" transform="matrix(1,0,0,1,605.3790283203125,1371.9449462890625)"><path fill="rgb(255,255,255)" fill-opacity="1" d=" M88.63300323486328,-46.4640007019043 C88.63300323486328,-46.4640007019043 -90.16999816894531,-53.73099899291992 -90.16999816894531,-53.73099899291992 C-90.16999816894531,-53.73099899291992 -92.69000244140625,53.73099899291992 -92.69000244140625,53.73099899291992 C-92.69000244140625,53.73099899291992 89.80999755859375,52.97700119018555 92.69000244140625,53.58300018310547"></path></g><g opacity="1" transform="matrix(1,0,0,1,605.3809814453125,1425.3570556640625)"><path stroke-linecap="round" stroke-linejoin="round" fill-opacity="0" stroke="rgb(32,40,112)" stroke-opacity="1" stroke-width="2" d=" M-92.69200134277344,0.3199999928474426 C-92.69200134277344,0.3199999928474426 89.81300354003906,-0.7680000066757202 92.69200134277344,-0.10700000077486038"></path></g><g opacity="1" transform="matrix(1,0,0,1,629.1199951171875,1322.998046875)"><path stroke-linecap="round" stroke-linejoin="round" fill-opacity="0" stroke="rgb(32,40,112)" stroke-opacity="1" stroke-width="2" d=" M64.79499816894531,2.7209999561309814 C64.79499816894531,2.7209999561309814 -64.79499816894531,-2.7209999561309814 -64.79499816894531,-2.7209999561309814"></path></g></g><g transform="matrix(1,0,0,1,0,0)" opacity="1" style="display: block;"><g opacity="1" transform="matrix(1,0,0,1,779.3250122070312,1417.0439453125)"><path fill="rgb(132,132,250)" fill-opacity="1" d=" M185.23500061035156,8.633000373840332 C185.23500061035156,8.633000373840332 -185.23500061035156,8.633000373840332 -185.23500061035156,8.633000373840332 C-199.18899536132812,8.633000373840332 -210.50100708007812,5.321000099182129 -210.50100708007812,-8.633000373840332 C-210.50100708007812,-8.633000373840332 -210.50100708007812,-8.633000373840332 -210.50100708007812,-8.633000373840332 C-210.50100708007812,-8.633000373840332 210.50100708007812,-8.633000373840332 210.50100708007812,-8.633000373840332 C210.50100708007812,-8.633000373840332 210.50100708007812,-8.633000373840332 210.50100708007812,-8.633000373840332 C210.50100708007812,5.321000099182129 199.18899536132812,8.633000373840332 185.23500061035156,8.633000373840332z"></path><path stroke-linecap="round" stroke-linejoin="round" fill-opacity="0" stroke="rgb(32,40,112)" stroke-opacity="1" stroke-width="2" d=" M185.23500061035156,8.633000373840332 C185.23500061035156,8.633000373840332 -185.23500061035156,8.633000373840332 -185.23500061035156,8.633000373840332 C-199.18899536132812,8.633000373840332 -210.50100708007812,5.321000099182129 -210.50100708007812,-8.633000373840332 C-210.50100708007812,-8.633000373840332 -210.50100708007812,-8.633000373840332 -210.50100708007812,-8.633000373840332 C-210.50100708007812,-8.633000373840332 210.50100708007812,-8.633000373840332 210.50100708007812,-8.633000373840332 C210.50100708007812,-8.633000373840332 210.50100708007812,-8.633000373840332 210.50100708007812,-8.633000373840332 C210.50100708007812,5.321000099182129 199.18899536132812,8.633000373840332 185.23500061035156,8.633000373840332z"></path></g><g opacity="1" transform="matrix(1,0,0,1,0,0)"><g opacity="1" transform="matrix(1,0,0,1,779.3250122070312,1305.052978515625)"><path fill="rgb(132,132,250)" fill-opacity="1" d=" M176.531005859375,120.62300109863281 C176.531005859375,120.62300109863281 -176.531005859375,120.62300109863281 -176.531005859375,120.62300109863281 C-176.531005859375,120.62300109863281 -176.531005859375,-103.43499755859375 -176.531005859375,-103.43499755859375 C-176.531005859375,-112.9280014038086 -168.83599853515625,-120.62300109863281 -159.34300231933594,-120.62300109863281 C-159.34300231933594,-120.62300109863281 159.34300231933594,-120.62300109863281 159.34300231933594,-120.62300109863281 C168.83599853515625,-120.62300109863281 176.531005859375,-112.9280014038086 176.531005859375,-103.43499755859375 C176.531005859375,-103.43499755859375 176.531005859375,120.62300109863281 176.531005859375,120.62300109863281z"></path><path stroke-linecap="round" stroke-linejoin="round" fill-opacity="0" stroke="rgb(32,40,112)" stroke-opacity="1" stroke-width="2" d=" M176.531005859375,120.62300109863281 C176.531005859375,120.62300109863281 -176.531005859375,120.62300109863281 -176.531005859375,120.62300109863281 C-176.531005859375,120.62300109863281 -176.531005859375,-103.43499755859375 -176.531005859375,-103.43499755859375 C-176.531005859375,-112.9280014038086 -168.83599853515625,-120.62300109863281 -159.34300231933594,-120.62300109863281 C-159.34300231933594,-120.62300109863281 159.34300231933594,-120.62300109863281 159.34300231933594,-120.62300109863281 C168.83599853515625,-120.62300109863281 176.531005859375,-112.9280014038086 176.531005859375,-103.43499755859375 C176.531005859375,-103.43499755859375 176.531005859375,120.62300109863281 176.531005859375,120.62300109863281z"></path></g><g opacity="1" transform="matrix(1,0,0,1,779.3250122070312,1302.9300537109375)"><path fill="rgb(132,132,250)" fill-opacity="1" d=" M20.674999237060547,0 C20.674999237060547,-11.418999671936035 11.418999671936035,-20.674999237060547 0,-20.674999237060547 C-11.418999671936035,-20.674999237060547 -20.674999237060547,-11.418999671936035 -20.674999237060547,0 C-20.674999237060547,11.418999671936035 -11.418999671936035,20.674999237060547 0,20.674999237060547 C11.418999671936035,20.674999237060547 20.674999237060547,11.418999671936035 20.674999237060547,0z"></path><path stroke-linecap="round" stroke-linejoin="round" fill-opacity="0" stroke="rgb(32,40,112)" stroke-opacity="1" stroke-width="2" d=" M20.674999237060547,0 C20.674999237060547,-11.418999671936035 11.418999671936035,-20.674999237060547 0,-20.674999237060547 C-11.418999671936035,-20.674999237060547 -20.674999237060547,-11.418999671936035 -20.674999237060547,0 C-20.674999237060547,11.418999671936035 -11.418999671936035,20.674999237060547 0,20.674999237060547 C11.418999671936035,20.674999237060547 20.674999237060547,11.418999671936035 20.674999237060547,0z"></path></g></g></g><g transform="matrix(1,0,0,1,800,1438.8280029296875)" opacity="1" style="display: block;"><g opacity="1" transform="matrix(1,0,0,1,0,0)"><path fill="rgb(32,40,112)" fill-opacity="1" d=" M499.6669921875,13.151000022888184 C499.6669921875,13.151000022888184 -499.6669921875,13.151000022888184 -499.6669921875,13.151000022888184 C-499.6669921875,13.151000022888184 -499.6669921875,-13.151000022888184 -499.6669921875,-13.151000022888184 C-499.6669921875,-13.151000022888184 499.6669921875,-13.151000022888184 499.6669921875,-13.151000022888184 C499.6669921875,-13.151000022888184 499.6669921875,13.151000022888184 499.6669921875,13.151000022888184z"></path></g></g></g></svg>