<svg width="1600" height="1600" viewBox="0 0 1600 1600" fill="none" xmlns="http://www.w3.org/2000/svg">
<g clip-path="url(#clip0_40000054_5772)">
<mask id="mask0_40000054_5772" style="mask-type:luminance" maskUnits="userSpaceOnUse" x="0" y="0" width="1600" height="1600">
<path d="M1600 0H0V1600H1600V0Z" fill="white"/>
</mask>
<g mask="url(#mask0_40000054_5772)">
<mask id="mask1_40000054_5772" style="mask-type:luminance" maskUnits="userSpaceOnUse" x="0" y="0" width="1600" height="1600">
<path d="M1600 0H0V1600H1600V0Z" fill="white"/>
</mask>
<g mask="url(#mask1_40000054_5772)">
<path d="M198.374 1407.97H1410.81" stroke="#0626A9" stroke-width="2" stroke-linecap="round" stroke-linejoin="round"/>
<path d="M636.349 643.337H183.529V491.313H636.349V643.337Z" fill="white"/>
<path d="M636.349 643.337H183.529V491.313H636.349V643.337Z" stroke="#0626A9" stroke-width="2" stroke-linecap="round" stroke-linejoin="round"/>
<path d="M265.91 539.029C265.91 547.732 258.856 554.786 250.153 554.786C241.45 554.786 234.396 547.732 234.396 539.029C234.396 530.326 241.45 523.272 250.153 523.272C258.856 523.272 265.91 530.326 265.91 539.029Z" fill="#0626A9"/>
<path d="M265.91 539.029C265.91 547.732 258.856 554.786 250.153 554.786C241.45 554.786 234.396 547.732 234.396 539.029C234.396 530.326 241.45 523.272 250.153 523.272C258.856 523.272 265.91 530.326 265.91 539.029Z" stroke="#0626A9" stroke-width="2" stroke-linecap="round" stroke-linejoin="round"/>
<path d="M265.91 595.621C265.91 604.324 258.856 611.378 250.153 611.378C241.45 611.378 234.396 604.324 234.396 595.621C234.396 586.918 241.45 579.864 250.153 579.864C258.856 579.864 265.91 586.918 265.91 595.621Z" stroke="#0626A9" stroke-width="2" stroke-linecap="round" stroke-linejoin="round"/>
<path d="M300.742 539.029H495.178" stroke="#0626A9" stroke-width="2" stroke-linecap="round" stroke-linejoin="round"/>
<path d="M302.771 603.261H499.971" stroke="#0626A9" stroke-width="2" stroke-linecap="round" stroke-linejoin="round"/>
<path d="M447.013 1002.28H223.747V779.01H447.013V1002.28Z" fill="white"/>
<path d="M447.013 1002.28H223.747V779.01H447.013V1002.28Z" stroke="#0626A9" stroke-width="2" stroke-linecap="round" stroke-linejoin="round"/>
<path d="M418.382 884.443H252.378V844.235H418.382V884.443Z" fill="#0626A9"/>
<path d="M418.382 884.443H252.378V844.235H418.382V884.443Z" stroke="#0626A9" stroke-width="2" stroke-linecap="round" stroke-linejoin="round"/>
<path d="M252.377 937.05H359.977" stroke="#0626A9" stroke-width="2" stroke-linecap="round" stroke-linejoin="round"/>
<path d="M452.614 959.63H1274.59V305.548H452.614V959.63Z" fill="white"/>
<path d="M452.614 959.63H1274.59V305.548H452.614V959.63Z" stroke="#0626A9" stroke-width="2" stroke-linecap="round" stroke-linejoin="round"/>
<path d="M452.614 367.429H1274.59V305.549H452.614V367.429Z" fill="#84AAE4"/>
<path d="M452.614 367.429H1274.59V305.549H452.614V367.429Z" stroke="#0626A9" stroke-width="2" stroke-linecap="round" stroke-linejoin="round"/>
<path d="M496.66 336.489C496.66 343.011 491.373 348.298 484.851 348.298C478.329 348.298 473.042 343.011 473.042 336.489C473.042 329.967 478.329 324.68 484.851 324.68C491.373 324.68 496.66 329.967 496.66 336.489Z" fill="#0626A9"/>
<path d="M540.303 336.489C540.303 343.011 535.016 348.298 528.494 348.298C521.972 348.298 516.685 343.011 516.685 336.489C516.685 329.967 521.972 324.68 528.494 324.68C535.016 324.68 540.303 329.967 540.303 336.489Z" fill="#0626A9"/>
<path d="M583.946 336.489C583.946 343.011 578.659 348.298 572.137 348.298C565.615 348.298 560.328 343.011 560.328 336.489C560.328 329.967 565.615 324.68 572.137 324.68C578.659 324.68 583.946 329.967 583.946 336.489Z" fill="#0626A9"/>
<path d="M1393.17 632.589H1099.8V403.961H1393.17V632.589Z" fill="white"/>
<path d="M1393.17 632.589H1099.8V403.961H1393.17V632.589Z" stroke="#0626A9" stroke-width="2" stroke-linecap="round" stroke-linejoin="round"/>
<path d="M1138.47 604.576H1354.5" stroke="#0626A9" stroke-width="2" stroke-linecap="round" stroke-linejoin="round"/>
<path d="M1186.59 604.576L1160.08 604.548V528.369L1186.59 528.397V604.576Z" fill="#84AAE4"/>
<path d="M1186.59 604.576L1160.08 604.548V528.369L1186.59 528.397V604.576Z" stroke="#0626A9" stroke-width="2" stroke-linecap="round" stroke-linejoin="round"/>
<path d="M1235.36 604.576H1208.85V461.808H1235.36V604.576Z" fill="#84AAE4"/>
<path d="M1235.36 604.576H1208.85V461.808H1235.36V604.576Z" stroke="#0626A9" stroke-width="2" stroke-linecap="round" stroke-linejoin="round"/>
<path d="M1284.12 604.576H1257.61V549.706H1284.12V604.576Z" fill="#84AAE4"/>
<path d="M1284.12 604.576H1257.61V549.706H1284.12V604.576Z" stroke="#0626A9" stroke-width="2" stroke-linecap="round" stroke-linejoin="round"/>
<path d="M1332.89 604.576H1306.38V431.974H1332.89V604.576Z" fill="#84AAE4"/>
<path d="M1332.89 604.576H1306.38V431.974H1332.89V604.576Z" stroke="#0626A9" stroke-width="2" stroke-linecap="round" stroke-linejoin="round"/>
<path d="M984.233 482.873H695.641V402.873H984.233V482.873Z" fill="#8869D5"/>
<path d="M984.233 482.873H695.641V402.873H984.233V482.873Z" stroke="#0626A9" stroke-width="2" stroke-linecap="round" stroke-linejoin="round"/>
<path d="M791.64 442.873H919.048" stroke="#0626A9" stroke-width="2" stroke-linecap="round" stroke-linejoin="round"/>
<path d="M767.344 442.873C767.344 454.982 757.527 464.799 745.418 464.799C733.309 464.799 723.492 454.982 723.492 442.873C723.492 430.764 733.309 420.947 745.418 420.947C757.527 420.947 767.344 430.764 767.344 442.873Z" fill="white"/>
<path d="M767.344 442.873C767.344 454.982 757.527 464.799 745.418 464.799C733.309 464.799 723.492 454.982 723.492 442.873C723.492 430.764 733.309 420.947 745.418 420.947C757.527 420.947 767.344 430.764 767.344 442.873Z" stroke="#0626A9" stroke-width="2" stroke-linecap="round" stroke-linejoin="round"/>
<path d="M735.666 442.137L743.52 449.992L757.758 435.754" stroke="#0626A9" stroke-width="2" stroke-linecap="round" stroke-linejoin="round"/>
<path d="M542.873 627.814C542.873 627.814 644.436 721.814 665.561 720.376C731.811 715.876 795.873 566.438 887.498 566.438C969.936 566.438 1032.06 745.626 1109.5 746.314C1158.44 746.752 1208.87 674.501 1208.87 674.501" stroke="#0626A9" stroke-width="2" stroke-linecap="round" stroke-linejoin="round"/>
<path d="M665.554 785.124V704.374" stroke="#0626A9" stroke-width="2" stroke-linecap="round" stroke-linejoin="round"/>
<path d="M887.512 785.162V533.162" stroke="#0626A9" stroke-width="2" stroke-linecap="round" stroke-linejoin="round"/>
<path d="M777.382 787.569V535.569" stroke="#0626A9" stroke-width="2" stroke-linecap="round" stroke-linejoin="round"/>
<path d="M998.49 785.14V615.264" stroke="#0626A9" stroke-width="2" stroke-linecap="round" stroke-linejoin="round"/>
<path d="M1109.47 785.129V702.505" stroke="#0626A9" stroke-width="2" stroke-linecap="round" stroke-linejoin="round"/>
<path d="M1009.03 589.305C1009.03 595.127 1004.31 599.846 998.49 599.846C992.668 599.846 987.949 595.127 987.949 589.305C987.949 583.483 992.668 578.764 998.49 578.764C1004.31 578.764 1009.03 583.483 1009.03 589.305Z" stroke="#0626A9" stroke-width="2" stroke-linecap="round" stroke-linejoin="round"/>
<path d="M787.923 515.324C787.923 521.146 783.204 525.865 777.382 525.865C771.56 525.865 766.841 521.146 766.841 515.324C766.841 509.502 771.56 504.783 777.382 504.783C783.204 504.783 787.923 509.502 787.923 515.324Z" fill="#0626A9"/>
<path d="M1223.32 1113.54H804.953V725.548H1223.32V1113.54Z" fill="#84AAE4"/>
<path d="M1223.32 1113.54H804.953V725.548H1223.32V1113.54Z" stroke="#0626A9" stroke-width="2" stroke-linecap="round" stroke-linejoin="round"/>
<path d="M1166.29 1060.65H861.986V778.44H1166.29V1060.65Z" fill="white"/>
<path d="M1166.29 1060.65H861.986V778.44H1166.29V1060.65Z" stroke="#0626A9" stroke-width="2" stroke-linecap="round" stroke-linejoin="round"/>
<path d="M900.634 828.384H1016.55" stroke="#0626A9" stroke-width="2" stroke-linecap="round" stroke-linejoin="round"/>
<path d="M1091.7 930.997C1091.7 944.332 1087.95 956.786 1081.43 967.368L1022.21 930.997V861.502C1060.59 861.502 1091.7 892.615 1091.7 930.997Z" fill="#0626A9"/>
<path d="M1091.7 930.997C1091.7 944.332 1087.95 956.786 1081.43 967.368L1022.21 930.997V861.502C1060.59 861.502 1091.7 892.615 1091.7 930.997Z" stroke="#0626A9" stroke-width="2" stroke-linecap="round" stroke-linejoin="round"/>
<path d="M936.579 930.997C936.579 944.332 940.332 956.786 946.849 967.368L1006.07 930.997V861.502C967.691 861.502 936.579 892.615 936.579 930.997Z" fill="#84AAE4"/>
<path d="M936.579 930.997C936.579 944.332 940.332 956.786 946.849 967.368L1006.07 930.997V861.502C967.691 861.502 936.579 892.615 936.579 930.997Z" stroke="#0626A9" stroke-width="2" stroke-linecap="round" stroke-linejoin="round"/>
<path d="M954.679 977.198C966.853 997.287 988.932 1010.71 1014.14 1010.71C1039.21 1010.71 1061.17 997.438 1073.38 977.542" fill="white"/>
<path d="M954.679 977.198C966.853 997.287 988.932 1010.71 1014.14 1010.71C1039.21 1010.71 1061.17 997.438 1073.38 977.542" stroke="#0626A9" stroke-width="2" stroke-linecap="round" stroke-linejoin="round"/>
<path d="M954.679 977.198L1014.14 941.214L1073.38 977.542" fill="white"/>
<path d="M954.679 977.198L1014.14 941.214L1073.38 977.542" stroke="#0626A9" stroke-width="2" stroke-linecap="round" stroke-linejoin="round"/>
</g>
</g>
</g>
<defs>
<clipPath id="clip0_40000054_5772">
<rect width="1600" height="1600" fill="white"/>
</clipPath>
</defs>
</svg>
