<svg width="160" height="34" viewBox="0 0 160 34" fill="none" xmlns="http://www.w3.org/2000/svg">
<path d="M52.5959 27.4902C51.8433 27.4902 51.2413 26.8751 51.2413 26.1325V25.4943C50.4656 26.8287 48.9953 27.6062 47.2703 27.6062C43.7507 27.6062 41.25 24.8792 41.25 21.2356C41.25 17.5919 43.6581 14.8765 47.2703 14.8765C49.0416 14.8765 50.5467 15.7352 51.2413 17.0117V9.84033C51.2413 9.08606 51.8549 8.50586 52.5959 8.50586C53.3368 8.50586 53.9504 9.08606 53.9504 9.84033V26.1325C53.9504 26.8751 53.3368 27.4902 52.5959 27.4902ZM47.5944 17.2902C45.3716 17.2902 43.9591 19.0656 43.9591 21.2356C43.9591 23.4055 45.3716 25.1809 47.5944 25.1809C49.8173 25.1809 51.2297 23.4867 51.2297 21.2356C51.2297 18.9844 49.8173 17.2902 47.5944 17.2902Z" fill="#030712"/>
<path d="M65.0886 17.2901C62.9005 17.2901 60.8165 18.4853 60.8165 20.8758V26.1324C60.8165 26.8867 60.2029 27.4901 59.462 27.4901C58.721 27.4901 58.1074 26.8751 58.1074 26.1324V16.3502C58.1074 15.5959 58.6863 14.9925 59.4388 14.9925C60.1914 14.9925 60.8281 15.6075 60.8281 16.3502V16.9304C61.9395 15.4567 63.1899 14.8765 65.1002 14.8765C65.7601 14.8765 66.2927 15.4103 66.2927 16.0717C66.2811 16.7331 65.7601 17.2901 65.0886 17.2901Z" fill="#030712"/>
<path d="M77.6261 27.4903C76.8736 27.4903 76.2716 26.8752 76.2716 26.1326V25.8773C75.519 27.0493 74.0024 27.6063 72.5321 27.6063C70.0661 27.6063 67.959 25.8541 67.959 23.5216C67.959 20.9339 70.0082 19.495 72.59 19.495C74.0371 19.495 75.4148 19.9128 76.3063 20.7715V19.7155C76.3063 17.8472 75.3106 17.1858 73.0646 17.1858C71.7564 17.1858 70.7028 17.4643 69.684 17.9053C69.5451 17.9633 69.383 17.9865 69.2093 17.9865C68.7926 17.9865 68.4337 17.766 68.2368 17.3715C68.179 17.2322 68.1211 17.0698 68.1211 16.9305C68.1211 16.536 68.3758 16.1298 68.7578 15.8978C70.1703 15.0971 72.1732 14.865 73.273 14.865C76.6884 14.865 78.9807 16.1763 78.9807 19.7619V26.121C78.9807 26.8752 78.3787 27.4903 77.6261 27.4903ZM73.3541 21.5722C72.0227 21.5722 70.6102 22.0711 70.6102 23.5216C70.6102 24.9722 72.0806 25.5176 73.3309 25.5176C74.7202 25.5176 76.2716 24.8793 76.2716 23.5216C76.2716 21.9783 74.7086 21.5722 73.3541 21.5722Z" fill="#030712"/>
<path d="M88.0805 32.6888C86.3555 32.6888 85.0588 32.4683 83.7274 31.8881C83.2527 31.6676 83.0096 31.3079 83.0096 30.8901C83.0096 30.7509 83.0096 30.5884 83.0675 30.4492C83.0907 30.3331 83.1833 30.2519 83.2296 30.1707C83.4264 29.8922 83.7274 29.6949 84.0863 29.6949C84.2252 29.6949 84.3642 29.7181 84.5031 29.7761C85.7187 30.1939 86.8649 30.3563 88.0805 30.3563C90.8244 30.3563 92.0747 28.7434 92.0747 26.5502C92.0747 25.97 92.0747 25.2389 92.0747 25.2389C91.4959 26.3529 89.9445 27.4089 88.1616 27.4089C84.862 27.4089 82.0371 24.856 82.0371 21.1311C82.0371 17.6034 84.7231 14.8765 88.1616 14.8765C89.9908 14.8765 91.3222 15.7932 92.04 16.9652V16.3502C92.04 15.5959 92.6536 14.9925 93.3946 14.9925C94.1471 14.9925 94.7491 15.6075 94.7491 16.3502V26.2949C94.7607 29.8457 92.4915 32.6888 88.0805 32.6888ZM88.4047 17.2901C86.1818 17.2901 84.7462 18.9611 84.7462 21.1311C84.7462 23.301 86.1934 24.9952 88.4047 24.9952C90.6276 24.9952 92.0632 23.301 92.0632 21.1311C92.0747 18.9495 90.6276 17.2901 88.4047 17.2901Z" fill="#030712"/>
<path d="M104.163 27.5947C100.643 27.5947 97.8066 24.7633 97.8066 21.224C97.8066 17.6964 100.632 14.865 104.163 14.865C107.682 14.865 110.507 17.6964 110.507 21.224C110.507 24.7633 107.682 27.5947 104.163 27.5947ZM104.163 17.2902C101.94 17.2902 100.504 19.0657 100.504 21.2356C100.504 23.4056 101.951 25.181 104.163 25.181C106.386 25.181 107.821 23.4056 107.821 21.2356C107.821 19.0657 106.374 17.2902 104.163 17.2902Z" fill="#030712"/>
<path d="M124.282 27.4901C123.53 27.4901 122.928 26.9099 122.928 26.1556V20.6205C122.928 18.729 121.874 17.2901 119.871 17.2901C117.822 17.2901 116.653 18.8799 116.653 20.6553V26.1556C116.653 26.9099 116.074 27.4901 115.321 27.4901C114.569 27.4901 113.967 26.9099 113.967 26.1556V16.3734C113.967 15.6191 114.546 14.9809 115.298 14.9809C116.051 14.9809 116.653 15.6191 116.653 16.3734V16.9884C117.452 15.77 119.015 14.8765 120.624 14.8765C123.784 14.8765 125.614 17.2901 125.614 20.5509V26.1672C125.614 26.8983 125.035 27.4901 124.282 27.4901Z" fill="#030712"/>
<path d="M136.324 10.7803H135.548C134.136 10.7803 133.464 11.4417 133.464 13.0314V15.2246H135.826C136.44 15.2246 136.937 15.7236 136.937 16.3386C136.937 16.9536 136.44 17.4758 135.826 17.4758H133.464V26.1209C133.464 26.8751 132.851 27.4785 132.11 27.4785C131.357 27.4785 130.755 26.8635 130.755 26.1209V17.4758H129.088C128.474 17.4758 127.977 16.942 127.977 16.3386C127.977 15.7236 128.474 15.2246 129.088 15.2246H130.755V13.3099C130.755 10.3973 132.087 8.52905 135.328 8.52905H136.324C136.937 8.52905 137.435 9.06284 137.435 9.66625C137.435 10.2697 136.926 10.7803 136.324 10.7803Z" fill="#030712"/>
<path d="M141.278 27.4902C140.526 27.4902 139.924 26.91 139.924 26.1557V9.86354C139.924 9.10927 140.537 8.50586 141.278 8.50586C142.019 8.50586 142.61 9.12088 142.61 9.86354V26.1557C142.61 26.8984 142.031 27.4902 141.278 27.4902Z" fill="#030712"/>
<path d="M156.7 16.6984L152.266 26.6431C151.097 29.254 149.129 31.5052 146.327 32.596C146.188 32.654 146.026 32.712 145.887 32.712C145.273 32.712 144.775 32.155 144.775 31.54C144.775 31.041 145.076 30.6813 145.528 30.484C147.473 29.5905 148.885 28.0936 149.742 26.2369C149.325 25.3202 145.389 16.8144 145.389 16.2342C145.389 15.7004 145.69 15.2595 146.142 15.0622C146.28 15.0042 146.443 14.981 146.616 14.981C147.091 14.981 147.531 15.2595 147.728 15.7004L151.143 23.3127L154.524 15.7004C154.72 15.2595 155.16 14.981 155.635 14.981C155.774 14.981 155.89 15.0042 156.029 15.0622C156.503 15.2246 156.827 15.6772 156.827 16.1994C156.804 16.3734 156.781 16.5359 156.7 16.6984Z" fill="#030712"/>
<path d="M9.14681 21.9202C9.48569 21.9202 9.76041 21.6449 9.76041 21.3052C9.76041 20.9655 9.48569 20.6902 9.14681 20.6902C8.80792 20.6902 8.5332 20.9655 8.5332 21.3052C8.5332 21.6449 8.80792 21.9202 9.14681 21.9202Z" fill="url(#paint0_linear_1208_9448)"/>
<path d="M10.3382 20.7249C10.6771 20.7249 10.9518 20.4496 10.9518 20.1099C10.9518 19.7702 10.6771 19.4949 10.3382 19.4949C9.99933 19.4949 9.72461 19.7702 9.72461 20.1099C9.72461 20.4496 9.99933 20.7249 10.3382 20.7249Z" fill="url(#paint1_linear_1208_9448)"/>
<path d="M5.55696 20.7249C5.89585 20.7249 6.17057 20.4496 6.17057 20.1099C6.17057 19.7702 5.89585 19.4949 5.55696 19.4949C5.21808 19.4949 4.94336 19.7702 4.94336 20.1099C4.94336 20.4496 5.21808 20.7249 5.55696 20.7249Z" fill="url(#paint2_linear_1208_9448)"/>
<path d="M7.94173 20.7249C8.28061 20.7249 8.55533 20.4496 8.55533 20.1099C8.55533 19.7702 8.28061 19.4949 7.94173 19.4949C7.60284 19.4949 7.32812 19.7702 7.32812 20.1099C7.32812 20.4496 7.60284 20.7249 7.94173 20.7249Z" fill="url(#paint3_linear_1208_9448)"/>
<path d="M6.75032 21.9202C7.08921 21.9202 7.36393 21.6449 7.36393 21.3052C7.36393 20.9655 7.08921 20.6902 6.75032 20.6902C6.41144 20.6902 6.13672 20.9655 6.13672 21.3052C6.13672 21.6449 6.41144 21.9202 6.75032 21.9202Z" fill="url(#paint4_linear_1208_9448)"/>
<path d="M13.9281 24.3223C14.2669 24.3223 14.5417 24.047 14.5417 23.7073C14.5417 23.3676 14.2669 23.0923 13.9281 23.0923C13.5892 23.0923 13.3145 23.3676 13.3145 23.7073C13.3145 24.047 13.5892 24.3223 13.9281 24.3223Z" fill="url(#paint5_linear_1208_9448)"/>
<path d="M13.9281 21.9202C14.2669 21.9202 14.5417 21.6449 14.5417 21.3052C14.5417 20.9655 14.2669 20.6902 13.9281 20.6902C13.5892 20.6902 13.3145 20.9655 13.3145 21.3052C13.3145 21.6449 13.5892 21.9202 13.9281 21.9202Z" fill="url(#paint6_linear_1208_9448)"/>
<path d="M11.5316 21.9202C11.8705 21.9202 12.1452 21.6449 12.1452 21.3052C12.1452 20.9655 11.8705 20.6902 11.5316 20.6902C11.1927 20.6902 10.918 20.9655 10.918 21.3052C10.918 21.6449 11.1927 21.9202 11.5316 21.9202Z" fill="url(#paint7_linear_1208_9448)"/>
<path d="M12.7347 20.7249C13.0736 20.7249 13.3483 20.4496 13.3483 20.1099C13.3483 19.7702 13.0736 19.4949 12.7347 19.4949C12.3958 19.4949 12.1211 19.7702 12.1211 20.1099C12.1211 20.4496 12.3958 20.7249 12.7347 20.7249Z" fill="url(#paint8_linear_1208_9448)"/>
<path d="M9.14681 17.1277C9.48569 17.1277 9.76041 16.8524 9.76041 16.5127C9.76041 16.1731 9.48569 15.8977 9.14681 15.8977C8.80792 15.8977 8.5332 16.1731 8.5332 16.5127C8.5332 16.8524 8.80792 17.1277 9.14681 17.1277Z" fill="url(#paint9_linear_1208_9448)"/>
<path d="M10.3382 11.1282C10.6771 11.1282 10.9518 10.8529 10.9518 10.5132C10.9518 10.1735 10.6771 9.89819 10.3382 9.89819C9.99933 9.89819 9.72461 10.1735 9.72461 10.5132C9.72461 10.8529 9.99933 11.1282 10.3382 11.1282Z" fill="url(#paint10_linear_1208_9448)"/>
<path d="M11.5316 9.93316C11.8705 9.93316 12.1452 9.65781 12.1452 9.31814C12.1452 8.97848 11.8705 8.70312 11.5316 8.70312C11.1927 8.70312 10.918 8.97848 10.918 9.31814C10.918 9.65781 11.1927 9.93316 11.5316 9.93316Z" fill="url(#paint11_linear_1208_9448)"/>
<path d="M10.3382 8.73784C10.6771 8.73784 10.9518 8.46249 10.9518 8.12283C10.9518 7.78316 10.6771 7.50781 10.3382 7.50781C9.99933 7.50781 9.72461 7.78316 9.72461 8.12283C9.72461 8.46249 9.99933 8.73784 10.3382 8.73784Z" fill="url(#paint12_linear_1208_9448)"/>
<path d="M13.9281 12.3353C14.2669 12.3353 14.5417 12.0599 14.5417 11.7202C14.5417 11.3806 14.2669 11.1052 13.9281 11.1052C13.5892 11.1052 13.3145 11.3806 13.3145 11.7202C13.3145 12.0599 13.5892 12.3353 13.9281 12.3353Z" fill="url(#paint13_linear_1208_9448)"/>
<path d="M21.1058 17.1277C21.4447 17.1277 21.7194 16.8524 21.7194 16.5127C21.7194 16.1731 21.4447 15.8977 21.1058 15.8977C20.7669 15.8977 20.4922 16.1731 20.4922 16.5127C20.4922 16.8524 20.7669 17.1277 21.1058 17.1277Z" fill="url(#paint14_linear_1208_9448)"/>
<path d="M7.94173 18.3228C8.28061 18.3228 8.55533 18.0475 8.55533 17.7078C8.55533 17.3681 8.28061 17.0928 7.94173 17.0928C7.60284 17.0928 7.32812 17.3681 7.32812 17.7078C7.32812 18.0475 7.60284 18.3228 7.94173 18.3228Z" fill="url(#paint15_linear_1208_9448)"/>
<path d="M6.75032 19.5181C7.08921 19.5181 7.36393 19.2428 7.36393 18.9031C7.36393 18.5634 7.08921 18.2881 6.75032 18.2881C6.41144 18.2881 6.13672 18.5634 6.13672 18.9031C6.13672 19.2428 6.41144 19.5181 6.75032 19.5181Z" fill="url(#paint16_linear_1208_9448)"/>
<path d="M10.3382 13.5303C10.6771 13.5303 10.9518 13.255 10.9518 12.9153C10.9518 12.5756 10.6771 12.3003 10.3382 12.3003C9.99933 12.3003 9.72461 12.5756 9.72461 12.9153C9.72461 13.255 9.99933 13.5303 10.3382 13.5303Z" fill="url(#paint17_linear_1208_9448)"/>
<path d="M13.9281 26.7127C14.2669 26.7127 14.5417 26.4374 14.5417 26.0977C14.5417 25.758 14.2669 25.4827 13.9281 25.4827C13.5892 25.4827 13.3145 25.758 13.3145 26.0977C13.3145 26.4374 13.5892 26.7127 13.9281 26.7127Z" fill="url(#paint18_linear_1208_9448)"/>
<path d="M12.7347 11.1282C13.0736 11.1282 13.3483 10.8529 13.3483 10.5132C13.3483 10.1735 13.0736 9.89819 12.7347 9.89819C12.3958 9.89819 12.1211 10.1735 12.1211 10.5132C12.1211 10.8529 12.3958 11.1282 12.7347 11.1282Z" fill="url(#paint19_linear_1208_9448)"/>
<path d="M25.887 21.9202C26.2259 21.9202 26.5006 21.6449 26.5006 21.3052C26.5006 20.9655 26.2259 20.6902 25.887 20.6902C25.5482 20.6902 25.2734 20.9655 25.2734 21.3052C25.2734 21.6449 25.5482 21.9202 25.887 21.9202Z" fill="url(#paint20_linear_1208_9448)"/>
<path d="M25.887 19.5181C26.2259 19.5181 26.5006 19.2428 26.5006 18.9031C26.5006 18.5634 26.2259 18.2881 25.887 18.2881C25.5482 18.2881 25.2734 18.5634 25.2734 18.9031C25.2734 19.2428 25.5482 19.5181 25.887 19.5181Z" fill="url(#paint21_linear_1208_9448)"/>
<path d="M27.0784 23.1153C27.4173 23.1153 27.6921 22.8399 27.6921 22.5003C27.6921 22.1606 27.4173 21.8853 27.0784 21.8853C26.7396 21.8853 26.4648 22.1606 26.4648 22.5003C26.4648 22.8399 26.7396 23.1153 27.0784 23.1153Z" fill="url(#paint22_linear_1208_9448)"/>
<path d="M27.0784 25.5174C27.4173 25.5174 27.6921 25.242 27.6921 24.9024C27.6921 24.5627 27.4173 24.2874 27.0784 24.2874C26.7396 24.2874 26.4648 24.5627 26.4648 24.9024C26.4648 25.242 26.7396 25.5174 27.0784 25.5174Z" fill="url(#paint23_linear_1208_9448)"/>
<path d="M23.4906 17.1277C23.8294 17.1277 24.1042 16.8524 24.1042 16.5127C24.1042 16.1731 23.8294 15.8977 23.4906 15.8977C23.1517 15.8977 22.877 16.1731 22.877 16.5127C22.877 16.8524 23.1517 17.1277 23.4906 17.1277Z" fill="url(#paint24_linear_1208_9448)"/>
<path d="M22.2972 15.9324C22.6361 15.9324 22.9108 15.6571 22.9108 15.3174C22.9108 14.9777 22.6361 14.7024 22.2972 14.7024C21.9583 14.7024 21.6836 14.9777 21.6836 15.3174C21.6836 15.6571 21.9583 15.9324 22.2972 15.9324Z" fill="url(#paint25_linear_1208_9448)"/>
<path d="M25.887 24.3223C26.2259 24.3223 26.5006 24.047 26.5006 23.7073C26.5006 23.3676 26.2259 23.0923 25.887 23.0923C25.5482 23.0923 25.2734 23.3676 25.2734 23.7073C25.2734 24.047 25.5482 24.3223 25.887 24.3223Z" fill="url(#paint26_linear_1208_9448)"/>
<path d="M24.6937 13.5303C25.0326 13.5303 25.3073 13.255 25.3073 12.9153C25.3073 12.5756 25.0326 12.3003 24.6937 12.3003C24.3548 12.3003 24.0801 12.5756 24.0801 12.9153C24.0801 13.255 24.3548 13.5303 24.6937 13.5303Z" fill="url(#paint27_linear_1208_9448)"/>
<path d="M15.1195 27.9195C15.4583 27.9195 15.7331 27.6441 15.7331 27.3045C15.7331 26.9648 15.4583 26.6895 15.1195 26.6895C14.7806 26.6895 14.5059 26.9648 14.5059 27.3045C14.5059 27.6441 14.7806 27.9195 15.1195 27.9195Z" fill="url(#paint28_linear_1208_9448)"/>
<path d="M23.4906 12.3353C23.8294 12.3353 24.1042 12.0599 24.1042 11.7202C24.1042 11.3806 23.8294 11.1052 23.4906 11.1052C23.1517 11.1052 22.877 11.3806 22.877 11.7202C22.877 12.0599 23.1517 12.3353 23.4906 12.3353Z" fill="url(#paint29_linear_1208_9448)"/>
<path d="M17.5159 30.3099C17.8548 30.3099 18.1296 30.0345 18.1296 29.6949C18.1296 29.3552 17.8548 29.0798 17.5159 29.0798C17.1771 29.0798 16.9023 29.3552 16.9023 29.6949C16.9023 30.0345 17.1771 30.3099 17.5159 30.3099Z" fill="url(#paint30_linear_1208_9448)"/>
<path d="M18.7093 29.1148C19.0482 29.1148 19.3229 28.8394 19.3229 28.4998C19.3229 28.1601 19.0482 27.8848 18.7093 27.8848C18.3704 27.8848 18.0957 28.1601 18.0957 28.4998C18.0957 28.8394 18.3704 29.1148 18.7093 29.1148Z" fill="url(#paint31_linear_1208_9448)"/>
<path d="M19.9007 30.3099C20.2396 30.3099 20.5143 30.0345 20.5143 29.6949C20.5143 29.3552 20.2396 29.0798 19.9007 29.0798C19.5618 29.0798 19.2871 29.3552 19.2871 29.6949C19.2871 30.0345 19.5618 30.3099 19.9007 30.3099Z" fill="url(#paint32_linear_1208_9448)"/>
<path d="M16.3245 29.1148C16.6634 29.1148 16.9381 28.8394 16.9381 28.4998C16.9381 28.1601 16.6634 27.8848 16.3245 27.8848C15.9857 27.8848 15.7109 28.1601 15.7109 28.4998C15.7109 28.8394 15.9857 29.1148 16.3245 29.1148Z" fill="url(#paint33_linear_1208_9448)"/>
<path d="M24.6937 25.5174C25.0326 25.5174 25.3073 25.242 25.3073 24.9024C25.3073 24.5627 25.0326 24.2874 24.6937 24.2874C24.3548 24.2874 24.0801 24.5627 24.0801 24.9024C24.0801 25.242 24.3548 25.5174 24.6937 25.5174Z" fill="url(#paint34_linear_1208_9448)"/>
<path d="M21.1058 29.1148C21.4447 29.1148 21.7194 28.8394 21.7194 28.4998C21.7194 28.1601 21.4447 27.8848 21.1058 27.8848C20.7669 27.8848 20.4922 28.1601 20.4922 28.4998C20.4922 28.8394 20.7669 29.1148 21.1058 29.1148Z" fill="url(#paint35_linear_1208_9448)"/>
<path d="M23.4906 26.7127C23.8294 26.7127 24.1042 26.4374 24.1042 26.0977C24.1042 25.758 23.8294 25.4827 23.4906 25.4827C23.1517 25.4827 22.877 25.758 22.877 26.0977C22.877 26.4374 23.1517 26.7127 23.4906 26.7127Z" fill="url(#paint36_linear_1208_9448)"/>
<path d="M22.2972 30.3099C22.6361 30.3099 22.9108 30.0345 22.9108 29.6949C22.9108 29.3552 22.6361 29.0798 22.2972 29.0798C21.9583 29.0798 21.6836 29.3552 21.6836 29.6949C21.6836 30.0345 21.9583 30.3099 22.2972 30.3099Z" fill="url(#paint37_linear_1208_9448)"/>
<path d="M5.55696 18.3228C5.89585 18.3228 6.17057 18.0475 6.17057 17.7078C6.17057 17.3681 5.89585 17.0928 5.55696 17.0928C5.21808 17.0928 4.94336 17.3681 4.94336 17.7078C4.94336 18.0475 5.21808 18.3228 5.55696 18.3228Z" fill="url(#paint38_linear_1208_9448)"/>
<path d="M22.2972 18.3228C22.6361 18.3228 22.9108 18.0475 22.9108 17.7078C22.9108 17.3681 22.6361 17.0928 22.2972 17.0928C21.9583 17.0928 21.6836 17.3681 21.6836 17.7078C21.6836 18.0475 21.9583 18.3228 22.2972 18.3228Z" fill="url(#paint39_linear_1208_9448)"/>
<path d="M24.6937 23.1153C25.0326 23.1153 25.3073 22.8399 25.3073 22.5003C25.3073 22.1606 25.0326 21.8853 24.6937 21.8853C24.3548 21.8853 24.0801 22.1606 24.0801 22.5003C24.0801 22.8399 24.3548 23.1153 24.6937 23.1153Z" fill="url(#paint40_linear_1208_9448)"/>
<path d="M24.6937 18.3228C25.0326 18.3228 25.3073 18.0475 25.3073 17.7078C25.3073 17.3681 25.0326 17.0928 24.6937 17.0928C24.3548 17.0928 24.0801 17.3681 24.0801 17.7078C24.0801 18.0475 24.3548 18.3228 24.6937 18.3228Z" fill="url(#paint41_linear_1208_9448)"/>
<path d="M24.6937 20.7249C25.0326 20.7249 25.3073 20.4496 25.3073 20.1099C25.3073 19.7702 25.0326 19.4949 24.6937 19.4949C24.3548 19.4949 24.0801 19.7702 24.0801 20.1099C24.0801 20.4496 24.3548 20.7249 24.6937 20.7249Z" fill="url(#paint42_linear_1208_9448)"/>
<path d="M23.4906 19.5181C23.8294 19.5181 24.1042 19.2428 24.1042 18.9031C24.1042 18.5634 23.8294 18.2881 23.4906 18.2881C23.1517 18.2881 22.877 18.5634 22.877 18.9031C22.877 19.2428 23.1517 19.5181 23.4906 19.5181Z" fill="url(#paint43_linear_1208_9448)"/>
<path d="M21.1058 19.5181C21.4447 19.5181 21.7194 19.2428 21.7194 18.9031C21.7194 18.5634 21.4447 18.2881 21.1058 18.2881C20.7669 18.2881 20.4922 18.5634 20.4922 18.9031C20.4922 19.2428 20.7669 19.5181 21.1058 19.5181Z" fill="url(#paint44_linear_1208_9448)"/>
<path d="M21.1058 24.3223C21.4447 24.3223 21.7194 24.047 21.7194 23.7073C21.7194 23.3676 21.4447 23.0923 21.1058 23.0923C20.7669 23.0923 20.4922 23.3676 20.4922 23.7073C20.4922 24.047 20.7669 24.3223 21.1058 24.3223Z" fill="url(#paint45_linear_1208_9448)"/>
<path d="M19.9007 27.9195C20.2396 27.9195 20.5143 27.6441 20.5143 27.3045C20.5143 26.9648 20.2396 26.6895 19.9007 26.6895C19.5618 26.6895 19.2871 26.9648 19.2871 27.3045C19.2871 27.6441 19.5618 27.9195 19.9007 27.9195Z" fill="url(#paint46_linear_1208_9448)"/>
<path d="M21.1058 21.9202C21.4447 21.9202 21.7194 21.6449 21.7194 21.3052C21.7194 20.9655 21.4447 20.6902 21.1058 20.6902C20.7669 20.6902 20.4922 20.9655 20.4922 21.3052C20.4922 21.6449 20.7669 21.9202 21.1058 21.9202Z" fill="url(#paint47_linear_1208_9448)"/>
<path d="M10.3382 18.3228C10.6771 18.3228 10.9518 18.0475 10.9518 17.7078C10.9518 17.3681 10.6771 17.0928 10.3382 17.0928C9.99933 17.0928 9.72461 17.3681 9.72461 17.7078C9.72461 18.0475 9.99933 18.3228 10.3382 18.3228Z" fill="url(#paint48_linear_1208_9448)"/>
<path d="M22.2972 20.7249C22.6361 20.7249 22.9108 20.4496 22.9108 20.1099C22.9108 19.7702 22.6361 19.4949 22.2972 19.4949C21.9583 19.4949 21.6836 19.7702 21.6836 20.1099C21.6836 20.4496 21.9583 20.7249 22.2972 20.7249Z" fill="url(#paint49_linear_1208_9448)"/>
<path d="M28.2835 24.3223C28.6224 24.3223 28.8971 24.047 28.8971 23.7073C28.8971 23.3676 28.6224 23.0923 28.2835 23.0923C27.9446 23.0923 27.6699 23.3676 27.6699 23.7073C27.6699 24.047 27.9446 24.3223 28.2835 24.3223Z" fill="url(#paint50_linear_1208_9448)"/>
<path d="M29.4769 25.5174C29.8158 25.5174 30.0905 25.242 30.0905 24.9024C30.0905 24.5627 29.8158 24.2874 29.4769 24.2874C29.138 24.2874 28.8633 24.5627 28.8633 24.9024C28.8633 25.242 29.138 25.5174 29.4769 25.5174Z" fill="url(#paint51_linear_1208_9448)"/>
<path d="M23.4906 24.3223C23.8294 24.3223 24.1042 24.047 24.1042 23.7073C24.1042 23.3676 23.8294 23.0923 23.4906 23.0923C23.1517 23.0923 22.877 23.3676 22.877 23.7073C22.877 24.047 23.1517 24.3223 23.4906 24.3223Z" fill="url(#paint52_linear_1208_9448)"/>
<path d="M4.35384 19.5181C4.69272 19.5181 4.96744 19.2428 4.96744 18.9031C4.96744 18.5634 4.69272 18.2881 4.35384 18.2881C4.01495 18.2881 3.74023 18.5634 3.74023 18.9031C3.74023 19.2428 4.01495 19.5181 4.35384 19.5181Z" fill="url(#paint53_linear_1208_9448)"/>
<path d="M22.2972 25.5174C22.6361 25.5174 22.9108 25.242 22.9108 24.9024C22.9108 24.5627 22.6361 24.2874 22.2972 24.2874C21.9583 24.2874 21.6836 24.5627 21.6836 24.9024C21.6836 25.242 21.9583 25.5174 22.2972 25.5174Z" fill="url(#paint54_linear_1208_9448)"/>
<path d="M22.2972 23.1153C22.6361 23.1153 22.9108 22.8399 22.9108 22.5003C22.9108 22.1606 22.6361 21.8853 22.2972 21.8853C21.9583 21.8853 21.6836 22.1606 21.6836 22.5003C21.6836 22.8399 21.9583 23.1153 22.2972 23.1153Z" fill="url(#paint55_linear_1208_9448)"/>
<path d="M23.4906 21.9202C23.8294 21.9202 24.1042 21.6449 24.1042 21.3052C24.1042 20.9655 23.8294 20.6902 23.4906 20.6902C23.1517 20.6902 22.877 20.9655 22.877 21.3052C22.877 21.6449 23.1517 21.9202 23.4906 21.9202Z" fill="url(#paint56_linear_1208_9448)"/>
<path d="M11.5316 12.3353C11.8705 12.3353 12.1452 12.0599 12.1452 11.7202C12.1452 11.3806 11.8705 11.1052 11.5316 11.1052C11.1927 11.1052 10.918 11.3806 10.918 11.7202C10.918 12.0599 11.1927 12.3353 11.5316 12.3353Z" fill="url(#paint57_linear_1208_9448)"/>
<path d="M16.3245 26.7127C16.6634 26.7127 16.9381 26.4374 16.9381 26.0977C16.9381 25.758 16.6634 25.4827 16.3245 25.4827C15.9857 25.4827 15.7109 25.758 15.7109 26.0977C15.7109 26.4374 15.9857 26.7127 16.3245 26.7127Z" fill="url(#paint58_linear_1208_9448)"/>
<path d="M15.1195 25.5174C15.4583 25.5174 15.7331 25.242 15.7331 24.9024C15.7331 24.5627 15.4583 24.2874 15.1195 24.2874C14.7806 24.2874 14.5059 24.5627 14.5059 24.9024C14.5059 25.242 14.7806 25.5174 15.1195 25.5174Z" fill="url(#paint59_linear_1208_9448)"/>
<path d="M16.3245 19.5181C16.6634 19.5181 16.9381 19.2428 16.9381 18.9031C16.9381 18.5634 16.6634 18.2881 16.3245 18.2881C15.9857 18.2881 15.7109 18.5634 15.7109 18.9031C15.7109 19.2428 15.9857 19.5181 16.3245 19.5181Z" fill="url(#paint60_linear_1208_9448)"/>
<path d="M17.5159 27.9195C17.8548 27.9195 18.1296 27.6441 18.1296 27.3045C18.1296 26.9648 17.8548 26.6895 17.5159 26.6895C17.1771 26.6895 16.9023 26.9648 16.9023 27.3045C16.9023 27.6441 17.1771 27.9195 17.5159 27.9195Z" fill="url(#paint61_linear_1208_9448)"/>
<path d="M15.1195 23.1153C15.4583 23.1153 15.7331 22.8399 15.7331 22.5003C15.7331 22.1606 15.4583 21.8853 15.1195 21.8853C14.7806 21.8853 14.5059 22.1606 14.5059 22.5003C14.5059 22.8399 14.7806 23.1153 15.1195 23.1153Z" fill="url(#paint62_linear_1208_9448)"/>
<path d="M18.7093 26.7127C19.0482 26.7127 19.3229 26.4374 19.3229 26.0977C19.3229 25.758 19.0482 25.4827 18.7093 25.4827C18.3704 25.4827 18.0957 25.758 18.0957 26.0977C18.0957 26.4374 18.3704 26.7127 18.7093 26.7127Z" fill="url(#paint63_linear_1208_9448)"/>
<path d="M17.5159 18.3228C17.8548 18.3228 18.1296 18.0475 18.1296 17.7078C18.1296 17.3681 17.8548 17.0928 17.5159 17.0928C17.1771 17.0928 16.9023 17.3681 16.9023 17.7078C16.9023 18.0475 17.1771 18.3228 17.5159 18.3228Z" fill="url(#paint64_linear_1208_9448)"/>
<path d="M16.3245 14.7256C16.6634 14.7256 16.9381 14.4503 16.9381 14.1106C16.9381 13.771 16.6634 13.4956 16.3245 13.4956C15.9857 13.4956 15.7109 13.771 15.7109 14.1106C15.7109 14.4503 15.9857 14.7256 16.3245 14.7256Z" fill="url(#paint65_linear_1208_9448)"/>
<path d="M18.7093 17.1277C19.0482 17.1277 19.3229 16.8524 19.3229 16.5127C19.3229 16.1731 19.0482 15.8977 18.7093 15.8977C18.3704 15.8977 18.0957 16.1731 18.0957 16.5127C18.0957 16.8524 18.3704 17.1277 18.7093 17.1277Z" fill="url(#paint66_linear_1208_9448)"/>
<path d="M15.1195 20.7249C15.4583 20.7249 15.7331 20.4496 15.7331 20.1099C15.7331 19.7702 15.4583 19.4949 15.1195 19.4949C14.7806 19.4949 14.5059 19.7702 14.5059 20.1099C14.5059 20.4496 14.7806 20.7249 15.1195 20.7249Z" fill="url(#paint67_linear_1208_9448)"/>
<path d="M11.5316 14.7256C11.8705 14.7256 12.1452 14.4503 12.1452 14.1106C12.1452 13.771 11.8705 13.4956 11.5316 13.4956C11.1927 13.4956 10.918 13.771 10.918 14.1106C10.918 14.4503 11.1927 14.7256 11.5316 14.7256Z" fill="url(#paint68_linear_1208_9448)"/>
<path d="M15.1195 13.5303C15.4583 13.5303 15.7331 13.255 15.7331 12.9153C15.7331 12.5756 15.4583 12.3003 15.1195 12.3003C14.7806 12.3003 14.5059 12.5756 14.5059 12.9153C14.5059 13.255 14.7806 13.5303 15.1195 13.5303Z" fill="url(#paint69_linear_1208_9448)"/>
<path d="M12.7347 13.5303C13.0736 13.5303 13.3483 13.255 13.3483 12.9153C13.3483 12.5756 13.0736 12.3003 12.7347 12.3003C12.3958 12.3003 12.1211 12.5756 12.1211 12.9153C12.1211 13.255 12.3958 13.5303 12.7347 13.5303Z" fill="url(#paint70_linear_1208_9448)"/>
<path d="M11.5316 19.5181C11.8705 19.5181 12.1452 19.2428 12.1452 18.9031C12.1452 18.5634 11.8705 18.2881 11.5316 18.2881C11.1927 18.2881 10.918 18.5634 10.918 18.9031C10.918 19.2428 11.1927 19.5181 11.5316 19.5181Z" fill="url(#paint71_linear_1208_9448)"/>
<path d="M9.14681 19.5181C9.48569 19.5181 9.76041 19.2428 9.76041 18.9031C9.76041 18.5634 9.48569 18.2881 9.14681 18.2881C8.80792 18.2881 8.5332 18.5634 8.5332 18.9031C8.5332 19.2428 8.80792 19.5181 9.14681 19.5181Z" fill="url(#paint72_linear_1208_9448)"/>
<path d="M17.5159 25.5174C17.8548 25.5174 18.1296 25.242 18.1296 24.9024C18.1296 24.5627 17.8548 24.2874 17.5159 24.2874C17.1771 24.2874 16.9023 24.5627 16.9023 24.9024C16.9023 25.242 17.1771 25.5174 17.5159 25.5174Z" fill="url(#paint73_linear_1208_9448)"/>
<path d="M13.9281 14.7256C14.2669 14.7256 14.5417 14.4503 14.5417 14.1106C14.5417 13.771 14.2669 13.4956 13.9281 13.4956C13.5892 13.4956 13.3145 13.771 13.3145 14.1106C13.3145 14.4503 13.5892 14.7256 13.9281 14.7256Z" fill="url(#paint74_linear_1208_9448)"/>
<path d="M16.3245 24.3223C16.6634 24.3223 16.9381 24.047 16.9381 23.7073C16.9381 23.3676 16.6634 23.0923 16.3245 23.0923C15.9857 23.0923 15.7109 23.3676 15.7109 23.7073C15.7109 24.047 15.9857 24.3223 16.3245 24.3223Z" fill="url(#paint75_linear_1208_9448)"/>
<path d="M6.75032 14.7256C7.08921 14.7256 7.36393 14.4503 7.36393 14.1106C7.36393 13.771 7.08921 13.4956 6.75032 13.4956C6.41144 13.4956 6.13672 13.771 6.13672 14.1106C6.13672 14.4503 6.41144 14.7256 6.75032 14.7256Z" fill="url(#paint76_linear_1208_9448)"/>
<path d="M25.887 12.3353C26.2259 12.3353 26.5006 12.0599 26.5006 11.7202C26.5006 11.3806 26.2259 11.1052 25.887 11.1052C25.5482 11.1052 25.2734 11.3806 25.2734 11.7202C25.2734 12.0599 25.5482 12.3353 25.887 12.3353Z" fill="url(#paint77_linear_1208_9448)"/>
<path d="M23.4906 9.93316C23.8294 9.93316 24.1042 9.65781 24.1042 9.31814C24.1042 8.97848 23.8294 8.70312 23.4906 8.70312C23.1517 8.70312 22.877 8.97848 22.877 9.31814C22.877 9.65781 23.1517 9.93316 23.4906 9.93316Z" fill="url(#paint78_linear_1208_9448)"/>
<path d="M24.6937 11.1282C25.0326 11.1282 25.3073 10.8529 25.3073 10.5132C25.3073 10.1735 25.0326 9.89819 24.6937 9.89819C24.3548 9.89819 24.0801 10.1735 24.0801 10.5132C24.0801 10.8529 24.3548 11.1282 24.6937 11.1282Z" fill="url(#paint79_linear_1208_9448)"/>
<path d="M22.2972 13.5303C22.6361 13.5303 22.9108 13.255 22.9108 12.9153C22.9108 12.5756 22.6361 12.3003 22.2972 12.3003C21.9583 12.3003 21.6836 12.5756 21.6836 12.9153C21.6836 13.255 21.9583 13.5303 22.2972 13.5303Z" fill="url(#paint80_linear_1208_9448)"/>
<path d="M22.2972 11.1282C22.6361 11.1282 22.9108 10.8529 22.9108 10.5132C22.9108 10.1735 22.6361 9.89819 22.2972 9.89819C21.9583 9.89819 21.6836 10.1735 21.6836 10.5132C21.6836 10.8529 21.9583 11.1282 22.2972 11.1282Z" fill="url(#paint81_linear_1208_9448)"/>
<path d="M18.7093 12.3353C19.0482 12.3353 19.3229 12.0599 19.3229 11.7202C19.3229 11.3806 19.0482 11.1052 18.7093 11.1052C18.3704 11.1052 18.0957 11.3806 18.0957 11.7202C18.0957 12.0599 18.3704 12.3353 18.7093 12.3353Z" fill="url(#paint82_linear_1208_9448)"/>
<path d="M17.5159 11.1282C17.8548 11.1282 18.1296 10.8529 18.1296 10.5132C18.1296 10.1735 17.8548 9.89819 17.5159 9.89819C17.1771 9.89819 16.9023 10.1735 16.9023 10.5132C16.9023 10.8529 17.1771 11.1282 17.5159 11.1282Z" fill="url(#paint83_linear_1208_9448)"/>
<path d="M21.1058 14.7256C21.4447 14.7256 21.7194 14.4503 21.7194 14.1106C21.7194 13.771 21.4447 13.4956 21.1058 13.4956C20.7669 13.4956 20.4922 13.771 20.4922 14.1106C20.4922 14.4503 20.7669 14.7256 21.1058 14.7256Z" fill="url(#paint84_linear_1208_9448)"/>
<path d="M19.9007 13.5303C20.2396 13.5303 20.5143 13.255 20.5143 12.9153C20.5143 12.5756 20.2396 12.3003 19.9007 12.3003C19.5618 12.3003 19.2871 12.5756 19.2871 12.9153C19.2871 13.255 19.5618 13.5303 19.9007 13.5303Z" fill="url(#paint85_linear_1208_9448)"/>
<path d="M16.3245 9.93316C16.6634 9.93316 16.9381 9.65781 16.9381 9.31814C16.9381 8.97848 16.6634 8.70312 16.3245 8.70312C15.9857 8.70312 15.7109 8.97848 15.7109 9.31814C15.7109 9.65781 15.9857 9.93316 16.3245 9.93316Z" fill="url(#paint86_linear_1208_9448)"/>
<path d="M31.8734 27.9195C32.2123 27.9195 32.487 27.6441 32.487 27.3045C32.487 26.9648 32.2123 26.6895 31.8734 26.6895C31.5345 26.6895 31.2598 26.9648 31.2598 27.3045C31.2598 27.6441 31.5345 27.9195 31.8734 27.9195Z" fill="url(#paint87_linear_1208_9448)"/>
<path d="M30.6683 26.7127C31.0072 26.7127 31.2819 26.4374 31.2819 26.0977C31.2819 25.758 31.0072 25.4827 30.6683 25.4827C30.3294 25.4827 30.0547 25.758 30.0547 26.0977C30.0547 26.4374 30.3294 26.7127 30.6683 26.7127Z" fill="url(#paint88_linear_1208_9448)"/>
<path d="M29.4769 27.9195C29.8158 27.9195 30.0905 27.6441 30.0905 27.3045C30.0905 26.9648 29.8158 26.6895 29.4769 26.6895C29.138 26.6895 28.8633 26.9648 28.8633 27.3045C28.8633 27.6441 29.138 27.9195 29.4769 27.9195Z" fill="url(#paint89_linear_1208_9448)"/>
<path d="M33.0648 26.7127C33.4037 26.7127 33.6784 26.4374 33.6784 26.0977C33.6784 25.758 33.4037 25.4827 33.0648 25.4827C32.7259 25.4827 32.4512 25.758 32.4512 26.0977C32.4512 26.4374 32.7259 26.7127 33.0648 26.7127Z" fill="url(#paint90_linear_1208_9448)"/>
<path d="M28.2835 21.9202C28.6224 21.9202 28.8971 21.6449 28.8971 21.3052C28.8971 20.9655 28.6224 20.6902 28.2835 20.6902C27.9446 20.6902 27.6699 20.9655 27.6699 21.3052C27.6699 21.6449 27.9446 21.9202 28.2835 21.9202Z" fill="url(#paint91_linear_1208_9448)"/>
<path d="M29.4769 23.1153C29.8158 23.1153 30.0905 22.8399 30.0905 22.5003C30.0905 22.1606 29.8158 21.8853 29.4769 21.8853C29.138 21.8853 28.8633 22.1606 28.8633 22.5003C28.8633 22.8399 29.138 23.1153 29.4769 23.1153Z" fill="url(#paint92_linear_1208_9448)"/>
<path d="M27.0784 20.7249C27.4173 20.7249 27.6921 20.4496 27.6921 20.1099C27.6921 19.7702 27.4173 19.4949 27.0784 19.4949C26.7396 19.4949 26.4648 19.7702 26.4648 20.1099C26.4648 20.4496 26.7396 20.7249 27.0784 20.7249Z" fill="url(#paint93_linear_1208_9448)"/>
<path d="M30.6683 24.3223C31.0072 24.3223 31.2819 24.047 31.2819 23.7073C31.2819 23.3676 31.0072 23.0923 30.6683 23.0923C30.3294 23.0923 30.0547 23.3676 30.0547 23.7073C30.0547 24.047 30.3294 24.3223 30.6683 24.3223Z" fill="url(#paint94_linear_1208_9448)"/>
<path d="M31.8734 25.5174C32.2123 25.5174 32.487 25.242 32.487 24.9024C32.487 24.5627 32.2123 24.2874 31.8734 24.2874C31.5345 24.2874 31.2598 24.5627 31.2598 24.9024C31.2598 25.242 31.5345 25.5174 31.8734 25.5174Z" fill="url(#paint95_linear_1208_9448)"/>
<path d="M7.94173 3.9339C8.28061 3.9339 8.55533 3.65854 8.55533 3.31887C8.55533 2.97921 8.28061 2.70386 7.94173 2.70386C7.60284 2.70386 7.32812 2.97921 7.32812 3.31887C7.32812 3.65854 7.60284 3.9339 7.94173 3.9339Z" fill="url(#paint96_linear_1208_9448)"/>
<path d="M4.35384 12.3353C4.69272 12.3353 4.96744 12.0599 4.96744 11.7202C4.96744 11.3806 4.69272 11.1052 4.35384 11.1052C4.01495 11.1052 3.74023 11.3806 3.74023 11.7202C3.74023 12.0599 4.01495 12.3353 4.35384 12.3353Z" fill="url(#paint97_linear_1208_9448)"/>
<path d="M7.94173 11.1282C8.28061 11.1282 8.55533 10.8529 8.55533 10.5132C8.55533 10.1735 8.28061 9.89819 7.94173 9.89819C7.60284 9.89819 7.32812 10.1735 7.32812 10.5132C7.32812 10.8529 7.60284 11.1282 7.94173 11.1282Z" fill="url(#paint98_linear_1208_9448)"/>
<path d="M3.16048 13.5303C3.49936 13.5303 3.77408 13.255 3.77408 12.9153C3.77408 12.5756 3.49936 12.3003 3.16048 12.3003C2.82159 12.3003 2.54688 12.5756 2.54688 12.9153C2.54688 13.255 2.82159 13.5303 3.16048 13.5303Z" fill="url(#paint99_linear_1208_9448)"/>
<path d="M5.55696 13.5303C5.89585 13.5303 6.17057 13.255 6.17057 12.9153C6.17057 12.5756 5.89585 12.3003 5.55696 12.3003C5.21808 12.3003 4.94336 12.5756 4.94336 12.9153C4.94336 13.255 5.21808 13.5303 5.55696 13.5303Z" fill="url(#paint100_linear_1208_9448)"/>
<path d="M3.16048 11.1282C3.49936 11.1282 3.77408 10.8529 3.77408 10.5132C3.77408 10.1735 3.49936 9.89819 3.16048 9.89819C2.82159 9.89819 2.54688 10.1735 2.54688 10.5132C2.54688 10.8529 2.82159 11.1282 3.16048 11.1282Z" fill="url(#paint101_linear_1208_9448)"/>
<path d="M3.16048 15.9324C3.49936 15.9324 3.77408 15.6571 3.77408 15.3174C3.77408 14.9777 3.49936 14.7024 3.16048 14.7024C2.82159 14.7024 2.54688 14.9777 2.54688 15.3174C2.54688 15.6571 2.82159 15.9324 3.16048 15.9324Z" fill="url(#paint102_linear_1208_9448)"/>
<path d="M19.9007 15.9324C20.2396 15.9324 20.5143 15.6571 20.5143 15.3174C20.5143 14.9777 20.2396 14.7024 19.9007 14.7024C19.5618 14.7024 19.2871 14.9777 19.2871 15.3174C19.2871 15.6571 19.5618 15.9324 19.9007 15.9324Z" fill="url(#paint103_linear_1208_9448)"/>
<path d="M3.16048 18.3228C3.49936 18.3228 3.77408 18.0475 3.77408 17.7078C3.77408 17.3681 3.49936 17.0928 3.16048 17.0928C2.82159 17.0928 2.54688 17.3681 2.54688 17.7078C2.54688 18.0475 2.82159 18.3228 3.16048 18.3228Z" fill="url(#paint104_linear_1208_9448)"/>
<path d="M11.5316 5.14068C11.8705 5.14068 12.1452 4.86532 12.1452 4.52566C12.1452 4.186 11.8705 3.91064 11.5316 3.91064C11.1927 3.91064 10.918 4.186 10.918 4.52566C10.918 4.86532 11.1927 5.14068 11.5316 5.14068Z" fill="url(#paint105_linear_1208_9448)"/>
<path d="M12.7347 6.33574C13.0736 6.33574 13.3483 6.06039 13.3483 5.72073C13.3483 5.38106 13.0736 5.10571 12.7347 5.10571C12.3958 5.10571 12.1211 5.38106 12.1211 5.72073C12.1211 6.06039 12.3958 6.33574 12.7347 6.33574Z" fill="url(#paint106_linear_1208_9448)"/>
<path d="M15.1195 8.73784C15.4583 8.73784 15.7331 8.46249 15.7331 8.12283C15.7331 7.78316 15.4583 7.50781 15.1195 7.50781C14.7806 7.50781 14.5059 7.78316 14.5059 8.12283C14.5059 8.46249 14.7806 8.73784 15.1195 8.73784Z" fill="url(#paint107_linear_1208_9448)"/>
<path d="M7.94173 8.73784C8.28061 8.73784 8.55533 8.46249 8.55533 8.12283C8.55533 7.78316 8.28061 7.50781 7.94173 7.50781C7.60284 7.50781 7.32812 7.78316 7.32812 8.12283C7.32812 8.46249 7.60284 8.73784 7.94173 8.73784Z" fill="url(#paint108_linear_1208_9448)"/>
<path d="M13.9281 7.53106C14.2669 7.53106 14.5417 7.25571 14.5417 6.91604C14.5417 6.57638 14.2669 6.30103 13.9281 6.30103C13.5892 6.30103 13.3145 6.57638 13.3145 6.91604C13.3145 7.25571 13.5892 7.53106 13.9281 7.53106Z" fill="url(#paint109_linear_1208_9448)"/>
<path d="M10.3382 3.9339C10.6771 3.9339 10.9518 3.65854 10.9518 3.31887C10.9518 2.97921 10.6771 2.70386 10.3382 2.70386C9.99933 2.70386 9.72461 2.97921 9.72461 3.31887C9.72461 3.65854 9.99933 3.9339 10.3382 3.9339Z" fill="url(#paint110_linear_1208_9448)"/>
<path d="M9.14681 2.73858C9.48569 2.73858 9.76041 2.46323 9.76041 2.12356C9.76041 1.7839 9.48569 1.50854 9.14681 1.50854C8.80792 1.50854 8.5332 1.7839 8.5332 2.12356C8.5332 2.46323 8.80792 2.73858 9.14681 2.73858Z" fill="url(#paint111_linear_1208_9448)"/>
<path d="M7.94173 6.33574C8.28061 6.33574 8.55533 6.06039 8.55533 5.72073C8.55533 5.38106 8.28061 5.10571 7.94173 5.10571C7.60284 5.10571 7.32812 5.38106 7.32812 5.72073C7.32812 6.06039 7.60284 6.33574 7.94173 6.33574Z" fill="url(#paint112_linear_1208_9448)"/>
<path d="M28.2835 26.7127C28.6224 26.7127 28.8971 26.4374 28.8971 26.0977C28.8971 25.758 28.6224 25.4827 28.2835 25.4827C27.9446 25.4827 27.6699 25.758 27.6699 26.0977C27.6699 26.4374 27.9446 26.7127 28.2835 26.7127Z" fill="url(#paint113_linear_1208_9448)"/>
<path d="M16.3245 12.3353C16.6634 12.3353 16.9381 12.0599 16.9381 11.7202C16.9381 11.3806 16.6634 11.1052 16.3245 11.1052C15.9857 11.1052 15.7109 11.3806 15.7109 11.7202C15.7109 12.0599 15.9857 12.3353 16.3245 12.3353Z" fill="url(#paint114_linear_1208_9448)"/>
<path d="M7.94173 15.9324C8.28061 15.9324 8.55533 15.6571 8.55533 15.3174C8.55533 14.9777 8.28061 14.7024 7.94173 14.7024C7.60284 14.7024 7.32812 14.9777 7.32812 15.3174C7.32812 15.6571 7.60284 15.9324 7.94173 15.9324Z" fill="url(#paint115_linear_1208_9448)"/>
<path d="M6.75032 17.1277C7.08921 17.1277 7.36393 16.8524 7.36393 16.5127C7.36393 16.1731 7.08921 15.8977 6.75032 15.8977C6.41144 15.8977 6.13672 16.1731 6.13672 16.5127C6.13672 16.8524 6.41144 17.1277 6.75032 17.1277Z" fill="url(#paint116_linear_1208_9448)"/>
<path d="M9.14681 12.3353C9.48569 12.3353 9.76041 12.0599 9.76041 11.7202C9.76041 11.3806 9.48569 11.1052 9.14681 11.1052C8.80792 11.1052 8.5332 11.3806 8.5332 11.7202C8.5332 12.0599 8.80792 12.3353 9.14681 12.3353Z" fill="url(#paint117_linear_1208_9448)"/>
<path d="M9.14681 7.53106C9.48569 7.53106 9.76041 7.25571 9.76041 6.91604C9.76041 6.57638 9.48569 6.30103 9.14681 6.30103C8.80792 6.30103 8.5332 6.57638 8.5332 6.91604C8.5332 7.25571 8.80792 7.53106 9.14681 7.53106Z" fill="url(#paint118_linear_1208_9448)"/>
<path d="M27.0784 27.9195C27.4173 27.9195 27.6921 27.6441 27.6921 27.3045C27.6921 26.9648 27.4173 26.6895 27.0784 26.6895C26.7396 26.6895 26.4648 26.9648 26.4648 27.3045C26.4648 27.6441 26.7396 27.9195 27.0784 27.9195Z" fill="url(#paint119_linear_1208_9448)"/>
<path d="M4.35384 17.1277C4.69272 17.1277 4.96744 16.8524 4.96744 16.5127C4.96744 16.1731 4.69272 15.8977 4.35384 15.8977C4.01495 15.8977 3.74023 16.1731 3.74023 16.5127C3.74023 16.8524 4.01495 17.1277 4.35384 17.1277Z" fill="url(#paint120_linear_1208_9448)"/>
<path d="M5.55696 27.9195C5.89585 27.9195 6.17057 27.6441 6.17057 27.3045C6.17057 26.9648 5.89585 26.6895 5.55696 26.6895C5.21808 26.6895 4.94336 26.9648 4.94336 27.3045C4.94336 27.6441 5.21808 27.9195 5.55696 27.9195Z" fill="url(#paint121_linear_1208_9448)"/>
<path d="M4.35384 14.7256C4.69272 14.7256 4.96744 14.4503 4.96744 14.1106C4.96744 13.771 4.69272 13.4956 4.35384 13.4956C4.01495 13.4956 3.74023 13.771 3.74023 14.1106C3.74023 14.4503 4.01495 14.7256 4.35384 14.7256Z" fill="url(#paint122_linear_1208_9448)"/>
<path d="M5.55696 15.9324C5.89585 15.9324 6.17057 15.6571 6.17057 15.3174C6.17057 14.9777 5.89585 14.7024 5.55696 14.7024C5.21808 14.7024 4.94336 14.9777 4.94336 15.3174C4.94336 15.6571 5.21808 15.9324 5.55696 15.9324Z" fill="url(#paint123_linear_1208_9448)"/>
<path d="M10.3382 6.33574C10.6771 6.33574 10.9518 6.06039 10.9518 5.72073C10.9518 5.38106 10.6771 5.10571 10.3382 5.10571C9.99933 5.10571 9.72461 5.38106 9.72461 5.72073C9.72461 6.06039 9.99933 6.33574 10.3382 6.33574Z" fill="url(#paint124_linear_1208_9448)"/>
<path d="M15.1195 11.1282C15.4583 11.1282 15.7331 10.8529 15.7331 10.5132C15.7331 10.1735 15.4583 9.89819 15.1195 9.89819C14.7806 9.89819 14.5059 10.1735 14.5059 10.5132C14.5059 10.8529 14.7806 11.1282 15.1195 11.1282Z" fill="url(#paint125_linear_1208_9448)"/>
<path d="M9.14681 5.14068C9.48569 5.14068 9.76041 4.86532 9.76041 4.52566C9.76041 4.186 9.48569 3.91064 9.14681 3.91064C8.80792 3.91064 8.5332 4.186 8.5332 4.52566C8.5332 4.86532 8.80792 5.14068 9.14681 5.14068Z" fill="url(#paint126_linear_1208_9448)"/>
<path d="M17.5159 13.5303C17.8548 13.5303 18.1296 13.255 18.1296 12.9153C18.1296 12.5756 17.8548 12.3003 17.5159 12.3003C17.1771 12.3003 16.9023 12.5756 16.9023 12.9153C16.9023 13.255 17.1771 13.5303 17.5159 13.5303Z" fill="url(#paint127_linear_1208_9448)"/>
<path d="M18.7093 14.7256C19.0482 14.7256 19.3229 14.4503 19.3229 14.1106C19.3229 13.771 19.0482 13.4956 18.7093 13.4956C18.3704 13.4956 18.0957 13.771 18.0957 14.1106C18.0957 14.4503 18.3704 14.7256 18.7093 14.7256Z" fill="url(#paint128_linear_1208_9448)"/>
<path d="M13.9281 9.93316C14.2669 9.93316 14.5417 9.65781 14.5417 9.31814C14.5417 8.97848 14.2669 8.70312 13.9281 8.70312C13.5892 8.70312 13.3145 8.97848 13.3145 9.31814C13.3145 9.65781 13.5892 9.93316 13.9281 9.93316Z" fill="url(#paint129_linear_1208_9448)"/>
<path d="M6.75032 29.1148C7.08921 29.1148 7.36393 28.8394 7.36393 28.4998C7.36393 28.1601 7.08921 27.8848 6.75032 27.8848C6.41144 27.8848 6.13672 28.1601 6.13672 28.4998C6.13672 28.8394 6.41144 29.1148 6.75032 29.1148Z" fill="url(#paint130_linear_1208_9448)"/>
<path d="M11.5316 7.53106C11.8705 7.53106 12.1452 7.25571 12.1452 6.91604C12.1452 6.57638 11.8705 6.30103 11.5316 6.30103C11.1927 6.30103 10.918 6.57638 10.918 6.91604C10.918 7.25571 11.1927 7.53106 11.5316 7.53106Z" fill="url(#paint131_linear_1208_9448)"/>
<path d="M12.7347 8.73784C13.0736 8.73784 13.3483 8.46249 13.3483 8.12283C13.3483 7.78316 13.0736 7.50781 12.7347 7.50781C12.3958 7.50781 12.1211 7.78316 12.1211 8.12283C12.1211 8.46249 12.3958 8.73784 12.7347 8.73784Z" fill="url(#paint132_linear_1208_9448)"/>
<path d="M9.14681 9.93316C9.48569 9.93316 9.76041 9.65781 9.76041 9.31814C9.76041 8.97848 9.48569 8.70312 9.14681 8.70312C8.80792 8.70312 8.5332 8.97848 8.5332 9.31814C8.5332 9.65781 8.80792 9.93316 9.14681 9.93316Z" fill="url(#paint133_linear_1208_9448)"/>
<path d="M19.9007 32.712C20.2396 32.712 20.5143 32.4366 20.5143 32.0969C20.5143 31.7573 20.2396 31.4819 19.9007 31.4819C19.5618 31.4819 19.2871 31.7573 19.2871 32.0969C19.2871 32.4366 19.5618 32.712 19.9007 32.712Z" fill="url(#paint134_linear_1208_9448)"/>
<path d="M21.1058 31.5167C21.4447 31.5167 21.7194 31.2413 21.7194 30.9016C21.7194 30.562 21.4447 30.2866 21.1058 30.2866C20.7669 30.2866 20.4922 30.562 20.4922 30.9016C20.4922 31.2413 20.7669 31.5167 21.1058 31.5167Z" fill="url(#paint135_linear_1208_9448)"/>
<path d="M17.5159 32.712C17.8548 32.712 18.1296 32.4366 18.1296 32.0969C18.1296 31.7573 17.8548 31.4819 17.5159 31.4819C17.1771 31.4819 16.9023 31.7573 16.9023 32.0969C16.9023 32.4366 17.1771 32.712 17.5159 32.712Z" fill="url(#paint136_linear_1208_9448)"/>
<path d="M22.2972 32.712C22.6361 32.712 22.9108 32.4366 22.9108 32.0969C22.9108 31.7573 22.6361 31.4819 22.2972 31.4819C21.9583 31.4819 21.6836 31.7573 21.6836 32.0969C21.6836 32.4366 21.9583 32.712 22.2972 32.712Z" fill="url(#paint137_linear_1208_9448)"/>
<path d="M18.7093 31.5167C19.0482 31.5167 19.3229 31.2413 19.3229 30.9016C19.3229 30.562 19.0482 30.2866 18.7093 30.2866C18.3704 30.2866 18.0957 30.562 18.0957 30.9016C18.0957 31.2413 18.3704 31.5167 18.7093 31.5167Z" fill="url(#paint138_linear_1208_9448)"/>
<path d="M25.887 26.7127C26.2259 26.7127 26.5006 26.4374 26.5006 26.0977C26.5006 25.758 26.2259 25.4827 25.887 25.4827C25.5482 25.4827 25.2734 25.758 25.2734 26.0977C25.2734 26.4374 25.5482 26.7127 25.887 26.7127Z" fill="url(#paint139_linear_1208_9448)"/>
<path d="M24.6937 27.9195C25.0326 27.9195 25.3073 27.6441 25.3073 27.3045C25.3073 26.9648 25.0326 26.6895 24.6937 26.6895C24.3548 26.6895 24.0801 26.9648 24.0801 27.3045C24.0801 27.6441 24.3548 27.9195 24.6937 27.9195Z" fill="url(#paint140_linear_1208_9448)"/>
<path d="M23.4906 31.5167C23.8294 31.5167 24.1042 31.2413 24.1042 30.9016C24.1042 30.562 23.8294 30.2866 23.4906 30.2866C23.1517 30.2866 22.877 30.562 22.877 30.9016C22.877 31.2413 23.1517 31.5167 23.4906 31.5167Z" fill="url(#paint141_linear_1208_9448)"/>
<path d="M24.6937 32.712C25.0326 32.712 25.3073 32.4366 25.3073 32.0969C25.3073 31.7573 25.0326 31.4819 24.6937 31.4819C24.3548 31.4819 24.0801 31.7573 24.0801 32.0969C24.0801 32.4366 24.3548 32.712 24.6937 32.712Z" fill="url(#paint142_linear_1208_9448)"/>
<path d="M7.94173 30.3099C8.28061 30.3099 8.55533 30.0345 8.55533 29.6949C8.55533 29.3552 8.28061 29.0798 7.94173 29.0798C7.60284 29.0798 7.32812 29.3552 7.32812 29.6949C7.32812 30.0345 7.60284 30.3099 7.94173 30.3099Z" fill="url(#paint143_linear_1208_9448)"/>
<path d="M9.14681 26.7127C9.48569 26.7127 9.76041 26.4374 9.76041 26.0977C9.76041 25.758 9.48569 25.4827 9.14681 25.4827C8.80792 25.4827 8.5332 25.758 8.5332 26.0977C8.5332 26.4374 8.80792 26.7127 9.14681 26.7127Z" fill="url(#paint144_linear_1208_9448)"/>
<path d="M10.3382 25.5174C10.6771 25.5174 10.9518 25.242 10.9518 24.9024C10.9518 24.5627 10.6771 24.2874 10.3382 24.2874C9.99933 24.2874 9.72461 24.5627 9.72461 24.9024C9.72461 25.242 9.99933 25.5174 10.3382 25.5174Z" fill="url(#paint145_linear_1208_9448)"/>
<path d="M7.94173 27.9195C8.28061 27.9195 8.55533 27.6441 8.55533 27.3045C8.55533 26.9648 8.28061 26.6895 7.94173 26.6895C7.60284 26.6895 7.32812 26.9648 7.32812 27.3045C7.32812 27.6441 7.60284 27.9195 7.94173 27.9195Z" fill="url(#paint146_linear_1208_9448)"/>
<path d="M16.3245 31.5167C16.6634 31.5167 16.9381 31.2413 16.9381 30.9016C16.9381 30.562 16.6634 30.2866 16.3245 30.2866C15.9857 30.2866 15.7109 30.562 15.7109 30.9016C15.7109 31.2413 15.9857 31.5167 16.3245 31.5167Z" fill="url(#paint147_linear_1208_9448)"/>
<path d="M11.5316 24.3223C11.8705 24.3223 12.1452 24.047 12.1452 23.7073C12.1452 23.3676 11.8705 23.0923 11.5316 23.0923C11.1927 23.0923 10.918 23.3676 10.918 23.7073C10.918 24.047 11.1927 24.3223 11.5316 24.3223Z" fill="url(#paint148_linear_1208_9448)"/>
<path d="M13.9281 29.1148C14.2669 29.1148 14.5417 28.8394 14.5417 28.4998C14.5417 28.1601 14.2669 27.8848 13.9281 27.8848C13.5892 27.8848 13.3145 28.1601 13.3145 28.4998C13.3145 28.8394 13.5892 29.1148 13.9281 29.1148Z" fill="url(#paint149_linear_1208_9448)"/>
<path d="M15.1195 30.3099C15.4583 30.3099 15.7331 30.0345 15.7331 29.6949C15.7331 29.3552 15.4583 29.0798 15.1195 29.0798C14.7806 29.0798 14.5059 29.3552 14.5059 29.6949C14.5059 30.0345 14.7806 30.3099 15.1195 30.3099Z" fill="url(#paint150_linear_1208_9448)"/>
<path d="M12.7347 23.1153C13.0736 23.1153 13.3483 22.8399 13.3483 22.5003C13.3483 22.1606 13.0736 21.8853 12.7347 21.8853C12.3958 21.8853 12.1211 22.1606 12.1211 22.5003C12.1211 22.8399 12.3958 23.1153 12.7347 23.1153Z" fill="url(#paint151_linear_1208_9448)"/>
<defs>
<linearGradient id="paint0_linear_1208_9448" x1="9.14343" y1="39.0647" x2="9.14343" y2="-7.60376" gradientUnits="userSpaceOnUse">
<stop stop-color="#EB6608"/>
<stop offset="0.267" stop-color="#EF7E15"/>
<stop offset="0.7464" stop-color="#F6A32B"/>
<stop offset="1" stop-color="#F8B133"/>
</linearGradient>
<linearGradient id="paint1_linear_1208_9448" x1="10.3384" y1="39.0645" x2="10.3384" y2="-7.60369" gradientUnits="userSpaceOnUse">
<stop stop-color="#EB6608"/>
<stop offset="0.267" stop-color="#EF7E15"/>
<stop offset="0.7464" stop-color="#F6A32B"/>
<stop offset="1" stop-color="#F8B133"/>
</linearGradient>
<linearGradient id="paint2_linear_1208_9448" x1="5.55443" y1="39.0645" x2="5.55443" y2="-7.60369" gradientUnits="userSpaceOnUse">
<stop stop-color="#EB6608"/>
<stop offset="0.267" stop-color="#EF7E15"/>
<stop offset="0.7464" stop-color="#F6A32B"/>
<stop offset="1" stop-color="#F8B133"/>
</linearGradient>
<linearGradient id="paint3_linear_1208_9448" x1="7.94636" y1="39.0645" x2="7.94636" y2="-7.60369" gradientUnits="userSpaceOnUse">
<stop stop-color="#EB6608"/>
<stop offset="0.267" stop-color="#EF7E15"/>
<stop offset="0.7464" stop-color="#F6A32B"/>
<stop offset="1" stop-color="#F8B133"/>
</linearGradient>
<linearGradient id="paint4_linear_1208_9448" x1="6.75141" y1="39.0647" x2="6.75141" y2="-7.60376" gradientUnits="userSpaceOnUse">
<stop stop-color="#EB6608"/>
<stop offset="0.267" stop-color="#EF7E15"/>
<stop offset="0.7464" stop-color="#F6A32B"/>
<stop offset="1" stop-color="#F8B133"/>
</linearGradient>
<linearGradient id="paint5_linear_1208_9448" x1="13.9274" y1="39.0647" x2="13.9274" y2="-7.60354" gradientUnits="userSpaceOnUse">
<stop stop-color="#EB6608"/>
<stop offset="0.267" stop-color="#EF7E15"/>
<stop offset="0.7464" stop-color="#F6A32B"/>
<stop offset="1" stop-color="#F8B133"/>
</linearGradient>
<linearGradient id="paint6_linear_1208_9448" x1="13.9274" y1="39.0647" x2="13.9274" y2="-7.60376" gradientUnits="userSpaceOnUse">
<stop stop-color="#EB6608"/>
<stop offset="0.267" stop-color="#EF7E15"/>
<stop offset="0.7464" stop-color="#F6A32B"/>
<stop offset="1" stop-color="#F8B133"/>
</linearGradient>
<linearGradient id="paint7_linear_1208_9448" x1="11.5353" y1="39.0647" x2="11.5353" y2="-7.60376" gradientUnits="userSpaceOnUse">
<stop stop-color="#EB6608"/>
<stop offset="0.267" stop-color="#EF7E15"/>
<stop offset="0.7464" stop-color="#F6A32B"/>
<stop offset="1" stop-color="#F8B133"/>
</linearGradient>
<linearGradient id="paint8_linear_1208_9448" x1="12.7305" y1="39.0645" x2="12.7305" y2="-7.60369" gradientUnits="userSpaceOnUse">
<stop stop-color="#EB6608"/>
<stop offset="0.267" stop-color="#EF7E15"/>
<stop offset="0.7464" stop-color="#F6A32B"/>
<stop offset="1" stop-color="#F8B133"/>
</linearGradient>
<linearGradient id="paint9_linear_1208_9448" x1="9.14343" y1="39.0646" x2="9.14343" y2="-7.6036" gradientUnits="userSpaceOnUse">
<stop stop-color="#EB6608"/>
<stop offset="0.267" stop-color="#EF7E15"/>
<stop offset="0.7464" stop-color="#F6A32B"/>
<stop offset="1" stop-color="#F8B133"/>
</linearGradient>
<linearGradient id="paint10_linear_1208_9448" x1="10.3384" y1="39.0646" x2="10.3384" y2="-7.60391" gradientUnits="userSpaceOnUse">
<stop stop-color="#EB6608"/>
<stop offset="0.267" stop-color="#EF7E15"/>
<stop offset="0.7464" stop-color="#F6A32B"/>
<stop offset="1" stop-color="#F8B133"/>
</linearGradient>
<linearGradient id="paint11_linear_1208_9448" x1="11.5353" y1="39.0646" x2="11.5353" y2="-7.60365" gradientUnits="userSpaceOnUse">
<stop stop-color="#EB6608"/>
<stop offset="0.267" stop-color="#EF7E15"/>
<stop offset="0.7464" stop-color="#F6A32B"/>
<stop offset="1" stop-color="#F8B133"/>
</linearGradient>
<linearGradient id="paint12_linear_1208_9448" x1="10.3384" y1="39.0645" x2="10.3384" y2="-7.60375" gradientUnits="userSpaceOnUse">
<stop stop-color="#EB6608"/>
<stop offset="0.267" stop-color="#EF7E15"/>
<stop offset="0.7464" stop-color="#F6A32B"/>
<stop offset="1" stop-color="#F8B133"/>
</linearGradient>
<linearGradient id="paint13_linear_1208_9448" x1="13.9274" y1="39.0646" x2="13.9274" y2="-7.6036" gradientUnits="userSpaceOnUse">
<stop stop-color="#EB6608"/>
<stop offset="0.267" stop-color="#EF7E15"/>
<stop offset="0.7464" stop-color="#F6A32B"/>
<stop offset="1" stop-color="#F8B133"/>
</linearGradient>
<linearGradient id="paint14_linear_1208_9448" x1="21.1034" y1="39.0646" x2="21.1034" y2="-7.6036" gradientUnits="userSpaceOnUse">
<stop stop-color="#EB6608"/>
<stop offset="0.267" stop-color="#EF7E15"/>
<stop offset="0.7464" stop-color="#F6A32B"/>
<stop offset="1" stop-color="#F8B133"/>
</linearGradient>
<linearGradient id="paint15_linear_1208_9448" x1="7.94636" y1="39.0646" x2="7.94636" y2="-7.60389" gradientUnits="userSpaceOnUse">
<stop stop-color="#EB6608"/>
<stop offset="0.267" stop-color="#EF7E15"/>
<stop offset="0.7464" stop-color="#F6A32B"/>
<stop offset="1" stop-color="#F8B133"/>
</linearGradient>
<linearGradient id="paint16_linear_1208_9448" x1="6.75141" y1="39.0647" x2="6.75141" y2="-7.6038" gradientUnits="userSpaceOnUse">
<stop stop-color="#EB6608"/>
<stop offset="0.267" stop-color="#EF7E15"/>
<stop offset="0.7464" stop-color="#F6A32B"/>
<stop offset="1" stop-color="#F8B133"/>
</linearGradient>
<linearGradient id="paint17_linear_1208_9448" x1="10.3384" y1="39.0645" x2="10.3384" y2="-7.60375" gradientUnits="userSpaceOnUse">
<stop stop-color="#EB6608"/>
<stop offset="0.267" stop-color="#EF7E15"/>
<stop offset="0.7464" stop-color="#F6A32B"/>
<stop offset="1" stop-color="#F8B133"/>
</linearGradient>
<linearGradient id="paint18_linear_1208_9448" x1="13.9274" y1="39.0647" x2="13.9274" y2="-7.60379" gradientUnits="userSpaceOnUse">
<stop stop-color="#EB6608"/>
<stop offset="0.267" stop-color="#EF7E15"/>
<stop offset="0.7464" stop-color="#F6A32B"/>
<stop offset="1" stop-color="#F8B133"/>
</linearGradient>
<linearGradient id="paint19_linear_1208_9448" x1="12.7305" y1="39.0646" x2="12.7305" y2="-7.60391" gradientUnits="userSpaceOnUse">
<stop stop-color="#EB6608"/>
<stop offset="0.267" stop-color="#EF7E15"/>
<stop offset="0.7464" stop-color="#F6A32B"/>
<stop offset="1" stop-color="#F8B133"/>
</linearGradient>
<linearGradient id="paint20_linear_1208_9448" x1="25.8874" y1="39.0647" x2="25.8874" y2="-7.60376" gradientUnits="userSpaceOnUse">
<stop stop-color="#EB6608"/>
<stop offset="0.267" stop-color="#EF7E15"/>
<stop offset="0.7464" stop-color="#F6A32B"/>
<stop offset="1" stop-color="#F8B133"/>
</linearGradient>
<linearGradient id="paint21_linear_1208_9448" x1="25.8874" y1="39.0647" x2="25.8874" y2="-7.6038" gradientUnits="userSpaceOnUse">
<stop stop-color="#EB6608"/>
<stop offset="0.267" stop-color="#EF7E15"/>
<stop offset="0.7464" stop-color="#F6A32B"/>
<stop offset="1" stop-color="#F8B133"/>
</linearGradient>
<linearGradient id="paint22_linear_1208_9448" x1="27.0823" y1="39.0646" x2="27.0823" y2="-7.60392" gradientUnits="userSpaceOnUse">
<stop stop-color="#EB6608"/>
<stop offset="0.267" stop-color="#EF7E15"/>
<stop offset="0.7464" stop-color="#F6A32B"/>
<stop offset="1" stop-color="#F8B133"/>
</linearGradient>
<linearGradient id="paint23_linear_1208_9448" x1="27.0823" y1="39.0646" x2="27.0823" y2="-7.60388" gradientUnits="userSpaceOnUse">
<stop stop-color="#EB6608"/>
<stop offset="0.267" stop-color="#EF7E15"/>
<stop offset="0.7464" stop-color="#F6A32B"/>
<stop offset="1" stop-color="#F8B133"/>
</linearGradient>
<linearGradient id="paint24_linear_1208_9448" x1="23.4953" y1="39.0646" x2="23.4953" y2="-7.6036" gradientUnits="userSpaceOnUse">
<stop stop-color="#EB6608"/>
<stop offset="0.267" stop-color="#EF7E15"/>
<stop offset="0.7464" stop-color="#F6A32B"/>
<stop offset="1" stop-color="#F8B133"/>
</linearGradient>
<linearGradient id="paint25_linear_1208_9448" x1="22.2983" y1="39.0645" x2="22.2983" y2="-7.60369" gradientUnits="userSpaceOnUse">
<stop stop-color="#EB6608"/>
<stop offset="0.267" stop-color="#EF7E15"/>
<stop offset="0.7464" stop-color="#F6A32B"/>
<stop offset="1" stop-color="#F8B133"/>
</linearGradient>
<linearGradient id="paint26_linear_1208_9448" x1="25.8874" y1="39.0647" x2="25.8874" y2="-7.60354" gradientUnits="userSpaceOnUse">
<stop stop-color="#EB6608"/>
<stop offset="0.267" stop-color="#EF7E15"/>
<stop offset="0.7464" stop-color="#F6A32B"/>
<stop offset="1" stop-color="#F8B133"/>
</linearGradient>
<linearGradient id="paint27_linear_1208_9448" x1="24.6904" y1="39.0645" x2="24.6904" y2="-7.60375" gradientUnits="userSpaceOnUse">
<stop stop-color="#EB6608"/>
<stop offset="0.267" stop-color="#EF7E15"/>
<stop offset="0.7464" stop-color="#F6A32B"/>
<stop offset="1" stop-color="#F8B133"/>
</linearGradient>
<linearGradient id="paint28_linear_1208_9448" x1="15.1224" y1="39.0646" x2="15.1224" y2="-7.60363" gradientUnits="userSpaceOnUse">
<stop stop-color="#EB6608"/>
<stop offset="0.267" stop-color="#EF7E15"/>
<stop offset="0.7464" stop-color="#F6A32B"/>
<stop offset="1" stop-color="#F8B133"/>
</linearGradient>
<linearGradient id="paint29_linear_1208_9448" x1="23.4953" y1="39.0646" x2="23.4953" y2="-7.6036" gradientUnits="userSpaceOnUse">
<stop stop-color="#EB6608"/>
<stop offset="0.267" stop-color="#EF7E15"/>
<stop offset="0.7464" stop-color="#F6A32B"/>
<stop offset="1" stop-color="#F8B133"/>
</linearGradient>
<linearGradient id="paint30_linear_1208_9448" x1="17.5144" y1="39.0646" x2="17.5144" y2="-7.6039" gradientUnits="userSpaceOnUse">
<stop stop-color="#EB6608"/>
<stop offset="0.267" stop-color="#EF7E15"/>
<stop offset="0.7464" stop-color="#F6A32B"/>
<stop offset="1" stop-color="#F8B133"/>
</linearGradient>
<linearGradient id="paint31_linear_1208_9448" x1="18.7114" y1="39.0647" x2="18.7114" y2="-7.60375" gradientUnits="userSpaceOnUse">
<stop stop-color="#EB6608"/>
<stop offset="0.267" stop-color="#EF7E15"/>
<stop offset="0.7464" stop-color="#F6A32B"/>
<stop offset="1" stop-color="#F8B133"/>
</linearGradient>
<linearGradient id="paint32_linear_1208_9448" x1="19.9063" y1="39.0646" x2="19.9063" y2="-7.6039" gradientUnits="userSpaceOnUse">
<stop stop-color="#EB6608"/>
<stop offset="0.267" stop-color="#EF7E15"/>
<stop offset="0.7464" stop-color="#F6A32B"/>
<stop offset="1" stop-color="#F8B133"/>
</linearGradient>
<linearGradient id="paint33_linear_1208_9448" x1="16.3194" y1="39.0647" x2="16.3194" y2="-7.60375" gradientUnits="userSpaceOnUse">
<stop stop-color="#EB6608"/>
<stop offset="0.267" stop-color="#EF7E15"/>
<stop offset="0.7464" stop-color="#F6A32B"/>
<stop offset="1" stop-color="#F8B133"/>
</linearGradient>
<linearGradient id="paint34_linear_1208_9448" x1="24.6904" y1="39.0646" x2="24.6904" y2="-7.60388" gradientUnits="userSpaceOnUse">
<stop stop-color="#EB6608"/>
<stop offset="0.267" stop-color="#EF7E15"/>
<stop offset="0.7464" stop-color="#F6A32B"/>
<stop offset="1" stop-color="#F8B133"/>
</linearGradient>
<linearGradient id="paint35_linear_1208_9448" x1="21.1034" y1="39.0647" x2="21.1034" y2="-7.60375" gradientUnits="userSpaceOnUse">
<stop stop-color="#EB6608"/>
<stop offset="0.267" stop-color="#EF7E15"/>
<stop offset="0.7464" stop-color="#F6A32B"/>
<stop offset="1" stop-color="#F8B133"/>
</linearGradient>
<linearGradient id="paint36_linear_1208_9448" x1="23.4953" y1="39.0647" x2="23.4953" y2="-7.60379" gradientUnits="userSpaceOnUse">
<stop stop-color="#EB6608"/>
<stop offset="0.267" stop-color="#EF7E15"/>
<stop offset="0.7464" stop-color="#F6A32B"/>
<stop offset="1" stop-color="#F8B133"/>
</linearGradient>
<linearGradient id="paint37_linear_1208_9448" x1="22.2983" y1="39.0646" x2="22.2983" y2="-7.6039" gradientUnits="userSpaceOnUse">
<stop stop-color="#EB6608"/>
<stop offset="0.267" stop-color="#EF7E15"/>
<stop offset="0.7464" stop-color="#F6A32B"/>
<stop offset="1" stop-color="#F8B133"/>
</linearGradient>
<linearGradient id="paint38_linear_1208_9448" x1="5.55443" y1="39.0646" x2="5.55443" y2="-7.60389" gradientUnits="userSpaceOnUse">
<stop stop-color="#EB6608"/>
<stop offset="0.267" stop-color="#EF7E15"/>
<stop offset="0.7464" stop-color="#F6A32B"/>
<stop offset="1" stop-color="#F8B133"/>
</linearGradient>
<linearGradient id="paint39_linear_1208_9448" x1="22.2983" y1="39.0646" x2="22.2983" y2="-7.60389" gradientUnits="userSpaceOnUse">
<stop stop-color="#EB6608"/>
<stop offset="0.267" stop-color="#EF7E15"/>
<stop offset="0.7464" stop-color="#F6A32B"/>
<stop offset="1" stop-color="#F8B133"/>
</linearGradient>
<linearGradient id="paint40_linear_1208_9448" x1="24.6904" y1="39.0646" x2="24.6904" y2="-7.60392" gradientUnits="userSpaceOnUse">
<stop stop-color="#EB6608"/>
<stop offset="0.267" stop-color="#EF7E15"/>
<stop offset="0.7464" stop-color="#F6A32B"/>
<stop offset="1" stop-color="#F8B133"/>
</linearGradient>
<linearGradient id="paint41_linear_1208_9448" x1="24.6904" y1="39.0646" x2="24.6904" y2="-7.60389" gradientUnits="userSpaceOnUse">
<stop stop-color="#EB6608"/>
<stop offset="0.267" stop-color="#EF7E15"/>
<stop offset="0.7464" stop-color="#F6A32B"/>
<stop offset="1" stop-color="#F8B133"/>
</linearGradient>
<linearGradient id="paint42_linear_1208_9448" x1="24.6904" y1="39.0645" x2="24.6904" y2="-7.60369" gradientUnits="userSpaceOnUse">
<stop stop-color="#EB6608"/>
<stop offset="0.267" stop-color="#EF7E15"/>
<stop offset="0.7464" stop-color="#F6A32B"/>
<stop offset="1" stop-color="#F8B133"/>
</linearGradient>
<linearGradient id="paint43_linear_1208_9448" x1="23.4953" y1="39.0647" x2="23.4953" y2="-7.6038" gradientUnits="userSpaceOnUse">
<stop stop-color="#EB6608"/>
<stop offset="0.267" stop-color="#EF7E15"/>
<stop offset="0.7464" stop-color="#F6A32B"/>
<stop offset="1" stop-color="#F8B133"/>
</linearGradient>
<linearGradient id="paint44_linear_1208_9448" x1="21.1034" y1="39.0647" x2="21.1034" y2="-7.6038" gradientUnits="userSpaceOnUse">
<stop stop-color="#EB6608"/>
<stop offset="0.267" stop-color="#EF7E15"/>
<stop offset="0.7464" stop-color="#F6A32B"/>
<stop offset="1" stop-color="#F8B133"/>
</linearGradient>
<linearGradient id="paint45_linear_1208_9448" x1="21.1034" y1="39.0647" x2="21.1034" y2="-7.60354" gradientUnits="userSpaceOnUse">
<stop stop-color="#EB6608"/>
<stop offset="0.267" stop-color="#EF7E15"/>
<stop offset="0.7464" stop-color="#F6A32B"/>
<stop offset="1" stop-color="#F8B133"/>
</linearGradient>
<linearGradient id="paint46_linear_1208_9448" x1="19.9063" y1="39.0646" x2="19.9063" y2="-7.60363" gradientUnits="userSpaceOnUse">
<stop stop-color="#EB6608"/>
<stop offset="0.267" stop-color="#EF7E15"/>
<stop offset="0.7464" stop-color="#F6A32B"/>
<stop offset="1" stop-color="#F8B133"/>
</linearGradient>
<linearGradient id="paint47_linear_1208_9448" x1="21.1034" y1="39.0647" x2="21.1034" y2="-7.60376" gradientUnits="userSpaceOnUse">
<stop stop-color="#EB6608"/>
<stop offset="0.267" stop-color="#EF7E15"/>
<stop offset="0.7464" stop-color="#F6A32B"/>
<stop offset="1" stop-color="#F8B133"/>
</linearGradient>
<linearGradient id="paint48_linear_1208_9448" x1="10.3384" y1="39.0646" x2="10.3384" y2="-7.60389" gradientUnits="userSpaceOnUse">
<stop stop-color="#EB6608"/>
<stop offset="0.267" stop-color="#EF7E15"/>
<stop offset="0.7464" stop-color="#F6A32B"/>
<stop offset="1" stop-color="#F8B133"/>
</linearGradient>
<linearGradient id="paint49_linear_1208_9448" x1="22.2983" y1="39.0645" x2="22.2983" y2="-7.60369" gradientUnits="userSpaceOnUse">
<stop stop-color="#EB6608"/>
<stop offset="0.267" stop-color="#EF7E15"/>
<stop offset="0.7464" stop-color="#F6A32B"/>
<stop offset="1" stop-color="#F8B133"/>
</linearGradient>
<linearGradient id="paint50_linear_1208_9448" x1="28.2794" y1="39.0647" x2="28.2794" y2="-7.60354" gradientUnits="userSpaceOnUse">
<stop stop-color="#EB6608"/>
<stop offset="0.267" stop-color="#EF7E15"/>
<stop offset="0.7464" stop-color="#F6A32B"/>
<stop offset="1" stop-color="#F8B133"/>
</linearGradient>
<linearGradient id="paint51_linear_1208_9448" x1="29.4763" y1="39.0646" x2="29.4763" y2="-7.60388" gradientUnits="userSpaceOnUse">
<stop stop-color="#EB6608"/>
<stop offset="0.267" stop-color="#EF7E15"/>
<stop offset="0.7464" stop-color="#F6A32B"/>
<stop offset="1" stop-color="#F8B133"/>
</linearGradient>
<linearGradient id="paint52_linear_1208_9448" x1="23.4953" y1="39.0647" x2="23.4953" y2="-7.60354" gradientUnits="userSpaceOnUse">
<stop stop-color="#EB6608"/>
<stop offset="0.267" stop-color="#EF7E15"/>
<stop offset="0.7464" stop-color="#F6A32B"/>
<stop offset="1" stop-color="#F8B133"/>
</linearGradient>
<linearGradient id="paint53_linear_1208_9448" x1="4.35931" y1="39.0647" x2="4.35931" y2="-7.6038" gradientUnits="userSpaceOnUse">
<stop stop-color="#EB6608"/>
<stop offset="0.267" stop-color="#EF7E15"/>
<stop offset="0.7464" stop-color="#F6A32B"/>
<stop offset="1" stop-color="#F8B133"/>
</linearGradient>
<linearGradient id="paint54_linear_1208_9448" x1="22.2983" y1="39.0646" x2="22.2983" y2="-7.60388" gradientUnits="userSpaceOnUse">
<stop stop-color="#EB6608"/>
<stop offset="0.267" stop-color="#EF7E15"/>
<stop offset="0.7464" stop-color="#F6A32B"/>
<stop offset="1" stop-color="#F8B133"/>
</linearGradient>
<linearGradient id="paint55_linear_1208_9448" x1="22.2983" y1="39.0646" x2="22.2983" y2="-7.60392" gradientUnits="userSpaceOnUse">
<stop stop-color="#EB6608"/>
<stop offset="0.267" stop-color="#EF7E15"/>
<stop offset="0.7464" stop-color="#F6A32B"/>
<stop offset="1" stop-color="#F8B133"/>
</linearGradient>
<linearGradient id="paint56_linear_1208_9448" x1="23.4953" y1="39.0647" x2="23.4953" y2="-7.60376" gradientUnits="userSpaceOnUse">
<stop stop-color="#EB6608"/>
<stop offset="0.267" stop-color="#EF7E15"/>
<stop offset="0.7464" stop-color="#F6A32B"/>
<stop offset="1" stop-color="#F8B133"/>
</linearGradient>
<linearGradient id="paint57_linear_1208_9448" x1="11.5353" y1="39.0646" x2="11.5353" y2="-7.6036" gradientUnits="userSpaceOnUse">
<stop stop-color="#EB6608"/>
<stop offset="0.267" stop-color="#EF7E15"/>
<stop offset="0.7464" stop-color="#F6A32B"/>
<stop offset="1" stop-color="#F8B133"/>
</linearGradient>
<linearGradient id="paint58_linear_1208_9448" x1="16.3194" y1="39.0647" x2="16.3194" y2="-7.60379" gradientUnits="userSpaceOnUse">
<stop stop-color="#EB6608"/>
<stop offset="0.267" stop-color="#EF7E15"/>
<stop offset="0.7464" stop-color="#F6A32B"/>
<stop offset="1" stop-color="#F8B133"/>
</linearGradient>
<linearGradient id="paint59_linear_1208_9448" x1="15.1224" y1="39.0646" x2="15.1224" y2="-7.60388" gradientUnits="userSpaceOnUse">
<stop stop-color="#EB6608"/>
<stop offset="0.267" stop-color="#EF7E15"/>
<stop offset="0.7464" stop-color="#F6A32B"/>
<stop offset="1" stop-color="#F8B133"/>
</linearGradient>
<linearGradient id="paint60_linear_1208_9448" x1="16.3194" y1="39.0647" x2="16.3194" y2="-7.6038" gradientUnits="userSpaceOnUse">
<stop stop-color="#EB6608"/>
<stop offset="0.267" stop-color="#EF7E15"/>
<stop offset="0.7464" stop-color="#F6A32B"/>
<stop offset="1" stop-color="#F8B133"/>
</linearGradient>
<linearGradient id="paint61_linear_1208_9448" x1="17.5144" y1="39.0646" x2="17.5144" y2="-7.60363" gradientUnits="userSpaceOnUse">
<stop stop-color="#EB6608"/>
<stop offset="0.267" stop-color="#EF7E15"/>
<stop offset="0.7464" stop-color="#F6A32B"/>
<stop offset="1" stop-color="#F8B133"/>
</linearGradient>
<linearGradient id="paint62_linear_1208_9448" x1="15.1224" y1="39.0646" x2="15.1224" y2="-7.60392" gradientUnits="userSpaceOnUse">
<stop stop-color="#EB6608"/>
<stop offset="0.267" stop-color="#EF7E15"/>
<stop offset="0.7464" stop-color="#F6A32B"/>
<stop offset="1" stop-color="#F8B133"/>
</linearGradient>
<linearGradient id="paint63_linear_1208_9448" x1="18.7114" y1="39.0647" x2="18.7114" y2="-7.60379" gradientUnits="userSpaceOnUse">
<stop stop-color="#EB6608"/>
<stop offset="0.267" stop-color="#EF7E15"/>
<stop offset="0.7464" stop-color="#F6A32B"/>
<stop offset="1" stop-color="#F8B133"/>
</linearGradient>
<linearGradient id="paint64_linear_1208_9448" x1="17.5144" y1="39.0646" x2="17.5144" y2="-7.60389" gradientUnits="userSpaceOnUse">
<stop stop-color="#EB6608"/>
<stop offset="0.267" stop-color="#EF7E15"/>
<stop offset="0.7464" stop-color="#F6A32B"/>
<stop offset="1" stop-color="#F8B133"/>
</linearGradient>
<linearGradient id="paint65_linear_1208_9448" x1="16.3194" y1="39.0647" x2="16.3194" y2="-7.60378" gradientUnits="userSpaceOnUse">
<stop stop-color="#EB6608"/>
<stop offset="0.267" stop-color="#EF7E15"/>
<stop offset="0.7464" stop-color="#F6A32B"/>
<stop offset="1" stop-color="#F8B133"/>
</linearGradient>
<linearGradient id="paint66_linear_1208_9448" x1="18.7114" y1="39.0646" x2="18.7114" y2="-7.6036" gradientUnits="userSpaceOnUse">
<stop stop-color="#EB6608"/>
<stop offset="0.267" stop-color="#EF7E15"/>
<stop offset="0.7464" stop-color="#F6A32B"/>
<stop offset="1" stop-color="#F8B133"/>
</linearGradient>
<linearGradient id="paint67_linear_1208_9448" x1="15.1224" y1="39.0645" x2="15.1224" y2="-7.60369" gradientUnits="userSpaceOnUse">
<stop stop-color="#EB6608"/>
<stop offset="0.267" stop-color="#EF7E15"/>
<stop offset="0.7464" stop-color="#F6A32B"/>
<stop offset="1" stop-color="#F8B133"/>
</linearGradient>
<linearGradient id="paint68_linear_1208_9448" x1="11.5353" y1="39.0647" x2="11.5353" y2="-7.60378" gradientUnits="userSpaceOnUse">
<stop stop-color="#EB6608"/>
<stop offset="0.267" stop-color="#EF7E15"/>
<stop offset="0.7464" stop-color="#F6A32B"/>
<stop offset="1" stop-color="#F8B133"/>
</linearGradient>
<linearGradient id="paint69_linear_1208_9448" x1="15.1224" y1="39.0645" x2="15.1224" y2="-7.60375" gradientUnits="userSpaceOnUse">
<stop stop-color="#EB6608"/>
<stop offset="0.267" stop-color="#EF7E15"/>
<stop offset="0.7464" stop-color="#F6A32B"/>
<stop offset="1" stop-color="#F8B133"/>
</linearGradient>
<linearGradient id="paint70_linear_1208_9448" x1="12.7305" y1="39.0645" x2="12.7305" y2="-7.60375" gradientUnits="userSpaceOnUse">
<stop stop-color="#EB6608"/>
<stop offset="0.267" stop-color="#EF7E15"/>
<stop offset="0.7464" stop-color="#F6A32B"/>
<stop offset="1" stop-color="#F8B133"/>
</linearGradient>
<linearGradient id="paint71_linear_1208_9448" x1="11.5353" y1="39.0647" x2="11.5353" y2="-7.6038" gradientUnits="userSpaceOnUse">
<stop stop-color="#EB6608"/>
<stop offset="0.267" stop-color="#EF7E15"/>
<stop offset="0.7464" stop-color="#F6A32B"/>
<stop offset="1" stop-color="#F8B133"/>
</linearGradient>
<linearGradient id="paint72_linear_1208_9448" x1="9.14343" y1="39.0647" x2="9.14343" y2="-7.6038" gradientUnits="userSpaceOnUse">
<stop stop-color="#EB6608"/>
<stop offset="0.267" stop-color="#EF7E15"/>
<stop offset="0.7464" stop-color="#F6A32B"/>
<stop offset="1" stop-color="#F8B133"/>
</linearGradient>
<linearGradient id="paint73_linear_1208_9448" x1="17.5144" y1="39.0646" x2="17.5144" y2="-7.60388" gradientUnits="userSpaceOnUse">
<stop stop-color="#EB6608"/>
<stop offset="0.267" stop-color="#EF7E15"/>
<stop offset="0.7464" stop-color="#F6A32B"/>
<stop offset="1" stop-color="#F8B133"/>
</linearGradient>
<linearGradient id="paint74_linear_1208_9448" x1="13.9274" y1="39.0647" x2="13.9274" y2="-7.60378" gradientUnits="userSpaceOnUse">
<stop stop-color="#EB6608"/>
<stop offset="0.267" stop-color="#EF7E15"/>
<stop offset="0.7464" stop-color="#F6A32B"/>
<stop offset="1" stop-color="#F8B133"/>
</linearGradient>
<linearGradient id="paint75_linear_1208_9448" x1="16.3194" y1="39.0647" x2="16.3194" y2="-7.60354" gradientUnits="userSpaceOnUse">
<stop stop-color="#EB6608"/>
<stop offset="0.267" stop-color="#EF7E15"/>
<stop offset="0.7464" stop-color="#F6A32B"/>
<stop offset="1" stop-color="#F8B133"/>
</linearGradient>
<linearGradient id="paint76_linear_1208_9448" x1="6.75141" y1="39.0647" x2="6.75141" y2="-7.60378" gradientUnits="userSpaceOnUse">
<stop stop-color="#EB6608"/>
<stop offset="0.267" stop-color="#EF7E15"/>
<stop offset="0.7464" stop-color="#F6A32B"/>
<stop offset="1" stop-color="#F8B133"/>
</linearGradient>
<linearGradient id="paint77_linear_1208_9448" x1="25.8874" y1="39.0646" x2="25.8874" y2="-7.6036" gradientUnits="userSpaceOnUse">
<stop stop-color="#EB6608"/>
<stop offset="0.267" stop-color="#EF7E15"/>
<stop offset="0.7464" stop-color="#F6A32B"/>
<stop offset="1" stop-color="#F8B133"/>
</linearGradient>
<linearGradient id="paint78_linear_1208_9448" x1="23.4953" y1="39.0646" x2="23.4953" y2="-7.60365" gradientUnits="userSpaceOnUse">
<stop stop-color="#EB6608"/>
<stop offset="0.267" stop-color="#EF7E15"/>
<stop offset="0.7464" stop-color="#F6A32B"/>
<stop offset="1" stop-color="#F8B133"/>
</linearGradient>
<linearGradient id="paint79_linear_1208_9448" x1="24.6904" y1="39.0646" x2="24.6904" y2="-7.60391" gradientUnits="userSpaceOnUse">
<stop stop-color="#EB6608"/>
<stop offset="0.267" stop-color="#EF7E15"/>
<stop offset="0.7464" stop-color="#F6A32B"/>
<stop offset="1" stop-color="#F8B133"/>
</linearGradient>
<linearGradient id="paint80_linear_1208_9448" x1="22.2983" y1="39.0645" x2="22.2983" y2="-7.60375" gradientUnits="userSpaceOnUse">
<stop stop-color="#EB6608"/>
<stop offset="0.267" stop-color="#EF7E15"/>
<stop offset="0.7464" stop-color="#F6A32B"/>
<stop offset="1" stop-color="#F8B133"/>
</linearGradient>
<linearGradient id="paint81_linear_1208_9448" x1="22.2983" y1="39.0646" x2="22.2983" y2="-7.60391" gradientUnits="userSpaceOnUse">
<stop stop-color="#EB6608"/>
<stop offset="0.267" stop-color="#EF7E15"/>
<stop offset="0.7464" stop-color="#F6A32B"/>
<stop offset="1" stop-color="#F8B133"/>
</linearGradient>
<linearGradient id="paint82_linear_1208_9448" x1="18.7114" y1="39.0646" x2="18.7114" y2="-7.6036" gradientUnits="userSpaceOnUse">
<stop stop-color="#EB6608"/>
<stop offset="0.267" stop-color="#EF7E15"/>
<stop offset="0.7464" stop-color="#F6A32B"/>
<stop offset="1" stop-color="#F8B133"/>
</linearGradient>
<linearGradient id="paint83_linear_1208_9448" x1="17.5144" y1="39.0646" x2="17.5144" y2="-7.60391" gradientUnits="userSpaceOnUse">
<stop stop-color="#EB6608"/>
<stop offset="0.267" stop-color="#EF7E15"/>
<stop offset="0.7464" stop-color="#F6A32B"/>
<stop offset="1" stop-color="#F8B133"/>
</linearGradient>
<linearGradient id="paint84_linear_1208_9448" x1="21.1034" y1="39.0647" x2="21.1034" y2="-7.60378" gradientUnits="userSpaceOnUse">
<stop stop-color="#EB6608"/>
<stop offset="0.267" stop-color="#EF7E15"/>
<stop offset="0.7464" stop-color="#F6A32B"/>
<stop offset="1" stop-color="#F8B133"/>
</linearGradient>
<linearGradient id="paint85_linear_1208_9448" x1="19.9063" y1="39.0645" x2="19.9063" y2="-7.60375" gradientUnits="userSpaceOnUse">
<stop stop-color="#EB6608"/>
<stop offset="0.267" stop-color="#EF7E15"/>
<stop offset="0.7464" stop-color="#F6A32B"/>
<stop offset="1" stop-color="#F8B133"/>
</linearGradient>
<linearGradient id="paint86_linear_1208_9448" x1="16.3194" y1="39.0646" x2="16.3194" y2="-7.60365" gradientUnits="userSpaceOnUse">
<stop stop-color="#EB6608"/>
<stop offset="0.267" stop-color="#EF7E15"/>
<stop offset="0.7464" stop-color="#F6A32B"/>
<stop offset="1" stop-color="#F8B133"/>
</linearGradient>
<linearGradient id="paint87_linear_1208_9448" x1="31.8684" y1="39.0646" x2="31.8684" y2="-7.60363" gradientUnits="userSpaceOnUse">
<stop stop-color="#EB6608"/>
<stop offset="0.267" stop-color="#EF7E15"/>
<stop offset="0.7464" stop-color="#F6A32B"/>
<stop offset="1" stop-color="#F8B133"/>
</linearGradient>
<linearGradient id="paint88_linear_1208_9448" x1="30.6713" y1="39.0647" x2="30.6713" y2="-7.60379" gradientUnits="userSpaceOnUse">
<stop stop-color="#EB6608"/>
<stop offset="0.267" stop-color="#EF7E15"/>
<stop offset="0.7464" stop-color="#F6A32B"/>
<stop offset="1" stop-color="#F8B133"/>
</linearGradient>
<linearGradient id="paint89_linear_1208_9448" x1="29.4763" y1="39.0646" x2="29.4763" y2="-7.60363" gradientUnits="userSpaceOnUse">
<stop stop-color="#EB6608"/>
<stop offset="0.267" stop-color="#EF7E15"/>
<stop offset="0.7464" stop-color="#F6A32B"/>
<stop offset="1" stop-color="#F8B133"/>
</linearGradient>
<linearGradient id="paint90_linear_1208_9448" x1="33.0633" y1="39.0647" x2="33.0633" y2="-7.60379" gradientUnits="userSpaceOnUse">
<stop stop-color="#EB6608"/>
<stop offset="0.267" stop-color="#EF7E15"/>
<stop offset="0.7464" stop-color="#F6A32B"/>
<stop offset="1" stop-color="#F8B133"/>
</linearGradient>
<linearGradient id="paint91_linear_1208_9448" x1="28.2794" y1="39.0647" x2="28.2794" y2="-7.60376" gradientUnits="userSpaceOnUse">
<stop stop-color="#EB6608"/>
<stop offset="0.267" stop-color="#EF7E15"/>
<stop offset="0.7464" stop-color="#F6A32B"/>
<stop offset="1" stop-color="#F8B133"/>
</linearGradient>
<linearGradient id="paint92_linear_1208_9448" x1="29.4763" y1="39.0646" x2="29.4763" y2="-7.60392" gradientUnits="userSpaceOnUse">
<stop stop-color="#EB6608"/>
<stop offset="0.267" stop-color="#EF7E15"/>
<stop offset="0.7464" stop-color="#F6A32B"/>
<stop offset="1" stop-color="#F8B133"/>
</linearGradient>
<linearGradient id="paint93_linear_1208_9448" x1="27.0823" y1="39.0645" x2="27.0823" y2="-7.60369" gradientUnits="userSpaceOnUse">
<stop stop-color="#EB6608"/>
<stop offset="0.267" stop-color="#EF7E15"/>
<stop offset="0.7464" stop-color="#F6A32B"/>
<stop offset="1" stop-color="#F8B133"/>
</linearGradient>
<linearGradient id="paint94_linear_1208_9448" x1="30.6713" y1="39.0647" x2="30.6713" y2="-7.60354" gradientUnits="userSpaceOnUse">
<stop stop-color="#EB6608"/>
<stop offset="0.267" stop-color="#EF7E15"/>
<stop offset="0.7464" stop-color="#F6A32B"/>
<stop offset="1" stop-color="#F8B133"/>
</linearGradient>
<linearGradient id="paint95_linear_1208_9448" x1="31.8684" y1="39.0646" x2="31.8684" y2="-7.60388" gradientUnits="userSpaceOnUse">
<stop stop-color="#EB6608"/>
<stop offset="0.267" stop-color="#EF7E15"/>
<stop offset="0.7464" stop-color="#F6A32B"/>
<stop offset="1" stop-color="#F8B133"/>
</linearGradient>
<linearGradient id="paint96_linear_1208_9448" x1="7.94636" y1="39.0648" x2="7.94636" y2="-7.60368" gradientUnits="userSpaceOnUse">
<stop stop-color="#EB6608"/>
<stop offset="0.267" stop-color="#EF7E15"/>
<stop offset="0.7464" stop-color="#F6A32B"/>
<stop offset="1" stop-color="#F8B133"/>
</linearGradient>
<linearGradient id="paint97_linear_1208_9448" x1="4.35931" y1="39.0646" x2="4.35931" y2="-7.6036" gradientUnits="userSpaceOnUse">
<stop stop-color="#EB6608"/>
<stop offset="0.267" stop-color="#EF7E15"/>
<stop offset="0.7464" stop-color="#F6A32B"/>
<stop offset="1" stop-color="#F8B133"/>
</linearGradient>
<linearGradient id="paint98_linear_1208_9448" x1="7.94636" y1="39.0646" x2="7.94636" y2="-7.60391" gradientUnits="userSpaceOnUse">
<stop stop-color="#EB6608"/>
<stop offset="0.267" stop-color="#EF7E15"/>
<stop offset="0.7464" stop-color="#F6A32B"/>
<stop offset="1" stop-color="#F8B133"/>
</linearGradient>
<linearGradient id="paint99_linear_1208_9448" x1="3.16242" y1="39.0645" x2="3.16242" y2="-7.60375" gradientUnits="userSpaceOnUse">
<stop stop-color="#EB6608"/>
<stop offset="0.267" stop-color="#EF7E15"/>
<stop offset="0.7464" stop-color="#F6A32B"/>
<stop offset="1" stop-color="#F8B133"/>
</linearGradient>
<linearGradient id="paint100_linear_1208_9448" x1="5.55443" y1="39.0645" x2="5.55443" y2="-7.60375" gradientUnits="userSpaceOnUse">
<stop stop-color="#EB6608"/>
<stop offset="0.267" stop-color="#EF7E15"/>
<stop offset="0.7464" stop-color="#F6A32B"/>
<stop offset="1" stop-color="#F8B133"/>
</linearGradient>
<linearGradient id="paint101_linear_1208_9448" x1="3.16242" y1="39.0646" x2="3.16242" y2="-7.60391" gradientUnits="userSpaceOnUse">
<stop stop-color="#EB6608"/>
<stop offset="0.267" stop-color="#EF7E15"/>
<stop offset="0.7464" stop-color="#F6A32B"/>
<stop offset="1" stop-color="#F8B133"/>
</linearGradient>
<linearGradient id="paint102_linear_1208_9448" x1="3.16242" y1="39.0645" x2="3.16242" y2="-7.60369" gradientUnits="userSpaceOnUse">
<stop stop-color="#EB6608"/>
<stop offset="0.267" stop-color="#EF7E15"/>
<stop offset="0.7464" stop-color="#F6A32B"/>
<stop offset="1" stop-color="#F8B133"/>
</linearGradient>
<linearGradient id="paint103_linear_1208_9448" x1="19.9063" y1="39.0645" x2="19.9063" y2="-7.60369" gradientUnits="userSpaceOnUse">
<stop stop-color="#EB6608"/>
<stop offset="0.267" stop-color="#EF7E15"/>
<stop offset="0.7464" stop-color="#F6A32B"/>
<stop offset="1" stop-color="#F8B133"/>
</linearGradient>
<linearGradient id="paint104_linear_1208_9448" x1="3.16242" y1="39.0646" x2="3.16242" y2="-7.60389" gradientUnits="userSpaceOnUse">
<stop stop-color="#EB6608"/>
<stop offset="0.267" stop-color="#EF7E15"/>
<stop offset="0.7464" stop-color="#F6A32B"/>
<stop offset="1" stop-color="#F8B133"/>
</linearGradient>
<linearGradient id="paint105_linear_1208_9448" x1="11.5353" y1="39.0646" x2="11.5353" y2="-7.60365" gradientUnits="userSpaceOnUse">
<stop stop-color="#EB6608"/>
<stop offset="0.267" stop-color="#EF7E15"/>
<stop offset="0.7464" stop-color="#F6A32B"/>
<stop offset="1" stop-color="#F8B133"/>
</linearGradient>
<linearGradient id="paint106_linear_1208_9448" x1="12.7305" y1="39.0644" x2="12.7305" y2="-7.6038" gradientUnits="userSpaceOnUse">
<stop stop-color="#EB6608"/>
<stop offset="0.267" stop-color="#EF7E15"/>
<stop offset="0.7464" stop-color="#F6A32B"/>
<stop offset="1" stop-color="#F8B133"/>
</linearGradient>
<linearGradient id="paint107_linear_1208_9448" x1="15.1224" y1="39.0645" x2="15.1224" y2="-7.60375" gradientUnits="userSpaceOnUse">
<stop stop-color="#EB6608"/>
<stop offset="0.267" stop-color="#EF7E15"/>
<stop offset="0.7464" stop-color="#F6A32B"/>
<stop offset="1" stop-color="#F8B133"/>
</linearGradient>
<linearGradient id="paint108_linear_1208_9448" x1="7.94636" y1="39.0645" x2="7.94636" y2="-7.60375" gradientUnits="userSpaceOnUse">
<stop stop-color="#EB6608"/>
<stop offset="0.267" stop-color="#EF7E15"/>
<stop offset="0.7464" stop-color="#F6A32B"/>
<stop offset="1" stop-color="#F8B133"/>
</linearGradient>
<linearGradient id="paint109_linear_1208_9448" x1="13.9274" y1="39.0647" x2="13.9274" y2="-7.60379" gradientUnits="userSpaceOnUse">
<stop stop-color="#EB6608"/>
<stop offset="0.267" stop-color="#EF7E15"/>
<stop offset="0.7464" stop-color="#F6A32B"/>
<stop offset="1" stop-color="#F8B133"/>
</linearGradient>
<linearGradient id="paint110_linear_1208_9448" x1="10.3384" y1="39.0648" x2="10.3384" y2="-7.60368" gradientUnits="userSpaceOnUse">
<stop stop-color="#EB6608"/>
<stop offset="0.267" stop-color="#EF7E15"/>
<stop offset="0.7464" stop-color="#F6A32B"/>
<stop offset="1" stop-color="#F8B133"/>
</linearGradient>
<linearGradient id="paint111_linear_1208_9448" x1="9.14343" y1="39.0645" x2="9.14343" y2="-7.60371" gradientUnits="userSpaceOnUse">
<stop stop-color="#EB6608"/>
<stop offset="0.267" stop-color="#EF7E15"/>
<stop offset="0.7464" stop-color="#F6A32B"/>
<stop offset="1" stop-color="#F8B133"/>
</linearGradient>
<linearGradient id="paint112_linear_1208_9448" x1="7.94636" y1="39.0644" x2="7.94636" y2="-7.6038" gradientUnits="userSpaceOnUse">
<stop stop-color="#EB6608"/>
<stop offset="0.267" stop-color="#EF7E15"/>
<stop offset="0.7464" stop-color="#F6A32B"/>
<stop offset="1" stop-color="#F8B133"/>
</linearGradient>
<linearGradient id="paint113_linear_1208_9448" x1="28.2794" y1="39.0647" x2="28.2794" y2="-7.60379" gradientUnits="userSpaceOnUse">
<stop stop-color="#EB6608"/>
<stop offset="0.267" stop-color="#EF7E15"/>
<stop offset="0.7464" stop-color="#F6A32B"/>
<stop offset="1" stop-color="#F8B133"/>
</linearGradient>
<linearGradient id="paint114_linear_1208_9448" x1="16.3194" y1="39.0646" x2="16.3194" y2="-7.6036" gradientUnits="userSpaceOnUse">
<stop stop-color="#EB6608"/>
<stop offset="0.267" stop-color="#EF7E15"/>
<stop offset="0.7464" stop-color="#F6A32B"/>
<stop offset="1" stop-color="#F8B133"/>
</linearGradient>
<linearGradient id="paint115_linear_1208_9448" x1="7.94636" y1="39.0645" x2="7.94636" y2="-7.60369" gradientUnits="userSpaceOnUse">
<stop stop-color="#EB6608"/>
<stop offset="0.267" stop-color="#EF7E15"/>
<stop offset="0.7464" stop-color="#F6A32B"/>
<stop offset="1" stop-color="#F8B133"/>
</linearGradient>
<linearGradient id="paint116_linear_1208_9448" x1="6.75141" y1="39.0646" x2="6.75141" y2="-7.6036" gradientUnits="userSpaceOnUse">
<stop stop-color="#EB6608"/>
<stop offset="0.267" stop-color="#EF7E15"/>
<stop offset="0.7464" stop-color="#F6A32B"/>
<stop offset="1" stop-color="#F8B133"/>
</linearGradient>
<linearGradient id="paint117_linear_1208_9448" x1="9.14343" y1="39.0646" x2="9.14343" y2="-7.6036" gradientUnits="userSpaceOnUse">
<stop stop-color="#EB6608"/>
<stop offset="0.267" stop-color="#EF7E15"/>
<stop offset="0.7464" stop-color="#F6A32B"/>
<stop offset="1" stop-color="#F8B133"/>
</linearGradient>
<linearGradient id="paint118_linear_1208_9448" x1="9.14343" y1="39.0647" x2="9.14343" y2="-7.60379" gradientUnits="userSpaceOnUse">
<stop stop-color="#EB6608"/>
<stop offset="0.267" stop-color="#EF7E15"/>
<stop offset="0.7464" stop-color="#F6A32B"/>
<stop offset="1" stop-color="#F8B133"/>
</linearGradient>
<linearGradient id="paint119_linear_1208_9448" x1="27.0823" y1="39.0646" x2="27.0823" y2="-7.60363" gradientUnits="userSpaceOnUse">
<stop stop-color="#EB6608"/>
<stop offset="0.267" stop-color="#EF7E15"/>
<stop offset="0.7464" stop-color="#F6A32B"/>
<stop offset="1" stop-color="#F8B133"/>
</linearGradient>
<linearGradient id="paint120_linear_1208_9448" x1="4.35931" y1="39.0646" x2="4.35931" y2="-7.6036" gradientUnits="userSpaceOnUse">
<stop stop-color="#EB6608"/>
<stop offset="0.267" stop-color="#EF7E15"/>
<stop offset="0.7464" stop-color="#F6A32B"/>
<stop offset="1" stop-color="#F8B133"/>
</linearGradient>
<linearGradient id="paint121_linear_1208_9448" x1="5.55443" y1="39.0646" x2="5.55443" y2="-7.60363" gradientUnits="userSpaceOnUse">
<stop stop-color="#EB6608"/>
<stop offset="0.267" stop-color="#EF7E15"/>
<stop offset="0.7464" stop-color="#F6A32B"/>
<stop offset="1" stop-color="#F8B133"/>
</linearGradient>
<linearGradient id="paint122_linear_1208_9448" x1="4.35931" y1="39.0647" x2="4.35931" y2="-7.60378" gradientUnits="userSpaceOnUse">
<stop stop-color="#EB6608"/>
<stop offset="0.267" stop-color="#EF7E15"/>
<stop offset="0.7464" stop-color="#F6A32B"/>
<stop offset="1" stop-color="#F8B133"/>
</linearGradient>
<linearGradient id="paint123_linear_1208_9448" x1="5.55443" y1="39.0645" x2="5.55443" y2="-7.60369" gradientUnits="userSpaceOnUse">
<stop stop-color="#EB6608"/>
<stop offset="0.267" stop-color="#EF7E15"/>
<stop offset="0.7464" stop-color="#F6A32B"/>
<stop offset="1" stop-color="#F8B133"/>
</linearGradient>
<linearGradient id="paint124_linear_1208_9448" x1="10.3384" y1="39.0644" x2="10.3384" y2="-7.6038" gradientUnits="userSpaceOnUse">
<stop stop-color="#EB6608"/>
<stop offset="0.267" stop-color="#EF7E15"/>
<stop offset="0.7464" stop-color="#F6A32B"/>
<stop offset="1" stop-color="#F8B133"/>
</linearGradient>
<linearGradient id="paint125_linear_1208_9448" x1="15.1224" y1="39.0646" x2="15.1224" y2="-7.60391" gradientUnits="userSpaceOnUse">
<stop stop-color="#EB6608"/>
<stop offset="0.267" stop-color="#EF7E15"/>
<stop offset="0.7464" stop-color="#F6A32B"/>
<stop offset="1" stop-color="#F8B133"/>
</linearGradient>
<linearGradient id="paint126_linear_1208_9448" x1="9.14343" y1="39.0646" x2="9.14343" y2="-7.60365" gradientUnits="userSpaceOnUse">
<stop stop-color="#EB6608"/>
<stop offset="0.267" stop-color="#EF7E15"/>
<stop offset="0.7464" stop-color="#F6A32B"/>
<stop offset="1" stop-color="#F8B133"/>
</linearGradient>
<linearGradient id="paint127_linear_1208_9448" x1="17.5144" y1="39.0645" x2="17.5144" y2="-7.60375" gradientUnits="userSpaceOnUse">
<stop stop-color="#EB6608"/>
<stop offset="0.267" stop-color="#EF7E15"/>
<stop offset="0.7464" stop-color="#F6A32B"/>
<stop offset="1" stop-color="#F8B133"/>
</linearGradient>
<linearGradient id="paint128_linear_1208_9448" x1="18.7114" y1="39.0647" x2="18.7114" y2="-7.60378" gradientUnits="userSpaceOnUse">
<stop stop-color="#EB6608"/>
<stop offset="0.267" stop-color="#EF7E15"/>
<stop offset="0.7464" stop-color="#F6A32B"/>
<stop offset="1" stop-color="#F8B133"/>
</linearGradient>
<linearGradient id="paint129_linear_1208_9448" x1="13.9274" y1="39.0646" x2="13.9274" y2="-7.60365" gradientUnits="userSpaceOnUse">
<stop stop-color="#EB6608"/>
<stop offset="0.267" stop-color="#EF7E15"/>
<stop offset="0.7464" stop-color="#F6A32B"/>
<stop offset="1" stop-color="#F8B133"/>
</linearGradient>
<linearGradient id="paint130_linear_1208_9448" x1="6.75141" y1="39.0647" x2="6.75141" y2="-7.60375" gradientUnits="userSpaceOnUse">
<stop stop-color="#EB6608"/>
<stop offset="0.267" stop-color="#EF7E15"/>
<stop offset="0.7464" stop-color="#F6A32B"/>
<stop offset="1" stop-color="#F8B133"/>
</linearGradient>
<linearGradient id="paint131_linear_1208_9448" x1="11.5353" y1="39.0647" x2="11.5353" y2="-7.60379" gradientUnits="userSpaceOnUse">
<stop stop-color="#EB6608"/>
<stop offset="0.267" stop-color="#EF7E15"/>
<stop offset="0.7464" stop-color="#F6A32B"/>
<stop offset="1" stop-color="#F8B133"/>
</linearGradient>
<linearGradient id="paint132_linear_1208_9448" x1="12.7305" y1="39.0645" x2="12.7305" y2="-7.60375" gradientUnits="userSpaceOnUse">
<stop stop-color="#EB6608"/>
<stop offset="0.267" stop-color="#EF7E15"/>
<stop offset="0.7464" stop-color="#F6A32B"/>
<stop offset="1" stop-color="#F8B133"/>
</linearGradient>
<linearGradient id="paint133_linear_1208_9448" x1="9.14343" y1="39.0646" x2="9.14343" y2="-7.60365" gradientUnits="userSpaceOnUse">
<stop stop-color="#EB6608"/>
<stop offset="0.267" stop-color="#EF7E15"/>
<stop offset="0.7464" stop-color="#F6A32B"/>
<stop offset="1" stop-color="#F8B133"/>
</linearGradient>
<linearGradient id="paint134_linear_1208_9448" x1="19.9063" y1="39.0646" x2="19.9063" y2="-7.60386" gradientUnits="userSpaceOnUse">
<stop stop-color="#EB6608"/>
<stop offset="0.267" stop-color="#EF7E15"/>
<stop offset="0.7464" stop-color="#F6A32B"/>
<stop offset="1" stop-color="#F8B133"/>
</linearGradient>
<linearGradient id="paint135_linear_1208_9448" x1="21.1034" y1="39.0645" x2="21.1034" y2="-7.60373" gradientUnits="userSpaceOnUse">
<stop stop-color="#EB6608"/>
<stop offset="0.267" stop-color="#EF7E15"/>
<stop offset="0.7464" stop-color="#F6A32B"/>
<stop offset="1" stop-color="#F8B133"/>
</linearGradient>
<linearGradient id="paint136_linear_1208_9448" x1="17.5144" y1="39.0646" x2="17.5144" y2="-7.60386" gradientUnits="userSpaceOnUse">
<stop stop-color="#EB6608"/>
<stop offset="0.267" stop-color="#EF7E15"/>
<stop offset="0.7464" stop-color="#F6A32B"/>
<stop offset="1" stop-color="#F8B133"/>
</linearGradient>
<linearGradient id="paint137_linear_1208_9448" x1="22.2983" y1="39.0646" x2="22.2983" y2="-7.60386" gradientUnits="userSpaceOnUse">
<stop stop-color="#EB6608"/>
<stop offset="0.267" stop-color="#EF7E15"/>
<stop offset="0.7464" stop-color="#F6A32B"/>
<stop offset="1" stop-color="#F8B133"/>
</linearGradient>
<linearGradient id="paint138_linear_1208_9448" x1="18.7114" y1="39.0645" x2="18.7114" y2="-7.60373" gradientUnits="userSpaceOnUse">
<stop stop-color="#EB6608"/>
<stop offset="0.267" stop-color="#EF7E15"/>
<stop offset="0.7464" stop-color="#F6A32B"/>
<stop offset="1" stop-color="#F8B133"/>
</linearGradient>
<linearGradient id="paint139_linear_1208_9448" x1="25.8874" y1="39.0647" x2="25.8874" y2="-7.60379" gradientUnits="userSpaceOnUse">
<stop stop-color="#EB6608"/>
<stop offset="0.267" stop-color="#EF7E15"/>
<stop offset="0.7464" stop-color="#F6A32B"/>
<stop offset="1" stop-color="#F8B133"/>
</linearGradient>
<linearGradient id="paint140_linear_1208_9448" x1="24.6904" y1="39.0646" x2="24.6904" y2="-7.60363" gradientUnits="userSpaceOnUse">
<stop stop-color="#EB6608"/>
<stop offset="0.267" stop-color="#EF7E15"/>
<stop offset="0.7464" stop-color="#F6A32B"/>
<stop offset="1" stop-color="#F8B133"/>
</linearGradient>
<linearGradient id="paint141_linear_1208_9448" x1="23.4953" y1="39.0645" x2="23.4953" y2="-7.60373" gradientUnits="userSpaceOnUse">
<stop stop-color="#EB6608"/>
<stop offset="0.267" stop-color="#EF7E15"/>
<stop offset="0.7464" stop-color="#F6A32B"/>
<stop offset="1" stop-color="#F8B133"/>
</linearGradient>
<linearGradient id="paint142_linear_1208_9448" x1="24.6904" y1="39.0646" x2="24.6904" y2="-7.60386" gradientUnits="userSpaceOnUse">
<stop stop-color="#EB6608"/>
<stop offset="0.267" stop-color="#EF7E15"/>
<stop offset="0.7464" stop-color="#F6A32B"/>
<stop offset="1" stop-color="#F8B133"/>
</linearGradient>
<linearGradient id="paint143_linear_1208_9448" x1="7.94636" y1="39.0646" x2="7.94636" y2="-7.6039" gradientUnits="userSpaceOnUse">
<stop stop-color="#EB6608"/>
<stop offset="0.267" stop-color="#EF7E15"/>
<stop offset="0.7464" stop-color="#F6A32B"/>
<stop offset="1" stop-color="#F8B133"/>
</linearGradient>
<linearGradient id="paint144_linear_1208_9448" x1="9.14343" y1="39.0647" x2="9.14343" y2="-7.60379" gradientUnits="userSpaceOnUse">
<stop stop-color="#EB6608"/>
<stop offset="0.267" stop-color="#EF7E15"/>
<stop offset="0.7464" stop-color="#F6A32B"/>
<stop offset="1" stop-color="#F8B133"/>
</linearGradient>
<linearGradient id="paint145_linear_1208_9448" x1="10.3384" y1="39.0646" x2="10.3384" y2="-7.60388" gradientUnits="userSpaceOnUse">
<stop stop-color="#EB6608"/>
<stop offset="0.267" stop-color="#EF7E15"/>
<stop offset="0.7464" stop-color="#F6A32B"/>
<stop offset="1" stop-color="#F8B133"/>
</linearGradient>
<linearGradient id="paint146_linear_1208_9448" x1="7.94636" y1="39.0646" x2="7.94636" y2="-7.60363" gradientUnits="userSpaceOnUse">
<stop stop-color="#EB6608"/>
<stop offset="0.267" stop-color="#EF7E15"/>
<stop offset="0.7464" stop-color="#F6A32B"/>
<stop offset="1" stop-color="#F8B133"/>
</linearGradient>
<linearGradient id="paint147_linear_1208_9448" x1="16.3194" y1="39.0645" x2="16.3194" y2="-7.60373" gradientUnits="userSpaceOnUse">
<stop stop-color="#EB6608"/>
<stop offset="0.267" stop-color="#EF7E15"/>
<stop offset="0.7464" stop-color="#F6A32B"/>
<stop offset="1" stop-color="#F8B133"/>
</linearGradient>
<linearGradient id="paint148_linear_1208_9448" x1="11.5353" y1="39.0647" x2="11.5353" y2="-7.60354" gradientUnits="userSpaceOnUse">
<stop stop-color="#EB6608"/>
<stop offset="0.267" stop-color="#EF7E15"/>
<stop offset="0.7464" stop-color="#F6A32B"/>
<stop offset="1" stop-color="#F8B133"/>
</linearGradient>
<linearGradient id="paint149_linear_1208_9448" x1="13.9274" y1="39.0647" x2="13.9274" y2="-7.60375" gradientUnits="userSpaceOnUse">
<stop stop-color="#EB6608"/>
<stop offset="0.267" stop-color="#EF7E15"/>
<stop offset="0.7464" stop-color="#F6A32B"/>
<stop offset="1" stop-color="#F8B133"/>
</linearGradient>
<linearGradient id="paint150_linear_1208_9448" x1="15.1224" y1="39.0646" x2="15.1224" y2="-7.6039" gradientUnits="userSpaceOnUse">
<stop stop-color="#EB6608"/>
<stop offset="0.267" stop-color="#EF7E15"/>
<stop offset="0.7464" stop-color="#F6A32B"/>
<stop offset="1" stop-color="#F8B133"/>
</linearGradient>
<linearGradient id="paint151_linear_1208_9448" x1="12.7305" y1="39.0646" x2="12.7305" y2="-7.60392" gradientUnits="userSpaceOnUse">
<stop stop-color="#EB6608"/>
<stop offset="0.267" stop-color="#EF7E15"/>
<stop offset="0.7464" stop-color="#F6A32B"/>
<stop offset="1" stop-color="#F8B133"/>
</linearGradient>
</defs>
</svg>
