<?xml version="1.0" encoding="UTF-8"?>
<svg id="Ebene_1" data-name="Ebene 1" xmlns="http://www.w3.org/2000/svg" viewBox="0 0 1138.55 312.46">
  <defs>
    <style>
      .cls-1 {
        fill: #32d430;
      }

      .cls-2 {
        fill: #0626a9;
      }
    </style>
  </defs>
  <polygon class="cls-2" points="119.7 235.41 125.05 233.71 125.05 233.71 119.7 235.41"/>
  <path class="cls-2" d="M503.6,0l-116.71,312.46h56.04l28.26-77.84h121.84l28.26,77.84h56.04L560.62,0h-57.03.01ZM487.38,186.73l44.97-122.83,44.49,122.83h-89.46Z"/>
  <polygon class="cls-2" points="692.05 0 636.02 0 752.74 312.46 801.04 312.46 778.37 247.19 692.05 0"/>
  <polygon class="cls-1" points="870.45 0 793.19 222.43 817.4 292.02 926.48 0 870.45 0"/>
  <rect class="cls-2" x="1081.52" y="131.13" width="47.76" height="47.89"/>
  <polygon class="cls-2" points="1138.55 47.88 1138.55 0 966.95 0 966.95 312.46 1138.55 312.46 1138.55 264.57 1017.16 264.57 1017.16 179.01 1057.58 179.01 1057.58 131.13 1017.16 131.13 1017.16 47.88 1138.55 47.88"/>
  <path class="cls-2" d="M124.49,231.95L51.03.32H0l100.1,310.58h49.83l46.22-155.46-23.21-77.52-48.45,154.04h0ZM119.7,235.41l5.35-1.7h0l-5.36,1.7h0Z"/>
  <polygon class="cls-2" points="366.27 .31 292.37 232 230.22 44.53 185.46 44.53 268.21 310.89 318.08 310.89 417.31 .31 366.27 .31"/>
</svg>