<svg width="1520" height="480" viewBox="0 0 1520 480" fill="none" xmlns="http://www.w3.org/2000/svg">
<g clip-path="url(#clip0_40000009_5530)">
<rect width="1520" height="480" fill="white"/>
<g clip-path="url(#clip1_40000009_5530)">
<mask id="mask0_40000009_5530" style="mask-type:luminance" maskUnits="userSpaceOnUse" x="116" y="-304" width="894" height="894">
<path d="M1010 -304H116V590H1010V-304Z" fill="white"/>
</mask>
<g mask="url(#mask0_40000009_5530)">
<mask id="mask1_40000009_5530" style="mask-type:luminance" maskUnits="userSpaceOnUse" x="116" y="-304" width="894" height="894">
<path d="M116 -304H1010V590H116V-304Z" fill="white"/>
</mask>
<g mask="url(#mask1_40000009_5530)">
<path d="M334.963 460.295L853.198 453.103L930.898 181.09C932.638 175.024 929.129 170.105 923.063 170.105H429.141C423.074 170.105 416.747 175.024 415.008 181.09L334.963 460.295Z" fill="#030712"/>
<path d="M334.963 460.295L853.198 453.103L930.898 181.09C932.638 175.024 929.129 170.105 923.063 170.105H429.141C423.074 170.105 416.747 175.024 415.008 181.09L334.963 460.295Z" stroke="#030712" stroke-width="2" stroke-linecap="round" stroke-linejoin="round"/>
<path d="M325.459 460.295H841.349L921.394 181.09C923.134 175.024 919.625 170.105 913.559 170.105H419.637C413.571 170.105 407.243 175.024 405.504 181.09L325.459 460.295Z" fill="#8869D5"/>
<path d="M325.459 460.295H841.349L921.394 181.09C923.134 175.024 919.625 170.105 913.559 170.105H419.637C413.571 170.105 407.243 175.024 405.504 181.09L325.459 460.295Z" stroke="#030712" stroke-width="2" stroke-linecap="round" stroke-linejoin="round"/>
<path d="M338.727 449.132L834.48 449.133L911.274 181.266H415.521L338.727 449.132Z" fill="white"/>
<path d="M338.727 449.132L834.48 449.133L911.274 181.266H415.521L338.727 449.132Z" stroke="#030712" stroke-width="2" stroke-linecap="round" stroke-linejoin="round"/>
<path d="M377.427 315.149C377.33 315.149 377.239 315.14 377.145 315.135L338.729 449.134H834.481L872.893 315.149H377.427Z" fill="white"/>
<path d="M377.427 315.149C377.33 315.149 377.239 315.14 377.145 315.135L338.729 449.134H834.481L872.893 315.149H377.427Z" stroke="#030712" stroke-width="2" stroke-linecap="round" stroke-linejoin="round"/>
<path d="M875.39 306.433L911.274 181.266H415.521L379.637 306.433H875.39Z" fill="white"/>
<path d="M875.39 306.433L911.274 181.266H415.521L379.637 306.433H875.39Z" stroke="#030712" stroke-width="2" stroke-linecap="round" stroke-linejoin="round"/>
<path d="M211.54 461.75H834.079L848.149 444.867H194.656C194.656 454.192 202.216 461.75 211.54 461.75Z" fill="#0626A9"/>
<path d="M211.54 461.75H834.079L848.149 444.867H194.656C194.656 454.192 202.216 461.75 211.54 461.75Z" stroke="#030712" stroke-width="2" stroke-linecap="round" stroke-linejoin="round"/>
<path d="M637.352 462.08H844.06C848.031 462.08 851.504 459.407 852.52 455.568L855.266 445.197H620.469C620.469 454.522 628.028 462.08 637.352 462.08Z" fill="#030712"/>
<path d="M637.352 462.08H844.06C848.031 462.08 851.504 459.407 852.52 455.568L855.266 445.197H620.469C620.469 454.522 628.028 462.08 637.352 462.08Z" stroke="#030712" stroke-width="2" stroke-linecap="round" stroke-linejoin="round"/>
<path d="M555.61 306.775C555.025 295.645 551.772 284.586 546.359 275.241C536.959 259.014 519.436 250.735 501.809 246.456C487.429 242.966 472.57 243.986 457.876 244.38C438.831 244.891 416.994 244.891 399.565 236.93L387.059 280.551C392.801 279.588 398.536 278.307 404.382 278.244C437.61 277.885 452.274 287.944 466.567 306.446C466.664 306.571 466.793 306.666 466.907 306.775" stroke="#030712" stroke-width="2" stroke-linecap="round" stroke-linejoin="round"/>
<path d="M573.866 210.605C580.572 214.424 588.144 217.466 595.878 218.25C603.234 218.996 610.804 218.029 617.818 215.746C630.85 211.503 641.263 202.084 650.137 191.78C653.042 188.407 655.828 184.876 658.56 181.266H546.195C551.254 193.8 562.488 204.127 573.866 210.605Z" fill="white"/>
<path d="M573.866 210.605C580.572 214.424 588.144 217.466 595.878 218.25C603.234 218.996 610.804 218.029 617.818 215.746C630.85 211.503 641.263 202.084 650.137 191.78C653.042 188.407 655.828 184.876 658.56 181.266H546.195C551.254 193.8 562.488 204.127 573.866 210.605Z" stroke="#030712" stroke-width="2" stroke-linecap="round" stroke-linejoin="round"/>
<path d="M782.435 189.076C772.088 195.757 761.455 202.729 751.982 210.239C743.458 216.995 734.805 224.872 729.12 233.424C727.765 235.462 726.529 237.58 725.462 239.784C725.313 240.09 725.172 240.399 725.026 240.707C725.044 240.67 724.823 241.166 724.732 241.367C724.633 241.619 724.365 242.286 724.299 242.46C723.902 243.514 723.546 244.584 723.239 245.668C722.917 246.804 722.647 247.955 722.436 249.116C722.409 249.264 722.298 249.996 722.267 250.165C722.209 250.66 722.157 251.157 722.12 251.654C722.034 252.838 722.008 254.025 722.046 255.211C722.065 255.812 722.101 256.411 722.152 257.01C722.171 257.238 722.287 258.217 722.267 258.128C723.038 263.434 724.651 268.327 727.9 272.408C731.43 276.843 736.486 279.043 742.127 280.037C754.639 282.242 768.652 278.258 780.734 274.469C787.865 272.232 794.883 269.653 802.04 267.497C812.441 264.364 823.03 261.879 833.713 259.924C852.515 256.483 871.485 254.642 890.521 253.659L911.276 181.266H794.596C790.546 183.877 786.48 186.464 782.435 189.076Z" stroke="#030712" stroke-width="2" stroke-linecap="round" stroke-linejoin="round"/>
<path d="M657.487 219.814C657.487 223.047 654.867 225.667 651.634 225.667C648.401 225.667 645.781 223.047 645.781 219.814C645.781 216.581 648.401 213.961 651.634 213.961C654.867 213.961 657.487 216.581 657.487 219.814Z" fill="#8869D5"/>
<path d="M657.487 219.814C657.487 223.047 654.867 225.667 651.634 225.667C648.401 225.667 645.781 223.047 645.781 219.814C645.781 216.581 648.401 213.961 651.634 213.961C654.867 213.961 657.487 216.581 657.487 219.814Z" stroke="#030712" stroke-width="2" stroke-linecap="round" stroke-linejoin="round"/>
<path d="M619.434 243.663C619.434 243.663 684.575 226.649 712.43 260.633C741.356 295.922 693.834 330.076 683.311 314.049C673.341 298.863 714.248 281.821 728.339 312.651C739.988 338.137 716.624 362.115 716.624 362.115" stroke="#030712" stroke-width="2" stroke-linecap="round" stroke-linejoin="round"/>
<path d="M691.459 386.992L742.73 335.721" stroke="#030712" stroke-width="2" stroke-linecap="round" stroke-linejoin="round"/>
<path d="M693.81 386.991C693.81 388.289 692.758 389.341 691.46 389.341C690.161 389.341 689.109 388.289 689.109 386.991C689.109 385.693 690.161 384.641 691.46 384.641C692.758 384.641 693.81 385.693 693.81 386.991Z" fill="white"/>
<path d="M693.81 386.991C693.81 388.289 692.758 389.341 691.46 389.341C690.161 389.341 689.109 388.289 689.109 386.991C689.109 385.693 690.161 384.641 691.46 384.641C692.758 384.641 693.81 385.693 693.81 386.991Z" stroke="#030712" stroke-width="2" stroke-linecap="round" stroke-linejoin="round"/>
<path d="M745.079 335.719C745.079 337.017 744.027 338.069 742.729 338.069C741.431 338.069 740.379 337.017 740.379 335.719C740.379 334.421 741.431 333.369 742.729 333.369C744.027 333.369 745.079 334.421 745.079 335.719Z" fill="white"/>
<path d="M745.079 335.719C745.079 337.017 744.027 338.069 742.729 338.069C741.431 338.069 740.379 337.017 740.379 335.719C740.379 334.421 741.431 333.369 742.729 333.369C744.027 333.369 745.079 334.421 745.079 335.719Z" stroke="#030712" stroke-width="2" stroke-linecap="round" stroke-linejoin="round"/>
<path d="M714.769 363.634L722.502 384.774L733.234 387.549L742.488 378.291L739.717 367.55L718.589 359.812L714.769 363.634Z" fill="#8869D5"/>
<path d="M714.769 363.634L722.502 384.774L733.234 387.549L742.488 378.291L739.717 367.55L718.589 359.812L714.769 363.634Z" stroke="#030712" stroke-width="2" stroke-linecap="round" stroke-linejoin="round"/>
<path d="M716.672 361.73L729.33 374.382Z" fill="#8869D5"/>
<path d="M716.672 361.73L729.33 374.382" stroke="#030712" stroke-width="2" stroke-miterlimit="10" stroke-linecap="round"/>
<path d="M732.628 374.381C733.539 375.292 733.54 376.769 732.629 377.68C731.718 378.591 730.242 378.591 729.331 377.681C728.42 376.77 728.419 375.293 729.33 374.382C730.24 373.471 731.717 373.471 732.628 374.381Z" fill="#030712"/>
<path d="M732.628 374.381C733.539 375.292 733.54 376.769 732.629 377.68C731.718 378.591 730.242 378.591 729.331 377.681C728.42 376.77 728.419 375.293 729.33 374.382C730.24 373.471 731.717 373.471 732.628 374.381Z" stroke="#030712" stroke-width="2" stroke-linecap="round" stroke-linejoin="round"/>
<path d="M747.384 380.706L735.66 392.435L733.4 390.177C732.628 389.405 732.628 388.154 733.399 387.383L742.33 378.447C743.102 377.676 744.352 377.675 745.124 378.447L747.384 380.706Z" fill="#030712"/>
<path d="M747.384 380.706L735.66 392.435L733.4 390.177C732.628 389.405 732.628 388.154 733.399 387.383L742.33 378.447C743.102 377.676 744.352 377.675 745.124 378.447L747.384 380.706Z" stroke="#030712" stroke-width="2" stroke-linecap="round" stroke-linejoin="round"/>
</g>
<mask id="mask2_40000009_5530" style="mask-type:luminance" maskUnits="userSpaceOnUse" x="-185" y="-440" width="1106" height="1106">
<path d="M-185 -440H920.766V665.766H-185V-440Z" fill="white"/>
</mask>
<g mask="url(#mask2_40000009_5530)">
<path d="M309.478 136.856L194.535 136.481L194.888 28.3262L309.831 28.7008L309.478 136.856Z" fill="white"/>
<path d="M309.478 136.856L194.535 136.481L194.888 28.3262L309.831 28.7008L309.478 136.856Z" stroke="#030712" stroke-width="2" stroke-linecap="round" stroke-linejoin="round"/>
<mask id="mask3_40000009_5530" style="mask-type:alpha" maskUnits="userSpaceOnUse" x="193" y="27" width="118" height="111">
<path d="M309.478 136.856L194.535 136.481L194.888 28.3262L309.831 28.7008L309.478 136.856Z" fill="white"/>
<path d="M309.478 136.856L194.535 136.481L194.888 28.3262L309.831 28.7008L309.478 136.856Z" stroke="#202870" stroke-width="2" stroke-linecap="round" stroke-linejoin="round"/>
</mask>
<g mask="url(#mask3_40000009_5530)">
<mask id="mask4_40000009_5530" style="mask-type:luminance" maskUnits="userSpaceOnUse" x="-185" y="-440" width="1106" height="1106">
<path d="M-185 -440H920.766V665.766H-185V-440Z" fill="white"/>
</mask>
<g mask="url(#mask4_40000009_5530)">
<path d="M194.686 136.483L309.479 136.857L309.58 105.867L283.479 79.5951L260.325 102.598L226.044 68.0938L194.807 99.1278L194.686 136.483Z" fill="#0626A9"/>
<path d="M194.686 136.483L309.479 136.857L309.58 105.867L283.479 79.5951L260.325 102.598L226.044 68.0938L194.807 99.1278L194.686 136.483Z" stroke="#030712" stroke-width="2" stroke-linecap="round" stroke-linejoin="round"/>
<path d="M303.535 136.483L418.329 136.857L418.43 105.867L392.329 79.5951L369.175 102.598L334.894 68.0938L303.657 99.1278C303.657 99.1278 303.656 99.2625 303.655 99.5162" fill="#0626A9"/>
<path d="M303.535 136.483L418.329 136.857L418.43 105.867L392.329 79.5951L369.175 102.598L334.894 68.0938L303.657 99.1278C303.657 99.1278 303.656 99.2625 303.655 99.5162" stroke="#030712" stroke-width="2" stroke-linecap="round" stroke-linejoin="round"/>
<path d="M267.78 58.5504C267.77 61.6742 265.229 64.1988 262.105 64.1884C258.981 64.178 256.456 61.6368 256.467 58.5131C256.477 55.3893 259.018 52.8647 262.142 52.875C265.266 52.8854 267.791 55.4266 267.78 58.5504Z" fill="#030712"/>
<path d="M267.78 58.5504C267.77 61.6742 265.229 64.1988 262.105 64.1884C258.981 64.178 256.456 61.6368 256.467 58.5131C256.477 55.3893 259.018 52.8647 262.142 52.875C265.266 52.8854 267.791 55.4266 267.78 58.5504Z" stroke="#030712" stroke-width="2" stroke-linecap="round" stroke-linejoin="round"/>
</g>
</g>
<path d="M309.478 136.856L194.535 136.481L194.888 28.3262L309.831 28.7008L309.478 136.856Z" stroke="#030712" stroke-width="2" stroke-linecap="round" stroke-linejoin="round"/>
</g>
<mask id="mask5_40000009_5530" style="mask-type:luminance" maskUnits="userSpaceOnUse" x="170" y="-2" width="553" height="553">
<path d="M722.244 -1.71484H170.199V550.33H722.244V-1.71484Z" fill="white"/>
</mask>
<g mask="url(#mask5_40000009_5530)">
<path d="M545.409 266.036C538.278 261.95 529.184 264.417 525.098 271.548C521.011 278.679 523.479 287.773 530.609 291.86C537.74 295.947 546.834 293.479 550.921 286.348C555.008 279.217 552.54 270.123 545.409 266.036Z" fill="#84AAE4"/>
<path d="M545.409 266.036C538.278 261.95 529.184 264.417 525.098 271.548C521.011 278.679 523.479 287.773 530.609 291.86C537.74 295.947 546.834 293.479 550.921 286.348C555.008 279.217 552.54 270.123 545.409 266.036Z" stroke="#84AAE4" stroke-width="2" stroke-linecap="round" stroke-linejoin="round"/>
<path d="M524.173 273.683L505.061 307.031C511.598 312.989 521.498 313.305 528.402 307.776L544.964 296.617C545.73 296.004 546.359 295.237 546.811 294.366L551.686 285.382L524.173 273.683Z" fill="white"/>
<path d="M524.173 273.683L505.061 307.031C511.598 312.989 521.498 313.305 528.402 307.776L544.964 296.617C545.73 296.004 546.359 295.237 546.811 294.366L551.686 285.382L524.173 273.683Z" stroke="#84AAE4" stroke-width="2" stroke-linecap="round" stroke-linejoin="round"/>
<path d="M524.173 273.683L505.061 307.031C511.598 312.989 521.498 313.305 528.402 307.776L544.964 296.617C545.73 296.004 546.359 295.237 546.811 294.366L551.686 285.382L524.173 273.683Z" fill="#0626A9"/>
<path d="M524.173 273.683L505.061 307.031C511.598 312.989 521.498 313.305 528.402 307.776L544.964 296.617C545.73 296.004 546.359 295.237 546.811 294.366L551.686 285.382L524.173 273.683Z" stroke="#84AAE4" stroke-width="2" stroke-linecap="round" stroke-linejoin="round"/>
<path d="M528.515 302.88L545.078 291.721C545.843 291.108 546.473 290.341 546.924 289.47L549.62 284.502L551.688 285.381L546.813 294.366C546.36 295.237 545.732 296.003 544.966 296.617L528.404 307.775C521.5 313.304 511.6 312.988 505.063 307.031L507.024 303.609C513.476 308.101 522.235 307.91 528.515 302.88Z" fill="#84AAE4"/>
<path d="M528.515 302.88L545.078 291.721C545.843 291.108 546.473 290.341 546.924 289.47L549.62 284.502L551.688 285.381L546.813 294.366C546.36 295.237 545.732 296.003 544.966 296.617L528.404 307.775C521.5 313.304 511.6 312.988 505.063 307.031L507.024 303.609C513.476 308.101 522.235 307.91 528.515 302.88Z" stroke="#84AAE4" stroke-width="2" stroke-linecap="round" stroke-linejoin="round"/>
<path d="M524.734 298.552C524.734 298.552 520.028 291.894 513.45 292.634" stroke="#84AAE4" stroke-width="2" stroke-linecap="round" stroke-linejoin="round"/>
<path d="M591.41 290.852C594.075 294.539 599.225 295.367 602.912 292.702C606.599 290.036 607.427 284.886 604.762 281.199C602.096 277.512 596.946 276.684 593.259 279.35C589.572 282.015 588.744 287.165 591.41 290.852Z" fill="#84AAE4"/>
<path d="M591.41 290.852C594.075 294.539 599.225 295.367 602.912 292.702C606.599 290.036 607.427 284.886 604.762 281.199C602.096 277.512 596.946 276.684 593.259 279.35C589.572 282.015 588.744 287.165 591.41 290.852Z" stroke="#84AAE4" stroke-width="2" stroke-linecap="round" stroke-linejoin="round"/>
<path d="M594.555 288.607C595.971 290.565 598.705 291.005 600.663 289.589C602.621 288.174 603.06 285.439 601.645 283.482C600.23 281.524 597.495 281.084 595.537 282.5C593.58 283.915 593.14 286.65 594.555 288.607Z" fill="#0626A9"/>
<path d="M592.927 279.539C591.858 280.468 591.074 281.534 590.512 282.675L590.51 282.676C590.297 283.105 590.118 283.545 589.966 283.992C589.787 284.516 589.648 285.048 589.544 285.585C589.465 285.979 589.406 286.375 589.365 286.77C588.908 290.983 590.305 295.147 591.079 296.509C591.703 297.612 592.423 298.648 593.19 299.705L602.91 292.701" fill="#0626A9"/>
<path d="M592.927 279.539C591.858 280.468 591.074 281.534 590.512 282.675L590.51 282.676C590.297 283.105 590.118 283.545 589.966 283.992C589.787 284.516 589.648 285.048 589.544 285.585C589.465 285.979 589.406 286.375 589.365 286.77C588.908 290.983 590.305 295.147 591.079 296.509C591.703 297.612 592.423 298.648 593.19 299.705L602.91 292.701" stroke="#84AAE4" stroke-width="2" stroke-linecap="round" stroke-linejoin="round"/>
<path d="M593.178 299.716L602.91 292.702L600.634 289.609L590.967 296.593C591.631 297.637 592.411 298.659 593.178 299.716Z" fill="#84AAE4"/>
<path d="M589.879 275.274C594.98 282.183 604.716 283.648 611.625 278.547C618.534 273.445 619.999 263.709 614.898 256.801C609.797 249.892 600.061 248.427 593.152 253.528C586.243 258.629 584.778 268.365 589.879 275.274Z" fill="#84AAE4"/>
<path d="M589.879 275.274C594.98 282.183 604.716 283.648 611.625 278.547C618.534 273.445 619.999 263.709 614.898 256.801C609.797 249.892 600.061 248.427 593.152 253.528C586.243 258.629 584.778 268.365 589.879 275.274Z" stroke="#84AAE4" stroke-width="2" stroke-linecap="round" stroke-linejoin="round"/>
<path d="M592.951 279.67L589.218 274.41L614.156 256.07L617.408 260.405" fill="#0626A9"/>
<path d="M592.951 279.67L589.218 274.41L614.156 256.07L617.408 260.405" stroke="#84AAE4" stroke-width="2" stroke-linecap="round" stroke-linejoin="round"/>
<path d="M602.705 292.848L627.666 274.296L617.185 260.102L592.733 279.763" fill="#0626A9"/>
<path d="M602.705 292.848L627.666 274.296L617.185 260.102" stroke="#84AAE4" stroke-width="2" stroke-linecap="round" stroke-linejoin="round"/>
<path d="M602.705 292.848L627.709 274.355L625.437 271.277L600.2 289.912L602.705 292.848Z" fill="#84AAE4"/>
<path d="M592.73 279.761C592.73 279.761 595.691 276.369 601.615 275.568Z" fill="#0626A9"/>
<path d="M592.73 279.761C592.73 279.761 595.691 276.369 601.615 275.568" stroke="#84AAE4" stroke-width="2" stroke-linecap="round" stroke-linejoin="round"/>
<path d="M623.625 152.065C616.382 159.049 604.849 158.84 597.865 151.597C590.88 144.354 591.09 132.821 598.332 125.837C605.575 118.852 617.109 119.062 624.093 126.305C631.077 133.547 630.868 145.081 623.625 152.065Z" fill="#84AAE4"/>
<path d="M623.625 152.065C616.382 159.049 604.849 158.84 597.865 151.597C590.88 144.354 591.09 132.821 598.332 125.837C605.575 118.852 617.109 119.062 624.093 126.305C631.077 133.547 630.868 145.081 623.625 152.065Z" stroke="#84AAE4" stroke-width="2" stroke-linecap="round" stroke-linejoin="round"/>
<path d="M622.438 153.209L571.946 204.679L545.999 178.704L598.332 125.836L622.438 153.209Z" fill="#84AAE4"/>
<path d="M622.438 153.209L571.946 204.679L545.999 178.704L598.332 125.836L622.438 153.209Z" stroke="#84AAE4" stroke-width="2" stroke-linecap="round" stroke-linejoin="round"/>
<path d="M575.196 182.38C580.194 191.231 577.071 202.459 568.22 207.457C559.368 212.456 548.141 209.332 543.142 200.481C538.144 191.63 541.267 180.402 550.119 175.404C558.97 170.405 570.198 173.529 575.196 182.38Z" fill="#84AAE4"/>
<path d="M575.196 182.38C580.194 191.231 577.071 202.459 568.22 207.457C559.368 212.456 548.141 209.332 543.142 200.481C538.144 191.63 541.267 180.402 550.119 175.404C558.97 170.405 570.198 173.529 575.196 182.38Z" stroke="#84AAE4" stroke-width="2" stroke-linecap="round" stroke-linejoin="round"/>
<path d="M543.551 200.992L586.319 273.277C586.319 273.277 608.849 273.072 619.301 260.479L575.197 182.379L543.551 200.992Z" fill="#84AAE4"/>
<path d="M543.551 200.992L586.319 273.277C586.319 273.277 608.849 273.072 619.301 260.479L575.197 182.379L543.551 200.992Z" stroke="#84AAE4" stroke-width="2" stroke-linecap="round" stroke-linejoin="round"/>
<path d="M634.994 162.949C626.849 168.856 615.457 167.04 609.551 158.895C603.644 150.75 605.459 139.358 613.605 133.451C621.75 127.545 633.142 129.36 639.048 137.505C644.955 145.651 643.14 157.042 634.994 162.949Z" fill="#84AAE4"/>
<path d="M634.994 162.949C626.849 168.856 615.457 167.04 609.551 158.895C603.644 150.75 605.459 139.358 613.605 133.451C621.75 127.545 633.142 129.36 639.048 137.505C644.955 145.651 643.14 157.042 634.994 162.949Z" stroke="#84AAE4" stroke-width="2" stroke-linecap="round" stroke-linejoin="round"/>
<path d="M633.66 163.917L576.487 207.847L554.414 178.508L584.044 155.953L613.605 133.451L633.66 163.917Z" fill="#84AAE4"/>
<path d="M633.66 163.917L576.487 207.847L554.414 178.508L584.044 155.953L613.605 133.451L633.66 163.917Z" stroke="#84AAE4" stroke-width="2" stroke-linecap="round" stroke-linejoin="round"/>
<path d="M559.607 174.556L584.045 155.954L602.484 141.961" stroke="white" stroke-width="2" stroke-linecap="round" stroke-linejoin="round"/>
<path d="M583.077 198.966C579.753 208.572 569.271 213.665 559.665 210.341C550.058 207.017 544.965 196.535 548.289 186.929C551.613 177.323 562.095 172.229 571.701 175.553C581.308 178.877 586.401 189.359 583.077 198.966Z" fill="#84AAE4"/>
<path d="M583.077 198.966C579.753 208.572 569.271 213.665 559.665 210.341C550.058 207.017 544.965 196.535 548.289 186.929C551.613 177.323 562.095 172.229 571.701 175.553C581.308 178.877 586.401 189.359 583.077 198.966Z" stroke="#84AAE4" stroke-width="2" stroke-linecap="round" stroke-linejoin="round"/>
<path d="M548.173 187.571L519.817 275.354C519.817 275.354 537.787 285.933 552.398 287.941L583.076 198.963L548.173 187.571Z" fill="#84AAE4"/>
<path d="M548.173 187.571L519.817 275.354C519.817 275.354 537.787 285.933 552.398 287.941L583.076 198.963L548.173 187.571Z" stroke="#84AAE4" stroke-width="2" stroke-linecap="round" stroke-linejoin="round"/>
<path d="M622.703 75.7569C622.703 75.7569 609.738 74.982 602.856 71.298C598.202 68.806 597.758 62.7619 599.647 58.9818C601.535 55.2018 602.18 50.1143 602.263 47.5359C602.346 44.9575 603.782 39.5096 607.541 37.938C611.3 36.3664 611.961 36.1562 611.961 36.1562C611.961 36.1562 613.089 25.1434 617.063 27.0657C622.458 29.6755 629.901 44.9333 632.405 47.5335C634.677 49.8916 636.202 51.0177 638.097 52.5707C639.703 53.8869 642.91 55.2367 643.87 60.6855C644.98 66.9843 642.424 70.7666 638.328 72.6147C635.499 73.8915 626.283 75.181 622.703 75.7569Z" fill="#0626A9"/>
<path d="M620.513 59.5342C621.264 63.7398 618.463 67.7582 614.258 68.5095C610.052 69.2609 606.034 66.4605 605.282 62.2548C604.531 58.0491 607.331 54.0308 611.537 53.2794C615.743 52.528 619.761 55.3285 620.513 59.5342Z" fill="white"/>
<path d="M620.513 59.5342C621.264 63.7398 618.463 67.7582 614.258 68.5095C610.052 69.2609 606.034 66.4605 605.282 62.2548C604.531 58.0491 607.331 54.0308 611.537 53.2794C615.743 52.528 619.761 55.3285 620.513 59.5342Z" stroke="#84AAE4" stroke-width="2" stroke-linecap="round" stroke-linejoin="round"/>
<path d="M605.196 61.6289L602.72 44.0768L617.254 42.1092L620.22 58.227" fill="white"/>
<path d="M605.196 61.6289L602.72 44.0768L617.254 42.1092L620.22 58.227" stroke="#84AAE4" stroke-width="2" stroke-linecap="round" stroke-linejoin="round"/>
<path d="M610.272 42.72C610.272 42.72 612.639 53.8252 604.391 56.5071L602.488 44.2447L610.272 42.72Z" fill="#84AAE4"/>
<path d="M597.194 39.9152C597.194 39.9152 596.17 39.8602 594.777 37.7439C593.384 35.6275 593.648 34.2708 594.555 33.6181C595.462 32.9653 596.731 33.2949 596.748 33.3899C596.765 33.4849 597.194 39.9152 597.194 39.9152Z" fill="#0626A9"/>
<path d="M613.506 47.6248C609.784 52.4945 602.714 54.6941 598.909 51.667C595.104 48.6399 595.762 39.7429 595.561 38.6711C594.387 32.4077 594.649 30.0716 595.859 27.9189C598.798 22.6912 611.031 21.17 615.213 26.6196C619.027 31.5883 617.194 41.425 617.194 41.425" fill="white"/>
<path d="M613.506 47.6248C609.784 52.4945 602.714 54.6941 598.909 51.667C595.104 48.6399 595.762 39.7429 595.561 38.6711C594.387 32.4077 594.649 30.0716 595.859 27.9189C598.798 22.6912 611.031 21.17 615.213 26.6196C619.027 31.5883 617.194 41.425 617.194 41.425" stroke="#84AAE4" stroke-width="2" stroke-linecap="round" stroke-linejoin="round"/>
<path d="M602.47 37.2655C602.528 37.8311 603.771 37.6837 605.254 37.5318C606.738 37.3799 607.9 37.2803 607.842 36.7147C607.784 36.1492 606.534 35.8141 605.05 35.966C603.567 36.1179 602.412 36.7 602.47 37.2655Z" fill="#0626A9"/>
<path d="M596.405 38.2141C596.49 38.7867 597.235 38.5946 598.264 38.443C599.293 38.2914 600.079 38.3606 599.995 37.7881C599.91 37.2155 599.008 36.8745 597.979 37.0261C596.95 37.1777 596.321 37.6415 596.405 38.2141Z" fill="#0626A9"/>
<path d="M602.672 45.8724C604.755 46.8792 605.033 44.3047 605.033 44.3047Z" fill="white"/>
<path d="M602.672 45.8724C604.755 46.8792 605.033 44.3047 605.033 44.3047" stroke="#84AAE4" stroke-width="2" stroke-linecap="round" stroke-linejoin="round"/>
<path d="M601.643 38.6511C601.643 38.6511 601.829 40.001 601.388 40.633C600.947 41.265 600.354 41.0389 600.078 41.9734C599.803 42.9079 600.786 43.6503 601.629 43.6762" fill="white"/>
<path d="M601.643 38.6511C601.643 38.6511 601.829 40.001 601.388 40.633C600.947 41.265 600.354 41.0389 600.078 41.9734C599.803 42.9079 600.786 43.6503 601.629 43.6762" stroke="#84AAE4" stroke-width="2" stroke-linecap="round" stroke-linejoin="round"/>
<path d="M593.925 27.0985C597.103 20.7459 603.81 21.2056 603.81 21.2056C603.81 21.2056 611.042 20.4249 615.471 24.9941C619.9 29.5633 618.94 36.2579 618.94 36.2579C618.94 36.2579 616.224 38.6686 614.711 38.3562C613.199 38.0437 613.74 36.8299 611.881 35.885C610.022 34.9401 607.431 34.4706 605.516 31.8995C603.601 29.3284 603.914 26.1845 603.914 26.1845C603.914 26.1845 600.894 28.1138 600.15 30.6197C600.143 30.6413 600.137 30.6629 600.13 30.6849C599.304 33.6144 596.953 35.8608 593.957 36.396L592.98 36.5706C592.98 36.5706 591.574 31.7971 593.925 27.0985Z" fill="#0626A9"/>
<path d="M613.188 37.81C613.188 37.81 613.903 34.4062 616.313 33.9319C618.354 33.5303 620.513 35.4638 620.07 38.2405C619.62 41.0574 617.666 43.0407 617.02 43.1562C615.787 43.3763 614.785 42.7253 614.506 41.7795" fill="white"/>
<path d="M613.188 37.81C613.188 37.81 613.903 34.4062 616.313 33.9319C618.354 33.5303 620.513 35.4638 620.07 38.2405C619.62 41.0574 617.666 43.0407 617.02 43.1562C615.787 43.3763 614.785 42.7253 614.506 41.7795" stroke="#84AAE4" stroke-width="2" stroke-linecap="round" stroke-linejoin="round"/>
<path d="M617.953 36.2969C617.953 36.2969 616.319 35.2053 615.433 38.2961C615.433 38.2961 616.604 37.4228 617.451 37.8248" fill="white"/>
<path d="M617.953 36.2969C617.953 36.2969 616.319 35.2053 615.433 38.2961C615.433 38.2961 616.604 37.4228 617.451 37.8248" stroke="#84AAE4" stroke-width="2" stroke-linecap="round" stroke-linejoin="round"/>
<path d="M608.77 21.6217C608.887 24.9754 611.701 27.5994 615.055 27.4822C618.408 27.3651 621.032 24.5513 620.915 21.1976C620.798 17.8439 617.984 15.2199 614.631 15.3371C611.277 15.4542 608.653 18.268 608.77 21.6217Z" fill="#0626A9"/>
<path d="M604.615 38.9447C604.663 39.2113 604.917 39.3885 605.184 39.3409C605.45 39.2932 605.628 39.0388 605.58 38.7722C605.532 38.5056 605.278 38.3285 605.011 38.3761C604.745 38.4237 604.568 38.6781 604.615 38.9447Z" fill="#84AAE4"/>
<path d="M597.977 39.5385C598.024 39.8051 598.279 39.9822 598.545 39.9346C598.812 39.887 598.989 39.6326 598.941 39.366C598.894 39.0994 598.639 38.9222 598.373 38.9698C598.106 39.0175 597.929 39.2719 597.977 39.5385Z" fill="#84AAE4"/>
<path d="M559.166 109.667C559.963 103.351 565.729 98.8765 572.045 99.6736C578.361 100.471 582.835 106.237 582.038 112.553C581.241 118.869 575.475 123.343 569.159 122.546C562.843 121.749 558.369 115.983 559.166 109.667Z" fill="white"/>
<path d="M559.166 109.667C559.963 103.351 565.729 98.8765 572.045 99.6736C578.361 100.471 582.835 106.237 582.038 112.553C581.241 118.869 575.475 123.343 569.159 122.546C562.843 121.749 558.369 115.983 559.166 109.667Z" stroke="#84AAE4" stroke-width="2" stroke-linecap="round" stroke-linejoin="round"/>
<path d="M601.68 68.5529C597.537 64.6942 591.05 64.9244 587.192 69.0672C583.333 73.21 583.563 79.6967 587.706 83.5554C591.849 87.414 598.336 87.1838 602.194 83.041C606.053 78.8982 605.823 72.4115 601.68 68.5529Z" fill="#0626A9"/>
<path d="M601.68 68.5529C597.537 64.6942 591.05 64.9244 587.192 69.0672C583.333 73.21 583.563 79.6967 587.706 83.5554C591.849 87.414 598.336 87.1838 602.194 83.041C606.053 78.8982 605.823 72.4115 601.68 68.5529Z" stroke="#84AAE4" stroke-width="2" stroke-linecap="round" stroke-linejoin="round"/>
<path d="M602.47 82.7109L580.542 116.953L561.457 104.143L586.462 69.9423L602.47 82.7109Z" fill="white"/>
<path d="M561.457 104.142L586.463 69.9414Z" fill="#0626A9"/>
<path d="M561.457 104.142L586.463 69.9414" stroke="#84AAE4" stroke-width="2" stroke-linecap="round" stroke-linejoin="round"/>
<path d="M602.469 82.7109L580.541 116.953Z" fill="#0626A9"/>
<path d="M602.469 82.7109L580.541 116.953" stroke="#84AAE4" stroke-width="2" stroke-linecap="round" stroke-linejoin="round"/>
<path d="M574.536 86.6014C574.536 86.6014 578.085 97.8864 580.975 101.649C583.864 105.411 586.319 107.549 586.319 107.549L591.402 99.7326L577.91 88.3585" fill="#84AAE4"/>
<path d="M587.19 69.0673L573.48 84.8253C573.48 84.8253 578.133 93.007 582.346 97.1286C586.05 100.753 590.068 103.616 590.068 103.616L603.314 81.6016" fill="white"/>
<path d="M587.19 69.0673L573.48 84.8253C573.48 84.8253 578.133 93.007 582.346 97.1286C586.05 100.753 590.068 103.616 590.068 103.616L603.314 81.6016" stroke="#84AAE4" stroke-width="2" stroke-linecap="round" stroke-linejoin="round"/>
<path d="M586.609 95.9396C587.885 100.613 592.708 103.367 597.381 102.09C602.055 100.814 604.808 95.9905 603.532 91.3172C602.255 86.6438 597.432 83.8902 592.759 85.1667C588.086 86.4431 585.332 91.2662 586.609 95.9396Z" fill="white"/>
<path d="M586.609 95.9396C587.885 100.613 592.708 103.367 597.381 102.09C602.055 100.814 604.808 95.9905 603.532 91.3172C602.255 86.6438 597.432 83.8902 592.759 85.1667C588.086 86.4431 585.332 91.2662 586.609 95.9396Z" stroke="#84AAE4" stroke-width="2" stroke-linecap="round" stroke-linejoin="round"/>
<path d="M590.461 85.9241L565.521 100.764L577.922 120.016C577.922 120.016 596.171 104.007 600.019 100.94L590.461 85.9241Z" fill="white"/>
<path d="M600.02 100.941C597.413 103.409 577.922 120.018 577.922 120.018" stroke="#84AAE4" stroke-width="2" stroke-linecap="round" stroke-linejoin="round"/>
<path d="M570.052 98.201L590.521 86.1484" stroke="#84AAE4" stroke-width="2" stroke-linecap="round" stroke-linejoin="round"/>
<path d="M564.705 113.494C563.387 110.237 564.959 106.528 568.216 105.21C571.473 103.892 575.182 105.464 576.501 108.721C577.819 111.978 576.247 115.687 572.99 117.005C569.733 118.323 566.023 116.751 564.705 113.494Z" fill="white"/>
<path d="M636.389 63.0233C642.007 63.7223 645.995 68.8435 645.296 74.4618C644.597 80.0801 639.476 84.0679 633.857 83.3689C628.239 82.6699 624.251 77.5488 624.95 71.9305C625.649 66.3122 630.77 62.3243 636.389 63.0233Z" fill="white"/>
<path d="M636.389 63.0233C642.007 63.7223 645.995 68.8435 645.296 74.4618C644.597 80.0801 639.476 84.0679 633.857 83.3689C628.239 82.6699 624.251 77.5488 624.95 71.9305C625.649 66.3122 630.77 62.3243 636.389 63.0233Z" stroke="#84AAE4" stroke-width="2" stroke-linecap="round" stroke-linejoin="round"/>
<path d="M596.626 130.026C597.895 141.159 607.948 149.155 619.08 147.886C630.213 146.617 638.209 136.564 636.94 125.431C635.672 114.299 625.619 106.303 614.486 107.571C603.353 108.84 595.357 118.893 596.626 130.026Z" fill="#84AAE4"/>
<path d="M638.288 63.444C631.495 60.9172 620.44 58.511 620.44 58.511L611.388 62.4632L604.295 60.424C604.295 60.424 591.799 62.9898 587.053 69.22C586.924 69.3899 590.435 72.0077 592.592 76.4323C593.744 78.7949 592.649 82.7613 592.515 86.0761C592.259 92.3715 594.805 95.8558 594.805 95.8558L596.493 126.591C596.493 126.591 600.906 129.597 610.772 130.042C624.76 130.674 637.025 125.634 637.025 125.634L635.076 94.842L634.307 79.0086" fill="white"/>
<path d="M605.01 60.2977L611.84 61.6987L620.24 58.457L609.992 65.5353L605.01 60.2977Z" fill="white"/>
<path d="M634.306 79.0087L635.075 94.8425L637.024 125.635C637.024 125.635 625.317 130.819 609.46 129.987C601.637 129.577 596.492 126.592 596.492 126.592L594.803 95.8559C594.803 95.8559 589.591 87.7059 594.498 81.4781" fill="white"/>
<path d="M634.306 79.0087L635.075 94.8425L637.024 125.635C637.024 125.635 625.317 130.819 609.46 129.987C601.637 129.577 596.492 126.592 596.492 126.592L594.803 95.8559C594.803 95.8559 589.591 87.7059 594.498 81.4781" stroke="#84AAE4" stroke-width="2" stroke-linecap="round" stroke-linejoin="round"/>
<path d="M638.286 63.4456C631.493 60.9188 620.238 58.4574 620.238 58.4574L609.99 65.5357L605.007 60.298C605.007 60.298 592.677 62.4914 587.051 69.2215" stroke="#84AAE4" stroke-width="2" stroke-linecap="round" stroke-linejoin="round"/>
<path d="M623.768 93.8672C623.768 93.8672 621.072 97.4751 615.405 97.1504Z" fill="white"/>
<path d="M623.768 93.8672C623.768 93.8672 621.072 97.4751 615.405 97.1504" stroke="#84AAE4" stroke-width="2" stroke-linecap="round" stroke-linejoin="round"/>
<path d="M596.343 141.249C596.343 141.249 596.572 140.817 596.51 133.986C596.448 127.156 596.545 125.883 596.545 125.883C596.545 125.883 605.951 131.249 615.829 131.208C625.706 131.168 637.086 126.341 637.086 126.341C637.086 126.341 638.208 128.191 639.751 133.509C642.517 143.047 642.568 148.843 642.568 148.843C642.568 148.843 628.402 160.232 617.592 155.437C607.394 150.913 596.343 141.249 596.343 141.249Z" fill="#84AAE4"/>
<path d="M596.343 141.249C596.343 141.249 596.572 140.817 596.51 133.986C596.448 127.156 596.545 125.883 596.545 125.883C596.545 125.883 605.951 131.249 615.829 131.208C625.706 131.168 637.086 126.341 637.086 126.341C637.086 126.341 638.208 128.191 639.751 133.509C642.517 143.047 642.568 148.843 642.568 148.843C642.568 148.843 628.402 160.232 617.592 155.437C607.394 150.913 596.343 141.249 596.343 141.249Z" stroke="#84AAE4" stroke-width="2" stroke-linecap="round" stroke-linejoin="round"/>
<path d="M657.775 116.536C659.077 110.305 655.081 104.198 648.849 102.896C642.617 101.594 636.51 105.59 635.208 111.822C633.906 118.054 637.903 124.161 644.134 125.462C650.366 126.764 656.473 122.768 657.775 116.536Z" fill="white"/>
<path d="M657.775 116.536C659.077 110.305 655.081 104.198 648.849 102.896C642.617 101.594 636.51 105.59 635.208 111.822C633.906 118.054 637.903 124.161 644.134 125.462C650.366 126.764 656.473 122.768 657.775 116.536Z" stroke="#84AAE4" stroke-width="2" stroke-linecap="round" stroke-linejoin="round"/>
<path d="M625.603 76.9567L635.214 116.571L656.787 109.578L644.895 70.0929L625.603 76.9567Z" fill="white"/>
<path d="M657.408 110.569L644.895 70.0923Z" fill="#0626A9"/>
<path d="M657.408 110.569L644.895 70.0923" stroke="#84AAE4" stroke-width="2" stroke-linecap="round" stroke-linejoin="round"/>
<path d="M625.916 78.2433L635.214 116.571Z" fill="#0626A9"/>
<path d="M625.916 78.2433L635.214 116.571" stroke="#84AAE4" stroke-width="2" stroke-linecap="round" stroke-linejoin="round"/>
<path d="M630.417 96.1236L631.149 99.4886C631.149 99.4886 633.83 99.7113 638.435 98.412C643.512 96.9792 651.713 92.1487 651.713 92.1487L650.308 87.2493" fill="#84AAE4"/>
<path d="M644.724 69.5927L651.487 87.5528C651.487 87.5528 646.798 91.6209 639.612 95.4845C633.873 98.5702 630.042 99.1818 630.042 99.1818L625.036 76.7239" fill="#0626A9"/>
<path d="M631.997 66.1632C635.881 64.4361 640.429 66.1843 642.156 70.0682C643.883 73.952 642.135 78.4999 638.251 80.227C634.367 81.9541 629.819 80.2058 628.092 76.322C626.365 72.4382 628.113 67.8903 631.997 66.1632Z" fill="white"/>
<path d="M644.671 69.1826L651.434 87.1426C651.434 87.1426 646.745 91.2108 639.559 95.0744C633.82 98.16 629.989 98.7717 629.989 98.7717L626.564 82.2032" fill="white"/>
<path d="M644.671 69.1826L651.434 87.1426C651.434 87.1426 646.745 91.2108 639.559 95.0744C633.82 98.16 629.989 98.7717 629.989 98.7717L626.564 82.2032" stroke="#84AAE4" stroke-width="2" stroke-linecap="round" stroke-linejoin="round"/>
<path d="M617.674 82.4294C618.078 86.6536 621.83 89.75 626.054 89.3456C630.279 88.9412 633.375 85.189 632.971 80.9649C632.566 76.7407 628.814 73.6443 624.59 74.0487C620.366 74.4531 617.269 78.2052 617.674 82.4294Z" fill="white"/>
<path d="M617.674 82.4294C618.078 86.6536 621.83 89.75 626.054 89.3456C630.279 88.9412 633.375 85.189 632.971 80.9649C632.566 76.7407 628.814 73.6443 624.59 74.0487C620.366 74.4531 617.269 78.2052 617.674 82.4294Z" stroke="#84AAE4" stroke-width="2" stroke-linecap="round" stroke-linejoin="round"/>
<path d="M650.469 120.19C653.698 117.945 654.495 113.507 652.25 110.278C650.004 107.048 645.566 106.251 642.337 108.497C639.107 110.742 638.31 115.18 640.556 118.41C642.802 121.639 647.24 122.436 650.469 120.19Z" fill="white"/>
<path d="M631.694 77.369L655.952 108.205L636.708 120.275C636.708 120.275 622.043 91.2387 619.752 87.5415L631.694 77.369Z" fill="white"/>
<path d="M619.751 87.5399C621.187 90.3686 636.707 120.273 636.707 120.273" stroke="#84AAE4" stroke-width="2" stroke-linecap="round" stroke-linejoin="round"/>
<path d="M654.218 105.964L631.217 76.7626" stroke="#84AAE4" stroke-width="2" stroke-linecap="round" stroke-linejoin="round"/>
<path d="M545.675 146.483L538.335 167.507L558.087 157.222L667.86 30.3593C670.826 26.9321 670.452 21.7494 667.025 18.7839C663.598 15.8184 658.415 16.1927 655.449 19.6199L545.675 146.483Z" fill="#0626A9"/>
<path d="M545.675 146.483L538.335 167.507L558.087 157.222L667.86 30.3593C670.826 26.9321 670.452 21.7494 667.025 18.7839C663.598 15.8184 658.415 16.1927 655.449 19.6199L545.675 146.483Z" stroke="#84AAE4" stroke-width="2" stroke-linecap="round" stroke-linejoin="round"/>
<path d="M562.92 139.097C562.359 138.611 562.298 137.763 562.783 137.202L577.907 119.724C578.393 119.163 579.24 119.102 579.801 119.587C580.362 120.073 580.423 120.921 579.938 121.482L564.814 138.96C564.329 139.521 563.481 139.582 562.92 139.097Z" fill="white"/>
<path d="M562.92 139.097C562.359 138.611 562.298 137.763 562.783 137.202L577.907 119.724C578.393 119.163 579.24 119.102 579.801 119.587C580.362 120.073 580.423 120.921 579.938 121.482L564.814 138.96C564.329 139.521 563.481 139.582 562.92 139.097Z" stroke="#84AAE4" stroke-width="2" stroke-linecap="round" stroke-linejoin="round"/>
<path d="M558.086 157.222L545.675 146.482Z" fill="white"/>
<path d="M558.086 157.222L545.675 146.482" stroke="#84AAE4" stroke-width="2" stroke-linecap="round" stroke-linejoin="round"/>
<path d="M543.867 164.627L540.391 161.619L538.335 167.508L543.867 164.627Z" fill="#84AAE4"/>
<path d="M543.867 164.627L540.391 161.619L538.335 167.508L543.867 164.627Z" stroke="#84AAE4" stroke-width="2" stroke-linecap="round" stroke-linejoin="round"/>
<path d="M587.05 99.0765C584.406 98.7184 585.408 94.7612 587.306 94.2123C587.306 94.2123 585.41 92.6352 588.489 90.7161C588.489 90.7161 587.395 88.8899 590.288 87.4532C590.319 87.4377 590.74 85.8143 592.821 85.3665C594.693 84.9638 599.639 86.5658 600.703 87.4694C601.475 88.126 601.404 89.3805 600.104 90.0995C600.104 90.0995 601.285 92.6831 599.016 93.1337C599.016 93.1337 599.722 96.3318 596.783 95.414C596.783 95.414 597.875 96.4774 597.146 97.4028C596.288 98.4913 594.74 98.2084 592.103 98.0994C588.554 97.9524 588.615 99.2887 587.05 99.0765Z" fill="white"/>
<path d="M587.05 99.0765C584.406 98.7184 585.408 94.7612 587.306 94.2123C587.306 94.2123 585.41 92.6352 588.489 90.7161C588.489 90.7161 587.395 88.8899 590.288 87.4532C590.319 87.4377 590.74 85.8143 592.821 85.3665C594.693 84.9638 599.639 86.5658 600.703 87.4694C601.475 88.126 601.404 89.3805 600.104 90.0995C600.104 90.0995 601.285 92.6831 599.016 93.1337C599.016 93.1337 599.722 96.3318 596.783 95.414C596.783 95.414 597.875 96.4774 597.146 97.4028C596.288 98.4913 594.74 98.2084 592.103 98.0994C588.554 97.9524 588.615 99.2887 587.05 99.0765Z" stroke="#84AAE4" stroke-width="2" stroke-linecap="round" stroke-linejoin="round"/>
<path d="M596.783 95.4154C596.783 95.4154 590.216 92.698 587.306 94.2137Z" fill="white"/>
<path d="M596.783 95.4154C596.783 95.4154 590.216 92.698 587.306 94.2137" stroke="#84AAE4" stroke-width="2" stroke-linecap="round" stroke-linejoin="round"/>
<path d="M599.016 93.1345C598.803 93.2301 591.503 89.2053 588.489 90.7169Z" fill="white"/>
<path d="M599.016 93.1345C598.803 93.2301 591.503 89.2053 588.489 90.7169" stroke="#84AAE4" stroke-width="2" stroke-linecap="round" stroke-linejoin="round"/>
<path d="M600.105 90.0999C600.105 90.0999 595.055 87.2979 590.289 87.4535Z" fill="white"/>
<path d="M600.105 90.0999C600.105 90.0999 595.055 87.2979 590.289 87.4535" stroke="#84AAE4" stroke-width="2" stroke-linecap="round" stroke-linejoin="round"/>
<path d="M626.079 78.6918C627.541 80.9238 630.681 78.3163 630.36 76.3666C630.36 76.3666 632.599 77.3992 633.006 73.794C633.006 73.794 635.125 73.9951 635.177 70.7657C635.178 70.7308 636.462 69.6526 635.97 67.581C635.528 65.7182 631.953 61.943 630.679 61.372C629.754 60.9573 628.652 61.5618 628.563 63.0451C628.563 63.0451 625.723 63.0907 626.293 65.333C626.293 65.333 623.102 66.0721 625.195 68.3299C625.195 68.3299 623.765 67.8014 623.244 68.8582C622.631 70.1017 623.552 71.3766 624.786 73.7096C626.446 76.8497 625.214 77.37 626.079 78.6918Z" fill="white"/>
<path d="M626.079 78.6918C627.541 80.9238 630.681 78.3163 630.36 76.3666C630.36 76.3666 632.599 77.3992 633.006 73.794C633.006 73.794 635.125 73.9951 635.177 70.7657C635.178 70.7308 636.462 69.6526 635.97 67.581C635.528 65.7182 631.953 61.943 630.679 61.372C629.754 60.9573 628.652 61.5618 628.563 63.0451C628.563 63.0451 625.723 63.0907 626.293 65.333C626.293 65.333 623.102 66.0721 625.195 68.3299C625.195 68.3299 623.765 67.8014 623.244 68.8582C622.631 70.1017 623.552 71.3766 624.786 73.7096C626.446 76.8497 625.214 77.37 626.079 78.6918Z" stroke="#84AAE4" stroke-width="2" stroke-linecap="round" stroke-linejoin="round"/>
<path d="M625.197 68.3302C625.197 68.3302 630.477 73.0877 630.362 76.3665Z" fill="white"/>
<path d="M625.197 68.3302C625.197 68.3302 630.477 73.0877 630.362 76.3665" stroke="#84AAE4" stroke-width="2" stroke-linecap="round" stroke-linejoin="round"/>
<path d="M626.292 65.3321C626.297 65.565 633.073 70.4219 633.006 73.7928Z" fill="white"/>
<path d="M626.292 65.3321C626.297 65.565 633.073 70.4219 633.006 73.7928" stroke="#84AAE4" stroke-width="2" stroke-linecap="round" stroke-linejoin="round"/>
<path d="M628.564 63.045C628.564 63.045 633.267 66.3972 635.178 70.766Z" fill="white"/>
<path d="M628.564 63.045C628.564 63.045 633.267 66.3972 635.178 70.766" stroke="#84AAE4" stroke-width="2" stroke-linecap="round" stroke-linejoin="round"/>
<path d="M632.144 77.8648C632.144 77.8648 632.9 76.947 633.769 75.3139C634.681 73.6015 634.891 72.4281 634.891 72.4281C634.891 72.4281 633.999 71.716 633.616 72.2187C632.415 73.792 630.697 75.314 629.549 75.7387C627.32 76.5637 625.516 75.7388 625.516 75.7388C625.516 75.7388 621.712 78.0871 620.352 80.7808C618.666 84.119 619.286 86.853 619.286 86.853L632.144 77.8648Z" fill="white"/>
<path d="M632.144 77.8667C632.144 77.8667 632.9 76.9486 633.769 75.3155C634.681 73.6031 634.891 72.4297 634.891 72.4297" stroke="#84AAE4" stroke-width="2" stroke-linecap="round" stroke-linejoin="round"/>
<path d="M625.516 75.7422C625.516 75.7422 622.396 76.5827 620.352 80.7842C618.307 84.9856 619.286 86.8563 619.286 86.8563" stroke="#84AAE4" stroke-width="2" stroke-linecap="round" stroke-linejoin="round"/>
</g>
</g>
<path d="M153.099 113.05C153.099 118.6 148.6 123.099 143.05 123.099C137.499 123.099 133 118.6 133 113.05C133 107.499 137.499 103 143.05 103C148.6 103 153.099 107.499 153.099 113.05Z" fill="#0626A9"/>
<path d="M153.099 113.05C153.099 118.6 148.6 123.099 143.05 123.099C137.499 123.099 133 118.6 133 113.05C133 107.499 137.499 103 143.05 103C148.6 103 153.099 107.499 153.099 113.05Z" stroke="#030712" stroke-width="2" stroke-linecap="round" stroke-linejoin="round"/>
<path d="M267.042 292.253C267.042 296.16 263.875 299.327 259.968 299.327C256.062 299.327 252.895 296.16 252.895 292.253C252.895 288.347 256.062 285.18 259.968 285.18C263.875 285.18 267.042 288.347 267.042 292.253Z" fill="#8869D5"/>
<path d="M267.042 292.253C267.042 296.16 263.875 299.327 259.968 299.327C256.062 299.327 252.895 296.16 252.895 292.253C252.895 288.347 256.062 285.18 259.968 285.18C263.875 285.18 267.042 288.347 267.042 292.253Z" stroke="#030712" stroke-width="2" stroke-linecap="round" stroke-linejoin="round"/>
<path d="M702.856 304.342C702.856 306.767 700.89 308.732 698.465 308.732C696.04 308.732 694.074 306.767 694.074 304.342C694.074 301.917 696.04 299.951 698.465 299.951C700.89 299.951 702.856 301.917 702.856 304.342Z" fill="#030712"/>
<path d="M391.41 414.476L392.402 414.197L391.41 414.476Z" fill="#0626A9" fill-opacity="0.8"/>
<path d="M467.774 375.439L433.853 427.252H443.475L451.787 414.344H472.706L474.101 427.252H483.723L477.568 375.439H467.781H467.774ZM456.696 406.404L469.875 386.038L472.052 406.404H456.696Z" fill="#0626A9" fill-opacity="0.8"/>
<path d="M500.127 375.439H490.506L496.66 427.252H504.952L503.966 416.43L500.127 375.439Z" fill="#0626A9" fill-opacity="0.8"/>
<path d="M530.756 375.439L507.61 412.328L508.673 423.861L540.377 375.439H530.756Z" fill="#84AAE4"/>
<path d="M569.364 397.188H561.166L559.039 405.127H567.237L569.364 397.188Z" fill="#0626A9" fill-opacity="0.8"/>
<path d="M574.653 383.379L576.781 375.439H547.324L533.441 427.252H562.898L565.025 419.312H544.186L547.987 405.127H554.928L557.056 397.187H550.114L553.814 383.379H574.653Z" fill="#0626A9" fill-opacity="0.8"/>
<path d="M392.387 413.906L390.068 375.49H381.307L384.69 426.995H393.242L408.089 401.215L407.545 388.363L392.379 413.906H392.387Z" fill="#0626A9" fill-opacity="0.8"/>
<path d="M444.187 375.488L421.207 413.911L418.869 382.821H411.184L413.549 426.993H422.115L452.949 375.488H444.187Z" fill="#0626A9" fill-opacity="0.8"/>
</g>
<path d="M1343.09 426.569H1143.91V364.289H1343.09V426.569Z" fill="#8869D5"/>
<path d="M1343.09 426.569H1143.91V364.289H1343.09V426.569Z" stroke="#0626A9" stroke-width="2" stroke-linecap="round" stroke-linejoin="round"/>
<path d="M1143.91 403.923V364.291L1288.16 381.276L1143.91 403.923Z" fill="#0626A9"/>
<path d="M1143.91 403.923V364.291L1288.16 381.276L1143.91 403.923Z" stroke="#0626A9" stroke-width="2" stroke-linecap="round" stroke-linejoin="round"/>
<mask id="mask6_40000009_5530" style="mask-type:luminance" maskUnits="userSpaceOnUse" x="320" y="142" width="1237" height="1237">
<path d="M320 142H1557V1379H320V142Z" fill="white"/>
</mask>
<g mask="url(#mask6_40000009_5530)">
<path d="M1288.16 381.276H873.277V318.996H1288.16V381.276Z" fill="white"/>
<path d="M1288.16 381.276H873.277V318.996H1288.16V381.276Z" stroke="#0626A9" stroke-width="2" stroke-linecap="round" stroke-linejoin="round"/>
<path d="M1248.75 350.135H974.252" stroke="#0626A9" stroke-width="2" stroke-linecap="round" stroke-linejoin="round"/>
<path d="M909.272 359.344L893.621 350.136L909.272 340.928" stroke="#0626A9" stroke-width="2" stroke-linecap="round" stroke-linejoin="round"/>
<path d="M947.277 359.344L962.928 350.136L947.277 340.928" stroke="#0626A9" stroke-width="2" stroke-linecap="round" stroke-linejoin="round"/>
<path d="M934.591 334.818L921.957 365.456Z" fill="white"/>
<path d="M934.591 334.818L921.957 365.456" stroke="#0626A9" stroke-width="2" stroke-linecap="round" stroke-linejoin="round"/>
</g>
<path d="M1330.29 377.839H1374.45V322.242H1345.46L1330.29 336.874V377.839Z" fill="white"/>
<path d="M1330.29 377.839H1374.45V322.242H1345.46L1330.29 336.874V377.839Z" stroke="#0626A9" stroke-width="2" stroke-linecap="round" stroke-linejoin="round"/>
<path d="M1330.29 336.874H1345.46V322.242L1330.29 336.874Z" fill="#8869D5"/>
<path d="M1330.29 336.874H1345.46V322.242L1330.29 336.874Z" stroke="#0626A9" stroke-width="2" stroke-linecap="round" stroke-linejoin="round"/>
</g>
<defs>
<clipPath id="clip0_40000009_5530">
<rect width="1520" height="480" fill="white"/>
</clipPath>
<clipPath id="clip1_40000009_5530">
<rect width="894" height="894" fill="white" transform="translate(116 -304)"/>
</clipPath>
</defs>
</svg>
