<svg width="1520" height="480" viewBox="0 0 1520 480" fill="none" xmlns="http://www.w3.org/2000/svg">
<g clip-path="url(#clip0_40000009_5530)">
<rect width="1520" height="480" fill="#E8ECFE"/>
<g clip-path="url(#clip1_40000009_5530)">
<mask id="mask0_40000009_5530" style="mask-type:luminance" maskUnits="userSpaceOnUse" x="149" y="-304" width="894" height="894">
<path d="M1043 -304H149V590H1043V-304Z" fill="white"/>
</mask>
<g mask="url(#mask0_40000009_5530)">
<mask id="mask1_40000009_5530" style="mask-type:luminance" maskUnits="userSpaceOnUse" x="149" y="-304" width="894" height="894">
<path d="M149 -304H1043V590H149V-304Z" fill="white"/>
</mask>
<g mask="url(#mask1_40000009_5530)">
<path d="M367.963 460.294L886.198 453.103L963.898 181.09C965.638 175.024 962.129 170.105 956.063 170.105H462.141C456.074 170.105 449.747 175.024 448.008 181.09L367.963 460.294Z" fill="#030712"/>
<path d="M367.963 460.295L886.198 453.103L963.898 181.09C965.638 175.024 962.129 170.105 956.063 170.105H462.141C456.074 170.105 449.747 175.024 448.008 181.09L367.963 460.295Z" stroke="#030712" stroke-width="2" stroke-linecap="round" stroke-linejoin="round"/>
<path d="M358.459 460.294H874.349L954.394 181.09C956.134 175.024 952.625 170.105 946.559 170.105H452.637C446.571 170.105 440.243 175.024 438.504 181.09L358.459 460.294Z" fill="#8869D5"/>
<path d="M358.459 460.295H874.349L954.394 181.09C956.134 175.024 952.625 170.105 946.559 170.105H452.637C446.571 170.105 440.243 175.024 438.504 181.09L358.459 460.295Z" stroke="#030712" stroke-width="2" stroke-linecap="round" stroke-linejoin="round"/>
<path d="M371.727 449.132L867.48 449.133L944.274 181.266H448.521L371.727 449.132Z" fill="white"/>
<path d="M371.727 449.132L867.48 449.133L944.274 181.266H448.521L371.727 449.132Z" stroke="#030712" stroke-width="2" stroke-linecap="round" stroke-linejoin="round"/>
<path d="M410.427 315.149C410.33 315.149 410.239 315.14 410.145 315.135L371.729 449.134H867.481L905.893 315.149H410.427Z" fill="white"/>
<path d="M410.427 315.149C410.33 315.149 410.239 315.14 410.145 315.135L371.729 449.134H867.481L905.893 315.149H410.427Z" stroke="#030712" stroke-width="2" stroke-linecap="round" stroke-linejoin="round"/>
<path d="M908.39 306.433L944.274 181.266H448.521L412.637 306.433H908.39Z" fill="white"/>
<path d="M908.39 306.433L944.274 181.266H448.521L412.637 306.433H908.39Z" stroke="#030712" stroke-width="2" stroke-linecap="round" stroke-linejoin="round"/>
<path d="M244.54 461.75H867.079L881.149 444.867H227.656C227.656 454.192 235.216 461.75 244.54 461.75Z" fill="#0626A9"/>
<path d="M244.54 461.75H867.079L881.149 444.867H227.656C227.656 454.192 235.216 461.75 244.54 461.75Z" stroke="#030712" stroke-width="2" stroke-linecap="round" stroke-linejoin="round"/>
<path d="M670.352 462.08H877.06C881.031 462.08 884.504 459.407 885.52 455.568L888.266 445.197H653.469C653.469 454.522 661.028 462.08 670.352 462.08Z" fill="#030712"/>
<path d="M670.352 462.08H877.06C881.031 462.08 884.504 459.407 885.52 455.568L888.266 445.197H653.469C653.469 454.522 661.028 462.08 670.352 462.08Z" stroke="#030712" stroke-width="2" stroke-linecap="round" stroke-linejoin="round"/>
<path d="M606.866 210.605C613.572 214.424 621.144 217.466 628.878 218.25C636.234 218.996 643.804 218.029 650.818 215.746C663.85 211.503 674.263 202.084 683.137 191.78C686.042 188.407 688.828 184.876 691.56 181.266H579.195C584.254 193.8 595.488 204.127 606.866 210.605Z" fill="white"/>
<path d="M606.866 210.605C613.572 214.424 621.144 217.466 628.878 218.25C636.234 218.996 643.804 218.029 650.818 215.746C663.85 211.503 674.263 202.084 683.137 191.78C686.042 188.407 688.828 184.876 691.56 181.266H579.195C584.254 193.8 595.488 204.127 606.866 210.605Z" stroke="#030712" stroke-width="2" stroke-linecap="round" stroke-linejoin="round"/>
<path d="M815.435 189.076C805.088 195.757 794.455 202.729 784.982 210.239C776.458 216.995 767.805 224.872 762.12 233.424C760.765 235.462 759.529 237.58 758.462 239.784C758.313 240.09 758.172 240.399 758.026 240.707C758.044 240.67 757.823 241.166 757.732 241.367C757.633 241.619 757.365 242.286 757.299 242.46C756.902 243.514 756.546 244.584 756.239 245.668C755.917 246.804 755.647 247.955 755.436 249.116C755.409 249.264 755.298 249.996 755.267 250.165C755.209 250.66 755.157 251.157 755.12 251.654C755.034 252.838 755.008 254.025 755.046 255.211C755.065 255.812 755.101 256.411 755.152 257.01C755.171 257.238 755.287 258.217 755.267 258.128C756.038 263.434 757.651 268.327 760.9 272.408C764.43 276.843 769.486 279.043 775.127 280.037C787.639 282.242 801.652 278.258 813.734 274.469C820.865 272.232 827.883 269.653 835.04 267.497C845.441 264.364 856.03 261.879 866.713 259.924C885.515 256.483 904.485 254.642 923.521 253.659L944.276 181.266H827.596C823.546 183.877 819.48 186.464 815.435 189.076Z" stroke="#030712" stroke-width="2" stroke-linecap="round" stroke-linejoin="round"/>
<path d="M674.054 229.853C674.054 233.086 671.433 235.706 668.201 235.706C664.968 235.706 662.348 233.086 662.348 229.853C662.348 226.62 664.968 224 668.201 224C671.433 224 674.054 226.62 674.054 229.853Z" fill="#8869D5"/>
<path d="M674.054 229.853C674.054 233.086 671.433 235.706 668.201 235.706C664.968 235.706 662.348 233.086 662.348 229.853C662.348 226.62 664.968 224 668.201 224C671.433 224 674.054 226.62 674.054 229.853Z" stroke="#030712" stroke-width="2" stroke-linecap="round" stroke-linejoin="round"/>
<path d="M636 253.702C636 253.702 701.141 236.688 728.997 270.672C757.922 305.962 710.4 340.115 699.878 324.088C689.907 308.902 730.814 291.86 744.906 322.691C756.554 348.176 733.191 372.154 733.191 372.154" stroke="#030712" stroke-width="2" stroke-linecap="round" stroke-linejoin="round"/>
<path d="M708.025 397.031L759.297 345.76" stroke="#030712" stroke-width="2" stroke-linecap="round" stroke-linejoin="round"/>
<path d="M710.376 397.03C710.376 398.328 709.324 399.38 708.026 399.38C706.728 399.38 705.676 398.328 705.676 397.03C705.676 395.732 706.728 394.68 708.026 394.68C709.324 394.68 710.376 395.732 710.376 397.03Z" fill="white"/>
<path d="M710.376 397.03C710.376 398.328 709.324 399.38 708.026 399.38C706.728 399.38 705.676 398.328 705.676 397.03C705.676 395.732 706.728 394.68 708.026 394.68C709.324 394.68 710.376 395.732 710.376 397.03Z" stroke="#030712" stroke-width="2" stroke-linecap="round" stroke-linejoin="round"/>
<path d="M761.646 345.758C761.646 347.056 760.594 348.109 759.295 348.109C757.997 348.109 756.945 347.056 756.945 345.758C756.945 344.46 757.997 343.408 759.295 343.408C760.594 343.408 761.646 344.46 761.646 345.758Z" fill="white"/>
<path d="M761.646 345.758C761.646 347.056 760.594 348.109 759.295 348.109C757.997 348.109 756.945 347.056 756.945 345.758C756.945 344.46 757.997 343.408 759.295 343.408C760.594 343.408 761.646 344.46 761.646 345.758Z" stroke="#030712" stroke-width="2" stroke-linecap="round" stroke-linejoin="round"/>
<path d="M731.335 373.673L739.068 394.813L749.801 397.588L759.054 388.33L756.284 377.589L735.155 369.851L731.335 373.673Z" fill="#8869D5"/>
<path d="M731.335 373.673L739.068 394.813L749.801 397.588L759.054 388.33L756.284 377.589L735.155 369.851L731.335 373.673Z" stroke="#030712" stroke-width="2" stroke-linecap="round" stroke-linejoin="round"/>
<path d="M733.238 371.77L745.896 384.421L733.238 371.77Z" fill="#8869D5"/>
<path d="M733.238 371.77L745.896 384.421" stroke="#030712" stroke-width="2" stroke-miterlimit="10" stroke-linecap="round"/>
<path d="M749.195 384.42C750.106 385.331 750.106 386.808 749.195 387.719C748.285 388.63 746.808 388.63 745.897 387.72C744.986 386.809 744.986 385.332 745.896 384.421C746.807 383.51 748.284 383.51 749.195 384.42Z" fill="#030712"/>
<path d="M749.195 384.42C750.106 385.331 750.106 386.808 749.195 387.719C748.285 388.63 746.808 388.63 745.897 387.72C744.986 386.809 744.986 385.332 745.896 384.421C746.807 383.51 748.284 383.51 749.195 384.42Z" stroke="#030712" stroke-width="2" stroke-linecap="round" stroke-linejoin="round"/>
<path d="M763.95 390.745L752.227 402.474L749.966 400.216C749.195 399.444 749.194 398.193 749.966 397.422L758.897 388.487C759.668 387.715 760.919 387.714 761.691 388.486L763.95 390.745Z" fill="#030712"/>
<path d="M763.95 390.745L752.227 402.474L749.966 400.216C749.195 399.444 749.194 398.193 749.966 397.422L758.897 388.487C759.668 387.715 760.919 387.714 761.691 388.486L763.95 390.745Z" stroke="#030712" stroke-width="2" stroke-linecap="round" stroke-linejoin="round"/>
</g>
<mask id="mask2_40000009_5530" style="mask-type:luminance" maskUnits="userSpaceOnUse" x="-152" y="-440" width="1106" height="1106">
<path d="M-152 -440H953.766V665.766H-152V-440Z" fill="white"/>
</mask>
<g mask="url(#mask2_40000009_5530)">
<path d="M342.478 136.856L227.535 136.481L227.888 28.3262L342.831 28.7008L342.478 136.856Z" fill="white"/>
<path d="M342.478 136.856L227.535 136.481L227.888 28.3262L342.831 28.7008L342.478 136.856Z" stroke="#030712" stroke-width="2" stroke-linecap="round" stroke-linejoin="round"/>
<mask id="mask3_40000009_5530" style="mask-type:alpha" maskUnits="userSpaceOnUse" x="226" y="27" width="118" height="111">
<path d="M342.478 136.856L227.535 136.481L227.888 28.3262L342.831 28.7008L342.478 136.856Z" fill="white"/>
<path d="M342.478 136.856L227.535 136.481L227.888 28.3262L342.831 28.7008L342.478 136.856Z" stroke="#202870" stroke-width="2" stroke-linecap="round" stroke-linejoin="round"/>
</mask>
<g mask="url(#mask3_40000009_5530)">
<mask id="mask4_40000009_5530" style="mask-type:luminance" maskUnits="userSpaceOnUse" x="-152" y="-440" width="1106" height="1106">
<path d="M-152 -440H953.766V665.766H-152V-440Z" fill="white"/>
</mask>
<g mask="url(#mask4_40000009_5530)">
<path d="M227.686 136.483L342.479 136.857L342.58 105.867L316.479 79.5951L293.325 102.598L259.044 68.0938L227.807 99.1278L227.686 136.483Z" fill="#0626A9"/>
<path d="M227.686 136.483L342.479 136.857L342.58 105.867L316.479 79.5951L293.325 102.598L259.044 68.0938L227.807 99.1278L227.686 136.483Z" stroke="#030712" stroke-width="2" stroke-linecap="round" stroke-linejoin="round"/>
<path d="M336.535 136.483L451.329 136.857L451.43 105.867L425.329 79.5951L402.175 102.598L367.894 68.0938L336.657 99.1278C336.657 99.1278 336.656 99.2625 336.655 99.5162" fill="#0626A9"/>
<path d="M336.535 136.483L451.329 136.857L451.43 105.867L425.329 79.5951L402.175 102.598L367.894 68.0938L336.657 99.1278C336.657 99.1278 336.656 99.2625 336.655 99.5162" stroke="#030712" stroke-width="2" stroke-linecap="round" stroke-linejoin="round"/>
<path d="M300.78 58.5504C300.77 61.6742 298.229 64.1988 295.105 64.1884C291.981 64.178 289.456 61.6368 289.467 58.5131C289.477 55.3893 292.018 52.8647 295.142 52.875C298.266 52.8854 300.791 55.4266 300.78 58.5504Z" fill="#030712"/>
<path d="M300.78 58.5504C300.77 61.6742 298.229 64.1988 295.105 64.1884C291.981 64.178 289.456 61.6368 289.467 58.5131C289.477 55.3893 292.018 52.8647 295.142 52.875C298.266 52.8854 300.791 55.4266 300.78 58.5504Z" stroke="#030712" stroke-width="2" stroke-linecap="round" stroke-linejoin="round"/>
</g>
</g>
<path d="M342.478 136.856L227.535 136.481L227.888 28.3262L342.831 28.7008L342.478 136.856Z" stroke="#030712" stroke-width="2" stroke-linecap="round" stroke-linejoin="round"/>
</g>
</g>
<path d="M186.099 113.05C186.099 118.6 181.6 123.099 176.05 123.099C170.499 123.099 166 118.6 166 113.05C166 107.499 170.499 103 176.05 103C181.6 103 186.099 107.499 186.099 113.05Z" fill="#0626A9"/>
<path d="M186.099 113.05C186.099 118.6 181.6 123.099 176.05 123.099C170.499 123.099 166 118.6 166 113.05C166 107.499 170.499 103 176.05 103C181.6 103 186.099 107.499 186.099 113.05Z" stroke="#030712" stroke-width="2" stroke-linecap="round" stroke-linejoin="round"/>
<path d="M300.042 292.253C300.042 296.16 296.875 299.327 292.968 299.327C289.062 299.327 285.895 296.16 285.895 292.253C285.895 288.347 289.062 285.18 292.968 285.18C296.875 285.18 300.042 288.347 300.042 292.253Z" fill="#8869D5"/>
<path d="M300.042 292.253C300.042 296.16 296.875 299.327 292.968 299.327C289.062 299.327 285.895 296.16 285.895 292.253C285.895 288.347 289.062 285.18 292.968 285.18C296.875 285.18 300.042 288.347 300.042 292.253Z" stroke="#030712" stroke-width="2" stroke-linecap="round" stroke-linejoin="round"/>
<path d="M735.856 304.342C735.856 306.767 733.89 308.732 731.465 308.732C729.04 308.732 727.074 306.767 727.074 304.342C727.074 301.917 729.04 299.951 731.465 299.951C733.89 299.951 735.856 301.917 735.856 304.342Z" fill="#030712"/>
<g clip-path="url(#clip2_40000009_5530)">
<path d="M422.73 412.842L423.691 412.568L422.73 412.842Z" fill="#0626A9"/>
<path d="M496.599 375L463.766 425.228H473.069L481.113 412.715H501.338L502.677 425.228H511.979L506.064 375H496.597H496.599ZM485.863 405.017L498.619 385.272L500.713 405.017H485.863Z" fill="#0626A9"/>
<path d="M527.881 375H518.58L524.497 425.228H532.515L531.563 414.736L527.881 375Z" fill="#0626A9"/>
<path d="M557.495 375L535.089 410.756L536.111 421.942L566.796 375H557.495Z" fill="#32D430"/>
<path d="M594.813 396.08H586.885L584.822 403.778H592.75L594.813 396.08Z" fill="#0626A9"/>
<path d="M599.937 382.697L601.999 375H573.514L560.055 425.228H588.541L590.604 417.53H570.453L574.138 403.776H580.848L582.91 396.079H576.2L579.786 382.697H599.937Z" fill="#0626A9"/>
<path d="M423.675 412.285L421.457 375.051H412.986L416.225 424.977H424.497L438.866 399.986L438.352 387.525L423.674 412.287L423.675 412.285ZM422.731 412.842L423.692 412.568L422.729 412.842H422.731Z" fill="#0626A9"/>
<path d="M473.788 375.051L451.541 412.295L449.299 382.159H441.869L444.132 424.977H452.411L482.261 375.051H473.788Z" fill="#0626A9"/>
</g>
<g clip-path="url(#clip3_40000009_5530)">
<path d="M551.568 244.581C553.506 244.581 555.535 243.08 556.101 241.229C556.667 239.378 555.555 237.877 553.618 237.877C551.68 237.877 549.651 239.378 549.085 241.229C548.519 243.08 549.631 244.581 551.568 244.581Z" fill="#DEE1E3" stroke="#455564" stroke-miterlimit="10"/>
<path d="M658.357 186.615H479.307L445.975 295.638H625.025L658.357 186.615Z" fill="#455564" stroke="#455564" stroke-width="2.4"/>
<mask id="mask5_40000009_5530" style="mask-type:luminance" maskUnits="userSpaceOnUse" x="444" y="238" width="200" height="59">
<path d="M643.796 238.396H462.326L444.49 296.736H625.96L643.796 238.396Z" fill="white"/>
</mask>
<g mask="url(#mask5_40000009_5530)">
<path d="M441.735 242.037C441.735 242.037 450.955 258.276 489.396 257.785H491.059C524.238 257.785 561.057 248.943 584.734 247.18C590.232 246.804 595.729 246.631 601.202 246.833C637.008 248.134 656.474 260.934 656.474 260.934L644.283 300.81H423.766L441.744 242.008L441.735 242.037Z" fill="#CDF3C3"/>
<path d="M601.743 242.788C566.114 242.788 532.797 256.397 492.808 254.635C476.657 253.941 465.601 250.04 458.053 246.14C448.515 241.227 444.661 236.026 443.943 234.812L442.486 239.58C442.486 239.58 445.385 246.024 456.241 250.878C463.448 254.115 474.311 256.571 489.677 256.369H491.189C524.126 256.369 558.968 248.653 584.332 245.822C590.09 245.388 595.829 245.215 601.574 245.417C637.35 246.717 656.936 259.518 656.936 259.518L657.405 257.987L659.03 252.67C659.03 252.67 637.985 242.759 601.752 242.759" fill="#CDF3C3"/>
</g>
<path d="M625.21 263.275H584.379L576.781 288.126H617.612L625.21 263.275Z" fill="white"/>
<path d="M485.04 232.763L490.02 231.809C490.63 231.693 492.191 231.433 492.474 232.387C492.664 233.051 491.993 234.554 491.331 235.334C490.325 236.548 488.842 236.75 488.011 236.895L485.93 237.27L484.432 240.391L481.11 240.969L485.04 232.763ZM486.649 235.71C487.869 235.479 488.211 235.45 488.601 234.67L488.859 234.121C489.311 233.138 488.705 233.34 487.705 233.543L486.641 235.739L486.649 235.71Z" fill="white"/>
<path d="M492.87 239.004C492.226 239.032 491.402 238.859 491.091 238.195C490.937 237.906 490.945 237.385 491.204 236.836L492.488 234.12C493.829 231.317 495.571 230.566 497.881 230.133L498.681 229.988C499.421 229.844 500.774 229.67 501.287 230.566C501.646 231.173 501.373 231.866 500.918 232.762L499.761 235.16C499.113 236.49 498.203 237.588 496.5 238.31C495.807 238.599 493.263 239.004 492.9 239.004M496.085 233.138L494.666 235.998C494.294 236.721 494.158 237.068 494.316 237.241C494.454 237.385 494.856 237.357 495.142 237.212C495.606 236.981 495.728 236.779 496.192 235.854L497.629 232.936C497.944 232.3 498.137 231.866 498 231.722C497.854 231.606 497.313 231.693 497.144 231.751C496.611 232.011 496.462 232.3 496.055 233.138" fill="white"/>
<path d="M505.576 228.803L504.318 233.513L507.886 228.369L511.066 227.763L509.772 232.588L513.407 227.329L515.116 226.982L508.815 236.113L505.333 236.72L506.392 232.762L503.452 237.038L500 237.645L502.197 229.467L505.576 228.803Z" fill="white"/>
<path d="M515.246 226.953L522.475 225.566L521.773 227.069L517.914 227.82L517.038 229.698L519.668 229.207L518.922 230.854L516.271 231.317L515.245 233.484L519.047 232.819L518.272 234.466L511.147 235.709L515.246 226.953Z" fill="white"/>
<path d="M523.046 225.48L528.415 224.44C530.245 224.093 530.464 224.267 530.636 224.989C530.741 225.538 530.157 226.954 529.764 227.445C529.142 228.196 528.452 228.572 527.725 228.774C528.085 229.179 528 229.554 527.858 230.219L527.317 232.877L523.965 233.455L524.456 231.057C524.711 229.728 524.724 229.786 524.014 229.93L522.204 233.773L518.882 234.351L523.016 225.48H523.046ZM524.781 228.312C526.352 228.023 526.394 228.081 526.837 227.127C527.337 226.087 526.938 226.203 525.658 226.434L524.781 228.312Z" fill="white"/>
<path d="M498.03 240.823L503.143 239.927C503.944 239.783 505.021 239.523 505.483 240.187C505.86 240.736 505.527 241.43 505.185 242.152L503.787 245.042C502.684 247.267 501.898 247.758 499.416 248.162L494.109 249L498.03 240.823ZM498.097 247.036H498.278C499.559 246.804 499.623 246.891 500.232 245.591L501.647 242.643C502.266 241.314 502.196 241.343 500.725 241.603L498.136 247.007L498.097 247.036Z" fill="#CDF3C3"/>
<path d="M507.334 239.177L512.677 238.224C514.498 237.906 514.717 238.079 514.898 238.773C515.011 239.293 514.454 240.622 514.07 241.084C513.465 241.778 512.784 242.124 512.057 242.327C512.426 242.702 512.342 243.078 512.217 243.685L511.729 246.17L508.394 246.69L508.841 244.436C509.07 243.194 509.083 243.251 508.382 243.367L506.651 246.95L503.347 247.47L507.313 239.148H507.343L507.334 239.177ZM509.114 241.864C510.675 241.604 510.727 241.633 511.152 240.738C511.634 239.755 511.235 239.871 509.964 240.073L509.122 241.836L509.114 241.864Z" fill="#CDF3C3"/>
<path d="M516.35 237.588L519.672 237.01L515.636 245.563L512.332 246.083L516.35 237.588Z" fill="#CDF3C3"/>
<path d="M520.662 236.835L524.114 236.229L524.595 241.285L527.216 235.68L528.907 235.391L524.796 244.088L521.042 244.695L520.602 240.101L518.248 245.128L516.596 245.388L520.662 236.835Z" fill="#CDF3C3"/>
<path d="M529.769 235.247L533.13 234.64L531.53 237.992L536.712 234.005L538.913 233.629L534.713 236.981L533.958 242.615L530.614 243.164L530.986 239.87L530.452 240.333L528.992 243.424L525.688 243.945L529.769 235.247Z" fill="#CDF3C3"/>
<path d="M546.784 194.822H525.643L523.487 201.873H544.628L546.784 194.822Z" fill="#CDF3C3"/>
<path d="M532.503 232.04L540.17 230.999C543.646 219.037 536.495 209.386 524.034 209.386C511.573 209.386 520.645 209.588 518.997 209.935L523.617 194.822H516.268L507.857 222.331C511.787 218.777 516.91 216.465 521.9 216.465C530.399 216.465 535.263 223.111 532.754 231.317L532.542 232.011L532.503 232.04Z" fill="#CDF3C3"/>
<path fill-rule="evenodd" clip-rule="evenodd" d="M493.187 224.412C493.09 224.73 492.739 224.99 492.406 224.99C492.073 224.99 491.88 224.73 491.978 224.412C492.075 224.094 492.427 223.834 492.759 223.834C493.092 223.834 493.285 224.094 493.187 224.412Z" fill="#CDF3C3"/>
<path fill-rule="evenodd" clip-rule="evenodd" d="M486.853 245.129C486.764 245.418 486.443 245.678 486.11 245.678C485.777 245.678 485.606 245.447 485.703 245.129C485.8 244.811 486.113 244.58 486.446 244.58C486.778 244.58 486.95 244.811 486.853 245.129Z" fill="#CDF3C3"/>
<path fill-rule="evenodd" clip-rule="evenodd" d="M496.462 227.157C496.321 227.619 495.821 227.966 495.368 227.966C494.914 227.966 494.636 227.59 494.768 227.157C494.901 226.723 495.409 226.348 495.862 226.348C496.316 226.348 496.594 226.723 496.462 227.157Z" fill="#CDF3C3"/>
<path fill-rule="evenodd" clip-rule="evenodd" d="M489.207 249.002C489.022 249.609 488.357 250.1 487.722 250.1C487.087 250.1 486.723 249.609 486.908 249.002C487.094 248.396 487.758 247.904 488.393 247.904C489.029 247.904 489.393 248.396 489.207 249.002Z" fill="#CDF3C3"/>
<path fill-rule="evenodd" clip-rule="evenodd" d="M492.746 243.165C492.596 243.657 492.049 244.061 491.534 244.061C491.02 244.061 490.72 243.657 490.871 243.165C491.021 242.674 491.568 242.27 492.082 242.27C492.596 242.27 492.896 242.674 492.746 243.165Z" fill="#CDF3C3"/>
<path fill-rule="evenodd" clip-rule="evenodd" d="M497.724 221.147C497.635 221.436 497.314 221.696 496.981 221.696C496.648 221.696 496.477 221.465 496.574 221.147C496.672 220.829 496.984 220.598 497.317 220.598C497.65 220.598 497.821 220.829 497.724 221.147Z" fill="#CDF3C3"/>
<path d="M477.538 281.133C475.723 281.133 473.847 282.52 473.326 284.225C472.805 285.929 473.147 285.207 473.256 285.641L473.239 285.698H474.66L474.54 285.496C474.353 285.12 474.334 284.687 474.476 284.225C474.82 283.098 476.071 282.173 477.22 282.173C478.369 282.173 479.054 283.098 478.71 284.225C478.365 285.352 478.276 285.149 477.867 285.496L477.624 285.698H479.015L479.033 285.641C479.438 285.207 479.709 284.716 479.859 284.225C480.38 282.52 479.322 281.133 477.538 281.133Z" fill="#455564"/>
<path d="M477.689 280.642C478.929 280.642 480.242 280.007 481.104 278.966L481.248 278.793H479.917L479.9 278.851C479.326 279.342 478.633 279.631 477.968 279.631C477.302 279.631 476.816 279.342 476.543 278.851L476.56 278.793H475.199L475.237 278.966C475.494 280.007 476.418 280.642 477.628 280.642H477.689Z" fill="#455564"/>
<path d="M469.732 278.764H465.619L463.49 285.727H464.549L465.467 282.722H467.645L467.954 281.711H465.777L466.369 279.775H469.423L469.732 278.764Z" fill="#455564"/>
<path d="M470.048 284.658L471.851 278.764H470.762L468.642 285.699H472.089L472.407 284.658H470.048Z" fill="#455564"/>
<path d="M485.61 282.231L485.596 280.497L483.426 283.936L483.283 278.764H482.104L482.312 285.699H483.461L485.58 282.231H485.61ZM483.417 283.965H483.296C483.287 283.994 483.417 283.965 483.417 283.965Z" fill="#455564"/>
<path d="M490.632 278.764L487.326 283.936L487.156 279.746H486.127L486.213 285.699H487.393L491.811 278.764H490.632Z" fill="#455564"/>
<path d="M460.975 281.393H460.884L461.569 279.746H463.263L463.563 278.764H460.932L459.443 282.347H460.471C461.893 282.347 461.753 283.3 461.656 283.618C461.444 284.312 460.71 284.832 459.954 284.832C459.198 284.832 458.957 284.629 458.584 284.167L458.456 283.994L458.058 285.294H458.119C458.35 285.525 458.858 285.843 459.675 285.843C461.096 285.843 462.338 284.947 462.744 283.618C463.151 282.289 462.457 281.393 460.975 281.393Z" fill="#455564"/>
<path d="M465.106 278.764H464.078L463.778 279.746H464.806L465.106 278.764Z" fill="#455564"/>
<path d="M621.627 203.172H577.076" stroke="#CDF3C3" stroke-width="2" stroke-linecap="round" stroke-linejoin="round"/>
<path d="M638.294 210.686H574.779" stroke="#CDF3C3" stroke-width="2" stroke-linecap="round" stroke-linejoin="round"/>
<path d="M636.2 217.533H572.686" stroke="#CDF3C3" stroke-width="2" stroke-linecap="round" stroke-linejoin="round"/>
<path d="M633.805 225.363H570.291" stroke="#CDF3C3" stroke-width="2" stroke-linecap="round" stroke-linejoin="round"/>
<path d="M595.119 233.195H567.898" stroke="#CDF3C3" stroke-width="2" stroke-linecap="round" stroke-linejoin="round"/>
<path d="M633.912 195.342H579.471" stroke="#CDF3C3" stroke-width="2" stroke-linecap="round" stroke-linejoin="round"/>
<path d="M574.041 263.854H546.82" stroke="#415463" stroke-linecap="round" stroke-linejoin="round"/>
<path d="M572.539 268.766H545.318" stroke="#415463" stroke-linecap="round" stroke-linejoin="round"/>
<path d="M571.045 273.648H543.824" stroke="#415463" stroke-linecap="round" stroke-linejoin="round"/>
<path d="M553.69 285.9H540.08" stroke="#415463" stroke-linecap="round" stroke-linejoin="round"/>
<path d="M609.311 266.512L605.335 279.515" stroke="black" stroke-width="2" stroke-linecap="round" stroke-linejoin="round"/>
<path d="M591.012 266.512L587.036 279.515" stroke="black" stroke-width="3" stroke-linecap="round" stroke-linejoin="round"/>
<path d="M593.039 266.512L589.064 279.515" stroke="black" stroke-width="3" stroke-linecap="round" stroke-linejoin="round"/>
<path d="M595.367 266.512L591.392 279.515" stroke="black" stroke-width="3" stroke-linecap="round" stroke-linejoin="round"/>
<path d="M597.395 266.512L593.419 279.515" stroke="black" stroke-width="3" stroke-linecap="round" stroke-linejoin="round"/>
<path d="M599.572 266.512L595.597 279.515" stroke="black" stroke-width="3" stroke-linecap="round" stroke-linejoin="round"/>
<path d="M607.254 266.512L603.278 279.515" stroke="black" stroke-width="3" stroke-linecap="round" stroke-linejoin="round"/>
<path d="M611.609 266.512L607.634 279.515" stroke="black" stroke-width="3" stroke-linecap="round" stroke-linejoin="round"/>
<path d="M613.666 266.512L609.691 279.515" stroke="black" stroke-width="3" stroke-linecap="round" stroke-linejoin="round"/>
<path d="M615.844 266.512L611.868 279.515" stroke="black" stroke-width="3" stroke-linecap="round" stroke-linejoin="round"/>
<path d="M588.826 266.541L583.526 283.878" stroke="black" stroke-width="3" stroke-linecap="round" stroke-linejoin="round"/>
<path d="M586.254 266.541L580.953 283.878" stroke="black" stroke-width="3" stroke-linecap="round" stroke-linejoin="round"/>
<path d="M604.977 266.541L599.676 283.878" stroke="black" stroke-width="3" stroke-linecap="round" stroke-linejoin="round"/>
<path d="M602.406 266.541L597.106 283.878" stroke="black" stroke-width="3" stroke-linecap="round" stroke-linejoin="round"/>
<path d="M621.248 266.541L615.948 283.878" stroke="black" stroke-width="3" stroke-linecap="round" stroke-linejoin="round"/>
<path d="M618.678 266.541L613.377 283.878" stroke="black" stroke-width="3" stroke-linecap="round" stroke-linejoin="round"/>
<path d="M462.669 273.88H463.697C463.818 273.88 464.151 273.88 464.201 274.112C464.247 274.256 464.06 274.574 463.955 274.718C463.733 274.95 463.431 274.95 463.279 274.95H462.856L462.541 275.585H461.845L462.677 273.852L462.669 273.88ZM462.983 274.632C463.225 274.632 463.316 274.632 463.39 274.487L463.426 274.372C463.548 274.169 463.418 274.198 463.207 274.198L462.975 274.661L462.983 274.632Z" fill="#455564"/>
<path d="M464.315 275.614C464.164 275.614 464.009 275.527 463.941 275.354C463.898 275.296 463.912 275.152 463.969 275.065L464.228 274.516C464.525 273.938 464.854 273.852 465.338 273.852H465.489C465.641 273.852 465.913 273.852 466.024 274.083C466.1 274.227 466.026 274.372 465.943 274.545L465.702 275.036C465.562 275.296 465.379 275.499 465.011 275.614C464.881 275.643 464.346 275.614 464.285 275.614M464.98 274.429L464.682 275.007C464.638 275.152 464.612 275.239 464.603 275.267C464.594 275.296 464.706 275.325 464.784 275.267C464.884 275.239 464.901 275.181 465.015 275.007L465.313 274.429C465.348 274.314 465.383 274.198 465.392 274.169C465.401 274.141 465.25 274.141 465.211 274.169C465.111 274.198 465.063 274.256 464.98 274.429Z" fill="#455564"/>
<path d="M466.963 273.881L466.693 274.863L467.447 273.881H468.082L467.812 274.863L468.566 273.881H468.929L467.622 275.586H466.926L467.143 274.777L466.533 275.586H465.807L466.268 273.881H466.963Z" fill="#455564"/>
<path d="M468.99 273.881H470.472L470.323 274.17H469.537L469.361 274.545H469.906L469.748 274.863H469.204L468.989 275.268H469.776L469.618 275.586H468.166L468.99 273.881Z" fill="#455564"/>
<path d="M470.623 273.881H471.712C472.074 273.881 472.117 273.939 472.164 274.083C472.189 274.199 472.04 274.488 472.014 274.574C471.879 274.719 471.749 274.748 471.589 274.777C471.653 274.863 471.657 274.95 471.613 275.094L471.514 275.615H470.819L470.908 275.123C470.957 274.863 470.988 274.863 470.806 274.863L470.425 275.615H469.73L470.562 273.881H470.623ZM470.994 274.545C471.216 274.545 471.355 274.488 471.41 274.372C471.502 274.17 471.442 274.17 471.17 274.17L470.994 274.545Z" fill="#455564"/>
<path d="M472.498 273.881H473.98L473.831 274.17H473.045L472.869 274.545H473.414L473.256 274.863H472.712L472.527 275.268H473.284L473.156 275.586H471.674L472.498 273.881Z" fill="#455564"/>
<path d="M474.132 273.881H475.19C475.341 273.881 475.583 273.881 475.66 274.025C475.737 274.17 475.662 274.314 475.588 274.459L475.282 275.066C475.049 275.528 474.872 275.615 474.358 275.615H473.269L474.101 273.881H474.132ZM474.152 275.297H474.183C474.364 275.297 474.498 275.22 474.586 275.066L474.892 274.459C475.041 274.17 475.002 274.199 474.7 274.199L474.143 275.326L474.152 275.297Z" fill="#455564"/>
<path d="M477.731 273.88C477.882 273.88 478.064 273.88 478.132 274.054C478.187 274.169 478.113 274.314 478.017 274.429C477.873 274.603 477.674 274.661 477.514 274.69C477.626 274.718 477.669 274.776 477.694 274.892C477.719 275.007 477.588 275.239 477.492 275.354C477.27 275.585 476.968 275.585 476.786 275.585H475.667L476.5 273.852H477.74L477.731 273.88ZM476.602 275.296C476.754 275.296 476.875 275.296 476.931 275.21C476.931 275.21 477.08 274.921 477.059 274.892C477.046 274.834 476.986 274.834 476.804 274.834L476.572 275.296H476.602ZM476.962 274.516C477.174 274.516 477.234 274.516 477.321 274.429C477.321 274.429 477.435 274.256 477.383 274.227C477.37 274.169 477.28 274.169 477.128 274.169L476.953 274.545L476.962 274.516Z" fill="#455564"/>
<path d="M478.336 273.881H479.001L478.98 274.545L479.636 273.881H480.03L478.908 274.979L478.631 275.586H477.936L478.278 274.863L478.336 273.881Z" fill="#455564"/>
</g>
</g>
<path d="M1345.09 377.569H1145.91V315.289H1345.09V377.569Z" fill="#8869D5"/>
<path d="M1345.09 377.569H1145.91V315.289H1345.09V377.569Z" stroke="#0626A9" stroke-width="2" stroke-linecap="round" stroke-linejoin="round"/>
<path d="M1145.91 354.923V315.291L1290.16 332.276L1145.91 354.923Z" fill="#0626A9"/>
<path d="M1145.91 354.923V315.291L1290.16 332.276L1145.91 354.923Z" stroke="#0626A9" stroke-width="2" stroke-linecap="round" stroke-linejoin="round"/>
<mask id="mask6_40000009_5530" style="mask-type:luminance" maskUnits="userSpaceOnUse" x="322" y="93" width="1237" height="1237">
<path d="M322 93H1559V1330H322V93Z" fill="white"/>
</mask>
<g mask="url(#mask6_40000009_5530)">
<path d="M1290.16 332.276H875.277V269.996H1290.16V332.276Z" fill="white"/>
<path d="M1290.16 332.276H875.277V269.996H1290.16V332.276Z" stroke="#0626A9" stroke-width="2" stroke-linecap="round" stroke-linejoin="round"/>
<path d="M1250.75 301.135H976.252" stroke="#0626A9" stroke-width="2" stroke-linecap="round" stroke-linejoin="round"/>
<path d="M911.272 310.344L895.621 301.136L911.272 291.928" stroke="#0626A9" stroke-width="2" stroke-linecap="round" stroke-linejoin="round"/>
<path d="M949.277 310.344L964.928 301.136L949.277 291.928" stroke="#0626A9" stroke-width="2" stroke-linecap="round" stroke-linejoin="round"/>
<path d="M936.591 285.818L923.957 316.456L936.591 285.818Z" fill="white"/>
<path d="M936.591 285.818L923.957 316.456" stroke="#0626A9" stroke-width="2" stroke-linecap="round" stroke-linejoin="round"/>
</g>
<path d="M1332.29 328.839H1376.45V273.242H1347.46L1332.29 287.874V328.839Z" fill="white"/>
<path d="M1332.29 328.839H1376.45V273.242H1347.46L1332.29 287.874V328.839Z" stroke="#0626A9" stroke-width="2" stroke-linecap="round" stroke-linejoin="round"/>
<path d="M1332.29 287.874H1347.46V273.242L1332.29 287.874Z" fill="#8869D5"/>
<path d="M1332.29 287.874H1347.46V273.242L1332.29 287.874Z" stroke="#0626A9" stroke-width="2" stroke-linecap="round" stroke-linejoin="round"/>
</g>
<defs>
<clipPath id="clip0_40000009_5530">
<rect width="1520" height="480" fill="white"/>
</clipPath>
<clipPath id="clip1_40000009_5530">
<rect width="894" height="894" fill="white" transform="translate(149 -304)"/>
</clipPath>
<clipPath id="clip2_40000009_5530">
<rect width="189" height="52" fill="white" transform="matrix(1 0 -0.258819 0.965926 413 375)"/>
</clipPath>
<clipPath id="clip3_40000009_5530">
<rect width="220.546" height="141.833" fill="white" transform="matrix(1 0 -0.292372 0.956305 482.469 175)"/>
</clipPath>
</defs>
</svg>
