<svg width="292" height="80" viewBox="0 0 292 80" fill="none" xmlns="http://www.w3.org/2000/svg">
<path d="M30.6489 60.2747L32.0171 59.8438L30.6489 60.2747Z" fill="#0626A9"/>
<path d="M128.94 0L99.0562 80H113.406L120.645 60.07H151.844L159.083 80H173.433L143.548 0H128.951H128.94ZM124.793 47.8104L136.309 16.3641L147.696 47.8104H124.793Z" fill="#0626A9"/>
<path d="M177.194 0H162.844L192.728 80H205.096L199.3 63.2911L177.194 0Z" fill="#0626A9"/>
<path d="M222.872 0L203.093 56.9566L209.288 74.7643L237.222 0H222.872Z" fill="#84AAE4"/>
<path d="M289.146 33.5781H276.918V45.8378H289.146V33.5781Z" fill="#0626A9"/>
<path d="M291.517 12.2596V0H247.584V80H291.517V67.7404H260.437V45.8389H270.789V33.5793H260.437V12.2596H291.517Z" fill="#0626A9"/>
<path d="M31.8772 59.3931L13.0676 0.0771484H0L25.6289 79.6031H38.3841L50.2235 39.797L44.2769 19.9533L31.8664 59.3931H31.8772Z" fill="#0626A9"/>
<path d="M93.7797 0.0742188L74.8624 59.4009L58.9507 11.3966H47.4883L68.6679 79.6002H81.4446L106.847 0.0742188H93.7797Z" fill="#0626A9"/>
</svg>
