<svg width="288" height="34" viewBox="0 0 288 34" fill="none" xmlns="http://www.w3.org/2000/svg">
<path d="M148.238 6.80242C146.467 5.41678 143.886 4.2666 141.155 4.2666C137.614 4.2666 135.463 6.08243 135.463 8.81297C135.463 10.4884 136.419 11.8288 138.479 13.1193L144.126 16.6604C148.142 19.1962 149.628 21.637 149.628 25.0332C149.628 29.6746 146.232 33.8859 139.344 33.8859C136.043 33.8859 133.222 32.8806 131.356 31.9252V27.0935C133.077 28.529 135.853 30.0142 139.249 30.0142C143.17 30.0142 145.276 27.7637 145.276 25.2324C145.276 23.5117 144.126 21.9313 141.735 20.446L136.138 16.905C132.407 14.6091 131.066 12.1684 131.066 8.91712C131.066 4.75565 133.888 0.399475 141.255 0.399475C144.076 0.399475 146.517 1.16475 148.238 2.17002V6.81148V6.80242Z" fill="#84AAE4"/>
<path d="M161.202 4.79175H152.494V0.870285H173.926V4.79175H165.314V33.4012H161.197V4.79175H161.202Z" fill="#84AAE4"/>
<path d="M202.246 0.870285V21.7772C202.246 29.1945 197.7 33.8812 190.477 33.8812C183.254 33.8812 178.658 29.1945 178.658 21.7772V0.870285H182.774V22.0625C182.774 26.704 185.79 29.8602 190.477 29.8602C195.164 29.8602 198.13 26.704 198.13 22.0625V0.870285H202.246Z" fill="#84AAE4"/>
<path d="M210.334 0.870285H221.818C231.531 0.870285 237.703 7.61738 237.703 17.1358C237.703 26.6541 231.531 33.4012 221.818 33.4012H210.334V0.870285ZM214.45 4.79175V29.4798H221.772C229.045 29.4798 233.446 24.2632 233.446 17.1358C233.446 10.0083 229.045 4.79175 221.772 4.79175H214.45Z" fill="#84AAE4"/>
<path d="M244.055 0.870285H248.171V33.4012H244.055V0.870285Z" fill="#84AAE4"/>
<path d="M271.179 0.390305C280.702 0.390305 287.925 7.61286 287.925 17.1358C287.925 26.6587 280.702 33.8812 271.179 33.8812C261.656 33.8812 254.434 26.6587 254.434 17.1358C254.434 7.61286 261.661 0.390305 271.179 0.390305ZM271.179 29.8149C278.307 29.8149 283.668 24.2632 283.668 17.1358C283.668 10.0083 278.311 4.45667 271.179 4.45667C264.047 4.45667 258.74 10.0536 258.74 17.1358C258.74 24.218 264.097 29.8149 271.179 29.8149Z" fill="#84AAE4"/>
<path d="M12.8828 25.4497L13.4579 25.2685L12.8828 25.4497Z" fill="#0626A9"/>
<path d="M54.1981 0.11409L41.6367 33.7409H47.6683L50.7113 25.3636H63.8251L66.8681 33.7409H72.8998L60.3384 0.11409H54.2026H54.1981ZM52.4547 20.2105L57.2954 6.9925L62.0818 20.2105H52.4547Z" fill="#0626A9"/>
<path d="M74.4808 0.11409H68.4492L81.0106 33.7409H86.209L83.7728 26.7176L74.4808 0.11409Z" fill="#0626A9"/>
<path d="M93.6811 0.11409L85.3672 24.055L87.9709 31.5402L99.7127 0.11409H93.6811Z" fill="#84AAE4"/>
<path d="M121.538 14.2286H116.398V19.3818H121.538V14.2286Z" fill="#0626A9"/>
<path d="M122.535 5.26724V0.11409H104.068V33.7409H122.535V28.5877H109.471V19.3818H113.822V14.2287H109.471V5.26724H122.535Z" fill="#0626A9"/>
<path d="M13.3991 25.0786L5.49277 0.146011H0L10.7727 33.5736H16.1342L21.1107 16.8417L18.6111 8.50063L13.3946 25.0786H13.3991Z" fill="#0626A9"/>
<path d="M39.4188 0.145798L31.4672 25.0829L24.779 4.90499H19.9609L28.8635 33.5733H34.234L44.9116 0.145798H39.4188Z" fill="#0626A9"/>
</svg>
