<svg width="123" height="34" viewBox="0 0 123 34" fill="none" xmlns="http://www.w3.org/2000/svg">
<g clip-path="url(#clip0_28_1184)">
<path d="M12.9316 25.6156L13.5096 25.4307L12.9316 25.6156Z" fill="#0626A9"/>
<path d="M54.4053 0L41.7969 34H47.851L50.904 25.5299H64.0666L67.1196 34H73.1737L60.5653 0H54.4042H54.4053ZM52.653 20.3188L57.5112 6.95321L62.3176 20.3188H52.653Z" fill="#0626A9"/>
<path d="M74.764 0H68.7109L81.3204 34H86.5384L84.0893 26.8977L74.764 0Z" fill="#0626A9"/>
<path d="M94.037 0L85.6904 24.2035L88.3059 31.7758L100.09 0H94.037Z" fill="#32D430"/>
<path d="M121.998 14.2686H116.839V19.4797H121.998V14.2686Z" fill="#0626A9"/>
<path d="M123 5.21001V0H104.462V34H123V28.7889H109.886V19.4788H114.253V14.2688H109.886V5.21001H123Z" fill="#0626A9"/>
<path d="M13.4489 25.2392L5.51288 0.034668H0L10.814 33.8301H16.1973L21.1905 16.9139L18.6831 8.47863L13.4489 25.2403V25.2392ZM12.9314 25.6157L13.5094 25.4308L12.9304 25.6157H12.9314Z" fill="#0626A9"/>
<path d="M39.5684 0.0336914L31.5849 25.2448L24.8707 4.84544H20.0352L28.9748 33.8291H34.3624L45.0824 0.0336914H39.5684Z" fill="#0626A9"/>
</g>
<defs>
<clipPath id="clip0_28_1184">
<rect width="123" height="34" fill="white"/>
</clipPath>
</defs>
</svg>
