<svg width="22" height="25" viewBox="0 0 22 25" fill="none" xmlns="http://www.w3.org/2000/svg">
<g clip-path="url(#clip0_313_751)">
<path d="M10.999 8.70142C4.93473 8.70142 0 13.4923 0 19.3812C0 21.0993 0.412563 22.7424 1.22567 24.2689L1.34984 24.5H5.99818L5.43541 23.7969C4.41602 22.5271 3.87929 20.9986 3.87929 19.3793C3.87929 15.4691 7.07365 12.2877 11.003 12.2877C14.9324 12.2877 18.0927 15.4691 18.0927 19.3793C18.0927 21.0006 17.5579 22.5291 16.5486 23.7969L15.9898 24.498H20.6542L20.7783 24.267C21.5914 22.7404 22.004 21.0954 22.004 19.3793C22.004 13.4904 17.0693 8.70142 11.005 8.70142H10.999Z" fill="white"/>
<path d="M10.999 6.92607C15.1246 6.92607 18.8697 4.70637 20.7723 1.13589L21.1108 0.5H16.6747L16.5426 0.665885C15.1907 2.36423 13.17 3.33782 10.999 3.33782C8.82804 3.33782 6.79526 2.36423 5.43341 0.66391L5.30123 0.5H0.887207L1.22567 1.13589C3.12826 4.70834 6.87337 6.92607 10.999 6.92607Z" fill="white"/>
</g>
<defs>
<clipPath id="clip0_313_751">
<rect width="22" height="24" fill="white" transform="translate(0 0.5)"/>
</clipPath>
</defs>
</svg>
