<svg width="343" height="80" viewBox="0 0 343 80" fill="none" xmlns="http://www.w3.org/2000/svg">
<g clip-path="url(#clip0_2053_29386)">
<path d="M196.491 26.8541C176.946 26.8541 161.054 42.4881 161.054 61.6986C161.054 67.3052 162.383 72.6669 165.003 77.6484L165.403 78.4024H180.379L178.566 76.1082C175.281 71.9645 173.552 66.9765 173.552 61.6922C173.552 48.9324 183.844 38.5506 196.504 38.5506C209.163 38.5506 219.345 48.9324 219.345 61.6922C219.345 66.983 217.622 71.9709 214.37 76.1082L212.57 78.3959H227.598L227.998 77.6419C230.618 72.6605 231.947 67.2923 231.947 61.6922C231.947 42.4752 216.048 26.8477 196.51 26.8477L196.491 26.8541Z" fill="#32D430"/>
<path d="M196.491 21.0539C209.783 21.0539 221.849 13.8104 227.979 2.15906L229.069 0.0839844H214.777L214.351 0.625309C209.996 6.16744 203.485 9.3445 196.491 9.3445C189.496 9.3445 182.947 6.16744 178.559 0.618864L178.133 0.0839844H163.912L165.003 2.15906C171.132 13.8169 183.199 21.0539 196.491 21.0539Z" fill="#32D430"/>
<path d="M104.414 0.0966797H60.0146V78.492H71.3452V44.5626H94.9999V33.1304H71.3452V11.4129H104.414V0.0966797Z" fill="#0626A9"/>
<path d="M127.417 66.5181V0.0898438H115.519V78.395H152.853V66.5181H127.417Z" fill="#0626A9"/>
<path d="M287.212 39.0849L281.359 19.5715L269.203 58.3019L250.691 0H237.831L263.054 78.1698H275.61L287.205 39.0849H287.212Z" fill="#0626A9"/>
<path d="M330.141 0L311.512 58.3148L295.852 11.1294H284.573L305.421 78.1698H317.991L343 0H330.141Z" fill="#0626A9"/>
<path d="M18.4537 29.6955H17.389L19.4538 11.1165H37.7465V0.0966797H9.20083L5.10997 40.5027H16.0985C31.4812 40.5027 33.1395 51.1165 33.1395 54.9509C33.1395 62.8323 27.0935 68.5549 18.7698 68.5549C12.6335 68.5549 7.27799 66.1769 1.90955 61.073L-0.00683594 59.2492V73.9166L0.490004 74.2517C3.67107 76.3976 10.3365 80 19.1892 80C34.5784 80 44.9152 69.934 44.9152 54.9509C44.9152 39.9678 34.5267 29.6955 18.4408 29.6955H18.4537Z" fill="#0626A9"/>
<path d="M54.3623 0.0966797H43.3027V11.1423H54.3623V0.0966797Z" fill="#0626A9"/>
</g>
<defs>
<clipPath id="clip0_2053_29386">
<rect width="343" height="80" fill="white"/>
</clipPath>
</defs>
</svg>
