<svg width="437" height="447" viewBox="0 0 437 447" fill="none" xmlns="http://www.w3.org/2000/svg">
<path d="M48.4379 445.43C77.2555 445.43 100.617 346.186 100.617 223.762C100.617 101.338 77.2555 2.09424 48.4379 2.09424C19.6202 2.09424 -3.7411 101.338 -3.7411 223.762C-3.7411 346.186 19.6202 445.43 48.4379 445.43Z" stroke="#32D430" stroke-width="2.36" stroke-miterlimit="10"/>
<path d="M93.2371 445.43C146.802 445.43 190.225 346.186 190.225 223.762C190.225 101.338 146.802 2.09424 93.2371 2.09424C39.672 2.09424 -3.7511 101.338 -3.7511 223.762C-3.7511 346.186 39.672 445.43 93.2371 445.43Z" stroke="#32D430" stroke-width="2.36" stroke-miterlimit="10"/>
<path d="M137.476 445.43C215.473 445.43 278.702 346.186 278.702 223.762C278.702 101.338 215.473 2.09424 137.476 2.09424C59.4783 2.09424 -3.7511 101.338 -3.7511 223.762C-3.7511 346.186 59.4783 445.43 137.476 445.43Z" stroke="#32D430" stroke-width="2.36" stroke-miterlimit="10"/>
<path d="M178.391 445.43C278.985 445.43 360.533 346.186 360.533 223.762C360.533 101.338 278.985 2.09424 178.391 2.09424C77.7967 2.09424 -3.7511 101.338 -3.7511 223.762C-3.7511 346.186 77.7967 445.43 178.391 445.43Z" stroke="#32D430" stroke-width="2.36" stroke-miterlimit="10"/>
<path d="M215.759 445.43C336.992 445.43 435.27 346.186 435.27 223.762C435.27 101.338 336.992 2.09424 215.759 2.09424C94.5271 2.09424 -3.7511 101.338 -3.7511 223.762C-3.7511 346.186 94.5271 445.43 215.759 445.43Z" stroke="#32D430" stroke-width="2.36" stroke-miterlimit="10"/>
</svg>
