<svg width="316" height="48" viewBox="0 0 316 48" fill="none" xmlns="http://www.w3.org/2000/svg">
<path d="M122.606 29.8457C120.531 37.5627 114.307 42.3569 106.348 42.3569C98.3889 42.3569 92.0875 37.5627 90.0226 29.8457L89.945 29.5756H82.9747L83.0717 30.0193C84.2447 35.3055 87.0464 39.8006 91.1859 43.0225C95.3642 46.2733 100.609 48 106.348 48C112.087 48 117.293 46.283 121.452 43.0225C125.582 39.8006 128.374 35.2958 129.547 30.0193L129.644 29.5756H122.673L122.596 29.8457H122.606Z" fill="#8869D5"/>
<path d="M14.9682 2.36334H0V46.254H6.631V29.6527H14.9585C19.7573 29.6527 23.6544 28.2444 26.2332 25.5723C28.5501 23.1801 29.7716 19.8714 29.7716 16.0129C29.7716 12.1543 28.5501 8.84566 26.2332 6.45338C23.6544 3.78135 19.7476 2.37299 14.9585 2.37299L14.9682 2.36334ZM23.2279 16.0129C23.2279 23.2283 17.45 24.0096 14.9682 24.0096H6.631V8.01608H14.9585C17.4403 8.01608 23.2182 8.79743 23.2182 16.0129H23.2279Z" fill="#8869D5"/>
<path d="M68.7142 15.6463C68.7142 7.33119 63.1787 2.36334 53.8914 2.36334H38.9232V46.254H45.5542V29.2862H53.2516L64.9624 46.254H72.7083L59.7953 28.1093C65.4666 26.3923 68.7045 21.8875 68.7045 15.6463H68.7142ZM62.1511 15.6463C62.1511 22.283 56.9742 24.3762 53.8914 24.3762H45.5639V8.01608H53.8914C56.9742 8.01608 62.1511 9.00965 62.1511 15.6463Z" fill="#8869D5"/>
<path d="M159.842 2.36334H144.874V46.254H151.505V29.6527H159.832C164.631 29.6527 168.528 28.2444 171.107 25.5723C173.424 23.1801 174.645 19.8714 174.645 16.0129C174.645 12.1543 173.424 8.84566 171.107 6.45338C168.528 3.78135 164.621 2.37299 159.832 2.37299L159.842 2.36334ZM168.102 16.0129C168.102 23.2283 162.324 24.0096 159.842 24.0096H151.514V8.01608H159.842C162.324 8.01608 168.102 8.79743 168.102 16.0129Z" fill="#8869D5"/>
<path d="M187.49 46.254H214.994V40.6013H194.131V25.9871H211.31V20.344H194.131V8.01608H214.994V2.36334H187.49V46.254Z" fill="#8869D5"/>
<path d="M236.893 2.36334H230.253V46.254H257.756V40.6013H236.893V2.36334Z" fill="#8869D5"/>
<path d="M273.16 2.2283H267.043V8.45981H273.16V2.2283Z" fill="#8869D5"/>
<path d="M273.16 14.537H267.043V46.254H273.16V14.537Z" fill="#8869D5"/>
<path d="M301.866 19.7653C294.197 17.7395 293.218 14.8071 293.218 12.492C293.218 8.53698 296.33 6.18328 301.546 6.18328C305.365 6.18328 309.456 8.15113 312.016 10.0032L312.442 10.3119L313.984 4.9582L313.799 4.80386C311.463 2.90354 306.858 0.684887 301.546 0.684887C292.947 0.684887 286.946 5.53698 286.946 12.492C286.946 18.9453 291.299 23.508 299.529 25.6881C308.099 27.9743 309.728 30.5498 309.728 34.5048C309.728 38.8264 306.063 41.8457 300.809 41.8457C294.469 41.8457 290.155 38.6431 287.663 35.9518L287.198 35.4502L285.656 41.7396L285.802 41.8842C289.738 45.9164 296.136 47.3537 300.809 47.3537C304.832 47.3537 308.555 46.1672 311.298 43.9968C314.371 41.5756 316 38.1125 316 33.9936C316 26.7203 311.638 22.3408 301.866 19.7749V19.7653Z" fill="#8869D5"/>
<path d="M106.348 0.0192926C93.7355 0.0192926 84.0217 8.46945 82.6354 20.5949L73.862 21.3666V24.2508H76.1111L89.3343 24.2315V23.6334C89.3343 13.0514 96.3337 5.66238 106.358 5.66238C111.147 5.66238 115.47 7.44694 118.544 10.6977C121.626 13.9582 123.323 18.5498 123.323 23.6334V24.2315H138.844V21.3569L130.002 20.5756C128.616 8.45016 118.931 0 106.367 0L106.348 0.0192926Z" fill="#8869D5"/>
</svg>
