<svg xmlns="http://www.w3.org/2000/svg" xmlns:xlink="http://www.w3.org/1999/xlink" viewBox="0 0 1600 1600" width="1600" height="1600" preserveAspectRatio="xMidYMid meet" style="width: 100%; height: 100%; transform: translate3d(0px, 0px, 0px); content-visibility: visible;"><defs><clipPath id="__lottie_element_2"><rect width="1600" height="1600" x="0" y="0"></rect></clipPath><g id="__lottie_element_7"><g transform="matrix(1,0,0,1,800,800.0000610351562)" opacity="1" style="display: block;"><g opacity="1" transform="matrix(1,0,0,1,0,0)"><g opacity="1" transform="matrix(1,0,0,1,0,0)"><path fill="rgb(132,132,250)" fill-opacity="1" d=" M-423.5409851074219,368.18798828125 C-423.5409851074219,368.18798828125 170.4429931640625,368.18798828125 170.4429931640625,368.18798828125 C185.4980010986328,368.18798828125 195.7209930419922,355.9840087890625 193.2790069580078,340.9289855957031 C193.2790069580078,340.9289855957031 142.9429931640625,30.663999557495117 142.9429931640625,30.663999557495117 C140.50100708007812,15.609000205993652 126.31700134277344,3.4059998989105225 111.26200103759766,3.4059998989105225 C111.26200103759766,3.4059998989105225 -482.7229919433594,3.4059998989105225 -482.7229919433594,3.4059998989105225 C-497.77801513671875,3.4059998989105225 -508.0010070800781,15.609000205993652 -505.5589904785156,30.663999557495117 C-505.5589904785156,30.663999557495117 -455.22198486328125,340.9289855957031 -455.22198486328125,340.9289855957031 C-452.7799987792969,355.9840087890625 -438.59600830078125,368.18798828125 -423.5409851074219,368.18798828125z"></path><path stroke-linecap="round" stroke-linejoin="round" fill-opacity="0" stroke="rgb(32,40,112)" stroke-opacity="1" stroke-width="0" d=" M-423.5409851074219,368.18798828125 C-423.5409851074219,368.18798828125 170.4429931640625,368.18798828125 170.4429931640625,368.18798828125 C185.4980010986328,368.18798828125 195.7209930419922,355.9840087890625 193.2790069580078,340.9289855957031 C193.2790069580078,340.9289855957031 142.9429931640625,30.663999557495117 142.9429931640625,30.663999557495117 C140.50100708007812,15.609000205993652 126.31700134277344,3.4059998989105225 111.26200103759766,3.4059998989105225 C111.26200103759766,3.4059998989105225 -482.7229919433594,3.4059998989105225 -482.7229919433594,3.4059998989105225 C-497.77801513671875,3.4059998989105225 -508.0010070800781,15.609000205993652 -505.5589904785156,30.663999557495117 C-505.5589904785156,30.663999557495117 -455.22198486328125,340.9289855957031 -455.22198486328125,340.9289855957031 C-452.7799987792969,355.9840087890625 -438.59600830078125,368.18798828125 -423.5409851074219,368.18798828125z"></path></g></g></g></g><mask id="__lottie_element_7_1" mask-type="alpha"><use xlink:href="#__lottie_element_7"></use></mask></defs><g clip-path="url(#__lottie_element_2)"><g transform="matrix(1,0,0,1,799.0390014648438,806.0460205078125)" opacity="1" style="display: block;"><g opacity="1" transform="matrix(1,0,0,1,0,0)"><path fill="rgb(255,255,255)" fill-opacity="1" d=" M383.4280090332031,-191.64599609375 C383.4280090332031,-191.64599609375 -111.8479995727539,-191.64599609375 -111.8479995727539,-191.64599609375 C-111.8479995727539,-191.64599609375 -111.8479995727539,-453.8340148925781 -111.8479995727539,-453.8340148925781 C-111.8479995727539,-453.8340148925781 383.4280090332031,-453.8340148925781 383.4280090332031,-453.8340148925781 C383.4280090332031,-453.8340148925781 383.4280090332031,-191.64599609375 383.4280090332031,-191.64599609375z"></path><path stroke-linecap="round" stroke-linejoin="round" fill-opacity="0" stroke="rgb(32,40,112)" stroke-opacity="1" stroke-width="2" d=" M383.4280090332031,-191.64599609375 C383.4280090332031,-191.64599609375 -111.8479995727539,-191.64599609375 -111.8479995727539,-191.64599609375 C-111.8479995727539,-191.64599609375 -111.8479995727539,-453.8340148925781 -111.8479995727539,-453.8340148925781 C-111.8479995727539,-453.8340148925781 383.4280090332031,-453.8340148925781 383.4280090332031,-453.8340148925781 C383.4280090332031,-453.8340148925781 383.4280090332031,-191.64599609375 383.4280090332031,-191.64599609375z"></path></g><g opacity="1" transform="matrix(1,0,0,1,0,0)"><g opacity="1" transform="matrix(1,0,0,1,0,0)"><path fill="rgb(255,255,255)" fill-opacity="1" d=" M345.8919982910156,-230.36300659179688 C345.8919982910156,-230.36300659179688 84.47699737548828,-230.36300659179688 84.47699737548828,-230.36300659179688 C84.47699737548828,-230.36300659179688 84.47699737548828,-415.11700439453125 84.47699737548828,-415.11700439453125 C84.47699737548828,-415.11700439453125 345.8919982910156,-415.11700439453125 345.8919982910156,-415.11700439453125 C345.8919982910156,-415.11700439453125 345.8919982910156,-230.36300659179688 345.8919982910156,-230.36300659179688z"></path><path stroke-linecap="round" stroke-linejoin="round" fill-opacity="0" stroke="rgb(32,40,112)" stroke-opacity="1" stroke-width="2" d=" M345.8919982910156,-230.36300659179688 C345.8919982910156,-230.36300659179688 84.47699737548828,-230.36300659179688 84.47699737548828,-230.36300659179688 C84.47699737548828,-230.36300659179688 84.47699737548828,-415.11700439453125 84.47699737548828,-415.11700439453125 C84.47699737548828,-415.11700439453125 345.8919982910156,-415.11700439453125 345.8919982910156,-415.11700439453125 C345.8919982910156,-415.11700439453125 345.8919982910156,-230.36300659179688 345.8919982910156,-230.36300659179688z"></path></g><g opacity="1" transform="matrix(1,0,0,1,0,0)"><path fill="rgb(132,132,250)" fill-opacity="1" d=" M50.112998962402344,-336.8550109863281 C50.112998962402344,-336.8550109863281 -74.31199645996094,-336.8550109863281 -74.31199645996094,-336.8550109863281 C-74.31199645996094,-336.8550109863281 -74.31199645996094,-415.11700439453125 -74.31199645996094,-415.11700439453125 C-74.31199645996094,-415.11700439453125 50.112998962402344,-415.11700439453125 50.112998962402344,-415.11700439453125 C50.112998962402344,-415.11700439453125 50.112998962402344,-336.8550109863281 50.112998962402344,-336.8550109863281z"></path><path stroke-linecap="round" stroke-linejoin="round" fill-opacity="0" stroke="rgb(32,40,112)" stroke-opacity="1" stroke-width="2" d=" M50.112998962402344,-336.8550109863281 C50.112998962402344,-336.8550109863281 -74.31199645996094,-336.8550109863281 -74.31199645996094,-336.8550109863281 C-74.31199645996094,-336.8550109863281 -74.31199645996094,-415.11700439453125 -74.31199645996094,-415.11700439453125 C-74.31199645996094,-415.11700439453125 50.112998962402344,-415.11700439453125 50.112998962402344,-415.11700439453125 C50.112998962402344,-415.11700439453125 50.112998962402344,-336.8550109863281 50.112998962402344,-336.8550109863281z"></path></g><g opacity="1" transform="matrix(1,0,0,1,0,0)"><g opacity="1" transform="matrix(1,0,0,1,0,0)"><g opacity="1" transform="matrix(1,0,0,1,0,0)"><path fill="rgb(32,40,112)" fill-opacity="1" d=" M108.66600036621094,-389.72601318359375 C108.66600036621094,-389.72601318359375 321.7030029296875,-389.72601318359375 321.7030029296875,-389.72601318359375"></path><path stroke-linecap="round" stroke-linejoin="round" fill-opacity="0" stroke="rgb(32,40,112)" stroke-opacity="1" stroke-width="2" d=" M108.66600036621094,-389.72601318359375 C108.66600036621094,-389.72601318359375 321.7030029296875,-389.72601318359375 321.7030029296875,-389.72601318359375"></path></g></g><g opacity="1" transform="matrix(1,0,0,1,0,0)"><path fill="rgb(32,40,112)" fill-opacity="1" d=" M108.66600036621094,-369.2489929199219 C108.66600036621094,-369.2489929199219 239.12899780273438,-369.2489929199219 239.12899780273438,-369.2489929199219"></path><path stroke-linecap="round" stroke-linejoin="round" fill-opacity="0" stroke="rgb(32,40,112)" stroke-opacity="1" stroke-width="2" d=" M108.66600036621094,-369.2489929199219 C108.66600036621094,-369.2489929199219 239.12899780273438,-369.2489929199219 239.12899780273438,-369.2489929199219"></path></g></g></g><g opacity="1" transform="matrix(1,0,0,1,0,0)"><path fill="rgb(249,74,130)" fill-opacity="1" d=" M383.4280090332031,-488.14898681640625 C383.4280090332031,-488.14898681640625 383.4280090332031,-453.8340148925781 383.4280090332031,-453.8340148925781 C383.4280090332031,-453.8340148925781 -111.8479995727539,-453.8340148925781 -111.8479995727539,-453.8340148925781 C-111.8479995727539,-453.8340148925781 -111.8479995727539,-488.14898681640625 -111.8479995727539,-488.14898681640625 C-111.8479995727539,-488.14898681640625 383.4280090332031,-488.14898681640625 383.4280090332031,-488.14898681640625z"></path><path stroke-linecap="round" stroke-linejoin="round" fill-opacity="0" stroke="rgb(32,40,112)" stroke-opacity="1" stroke-width="2" d=" M383.4280090332031,-488.14898681640625 C383.4280090332031,-488.14898681640625 383.4280090332031,-453.8340148925781 383.4280090332031,-453.8340148925781 C383.4280090332031,-453.8340148925781 -111.8479995727539,-453.8340148925781 -111.8479995727539,-453.8340148925781 C-111.8479995727539,-453.8340148925781 -111.8479995727539,-488.14898681640625 -111.8479995727539,-488.14898681640625 C-111.8479995727539,-488.14898681640625 383.4280090332031,-488.14898681640625 383.4280090332031,-488.14898681640625z"></path></g><g opacity="1" transform="matrix(1,0,0,1,0,0)"><g opacity="1" transform="matrix(1,0,0,1,0,0)"><path fill="rgb(255,255,255)" fill-opacity="1" d=" M335.8559875488281,-470.99200439453125 C335.8559875488281,-467.7829895019531 333.2560119628906,-465.1820068359375 330.0469970703125,-465.1820068359375 C326.8380126953125,-465.1820068359375 324.23699951171875,-467.7829895019531 324.23699951171875,-470.99200439453125 C324.23699951171875,-474.20098876953125 326.8380126953125,-476.8009948730469 330.0469970703125,-476.8009948730469 C333.2560119628906,-476.8009948730469 335.8559875488281,-474.20098876953125 335.8559875488281,-470.99200439453125z"></path></g><g opacity="1" transform="matrix(1,0,0,1,0,0)"><path fill="rgb(255,255,255)" fill-opacity="1" d=" M353.10400390625,-470.99200439453125 C353.10400390625,-467.7829895019531 350.50299072265625,-465.1820068359375 347.29400634765625,-465.1820068359375 C344.0849914550781,-465.1820068359375 341.4849853515625,-467.7829895019531 341.4849853515625,-470.99200439453125 C341.4849853515625,-474.20098876953125 344.0849914550781,-476.8009948730469 347.29400634765625,-476.8009948730469 C350.50299072265625,-476.8009948730469 353.10400390625,-474.20098876953125 353.10400390625,-470.99200439453125z"></path></g><g opacity="1" transform="matrix(1,0,0,1,0,0)"><path fill="rgb(255,255,255)" fill-opacity="1" d=" M370.35198974609375,-470.99200439453125 C370.35198974609375,-467.7829895019531 367.7510070800781,-465.1820068359375 364.5419921875,-465.1820068359375 C361.3330078125,-465.1820068359375 358.7330017089844,-467.7829895019531 358.7330017089844,-470.99200439453125 C358.7330017089844,-474.20098876953125 361.3330078125,-476.8009948730469 364.5419921875,-476.8009948730469 C367.7510070800781,-476.8009948730469 370.35198974609375,-474.20098876953125 370.35198974609375,-470.99200439453125z"></path></g></g></g><g transform="matrix(1,0,0,1,798.7019653320312,807.4779663085938)" opacity="1" style="display: block;"><g opacity="1" transform="matrix(1,0,0,1,0,0)"><g opacity="1" transform="matrix(1,0,0,1,0,0)"><g opacity="1" transform="matrix(1,0,0,1,0,0)"><path fill="rgb(255,255,255)" fill-opacity="1" d=" M442.6199951171875,-305.1400146484375 C442.6199951171875,-305.1400146484375 442.6199951171875,8.592000007629395 442.6199951171875,8.592000007629395 C442.6199951171875,8.592000007629395 -34.520999908447266,8.592000007629395 -34.520999908447266,8.592000007629395 C-34.520999908447266,8.592000007629395 -34.520999908447266,-305.1400146484375 -34.520999908447266,-305.1400146484375 C-34.520999908447266,-305.1400146484375 442.6199951171875,-305.1400146484375 442.6199951171875,-305.1400146484375z"></path><path stroke-linecap="round" stroke-linejoin="round" fill-opacity="0" stroke="rgb(32,40,112)" stroke-opacity="1" stroke-width="2" d=" M442.6199951171875,-305.1400146484375 C442.6199951171875,-305.1400146484375 442.6199951171875,8.592000007629395 442.6199951171875,8.592000007629395 C442.6199951171875,8.592000007629395 -34.520999908447266,8.592000007629395 -34.520999908447266,8.592000007629395 C-34.520999908447266,8.592000007629395 -34.520999908447266,-305.1400146484375 -34.520999908447266,-305.1400146484375 C-34.520999908447266,-305.1400146484375 442.6199951171875,-305.1400146484375 442.6199951171875,-305.1400146484375z"></path></g><g opacity="1" transform="matrix(1,0,0,1,0,0)"><path fill="rgb(32,40,112)" fill-opacity="1" d=" M442.6199951171875,-305.1400146484375 C442.6199951171875,-305.1400146484375 442.6199951171875,-270.82598876953125 442.6199951171875,-270.82598876953125 C442.6199951171875,-270.82598876953125 -34.520999908447266,-270.82598876953125 -34.520999908447266,-270.82598876953125 C-34.520999908447266,-270.82598876953125 -34.520999908447266,-305.1400146484375 -34.520999908447266,-305.1400146484375 C-34.520999908447266,-305.1400146484375 442.6199951171875,-305.1400146484375 442.6199951171875,-305.1400146484375z"></path><path stroke-linecap="round" stroke-linejoin="round" fill-opacity="0" stroke="rgb(32,40,112)" stroke-opacity="1" stroke-width="2" d=" M442.6199951171875,-305.1400146484375 C442.6199951171875,-305.1400146484375 442.6199951171875,-270.82598876953125 442.6199951171875,-270.82598876953125 C442.6199951171875,-270.82598876953125 -34.520999908447266,-270.82598876953125 -34.520999908447266,-270.82598876953125 C-34.520999908447266,-270.82598876953125 -34.520999908447266,-305.1400146484375 -34.520999908447266,-305.1400146484375 C-34.520999908447266,-305.1400146484375 442.6199951171875,-305.1400146484375 442.6199951171875,-305.1400146484375z"></path></g><g opacity="1" transform="matrix(1,0,0,1,0,0)"><g opacity="1" transform="matrix(1,0,0,1,0,0)"><g opacity="1" transform="matrix(1,0,0,1,0,0)"><path fill="rgb(132,132,250)" fill-opacity="1" d=" M368.7560119628906,-40.85300064086914 C368.7560119628906,-40.85300064086914 46.41600036621094,-40.85300064086914 46.41600036621094,-40.85300064086914 C46.41600036621094,-40.85300064086914 46.41600036621094,-209.03799438476562 46.41600036621094,-209.03799438476562 C46.41600036621094,-209.03799438476562 368.7560119628906,-209.03799438476562 368.7560119628906,-209.03799438476562 C368.7560119628906,-209.03799438476562 368.7560119628906,-40.85300064086914 368.7560119628906,-40.85300064086914z"></path><path stroke-linecap="round" stroke-linejoin="round" fill-opacity="0" stroke="rgb(32,40,112)" stroke-opacity="1" stroke-width="2" d=" M368.7560119628906,-40.85300064086914 C368.7560119628906,-40.85300064086914 46.41600036621094,-40.85300064086914 46.41600036621094,-40.85300064086914 C46.41600036621094,-40.85300064086914 46.41600036621094,-209.03799438476562 46.41600036621094,-209.03799438476562 C46.41600036621094,-209.03799438476562 368.7560119628906,-209.03799438476562 368.7560119628906,-209.03799438476562 C368.7560119628906,-209.03799438476562 368.7560119628906,-40.85300064086914 368.7560119628906,-40.85300064086914z"></path></g></g></g><g opacity="1" transform="matrix(1,0,0,1,0,0)"><g opacity="1" transform="matrix(1,0,0,1,0,0)"><path fill="rgb(255,255,255)" fill-opacity="1" d=" M395.0480041503906,-287.9830017089844 C395.0480041503906,-284.77398681640625 392.4469909667969,-282.1730041503906 389.2380065917969,-282.1730041503906 C386.02899169921875,-282.1730041503906 383.4280090332031,-284.77398681640625 383.4280090332031,-287.9830017089844 C383.4280090332031,-291.1919860839844 386.02899169921875,-293.7929992675781 389.2380065917969,-293.7929992675781 C392.4469909667969,-293.7929992675781 395.0480041503906,-291.1919860839844 395.0480041503906,-287.9830017089844z"></path></g><g opacity="1" transform="matrix(1,0,0,1,0,0)"><path fill="rgb(255,255,255)" fill-opacity="1" d=" M412.2959899902344,-287.9830017089844 C412.2959899902344,-284.77398681640625 409.69500732421875,-282.1730041503906 406.4859924316406,-282.1730041503906 C403.2770080566406,-282.1730041503906 400.6759948730469,-284.77398681640625 400.6759948730469,-287.9830017089844 C400.6759948730469,-291.1919860839844 403.2770080566406,-293.7929992675781 406.4859924316406,-293.7929992675781 C409.69500732421875,-293.7929992675781 412.2959899902344,-291.1919860839844 412.2959899902344,-287.9830017089844z"></path></g><g opacity="1" transform="matrix(1,0,0,1,0,0)"><path fill="rgb(255,255,255)" fill-opacity="1" d=" M429.54400634765625,-287.9830017089844 C429.54400634765625,-284.77398681640625 426.9429931640625,-282.1730041503906 423.7340087890625,-282.1730041503906 C420.5249938964844,-282.1730041503906 417.92401123046875,-284.77398681640625 417.92401123046875,-287.9830017089844 C417.92401123046875,-291.1919860839844 420.5249938964844,-293.7929992675781 423.7340087890625,-293.7929992675781 C426.9429931640625,-293.7929992675781 429.54400634765625,-291.1919860839844 429.54400634765625,-287.9830017089844z"></path></g></g></g></g><g opacity="1" transform="matrix(1.0372799634933472,0,0,1.0372799634933472,-7.60693359375,5.4541778564453125)"><g opacity="1" transform="matrix(1,0,0,1,0,0)"><g opacity="1" transform="matrix(1,0,0,1,0,0)"><g opacity="1" transform="matrix(1,0,0,1,0,0)"><g opacity="1" transform="matrix(1,0,0,1,0,0)"><path fill="rgb(249,74,130)" fill-opacity="1" d=" M229.44400024414062,-71.39900207519531 C229.44400024414062,-71.39900207519531 204.0489959716797,-53.986000061035156 204.0489959716797,-53.986000061035156 C204.0489959716797,-53.986000061035156 178.65499877929688,-71.39900207519531 178.65499877929688,-71.39900207519531 C148.656005859375,-91.96900177001953 130.7270050048828,-126.00499725341797 130.7270050048828,-162.37899780273438 C130.7270050048828,-162.37899780273438 130.7270050048828,-211.5260009765625 130.7270050048828,-211.5260009765625 C130.7270050048828,-211.5260009765625 204.0489959716797,-238.6199951171875 204.0489959716797,-238.6199951171875 C204.0489959716797,-238.6199951171875 277.37200927734375,-211.5260009765625 277.37200927734375,-211.5260009765625 C277.37200927734375,-211.5260009765625 277.37200927734375,-162.37899780273438 277.37200927734375,-162.37899780273438 C277.37200927734375,-126.00499725341797 259.4429931640625,-91.96900177001953 229.44400024414062,-71.39900207519531z"></path><path stroke-linecap="round" stroke-linejoin="round" fill-opacity="0" stroke="rgb(32,40,112)" stroke-opacity="1" stroke-width="2" d=" M229.44400024414062,-71.39900207519531 C229.44400024414062,-71.39900207519531 204.0489959716797,-53.986000061035156 204.0489959716797,-53.986000061035156 C204.0489959716797,-53.986000061035156 178.65499877929688,-71.39900207519531 178.65499877929688,-71.39900207519531 C148.656005859375,-91.96900177001953 130.7270050048828,-126.00499725341797 130.7270050048828,-162.37899780273438 C130.7270050048828,-162.37899780273438 130.7270050048828,-211.5260009765625 130.7270050048828,-211.5260009765625 C130.7270050048828,-211.5260009765625 204.0489959716797,-238.6199951171875 204.0489959716797,-238.6199951171875 C204.0489959716797,-238.6199951171875 277.37200927734375,-211.5260009765625 277.37200927734375,-211.5260009765625 C277.37200927734375,-211.5260009765625 277.37200927734375,-162.37899780273438 277.37200927734375,-162.37899780273438 C277.37200927734375,-126.00499725341797 259.4429931640625,-91.96900177001953 229.44400024414062,-71.39900207519531z"></path></g></g></g><g opacity="1" transform="matrix(1,0,0,1,0,0)"><g opacity="1" transform="matrix(1,0,0,1,0,0)"><g opacity="1" transform="matrix(1,0,0,1,0,0)"><path fill="rgb(255,255,255)" fill-opacity="1" d=" M225.16700744628906,-86.01200103759766 C225.16700744628906,-86.01200103759766 204.0489959716797,-71.53099822998047 204.0489959716797,-71.53099822998047 C204.0489959716797,-71.53099822998047 182.9320068359375,-86.01200103759766 182.9320068359375,-86.01200103759766 C157.98500061035156,-103.11900329589844 143.072998046875,-131.42300415039062 143.072998046875,-161.6719970703125 C143.072998046875,-161.6719970703125 143.072998046875,-202.54299926757812 143.072998046875,-202.54299926757812 C143.072998046875,-202.54299926757812 204.0489959716797,-225.0749969482422 204.0489959716797,-225.0749969482422 C204.0489959716797,-225.0749969482422 265.0260009765625,-202.54299926757812 265.0260009765625,-202.54299926757812 C265.0260009765625,-202.54299926757812 265.0260009765625,-161.6719970703125 265.0260009765625,-161.6719970703125 C265.0260009765625,-131.42300415039062 250.11399841308594,-103.11900329589844 225.16700744628906,-86.01200103759766z"></path><path stroke-linecap="round" stroke-linejoin="round" fill-opacity="0" stroke="rgb(32,40,112)" stroke-opacity="1" stroke-width="2" d=" M225.16700744628906,-86.01200103759766 C225.16700744628906,-86.01200103759766 204.0489959716797,-71.53099822998047 204.0489959716797,-71.53099822998047 C204.0489959716797,-71.53099822998047 182.9320068359375,-86.01200103759766 182.9320068359375,-86.01200103759766 C157.98500061035156,-103.11900329589844 143.072998046875,-131.42300415039062 143.072998046875,-161.6719970703125 C143.072998046875,-161.6719970703125 143.072998046875,-202.54299926757812 143.072998046875,-202.54299926757812 C143.072998046875,-202.54299926757812 204.0489959716797,-225.0749969482422 204.0489959716797,-225.0749969482422 C204.0489959716797,-225.0749969482422 265.0260009765625,-202.54299926757812 265.0260009765625,-202.54299926757812 C265.0260009765625,-202.54299926757812 265.0260009765625,-161.6719970703125 265.0260009765625,-161.6719970703125 C265.0260009765625,-131.42300415039062 250.11399841308594,-103.11900329589844 225.16700744628906,-86.01200103759766z"></path></g></g></g><g opacity="1" transform="matrix(1.087030053138733,0,0,1.087030053138733,-17.845428466796875,13.272689819335938)"><g opacity="1" transform="matrix(1,0,0,1,0,0)"><g opacity="1" transform="matrix(1,0,0,1,0,0)"><path fill="rgb(249,74,130)" fill-opacity="1" d=" M177.41799926757812,-131.07200622558594 C177.41799926757812,-131.07200622558594 226.55499267578125,-180.2100067138672 226.55499267578125,-180.2100067138672 C226.55499267578125,-180.2100067138672 232.68099975585938,-174.08299255371094 232.68099975585938,-174.08299255371094 C232.68099975585938,-174.08299255371094 183.4010009765625,-124.80400085449219 183.4010009765625,-124.80400085449219 C183.4010009765625,-124.80400085449219 177.41799926757812,-131.07200622558594 177.41799926757812,-131.07200622558594z"></path></g></g><g opacity="1" transform="matrix(1,0,0,1,0,0)"><g opacity="1" transform="matrix(1,0,0,1,0,0)"><path fill="rgb(249,74,130)" fill-opacity="1" d=" M232.68099975585938,-131.07200622558594 C232.68099975585938,-131.07200622558594 183.54400634765625,-180.2100067138672 183.54400634765625,-180.2100067138672 C183.54400634765625,-180.2100067138672 177.41799926757812,-174.08299255371094 177.41799926757812,-174.08299255371094 C177.41799926757812,-174.08299255371094 226.69700622558594,-124.80400085449219 226.69700622558594,-124.80400085449219 C226.69700622558594,-124.80400085449219 232.68099975585938,-131.07200622558594 232.68099975585938,-131.07200622558594z"></path></g></g></g></g></g></g><g transform="matrix(1,0,0,1,810.6270141601562,761.1480102539062)" opacity="1" style="display: block;"><g opacity="1" transform="matrix(1,0,0,1,0,0)"><path fill="rgb(255,255,255)" fill-opacity="1" d=" M296.0589904785156,-74.03700256347656 C296.0589904785156,-74.03700256347656 296.0589904785156,41.334999084472656 296.0589904785156,41.334999084472656 C296.0589904785156,41.334999084472656 -238.18800354003906,41.334999084472656 -238.18800354003906,41.334999084472656 C-238.18800354003906,41.334999084472656 -238.18800354003906,-74.03700256347656 -238.18800354003906,-74.03700256347656 C-238.18800354003906,-74.03700256347656 296.0589904785156,-74.03700256347656 296.0589904785156,-74.03700256347656z"></path><path stroke-linecap="round" stroke-linejoin="round" fill-opacity="0" stroke="rgb(32,40,112)" stroke-opacity="1" stroke-width="2" d=" M296.0589904785156,-74.03700256347656 C296.0589904785156,-74.03700256347656 296.0589904785156,41.334999084472656 296.0589904785156,41.334999084472656 C296.0589904785156,41.334999084472656 -238.18800354003906,41.334999084472656 -238.18800354003906,41.334999084472656 C-238.18800354003906,41.334999084472656 -238.18800354003906,-74.03700256347656 -238.18800354003906,-74.03700256347656 C-238.18800354003906,-74.03700256347656 296.0589904785156,-74.03700256347656 296.0589904785156,-74.03700256347656z"></path></g><g opacity="1" transform="matrix(1,0,0,1,0,0)"><path fill="rgb(249,74,130)" fill-opacity="1" d=" M296.0589904785156,-108.35099792480469 C296.0589904785156,-108.35099792480469 296.0589904785156,-74.03700256347656 296.0589904785156,-74.03700256347656 C296.0589904785156,-74.03700256347656 -238.18800354003906,-74.03700256347656 -238.18800354003906,-74.03700256347656 C-238.18800354003906,-74.03700256347656 -238.18800354003906,-108.35099792480469 -238.18800354003906,-108.35099792480469 C-238.18800354003906,-108.35099792480469 296.0589904785156,-108.35099792480469 296.0589904785156,-108.35099792480469z"></path><path stroke-linecap="round" stroke-linejoin="round" fill-opacity="0" stroke="rgb(32,40,112)" stroke-opacity="1" stroke-width="2" d=" M296.0589904785156,-108.35099792480469 C296.0589904785156,-108.35099792480469 296.0589904785156,-74.03700256347656 296.0589904785156,-74.03700256347656 C296.0589904785156,-74.03700256347656 -238.18800354003906,-74.03700256347656 -238.18800354003906,-74.03700256347656 C-238.18800354003906,-74.03700256347656 -238.18800354003906,-108.35099792480469 -238.18800354003906,-108.35099792480469 C-238.18800354003906,-108.35099792480469 296.0589904785156,-108.35099792480469 296.0589904785156,-108.35099792480469z"></path></g><g opacity="1" transform="matrix(1,0,0,1,0,0)"><g opacity="1" transform="matrix(1,0,0,1,0,0)"><g opacity="1" transform="matrix(1,0,0,1,0,0)"><path fill="rgb(32,40,112)" fill-opacity="1" d=" M28.93600082397461,-36.82699966430664 C28.93600082397461,-36.82699966430664 248.7550048828125,-36.82699966430664 248.7550048828125,-36.82699966430664"></path><path stroke-linecap="round" stroke-linejoin="round" fill-opacity="0" stroke="rgb(32,40,112)" stroke-opacity="1" stroke-width="2" d=" M28.93600082397461,-36.82699966430664 C28.93600082397461,-36.82699966430664 248.7550048828125,-36.82699966430664 248.7550048828125,-36.82699966430664"></path></g><g opacity="1" transform="matrix(1,0,0,1,0,0)"><path fill="rgb(32,40,112)" fill-opacity="1" d=" M-190.88400268554688,-36.82699966430664 C-190.88400268554688,-36.82699966430664 -12.208000183105469,-36.82699966430664 -12.208000183105469,-36.82699966430664"></path><path stroke-linecap="round" stroke-linejoin="round" fill-opacity="0" stroke="rgb(32,40,112)" stroke-opacity="1" stroke-width="2" d=" M-190.88400268554688,-36.82699966430664 C-190.88400268554688,-36.82699966430664 -12.208000183105469,-36.82699966430664 -12.208000183105469,-36.82699966430664"></path></g></g><g opacity="1" transform="matrix(1,0,0,1,0,0)"><path fill="rgb(32,40,112)" fill-opacity="1" d=" M-190.88400268554688,-16.35099983215332 C-190.88400268554688,-16.35099983215332 166.6580047607422,-16.35099983215332 166.6580047607422,-16.35099983215332"></path><path stroke-linecap="round" stroke-linejoin="round" fill-opacity="0" stroke="rgb(32,40,112)" stroke-opacity="1" stroke-width="2" d=" M-190.88400268554688,-16.35099983215332 C-190.88400268554688,-16.35099983215332 166.6580047607422,-16.35099983215332 166.6580047607422,-16.35099983215332"></path></g></g><g opacity="1" transform="matrix(1,0,0,1,0,0)"><g opacity="1" transform="matrix(1,0,0,1,0,0)"><path fill="rgb(255,255,255)" fill-opacity="1" d=" M248.48699951171875,-91.19400024414062 C248.48699951171875,-87.98500061035156 245.88600158691406,-85.38400268554688 242.677001953125,-85.38400268554688 C239.46800231933594,-85.38400268554688 236.86700439453125,-87.98500061035156 236.86700439453125,-91.19400024414062 C236.86700439453125,-94.40299987792969 239.46800231933594,-97.00399780273438 242.677001953125,-97.00399780273438 C245.88600158691406,-97.00399780273438 248.48699951171875,-94.40299987792969 248.48699951171875,-91.19400024414062z"></path></g><g opacity="1" transform="matrix(1,0,0,1,0,0)"><path fill="rgb(255,255,255)" fill-opacity="1" d=" M265.7349853515625,-91.19400024414062 C265.7349853515625,-87.98500061035156 263.1340026855469,-85.38400268554688 259.92498779296875,-85.38400268554688 C256.71600341796875,-85.38400268554688 254.11500549316406,-87.98500061035156 254.11500549316406,-91.19400024414062 C254.11500549316406,-94.40299987792969 256.71600341796875,-97.00399780273438 259.92498779296875,-97.00399780273438 C263.1340026855469,-97.00399780273438 265.7349853515625,-94.40299987792969 265.7349853515625,-91.19400024414062z"></path></g><g opacity="1" transform="matrix(1,0,0,1,0,0)"><path fill="rgb(255,255,255)" fill-opacity="1" d=" M282.9830017089844,-91.19400024414062 C282.9830017089844,-87.98500061035156 280.3819885253906,-85.38400268554688 277.1730041503906,-85.38400268554688 C273.9639892578125,-85.38400268554688 271.3630065917969,-87.98500061035156 271.3630065917969,-91.19400024414062 C271.3630065917969,-94.40299987792969 273.9639892578125,-97.00399780273438 277.1730041503906,-97.00399780273438 C280.3819885253906,-97.00399780273438 282.9830017089844,-94.40299987792969 282.9830017089844,-91.19400024414062z"></path></g></g></g><g transform="matrix(1,0,0,1,800,799.9999389648438)" opacity="1" style="display: block;"><g opacity="1" transform="matrix(1,0,0,1,0,0)"><path fill="rgb(132,132,250)" fill-opacity="1" d=" M117.26399993896484,421.302001953125 C117.26399993896484,421.302001953125 69.93299865722656,318.5830078125 90.58399963378906,283.5840148925781 C111.23500061035156,248.5850067138672 163.6320037841797,230.22999572753906 179.90499877929688,225.54800415039062 C202.78599548339844,218.96499633789062 228.61399841308594,207.4709930419922 322.1090087890625,219.39599609375 C415.60400390625,231.3209991455078 435.04400634765625,255.7270050048828 435.04400634765625,255.7270050048828 C435.04400634765625,255.7270050048828 460.4339904785156,357.7279968261719 451.2640075683594,400.48699951171875 C442.093994140625,443.2460021972656 117.26399993896484,421.302001953125 117.26399993896484,421.302001953125z"></path><path stroke-linecap="round" stroke-linejoin="round" fill-opacity="0" stroke="rgb(32,40,112)" stroke-opacity="1" stroke-width="2" d=" M117.26399993896484,421.302001953125 C117.26399993896484,421.302001953125 69.93299865722656,318.5830078125 90.58399963378906,283.5840148925781 C111.23500061035156,248.5850067138672 163.6320037841797,230.22999572753906 179.90499877929688,225.54800415039062 C202.78599548339844,218.96499633789062 228.61399841308594,207.4709930419922 322.1090087890625,219.39599609375 C415.60400390625,231.3209991455078 435.04400634765625,255.7270050048828 435.04400634765625,255.7270050048828 C435.04400634765625,255.7270050048828 460.4339904785156,357.7279968261719 451.2640075683594,400.48699951171875 C442.093994140625,443.2460021972656 117.26399993896484,421.302001953125 117.26399993896484,421.302001953125z"></path></g></g><g transform="matrix(1,0,0,1,800,799.9999389648438)" opacity="1" style="display: block;"><g opacity="1" transform="matrix(1,0,0,1,0,0)"><path fill="rgb(255,255,255)" fill-opacity="1" d=" M685.8109741210938,410.45098876953125 C691.25,375.39599609375 667.2420043945312,342.5690002441406 632.18701171875,337.1300048828125 C597.1320190429688,331.6910095214844 564.3040161132812,355.6990051269531 558.864990234375,390.7539978027344 C553.426025390625,425.8089904785156 577.4349975585938,458.635986328125 612.489990234375,464.07501220703125 C647.5449829101562,469.5140075683594 680.3720092773438,445.5060119628906 685.8109741210938,410.45098876953125z"></path><path stroke-linecap="round" stroke-linejoin="round" fill-opacity="0" stroke="rgb(32,40,112)" stroke-opacity="1" stroke-width="2" d=" M685.8109741210938,410.45098876953125 C691.25,375.39599609375 667.2420043945312,342.5690002441406 632.18701171875,337.1300048828125 C597.1320190429688,331.6910095214844 564.3040161132812,355.6990051269531 558.864990234375,390.7539978027344 C553.426025390625,425.8089904785156 577.4349975585938,458.635986328125 612.489990234375,464.07501220703125 C647.5449829101562,469.5140075683594 680.3720092773438,445.5060119628906 685.8109741210938,410.45098876953125z"></path></g><g opacity="1" transform="matrix(1,0,0,1,0,0)"><path fill="rgb(255,255,255)" fill-opacity="1" d=" M345.00799560546875,371.49798583984375 C345.00799560546875,371.49798583984375 503.51800537109375,426.2959899902344 503.51800537109375,426.2959899902344 C503.51800537109375,426.2959899902344 599.0460205078125,460.24200439453125 599.0460205078125,460.24200439453125 C599.0460205078125,460.24200439453125 642.4249877929688,339.5920104980469 642.4249877929688,339.5920104980469 C642.4249877929688,339.5920104980469 433.0769958496094,253.781005859375 433.0769958496094,253.781005859375 C433.0769958496094,253.781005859375 345.00799560546875,371.49798583984375 345.00799560546875,371.49798583984375z"></path></g><g opacity="1" transform="matrix(1,0,0,1,0,0)"><path fill="rgb(132,132,250)" fill-opacity="1" d=" M462.0660095214844,411.5660095214844 C462.0660095214844,411.5660095214844 503.51800537109375,426.2959899902344 503.51800537109375,426.2959899902344 C503.51800537109375,426.2959899902344 563.958984375,447.77398681640625 563.958984375,447.77398681640625"></path><path stroke-linecap="round" stroke-linejoin="round" fill-opacity="0" stroke="rgb(32,40,112)" stroke-opacity="1" stroke-width="2" d=" M462.0660095214844,411.5660095214844 C462.0660095214844,411.5660095214844 503.51800537109375,426.2959899902344 503.51800537109375,426.2959899902344 C503.51800537109375,426.2959899902344 563.958984375,447.77398681640625 563.958984375,447.77398681640625"></path></g><g opacity="1" transform="matrix(1,0,0,1,0,0)"><path fill="rgb(132,132,250)" fill-opacity="1" d=" M642.4249877929688,339.5920104980469 C642.4249877929688,339.5920104980469 520.3820190429688,291.27099609375 520.3820190429688,291.27099609375"></path><path stroke-linecap="round" stroke-linejoin="round" fill-opacity="0" stroke="rgb(32,40,112)" stroke-opacity="1" stroke-width="2" d=" M642.4249877929688,339.5920104980469 C642.4249877929688,339.5920104980469 520.3820190429688,291.27099609375 520.3820190429688,291.27099609375"></path></g><g opacity="1" transform="matrix(1,0,0,1,0,0)"><path fill="rgb(255,255,255)" fill-opacity="1" d=" M384.9599914550781,267.9119873046875 C404.3609924316406,281.1659851074219 409.343994140625,307.63800048828125 396.0899963378906,327.03900146484375 C382.83599853515625,346.44000244140625 356.364013671875,351.4230041503906 336.9630126953125,338.16900634765625 C317.56201171875,324.9150085449219 312.5790100097656,298.4429931640625 325.8330078125,279.0419921875 C339.0870056152344,259.6409912109375 365.5589904785156,254.6580047607422 384.9599914550781,267.9119873046875z"></path></g><g opacity="1" transform="matrix(1,0,0,1,0,0)"><path fill="rgb(132,132,250)" fill-opacity="1" d=" M305.57598876953125,357.26800537109375 C350.5459899902344,375.0299987792969 462.0660095214844,411.5660095214844 462.0660095214844,411.5660095214844 C462.0660095214844,411.5660095214844 492.9649963378906,384.1860046386719 509.0899963378906,345.6719970703125 C521.9149780273438,315.0400085449219 520.3820190429688,291.27099609375 520.3820190429688,291.27099609375 C520.3820190429688,291.27099609375 490.6610107421875,272.6499938964844 437.9320068359375,253.781005859375 C389.9469909667969,236.60899353027344 372.47198486328125,232.83399963378906 357.58099365234375,232.83399963378906"></path><path stroke-linecap="round" stroke-linejoin="round" fill-opacity="0" stroke="rgb(32,40,112)" stroke-opacity="1" stroke-width="2" d=" M305.57598876953125,357.26800537109375 C350.5459899902344,375.0299987792969 462.0660095214844,411.5660095214844 462.0660095214844,411.5660095214844 C462.0660095214844,411.5660095214844 492.9649963378906,384.1860046386719 509.0899963378906,345.6719970703125 C521.9149780273438,315.0400085449219 520.3820190429688,291.27099609375 520.3820190429688,291.27099609375 C520.3820190429688,291.27099609375 490.6610107421875,272.6499938964844 437.9320068359375,253.781005859375 C389.9469909667969,236.60899353027344 372.47198486328125,232.83399963378906 357.58099365234375,232.83399963378906"></path></g></g><g transform="matrix(1,0,0,1,800,799.9999389648438)" opacity="1" style="display: block;"><g opacity="1" transform="matrix(1,0,0,1,0,0)"><path fill="rgb(255,255,255)" fill-opacity="1" d=" M265.73199462890625,404.97198486328125 C265.73199462890625,431.74200439453125 287.4339904785156,453.4429931640625 314.2040100097656,453.4429931640625 C340.9739990234375,453.4429931640625 362.67498779296875,431.74200439453125 362.67498779296875,404.97198486328125 C362.67498779296875,378.2019958496094 340.9739990234375,356.5 314.2040100097656,356.5 C287.4339904785156,356.5 265.73199462890625,378.2019958496094 265.73199462890625,404.97198486328125z"></path><path stroke-linecap="round" stroke-linejoin="round" fill-opacity="0" stroke="rgb(32,40,112)" stroke-opacity="1" stroke-width="2" d=" M265.73199462890625,404.97198486328125 C265.73199462890625,431.74200439453125 287.4339904785156,453.4429931640625 314.2040100097656,453.4429931640625 C340.9739990234375,453.4429931640625 362.67498779296875,431.74200439453125 362.67498779296875,404.97198486328125 C362.67498779296875,378.2019958496094 340.9739990234375,356.5 314.2040100097656,356.5 C287.4339904785156,356.5 265.73199462890625,378.2019958496094 265.73199462890625,404.97198486328125z"></path></g><g opacity="1" transform="matrix(1,0,0,1,0,0)"><path fill="rgb(255,255,255)" fill-opacity="1" d=" M133.61399841308594,447.5830078125 C108.68699645996094,454.8949890136719 105.55799865722656,453.968994140625 100.87000274658203,453.5429992675781 C95.38600158691406,453.04400634765625 93.88999938964844,447.55999755859375 93.88999938964844,447.55999755859375 C93.88999938964844,447.55999755859375 85.74700164794922,440.41400146484375 97.71199798583984,432.7699890136719 C134.84500122070312,409.0459899902344 172.3260040283203,397.2080078125 189.4429931640625,390.2279968261719 C200.45399475097656,385.7380065917969 286.74700927734375,360.57598876953125 305.57598876953125,357.26800537109375 C305.57598876953125,357.26800537109375 307.6499938964844,397.6700134277344 307.6499938964844,397.6700134277344 C307.6499938964844,397.6700134277344 312.8110046386719,453.4230041503906 312.8110046386719,453.4230041503906 C312.8110046386719,453.4230041503906 116.39600372314453,455.1709899902344 116.39600372314453,455.1709899902344 C107.6719970703125,450.9330139160156 105.83200073242188,439.2250061035156 118.78500366210938,436.34600830078125 C163.6529998779297,426.375 209.14999389648438,421.47198486328125 209.14999389648438,421.47198486328125"></path></g><g opacity="1" transform="matrix(1,0,0,1,0,0)"><path stroke-linecap="round" stroke-linejoin="round" fill-opacity="0" stroke="rgb(32,40,112)" stroke-opacity="1" stroke-width="2" d=" M312.8110046386719,453.4230041503906 C312.8110046386719,453.4230041503906 117.85399627685547,455.1709899902344 117.85399627685547,455.1709899902344 C116.81800079345703,455.1709899902344 115.78299713134766,454.9049987792969 114.92500305175781,454.322998046875 C107.71099853515625,449.4280090332031 109.35900115966797,438.2550048828125 121.70600128173828,435.4469909667969 C173.45199584960938,423.67999267578125 197.08099365234375,421.302001953125 197.08099365234375,421.302001953125"></path></g><g opacity="1" transform="matrix(1,0,0,1,0,0)"><path stroke-linecap="round" stroke-linejoin="round" fill-opacity="0" stroke="rgb(32,40,112)" stroke-opacity="1" stroke-width="2" d=" M113.19400024414062,453.00299072265625 C103.50399780273438,453.77801513671875 104.15299987792969,454.6610107421875 99.39700317382812,454.22900390625 C93.83399963378906,453.7229919433594 92.31600189208984,448.1600036621094 92.31600189208984,448.1600036621094 C92.31600189208984,448.1600036621094 84.05599975585938,440.9110107421875 96.19400024414062,433.156005859375 C133.86399841308594,409.0889892578125 171.88900756835938,397.0790100097656 189.2530059814453,389.99798583984375 C200.42300415039062,385.4429931640625 286.4750061035156,360.6239929199219 305.57598876953125,357.26800537109375"></path></g><g opacity="1" transform="matrix(1,0,0,1,0,0)"><path stroke-linecap="round" stroke-linejoin="round" fill-opacity="0" stroke="rgb(32,40,112)" stroke-opacity="1" stroke-width="2" d=" M95.22799682617188,452.5459899902344 C95.22799682617188,452.5459899902344 87.90699768066406,445.0679931640625 98.875,438.0880126953125 C109.84300231933594,431.1080017089844 188.11399841308594,401.1960144042969 188.11399841308594,401.1960144042969"></path></g></g><g transform="matrix(1,0,0,1,800,799.9999389648438)" opacity="1" style="display: block;"><g opacity="1" transform="matrix(1,0,0,1,0,0)"><path fill="rgb(255,255,255)" fill-opacity="1" d=" M654.3690185546875,405.5719909667969 C657.114013671875,387.8819885253906 644.9979858398438,371.3160095214844 627.3079833984375,368.5710144042969 C609.6179809570312,365.82598876953125 593.052001953125,377.9419860839844 590.3070068359375,395.6319885253906 C587.56201171875,413.3219909667969 599.677978515625,429.8890075683594 617.3679809570312,432.6340026855469 C635.0579833984375,435.3789978027344 651.6240234375,423.2619934082031 654.3690185546875,405.5719909667969z"></path></g><g opacity="1" transform="matrix(1,0,0,1,0,0)"><path fill="rgb(255,255,255)" fill-opacity="1" d=" M617.5670166015625,464.614990234375 C617.5670166015625,464.614990234375 315.3009948730469,453.3210144042969 315.3009948730469,453.3210144042969 C315.3009948730469,453.3210144042969 314.2040100097656,356.5 314.2040100097656,356.5 C314.2040100097656,356.5 623.2169799804688,336.3580017089844 623.2169799804688,336.3580017089844 C623.2169799804688,336.3580017089844 617.5670166015625,464.614990234375 617.5670166015625,464.614990234375z"></path></g><g opacity="1" transform="matrix(1,0,0,1,0,0)"><path fill="rgb(132,132,250)" fill-opacity="1" d=" M314.2040100097656,356.5 C314.2040100097656,356.5 561.6599731445312,340.3699951171875 561.6599731445312,340.3699951171875"></path><path stroke-linecap="round" stroke-linejoin="round" fill-opacity="0" stroke="rgb(32,40,112)" stroke-opacity="1" stroke-width="2" d=" M314.2040100097656,356.5 C314.2040100097656,356.5 561.6599731445312,340.3699951171875 561.6599731445312,340.3699951171875"></path></g><g opacity="1" transform="matrix(1,0,0,1,0,0)"><path fill="rgb(132,132,250)" fill-opacity="1" d=" M618.27197265625,465.17498779296875 C618.27197265625,465.17498779296875 315.3009948730469,453.3210144042969 315.3009948730469,453.3210144042969"></path><path stroke-linecap="round" stroke-linejoin="round" fill-opacity="0" stroke="rgb(32,40,112)" stroke-opacity="1" stroke-width="2" d=" M618.27197265625,465.17498779296875 C618.27197265625,465.17498779296875 315.3009948730469,453.3210144042969 315.3009948730469,453.3210144042969"></path></g></g><g transform="matrix(1,0,0,1,800,799.9999389648438)" opacity="1" style="display: block;"><g opacity="1" transform="matrix(1,0,0,1,0,0)"><path fill="rgb(255,255,255)" fill-opacity="1" d=" M207.64199829101562,363.1860046386719 C207.64199829101562,363.1860046386719 49.13199996948242,417.9840087890625 49.13199996948242,417.9840087890625 C49.13199996948242,417.9840087890625 -46.395999908447266,451.92999267578125 -46.395999908447266,451.92999267578125 C-46.395999908447266,451.92999267578125 -89.7750015258789,331.281005859375 -89.7750015258789,331.281005859375 C-89.7750015258789,331.281005859375 172.197998046875,228.08200073242188 172.197998046875,228.08200073242188 C172.197998046875,228.08200073242188 207.64199829101562,363.1860046386719 207.64199829101562,363.1860046386719z"></path></g><g opacity="1" transform="matrix(1,0,0,1,0,0)"><path fill="rgb(132,132,250)" fill-opacity="1" d=" M90.58399963378906,403.2539978027344 C90.58399963378906,403.2539978027344 49.13199996948242,417.9840087890625 49.13199996948242,417.9840087890625 C49.13199996948242,417.9840087890625 -11.309000015258789,439.4620056152344 -11.309000015258789,439.4620056152344"></path><path stroke-linecap="round" stroke-linejoin="round" fill-opacity="0" stroke="rgb(32,40,112)" stroke-opacity="1" stroke-width="2" d=" M90.58399963378906,403.2539978027344 C90.58399963378906,403.2539978027344 49.13199996948242,417.9840087890625 49.13199996948242,417.9840087890625 C49.13199996948242,417.9840087890625 -11.309000015258789,439.4620056152344 -11.309000015258789,439.4620056152344"></path></g><g opacity="1" transform="matrix(1,0,0,1,0,0)"><path fill="rgb(132,132,250)" fill-opacity="1" d=" M-89.7750015258789,331.281005859375 C-89.7750015258789,331.281005859375 172.197998046875,228.08200073242188 172.197998046875,228.08200073242188"></path><path stroke-linecap="round" stroke-linejoin="round" fill-opacity="0" stroke="rgb(32,40,112)" stroke-opacity="1" stroke-width="2" d=" M-89.7750015258789,331.281005859375 C-89.7750015258789,331.281005859375 172.197998046875,228.08200073242188 172.197998046875,228.08200073242188"></path></g><g opacity="1" transform="matrix(1,0,0,1,0,0)"><path fill="rgb(132,132,250)" fill-opacity="1" d=" M167.69000244140625,259.6000061035156 C148.28900146484375,272.85400390625 143.30599975585938,299.32598876953125 156.55999755859375,318.72698974609375 C169.81399536132812,338.12799072265625 196.28599548339844,343.1109924316406 215.68699645996094,329.85699462890625 C235.08799743652344,316.6029968261719 240.0709991455078,290.1310119628906 226.81700134277344,270.7300109863281 C213.56300354003906,251.32899475097656 187.09100341796875,246.3459930419922 167.69000244140625,259.6000061035156z"></path></g><g opacity="1" transform="matrix(1,0,0,1,0,0)"><path fill="rgb(132,132,250)" fill-opacity="1" d=" M207.64199829101562,363.1860046386719 C162.6719970703125,380.947998046875 90.58399963378906,403.2539978027344 90.58399963378906,403.2539978027344 C90.58399963378906,403.2539978027344 59.685001373291016,375.875 43.560001373291016,337.3609924316406 C30.735000610351562,306.72900390625 32.268001556396484,282.9599914550781 32.268001556396484,282.9599914550781 C32.268001556396484,282.9599914550781 55.935001373291016,270.5220031738281 111.23500061035156,248.5850067138672 C162.9239959716797,228.0800018310547 174.16600036621094,227.2899932861328 174.16600036621094,227.2899932861328"></path><path stroke-linecap="round" stroke-linejoin="round" fill-opacity="0" stroke="rgb(32,40,112)" stroke-opacity="1" stroke-width="2" d=" M207.64199829101562,363.1860046386719 C162.6719970703125,380.947998046875 90.58399963378906,403.2539978027344 90.58399963378906,403.2539978027344 C90.58399963378906,403.2539978027344 59.685001373291016,375.875 43.560001373291016,337.3609924316406 C30.735000610351562,306.72900390625 32.268001556396484,282.9599914550781 32.268001556396484,282.9599914550781 C32.268001556396484,282.9599914550781 55.935001373291016,270.5220031738281 111.23500061035156,248.5850067138672 C162.9239959716797,228.0800018310547 174.16600036621094,227.2899932861328 174.16600036621094,227.2899932861328"></path></g></g><g transform="matrix(1,0,0,1,800,799.9999389648438)" opacity="1" style="display: block;"><g opacity="1" transform="matrix(1,0,0,1,0,0)"><path fill="rgb(255,255,255)" fill-opacity="1" d=" M286.6679992675781,406.34600830078125 C285.9410095214844,433.1059875488281 263.6570129394531,454.2099914550781 236.89700317382812,453.4830017089844 C210.13699340820312,452.7560119628906 189.0330047607422,430.47198486328125 189.75999450683594,403.7120056152344 C190.48699951171875,376.9519958496094 212.77099609375,355.8479919433594 239.531005859375,356.57501220703125 C266.2909851074219,357.302001953125 287.3949890136719,379.58599853515625 286.6679992675781,406.34600830078125z"></path><path stroke-linecap="round" stroke-linejoin="round" fill-opacity="0" stroke="rgb(32,40,112)" stroke-opacity="1" stroke-width="2" d=" M286.6679992675781,406.34600830078125 C285.9410095214844,433.1059875488281 263.6570129394531,454.2099914550781 236.89700317382812,453.4830017089844 C210.13699340820312,452.7560119628906 189.0330047607422,430.47198486328125 189.75999450683594,403.7120056152344 C190.48699951171875,376.9519958496094 212.77099609375,355.8479919433594 239.531005859375,356.57501220703125 C266.2909851074219,357.302001953125 287.3949890136719,379.58599853515625 286.6679992675781,406.34600830078125z"></path></g><g opacity="1" transform="matrix(1,0,0,1,0,0)"><path fill="rgb(255,255,255)" fill-opacity="1" d=" M417.5790100097656,452.5299987792969 C442.2980041503906,460.5159912109375 445.4519958496094,459.6759948730469 450.1499938964844,459.37701416015625 C455.6449890136719,459.02801513671875 457.28900146484375,453.5870056152344 457.28900146484375,453.5870056152344 C457.28900146484375,453.5870056152344 465.62298583984375,446.66400146484375 453.8699951171875,438.697998046875 C417.39599609375,413.9750061035156 380.25,401.12200927734375 363.3290100097656,393.67999267578125 C352.4440002441406,388.89300537109375 266.8659973144531,361.3949890136719 248.13400268554688,357.5769958496094 C248.13400268554688,357.5769958496094 244.96400451660156,397.9079895019531 244.96400451660156,397.9079895019531 C244.96400451660156,397.9079895019531 238.2899932861328,453.5010070800781 238.2899932861328,453.5010070800781 C238.2899932861328,453.5010070800781 434.5849914550781,460.5830078125 434.5849914550781,460.5830078125 C443.4209899902344,456.5840148925781 445.5790100097656,444.9289855957031 432.7090148925781,441.70001220703125 C388.12799072265625,430.5140075683594 342.7799987792969,424.37701416015625 342.7799987792969,424.37701416015625"></path></g><g opacity="1" transform="matrix(1,0,0,1,0,0)"><path stroke-linecap="round" stroke-linejoin="round" fill-opacity="0" stroke="rgb(32,40,112)" stroke-opacity="1" stroke-width="2" d=" M238.2899932861328,453.5010070800781 C238.2899932861328,453.5010070800781 433.12701416015625,460.5429992675781 433.12701416015625,460.5429992675781 C434.1629943847656,460.5710144042969 435.20599365234375,460.3330078125 436.0790100097656,459.7749938964844 C443.4230041503906,455.0780029296875 442.0790100097656,443.864013671875 429.81298828125,440.72198486328125 C378.406005859375,427.5539855957031 354.8500061035156,424.5350036621094 354.8500061035156,424.5350036621094"></path></g><g opacity="1" transform="matrix(1,0,0,1,0,0)"><path stroke-linecap="round" stroke-linejoin="round" fill-opacity="0" stroke="rgb(32,40,112)" stroke-opacity="1" stroke-width="2" d=" M437.843994140625,458.50201416015625 C447.5090026855469,459.5400085449219 446.8370056152344,460.406005859375 451.6029968261719,460.1029968261719 C457.1780090332031,459.7489929199219 458.84600830078125,454.22900390625 458.84600830078125,454.22900390625 C458.84600830078125,454.22900390625 467.3009948730469,447.2070007324219 455.37799072265625,439.125 C418.3760070800781,414.04400634765625 380.6910095214844,401.0050048828125 363.5260009765625,393.4549865722656 C352.4840087890625,388.5979919433594 267.1369934082031,361.45001220703125 248.13400268554688,357.5769958496094"></path></g><g opacity="1" transform="matrix(1,0,0,1,0,0)"><path stroke-linecap="round" stroke-linejoin="round" fill-opacity="0" stroke="rgb(32,40,112)" stroke-opacity="1" stroke-width="2" d=" M455.8160095214844,458.53399658203125 C455.8160095214844,458.53399658203125 463.3370056152344,451.2569885253906 452.56298828125,443.98199462890625 C441.78900146484375,436.7070007324219 364.3599853515625,404.67999267578125 364.3599853515625,404.67999267578125"></path></g></g><g transform="matrix(1,0,0,1,800,799.9999389648438)" opacity="1" style="display: block;"><g opacity="1" transform="matrix(1,0,0,1,0,0)"><path fill="rgb(255,255,255)" fill-opacity="1" d=" M-133.40499877929688,400.4110107421875 C-137.88999938964844,365.22100830078125 -112.9990005493164,333.0589904785156 -77.80899810791016,328.5740051269531 C-42.61899948120117,324.0889892578125 -10.456000328063965,348.9800109863281 -5.9710001945495605,384.1700134277344 C-1.4859999418258667,419.3599853515625 -26.37700080871582,451.52301025390625 -61.56700134277344,456.00799560546875 C-96.75700378417969,460.4930114746094 -128.9199981689453,435.60101318359375 -133.40499877929688,400.4110107421875z"></path><path stroke-linecap="round" stroke-linejoin="round" fill-opacity="0" stroke="rgb(32,40,112)" stroke-opacity="1" stroke-width="2" d=" M-133.40499877929688,400.4110107421875 C-137.88999938964844,365.22100830078125 -112.9990005493164,333.0589904785156 -77.80899810791016,328.5740051269531 C-42.61899948120117,324.0889892578125 -10.456000328063965,348.9800109863281 -5.9710001945495605,384.1700134277344 C-1.4859999418258667,419.3599853515625 -26.37700080871582,451.52301025390625 -61.56700134277344,456.00799560546875 C-96.75700378417969,460.4930114746094 -128.9199981689453,435.60101318359375 -133.40499877929688,400.4110107421875z"></path></g><g opacity="1" transform="matrix(1,0,0,1,0,0)"><path fill="rgb(255,255,255)" fill-opacity="1" d=" M-66.65799713134766,456.4100036621094 C-66.65799713134766,456.4100036621094 235.80299377441406,453.33099365234375 235.80299377441406,453.33099365234375 C235.80299377441406,453.33099365234375 239.531005859375,356.57501220703125 239.531005859375,356.57501220703125 C239.531005859375,356.57501220703125 -68.8219985961914,328.0459899902344 -68.8219985961914,328.0459899902344 C-68.8219985961914,328.0459899902344 -66.65799713134766,456.4100036621094 -66.65799713134766,456.4100036621094z"></path></g><g opacity="1" transform="matrix(1,0,0,1,0,0)"><path fill="rgb(132,132,250)" fill-opacity="1" d=" M239.531005859375,356.57501220703125 C239.531005859375,356.57501220703125 -68.8219985961914,328.0459899902344 -68.8219985961914,328.0459899902344"></path><path stroke-linecap="round" stroke-linejoin="round" fill-opacity="0" stroke="rgb(32,40,112)" stroke-opacity="1" stroke-width="2" d=" M239.531005859375,356.57501220703125 C239.531005859375,356.57501220703125 -68.8219985961914,328.0459899902344 -68.8219985961914,328.0459899902344"></path></g><g opacity="1" transform="matrix(1,0,0,1,0,0)"><path fill="rgb(132,132,250)" fill-opacity="1" d=" M-67.37699890136719,456.95001220703125 C-67.37699890136719,456.95001220703125 235.80299377441406,453.33099365234375 235.80299377441406,453.33099365234375"></path><path stroke-linecap="round" stroke-linejoin="round" fill-opacity="0" stroke="rgb(32,40,112)" stroke-opacity="1" stroke-width="2" d=" M-67.37699890136719,456.95001220703125 C-67.37699890136719,456.95001220703125 235.80299377441406,453.33099365234375 235.80299377441406,453.33099365234375"></path></g></g><g transform="matrix(1,0,0,1,800,799.9999389648438)" opacity="1" style="display: block;"><g opacity="1" transform="matrix(1,0,0,1,0,0)"><path fill="rgb(32,40,112)" fill-opacity="1" d=" M285.00299072265625,199.6230010986328 C285.00299072265625,199.6230010986328 308.72900390625,166.57400512695312 326.3500061035156,160.6540069580078 C348.42498779296875,153.23699951171875 345.00799560546875,177.88699340820312 345.00799560546875,177.88699340820312 C345.00799560546875,177.88699340820312 342.2449951171875,186.94400024414062 342.2449951171875,186.94400024414062 C342.2449951171875,186.94400024414062 285.00299072265625,199.6230010986328 285.00299072265625,199.6230010986328z"></path><path stroke-linecap="round" stroke-linejoin="round" fill-opacity="0" stroke="rgb(32,40,112)" stroke-opacity="1" stroke-width="2" d=" M285.00299072265625,199.6230010986328 C285.00299072265625,199.6230010986328 308.72900390625,166.57400512695312 326.3500061035156,160.6540069580078 C348.42498779296875,153.23699951171875 345.00799560546875,177.88699340820312 345.00799560546875,177.88699340820312 C345.00799560546875,177.88699340820312 342.2449951171875,186.94400024414062 342.2449951171875,186.94400024414062 C342.2449951171875,186.94400024414062 285.00299072265625,199.6230010986328 285.00299072265625,199.6230010986328z"></path></g><g opacity="1" transform="matrix(1,0,0,1,0,0)"><path fill="rgb(255,255,255)" fill-opacity="1" d=" M334.4519958496094,337.75201416015625 C356.18701171875,331.2860107421875 387.4490051269531,318.54998779296875 401.70599365234375,296.2569885253906 C426.9530029296875,256.7799987792969 388.802001953125,181.85000610351562 348.4469909667969,175.13299560546875 C331.8290100097656,172.36700439453125 338.37298583984375,175.31100463867188 298.5450134277344,192.72999572753906 C270.7340087890625,204.89300537109375 195.10400390625,204.99200439453125 187.83799743652344,256.4330139160156 C179.86099243164062,312.9070129394531 225.67300415039062,345.2090148925781 267.18701171875,349.54400634765625 C295.5409851074219,352.5050048828125 316.2699890136719,343.1610107421875 334.4519958496094,337.75201416015625z"></path></g><g opacity="1" transform="matrix(1,0,0,1,0,0)"><path fill="rgb(255,255,255)" fill-opacity="1" d=" M334.4519958496094,337.75201416015625 C356.18701171875,331.2860107421875 387.4490051269531,318.54998779296875 401.70599365234375,296.2569885253906 C426.9530029296875,256.7799987792969 388.802001953125,181.85000610351562 348.4469909667969,175.13299560546875 C331.8290100097656,172.36700439453125 338.37298583984375,175.31100463867188 298.5450134277344,192.72999572753906 C270.7340087890625,204.89300537109375 195.10400390625,204.99200439453125 187.83799743652344,256.4330139160156 C179.86099243164062,312.9070129394531 225.67300415039062,345.2090148925781 267.18701171875,349.54400634765625 C267.18701171875,349.54400634765625 298.3710021972656,351.55999755859375 315.0799865722656,343.6400146484375"></path><path stroke-linecap="round" stroke-linejoin="round" fill-opacity="0" stroke="rgb(32,40,112)" stroke-opacity="1" stroke-width="2" d=" M334.4519958496094,337.75201416015625 C356.18701171875,331.2860107421875 387.4490051269531,318.54998779296875 401.70599365234375,296.2569885253906 C426.9530029296875,256.7799987792969 388.802001953125,181.85000610351562 348.4469909667969,175.13299560546875 C331.8290100097656,172.36700439453125 338.37298583984375,175.31100463867188 298.5450134277344,192.72999572753906 C270.7340087890625,204.89300537109375 195.10400390625,204.99200439453125 187.83799743652344,256.4330139160156 C179.86099243164062,312.9070129394531 225.67300415039062,345.2090148925781 267.18701171875,349.54400634765625 C267.18701171875,349.54400634765625 298.3710021972656,351.55999755859375 315.0799865722656,343.6400146484375"></path></g><g opacity="1" transform="matrix(1,0,0,1,0,0)"><g opacity="1" transform="matrix(1,0,0,1,0,0)"><path fill="rgb(32,40,112)" fill-opacity="1" d=" M325.9020080566406,254.2270050048828 C322.7229919433594,255.61599731445312 326.0299987792969,262.885986328125 329.8399963378906,271.60400390625 C333.6499938964844,280.3219909667969 336.5199890136719,287.18499755859375 339.6990051269531,285.7959899902344 C342.87799072265625,284.4070129394531 342.36700439453125,276.2130126953125 338.5570068359375,267.4949951171875 C334.74700927734375,258.7770080566406 329.08099365234375,252.83799743652344 325.9020080566406,254.2270050048828z"></path></g><g opacity="1" transform="matrix(1,0,0,1,0,0)"><path fill="rgb(32,40,112)" fill-opacity="1" d=" M299.8059997558594,200.093994140625 C296.4070129394531,202.08599853515625 300.302001953125,207.64199829101562 304.95001220703125,215.572998046875 C309.5979919433594,223.50399780273438 311.9540100097656,229.98599243164062 315.3529968261719,227.99400329589844 C318.75201416015625,226.0019989013672 317.33599853515625,218.45599365234375 312.68798828125,210.52499389648438 C308.0400085449219,202.593994140625 303.2049865722656,198.1020050048828 299.8059997558594,200.093994140625z"></path></g><g opacity="1" transform="matrix(1,0,0,1,0,0)"><path fill="rgb(255,255,255)" fill-opacity="1" d=" M307.8739929199219,285.9750061035156 C307.8739929199219,285.9750061035156 308.29998779296875,272.4830017089844 296.0989990234375,266.0140075683594"></path><path stroke-linecap="round" stroke-linejoin="round" fill-opacity="0" stroke="rgb(32,40,112)" stroke-opacity="1" stroke-width="2" d=" M307.8739929199219,285.9750061035156 C307.8739929199219,285.9750061035156 308.29998779296875,272.4830017089844 296.0989990234375,266.0140075683594"></path></g><g opacity="1" transform="matrix(1,0,0,1,0,0)"><path fill="rgb(255,255,255)" fill-opacity="1" d=" M285.8760070800781,235.03900146484375 C285.8760070800781,235.03900146484375 289.3399963378906,225.99400329589844 282.7850036621094,216.9499969482422"></path><path stroke-linecap="round" stroke-linejoin="round" fill-opacity="0" stroke="rgb(32,40,112)" stroke-opacity="1" stroke-width="2" d=" M285.8760070800781,235.03900146484375 C285.8760070800781,235.03900146484375 289.3399963378906,225.99400329589844 282.7850036621094,216.9499969482422"></path></g><g opacity="1" transform="matrix(1,0,0,1,0,0)"><path fill="rgb(255,255,255)" fill-opacity="1" d=" M286.1570129394531,249.30799865722656 C281.08099365234375,247.9499969482422 279.09698486328125,243.7969970703125 274.5190124511719,244.01800537109375 C269.0159912109375,244.2830047607422 265.4049987792969,252.4510040283203 267.19500732421875,257.9169921875"></path><path stroke-linecap="round" stroke-linejoin="round" fill-opacity="0" stroke="rgb(32,40,112)" stroke-opacity="1" stroke-width="2" d=" M286.1570129394531,249.30799865722656 C281.08099365234375,247.9499969482422 279.09698486328125,243.7969970703125 274.5190124511719,244.01800537109375 C269.0159912109375,244.2830047607422 265.4049987792969,252.4510040283203 267.19500732421875,257.9169921875"></path></g><g opacity="1" transform="matrix(1,0,0,1,0,0)"><path fill="rgb(255,255,255)" fill-opacity="1" d=" M250.9949951171875,277.48699951171875 C248.0500030517578,278.5669860839844 242.4040069580078,275.80499267578125 240.08099365234375,269.468994140625 C237.75799560546875,263.13299560546875 244.13800048828125,265.6210021972656 247.08299255371094,264.5409851074219 C250.0279998779297,263.46099853515625 250.875,258.125 253.8719940185547,263.8089904785156 C257.0199890136719,269.77899169921875 253.94000244140625,276.4070129394531 250.9949951171875,277.48699951171875z"></path><path stroke-linecap="round" stroke-linejoin="round" fill-opacity="0" stroke="rgb(32,40,112)" stroke-opacity="1" stroke-width="2" d=" M250.9949951171875,277.48699951171875 C248.0500030517578,278.5669860839844 242.4040069580078,275.80499267578125 240.08099365234375,269.468994140625 C237.75799560546875,263.13299560546875 244.13800048828125,265.6210021972656 247.08299255371094,264.5409851074219 C250.0279998779297,263.46099853515625 250.875,258.125 253.8719940185547,263.8089904785156 C257.0199890136719,269.77899169921875 253.94000244140625,276.4070129394531 250.9949951171875,277.48699951171875z"></path></g></g><g opacity="1" transform="matrix(1,0,0,1,0,0)"><g opacity="1" transform="matrix(1,0,0,1,0,0)"><path fill="rgb(32,40,112)" fill-opacity="1" d=" M336.4070129394531,325.364013671875 C336.4070129394531,325.364013671875 341.00201416015625,308.7250061035156 347.5580139160156,298.2049865722656 C354.114013671875,287.68499755859375 370.3299865722656,279.70599365234375 370.3299865722656,279.70599365234375 C370.3299865722656,279.70599365234375 341.7919921875,256.67498779296875 325.489990234375,208.67999267578125 C314.4049987792969,176.04299926757812 324.7829895019531,142.9600067138672 355.0169982910156,146.18899536132812 C411.42999267578125,152.21299743652344 416.8479919433594,217.65699768066406 416.8479919433594,217.65699768066406 C416.8479919433594,217.65699768066406 442.4830017089844,245.4029998779297 435.9809875488281,288.625 C429.47900390625,331.84698486328125 389.5270080566406,347.7590026855469 380.1520080566406,347.10400390625 C370.7770080566406,346.4490051269531 336.4070129394531,325.364013671875 336.4070129394531,325.364013671875z"></path><path stroke-linecap="round" stroke-linejoin="round" fill-opacity="0" stroke="rgb(32,40,112)" stroke-opacity="1" stroke-width="2" d=" M336.4070129394531,325.364013671875 C336.4070129394531,325.364013671875 341.00201416015625,308.7250061035156 347.5580139160156,298.2049865722656 C354.114013671875,287.68499755859375 370.3299865722656,279.70599365234375 370.3299865722656,279.70599365234375 C370.3299865722656,279.70599365234375 341.7919921875,256.67498779296875 325.489990234375,208.67999267578125 C314.4049987792969,176.04299926757812 324.7829895019531,142.9600067138672 355.0169982910156,146.18899536132812 C411.42999267578125,152.21299743652344 416.8479919433594,217.65699768066406 416.8479919433594,217.65699768066406 C416.8479919433594,217.65699768066406 442.4830017089844,245.4029998779297 435.9809875488281,288.625 C429.47900390625,331.84698486328125 389.5270080566406,347.7590026855469 380.1520080566406,347.10400390625 C370.7770080566406,346.4490051269531 336.4070129394531,325.364013671875 336.4070129394531,325.364013671875z"></path></g></g><g opacity="1" transform="matrix(1,0,0,1,0,0)"><g opacity="1" transform="matrix(1,0,0,1,0,0)"><path fill="rgb(255,255,255)" fill-opacity="1" d=" M337.9880065917969,316.97900390625 C337.9880065917969,316.97900390625 366.8840026855469,313.35400390625 375.34600830078125,327.8160095214844 C382.7449951171875,340.46099853515625 378.3349914550781,354.87701416015625 360.4419860839844,361.78399658203125 C341.52099609375,369.0880126953125 321.89898681640625,361.8949890136719 317.8210144042969,353.76300048828125 C313.989990234375,346.125 316.7909851074219,339.49700927734375 320.81500244140625,334.4389953613281"></path><path stroke-linecap="round" stroke-linejoin="round" fill-opacity="0" stroke="rgb(32,40,112)" stroke-opacity="1" stroke-width="2" d=" M337.9880065917969,316.97900390625 C337.9880065917969,316.97900390625 366.8840026855469,313.35400390625 375.34600830078125,327.8160095214844 C382.7449951171875,340.46099853515625 378.3349914550781,354.87701416015625 360.4419860839844,361.78399658203125 C341.52099609375,369.0880126953125 321.89898681640625,361.8949890136719 317.8210144042969,353.76300048828125 C313.989990234375,346.125 316.7909851074219,339.49700927734375 320.81500244140625,334.4389953613281"></path></g><g opacity="1" transform="matrix(1,0,0,1,0,0)"><path fill="rgb(255,255,255)" fill-opacity="1" d=" M358.1189880371094,346.2099914550781 C358.1189880371094,346.2099914550781 361.3269958496094,333.1990051269531 339.44500732421875,334.68701171875 C339.44500732421875,334.68701171875 347.7659912109375,340.177001953125 347.1520080566406,346.53900146484375"></path><path stroke-linecap="round" stroke-linejoin="round" fill-opacity="0" stroke="rgb(32,40,112)" stroke-opacity="1" stroke-width="2" d=" M358.1189880371094,346.2099914550781 C358.1189880371094,346.2099914550781 361.3269958496094,333.1990051269531 339.44500732421875,334.68701171875 C339.44500732421875,334.68701171875 347.7659912109375,340.177001953125 347.1520080566406,346.53900146484375"></path></g></g></g><g transform="matrix(1,0,0,1,800,800.0000610351562)" opacity="1" style="display: block;"><g opacity="1" transform="matrix(1,0,0,1,0,0)"><g opacity="1" transform="matrix(1,0,0,1,0,0)"><path fill="rgb(32,40,112)" fill-opacity="1" d=" M-411.3630065917969,368.18798828125 C-411.3630065917969,368.18798828125 182.62100219726562,368.18798828125 182.62100219726562,368.18798828125 C197.67599487304688,368.18798828125 207.89999389648438,355.9840087890625 205.45799255371094,340.9289855957031 C205.45799255371094,340.9289855957031 155.12100219726562,30.663999557495117 155.12100219726562,30.663999557495117 C152.6790008544922,15.609000205993652 138.4949951171875,3.4059998989105225 123.44000244140625,3.4059998989105225 C123.44000244140625,3.4059998989105225 -470.54400634765625,3.4059998989105225 -470.54400634765625,3.4059998989105225 C-485.5989990234375,3.4059998989105225 -495.822998046875,15.609000205993652 -493.3810119628906,30.663999557495117 C-493.3810119628906,30.663999557495117 -443.04400634765625,340.9289855957031 -443.04400634765625,340.9289855957031 C-440.60198974609375,355.9840087890625 -426.4179992675781,368.18798828125 -411.3630065917969,368.18798828125z"></path><path stroke-linecap="round" stroke-linejoin="round" fill-opacity="0" stroke="rgb(32,40,112)" stroke-opacity="1" stroke-width="2" d=" M-411.3630065917969,368.18798828125 C-411.3630065917969,368.18798828125 182.62100219726562,368.18798828125 182.62100219726562,368.18798828125 C197.67599487304688,368.18798828125 207.89999389648438,355.9840087890625 205.45799255371094,340.9289855957031 C205.45799255371094,340.9289855957031 155.12100219726562,30.663999557495117 155.12100219726562,30.663999557495117 C152.6790008544922,15.609000205993652 138.4949951171875,3.4059998989105225 123.44000244140625,3.4059998989105225 C123.44000244140625,3.4059998989105225 -470.54400634765625,3.4059998989105225 -470.54400634765625,3.4059998989105225 C-485.5989990234375,3.4059998989105225 -495.822998046875,15.609000205993652 -493.3810119628906,30.663999557495117 C-493.3810119628906,30.663999557495117 -443.04400634765625,340.9289855957031 -443.04400634765625,340.9289855957031 C-440.60198974609375,355.9840087890625 -426.4179992675781,368.18798828125 -411.3630065917969,368.18798828125z"></path></g><g opacity="1" transform="matrix(1,0,0,1,0,0)"><path fill="rgb(132,132,250)" fill-opacity="1" d=" M-423.5409851074219,368.18798828125 C-423.5409851074219,368.18798828125 170.4429931640625,368.18798828125 170.4429931640625,368.18798828125 C185.4980010986328,368.18798828125 195.7209930419922,355.9840087890625 193.2790069580078,340.9289855957031 C193.2790069580078,340.9289855957031 142.9429931640625,30.663999557495117 142.9429931640625,30.663999557495117 C140.50100708007812,15.609000205993652 126.31700134277344,3.4059998989105225 111.26200103759766,3.4059998989105225 C111.26200103759766,3.4059998989105225 -482.7229919433594,3.4059998989105225 -482.7229919433594,3.4059998989105225 C-497.77801513671875,3.4059998989105225 -508.0010070800781,15.609000205993652 -505.5589904785156,30.663999557495117 C-505.5589904785156,30.663999557495117 -455.22198486328125,340.9289855957031 -455.22198486328125,340.9289855957031 C-452.7799987792969,355.9840087890625 -438.59600830078125,368.18798828125 -423.5409851074219,368.18798828125z"></path><path stroke-linecap="round" stroke-linejoin="round" fill-opacity="0" stroke="rgb(32,40,112)" stroke-opacity="1" stroke-width="2" d=" M-423.5409851074219,368.18798828125 C-423.5409851074219,368.18798828125 170.4429931640625,368.18798828125 170.4429931640625,368.18798828125 C185.4980010986328,368.18798828125 195.7209930419922,355.9840087890625 193.2790069580078,340.9289855957031 C193.2790069580078,340.9289855957031 142.9429931640625,30.663999557495117 142.9429931640625,30.663999557495117 C140.50100708007812,15.609000205993652 126.31700134277344,3.4059998989105225 111.26200103759766,3.4059998989105225 C111.26200103759766,3.4059998989105225 -482.7229919433594,3.4059998989105225 -482.7229919433594,3.4059998989105225 C-497.77801513671875,3.4059998989105225 -508.0010070800781,15.609000205993652 -505.5589904785156,30.663999557495117 C-505.5589904785156,30.663999557495117 -455.22198486328125,340.9289855957031 -455.22198486328125,340.9289855957031 C-452.7799987792969,355.9840087890625 -438.59600830078125,368.18798828125 -423.5409851074219,368.18798828125z"></path></g></g><g opacity="1" transform="matrix(1,0,0,1,0,0)"><g opacity="1" transform="matrix(1,0,0,1,0,0)"><path fill="rgb(32,40,112)" fill-opacity="1" d=" M-280.60101318359375,452.96099853515625 C-280.60101318359375,452.96099853515625 -164.14500427246094,452.96099853515625 -164.14500427246094,452.96099853515625 C-164.14500427246094,452.96099853515625 -73.93499755859375,258.614013671875 -73.93499755859375,258.614013671875 C-73.93499755859375,258.614013671875 -77.48699951171875,238.3159942626953 -77.48699951171875,238.3159942626953 C-77.48699951171875,238.3159942626953 -280.60101318359375,452.96099853515625 -280.60101318359375,452.96099853515625z"></path><path stroke-linecap="round" stroke-linejoin="round" fill-opacity="0" stroke="rgb(32,40,112)" stroke-opacity="1" stroke-width="2" d=" M-280.60101318359375,452.96099853515625 C-280.60101318359375,452.96099853515625 -164.14500427246094,452.96099853515625 -164.14500427246094,452.96099853515625 C-164.14500427246094,452.96099853515625 -73.93499755859375,258.614013671875 -73.93499755859375,258.614013671875 C-73.93499755859375,258.614013671875 -77.48699951171875,238.3159942626953 -77.48699951171875,238.3159942626953 C-77.48699951171875,238.3159942626953 -280.60101318359375,452.96099853515625 -280.60101318359375,452.96099853515625z"></path></g><g opacity="1" transform="matrix(1,0,0,1,0,0)"><path fill="rgb(132,132,250)" fill-opacity="1" d=" M-191.1529998779297,231.72000122070312 C-191.1529998779297,231.72000122070312 -294.302001953125,452.96099853515625 -294.302001953125,452.96099853515625 C-294.302001953125,452.96099853515625 -177.8459930419922,452.96099853515625 -177.8459930419922,452.96099853515625 C-177.8459930419922,452.96099853515625 -77.09400177001953,238.3159942626953 -77.09400177001953,238.3159942626953"></path><path stroke-linecap="round" stroke-linejoin="round" fill-opacity="0" stroke="rgb(32,40,112)" stroke-opacity="1" stroke-width="2" d=" M-191.1529998779297,231.72000122070312 C-191.1529998779297,231.72000122070312 -294.302001953125,452.96099853515625 -294.302001953125,452.96099853515625 C-294.302001953125,452.96099853515625 -177.8459930419922,452.96099853515625 -177.8459930419922,452.96099853515625 C-177.8459930419922,452.96099853515625 -77.09400177001953,238.3159942626953 -77.09400177001953,238.3159942626953"></path></g><g opacity="1" transform="matrix(1,0,0,1,0,0)"><path fill="rgb(32,40,112)" fill-opacity="1" d=" M-50.05799865722656,437.45599365234375 C-50.05799865722656,437.45599365234375 -167.75399780273438,437.45599365234375 -167.75399780273438,437.45599365234375 C-167.75399780273438,437.45599365234375 -167.75399780273438,452.96099853515625 -167.75399780273438,452.96099853515625 C-167.75399780273438,452.96099853515625 -34.553001403808594,452.96099853515625 -34.553001403808594,452.96099853515625 C-34.553001403808594,452.96099853515625 -34.553001403808594,452.96099853515625 -34.553001403808594,452.96099853515625 C-34.553001403808594,444.39801025390625 -41.494998931884766,437.45599365234375 -50.05799865722656,437.45599365234375z"></path><path stroke-linecap="round" stroke-linejoin="round" fill-opacity="0" stroke="rgb(32,40,112)" stroke-opacity="1" stroke-width="2" d=" M-50.05799865722656,437.45599365234375 C-50.05799865722656,437.45599365234375 -167.75399780273438,437.45599365234375 -167.75399780273438,437.45599365234375 C-167.75399780273438,437.45599365234375 -167.75399780273438,452.96099853515625 -167.75399780273438,452.96099853515625 C-167.75399780273438,452.96099853515625 -34.553001403808594,452.96099853515625 -34.553001403808594,452.96099853515625 C-34.553001403808594,452.96099853515625 -34.553001403808594,452.96099853515625 -34.553001403808594,452.96099853515625 C-34.553001403808594,444.39801025390625 -41.494998931884766,437.45599365234375 -50.05799865722656,437.45599365234375z"></path></g></g></g><g transform="matrix(1,0,0,1,800,800.0000610351562)" opacity="1" style="display: block;"><g opacity="1" transform="matrix(1,0,0,1,0,0)"><path fill="rgb(132,132,250)" fill-opacity="1" d=" M734.2830200195312,488.14898681640625 C734.2830200195312,488.14898681640625 -734.2830200195312,488.14898681640625 -734.2830200195312,488.14898681640625 C-734.2830200195312,488.14898681640625 -734.2830200195312,488.14898681640625 -734.2830200195312,488.14898681640625 C-734.2830200195312,468.7149963378906 -718.530029296875,452.96099853515625 -699.0960083007812,452.96099853515625 C-699.0960083007812,452.96099853515625 699.0960083007812,452.96099853515625 699.0960083007812,452.96099853515625 C718.5289916992188,452.96099853515625 734.2830200195312,468.7149963378906 734.2830200195312,488.14898681640625 C734.2830200195312,488.14898681640625 734.2830200195312,488.14898681640625 734.2830200195312,488.14898681640625z"></path><path stroke-linecap="round" stroke-linejoin="round" fill-opacity="0" stroke="rgb(32,40,112)" stroke-opacity="1" stroke-width="2" d=" M734.2830200195312,488.14898681640625 C734.2830200195312,488.14898681640625 -734.2830200195312,488.14898681640625 -734.2830200195312,488.14898681640625 C-734.2830200195312,488.14898681640625 -734.2830200195312,488.14898681640625 -734.2830200195312,488.14898681640625 C-734.2830200195312,468.7149963378906 -718.530029296875,452.96099853515625 -699.0960083007812,452.96099853515625 C-699.0960083007812,452.96099853515625 699.0960083007812,452.96099853515625 699.0960083007812,452.96099853515625 C718.5289916992188,452.96099853515625 734.2830200195312,468.7149963378906 734.2830200195312,488.14898681640625 C734.2830200195312,488.14898681640625 734.2830200195312,488.14898681640625 734.2830200195312,488.14898681640625z"></path></g></g><g style="display: none;"><path stroke-linecap="round" stroke-linejoin="round" fill-opacity="0"></path><g></g></g><g style="display: none;"><path stroke-linecap="round" stroke-linejoin="round" fill-opacity="0"></path><g></g></g><g style="display: none;"><path stroke-linecap="round" stroke-linejoin="round" fill-opacity="0"></path><g></g></g><g mask="url(#__lottie_element_7_1)" style="display: block;"><g transform="matrix(0.9999983310699463,-0.001815141411498189,0.001815141411498189,0.9999983310699463,799.311279296875,799.1166381835938)" opacity="1"><g opacity="1" transform="matrix(1,0,0,1,0,0)"><path fill="rgb(32,40,112)" fill-opacity="1" d=" M-433,161 C-433,161 -493,282 -493,282 C-493,282 -484,381 -484,381 C-484,381 -399,381 -399,381 C-399,381 -433,161 -433,161z"></path><path stroke-linecap="butt" stroke-linejoin="miter" fill-opacity="0" stroke-miterlimit="4" stroke="rgb(31,40,112)" stroke-opacity="1" stroke-width="0" d=" M-433,161 C-433,161 -493,282 -493,282 C-493,282 -484,381 -484,381 C-484,381 -399,381 -399,381 C-399,381 -433,161 -433,161z"></path></g></g></g><g transform="matrix(1,0,0,1,800,799.9999389648438)" opacity="1" style="display: block;"><g opacity="1" transform="matrix(1,0,0,1,0,0)"><g opacity="1" transform="matrix(0.9986295104026794,-0.0523359552025795,0.0523359552025795,0.9986295104026794,-20.73785400390625,-25.97906494140625)"><path fill="rgb(255,255,255)" fill-opacity="1" d=" M-498.5950012207031,232.59300231933594 C-487.8529968261719,317.4469909667969 -466.94000244140625,384.6889953613281 -505.92999267578125,389.625 C-544.9199829101562,394.5610046386719 -541.4249877929688,324.22900390625 -552.1669921875,239.375 C-562.9089965820312,154.52099609375 -583.822021484375,87.27799987792969 -544.8319702148438,82.34200286865234 C-505.8420104980469,77.40599822998047 -509.3370056152344,147.73899841308594 -498.5950012207031,232.59300231933594z M-545.1079711914062,152.98800659179688 C-545.1079711914062,161.39599609375 -551.9229736328125,168.21099853515625 -560.3309936523438,168.21099853515625 C-568.739013671875,168.21099853515625 -575.5540161132812,161.39599609375 -575.5540161132812,152.98800659179688 C-575.5540161132812,144.5800018310547 -568.739013671875,137.76400756835938 -560.3309936523438,137.76400756835938 C-551.9229736328125,137.76400756835938 -545.1079711914062,144.5800018310547 -545.1079711914062,152.98800659179688z"></path><path stroke-linecap="round" stroke-linejoin="round" fill-opacity="0" stroke="rgb(32,40,112)" stroke-opacity="1" stroke-width="2" d=" M-498.5950012207031,232.59300231933594 C-487.8529968261719,317.4469909667969 -466.94000244140625,384.6889953613281 -505.92999267578125,389.625 C-544.9199829101562,394.5610046386719 -541.4249877929688,324.22900390625 -552.1669921875,239.375 C-562.9089965820312,154.52099609375 -583.822021484375,87.27799987792969 -544.8319702148438,82.34200286865234 C-505.8420104980469,77.40599822998047 -509.3370056152344,147.73899841308594 -498.5950012207031,232.59300231933594z M-545.1079711914062,152.98800659179688 C-545.1079711914062,161.39599609375 -551.9229736328125,168.21099853515625 -560.3309936523438,168.21099853515625 C-568.739013671875,168.21099853515625 -575.5540161132812,161.39599609375 -575.5540161132812,152.98800659179688 C-575.5540161132812,144.5800018310547 -568.739013671875,137.76400756835938 -560.3309936523438,137.76400756835938 C-551.9229736328125,137.76400756835938 -545.1079711914062,144.5800018310547 -545.1079711914062,152.98800659179688z"></path><g opacity="1" transform="matrix(1,0,0,1,0,0)"><path fill="rgb(249,74,130)" fill-opacity="1" d=" M-545.1079711914062,152.98800659179688 C-545.1079711914062,161.39599609375 -551.9229736328125,168.21099853515625 -560.3309936523438,168.21099853515625 C-568.739013671875,168.21099853515625 -575.5540161132812,161.39599609375 -575.5540161132812,152.98800659179688 C-575.5540161132812,144.5800018310547 -568.739013671875,137.76400756835938 -560.3309936523438,137.76400756835938 C-551.9229736328125,137.76400756835938 -545.1079711914062,144.5800018310547 -545.1079711914062,152.98800659179688z"></path><path stroke-linecap="round" stroke-linejoin="round" fill-opacity="0" stroke="rgb(32,40,112)" stroke-opacity="1" stroke-width="2" d=" M-545.1079711914062,152.98800659179688 C-545.1079711914062,161.39599609375 -551.9229736328125,168.21099853515625 -560.3309936523438,168.21099853515625 C-568.739013671875,168.21099853515625 -575.5540161132812,161.39599609375 -575.5540161132812,152.98800659179688 C-575.5540161132812,144.5800018310547 -568.739013671875,137.76400756835938 -560.3309936523438,137.76400756835938 C-551.9229736328125,137.76400756835938 -545.1079711914062,144.5800018310547 -545.1079711914062,152.98800659179688z"></path></g></g><g opacity="1" transform="matrix(0.9999983310699463,-0.001815141411498189,0.001815141411498189,0.9999983310699463,-0.70135498046875,-0.921142578125)"><path fill="rgb(255,255,255)" fill-opacity="1" d=" M-452.9410095214844,274.6549987792969 C-468.9230041503906,341.31500244140625 -475.0119934082031,397 -505.7720031738281,389.625 C-536.531982421875,382.25 -516.7119750976562,329.8580017089844 -500.7300109863281,263.197998046875 C-484.74798583984375,196.53799438476562 -478.6579895019531,140.85299682617188 -447.89801025390625,148.22799682617188 C-417.13800048828125,155.60299682617188 -436.9590148925781,207.9949951171875 -452.9410095214844,274.6549987792969z"></path><path stroke-linecap="round" stroke-linejoin="round" fill-opacity="0" stroke="rgb(32,40,112)" stroke-opacity="1" stroke-width="2" d=" M-452.9410095214844,274.6549987792969 C-468.9230041503906,341.31500244140625 -475.0119934082031,397 -505.7720031738281,389.625 C-536.531982421875,382.25 -516.7119750976562,329.8580017089844 -500.7300109863281,263.197998046875 C-484.74798583984375,196.53799438476562 -478.6579895019531,140.85299682617188 -447.89801025390625,148.22799682617188 C-417.13800048828125,155.60299682617188 -436.9590148925781,207.9949951171875 -452.9410095214844,274.6549987792969z"></path></g><g opacity="1" transform="matrix(0.9996659755706787,-0.025845447555184364,0.025845447555184364,0.9996659755706787,-9.771697998046875,-12.85955810546875)"><path fill="rgb(255,255,255)" fill-opacity="1" d=" M-473.7969970703125,277.27398681640625 C-475.3080139160156,331.4360046386719 -475.82000732421875,375.3630065917969 -501.0950012207031,374.6579895019531 C-526.3699951171875,373.9530029296875 -524.4320068359375,330.06500244140625 -522.9210205078125,275.90301513671875 C-521.4099731445312,221.74099731445312 -520.8989868164062,177.81399536132812 -495.6239929199219,178.5189971923828 C-470.3489990234375,179.2239990234375 -472.2860107421875,223.11199951171875 -473.7969970703125,277.27398681640625z"></path><path stroke-linecap="round" stroke-linejoin="round" fill-opacity="0" stroke="rgb(32,40,112)" stroke-opacity="1" stroke-width="2" d=" M-473.7969970703125,277.27398681640625 C-475.3080139160156,331.4360046386719 -475.82000732421875,375.3630065917969 -501.0950012207031,374.6579895019531 C-526.3699951171875,373.9530029296875 -524.4320068359375,330.06500244140625 -522.9210205078125,275.90301513671875 C-521.4099731445312,221.74099731445312 -520.8989868164062,177.81399536132812 -495.6239929199219,178.5189971923828 C-470.3489990234375,179.2239990234375 -472.2860107421875,223.11199951171875 -473.7969970703125,277.27398681640625z"></path></g></g><g opacity="1" transform="matrix(1,0,0,1,0,0)"><path fill="rgb(249,74,130)" fill-opacity="1" d=" M-476.6419982910156,450.51800537109375 C-476.6419982910156,450.51800537109375 -523.1790161132812,450.51800537109375 -523.1790161132812,450.51800537109375 C-550.530029296875,450.51800537109375 -572.302978515625,427.6099853515625 -570.9140014648438,400.29400634765625 C-570.9140014648438,400.29400634765625 -566.6119995117188,315.6789855957031 -566.6119995117188,315.6789855957031 C-566.6119995117188,315.6789855957031 -433.2099914550781,315.6789855957031 -433.2099914550781,315.6789855957031 C-433.2099914550781,315.6789855957031 -428.9070129394531,400.29400634765625 -428.9070129394531,400.29400634765625 C-427.51800537109375,427.6099853515625 -449.2909851074219,450.51800537109375 -476.6419982910156,450.51800537109375z"></path><path stroke-linecap="round" stroke-linejoin="round" fill-opacity="0" stroke="rgb(32,40,112)" stroke-opacity="1" stroke-width="2" d=" M-476.6419982910156,450.51800537109375 C-476.6419982910156,450.51800537109375 -523.1790161132812,450.51800537109375 -523.1790161132812,450.51800537109375 C-550.530029296875,450.51800537109375 -572.302978515625,427.6099853515625 -570.9140014648438,400.29400634765625 C-570.9140014648438,400.29400634765625 -566.6119995117188,315.6789855957031 -566.6119995117188,315.6789855957031 C-566.6119995117188,315.6789855957031 -433.2099914550781,315.6789855957031 -433.2099914550781,315.6789855957031 C-433.2099914550781,315.6789855957031 -428.9070129394531,400.29400634765625 -428.9070129394531,400.29400634765625 C-427.51800537109375,427.6099853515625 -449.2909851074219,450.51800537109375 -476.6419982910156,450.51800537109375z"></path></g></g></g></svg>