<svg width="1600" height="1600" viewBox="0 0 1600 1600" fill="none" xmlns="http://www.w3.org/2000/svg">
<g clip-path="url(#clip0_24_17750)">
<mask id="mask0_24_17750" style="mask-type:luminance" maskUnits="userSpaceOnUse" x="0" y="0" width="1600" height="1600">
<path d="M1600 0H0V1600H1600V0Z" fill="white"/>
</mask>
<g mask="url(#mask0_24_17750)">
<path d="M1268.35 880.593H427.439V435.435H1268.35V880.593Z" fill="white"/>
<path d="M1268.35 880.593H427.439V435.435H1268.35V880.593Z" stroke="#0626A9" stroke-width="2" stroke-linecap="round" stroke-linejoin="round"/>
<path d="M1204.62 814.857H760.772V501.171H1204.62V814.857Z" fill="white"/>
<path d="M1204.62 814.857H760.772V501.171H1204.62V814.857Z" stroke="#0626A9" stroke-width="2" stroke-linecap="round" stroke-linejoin="round"/>
<path d="M702.427 634.049H491.171V501.171H702.427V634.049Z" fill="#84AAE4"/>
<path d="M702.427 634.049H491.171V501.171H702.427V634.049Z" stroke="#0626A9" stroke-width="2" stroke-linecap="round" stroke-linejoin="round"/>
<path d="M801.841 544.281H1163.55" stroke="#0626A9" stroke-width="2" stroke-linecap="round" stroke-linejoin="round"/>
<path d="M801.841 579.048H1023.35" stroke="#0626A9" stroke-width="2" stroke-linecap="round" stroke-linejoin="round"/>
<path d="M1268.35 377.173V435.435H427.439V377.173H1268.35Z" fill="#8869D5"/>
<path d="M1268.35 377.173V435.435H427.439V377.173H1268.35Z" stroke="#0626A9" stroke-width="2" stroke-linecap="round" stroke-linejoin="round"/>
<path d="M1187.58 406.303C1187.58 411.752 1183.16 416.168 1177.72 416.168C1172.27 416.168 1167.85 411.752 1167.85 406.303C1167.85 400.855 1172.27 396.44 1177.72 396.44C1183.16 396.44 1187.58 400.855 1187.58 406.303Z" fill="white"/>
<path d="M1216.86 406.303C1216.86 411.752 1212.45 416.168 1207 416.168C1201.55 416.168 1197.13 411.752 1197.13 406.303C1197.13 400.855 1201.55 396.44 1207 396.44C1212.45 396.44 1216.86 400.855 1216.86 406.303Z" fill="white"/>
<path d="M1246.15 406.303C1246.15 411.752 1241.73 416.168 1236.28 416.168C1230.83 416.168 1226.42 411.752 1226.42 406.303C1226.42 400.855 1230.83 396.44 1236.28 396.44C1241.73 396.44 1246.15 400.855 1246.15 406.303Z" fill="white"/>
<path d="M1368.28 690.327V1223H558.158V690.327H1368.28Z" fill="white"/>
<path d="M1368.28 690.327V1223H558.158V690.327H1368.28Z" stroke="#0626A9" stroke-width="2" stroke-linecap="round" stroke-linejoin="round"/>
<path d="M1368.28 690.327V748.588H558.158V690.327H1368.28Z" fill="#0626A9"/>
<path d="M1368.28 690.327V748.588H558.158V690.327H1368.28Z" stroke="#0626A9" stroke-width="2" stroke-linecap="round" stroke-linejoin="round"/>
<g clip-path="url(#clip1_24_17750)">
<path d="M1127.63 936.635H960V769H1127.63V936.635Z" fill="#84AAE4"/>
<path d="M1127.63 936.635H960V769H1127.63V936.635Z" stroke="#0626A9" stroke-width="2" stroke-linecap="round" stroke-linejoin="round"/>
<path d="M1117.72 883.747H969.916V778.916H1117.72V883.747Z" fill="white"/>
<path d="M1117.72 883.747H969.916V778.916H1117.72V883.747Z" stroke="#0626A9" stroke-width="2" stroke-linecap="round" stroke-linejoin="round"/>
<mask id="mask1_24_17750" style="mask-type:alpha" maskUnits="userSpaceOnUse" x="968" y="777" width="151" height="108">
<path d="M1117.72 883.747H969.916V778.916H1117.72V883.747Z" fill="white"/>
<path d="M1117.72 883.747H969.916V778.916H1117.72V883.747Z" stroke="#202870" stroke-width="2" stroke-linecap="round" stroke-linejoin="round"/>
</mask>
<g mask="url(#mask1_24_17750)">
<path d="M1265.52 831.529V883.747H969.918V831.529C980.325 826.524 991.68 827.257 1003.51 828.461C1011.15 829.242 1018.69 831.417 1025.77 834.357C1032.77 837.266 1039.12 841.465 1046.16 844.302C1059.6 849.729 1073.91 849.45 1087.45 844.462C1097.75 840.661 1107.66 835.927 1117.72 831.529C1128.13 826.524 1139.48 827.257 1151.31 828.461C1158.95 829.242 1166.49 831.417 1173.57 834.357C1180.57 837.266 1186.93 841.465 1193.96 844.302C1207.4 849.729 1221.71 849.45 1235.25 844.462C1245.55 840.661 1255.46 835.927 1265.52 831.529Z" fill="#8869D5"/>
<path d="M1265.52 831.529V883.747H969.918V831.529C980.325 826.524 991.68 827.257 1003.51 828.461C1011.15 829.242 1018.69 831.417 1025.77 834.357C1032.77 837.266 1039.12 841.465 1046.16 844.302C1059.6 849.729 1073.91 849.45 1087.45 844.462C1097.75 840.661 1107.66 835.927 1117.72 831.529C1128.13 826.524 1139.48 827.257 1151.31 828.461C1158.95 829.242 1166.49 831.417 1173.57 834.357C1180.57 837.266 1186.93 841.465 1193.96 844.302C1207.4 849.729 1221.71 849.45 1235.25 844.462C1245.55 840.661 1255.46 835.927 1265.52 831.529Z" stroke="#0626A9" stroke-width="2" stroke-linecap="round" stroke-linejoin="round"/>
</g>
<path d="M1117.72 883.747H969.916V778.916H1117.72V883.747Z" stroke="#0626A9" stroke-width="2" stroke-linecap="round" stroke-linejoin="round"/>
<path d="M995.18 910.191C995.18 917.168 989.524 922.823 982.548 922.823C975.571 922.823 969.916 917.168 969.916 910.191C969.916 903.215 975.571 897.559 982.548 897.559C989.524 897.559 995.18 903.215 995.18 910.191Z" fill="white"/>
<path d="M995.18 910.191C995.18 917.168 989.524 922.823 982.548 922.823C975.571 922.823 969.916 917.168 969.916 910.191C969.916 903.215 975.571 897.559 982.548 897.559C989.524 897.559 995.18 903.215 995.18 910.191Z" stroke="#0626A9" stroke-width="2" stroke-linecap="round" stroke-linejoin="round"/>
<path d="M1004.86 910.191H1070.97" stroke="#0626A9" stroke-width="2" stroke-linecap="round" stroke-linejoin="round"/>
<path d="M1331.63 936.635H1164V769H1331.63V936.635Z" fill="#84AAE4"/>
<path d="M1331.63 936.635H1164V769H1331.63V936.635Z" stroke="#0626A9" stroke-width="2" stroke-linecap="round" stroke-linejoin="round"/>
<path d="M1321.71 883.747H1173.91V778.916H1321.71V883.747Z" fill="white"/>
<path d="M1321.71 883.747H1173.91V778.916H1321.71V883.747Z" stroke="#0626A9" stroke-width="2" stroke-linecap="round" stroke-linejoin="round"/>
<path d="M1275.13 831.332C1275.13 846.419 1262.9 858.65 1247.81 858.65C1232.73 858.65 1220.49 846.419 1220.49 831.332C1220.49 816.244 1232.73 804.013 1247.81 804.013C1262.9 804.013 1275.13 816.244 1275.13 831.332Z" fill="#0626A9"/>
<path d="M1275.13 831.332C1275.13 846.419 1262.9 858.65 1247.81 858.65C1232.73 858.65 1220.49 846.419 1220.49 831.332C1220.49 816.244 1232.73 804.013 1247.81 804.013C1262.9 804.013 1275.13 816.244 1275.13 831.332Z" stroke="#0626A9" stroke-width="2" stroke-linecap="round" stroke-linejoin="round"/>
<path d="M1240.33 841.739V820.925L1261.15 831.332L1240.33 841.739Z" fill="white"/>
<path d="M1240.33 841.739V820.925L1261.15 831.332L1240.33 841.739Z" stroke="#0626A9" stroke-width="2" stroke-linecap="round" stroke-linejoin="round"/>
<path d="M1199.17 910.191C1199.17 917.168 1193.52 922.823 1186.54 922.823C1179.57 922.823 1173.91 917.168 1173.91 910.191C1173.91 903.215 1179.57 897.559 1186.54 897.559C1193.52 897.559 1199.17 903.215 1199.17 910.191Z" fill="white"/>
<path d="M1199.17 910.191C1199.17 917.168 1193.52 922.823 1186.54 922.823C1179.57 922.823 1173.91 917.168 1173.91 910.191C1173.91 903.215 1179.57 897.559 1186.54 897.559C1193.52 897.559 1199.17 903.215 1199.17 910.191Z" stroke="#0626A9" stroke-width="2" stroke-linecap="round" stroke-linejoin="round"/>
<path d="M1208.86 910.191H1274.96" stroke="#0626A9" stroke-width="2" stroke-linecap="round" stroke-linejoin="round"/>
<path d="M1127.63 1149.41H960V981.771H1127.63V1149.41Z" fill="#84AAE4"/>
<path d="M1127.63 1149.41H960V981.771H1127.63V1149.41Z" stroke="#0626A9" stroke-width="2" stroke-linecap="round" stroke-linejoin="round"/>
<path d="M1117.72 1096.52H969.916V991.687H1117.72V1096.52Z" fill="white"/>
<path d="M1117.72 1096.52H969.916V991.687H1117.72V1096.52Z" stroke="#0626A9" stroke-width="2" stroke-linecap="round" stroke-linejoin="round"/>
<path d="M1071.14 1044.1C1071.14 1059.19 1058.91 1071.42 1043.82 1071.42C1028.73 1071.42 1016.5 1059.19 1016.5 1044.1C1016.5 1029.02 1028.73 1016.78 1043.82 1016.78C1058.91 1016.78 1071.14 1029.02 1071.14 1044.1Z" fill="#0626A9"/>
<path d="M1071.14 1044.1C1071.14 1059.19 1058.91 1071.42 1043.82 1071.42C1028.73 1071.42 1016.5 1059.19 1016.5 1044.1C1016.5 1029.02 1028.73 1016.78 1043.82 1016.78C1058.91 1016.78 1071.14 1029.02 1071.14 1044.1Z" stroke="#0626A9" stroke-width="2" stroke-linecap="round" stroke-linejoin="round"/>
<path d="M1036.34 1054.51V1033.7L1057.15 1044.1L1036.34 1054.51Z" fill="white"/>
<path d="M1036.34 1054.51V1033.7L1057.15 1044.1L1036.34 1054.51Z" stroke="#0626A9" stroke-width="2" stroke-linecap="round" stroke-linejoin="round"/>
<path d="M995.18 1122.96C995.18 1129.94 989.524 1135.59 982.548 1135.59C975.571 1135.59 969.916 1129.94 969.916 1122.96C969.916 1115.99 975.571 1110.33 982.548 1110.33C989.524 1110.33 995.18 1115.99 995.18 1122.96Z" fill="white"/>
<path d="M995.18 1122.96C995.18 1129.94 989.524 1135.59 982.548 1135.59C975.571 1135.59 969.916 1129.94 969.916 1122.96C969.916 1115.99 975.571 1110.33 982.548 1110.33C989.524 1110.33 995.18 1115.99 995.18 1122.96Z" stroke="#0626A9" stroke-width="2" stroke-linecap="round" stroke-linejoin="round"/>
<path d="M1004.86 1122.96H1070.97" stroke="#0626A9" stroke-width="2" stroke-linecap="round" stroke-linejoin="round"/>
<path d="M1331.63 1149.41H1164V981.771H1331.63V1149.41Z" fill="#84AAE4"/>
<path d="M1331.63 1149.41H1164V981.771H1331.63V1149.41Z" stroke="#0626A9" stroke-width="2" stroke-linecap="round" stroke-linejoin="round"/>
<path d="M1321.71 1096.52H1173.91V991.687H1321.71V1096.52Z" fill="#0626A9"/>
<path d="M1321.71 1096.52H1173.91V991.687H1321.71V1096.52Z" stroke="#0626A9" stroke-width="2" stroke-linecap="round" stroke-linejoin="round"/>
<path d="M1321.71 1096.52H1266.46L1223.97 1063.19L1263.63 991.687H1321.71V1096.52Z" fill="white"/>
<path d="M1321.71 1096.52H1266.46L1223.97 1063.19L1263.63 991.687H1321.71V1096.52Z" stroke="#0626A9" stroke-width="2" stroke-linecap="round" stroke-linejoin="round"/>
<path d="M1242.97 1028.93L1173.91 1002.69V991.687H1263.63L1242.97 1028.93Z" fill="#8869D5"/>
<path d="M1242.97 1028.93L1173.91 1002.69V991.687H1263.63L1242.97 1028.93Z" stroke="#0626A9" stroke-width="2" stroke-linecap="round" stroke-linejoin="round"/>
<path d="M1199.17 1122.96C1199.17 1129.94 1193.52 1135.59 1186.54 1135.59C1179.57 1135.59 1173.91 1129.94 1173.91 1122.96C1173.91 1115.99 1179.57 1110.33 1186.54 1110.33C1193.52 1110.33 1199.17 1115.99 1199.17 1122.96Z" fill="white"/>
<path d="M1199.17 1122.96C1199.17 1129.94 1193.52 1135.59 1186.54 1135.59C1179.57 1135.59 1173.91 1129.94 1173.91 1122.96C1173.91 1115.99 1179.57 1110.33 1186.54 1110.33C1193.52 1110.33 1199.17 1115.99 1199.17 1122.96Z" stroke="#0626A9" stroke-width="2" stroke-linecap="round" stroke-linejoin="round"/>
<path d="M1208.86 1122.96H1274.96" stroke="#0626A9" stroke-width="2" stroke-linecap="round" stroke-linejoin="round"/>
</g>
<path d="M898 1139H696V853H898V1139Z" stroke="#0626A9" stroke-width="2" stroke-linecap="round" stroke-linejoin="round"/>
<path d="M1287.51 719.458C1287.51 724.906 1283.09 729.322 1277.64 729.322C1272.19 729.322 1267.78 724.906 1267.78 719.458C1267.78 714.009 1272.19 709.593 1277.64 709.593C1283.09 709.593 1287.51 714.009 1287.51 719.458Z" fill="white"/>
<path d="M1316.79 719.458C1316.79 724.906 1312.37 729.322 1306.93 729.322C1301.48 729.322 1297.06 724.906 1297.06 719.458C1297.06 714.009 1301.48 709.593 1306.93 709.593C1312.37 709.593 1316.79 714.009 1316.79 719.458Z" fill="white"/>
<path d="M1346.08 719.458C1346.08 724.906 1341.66 729.322 1336.21 729.322C1330.76 729.322 1326.35 724.906 1326.35 719.458C1326.35 714.009 1330.76 709.593 1336.21 709.593C1341.66 709.593 1346.08 714.009 1346.08 719.458Z" fill="white"/>
<path d="M1139.68 1004.05V1199.93H232.607V1004.05H1139.68Z" fill="white"/>
<path d="M1139.68 1004.05V1199.93H232.607V1004.05H1139.68Z" stroke="#0626A9" stroke-width="2" stroke-linecap="round" stroke-linejoin="round"/>
<path d="M1139.68 945.786V1004.05H232.607V945.786H1139.68Z" fill="#8869D5"/>
<path d="M1139.68 945.786V1004.05H232.607V945.786H1139.68Z" stroke="#0626A9" stroke-width="2" stroke-linecap="round" stroke-linejoin="round"/>
<path d="M686.146 1067.22H1059.37" stroke="#0626A9" stroke-width="2" stroke-linecap="round" stroke-linejoin="round"/>
<path d="M312.922 1067.22H616.288" stroke="#0626A9" stroke-width="2" stroke-linecap="round" stroke-linejoin="round"/>
<path d="M312.922 1101.99H919.977" stroke="#0626A9" stroke-width="2" stroke-linecap="round" stroke-linejoin="round"/>
<path d="M1058.91 974.916C1058.91 980.364 1054.5 984.78 1049.05 984.78C1043.6 984.78 1039.18 980.364 1039.18 974.916C1039.18 969.467 1043.6 965.051 1049.05 965.051C1054.5 965.051 1058.91 969.467 1058.91 974.916Z" fill="white"/>
<path d="M1088.2 974.916C1088.2 980.364 1083.78 984.78 1078.33 984.78C1072.88 984.78 1068.47 980.364 1068.47 974.916C1068.47 969.467 1072.88 965.051 1078.33 965.051C1083.78 965.051 1088.2 969.467 1088.2 974.916Z" fill="white"/>
<path d="M1117.48 974.916C1117.48 980.364 1113.06 984.78 1107.62 984.78C1102.17 984.78 1097.75 980.364 1097.75 974.916C1097.75 969.467 1102.17 965.051 1107.62 965.051C1113.06 965.051 1117.48 969.467 1117.48 974.916Z" fill="white"/>
</g>
</g>
<defs>
<clipPath id="clip0_24_17750">
<rect width="1600" height="1600" fill="white"/>
</clipPath>
<clipPath id="clip1_24_17750">
<rect width="371.63" height="380.406" fill="white" transform="translate(960 769)"/>
</clipPath>
</defs>
</svg>
