<svg width="1600" height="1600" viewBox="0 0 1600 1600" fill="none" xmlns="http://www.w3.org/2000/svg">
<g clip-path="url(#clip0_24_18130)">
<mask id="mask0_24_18130" style="mask-type:luminance" maskUnits="userSpaceOnUse" x="0" y="0" width="1600" height="1600">
<path d="M1600 0H0V1600H1600V0Z" fill="white"/>
</mask>
<g mask="url(#mask0_24_18130)">
<path d="M683.844 1150.64H197.018V799.225H683.844V1150.64Z" fill="white"/>
<path d="M683.844 1150.64H197.018V799.225H683.844V1150.64Z" stroke="#0626A9" stroke-width="2" stroke-linecap="round" stroke-linejoin="round"/>
<path d="M686.475 918.258L303.652 937.066L303.135 1063.33L684.003 1094.08L686.475 918.258Z" fill="#0626A9"/>
<path d="M1377.72 1062.74H301.856V362.551H1377.72V1062.74Z" fill="white"/>
<path d="M1377.72 1062.74H301.856V362.551H1377.72V1062.74Z" stroke="#0626A9" stroke-width="2" stroke-linecap="round" stroke-linejoin="round"/>
<path d="M1377.72 413.056H301.856V362.551H1377.72V413.056Z" fill="#0626A9"/>
<path d="M1377.72 413.056H301.856V362.551H1377.72V413.056Z" stroke="#84AAE4" stroke-width="2" stroke-linecap="round" stroke-linejoin="round"/>
<path d="M342.769 387.804C342.769 391.966 339.395 395.34 335.233 395.34C331.071 395.34 327.696 391.966 327.696 387.804C327.696 383.642 331.071 380.267 335.233 380.267C339.395 380.267 342.769 383.642 342.769 387.804Z" fill="#8869D5"/>
<path d="M342.769 387.804C342.769 391.966 339.395 395.34 335.233 395.34C331.071 395.34 327.696 391.966 327.696 387.804C327.696 383.642 331.071 380.267 335.233 380.267C339.395 380.267 342.769 383.642 342.769 387.804Z" stroke="#0626A9" stroke-width="2" stroke-linecap="round" stroke-linejoin="round"/>
<path d="M376.83 387.804C376.83 391.966 373.456 395.34 369.294 395.34C365.132 395.34 361.757 391.966 361.757 387.804C361.757 383.642 365.132 380.267 369.294 380.267C373.456 380.267 376.83 383.642 376.83 387.804Z" fill="white"/>
<path d="M376.83 387.804C376.83 391.966 373.456 395.34 369.294 395.34C365.132 395.34 361.757 391.966 361.757 387.804C361.757 383.642 365.132 380.267 369.294 380.267C373.456 380.267 376.83 383.642 376.83 387.804Z" stroke="#0626A9" stroke-width="2" stroke-linecap="round" stroke-linejoin="round"/>
<path d="M410.892 387.804C410.892 391.966 407.517 395.34 403.355 395.34C399.193 395.34 395.819 391.966 395.819 387.804C395.819 383.642 399.193 380.267 403.355 380.267C407.517 380.267 410.892 383.642 410.892 387.804Z" fill="#84AAE4"/>
<path d="M410.892 387.804C410.892 391.966 407.517 395.34 403.355 395.34C399.193 395.34 395.819 391.966 395.819 387.804C395.819 383.642 399.193 380.267 403.355 380.267C407.517 380.267 410.892 383.642 410.892 387.804Z" stroke="#0626A9" stroke-width="2" stroke-linecap="round" stroke-linejoin="round"/>
<path d="M1303.27 540.06H376.312V469.823H1303.27V540.06Z" stroke="#0626A9" stroke-width="2" stroke-linecap="round" stroke-linejoin="round"/>
<path d="M416.415 510.756V486H421.537V510.756H416.415ZM419 522C417.862 522 416.902 521.613 416.122 520.84C415.374 520.067 415 519.076 415 517.866C415 516.655 415.374 515.681 416.122 514.941C416.902 514.168 417.862 513.782 419 513.782C420.138 513.782 421.081 514.168 421.829 514.941C422.61 515.714 423 516.689 423 517.866C423 519.076 422.61 520.067 421.829 520.84C421.081 521.613 420.138 522 419 522Z" fill="#0626A9"/>
<path d="M463.671 469.823V540.06" stroke="#0626A9" stroke-width="2" stroke-linecap="round" stroke-linejoin="round"/>
<path d="M498.354 504.941H839.443" stroke="#0626A9" stroke-width="2" stroke-linecap="round" stroke-linejoin="round"/>
<g clip-path="url(#clip1_24_18130)">
<g clip-path="url(#clip2_24_18130)">
<path d="M542.37 797.37H332V587H542.37V797.37Z" fill="#84AAE4"/>
<path d="M542.37 797.37H332V587H542.37V797.37Z" stroke="#0626A9" stroke-width="2" stroke-linecap="round" stroke-linejoin="round"/>
<path d="M529.926 731H344.444V599.444H529.926V731Z" fill="white"/>
<path d="M529.926 731H344.444V599.444H529.926V731Z" stroke="#0626A9" stroke-width="2" stroke-linecap="round" stroke-linejoin="round"/>
<mask id="mask1_24_18130" style="mask-type:alpha" maskUnits="userSpaceOnUse" x="343" y="598" width="188" height="134">
<path d="M529.926 731H344.444V599.444H529.926V731Z" fill="white"/>
<path d="M529.926 731H344.444V599.444H529.926V731Z" stroke="#202870" stroke-width="2" stroke-linecap="round" stroke-linejoin="round"/>
</mask>
<g mask="url(#mask1_24_18130)">
<path d="M715.407 665.469V730.999H344.447V665.469C357.507 659.189 371.757 660.109 386.607 661.619C396.187 662.599 405.657 665.329 414.537 669.019C423.327 672.669 431.297 677.939 440.127 681.499C456.997 688.309 474.947 687.959 491.937 681.699C504.867 676.929 517.307 670.989 529.927 665.469C542.987 659.189 557.237 660.109 572.087 661.619C581.667 662.599 591.137 665.329 600.017 669.019C608.807 672.669 616.777 677.939 625.607 681.499C642.477 688.309 660.427 687.959 677.417 681.699C690.347 676.929 702.787 670.989 715.407 665.469Z" fill="#8869D5"/>
<path d="M715.407 665.469V730.999H344.447V665.469C357.507 659.189 371.757 660.109 386.607 661.619C396.187 662.599 405.657 665.329 414.537 669.019C423.327 672.669 431.297 677.939 440.127 681.499C456.997 688.309 474.947 687.959 491.937 681.699C504.867 676.929 517.307 670.989 529.927 665.469C542.987 659.189 557.237 660.109 572.087 661.619C581.667 662.599 591.137 665.329 600.017 669.019C608.807 672.669 616.777 677.939 625.607 681.499C642.477 688.309 660.427 687.959 677.417 681.699C690.347 676.929 702.787 670.989 715.407 665.469Z" stroke="#0626A9" stroke-width="2" stroke-linecap="round" stroke-linejoin="round"/>
</g>
<path d="M529.926 731H344.444V599.444H529.926V731Z" stroke="#0626A9" stroke-width="2" stroke-linecap="round" stroke-linejoin="round"/>
<path d="M376.148 764.185C376.148 772.94 369.051 780.037 360.296 780.037C351.541 780.037 344.444 772.94 344.444 764.185C344.444 755.43 351.541 748.333 360.296 748.333C369.051 748.333 376.148 755.43 376.148 764.185Z" fill="white"/>
<path d="M376.148 764.185C376.148 772.94 369.051 780.037 360.296 780.037C351.541 780.037 344.444 772.94 344.444 764.185C344.444 755.43 351.541 748.333 360.296 748.333C369.051 748.333 376.148 755.43 376.148 764.185Z" stroke="#0626A9" stroke-width="2" stroke-linecap="round" stroke-linejoin="round"/>
<path d="M388.297 764.185H471.258" stroke="#0626A9" stroke-width="2" stroke-linecap="round" stroke-linejoin="round"/>
<path d="M798.37 797.37H588V587H798.37V797.37Z" fill="#84AAE4"/>
<path d="M798.37 797.37H588V587H798.37V797.37Z" stroke="#0626A9" stroke-width="2" stroke-linecap="round" stroke-linejoin="round"/>
<path d="M785.926 731H600.444V599.444H785.926V731Z" fill="white"/>
<path d="M785.926 731H600.444V599.444H785.926V731Z" stroke="#0626A9" stroke-width="2" stroke-linecap="round" stroke-linejoin="round"/>
<path d="M727.468 665.222C727.468 684.156 712.119 699.505 693.185 699.505C674.251 699.505 658.902 684.156 658.902 665.222C658.902 646.288 674.251 630.939 693.185 630.939C712.119 630.939 727.468 646.288 727.468 665.222Z" fill="#0626A9"/>
<path d="M727.468 665.222C727.468 684.156 712.119 699.505 693.185 699.505C674.251 699.505 658.902 684.156 658.902 665.222C658.902 646.288 674.251 630.939 693.185 630.939C712.119 630.939 727.468 646.288 727.468 665.222Z" stroke="#0626A9" stroke-width="2" stroke-linecap="round" stroke-linejoin="round"/>
<path d="M683.798 678.282V652.162L709.918 665.222L683.798 678.282Z" fill="white"/>
<path d="M683.798 678.282V652.162L709.918 665.222L683.798 678.282Z" stroke="#0626A9" stroke-width="2" stroke-linecap="round" stroke-linejoin="round"/>
<path d="M632.148 764.185C632.148 772.94 625.051 780.037 616.296 780.037C607.541 780.037 600.444 772.94 600.444 764.185C600.444 755.43 607.541 748.333 616.296 748.333C625.051 748.333 632.148 755.43 632.148 764.185Z" fill="white"/>
<path d="M632.148 764.185C632.148 772.94 625.051 780.037 616.296 780.037C607.541 780.037 600.444 772.94 600.444 764.185C600.444 755.43 607.541 748.333 616.296 748.333C625.051 748.333 632.148 755.43 632.148 764.185Z" stroke="#0626A9" stroke-width="2" stroke-linecap="round" stroke-linejoin="round"/>
<path d="M644.297 764.185H727.259" stroke="#0626A9" stroke-width="2" stroke-linecap="round" stroke-linejoin="round"/>
</g>
</g>
<path d="M828.661 608.435H1002.38" stroke="#0626A9" stroke-width="2" stroke-linecap="round" stroke-linejoin="round"/>
<path d="M828.661 664.841H934.502" stroke="#0626A9" stroke-width="2" stroke-linecap="round" stroke-linejoin="round"/>
<path d="M376.312 893.521H550.031" stroke="#0626A9" stroke-width="2" stroke-linecap="round" stroke-linejoin="round"/>
<path d="M376.312 949.928H902.39" stroke="#0626A9" stroke-width="2" stroke-linecap="round" stroke-linejoin="round"/>
<path d="M376.312 1006.33H735.02" stroke="#0626A9" stroke-width="2" stroke-linecap="round" stroke-linejoin="round"/>
<mask id="mask2_24_18130" style="mask-type:alpha" maskUnits="userSpaceOnUse" x="301" y="362" width="1077" height="701">
<path d="M1377.72 1062.74H301.856V362.551H1377.72V1062.74Z" fill="white"/>
</mask>
<g mask="url(#mask2_24_18130)">
<path d="M992.405 618.058C1110.1 608.384 1213.52 696.092 1223.2 813.791C1232.87 931.491 1145.16 1034.91 1027.46 1044.58C909.765 1054.26 806.347 966.55 796.672 848.85C786.998 731.151 874.706 627.733 992.405 618.058Z" fill="#0626A9"/>
</g>
<path d="M1441.43 1118.51L1052.75 836.693L1067.89 815.809L1456.57 1097.63L1441.43 1118.51Z" fill="#0626A9"/>
<path d="M1426.07 1125.32L1235.7 983.133L1264.44 944.808L1454.81 1086.99C1465.39 1094.93 1467.53 1109.94 1459.6 1120.53C1451.66 1131.11 1436.65 1133.26 1426.07 1125.32Z" fill="#84AAE4"/>
<path d="M1426.07 1125.32L1235.7 983.133L1264.44 944.808L1454.81 1086.99C1465.39 1094.93 1467.53 1109.94 1459.6 1120.53C1451.66 1131.11 1436.65 1133.26 1426.07 1125.32Z" stroke="#0626A9" stroke-width="2" stroke-linecap="round" stroke-linejoin="round"/>
<path d="M1250.1 768.764C1263.64 888.164 1177.82 995.932 1058.42 1009.47C939.018 1023 831.25 937.184 817.714 817.784C804.178 698.384 889.998 590.617 1009.4 577.081C1128.8 563.544 1236.57 649.364 1250.1 768.764Z" fill="#8869D5"/>
<path d="M1250.1 768.764C1263.64 888.164 1177.82 995.932 1058.42 1009.47C939.018 1023 831.25 937.184 817.714 817.784C804.178 698.384 889.998 590.617 1009.4 577.081C1128.8 563.544 1236.57 649.364 1250.1 768.764Z" stroke="#0626A9" stroke-width="2" stroke-linecap="round" stroke-linejoin="round"/>
<path d="M1210.05 773.305C1221.08 870.585 1151.16 958.389 1053.88 969.418C956.596 980.446 868.794 910.524 857.765 813.243C846.736 715.962 916.658 628.16 1013.94 617.131C1111.22 606.103 1199.02 676.024 1210.05 773.305Z" fill="white"/>
<path d="M1210.05 773.305C1221.08 870.585 1151.16 958.389 1053.88 969.418C956.596 980.446 868.794 910.524 857.765 813.243C846.736 715.962 916.658 628.16 1013.94 617.131C1111.22 606.103 1199.02 676.024 1210.05 773.305Z" stroke="#0626A9" stroke-width="2" stroke-linecap="round" stroke-linejoin="round"/>
<path d="M907.008 869.649H1160.81" stroke="#0626A9" stroke-width="2" stroke-linecap="round" stroke-linejoin="round"/>
<path d="M1101.3 869.649H1141.32V716.9H1101.3V869.649Z" fill="#84AAE4"/>
<path d="M1101.3 869.649H1141.32V716.9H1101.3V869.649Z" stroke="#0626A9" stroke-width="2" stroke-linecap="round" stroke-linejoin="round"/>
<path d="M1043.03 869.649H1083.06V756.986H1043.03V869.649Z" fill="#84AAE4"/>
<path d="M1043.03 869.649H1083.06V756.986H1043.03V869.649Z" stroke="#0626A9" stroke-width="2" stroke-linecap="round" stroke-linejoin="round"/>
<path d="M984.761 869.649H1024.79V797.071H984.761V869.649Z" fill="#84AAE4"/>
<path d="M984.761 869.649H1024.79V797.071H984.761V869.649Z" stroke="#0626A9" stroke-width="2" stroke-linecap="round" stroke-linejoin="round"/>
<path d="M926.493 869.649H966.518V837.157H926.493V869.649Z" fill="#84AAE4"/>
<path d="M926.493 869.649H966.518V837.157H926.493V869.649Z" stroke="#0626A9" stroke-width="2" stroke-linecap="round" stroke-linejoin="round"/>
<path d="M227.125 598.042C227.125 603.82 222.442 608.503 216.664 608.503C210.886 608.503 206.202 603.82 206.202 598.042C206.202 592.264 210.886 587.581 216.664 587.581C222.442 587.581 227.125 592.264 227.125 598.042Z" fill="#84AAE4"/>
<path d="M227.125 598.042C227.125 603.82 222.442 608.503 216.664 608.503C210.886 608.503 206.202 603.82 206.202 598.042C206.202 592.264 210.886 587.581 216.664 587.581C222.442 587.581 227.125 592.264 227.125 598.042Z" stroke="#0626A9" stroke-width="2" stroke-linecap="round" stroke-linejoin="round"/>
<path d="M289.101 707.037C289.101 710.404 286.37 713.134 283.003 713.134C279.636 713.134 276.906 710.404 276.906 707.037C276.906 703.67 279.636 700.94 283.003 700.94C286.37 700.94 289.101 703.67 289.101 707.037Z" stroke="#0626A9" stroke-width="2" stroke-linecap="round" stroke-linejoin="round"/>
<path d="M179.727 880.87C179.727 885.843 175.696 889.873 170.723 889.873C165.75 889.873 161.719 885.843 161.719 880.87C161.719 875.897 165.75 871.866 170.723 871.866C175.696 871.866 179.727 875.897 179.727 880.87Z" stroke="#0626A9" stroke-width="2" stroke-linecap="round" stroke-linejoin="round"/>
<path d="M894.837 1190.84C894.837 1195.8 890.818 1199.82 885.861 1199.82C880.904 1199.82 876.886 1195.8 876.886 1190.84C876.886 1185.89 880.904 1181.87 885.861 1181.87C890.818 1181.87 894.837 1185.89 894.837 1190.84Z" fill="#84AAE4"/>
<path d="M894.837 1190.84C894.837 1195.8 890.818 1199.82 885.861 1199.82C880.904 1199.82 876.886 1195.8 876.886 1190.84C876.886 1185.89 880.904 1181.87 885.861 1181.87C890.818 1181.87 894.837 1185.89 894.837 1190.84Z" stroke="#0626A9" stroke-width="2" stroke-linecap="round" stroke-linejoin="round"/>
<path d="M771.465 1287.5C771.465 1289.98 769.455 1291.99 766.977 1291.99C764.499 1291.99 762.49 1289.98 762.49 1287.5C762.49 1285.02 764.499 1283.01 766.977 1283.01C769.455 1283.01 771.465 1285.02 771.465 1287.5Z" fill="#84AAE4"/>
<path d="M771.465 1287.5C771.465 1289.98 769.455 1291.99 766.977 1291.99C764.499 1291.99 762.49 1289.98 762.49 1287.5C762.49 1285.02 764.499 1283.01 766.977 1283.01C769.455 1283.01 771.465 1285.02 771.465 1287.5Z" stroke="#0626A9" stroke-width="2" stroke-linecap="round" stroke-linejoin="round"/>
<path d="M1454.92 583.216C1454.92 588.885 1450.32 593.481 1444.66 593.481C1438.99 593.481 1434.39 588.885 1434.39 583.216C1434.39 577.547 1438.99 572.952 1444.66 572.952C1450.32 572.952 1454.92 577.547 1454.92 583.216Z" stroke="#0626A9" stroke-width="2" stroke-linecap="round" stroke-linejoin="round"/>
<path d="M1481.05 640.101C1481.05 648.032 1474.62 654.461 1466.69 654.461C1458.76 654.461 1452.33 648.032 1452.33 640.101C1452.33 632.17 1458.76 625.741 1466.69 625.741C1474.62 625.741 1481.05 632.17 1481.05 640.101Z" fill="#84AAE4"/>
<path d="M1481.05 640.101C1481.05 648.032 1474.62 654.461 1466.69 654.461C1458.76 654.461 1452.33 648.032 1452.33 640.101C1452.33 632.17 1458.76 625.741 1466.69 625.741C1474.62 625.741 1481.05 632.17 1481.05 640.101Z" stroke="#0626A9" stroke-width="2" stroke-linecap="round" stroke-linejoin="round"/>
<path d="M1403.52 492.869C1403.52 496.545 1400.54 499.524 1396.87 499.524C1393.19 499.524 1390.21 496.545 1390.21 492.869C1390.21 489.193 1393.19 486.213 1396.87 486.213C1400.54 486.213 1403.52 489.193 1403.52 492.869Z" fill="#84AAE4"/>
<path d="M1403.52 492.869C1403.52 496.545 1400.54 499.524 1396.87 499.524C1393.19 499.524 1390.21 496.545 1390.21 492.869C1390.21 489.193 1393.19 486.213 1396.87 486.213C1400.54 486.213 1403.52 489.193 1403.52 492.869Z" stroke="#0626A9" stroke-width="2" stroke-linecap="round" stroke-linejoin="round"/>
</g>
</g>
<defs>
<clipPath id="clip0_24_18130">
<rect width="1600" height="1600" fill="white"/>
</clipPath>
<clipPath id="clip1_24_18130">
<rect width="469" height="214" fill="white" transform="translate(331 586)"/>
</clipPath>
<clipPath id="clip2_24_18130">
<rect width="466.37" height="477.383" fill="white" transform="translate(332 587)"/>
</clipPath>
</defs>
</svg>
