<svg xmlns="http://www.w3.org/2000/svg" xmlns:xlink="http://www.w3.org/1999/xlink" viewBox="0 0 1600 1600" width="1600" height="1600" preserveAspectRatio="xMidYMid meet" style="width: 100%; height: 100%; transform: translate3d(0px, 0px, 0px); content-visibility: visible;"><defs><clipPath id="__lottie_element_2"><rect width="1600" height="1600" x="0" y="0"></rect></clipPath><clipPath id="__lottie_element_7"><path d="M0,0 L1600,0 L1600,1600 L0,1600z"></path></clipPath><clipPath id="__lottie_element_20"><path d="M0,0 L1600,0 L1600,1600 L0,1600z"></path></clipPath><clipPath id="__lottie_element_45"><path d="M0,0 L1600,0 L1600,1600 L0,1600z"></path></clipPath><clipPath id="__lottie_element_62"><path d="M0,0 L1600,0 L1600,1600 L0,1600z"></path></clipPath><clipPath id="__lottie_element_81"><path d="M0,0 L1600,0 L1600,1600 L0,1600z"></path></clipPath><clipPath id="__lottie_element_94"><path d="M0,0 L1600,0 L1600,1600 L0,1600z"></path></clipPath></defs><g clip-path="url(#__lottie_element_2)"><g transform="matrix(1,0,0,1,402.2250061035156,389.0790100097656)" opacity="1" style="display: block;"><g opacity="1" transform="matrix(1,0,0,1,0,0)"><path fill="rgb(249,74,130)" fill-opacity="1" d=" M7.517000198364258,0 C7.517000198364258,4.1519999504089355 4.1519999504089355,7.517000198364258 0,7.517000198364258 C-4.1519999504089355,7.517000198364258 -7.517000198364258,4.1519999504089355 -7.517000198364258,0 C-7.517000198364258,-4.1519999504089355 -4.1519999504089355,-7.517000198364258 0,-7.517000198364258 C4.1519999504089355,-7.517000198364258 7.517000198364258,-4.1519999504089355 7.517000198364258,0z"></path></g></g><g transform="matrix(1,0,0,1,654.7689819335938,428.5199890136719)" opacity="1" style="display: block;"><g opacity="1" transform="matrix(1,0,0,1,0,0)"><path fill="rgb(132,132,250)" fill-opacity="1" d=" M7.517000198364258,0 C7.517000198364258,4.1519999504089355 4.1519999504089355,7.517000198364258 0,7.517000198364258 C-4.1519999504089355,7.517000198364258 -7.517000198364258,4.1519999504089355 -7.517000198364258,0 C-7.517000198364258,-4.1519999504089355 -4.1519999504089355,-7.517000198364258 0,-7.517000198364258 C4.1519999504089355,-7.517000198364258 7.517000198364258,-4.1519999504089355 7.517000198364258,0z"></path><path stroke-linecap="round" stroke-linejoin="round" fill-opacity="0" stroke="rgb(32,40,112)" stroke-opacity="1" stroke-width="2" d=" M7.517000198364258,0 C7.517000198364258,4.1519999504089355 4.1519999504089355,7.517000198364258 0,7.517000198364258 C-4.1519999504089355,7.517000198364258 -7.517000198364258,4.1519999504089355 -7.517000198364258,0 C-7.517000198364258,-4.1519999504089355 -4.1519999504089355,-7.517000198364258 0,-7.517000198364258 C4.1519999504089355,-7.517000198364258 7.517000198364258,-4.1519999504089355 7.517000198364258,0z"></path></g></g><g transform="matrix(1,0,0,1,946.906982421875,337.6780090332031)" opacity="1" style="display: block;"><g opacity="1" transform="matrix(1,0,0,1,0,0)"><path fill="rgb(255,255,255)" fill-opacity="1" d=" M14.293999671936035,0 C14.293999671936035,7.894000053405762 7.894000053405762,14.293999671936035 0,14.293999671936035 C-7.894000053405762,14.293999671936035 -14.293999671936035,7.894000053405762 -14.293999671936035,0 C-14.293999671936035,-7.894000053405762 -7.894000053405762,-14.293999671936035 0,-14.293999671936035 C7.894000053405762,-14.293999671936035 14.293999671936035,-7.894000053405762 14.293999671936035,0z"></path><path stroke-linecap="round" stroke-linejoin="round" fill-opacity="0" stroke="rgb(32,40,112)" stroke-opacity="1" stroke-width="2" d=" M14.293999671936035,0 C14.293999671936035,7.894000053405762 7.894000053405762,14.293999671936035 0,14.293999671936035 C-7.894000053405762,14.293999671936035 -14.293999671936035,7.894000053405762 -14.293999671936035,0 C-14.293999671936035,-7.894000053405762 -7.894000053405762,-14.293999671936035 0,-14.293999671936035 C7.894000053405762,-14.293999671936035 14.293999671936035,-7.894000053405762 14.293999671936035,0z"></path></g></g><g transform="matrix(1,0,0,1,1336.3489990234375,954.4249877929688)" opacity="1" style="display: block;"><g opacity="1" transform="matrix(1,0,0,1,0,0)"><path fill="rgb(255,255,255)" fill-opacity="1" d=" M9.324999809265137,0 C9.324999809265137,5.150000095367432 5.150000095367432,9.324999809265137 0,9.324999809265137 C-5.150000095367432,9.324999809265137 -9.324999809265137,5.150000095367432 -9.324999809265137,0 C-9.324999809265137,-5.150000095367432 -5.150000095367432,-9.324999809265137 0,-9.324999809265137 C5.150000095367432,-9.324999809265137 9.324999809265137,-5.150000095367432 9.324999809265137,0z"></path><path stroke-linecap="round" stroke-linejoin="round" fill-opacity="0" stroke="rgb(32,40,112)" stroke-opacity="1" stroke-width="2" d=" M9.324999809265137,0 C9.324999809265137,5.150000095367432 5.150000095367432,9.324999809265137 0,9.324999809265137 C-5.150000095367432,9.324999809265137 -9.324999809265137,5.150000095367432 -9.324999809265137,0 C-9.324999809265137,-5.150000095367432 -5.150000095367432,-9.324999809265137 0,-9.324999809265137 C5.150000095367432,-9.324999809265137 9.324999809265137,-5.150000095367432 9.324999809265137,0z"></path></g></g><g transform="matrix(1,0,0,1,1329.092041015625,1070.54296875)" opacity="1" style="display: block;"><g opacity="1" transform="matrix(1,0,0,1,0,0)"><path fill="rgb(32,40,112)" fill-opacity="1" d=" M6.938000202178955,0 C6.938000202178955,3.8320000171661377 3.8320000171661377,6.938000202178955 0,6.938000202178955 C-3.8320000171661377,6.938000202178955 -6.938000202178955,3.8320000171661377 -6.938000202178955,0 C-6.938000202178955,-3.8320000171661377 -3.8320000171661377,-6.938000202178955 0,-6.938000202178955 C3.8320000171661377,-6.938000202178955 6.938000202178955,-3.8320000171661377 6.938000202178955,0z"></path></g></g><g transform="matrix(1,0,0,1,1219.865966796875,1143.8919677734375)" opacity="1" style="display: block;"><g opacity="1" transform="matrix(1,0,0,1,0,0)"><path fill="rgb(249,74,130)" fill-opacity="1" d=" M6.938000202178955,0 C6.938000202178955,3.8320000171661377 3.8320000171661377,6.938000202178955 0,6.938000202178955 C-3.8320000171661377,6.938000202178955 -6.938000202178955,3.8320000171661377 -6.938000202178955,0 C-6.938000202178955,-3.8320000171661377 -3.8320000171661377,-6.938000202178955 0,-6.938000202178955 C3.8320000171661377,-6.938000202178955 6.938000202178955,-3.8320000171661377 6.938000202178955,0z"></path></g></g><g transform="matrix(1,0,0,1,781.2479858398438,1294.699951171875)" opacity="1" style="display: block;"><g opacity="1" transform="matrix(1,0,0,1,0,0)"><path fill="rgb(255,255,255)" fill-opacity="1" d=" M13.814000129699707,0 C13.814000129699707,7.629000186920166 7.629000186920166,13.814000129699707 0,13.814000129699707 C-7.629000186920166,13.814000129699707 -13.814000129699707,7.629000186920166 -13.814000129699707,0 C-13.814000129699707,-7.629000186920166 -7.629000186920166,-13.814000129699707 0,-13.814000129699707 C7.629000186920166,-13.814000129699707 13.814000129699707,-7.629000186920166 13.814000129699707,0z"></path><path stroke-linecap="round" stroke-linejoin="round" fill-opacity="0" stroke="rgb(32,40,112)" stroke-opacity="1" stroke-width="2" d=" M13.814000129699707,0 C13.814000129699707,7.629000186920166 7.629000186920166,13.814000129699707 0,13.814000129699707 C-7.629000186920166,13.814000129699707 -13.814000129699707,7.629000186920166 -13.814000129699707,0 C-13.814000129699707,-7.629000186920166 -7.629000186920166,-13.814000129699707 0,-13.814000129699707 C7.629000186920166,-13.814000129699707 13.814000129699707,-7.629000186920166 13.814000129699707,0z"></path></g></g><g clip-path="url(#__lottie_element_94)" transform="matrix(1,0,0,1,0,0)" opacity="1" style="display: block;"><g transform="matrix(1,0,0,1,0,0)" opacity="1" style="display: block;"><g opacity="1" transform="matrix(1,0,0,1,474.8869934082031,656.81201171875)"><path fill="rgb(132,132,250)" fill-opacity="1" d=" M269.4679870605469,140.33200073242188 C269.4679870605469,140.33200073242188 -269.4679870605469,140.33200073242188 -269.4679870605469,140.33200073242188 C-269.4679870605469,140.33200073242188 -269.4679870605469,-140.33200073242188 -269.4679870605469,-140.33200073242188 C-269.4679870605469,-140.33200073242188 269.4679870605469,-140.33200073242188 269.4679870605469,-140.33200073242188 C269.4679870605469,-140.33200073242188 269.4679870605469,140.33200073242188 269.4679870605469,140.33200073242188z"></path><path stroke-linecap="round" stroke-linejoin="round" fill-opacity="0" stroke="rgb(32,40,112)" stroke-opacity="1" stroke-width="2" d=" M269.4679870605469,140.33200073242188 C269.4679870605469,140.33200073242188 -269.4679870605469,140.33200073242188 -269.4679870605469,140.33200073242188 C-269.4679870605469,140.33200073242188 -269.4679870605469,-140.33200073242188 -269.4679870605469,-140.33200073242188 C-269.4679870605469,-140.33200073242188 269.4679870605469,-140.33200073242188 269.4679870605469,-140.33200073242188 C269.4679870605469,-140.33200073242188 269.4679870605469,140.33200073242188 269.4679870605469,140.33200073242188z"></path></g><g opacity="1" transform="matrix(1,0,0,1,474.8869934082031,538.0900268554688)"><path fill="rgb(32,40,112)" fill-opacity="1" d=" M269.4679870605469,21.610000610351562 C269.4679870605469,21.610000610351562 -269.4679870605469,21.610000610351562 -269.4679870605469,21.610000610351562 C-269.4679870605469,21.610000610351562 -269.4679870605469,-21.610000610351562 -269.4679870605469,-21.610000610351562 C-269.4679870605469,-21.610000610351562 269.4679870605469,-21.610000610351562 269.4679870605469,-21.610000610351562 C269.4679870605469,-21.610000610351562 269.4679870605469,21.610000610351562 269.4679870605469,21.610000610351562z"></path><path stroke-linecap="round" stroke-linejoin="round" fill-opacity="0" stroke="rgb(32,40,112)" stroke-opacity="1" stroke-width="2" d=" M269.4679870605469,21.610000610351562 C269.4679870605469,21.610000610351562 -269.4679870605469,21.610000610351562 -269.4679870605469,21.610000610351562 C-269.4679870605469,21.610000610351562 -269.4679870605469,-21.610000610351562 -269.4679870605469,-21.610000610351562 C-269.4679870605469,-21.610000610351562 269.4679870605469,-21.610000610351562 269.4679870605469,-21.610000610351562 C269.4679870605469,-21.610000610351562 269.4679870605469,21.610000610351562 269.4679870605469,21.610000610351562z"></path></g><g opacity="1" transform="matrix(1,0,0,1,612.35498046875,681.3800048828125)"><path fill="rgb(255,255,255)" fill-opacity="1" d=" M110.12999725341797,94.59600067138672 C110.12999725341797,94.59600067138672 -110.12999725341797,94.59600067138672 -110.12999725341797,94.59600067138672 C-110.12999725341797,94.59600067138672 -110.12999725341797,-94.59600067138672 -110.12999725341797,-94.59600067138672 C-110.12999725341797,-94.59600067138672 110.12999725341797,-94.59600067138672 110.12999725341797,-94.59600067138672 C110.12999725341797,-94.59600067138672 110.12999725341797,94.59600067138672 110.12999725341797,94.59600067138672z"></path><path stroke-linecap="round" stroke-linejoin="round" fill-opacity="0" stroke="rgb(32,40,112)" stroke-opacity="1" stroke-width="2" d=" M110.12999725341797,94.59600067138672 C110.12999725341797,94.59600067138672 -110.12999725341797,94.59600067138672 -110.12999725341797,94.59600067138672 C-110.12999725341797,94.59600067138672 -110.12999725341797,-94.59600067138672 -110.12999725341797,-94.59600067138672 C-110.12999725341797,-94.59600067138672 110.12999725341797,-94.59600067138672 110.12999725341797,-94.59600067138672 C110.12999725341797,-94.59600067138672 110.12999725341797,94.59600067138672 110.12999725341797,94.59600067138672z"></path></g><g opacity="1" transform="matrix(1,0,0,1,0,0)"><g opacity="1" transform="matrix(1,0,0,1,233.05299377441406,538.0900268554688)"><path fill="rgb(255,255,255)" fill-opacity="1" d=" M7.0320000648498535,0 C7.0320000648498535,3.884000062942505 3.884000062942505,7.0320000648498535 0,7.0320000648498535 C-3.884000062942505,7.0320000648498535 -7.0320000648498535,3.884000062942505 -7.0320000648498535,0 C-7.0320000648498535,-3.884000062942505 -3.884000062942505,-7.0320000648498535 0,-7.0320000648498535 C3.884000062942505,-7.0320000648498535 7.0320000648498535,-3.884000062942505 7.0320000648498535,0z"></path></g><g opacity="1" transform="matrix(1,0,0,1,265.27099609375,538.0900268554688)"><path fill="rgb(255,255,255)" fill-opacity="1" d=" M7.0320000648498535,0 C7.0320000648498535,3.884000062942505 3.884000062942505,7.0320000648498535 0,7.0320000648498535 C-3.884000062942505,7.0320000648498535 -7.0320000648498535,3.884000062942505 -7.0320000648498535,0 C-7.0320000648498535,-3.884000062942505 -3.884000062942505,-7.0320000648498535 0,-7.0320000648498535 C3.884000062942505,-7.0320000648498535 7.0320000648498535,-3.884000062942505 7.0320000648498535,0z"></path></g><g opacity="1" transform="matrix(1,0,0,1,297.489013671875,538.0900268554688)"><path fill="rgb(255,255,255)" fill-opacity="1" d=" M7.0320000648498535,0 C7.0320000648498535,3.884000062942505 3.884000062942505,7.0320000648498535 0,7.0320000648498535 C-3.884000062942505,7.0320000648498535 -7.0320000648498535,3.884000062942505 -7.0320000648498535,0 C-7.0320000648498535,-3.884000062942505 -3.884000062942505,-7.0320000648498535 0,-7.0320000648498535 C3.884000062942505,-7.0320000648498535 7.0320000648498535,-3.884000062942505 7.0320000648498535,0z"></path></g></g></g><g transform="matrix(1,0,0,1,335.7799987792969,644.3179931640625)" opacity="1" style="display: block;"><g opacity="1" transform="matrix(1,0,0,1,0,0)"><path stroke-linecap="round" stroke-linejoin="round" fill-opacity="0" stroke="rgb(32,40,112)" stroke-opacity="1" stroke-width="2" d=" M-99.97699737548828,0 C-99.97699737548828,0 99.97699737548828,0 99.97699737548828,0"></path></g></g><g transform="matrix(1,0,0,1,335.7799987792969,675.9110107421875)" opacity="1" style="display: block;"><g opacity="1" transform="matrix(1,0,0,1,0,0)"><path stroke-linecap="round" stroke-linejoin="round" fill-opacity="0" stroke="rgb(32,40,112)" stroke-opacity="1" stroke-width="2" d=" M-99.97699737548828,0 C-99.97699737548828,0 99.97699737548828,0 99.97699737548828,0"></path></g></g><g transform="matrix(1,0,0,1,335.7799987792969,707.5040283203125)" opacity="1" style="display: block;"><g opacity="1" transform="matrix(1,0,0,1,0,0)"><path stroke-linecap="round" stroke-linejoin="round" fill-opacity="0" stroke="rgb(32,40,112)" stroke-opacity="1" stroke-width="2" d=" M-99.97699737548828,0 C-99.97699737548828,0 99.97699737548828,0 99.97699737548828,0"></path></g></g><g transform="matrix(1,0,0,1,635.8670043945312,698.3920288085938)" opacity="1" style="display: block;"><g opacity="1" transform="matrix(1,0,0,1,0,0)"><path fill="rgb(32,40,112)" fill-opacity="1" d=" M-108.48899841308594,98.7509994506836 C-108.48899841308594,98.7509994506836 108.48899841308594,98.7509994506836 108.48899841308594,98.7509994506836 C108.48899841308594,98.7509994506836 108.48899841308594,-98.7509994506836 108.48899841308594,-98.7509994506836 C108.48899841308594,-98.7509994506836 -59.12699890136719,-36.8129997253418 -59.12699890136719,-36.8129997253418 C-59.12699890136719,-36.8129997253418 -108.48899841308594,98.7509994506836 -108.48899841308594,98.7509994506836z"></path><path stroke-linecap="round" stroke-linejoin="round" fill-opacity="0" stroke="rgb(32,40,112)" stroke-opacity="1" stroke-width="2" d=" M-108.48899841308594,98.7509994506836 C-108.48899841308594,98.7509994506836 108.48899841308594,98.7509994506836 108.48899841308594,98.7509994506836 C108.48899841308594,98.7509994506836 108.48899841308594,-98.7509994506836 108.48899841308594,-98.7509994506836 C108.48899841308594,-98.7509994506836 -59.12699890136719,-36.8129997253418 -59.12699890136719,-36.8129997253418 C-59.12699890136719,-36.8129997253418 -108.48899841308594,98.7509994506836 -108.48899841308594,98.7509994506836z"></path></g></g></g><g clip-path="url(#__lottie_element_81)" transform="matrix(1,0,0,1,0,0)" opacity="1" style="display: block;"><g transform="matrix(1,0,0,1,0,0)" opacity="1" style="display: block;"><g opacity="1" transform="matrix(1,0,0,1,0,0)"><g opacity="1" transform="matrix(1,0,0,1,548.4520263671875,1075.677001953125)"><path fill="rgb(32,40,112)" fill-opacity="1" d=" M144.98899841308594,133.35899353027344 C144.98899841308594,133.35899353027344 -167.63699340820312,133.35899353027344 -167.63699340820312,133.35899353027344 C-167.63699340820312,133.35899353027344 -167.63699340820312,-133.35899353027344 -167.63699340820312,-133.35899353027344 C-167.63699340820312,-133.35899353027344 167.63699340820312,-133.35899353027344 167.63699340820312,-133.35899353027344 C167.63699340820312,-133.35899353027344 167.63699340820312,110.71099853515625 167.63699340820312,110.71099853515625 C167.63699340820312,123.21900177001953 157.4969940185547,133.35899353027344 144.98899841308594,133.35899353027344z"></path><path stroke-linecap="round" stroke-linejoin="round" fill-opacity="0" stroke="rgb(32,40,112)" stroke-opacity="1" stroke-width="2" d=" M144.98899841308594,133.35899353027344 C144.98899841308594,133.35899353027344 -167.63699340820312,133.35899353027344 -167.63699340820312,133.35899353027344 C-167.63699340820312,133.35899353027344 -167.63699340820312,-133.35899353027344 -167.63699340820312,-133.35899353027344 C-167.63699340820312,-133.35899353027344 167.63699340820312,-133.35899353027344 167.63699340820312,-133.35899353027344 C167.63699340820312,-133.35899353027344 167.63699340820312,110.71099853515625 167.63699340820312,110.71099853515625 C167.63699340820312,123.21900177001953 157.4969940185547,133.35899353027344 144.98899841308594,133.35899353027344z"></path></g><g opacity="1" transform="matrix(1,0,0,1,408.8890075683594,1065.468994140625)"><path fill="rgb(132,132,250)" fill-opacity="1" d=" M186.0679931640625,176.95899963378906 C186.0679931640625,176.95899963378906 -158.406005859375,176.95899963378906 -158.406005859375,176.95899963378906 C-173.68299865722656,176.95899963378906 -186.0679931640625,164.5749969482422 -186.0679931640625,149.29800415039062 C-186.0679931640625,149.29800415039062 -186.0679931640625,-176.95899963378906 -186.0679931640625,-176.95899963378906 C-186.0679931640625,-176.95899963378906 156.9459991455078,-176.95899963378906 156.9459991455078,-176.95899963378906 C156.9459991455078,-176.95899963378906 156.9459991455078,147.83799743652344 156.9459991455078,147.83799743652344 C156.9459991455078,163.92100524902344 169.98500061035156,176.95899963378906 186.0679931640625,176.95899963378906 C186.0679931640625,176.95899963378906 186.0679931640625,176.95899963378906 186.0679931640625,176.95899963378906z"></path><path stroke-linecap="round" stroke-linejoin="round" fill-opacity="0" stroke="rgb(32,40,112)" stroke-opacity="1" stroke-width="2" d=" M186.0679931640625,176.95899963378906 C186.0679931640625,176.95899963378906 -158.406005859375,176.95899963378906 -158.406005859375,176.95899963378906 C-173.68299865722656,176.95899963378906 -186.0679931640625,164.5749969482422 -186.0679931640625,149.29800415039062 C-186.0679931640625,149.29800415039062 -186.0679931640625,-176.95899963378906 -186.0679931640625,-176.95899963378906 C-186.0679931640625,-176.95899963378906 156.9459991455078,-176.95899963378906 156.9459991455078,-176.95899963378906 C156.9459991455078,-176.95899963378906 156.9459991455078,147.83799743652344 156.9459991455078,147.83799743652344 C156.9459991455078,163.92100524902344 169.98500061035156,176.95899963378906 186.0679931640625,176.95899963378906 C186.0679931640625,176.95899963378906 186.0679931640625,176.95899963378906 186.0679931640625,176.95899963378906z"></path></g><g opacity="1" transform="matrix(1,0,0,1,0,0)"><g opacity="1" transform="matrix(1,0,0,1,594.9559936523438,1214.22802734375)"><path fill="rgb(32,40,112)" fill-opacity="1" d=" M29.121000289916992,0 C29.121000289916992,-16.08300018310547 16.08300018310547,-29.121000289916992 0,-29.121000289916992 C-16.08300018310547,-29.121000289916992 -29.121000289916992,-16.08300018310547 -29.121000289916992,0 C-29.121000289916992,16.08300018310547 -16.08300018310547,29.121000289916992 0,29.121000289916992 C16.08300018310547,29.121000289916992 29.121000289916992,16.08300018310547 29.121000289916992,0z"></path></g><g opacity="1" transform="matrix(1,0,0,1,606.3460083007812,1152.5379638671875)"><path fill="rgb(32,40,112)" fill-opacity="1" d=" M-40.51100158691406,-61.689998626708984 C-40.51100158691406,-61.689998626708984 40.51100158691406,-61.689998626708984 40.51100158691406,-61.689998626708984 C40.51100158691406,-61.689998626708984 40.51100158691406,-61.689998626708984 40.51100158691406,-61.689998626708984 C27.788000106811523,-61.1879997253418 17.73200035095215,-50.72800064086914 17.73200035095215,-37.994998931884766 C17.73200035095215,-37.994998931884766 17.73200035095215,61.689998626708984 17.73200035095215,61.689998626708984 C17.73200035095215,61.689998626708984 -40.51100158691406,61.689998626708984 -40.51100158691406,61.689998626708984 C-40.51100158691406,61.689998626708984 -40.51100158691406,-61.689998626708984 -40.51100158691406,-61.689998626708984z"></path></g><g opacity="1" transform="matrix(1,0,0,1,606.6699829101562,1091.7459716796875)"><path stroke-linecap="round" stroke-linejoin="round" fill-opacity="0" stroke="rgb(255,255,255)" stroke-opacity="1" stroke-width="2" d=" M-40.18600082397461,0 C-40.18600082397461,0 40.18600082397461,0 40.18600082397461,0"></path></g></g></g><g opacity="1" transform="matrix(1,0,0,1,646.8569946289062,1150.3909912109375)"><path fill="rgb(132,132,250)" fill-opacity="1" d=" M0,-58.64400100708008 C-12.369999885559082,-58.64400100708008 -22.39699935913086,-48.617000579833984 -22.39699935913086,-36.24700164794922 C-22.39699935913086,-36.24700164794922 -22.39699935913086,58.64400100708008 -22.39699935913086,58.64400100708008 C-22.39699935913086,58.64400100708008 22.39699935913086,58.64400100708008 22.39699935913086,58.64400100708008 C22.39699935913086,58.64400100708008 22.39699935913086,-36.24700164794922 22.39699935913086,-36.24700164794922 C22.39699935913086,-48.617000579833984 12.369999885559082,-58.64400100708008 0,-58.64400100708008z"></path><path stroke-linecap="round" stroke-linejoin="round" fill-opacity="0" stroke="rgb(32,40,112)" stroke-opacity="1" stroke-width="2" d=" M0,-58.64400100708008 C-12.369999885559082,-58.64400100708008 -22.39699935913086,-48.617000579833984 -22.39699935913086,-36.24700164794922 C-22.39699935913086,-36.24700164794922 -22.39699935913086,58.64400100708008 -22.39699935913086,58.64400100708008 C-22.39699935913086,58.64400100708008 22.39699935913086,58.64400100708008 22.39699935913086,58.64400100708008 C22.39699935913086,58.64400100708008 22.39699935913086,-36.24700164794922 22.39699935913086,-36.24700164794922 C22.39699935913086,-48.617000579833984 12.369999885559082,-58.64400100708008 0,-58.64400100708008z"></path></g><g opacity="1" transform="matrix(1,0,0,1,693.6920166015625,1150.2359619140625)"><path fill="rgb(32,40,112)" fill-opacity="1" d=" M0,58.64400100708008 C-12.369999885559082,58.64400100708008 -22.39699935913086,48.617000579833984 -22.39699935913086,36.24700164794922 C-22.39699935913086,36.24700164794922 -22.39699935913086,-58.64400100708008 -22.39699935913086,-58.64400100708008 C-22.39699935913086,-58.64400100708008 22.39699935913086,-58.64400100708008 22.39699935913086,-58.64400100708008 C22.39699935913086,-58.64400100708008 22.39699935913086,36.24700164794922 22.39699935913086,36.24700164794922 C22.39699935913086,48.617000579833984 12.369999885559082,58.64400100708008 0,58.64400100708008z"></path><path stroke-linecap="round" stroke-linejoin="round" fill-opacity="0" stroke="rgb(32,40,112)" stroke-opacity="1" stroke-width="2" d=" M0,58.64400100708008 C-12.369999885559082,58.64400100708008 -22.39699935913086,48.617000579833984 -22.39699935913086,36.24700164794922 C-22.39699935913086,36.24700164794922 -22.39699935913086,-58.64400100708008 -22.39699935913086,-58.64400100708008 C-22.39699935913086,-58.64400100708008 22.39699935913086,-58.64400100708008 22.39699935913086,-58.64400100708008 C22.39699935913086,-58.64400100708008 22.39699935913086,36.24700164794922 22.39699935913086,36.24700164794922 C22.39699935913086,48.617000579833984 12.369999885559082,58.64400100708008 0,58.64400100708008z"></path></g></g><g transform="matrix(1,0,0,1,0,0)" opacity="1" style="display: block;"><g opacity="1" transform="matrix(1,0,0,1,394.3280029296875,942.3179931640625)"><path fill="rgb(255,255,255)" fill-opacity="1" d=" M85.3030014038086,-46.569000244140625 C85.3030014038086,-46.569000244140625 85.3030014038086,98.61000061035156 85.3030014038086,98.61000061035156 C85.3030014038086,98.61000061035156 -85.3030014038086,98.61000061035156 -85.3030014038086,98.61000061035156 C-85.3030014038086,98.61000061035156 -85.3030014038086,-98.61000061035156 -85.3030014038086,-98.61000061035156 C-85.3030014038086,-98.61000061035156 33.26100158691406,-98.61000061035156 33.26100158691406,-98.61000061035156"></path><path stroke-linecap="round" stroke-linejoin="round" fill-opacity="0" stroke="rgb(32,40,112)" stroke-opacity="1" stroke-width="2" d=" M85.3030014038086,-46.569000244140625 C85.3030014038086,-46.569000244140625 85.3030014038086,98.61000061035156 85.3030014038086,98.61000061035156 C85.3030014038086,98.61000061035156 -85.3030014038086,98.61000061035156 -85.3030014038086,98.61000061035156 C-85.3030014038086,98.61000061035156 -85.3030014038086,-98.61000061035156 -85.3030014038086,-98.61000061035156 C-85.3030014038086,-98.61000061035156 33.26100158691406,-98.61000061035156 33.26100158691406,-98.61000061035156"></path></g><g opacity="1" transform="matrix(1,0,0,1,453.6099853515625,869.72900390625)"><path fill="rgb(255,255,255)" fill-opacity="1" d=" M-26.020999908447266,26.020999908447266 C-26.020999908447266,26.020999908447266 26.020999908447266,26.020999908447266 26.020999908447266,26.020999908447266 C26.020999908447266,26.020999908447266 -26.020999908447266,-26.020999908447266 -26.020999908447266,-26.020999908447266 C-26.020999908447266,-26.020999908447266 -26.020999908447266,26.020999908447266 -26.020999908447266,26.020999908447266z"></path><path stroke-linecap="round" stroke-linejoin="round" fill-opacity="0" stroke="rgb(32,40,112)" stroke-opacity="1" stroke-width="2" d=" M-26.020999908447266,26.020999908447266 C-26.020999908447266,26.020999908447266 26.020999908447266,26.020999908447266 26.020999908447266,26.020999908447266 C26.020999908447266,26.020999908447266 -26.020999908447266,-26.020999908447266 -26.020999908447266,-26.020999908447266 C-26.020999908447266,-26.020999908447266 -26.020999908447266,26.020999908447266 -26.020999908447266,26.020999908447266z"></path></g></g><g transform="matrix(1,0,0,1,394.3280029296875,1065.468994140625)" opacity="1" style="display: block;"><g opacity="1" transform="matrix(1,0,0,1,0,0)"><path fill="rgb(255,255,255)" fill-opacity="1" d=" M138.47500610351562,97.9729995727539 C138.47500610351562,97.9729995727539 -138.47500610351562,97.9729995727539 -138.47500610351562,97.9729995727539 C-138.47500610351562,97.9729995727539 -138.47500610351562,-97.9729995727539 -138.47500610351562,-97.9729995727539 C-138.47500610351562,-97.9729995727539 -31.225000381469727,-97.9729995727539 -31.225000381469727,-97.9729995727539 C-31.225000381469727,-97.9729995727539 11.312999725341797,-48.645999908447266 11.312999725341797,-48.645999908447266 C11.312999725341797,-48.645999908447266 138.47500610351562,-48.645999908447266 138.47500610351562,-48.645999908447266 C138.47500610351562,-48.645999908447266 138.47500610351562,97.9729995727539 138.47500610351562,97.9729995727539z"></path><path stroke-linecap="round" stroke-linejoin="round" fill-opacity="0" stroke="rgb(32,40,112)" stroke-opacity="1" stroke-width="2" d=" M138.47500610351562,97.9729995727539 C138.47500610351562,97.9729995727539 -138.47500610351562,97.9729995727539 -138.47500610351562,97.9729995727539 C-138.47500610351562,97.9729995727539 -138.47500610351562,-97.9729995727539 -138.47500610351562,-97.9729995727539 C-138.47500610351562,-97.9729995727539 -31.225000381469727,-97.9729995727539 -31.225000381469727,-97.9729995727539 C-31.225000381469727,-97.9729995727539 11.312999725341797,-48.645999908447266 11.312999725341797,-48.645999908447266 C11.312999725341797,-48.645999908447266 138.47500610351562,-48.645999908447266 138.47500610351562,-48.645999908447266 C138.47500610351562,-48.645999908447266 138.47500610351562,97.9729995727539 138.47500610351562,97.9729995727539z"></path></g></g></g><g clip-path="url(#__lottie_element_62)" transform="matrix(1,0,0,1,0,0)" opacity="1" style="display: block;"><g transform="matrix(1,0,0,1,0,0)" opacity="1" style="display: block;"><g opacity="1" transform="matrix(1,0,0,1,979.6430053710938,1022.6939697265625)"><path fill="rgb(132,132,250)" fill-opacity="1" d=" M-187.21499633789062,97.9729995727539 C-187.21499633789062,97.9729995727539 187.21499633789062,97.9729995727539 187.21499633789062,97.9729995727539 C187.21499633789062,97.9729995727539 187.21499633789062,-97.9729995727539 187.21499633789062,-97.9729995727539 C187.21499633789062,-97.9729995727539 -187.21499633789062,-97.9729995727539 -187.21499633789062,-97.9729995727539 C-187.21499633789062,-97.9729995727539 -187.21499633789062,97.9729995727539 -187.21499633789062,97.9729995727539z"></path><path stroke-linecap="round" stroke-linejoin="round" fill-opacity="0" stroke="rgb(32,40,112)" stroke-opacity="1" stroke-width="2" d=" M-187.21499633789062,97.9729995727539 C-187.21499633789062,97.9729995727539 187.21499633789062,97.9729995727539 187.21499633789062,97.9729995727539 C187.21499633789062,97.9729995727539 187.21499633789062,-97.9729995727539 187.21499633789062,-97.9729995727539 C187.21499633789062,-97.9729995727539 -187.21499633789062,-97.9729995727539 -187.21499633789062,-97.9729995727539 C-187.21499633789062,-97.9729995727539 -187.21499633789062,97.9729995727539 -187.21499633789062,97.9729995727539z"></path></g><g opacity="1" transform="matrix(1,0,0,1,1178.2879638671875,1022.6939697265625)"><path fill="rgb(32,40,112)" fill-opacity="1" d=" M11.430000305175781,-97.9729995727539 C11.430000305175781,-97.9729995727539 -11.430000305175781,-97.9729995727539 -11.430000305175781,-97.9729995727539 C-11.430000305175781,-97.9729995727539 -11.430000305175781,97.9729995727539 -11.430000305175781,97.9729995727539 C-11.430000305175781,97.9729995727539 11.430000305175781,97.9729995727539 11.430000305175781,97.9729995727539 C11.430000305175781,97.9729995727539 11.430000305175781,-97.9729995727539 11.430000305175781,-97.9729995727539z"></path><path stroke-linecap="round" stroke-linejoin="round" fill-opacity="0" stroke="rgb(32,40,112)" stroke-opacity="1" stroke-width="2" d=" M11.430000305175781,-97.9729995727539 C11.430000305175781,-97.9729995727539 -11.430000305175781,-97.9729995727539 -11.430000305175781,-97.9729995727539 C-11.430000305175781,-97.9729995727539 -11.430000305175781,97.9729995727539 -11.430000305175781,97.9729995727539 C-11.430000305175781,97.9729995727539 11.430000305175781,97.9729995727539 11.430000305175781,97.9729995727539 C11.430000305175781,97.9729995727539 11.430000305175781,-97.9729995727539 11.430000305175781,-97.9729995727539z"></path></g></g><g transform="matrix(1,0,0,1,909.7459716796875,1021.9149780273438)" opacity="1" style="display: block;"><g opacity="1" transform="matrix(1,0,0,1,0,0)"><path fill="rgb(32,40,112)" fill-opacity="1" d=" M27.86400032043457,98.7509994506836 C27.86400032043457,98.7509994506836 -95.44599914550781,98.7509994506836 -95.44599914550781,98.7509994506836 C-95.44599914550781,98.7509994506836 -95.44599914550781,-98.7509994506836 -95.44599914550781,-98.7509994506836 C-95.44599914550781,-98.7509994506836 95.44599914550781,-97.19400024414062 95.44599914550781,-97.19400024414062 C95.44599914550781,-97.19400024414062 27.86400032043457,98.7509994506836 27.86400032043457,98.7509994506836z"></path><path stroke-linecap="round" stroke-linejoin="round" fill-opacity="0" stroke="rgb(32,40,112)" stroke-opacity="1" stroke-width="2" d=" M27.86400032043457,98.7509994506836 C27.86400032043457,98.7509994506836 -95.44599914550781,98.7509994506836 -95.44599914550781,98.7509994506836 C-95.44599914550781,98.7509994506836 -95.44599914550781,-98.7509994506836 -95.44599914550781,-98.7509994506836 C-95.44599914550781,-98.7509994506836 95.44599914550781,-97.19400024414062 95.44599914550781,-97.19400024414062 C95.44599914550781,-97.19400024414062 27.86400032043457,98.7509994506836 27.86400032043457,98.7509994506836z"></path></g></g><g transform="matrix(1,0,0,1,1073.7349853515625,1057.780029296875)" opacity="1" style="display: block;"><g opacity="1" transform="matrix(1,0,0,1,0,0)"><path fill="rgb(255,255,255)" fill-opacity="1" d=" M28.424999237060547,0 C28.424999237060547,15.699000358581543 15.699000358581543,28.424999237060547 0,28.424999237060547 C-15.699000358581543,28.424999237060547 -28.424999237060547,15.699000358581543 -28.424999237060547,0 C-28.424999237060547,-15.699000358581543 -15.699000358581543,-28.424999237060547 0,-28.424999237060547 C15.699000358581543,-28.424999237060547 28.424999237060547,-15.699000358581543 28.424999237060547,0z"></path><path stroke-linecap="round" stroke-linejoin="round" fill-opacity="0" stroke="rgb(32,40,112)" stroke-opacity="1" stroke-width="2" d=" M28.424999237060547,0 C28.424999237060547,15.699000358581543 15.699000358581543,28.424999237060547 0,28.424999237060547 C-15.699000358581543,28.424999237060547 -28.424999237060547,15.699000358581543 -28.424999237060547,0 C-28.424999237060547,-15.699000358581543 -15.699000358581543,-28.424999237060547 0,-28.424999237060547 C15.699000358581543,-28.424999237060547 28.424999237060547,-15.699000358581543 28.424999237060547,0z"></path></g></g><g transform="matrix(1,0,0,1,1114.251953125,1057.780029296875)" opacity="1" style="display: block;"><g opacity="1" transform="matrix(1,0,0,1,0,0)"><path fill="rgb(255,255,255)" fill-opacity="1" d=" M28.424999237060547,0 C28.424999237060547,15.699000358581543 15.699000358581543,28.424999237060547 0,28.424999237060547 C-15.699000358581543,28.424999237060547 -28.424999237060547,15.699000358581543 -28.424999237060547,0 C-28.424999237060547,-15.699000358581543 -15.699000358581543,-28.424999237060547 0,-28.424999237060547 C15.699000358581543,-28.424999237060547 28.424999237060547,-15.699000358581543 28.424999237060547,0z"></path><path stroke-linecap="round" stroke-linejoin="round" fill-opacity="0" stroke="rgb(32,40,112)" stroke-opacity="1" stroke-width="2" d=" M28.424999237060547,0 C28.424999237060547,15.699000358581543 15.699000358581543,28.424999237060547 0,28.424999237060547 C-15.699000358581543,28.424999237060547 -28.424999237060547,15.699000358581543 -28.424999237060547,0 C-28.424999237060547,-15.699000358581543 -15.699000358581543,-28.424999237060547 0,-28.424999237060547 C15.699000358581543,-28.424999237060547 28.424999237060547,-15.699000358581543 28.424999237060547,0z"></path></g></g><g transform="matrix(1,0,0,1,1073.7349853515625,1057.780029296875)" opacity="1" style="display: block;"><g opacity="1" transform="matrix(1,0,0,1,0,0)"><path stroke-linecap="round" stroke-linejoin="round" fill-opacity="0" stroke="rgb(32,40,112)" stroke-opacity="1" stroke-width="2" d=" M28.424999237060547,0 C28.424999237060547,15.699000358581543 15.699000358581543,28.424999237060547 0,28.424999237060547 C-15.699000358581543,28.424999237060547 -28.424999237060547,15.699000358581543 -28.424999237060547,0 C-28.424999237060547,-15.699000358581543 -15.699000358581543,-28.424999237060547 0,-28.424999237060547 C15.699000358581543,-28.424999237060547 28.424999237060547,-15.699000358581543 28.424999237060547,0z"></path></g></g></g><g clip-path="url(#__lottie_element_45)" transform="matrix(1,0,0,1,0,0)" opacity="1" style="display: block;"><g transform="matrix(1,0,0,1,0,0)" opacity="1" style="display: block;"><g opacity="1" transform="matrix(1,0,0,1,1182.9859619140625,526.4169921875)"><path fill="rgb(255,255,255)" fill-opacity="1" d=" M-137.4340057373047,-105.2969970703125 C-137.4340057373047,-105.2969970703125 137.4340057373047,-105.2969970703125 137.4340057373047,-105.2969970703125 C137.4340057373047,-105.2969970703125 137.4340057373047,105.2969970703125 137.4340057373047,105.2969970703125 C137.4340057373047,105.2969970703125 -137.4340057373047,105.2969970703125 -137.4340057373047,105.2969970703125 C-137.4340057373047,105.2969970703125 -137.4340057373047,-105.2969970703125 -137.4340057373047,-105.2969970703125z"></path><path stroke-linecap="round" stroke-linejoin="round" fill-opacity="0" stroke="rgb(32,40,112)" stroke-opacity="1" stroke-width="2" d=" M-137.4340057373047,-105.2969970703125 C-137.4340057373047,-105.2969970703125 137.4340057373047,-105.2969970703125 137.4340057373047,-105.2969970703125 C137.4340057373047,-105.2969970703125 137.4340057373047,105.2969970703125 137.4340057373047,105.2969970703125 C137.4340057373047,105.2969970703125 -137.4340057373047,105.2969970703125 -137.4340057373047,105.2969970703125 C-137.4340057373047,105.2969970703125 -137.4340057373047,-105.2969970703125 -137.4340057373047,-105.2969970703125z"></path></g><g opacity="1" transform="matrix(1,0,0,1,1273.7769775390625,631.7119750976562)"><path fill="rgb(255,255,255)" fill-opacity="1" d=" M51.32899856567383,0 C51.32899856567383,0 -51.32899856567383,0 -51.32899856567383,0"></path><path stroke-linecap="round" stroke-linejoin="round" fill-opacity="0" stroke="rgb(32,40,112)" stroke-opacity="1" stroke-width="2" d=" M51.32899856567383,0 C51.32899856567383,0 -51.32899856567383,0 -51.32899856567383,0"></path></g><g opacity="1" transform="matrix(1,0,0,1,0,0)"><g opacity="1" transform="matrix(1,0,0,1,1199.8489990234375,477.4119873046875)"><path fill="rgb(32,40,112)" fill-opacity="1" d=" M154.29600524902344,-154.30099487304688 C154.29600524902344,-154.30099487304688 154.29600524902344,126.25199890136719 154.29600524902344,126.25199890136719 C154.29600524902344,141.7429962158203 141.73800659179688,154.30099487304688 126.24700164794922,154.30099487304688 C126.24700164794922,154.30099487304688 126.24700164794922,154.30099487304688 126.24700164794922,154.30099487304688 C110.75599670410156,154.30099487304688 98.197998046875,141.7429962158203 98.197998046875,126.25199890136719 C98.197998046875,126.25199890136719 98.197998046875,-21.395999908447266 98.197998046875,-21.395999908447266 C98.197998046875,-40.66899871826172 82.23100280761719,-56.29600143432617 62.542999267578125,-56.29600143432617 C42.84600067138672,-56.29600143432617 26.88800048828125,-40.66899871826172 26.88800048828125,-21.395999908447266 C26.88800048828125,-21.395999908447266 26.88800048828125,154.30099487304688 26.88800048828125,154.30099487304688 C26.88800048828125,154.30099487304688 -154.29600524902344,154.30099487304688 -154.29600524902344,154.30099487304688 C-154.29600524902344,154.30099487304688 -154.29600524902344,-154.30099487304688 -154.29600524902344,-154.30099487304688 C-154.29600524902344,-154.30099487304688 154.29600524902344,-154.30099487304688 154.29600524902344,-154.30099487304688z"></path><path stroke-linecap="round" stroke-linejoin="round" fill-opacity="0" stroke="rgb(32,40,112)" stroke-opacity="1" stroke-width="2" d=" M154.29600524902344,-154.30099487304688 C154.29600524902344,-154.30099487304688 154.29600524902344,126.25199890136719 154.29600524902344,126.25199890136719 C154.29600524902344,141.7429962158203 141.73800659179688,154.30099487304688 126.24700164794922,154.30099487304688 C126.24700164794922,154.30099487304688 126.24700164794922,154.30099487304688 126.24700164794922,154.30099487304688 C110.75599670410156,154.30099487304688 98.197998046875,141.7429962158203 98.197998046875,126.25199890136719 C98.197998046875,126.25199890136719 98.197998046875,-21.395999908447266 98.197998046875,-21.395999908447266 C98.197998046875,-40.66899871826172 82.23100280761719,-56.29600143432617 62.542999267578125,-56.29600143432617 C42.84600067138672,-56.29600143432617 26.88800048828125,-40.66899871826172 26.88800048828125,-21.395999908447266 C26.88800048828125,-21.395999908447266 26.88800048828125,154.30099487304688 26.88800048828125,154.30099487304688 C26.88800048828125,154.30099487304688 -154.29600524902344,154.30099487304688 -154.29600524902344,154.30099487304688 C-154.29600524902344,154.30099487304688 -154.29600524902344,-154.30099487304688 -154.29600524902344,-154.30099487304688 C-154.29600524902344,-154.30099487304688 154.29600524902344,-154.30099487304688 154.29600524902344,-154.30099487304688z"></path></g><g opacity="1" transform="matrix(1,0,0,1,1052.114013671875,649.1339721679688)"><path fill="rgb(132,132,250)" fill-opacity="1" d=" M174.6199951171875,228.01400756835938 C174.6199951171875,228.01400756835938 -210.27499389648438,228.01400756835938 -210.27499389648438,228.01400756835938 C-210.27499389648438,228.01400756835938 -210.27499389648438,-192.98500061035156 -210.27499389648438,-192.98500061035156 C-210.27499389648438,-212.33099365234375 -194.5919952392578,-228.01400756835938 -175.24600219726562,-228.01400756835938 C-175.24600219726562,-228.01400756835938 210.27499389648438,-228.01400756835938 210.27499389648438,-228.01400756835938 C210.27499389648438,-228.01400756835938 210.27499389648438,-228.01400756835938 210.27499389648438,-228.01400756835938 C190.58299255371094,-228.01400756835938 174.6199951171875,-212.05099487304688 174.6199951171875,-192.35899353027344 C174.6199951171875,-192.35899353027344 174.6199951171875,228.01400756835938 174.6199951171875,228.01400756835938z"></path><path stroke-linecap="round" stroke-linejoin="round" fill-opacity="0" stroke="rgb(32,40,112)" stroke-opacity="1" stroke-width="2" d=" M174.6199951171875,228.01400756835938 C174.6199951171875,228.01400756835938 -210.27499389648438,228.01400756835938 -210.27499389648438,228.01400756835938 C-210.27499389648438,228.01400756835938 -210.27499389648438,-192.98500061035156 -210.27499389648438,-192.98500061035156 C-210.27499389648438,-212.33099365234375 -194.5919952392578,-228.01400756835938 -175.24600219726562,-228.01400756835938 C-175.24600219726562,-228.01400756835938 210.27499389648438,-228.01400756835938 210.27499389648438,-228.01400756835938 C210.27499389648438,-228.01400756835938 210.27499389648438,-228.01400756835938 210.27499389648438,-228.01400756835938 C190.58299255371094,-228.01400756835938 174.6199951171875,-212.05099487304688 174.6199951171875,-192.35899353027344 C174.6199951171875,-192.35899353027344 174.6199951171875,228.01400756835938 174.6199951171875,228.01400756835938z"></path></g><g opacity="1" transform="matrix(1,0,0,1,0,0)"><g opacity="1" transform="matrix(1,0,0,1,1169.947021484375,481.9360046386719)"><path stroke-linecap="round" stroke-linejoin="round" fill-opacity="0" stroke="rgb(32,40,112)" stroke-opacity="1" stroke-width="2" d=" M0,0"></path></g><g opacity="1" transform="matrix(1,0,0,1,898.6259765625,481.9360046386719)"><path stroke-linecap="round" stroke-linejoin="round" fill-opacity="0" stroke="rgb(32,40,112)" stroke-opacity="1" stroke-width="2" d=" M0,0"></path></g></g></g></g><g transform="matrix(1,0,0,1,1005.4429931640625,545.1220092773438)" opacity="1" style="display: block;"><g opacity="1" transform="matrix(1,0,0,1,0,0)"><path stroke-linecap="round" stroke-linejoin="round" fill-opacity="0" stroke="rgb(32,40,112)" stroke-opacity="1" stroke-width="2" d=" M-106.81700134277344,0 C-106.81700134277344,0 106.81700134277344,0 106.81700134277344,0"></path></g></g><g transform="matrix(1,0,0,1,957.6519775390625,513.5289916992188)" opacity="1" style="display: block;"><g opacity="1" transform="matrix(1,0,0,1,0,0)"><path stroke-linecap="round" stroke-linejoin="round" fill-opacity="0" stroke="rgb(32,40,112)" stroke-opacity="1" stroke-width="2" d=" M-59.0260009765625,0 C-59.0260009765625,0 59.0260009765625,0 59.0260009765625,0"></path></g></g><g transform="matrix(1,0,0,1,1034.2860107421875,481.9360046386719)" opacity="1" style="display: block;"><g opacity="1" transform="matrix(1,0,0,1,0,0)"><path stroke-linecap="round" stroke-linejoin="round" fill-opacity="0" stroke="rgb(32,40,112)" stroke-opacity="1" stroke-width="2" d=" M-135.66000366210938,0 C-135.66000366210938,0 135.66000366210938,0 135.66000366210938,0"></path></g></g></g><g clip-path="url(#__lottie_element_20)" transform="matrix(1,0,0,1,0,0)" opacity="1" style="display: block;"><g transform="matrix(1,0,0,1,0,0)" opacity="1" style="display: block;"><g opacity="1" transform="matrix(1,0,0,1,1247.7049560546875,777.5889892578125)"><path fill="rgb(255,255,255)" fill-opacity="1" d=" M196.41700744628906,67.14600372314453 C196.41700744628906,67.14600372314453 -196.41700744628906,67.14600372314453 -196.41700744628906,67.14600372314453 C-196.41700744628906,67.14600372314453 -196.41700744628906,-67.14600372314453 -196.41700744628906,-67.14600372314453 C-196.41700744628906,-67.14600372314453 196.41700744628906,-67.14600372314453 196.41700744628906,-67.14600372314453 C196.41700744628906,-67.14600372314453 196.41700744628906,67.14600372314453 196.41700744628906,67.14600372314453z"></path><path stroke-linecap="round" stroke-linejoin="round" fill-opacity="0" stroke="rgb(32,40,112)" stroke-opacity="1" stroke-width="2" d=" M196.41700744628906,67.14600372314453 C196.41700744628906,67.14600372314453 -196.41700744628906,67.14600372314453 -196.41700744628906,67.14600372314453 C-196.41700744628906,67.14600372314453 -196.41700744628906,-67.14600372314453 -196.41700744628906,-67.14600372314453 C-196.41700744628906,-67.14600372314453 196.41700744628906,-67.14600372314453 196.41700744628906,-67.14600372314453 C196.41700744628906,-67.14600372314453 196.41700744628906,67.14600372314453 196.41700744628906,67.14600372314453z"></path></g><g opacity="1" transform="matrix(1,0,0,1,0,0)"><g opacity="1" transform="matrix(1,0,0,1,1247.7049560546875,736.843994140625)"><path fill="rgb(32,40,112)" fill-opacity="1" d=" M196.41700744628906,26.400999069213867 C196.41700744628906,26.400999069213867 -196.41700744628906,26.400999069213867 -196.41700744628906,26.400999069213867 C-196.41700744628906,26.400999069213867 -196.41700744628906,-26.400999069213867 -196.41700744628906,-26.400999069213867 C-196.41700744628906,-26.400999069213867 196.41700744628906,-26.400999069213867 196.41700744628906,-26.400999069213867 C196.41700744628906,-26.400999069213867 196.41700744628906,26.400999069213867 196.41700744628906,26.400999069213867z"></path><path stroke-linecap="round" stroke-linejoin="round" fill-opacity="0" stroke="rgb(32,40,112)" stroke-opacity="1" stroke-width="2" d=" M196.41700744628906,26.400999069213867 C196.41700744628906,26.400999069213867 -196.41700744628906,26.400999069213867 -196.41700744628906,26.400999069213867 C-196.41700744628906,26.400999069213867 -196.41700744628906,-26.400999069213867 -196.41700744628906,-26.400999069213867 C-196.41700744628906,-26.400999069213867 196.41700744628906,-26.400999069213867 196.41700744628906,-26.400999069213867 C196.41700744628906,-26.400999069213867 196.41700744628906,26.400999069213867 196.41700744628906,26.400999069213867z"></path></g><g opacity="1" transform="matrix(1,0,0,1,0,0)"><g opacity="1" transform="matrix(1,0,0,1,1348.884033203125,736.843994140625)"><path fill="rgb(249,74,130)" fill-opacity="1" d=" M7.0320000648498535,0 C7.0320000648498535,3.884000062942505 3.884000062942505,7.0320000648498535 0,7.0320000648498535 C-3.884000062942505,7.0320000648498535 -7.0320000648498535,3.884000062942505 -7.0320000648498535,0 C-7.0320000648498535,-3.884000062942505 -3.884000062942505,-7.0320000648498535 0,-7.0320000648498535 C3.884000062942505,-7.0320000648498535 7.0320000648498535,-3.884000062942505 7.0320000648498535,0z"></path></g><g opacity="1" transform="matrix(1,0,0,1,1381.10205078125,736.843994140625)"><path fill="rgb(249,74,130)" fill-opacity="1" d=" M7.0320000648498535,0 C7.0320000648498535,3.884000062942505 3.884000062942505,7.0320000648498535 0,7.0320000648498535 C-3.884000062942505,7.0320000648498535 -7.0320000648498535,3.884000062942505 -7.0320000648498535,0 C-7.0320000648498535,-3.884000062942505 -3.884000062942505,-7.0320000648498535 0,-7.0320000648498535 C3.884000062942505,-7.0320000648498535 7.0320000648498535,-3.884000062942505 7.0320000648498535,0z"></path></g><g opacity="1" transform="matrix(1,0,0,1,1413.3199462890625,736.843994140625)"><path fill="rgb(249,74,130)" fill-opacity="1" d=" M7.0320000648498535,0 C7.0320000648498535,3.884000062942505 3.884000062942505,7.0320000648498535 0,7.0320000648498535 C-3.884000062942505,7.0320000648498535 -7.0320000648498535,3.884000062942505 -7.0320000648498535,0 C-7.0320000648498535,-3.884000062942505 -3.884000062942505,-7.0320000648498535 0,-7.0320000648498535 C3.884000062942505,-7.0320000648498535 7.0320000648498535,-3.884000062942505 7.0320000648498535,0z"></path></g></g></g></g><g transform="matrix(1,0,0,1,1252.7669677734375,802.5349731445312)" opacity="1" style="display: block;"><g opacity="1" transform="matrix(1,0,0,1,0,0)"><path stroke-linecap="round" stroke-linejoin="round" fill-opacity="0" stroke="rgb(32,40,112)" stroke-opacity="1" stroke-width="2" d=" M-153.52099609375,10.1850004196167 C-153.52099609375,10.1850004196167 -93.05599975585938,-4.553999900817871 -69.6259994506836,5.271999835968018 C-46.19599914550781,15.097999572753906 -39.77199935913086,23.788999557495117 -23.899999618530273,16.231000900268555 C-8.027999877929688,8.67300033569336 30.895999908447266,-14.378999710083008 39.965999603271484,-13.244999885559082 C49.0359992980957,-12.111000061035156 32.029998779296875,16.23200035095215 49.41400146484375,14.720000267028809 C66.7979965209961,13.208000183105469 89.24099731445312,-21.937000274658203 103.1500015258789,-18.913999557495117 C117.05899810791016,-15.890999794006348 101.56400299072266,7.160999774932861 111.01200103759766,9.050999641418457 C120.45999908447266,10.940999984741211 153.52099609375,4.894000053405762 153.52099609375,4.894000053405762"></path></g></g><g transform="matrix(1,0,0,1,1252.7669677734375,802.5349731445312)" opacity="1" style="display: block;"><g opacity="1" transform="matrix(1,0,0,1,0,0)"><path stroke-linecap="round" stroke-linejoin="round" fill-opacity="0" stroke="rgb(32,40,112)" stroke-opacity="1" stroke-width="2" d="M0 0"></path></g></g><g style="display: none;"><g><path stroke-linecap="round" stroke-linejoin="round" fill-opacity="0"></path></g></g><g style="display: none;"><g><path stroke-linecap="round" stroke-linejoin="round" fill-opacity="0"></path></g></g><g style="display: none;"><g><path stroke-linecap="round" stroke-linejoin="round" fill-opacity="0"></path></g></g><g style="display: none;"><g><path stroke-linecap="round" stroke-linejoin="round" fill-opacity="0"></path></g></g></g><g clip-path="url(#__lottie_element_7)" transform="matrix(1,0,0,1,0,0)" opacity="1" style="display: block;"><g transform="matrix(1,0,0,1,800.7260131835938,860.8209838867188)" opacity="1" style="display: block;"><g opacity="1" transform="matrix(1,0,0,1,0,0)"><path fill="rgb(249,74,130)" fill-opacity="1" d=" M77.5739974975586,228.81700134277344 C77.5739974975586,228.81700134277344 0,282.010009765625 0,282.010009765625 C0,282.010009765625 -77.5739974975586,228.81700134277344 -77.5739974975586,228.81700134277344 C-169.21400451660156,165.97799682617188 -223.98699951171875,62.005001068115234 -223.98699951171875,-49.11000061035156 C-223.98699951171875,-49.11000061035156 -223.98699951171875,-199.24200439453125 -223.98699951171875,-199.24200439453125 C-223.98699951171875,-199.24200439453125 0,-282.010009765625 0,-282.010009765625 C0,-282.010009765625 223.98699951171875,-199.24200439453125 223.98699951171875,-199.24200439453125 C223.98699951171875,-199.24200439453125 223.98699951171875,-49.11000061035156 223.98699951171875,-49.11000061035156 C223.98699951171875,62.005001068115234 169.21400451660156,165.97799682617188 77.5739974975586,228.81700134277344z"></path><path stroke-linecap="round" stroke-linejoin="round" fill-opacity="0" stroke="rgb(32,40,112)" stroke-opacity="1" stroke-width="2" d=" M77.5739974975586,228.81700134277344 C77.5739974975586,228.81700134277344 0,282.010009765625 0,282.010009765625 C0,282.010009765625 -77.5739974975586,228.81700134277344 -77.5739974975586,228.81700134277344 C-169.21400451660156,165.97799682617188 -223.98699951171875,62.005001068115234 -223.98699951171875,-49.11000061035156 C-223.98699951171875,-49.11000061035156 -223.98699951171875,-199.24200439453125 -223.98699951171875,-199.24200439453125 C-223.98699951171875,-199.24200439453125 0,-282.010009765625 0,-282.010009765625 C0,-282.010009765625 223.98699951171875,-199.24200439453125 223.98699951171875,-199.24200439453125 C223.98699951171875,-199.24200439453125 223.98699951171875,-49.11000061035156 223.98699951171875,-49.11000061035156 C223.98699951171875,62.005001068115234 169.21400451660156,165.97799682617188 77.5739974975586,228.81700134277344z"></path></g></g><g transform="matrix(1,0,0,1,800.7260131835938,860.8209838867188)" opacity="1" style="display: block;"><g opacity="1" transform="matrix(1,0,0,1,0,0)"><path fill="rgb(255,255,255)" fill-opacity="1" d=" M63.020999908447266,185.89199829101562 C63.020999908447266,185.89199829101562 0,229.10699462890625 0,229.10699462890625 C0,229.10699462890625 -63.020999908447266,185.89199829101562 -63.020999908447266,185.89199829101562 C-137.468994140625,134.8419952392578 -181.96800231933594,50.37300109863281 -181.96800231933594,-39.89699935913086 C-181.96800231933594,-39.89699935913086 -181.96800231933594,-161.86500549316406 -181.96800231933594,-161.86500549316406 C-181.96800231933594,-161.86500549316406 0,-229.10699462890625 0,-229.10699462890625 C0,-229.10699462890625 181.96800231933594,-161.86500549316406 181.96800231933594,-161.86500549316406 C181.96800231933594,-161.86500549316406 181.96800231933594,-39.89699935913086 181.96800231933594,-39.89699935913086 C181.96800231933594,50.37300109863281 137.468994140625,134.8419952392578 63.020999908447266,185.89199829101562z"></path><path stroke-linecap="round" stroke-linejoin="round" fill-opacity="0" stroke="rgb(32,40,112)" stroke-opacity="1" stroke-width="2" d=" M63.020999908447266,185.89199829101562 C63.020999908447266,185.89199829101562 0,229.10699462890625 0,229.10699462890625 C0,229.10699462890625 -63.020999908447266,185.89199829101562 -63.020999908447266,185.89199829101562 C-137.468994140625,134.8419952392578 -181.96800231933594,50.37300109863281 -181.96800231933594,-39.89699935913086 C-181.96800231933594,-39.89699935913086 -181.96800231933594,-161.86500549316406 -181.96800231933594,-161.86500549316406 C-181.96800231933594,-161.86500549316406 0,-229.10699462890625 0,-229.10699462890625 C0,-229.10699462890625 181.96800231933594,-161.86500549316406 181.96800231933594,-161.86500549316406 C181.96800231933594,-161.86500549316406 181.96800231933594,-39.89699935913086 181.96800231933594,-39.89699935913086 C181.96800231933594,50.37300109863281 137.468994140625,134.8419952392578 63.020999908447266,185.89199829101562z"></path></g></g><g transform="matrix(1,0,0,1,800.7260131835938,860.8209838867188)" opacity="1" style="display: block;"><g opacity="1" transform="matrix(1,0,0,1,0,0)"><path fill="rgb(249,74,130)" fill-opacity="1" d=" M49.12300109863281,-30.7810001373291 C49.12300109863281,-57.9109992980957 27.1299991607666,-79.90499877929688 0,-79.90499877929688 C-27.1299991607666,-79.90499877929688 -49.12300109863281,-57.9109992980957 -49.12300109863281,-30.7810001373291 C-49.12300109863281,-12.116000175476074 -38.7130012512207,4.117000102996826 -23.382999420166016,12.430000305175781 C-23.382999420166016,12.430000305175781 -41.066001892089844,79.90499877929688 -41.066001892089844,79.90499877929688 C-41.066001892089844,79.90499877929688 41.066001892089844,79.90499877929688 41.066001892089844,79.90499877929688 C41.066001892089844,79.90499877929688 23.382999420166016,12.430000305175781 23.382999420166016,12.430000305175781 C38.7130012512207,4.117000102996826 49.12300109863281,-12.116000175476074 49.12300109863281,-30.7810001373291z"></path><path stroke-linecap="round" stroke-linejoin="round" fill-opacity="0" stroke="rgb(32,40,112)" stroke-opacity="1" stroke-width="2" d=" M49.12300109863281,-30.7810001373291 C49.12300109863281,-57.9109992980957 27.1299991607666,-79.90499877929688 0,-79.90499877929688 C-27.1299991607666,-79.90499877929688 -49.12300109863281,-57.9109992980957 -49.12300109863281,-30.7810001373291 C-49.12300109863281,-12.116000175476074 -38.7130012512207,4.117000102996826 -23.382999420166016,12.430000305175781 C-23.382999420166016,12.430000305175781 -41.066001892089844,79.90499877929688 -41.066001892089844,79.90499877929688 C-41.066001892089844,79.90499877929688 41.066001892089844,79.90499877929688 41.066001892089844,79.90499877929688 C41.066001892089844,79.90499877929688 23.382999420166016,12.430000305175781 23.382999420166016,12.430000305175781 C38.7130012512207,4.117000102996826 49.12300109863281,-12.116000175476074 49.12300109863281,-30.7810001373291z"></path></g></g></g><g transform="matrix(1,0,0,1,1060.56005859375,589.469970703125)" opacity="1" style="display: block;"><g opacity="1" transform="matrix(1,0,0,1,0,0)"><path fill="rgb(255,255,255)" fill-opacity="1" d=" M10.706999778747559,0 C10.706999778747559,5.913000106811523 5.913000106811523,10.706999778747559 0,10.706999778747559 C-5.913000106811523,10.706999778747559 -10.706999778747559,5.913000106811523 -10.706999778747559,0 C-10.706999778747559,-5.913000106811523 -5.913000106811523,-10.706999778747559 0,-10.706999778747559 C5.913000106811523,-10.706999778747559 10.706999778747559,-5.913000106811523 10.706999778747559,0z"></path><path stroke-linecap="round" stroke-linejoin="round" fill-opacity="0" stroke="rgb(32,40,112)" stroke-opacity="1" stroke-width="2" d=" M10.706999778747559,0 C10.706999778747559,5.913000106811523 5.913000106811523,10.706999778747559 0,10.706999778747559 C-5.913000106811523,10.706999778747559 -10.706999778747559,5.913000106811523 -10.706999778747559,0 C-10.706999778747559,-5.913000106811523 -5.913000106811523,-10.706999778747559 0,-10.706999778747559 C5.913000106811523,-10.706999778747559 10.706999778747559,-5.913000106811523 10.706999778747559,0z"></path></g></g></g></svg>