<svg xmlns="http://www.w3.org/2000/svg" xmlns:xlink="http://www.w3.org/1999/xlink" viewBox="0 0 1600 1600" width="1600" height="1600" preserveAspectRatio="xMidYMid meet" style="width: 100%; height: 100%; transform: translate3d(0px, 0px, 0px); content-visibility: visible;"><defs><clipPath id="__lottie_element_2"><rect width="1600" height="1600" x="0" y="0"></rect></clipPath><g id="__lottie_element_3"><g style="display: none;"><g><path stroke-linecap="butt" stroke-linejoin="miter" fill-opacity="0" stroke-miterlimit="4"></path></g></g></g><mask id="__lottie_element_3_1" mask-type="alpha"><use xlink:href="#__lottie_element_3"></use></mask><g id="__lottie_element_15"><g style="display: none;"><g><path stroke-linecap="butt" stroke-linejoin="miter" fill-opacity="0" stroke-miterlimit="4"></path></g></g></g><mask id="__lottie_element_15_1" mask-type="alpha"><use xlink:href="#__lottie_element_15"></use></mask><g id="__lottie_element_24"><g transform="matrix(1,0,0,1,811.3049926757812,758.885009765625)" opacity="1" style="display: block;"><g opacity="1" transform="matrix(1,0,0,1,0,0)"><path fill="rgb(132,132,250)" fill-opacity="1" d=" M294.0320129394531,0 C294.0320129394531,0.9570000171661377 294.0320129394531,1.9240000247955322 294.01300048828125,2.88100004196167 C292.7560119628906,134.10400390625 205.5330047607422,244.7760009765625 85.94599914550781,281.260009765625 C58.76100158691406,289.56500244140625 29.89699935913086,294.0320129394531 0,294.0320129394531 C-162.39599609375,294.0320129394531 -294.0320129394531,162.38699340820312 -294.0320129394531,0 C-294.0320129394531,-162.39599609375 -162.39599609375,-294.0320129394531 0,-294.0320129394531 C162.38699340820312,-294.0320129394531 294.0320129394531,-162.39599609375 294.0320129394531,0z"></path><path stroke-linecap="round" stroke-linejoin="round" fill-opacity="0" stroke="rgb(32,40,112)" stroke-opacity="1" stroke-width="2" d=" M294.0320129394531,0 C294.0320129394531,0.9570000171661377 294.0320129394531,1.9240000247955322 294.01300048828125,2.88100004196167 C292.7560119628906,134.10400390625 205.5330047607422,244.7760009765625 85.94599914550781,281.260009765625 C58.76100158691406,289.56500244140625 29.89699935913086,294.0320129394531 0,294.0320129394531 C-162.39599609375,294.0320129394531 -294.0320129394531,162.38699340820312 -294.0320129394531,0 C-294.0320129394531,-162.39599609375 -162.39599609375,-294.0320129394531 0,-294.0320129394531 C162.38699340820312,-294.0320129394531 294.0320129394531,-162.39599609375 294.0320129394531,0z"></path></g></g></g><mask id="__lottie_element_24_1" mask-type="alpha"><use xlink:href="#__lottie_element_24"></use></mask><clipPath id="__lottie_element_43"><path d="M0,0 L1600,0 L1600,1600 L0,1600z"></path></clipPath><clipPath id="__lottie_element_83"><path d="M0,0 L1600,0 L1600,1600 L0,1600z"></path></clipPath></defs><g clip-path="url(#__lottie_element_2)"><g clip-path="url(#__lottie_element_83)" transform="matrix(1,0,0,1,0,0)" opacity="1" style="display: block;"><g transform="matrix(1,0,0,1,456.8070068359375,495.5870056152344)" opacity="1" style="display: block;"><g opacity="1" transform="matrix(1,0,0,1,0,0)"><path stroke-linecap="round" stroke-linejoin="round" fill-opacity="0" stroke="rgb(32,40,112)" stroke-opacity="1" stroke-width="2" d=" M137.14500427246094,125.89099884033203 C137.14500427246094,125.89099884033203 -137.14500427246094,125.89099884033203 -137.14500427246094,125.89099884033203 C-137.14500427246094,125.89099884033203 -137.14500427246094,-125.89099884033203 -137.14500427246094,-125.89099884033203"></path></g></g><g transform="matrix(1,0,0,1,958.3109741210938,620.0689697265625)" opacity="1" style="display: block;"><g opacity="1" transform="matrix(1,0,0,1,0,0)"><path fill="rgb(132,132,250)" fill-opacity="1" d=" M0,-200.83099365234375 C0,-200.83099365234375 0,200.83099365234375 0,200.83099365234375"></path><path stroke-linecap="round" stroke-linejoin="round" fill-opacity="0" stroke="rgb(32,40,112)" stroke-opacity="1" stroke-width="2" d=" M0,-200.83099365234375 C0,-200.83099365234375 0,200.83099365234375 0,200.83099365234375"></path></g></g><g transform="matrix(1,0,0,1,433.7030029296875,834.7739868164062)" opacity="1" style="display: block;"><g opacity="1" transform="matrix(1,0,0,1,0,0)"><path stroke-linecap="round" stroke-linejoin="round" fill-opacity="0" stroke="rgb(32,40,112)" stroke-opacity="1" stroke-width="2" d=" M184.5850067138672,-59.821998596191406 C184.5850067138672,-59.821998596191406 -184.5850067138672,-59.821998596191406 -184.5850067138672,-59.821998596191406 C-184.5850067138672,-59.821998596191406 -184.5850067138672,59.821998596191406 -184.5850067138672,59.821998596191406"></path></g></g><g transform="matrix(1,0,0,1,1169.72998046875,811.4240112304688)" opacity="1" style="display: block;"><g opacity="1" transform="matrix(1,0,0,1,0,0)"><path stroke-linecap="round" stroke-linejoin="round" fill-opacity="0" stroke="rgb(32,40,112)" stroke-opacity="1" stroke-width="2" d=" M-102.78299713134766,-71.61000061035156 C-102.78299713134766,-71.61000061035156 102.78299713134766,-71.61000061035156 102.78299713134766,-71.61000061035156 C102.78299713134766,-71.61000061035156 102.78299713134766,71.61000061035156 102.78299713134766,71.61000061035156"></path></g></g><g transform="matrix(1,0,0,1,809.281005859375,1035.5069580078125)" opacity="1" style="display: block;"><g opacity="1" transform="matrix(1,0,0,1,0,0)"><path fill="rgb(132,132,250)" fill-opacity="1" d=" M0,200.83099365234375 C0,200.83099365234375 0,-200.83099365234375 0,-200.83099365234375"></path><path stroke-linecap="round" stroke-linejoin="round" fill-opacity="0" stroke="rgb(32,40,112)" stroke-opacity="1" stroke-width="2" d=" M0,200.83099365234375 C0,200.83099365234375 0,-200.83099365234375 0,-200.83099365234375"></path></g></g><g transform="matrix(1,0,0,1,1209.7120361328125,600.4340209960938)" opacity="1" style="display: block;"><g opacity="1" transform="matrix(1,0,0,1,0,0)"><path stroke-linecap="round" stroke-linejoin="round" fill-opacity="0" stroke="rgb(32,40,112)" stroke-opacity="1" stroke-width="2" d=" M-151.58099365234375,0 C-151.58099365234375,0 151.58099365234375,0 151.58099365234375,0"></path></g></g><g transform="matrix(1,0,0,1,360.3070068359375,698.4359741210938)" opacity="1" style="display: block;"><g opacity="1" transform="matrix(1,0,0,1,0,0)"><path fill="rgb(132,132,250)" fill-opacity="1" d=" M-200.83099365234375,0 C-200.83099365234375,0 200.83099365234375,0 200.83099365234375,0"></path><path stroke-linecap="round" stroke-linejoin="round" fill-opacity="0" stroke="rgb(32,40,112)" stroke-opacity="1" stroke-width="2" d=" M-200.83099365234375,0 C-200.83099365234375,0 200.83099365234375,0 200.83099365234375,0"></path></g></g><g transform="matrix(1,0,0,1,1107.260009765625,662.833984375)" opacity="1" style="display: block;"><g opacity="1" transform="matrix(1,0,0,1,0,0)"><path stroke-linecap="round" stroke-linejoin="round" fill-opacity="0" stroke="rgb(32,40,112)" stroke-opacity="1" stroke-width="2" d=" M-105,0 C-105,0 105,0 105,0"></path></g></g><g transform="matrix(1,0,0,1,590.6610107421875,619.2420043945312)" opacity="1" style="display: block;"><g opacity="1" transform="matrix(1,0,0,1,0,0)"><path fill="rgb(132,132,250)" fill-opacity="1" d=" M12.045999526977539,0 C12.045999526977539,6.6529998779296875 6.6529998779296875,12.045999526977539 0,12.045999526977539 C-6.6529998779296875,12.045999526977539 -12.045999526977539,6.6529998779296875 -12.045999526977539,0 C-12.045999526977539,-6.6529998779296875 -6.6529998779296875,-12.045999526977539 0,-12.045999526977539 C6.6529998779296875,-12.045999526977539 12.045999526977539,-6.6529998779296875 12.045999526977539,0z"></path><path stroke-linecap="round" stroke-linejoin="round" fill-opacity="0" stroke="rgb(32,40,112)" stroke-opacity="1" stroke-width="2" d=" M12.045999526977539,0 C12.045999526977539,6.6529998779296875 6.6529998779296875,12.045999526977539 0,12.045999526977539 C-6.6529998779296875,12.045999526977539 -12.045999526977539,6.6529998779296875 -12.045999526977539,0 C-12.045999526977539,-6.6529998779296875 -6.6529998779296875,-12.045999526977539 0,-12.045999526977539 C6.6529998779296875,-12.045999526977539 12.045999526977539,-6.6529998779296875 12.045999526977539,0z"></path></g></g><g transform="matrix(1,0,0,1,317.6629943847656,620.2440185546875)" opacity="1" style="display: block;"><g opacity="1" transform="matrix(1,0,0,1,0,0)"><path fill="rgb(132,132,250)" fill-opacity="1" d=" M12.045999526977539,0 C12.045999526977539,6.6529998779296875 6.6529998779296875,12.045999526977539 0,12.045999526977539 C-6.6529998779296875,12.045999526977539 -12.045999526977539,6.6529998779296875 -12.045999526977539,0 C-12.045999526977539,-6.6529998779296875 -6.6529998779296875,-12.045999526977539 0,-12.045999526977539 C6.6529998779296875,-12.045999526977539 12.045999526977539,-6.6529998779296875 12.045999526977539,0z"></path><path stroke-linecap="round" stroke-linejoin="round" fill-opacity="0" stroke="rgb(32,40,112)" stroke-opacity="1" stroke-width="2" d=" M12.045999526977539,0 C12.045999526977539,6.6529998779296875 6.6529998779296875,12.045999526977539 0,12.045999526977539 C-6.6529998779296875,12.045999526977539 -12.045999526977539,6.6529998779296875 -12.045999526977539,0 C-12.045999526977539,-6.6529998779296875 -6.6529998779296875,-12.045999526977539 0,-12.045999526977539 C6.6529998779296875,-12.045999526977539 12.045999526977539,-6.6529998779296875 12.045999526977539,0z"></path></g></g><g style="display: none;"><g><path></path><path stroke-linecap="round" stroke-linejoin="round" fill-opacity="0"></path></g></g><g style="display: none;"><g><path></path><path stroke-linecap="round" stroke-linejoin="round" fill-opacity="0"></path></g></g><g transform="matrix(1,0,0,1,958.3109741210938,618.3189697265625)" opacity="1" style="display: block;"><g opacity="1" transform="matrix(1,0,0,1,0,0)"><path fill="rgb(249,74,130)" fill-opacity="1" d=" M0,12.045999526977539 C6.6529998779296875,12.045999526977539 12.045999526977539,6.6529998779296875 12.045999526977539,0 C12.045999526977539,-6.6529998779296875 6.6529998779296875,-12.045999526977539 0,-12.045999526977539 C-6.6529998779296875,-12.045999526977539 -12.045999526977539,-6.6529998779296875 -12.045999526977539,0 C-12.045999526977539,6.6529998779296875 -6.6529998779296875,12.045999526977539 0,12.045999526977539z"></path><path stroke-linecap="round" stroke-linejoin="round" fill-opacity="0" stroke="rgb(32,40,112)" stroke-opacity="1" stroke-width="2" d=" M0,12.045999526977539 C6.6529998779296875,12.045999526977539 12.045999526977539,6.6529998779296875 12.045999526977539,0 C12.045999526977539,-6.6529998779296875 6.6529998779296875,-12.045999526977539 0,-12.045999526977539 C-6.6529998779296875,-12.045999526977539 -12.045999526977539,-6.6529998779296875 -12.045999526977539,0 C-12.045999526977539,6.6529998779296875 -6.6529998779296875,12.045999526977539 0,12.045999526977539z"></path></g></g><g transform="matrix(1,0,0,1,958.3109741210938,814.8189697265625)" opacity="1" style="display: block;"><g opacity="1" transform="matrix(1,0,0,1,0,0)"><path fill="rgb(249,74,130)" fill-opacity="1" d=" M0,12.045999526977539 C6.6529998779296875,12.045999526977539 12.045999526977539,6.6529998779296875 12.045999526977539,0 C12.045999526977539,-6.6529998779296875 6.6529998779296875,-12.045999526977539 0,-12.045999526977539 C-6.6529998779296875,-12.045999526977539 -12.045999526977539,-6.6529998779296875 -12.045999526977539,0 C-12.045999526977539,6.6529998779296875 -6.6529998779296875,12.045999526977539 0,12.045999526977539z"></path><path stroke-linecap="round" stroke-linejoin="round" fill-opacity="0" stroke="rgb(32,40,112)" stroke-opacity="1" stroke-width="2" d=" M0,12.045999526977539 C6.6529998779296875,12.045999526977539 12.045999526977539,6.6529998779296875 12.045999526977539,0 C12.045999526977539,-6.6529998779296875 6.6529998779296875,-12.045999526977539 0,-12.045999526977539 C-6.6529998779296875,-12.045999526977539 -12.045999526977539,-6.6529998779296875 -12.045999526977539,0 C-12.045999526977539,6.6529998779296875 -6.6529998779296875,12.045999526977539 0,12.045999526977539z"></path></g></g><g style="display: none;"><g><path></path><path stroke-linecap="round" stroke-linejoin="round" fill-opacity="0"></path></g></g><g style="display: none;"><g><path></path><path stroke-linecap="round" stroke-linejoin="round" fill-opacity="0"></path></g></g><g transform="matrix(1,0,0,1,246.62100219726562,775.6079711914062)" opacity="1" style="display: block;"><g opacity="1" transform="matrix(1,0,0,1,0,0)"><path fill="rgb(255,255,255)" fill-opacity="1" d=" M12.045999526977539,0 C12.045999526977539,6.6529998779296875 6.6529998779296875,12.045999526977539 0,12.045999526977539 C-6.6529998779296875,12.045999526977539 -12.045999526977539,6.6529998779296875 -12.045999526977539,0 C-12.045999526977539,-6.6529998779296875 -6.6529998779296875,-12.045999526977539 0,-12.045999526977539 C6.6529998779296875,-12.045999526977539 12.045999526977539,-6.6529998779296875 12.045999526977539,0z"></path><path stroke-linecap="round" stroke-linejoin="round" fill-opacity="0" stroke="rgb(32,40,112)" stroke-opacity="1" stroke-width="2" d=" M12.045999526977539,0 C12.045999526977539,6.6529998779296875 6.6529998779296875,12.045999526977539 0,12.045999526977539 C-6.6529998779296875,12.045999526977539 -12.045999526977539,6.6529998779296875 -12.045999526977539,0 C-12.045999526977539,-6.6529998779296875 -6.6529998779296875,-12.045999526977539 0,-12.045999526977539 C6.6529998779296875,-12.045999526977539 12.045999526977539,-6.6529998779296875 12.045999526977539,0z"></path></g></g><g transform="matrix(1,0,0,1,617.1179809570312,773.6090087890625)" opacity="1" style="display: block;"><g opacity="1" transform="matrix(1,0,0,1,0,0)"><path fill="rgb(255,255,255)" fill-opacity="1" d=" M12.045999526977539,0 C12.045999526977539,6.6529998779296875 6.6529998779296875,12.045999526977539 0,12.045999526977539 C-6.6529998779296875,12.045999526977539 -12.045999526977539,6.6529998779296875 -12.045999526977539,0 C-12.045999526977539,-6.6529998779296875 -6.6529998779296875,-12.045999526977539 0,-12.045999526977539 C6.6529998779296875,-12.045999526977539 12.045999526977539,-6.6529998779296875 12.045999526977539,0z"></path><path stroke-linecap="round" stroke-linejoin="round" fill-opacity="0" stroke="rgb(32,40,112)" stroke-opacity="1" stroke-width="2" d=" M12.045999526977539,0 C12.045999526977539,6.6529998779296875 6.6529998779296875,12.045999526977539 0,12.045999526977539 C-6.6529998779296875,12.045999526977539 -12.045999526977539,6.6529998779296875 -12.045999526977539,0 C-12.045999526977539,-6.6529998779296875 -6.6529998779296875,-12.045999526977539 0,-12.045999526977539 C6.6529998779296875,-12.045999526977539 12.045999526977539,-6.6529998779296875 12.045999526977539,0z"></path></g></g><g style="display: none;"><g><path></path><path stroke-linecap="round" stroke-linejoin="round" fill-opacity="0"></path></g></g><g style="display: none;"><g><path></path><path stroke-linecap="round" stroke-linejoin="round" fill-opacity="0"></path></g></g><g transform="matrix(1,0,0,1,1073.5140380859375,738.4249877929688)" opacity="1" style="display: block;"><g opacity="1" transform="matrix(1,0,0,1,0,0)"><path fill="rgb(32,40,112)" fill-opacity="1" d=" M12.045999526977539,0 C12.045999526977539,6.6529998779296875 6.6529998779296875,12.045999526977539 0,12.045999526977539 C-6.6529998779296875,12.045999526977539 -12.045999526977539,6.6529998779296875 -12.045999526977539,0 C-12.045999526977539,-6.6529998779296875 -6.6529998779296875,-12.045999526977539 0,-12.045999526977539 C6.6529998779296875,-12.045999526977539 12.045999526977539,-6.6529998779296875 12.045999526977539,0z"></path><path stroke-linecap="round" stroke-linejoin="round" fill-opacity="0" stroke="rgb(32,40,112)" stroke-opacity="1" stroke-width="2" d=" M12.045999526977539,0 C12.045999526977539,6.6529998779296875 6.6529998779296875,12.045999526977539 0,12.045999526977539 C-6.6529998779296875,12.045999526977539 -12.045999526977539,6.6529998779296875 -12.045999526977539,0 C-12.045999526977539,-6.6529998779296875 -6.6529998779296875,-12.045999526977539 0,-12.045999526977539 C6.6529998779296875,-12.045999526977539 12.045999526977539,-6.6529998779296875 12.045999526977539,0z"></path></g></g><g style="display: none;"><g><path></path><path stroke-linecap="round" stroke-linejoin="round" fill-opacity="0"></path></g></g><g style="display: none;"><g><path></path><path stroke-linecap="round" stroke-linejoin="round" fill-opacity="0"></path></g></g><g transform="matrix(1,0,0,1,809.281005859375,1033.758056640625)" opacity="1" style="display: block;"><g opacity="1" transform="matrix(1,0,0,1,0,0)"><path fill="rgb(249,74,130)" fill-opacity="1" d=" M0,-12.045999526977539 C6.6529998779296875,-12.045999526977539 12.045999526977539,-6.6529998779296875 12.045999526977539,0 C12.045999526977539,6.6529998779296875 6.6529998779296875,12.045999526977539 0,12.045999526977539 C-6.6529998779296875,12.045999526977539 -12.045999526977539,6.6529998779296875 -12.045999526977539,0 C-12.045999526977539,-6.6529998779296875 -6.6529998779296875,-12.045999526977539 0,-12.045999526977539z"></path><path stroke-linecap="round" stroke-linejoin="round" fill-opacity="0" stroke="rgb(32,40,112)" stroke-opacity="1" stroke-width="2" d=" M0,-12.045999526977539 C6.6529998779296875,-12.045999526977539 12.045999526977539,-6.6529998779296875 12.045999526977539,0 C12.045999526977539,6.6529998779296875 6.6529998779296875,12.045999526977539 0,12.045999526977539 C-6.6529998779296875,12.045999526977539 -12.045999526977539,6.6529998779296875 -12.045999526977539,0 C-12.045999526977539,-6.6529998779296875 -6.6529998779296875,-12.045999526977539 0,-12.045999526977539z"></path></g></g><g transform="matrix(1,0,0,1,809.281005859375,835.7579956054688)" opacity="1" style="display: block;"><g opacity="1" transform="matrix(1,0,0,1,0,0)"><path fill="rgb(249,74,130)" fill-opacity="1" d=" M0,-12.045999526977539 C6.6529998779296875,-12.045999526977539 12.045999526977539,-6.6529998779296875 12.045999526977539,0 C12.045999526977539,6.6529998779296875 6.6529998779296875,12.045999526977539 0,12.045999526977539 C-6.6529998779296875,12.045999526977539 -12.045999526977539,6.6529998779296875 -12.045999526977539,0 C-12.045999526977539,-6.6529998779296875 -6.6529998779296875,-12.045999526977539 0,-12.045999526977539z"></path><path stroke-linecap="round" stroke-linejoin="round" fill-opacity="0" stroke="rgb(32,40,112)" stroke-opacity="1" stroke-width="2" d=" M0,-12.045999526977539 C6.6529998779296875,-12.045999526977539 12.045999526977539,-6.6529998779296875 12.045999526977539,0 C12.045999526977539,6.6529998779296875 6.6529998779296875,12.045999526977539 0,12.045999526977539 C-6.6529998779296875,12.045999526977539 -12.045999526977539,6.6529998779296875 -12.045999526977539,0 C-12.045999526977539,-6.6529998779296875 -6.6529998779296875,-12.045999526977539 0,-12.045999526977539z"></path></g></g><g style="display: none;"><g><path></path><path stroke-linecap="round" stroke-linejoin="round" fill-opacity="0"></path></g></g><g style="display: none;"><g><path></path><path stroke-linecap="round" stroke-linejoin="round" fill-opacity="0"></path></g></g><g transform="matrix(1,0,0,1,1211.95703125,600.4340209960938)" opacity="1" style="display: block;"><g opacity="1" transform="matrix(1,0,0,1,0,0)"><path fill="rgb(255,255,255)" fill-opacity="1" d=" M12.045999526977539,0 C12.045999526977539,6.6529998779296875 6.6529998779296875,12.045999526977539 0,12.045999526977539 C-6.6529998779296875,12.045999526977539 -12.045999526977539,6.6529998779296875 -12.045999526977539,0 C-12.045999526977539,-6.6529998779296875 -6.6529998779296875,-12.045999526977539 0,-12.045999526977539 C6.6529998779296875,-12.045999526977539 12.045999526977539,-6.6529998779296875 12.045999526977539,0z"></path><path stroke-linecap="round" stroke-linejoin="round" fill-opacity="0" stroke="rgb(32,40,112)" stroke-opacity="1" stroke-width="2" d=" M12.045999526977539,0 C12.045999526977539,6.6529998779296875 6.6529998779296875,12.045999526977539 0,12.045999526977539 C-6.6529998779296875,12.045999526977539 -12.045999526977539,6.6529998779296875 -12.045999526977539,0 C-12.045999526977539,-6.6529998779296875 -6.6529998779296875,-12.045999526977539 0,-12.045999526977539 C6.6529998779296875,-12.045999526977539 12.045999526977539,-6.6529998779296875 12.045999526977539,0z"></path></g></g><g transform="matrix(1,0,0,1,1059.45703125,600.4340209960938)" opacity="1" style="display: block;"><g opacity="1" transform="matrix(1,0,0,1,0,0)"><path fill="rgb(255,255,255)" fill-opacity="1" d=" M12.045999526977539,0 C12.045999526977539,6.6529998779296875 6.6529998779296875,12.045999526977539 0,12.045999526977539 C-6.6529998779296875,12.045999526977539 -12.045999526977539,6.6529998779296875 -12.045999526977539,0 C-12.045999526977539,-6.6529998779296875 -6.6529998779296875,-12.045999526977539 0,-12.045999526977539 C6.6529998779296875,-12.045999526977539 12.045999526977539,-6.6529998779296875 12.045999526977539,0z"></path><path stroke-linecap="round" stroke-linejoin="round" fill-opacity="0" stroke="rgb(32,40,112)" stroke-opacity="1" stroke-width="2" d=" M12.045999526977539,0 C12.045999526977539,6.6529998779296875 6.6529998779296875,12.045999526977539 0,12.045999526977539 C-6.6529998779296875,12.045999526977539 -12.045999526977539,6.6529998779296875 -12.045999526977539,0 C-12.045999526977539,-6.6529998779296875 -6.6529998779296875,-12.045999526977539 0,-12.045999526977539 C6.6529998779296875,-12.045999526977539 12.045999526977539,-6.6529998779296875 12.045999526977539,0z"></path></g></g><g style="display: none;"><g><path></path><path stroke-linecap="round" stroke-linejoin="round" fill-opacity="0"></path></g></g><g style="display: none;"><g><path></path><path stroke-linecap="round" stroke-linejoin="round" fill-opacity="0"></path></g></g><g transform="matrix(1,0,0,1,362.5570068359375,698.4359741210938)" opacity="1" style="display: block;"><g opacity="1" transform="matrix(1,0,0,1,0,0)"><path fill="rgb(249,74,130)" fill-opacity="1" d=" M12.045999526977539,0 C12.045999526977539,6.6529998779296875 6.6529998779296875,12.045999526977539 0,12.045999526977539 C-6.6529998779296875,12.045999526977539 -12.045999526977539,6.6529998779296875 -12.045999526977539,0 C-12.045999526977539,-6.6529998779296875 -6.6529998779296875,-12.045999526977539 0,-12.045999526977539 C6.6529998779296875,-12.045999526977539 12.045999526977539,-6.6529998779296875 12.045999526977539,0z"></path><path stroke-linecap="round" stroke-linejoin="round" fill-opacity="0" stroke="rgb(32,40,112)" stroke-opacity="1" stroke-width="2" d=" M12.045999526977539,0 C12.045999526977539,6.6529998779296875 6.6529998779296875,12.045999526977539 0,12.045999526977539 C-6.6529998779296875,12.045999526977539 -12.045999526977539,6.6529998779296875 -12.045999526977539,0 C-12.045999526977539,-6.6529998779296875 -6.6529998779296875,-12.045999526977539 0,-12.045999526977539 C6.6529998779296875,-12.045999526977539 12.045999526977539,-6.6529998779296875 12.045999526977539,0z"></path></g></g><g transform="matrix(1,0,0,1,558.0570068359375,698.4359741210938)" opacity="1" style="display: block;"><g opacity="1" transform="matrix(1,0,0,1,0,0)"><path fill="rgb(249,74,130)" fill-opacity="1" d=" M12.045999526977539,0 C12.045999526977539,6.6529998779296875 6.6529998779296875,12.045999526977539 0,12.045999526977539 C-6.6529998779296875,12.045999526977539 -12.045999526977539,6.6529998779296875 -12.045999526977539,0 C-12.045999526977539,-6.6529998779296875 -6.6529998779296875,-12.045999526977539 0,-12.045999526977539 C6.6529998779296875,-12.045999526977539 12.045999526977539,-6.6529998779296875 12.045999526977539,0z"></path><path stroke-linecap="round" stroke-linejoin="round" fill-opacity="0" stroke="rgb(32,40,112)" stroke-opacity="1" stroke-width="2" d=" M12.045999526977539,0 C12.045999526977539,6.6529998779296875 6.6529998779296875,12.045999526977539 0,12.045999526977539 C-6.6529998779296875,12.045999526977539 -12.045999526977539,6.6529998779296875 -12.045999526977539,0 C-12.045999526977539,-6.6529998779296875 -6.6529998779296875,-12.045999526977539 0,-12.045999526977539 C6.6529998779296875,-12.045999526977539 12.045999526977539,-6.6529998779296875 12.045999526977539,0z"></path></g></g><g style="display: none;"><g><path></path><path stroke-linecap="round" stroke-linejoin="round" fill-opacity="0"></path></g></g><g style="display: none;"><g><path></path><path stroke-linecap="round" stroke-linejoin="round" fill-opacity="0"></path></g></g><g transform="matrix(1,0,0,1,1009.4240112304688,662.833984375)" opacity="1" style="display: block;"><g opacity="1" transform="matrix(1,0,0,1,0,0)"><path fill="rgb(249,74,130)" fill-opacity="1" d=" M12.045999526977539,0 C12.045999526977539,6.6529998779296875 6.6529998779296875,12.045999526977539 0,12.045999526977539 C-6.6529998779296875,12.045999526977539 -12.045999526977539,6.6529998779296875 -12.045999526977539,0 C-12.045999526977539,-6.6529998779296875 -6.6529998779296875,-12.045999526977539 0,-12.045999526977539 C6.6529998779296875,-12.045999526977539 12.045999526977539,-6.6529998779296875 12.045999526977539,0z"></path><path stroke-linecap="round" stroke-linejoin="round" fill-opacity="0" stroke="rgb(32,40,112)" stroke-opacity="1" stroke-width="2" d=" M12.045999526977539,0 C12.045999526977539,6.6529998779296875 6.6529998779296875,12.045999526977539 0,12.045999526977539 C-6.6529998779296875,12.045999526977539 -12.045999526977539,6.6529998779296875 -12.045999526977539,0 C-12.045999526977539,-6.6529998779296875 -6.6529998779296875,-12.045999526977539 0,-12.045999526977539 C6.6529998779296875,-12.045999526977539 12.045999526977539,-6.6529998779296875 12.045999526977539,0z"></path></g></g><g style="display: none;"><g><path></path><path stroke-linecap="round" stroke-linejoin="round" fill-opacity="0"></path></g></g><g style="display: none;"><g><path></path><path stroke-linecap="round" stroke-linejoin="round" fill-opacity="0"></path></g></g></g><g clip-path="url(#__lottie_element_43)" transform="matrix(1,0,0,1,0,0)" opacity="1" style="display: block;"><g transform="matrix(1,0,0,1,638.5430297851562,531.7529907226562)" opacity="1" style="display: block;"><g opacity="1" transform="matrix(1,0,0,1,0,0)"><path fill="rgb(255,255,255)" fill-opacity="1" d=" M-145.77099609375,-92.5979995727539 C-145.77099609375,-92.5979995727539 -145.77099609375,166.63999938964844 -145.77099609375,166.63999938964844 C-145.77099609375,166.63999938964844 145.77099609375,166.63999938964844 145.77099609375,166.63999938964844 C145.77099609375,166.63999938964844 145.77099609375,-166.63999938964844 145.77099609375,-166.63999938964844 C145.77099609375,-166.63999938964844 -71.81700134277344,-166.63999938964844 -71.81700134277344,-166.63999938964844"></path><path stroke-linecap="round" stroke-linejoin="round" fill-opacity="0" stroke="rgb(32,40,112)" stroke-opacity="1" stroke-width="2" d=" M-145.77099609375,-92.5979995727539 C-145.77099609375,-92.5979995727539 -145.77099609375,166.63999938964844 -145.77099609375,166.63999938964844 C-145.77099609375,166.63999938964844 145.77099609375,166.63999938964844 145.77099609375,166.63999938964844 C145.77099609375,166.63999938964844 145.77099609375,-166.63999938964844 145.77099609375,-166.63999938964844 C145.77099609375,-166.63999938964844 -71.81700134277344,-166.63999938964844 -71.81700134277344,-166.63999938964844"></path></g></g><g transform="matrix(1,0,0,1,0.00006103515625,0)" opacity="1" style="display: block;"><g opacity="1" transform="matrix(1,0,0,1,675.6119995117188,408.80499267578125)"><path stroke-linecap="round" stroke-linejoin="round" fill-opacity="0" stroke="rgb(32,40,112)" stroke-opacity="1" stroke-width="2" d=" M-81.79900360107422,0 C-81.79900360107422,0 81.79900360107422,0 81.79900360107422,0"></path></g></g><g transform="matrix(1,0,0,1,0.00006103515625,0)" opacity="1" style="display: block;"><g opacity="1" transform="matrix(1,0,0,1,646.9409790039062,452.343994140625)"><path stroke-linecap="round" stroke-linejoin="round" fill-opacity="0" stroke="rgb(32,40,112)" stroke-opacity="1" stroke-width="2" d=" M-53.12799835205078,0 C-53.12799835205078,0 38.090999603271484,0 51.492000579833984,0"></path></g></g><g transform="matrix(1,0,0,1,0.00006103515625,0)" opacity="1" style="display: block;"><g opacity="1" transform="matrix(1,0,0,1,656.4559936523438,495.8819885253906)"><path stroke-linecap="round" stroke-linejoin="round" fill-opacity="0" stroke="rgb(32,40,112)" stroke-opacity="1" stroke-width="2" d=" M-62.643001556396484,0 C-62.643001556396484,0 28.886999130249023,0 55.479000091552734,0"></path></g></g><g transform="matrix(1,0,0,1,588.4690551757812,645.239990234375)" opacity="1" style="display: block;"><g opacity="1" transform="matrix(1,0,0,1,0,0)"><path stroke-linecap="round" stroke-linejoin="round" fill-opacity="0" stroke="rgb(32,40,112)" stroke-opacity="1" stroke-width="2" d=" M31.725000381469727,0 C31.725000381469727,0 -31.725000381469727,0 -31.725000381469727,0"></path></g></g><g transform="matrix(1,0,0,1,529.8410034179688,402.1820068359375)" opacity="1" style="display: block;"><g opacity="1" transform="matrix(1,0,0,1,0,0)"><path fill="rgb(132,132,250)" fill-opacity="1" d=" M36.9739990234375,36.9739990234375 C36.9739990234375,36.9739990234375 -37.069000244140625,36.9739990234375 -37.069000244140625,36.9739990234375 C-37.069000244140625,36.9739990234375 36.9739990234375,-37.069000244140625 36.9739990234375,-37.069000244140625 C36.9739990234375,-37.069000244140625 36.9739990234375,36.9739990234375 36.9739990234375,36.9739990234375z"></path><path stroke-linecap="round" stroke-linejoin="round" fill-opacity="0" stroke="rgb(32,40,112)" stroke-opacity="1" stroke-width="2" d=" M36.9739990234375,36.9739990234375 C36.9739990234375,36.9739990234375 -37.069000244140625,36.9739990234375 -37.069000244140625,36.9739990234375 C-37.069000244140625,36.9739990234375 36.9739990234375,-37.069000244140625 36.9739990234375,-37.069000244140625 C36.9739990234375,-37.069000244140625 36.9739990234375,36.9739990234375 36.9739990234375,36.9739990234375z"></path></g></g><g transform="matrix(1,0,0,1,1311.218017578125,964.2899780273438)" opacity="1" style="display: block;"><g opacity="1" transform="matrix(1,0,0,1,0,0)"><path fill="rgb(255,255,255)" fill-opacity="1" d=" M145.77099609375,-92.7249984741211 C145.77099609375,-92.7249984741211 145.77099609375,166.63999938964844 145.77099609375,166.63999938964844 C145.77099609375,166.63999938964844 -145.77099609375,166.63999938964844 -145.77099609375,166.63999938964844 C-145.77099609375,166.63999938964844 -145.77099609375,-166.63999938964844 -145.77099609375,-166.63999938964844 C-145.77099609375,-166.63999938964844 71.94499969482422,-166.63999938964844 71.94499969482422,-166.63999938964844"></path><path stroke-linecap="round" stroke-linejoin="round" fill-opacity="0" stroke="rgb(32,40,112)" stroke-opacity="1" stroke-width="2" d=" M145.77099609375,-92.7249984741211 C145.77099609375,-92.7249984741211 145.77099609375,166.63999938964844 145.77099609375,166.63999938964844 C145.77099609375,166.63999938964844 -145.77099609375,166.63999938964844 -145.77099609375,166.63999938964844 C-145.77099609375,166.63999938964844 -145.77099609375,-166.63999938964844 -145.77099609375,-166.63999938964844 C-145.77099609375,-166.63999938964844 71.94499969482422,-166.63999938964844 71.94499969482422,-166.63999938964844"></path></g></g><g transform="matrix(1,0,0,1,0,-40.00103759765625)" opacity="1" style="display: block;"><g opacity="1" transform="matrix(1,0,0,1,1311.218017578125,938.9949951171875)"><path stroke-linecap="round" stroke-linejoin="round" fill-opacity="0" stroke="rgb(32,40,112)" stroke-opacity="1" stroke-width="2" d=" M-81.79900360107422,0 C-81.79900360107422,0 81.79900360107422,0 81.79900360107422,0"></path></g></g><g transform="matrix(1,0,0,1,0,-40.00006103515625)" opacity="1" style="display: block;"><g opacity="1" transform="matrix(1,0,0,1,1311.218017578125,982.5330200195312)"><path stroke-linecap="round" stroke-linejoin="round" fill-opacity="0" stroke="rgb(32,40,112)" stroke-opacity="1" stroke-width="2" d=" M-81.79900360107422,0 C-81.79900360107422,0 58.64799880981445,0 79.28099822998047,0"></path></g></g><g transform="matrix(1,0,0,1,0,-40.0009765625)" opacity="1" style="display: block;"><g opacity="1" transform="matrix(1,0,0,1,1311.218017578125,1026.072021484375)"><path stroke-linecap="round" stroke-linejoin="round" fill-opacity="0" stroke="rgb(32,40,112)" stroke-opacity="1" stroke-width="2" d=" M-81.79900360107422,0 C-81.79900360107422,0 37.720001220703125,0 72.44499969482422,0"></path></g></g><g transform="matrix(1,0,0,1,1361.2919921875,1077.7769775390625)" opacity="1" style="display: block;"><g opacity="1" transform="matrix(1,0,0,1,0,0)"><path stroke-linecap="round" stroke-linejoin="round" fill-opacity="0" stroke="rgb(32,40,112)" stroke-opacity="1" stroke-width="2" d=" M-31.725000381469727,0 C-31.725000381469727,0 31.725000381469727,0 31.725000381469727,0"></path></g></g><g transform="matrix(1,0,0,1,1419.9200439453125,834.718994140625)" opacity="1" style="display: block;"><g opacity="1" transform="matrix(1,0,0,1,0,0)"><path fill="rgb(249,74,130)" fill-opacity="1" d=" M-36.84600067138672,36.84600067138672 C-36.84600067138672,36.84600067138672 37.069000244140625,36.84600067138672 37.069000244140625,36.84600067138672 C37.069000244140625,36.84600067138672 -36.84600067138672,-37.069000244140625 -36.84600067138672,-37.069000244140625 C-36.84600067138672,-37.069000244140625 -36.84600067138672,36.84600067138672 -36.84600067138672,36.84600067138672z"></path><path stroke-linecap="round" stroke-linejoin="round" fill-opacity="0" stroke="rgb(32,40,112)" stroke-opacity="1" stroke-width="2" d=" M-36.84600067138672,36.84600067138672 C-36.84600067138672,36.84600067138672 37.069000244140625,36.84600067138672 37.069000244140625,36.84600067138672 C37.069000244140625,36.84600067138672 -36.84600067138672,-37.069000244140625 -36.84600067138672,-37.069000244140625 C-36.84600067138672,-37.069000244140625 -36.84600067138672,36.84600067138672 -36.84600067138672,36.84600067138672z"></path></g></g></g><g transform="matrix(1,0,0,1,800,800)" opacity="1" style="display: block;"><g opacity="1" transform="matrix(1,0,0,1,0,0)"><path fill="rgb(32,40,112)" fill-opacity="1" d=" M-59.71900177001953,132.4949951171875 C-59.71900177001953,132.4949951171875 -28.2549991607666,90.01100158691406 -28.2549991607666,90.01100158691406 C-28.2549991607666,90.01100158691406 -71.91100311279297,13.430000305175781 -71.91100311279297,13.430000305175781 C-71.91100311279297,13.430000305175781 -124.50199890136719,18.86199951171875 -124.50199890136719,18.86199951171875 C-124.50199890136719,18.86199951171875 -173.625,-9.854000091552734 -173.625,-9.854000091552734 C-173.625,-9.854000091552734 -194.6909942626953,-58.35200119018555 -194.6909942626953,-58.35200119018555 C-194.6909942626953,-58.35200119018555 -282.8299865722656,-58.83599853515625 -282.8299865722656,-58.83599853515625 C-282.8299865722656,-58.83599853515625 -304.42401123046875,-10.576000213623047 -304.42401123046875,-10.576000213623047 C-304.42401123046875,-10.576000213623047 -353.8550109863281,17.61199951171875 -353.8550109863281,17.61199951171875 C-353.8550109863281,17.61199951171875 -406.385009765625,11.607999801635742 -406.385009765625,11.607999801635742 C-406.385009765625,11.607999801635742 -450.8760070800781,87.69499969482422 -450.8760070800781,87.69499969482422 C-450.8760070800781,87.69499969482422 -419.8800048828125,130.53199768066406 -419.8800048828125,130.53199768066406 C-419.8800048828125,130.53199768066406 -420.18798828125,187.42799377441406 -420.18798828125,187.42799377441406 C-420.18798828125,187.42799377441406 -451.6510009765625,229.9219970703125 -451.6510009765625,229.9219970703125 C-451.6510009765625,229.9219970703125 -408.0039978027344,306.4930114746094 -408.0039978027344,306.4930114746094 C-408.0039978027344,306.4930114746094 -355.40399169921875,301.0610046386719 -355.40399169921875,301.0610046386719 C-355.40399169921875,301.0610046386719 -306.2909851074219,329.7869873046875 -306.2909851074219,329.7869873046875 C-306.2909851074219,329.7869873046875 -285.2239990234375,378.2749938964844 -285.2239990234375,378.2749938964844 C-285.2239990234375,378.2749938964844 -197.07699584960938,378.7590026855469 -197.07699584960938,378.7590026855469 C-197.07699584960938,378.7590026855469 -175.48199462890625,330.5 -175.48199462890625,330.5 C-175.48199462890625,330.5 -126.052001953125,302.32000732421875 -126.052001953125,302.32000732421875 C-126.052001953125,302.32000732421875 -73.52200317382812,308.3240051269531 -73.52200317382812,308.3240051269531 C-73.52200317382812,308.3240051269531 -29.030000686645508,232.22799682617188 -29.030000686645508,232.22799682617188 C-29.030000686645508,232.22799682617188 -60.027000427246094,189.39999389648438 -60.027000427246094,189.39999389648438 C-60.027000427246094,189.39999389648438 -59.71900177001953,132.4949951171875 -59.71900177001953,132.4949951171875z M-201.6280059814453,227.1929931640625 C-238.75999450683594,248.3560028076172 -286.0169982910156,235.4149932861328 -307.17999267578125,198.29100036621094 C-328.35198974609375,161.15899658203125 -315.4110107421875,113.90299987792969 -278.27899169921875,92.73100280761719 C-241.15499877929688,71.56800079345703 -193.88999938964844,84.50900268554688 -172.7270050048828,121.64099884033203 C-151.55499267578125,158.76499938964844 -164.49600219726562,206.02999877929688 -201.6280059814453,227.1929931640625z"></path><path stroke-linecap="round" stroke-linejoin="round" fill-opacity="0" stroke="rgb(32,40,112)" stroke-opacity="1" stroke-width="2" d=" M-59.71900177001953,132.4949951171875 C-59.71900177001953,132.4949951171875 -28.2549991607666,90.01100158691406 -28.2549991607666,90.01100158691406 C-28.2549991607666,90.01100158691406 -71.91100311279297,13.430000305175781 -71.91100311279297,13.430000305175781 C-71.91100311279297,13.430000305175781 -124.50199890136719,18.86199951171875 -124.50199890136719,18.86199951171875 C-124.50199890136719,18.86199951171875 -173.625,-9.854000091552734 -173.625,-9.854000091552734 C-173.625,-9.854000091552734 -194.6909942626953,-58.35200119018555 -194.6909942626953,-58.35200119018555 C-194.6909942626953,-58.35200119018555 -282.8299865722656,-58.83599853515625 -282.8299865722656,-58.83599853515625 C-282.8299865722656,-58.83599853515625 -304.42401123046875,-10.576000213623047 -304.42401123046875,-10.576000213623047 C-304.42401123046875,-10.576000213623047 -353.8550109863281,17.61199951171875 -353.8550109863281,17.61199951171875 C-353.8550109863281,17.61199951171875 -406.385009765625,11.607999801635742 -406.385009765625,11.607999801635742 C-406.385009765625,11.607999801635742 -450.8760070800781,87.69499969482422 -450.8760070800781,87.69499969482422 C-450.8760070800781,87.69499969482422 -419.8800048828125,130.53199768066406 -419.8800048828125,130.53199768066406 C-419.8800048828125,130.53199768066406 -420.18798828125,187.42799377441406 -420.18798828125,187.42799377441406 C-420.18798828125,187.42799377441406 -451.6510009765625,229.9219970703125 -451.6510009765625,229.9219970703125 C-451.6510009765625,229.9219970703125 -408.0039978027344,306.4930114746094 -408.0039978027344,306.4930114746094 C-408.0039978027344,306.4930114746094 -355.40399169921875,301.0610046386719 -355.40399169921875,301.0610046386719 C-355.40399169921875,301.0610046386719 -306.2909851074219,329.7869873046875 -306.2909851074219,329.7869873046875 C-306.2909851074219,329.7869873046875 -285.2239990234375,378.2749938964844 -285.2239990234375,378.2749938964844 C-285.2239990234375,378.2749938964844 -197.07699584960938,378.7590026855469 -197.07699584960938,378.7590026855469 C-197.07699584960938,378.7590026855469 -175.48199462890625,330.5 -175.48199462890625,330.5 C-175.48199462890625,330.5 -126.052001953125,302.32000732421875 -126.052001953125,302.32000732421875 C-126.052001953125,302.32000732421875 -73.52200317382812,308.3240051269531 -73.52200317382812,308.3240051269531 C-73.52200317382812,308.3240051269531 -29.030000686645508,232.22799682617188 -29.030000686645508,232.22799682617188 C-29.030000686645508,232.22799682617188 -60.027000427246094,189.39999389648438 -60.027000427246094,189.39999389648438 C-60.027000427246094,189.39999389648438 -59.71900177001953,132.4949951171875 -59.71900177001953,132.4949951171875z M-201.6280059814453,227.1929931640625 C-238.75999450683594,248.3560028076172 -286.0169982910156,235.4149932861328 -307.17999267578125,198.29100036621094 C-328.35198974609375,161.15899658203125 -315.4110107421875,113.90299987792969 -278.27899169921875,92.73100280761719 C-241.15499877929688,71.56800079345703 -193.88999938964844,84.50900268554688 -172.7270050048828,121.64099884033203 C-151.55499267578125,158.76499938964844 -164.49600219726562,206.02999877929688 -201.6280059814453,227.1929931640625z"></path></g></g><g transform="matrix(1,0,0,1,800,800)" opacity="1" style="display: block;"><g opacity="1" transform="matrix(1,0,0,1,0,0)"><path fill="rgb(132,132,250)" fill-opacity="1" d=" M299.10400390625,164.46299743652344 C299.10400390625,164.46299743652344 315.3160095214844,142.5709991455078 315.3160095214844,142.5709991455078 C315.3160095214844,142.5709991455078 292.8219909667969,103.11199951171875 292.8219909667969,103.11199951171875 C292.8219909667969,103.11199951171875 265.7229919433594,105.91000366210938 265.7229919433594,105.91000366210938 C265.7229919433594,105.91000366210938 240.41099548339844,91.11299896240234 240.41099548339844,91.11299896240234 C240.41099548339844,91.11299896240234 229.55599975585938,66.1240005493164 229.55599975585938,66.1240005493164 C229.55599975585938,66.1240005493164 184.13999938964844,65.8740005493164 184.13999938964844,65.8740005493164 C184.13999938964844,65.8740005493164 173.01300048828125,90.74099731445312 173.01300048828125,90.74099731445312 C173.01300048828125,90.74099731445312 147.54200744628906,105.26599884033203 147.54200744628906,105.26599884033203 C147.54200744628906,105.26599884033203 120.4749984741211,102.1729965209961 120.4749984741211,102.1729965209961 C120.4749984741211,102.1729965209961 97.55000305175781,141.3780059814453 97.55000305175781,141.3780059814453 C97.55000305175781,141.3780059814453 113.52100372314453,163.4510040283203 113.52100372314453,163.4510040283203 C113.52100372314453,163.4510040283203 113.36299896240234,192.76800537109375 113.36299896240234,192.76800537109375 C113.36299896240234,192.76800537109375 97.1500015258789,214.66400146484375 97.1500015258789,214.66400146484375 C97.1500015258789,214.66400146484375 119.64099884033203,254.1199951171875 119.64099884033203,254.1199951171875 C119.64099884033203,254.1199951171875 146.74400329589844,251.3209991455078 146.74400329589844,251.3209991455078 C146.74400329589844,251.3209991455078 172.05099487304688,266.12298583984375 172.05099487304688,266.12298583984375 C172.05099487304688,266.12298583984375 182.906005859375,291.1080017089844 182.906005859375,291.1080017089844 C182.906005859375,291.1080017089844 228.32699584960938,291.35699462890625 228.32699584960938,291.35699462890625 C228.32699584960938,291.35699462890625 239.45399475097656,266.489990234375 239.45399475097656,266.489990234375 C239.45399475097656,266.489990234375 264.92401123046875,251.97000122070312 264.92401123046875,251.97000122070312 C264.92401123046875,251.97000122070312 291.99200439453125,255.06300354003906 291.99200439453125,255.06300354003906 C291.99200439453125,255.06300354003906 314.9169921875,215.85299682617188 314.9169921875,215.85299682617188 C314.9169921875,215.85299682617188 298.94500732421875,193.78500366210938 298.94500732421875,193.78500366210938 C298.94500732421875,193.78500366210938 299.10400390625,164.46299743652344 299.10400390625,164.46299743652344z M225.9810028076172,213.25799560546875 C206.84800720214844,224.16299438476562 182.4980010986328,217.4949951171875 171.59300231933594,198.36599731445312 C160.6840057373047,179.23300170898438 167.3520050048828,154.8820037841797 186.48500061035156,143.97300720214844 C205.61399841308594,133.0679931640625 229.968994140625,139.73699951171875 240.87399291992188,158.8699951171875 C251.7830047607422,177.99899291992188 245.11399841308594,202.35299682617188 225.9810028076172,213.25799560546875z"></path><path stroke-linecap="round" stroke-linejoin="round" fill-opacity="0" stroke="rgb(32,40,112)" stroke-opacity="1" stroke-width="2" d=" M299.10400390625,164.46299743652344 C299.10400390625,164.46299743652344 315.3160095214844,142.5709991455078 315.3160095214844,142.5709991455078 C315.3160095214844,142.5709991455078 292.8219909667969,103.11199951171875 292.8219909667969,103.11199951171875 C292.8219909667969,103.11199951171875 265.7229919433594,105.91000366210938 265.7229919433594,105.91000366210938 C265.7229919433594,105.91000366210938 240.41099548339844,91.11299896240234 240.41099548339844,91.11299896240234 C240.41099548339844,91.11299896240234 229.55599975585938,66.1240005493164 229.55599975585938,66.1240005493164 C229.55599975585938,66.1240005493164 184.13999938964844,65.8740005493164 184.13999938964844,65.8740005493164 C184.13999938964844,65.8740005493164 173.01300048828125,90.74099731445312 173.01300048828125,90.74099731445312 C173.01300048828125,90.74099731445312 147.54200744628906,105.26599884033203 147.54200744628906,105.26599884033203 C147.54200744628906,105.26599884033203 120.4749984741211,102.1729965209961 120.4749984741211,102.1729965209961 C120.4749984741211,102.1729965209961 97.55000305175781,141.3780059814453 97.55000305175781,141.3780059814453 C97.55000305175781,141.3780059814453 113.52100372314453,163.4510040283203 113.52100372314453,163.4510040283203 C113.52100372314453,163.4510040283203 113.36299896240234,192.76800537109375 113.36299896240234,192.76800537109375 C113.36299896240234,192.76800537109375 97.1500015258789,214.66400146484375 97.1500015258789,214.66400146484375 C97.1500015258789,214.66400146484375 119.64099884033203,254.1199951171875 119.64099884033203,254.1199951171875 C119.64099884033203,254.1199951171875 146.74400329589844,251.3209991455078 146.74400329589844,251.3209991455078 C146.74400329589844,251.3209991455078 172.05099487304688,266.12298583984375 172.05099487304688,266.12298583984375 C172.05099487304688,266.12298583984375 182.906005859375,291.1080017089844 182.906005859375,291.1080017089844 C182.906005859375,291.1080017089844 228.32699584960938,291.35699462890625 228.32699584960938,291.35699462890625 C228.32699584960938,291.35699462890625 239.45399475097656,266.489990234375 239.45399475097656,266.489990234375 C239.45399475097656,266.489990234375 264.92401123046875,251.97000122070312 264.92401123046875,251.97000122070312 C264.92401123046875,251.97000122070312 291.99200439453125,255.06300354003906 291.99200439453125,255.06300354003906 C291.99200439453125,255.06300354003906 314.9169921875,215.85299682617188 314.9169921875,215.85299682617188 C314.9169921875,215.85299682617188 298.94500732421875,193.78500366210938 298.94500732421875,193.78500366210938 C298.94500732421875,193.78500366210938 299.10400390625,164.46299743652344 299.10400390625,164.46299743652344z M225.9810028076172,213.25799560546875 C206.84800720214844,224.16299438476562 182.4980010986328,217.4949951171875 171.59300231933594,198.36599731445312 C160.6840057373047,179.23300170898438 167.3520050048828,154.8820037841797 186.48500061035156,143.97300720214844 C205.61399841308594,133.0679931640625 229.968994140625,139.73699951171875 240.87399291992188,158.8699951171875 C251.7830047607422,177.99899291992188 245.11399841308594,202.35299682617188 225.9810028076172,213.25799560546875z"></path></g></g><g transform="matrix(1,0,0,1,800.0000610351562,800)" opacity="1" style="display: block;"><g opacity="1" transform="matrix(1,0,0,1,0,0)"><path fill="rgb(132,132,250)" fill-opacity="1" d=" M370.06500244140625,-365.1619873046875 C370.06500244140625,-365.1619873046875 379.1180114746094,-377.385986328125 379.1180114746094,-377.385986328125 C379.1180114746094,-377.385986328125 366.5570068359375,-399.4200134277344 366.5570068359375,-399.4200134277344 C366.5570068359375,-399.4200134277344 351.42498779296875,-397.85699462890625 351.42498779296875,-397.85699462890625 C351.42498779296875,-397.85699462890625 337.2909851074219,-406.1199951171875 337.2909851074219,-406.1199951171875 C337.2909851074219,-406.1199951171875 331.2300109863281,-420.0740051269531 331.2300109863281,-420.0740051269531 C331.2300109863281,-420.0740051269531 305.8699951171875,-420.2130126953125 305.8699951171875,-420.2130126953125 C305.8699951171875,-420.2130126953125 299.656005859375,-406.3269958496094 299.656005859375,-406.3269958496094 C299.656005859375,-406.3269958496094 285.4339904785156,-398.2170104980469 285.4339904785156,-398.2170104980469 C285.4339904785156,-398.2170104980469 270.32000732421875,-399.9440002441406 270.32000732421875,-399.9440002441406 C270.32000732421875,-399.9440002441406 257.51800537109375,-378.052001953125 257.51800537109375,-378.052001953125 C257.51800537109375,-378.052001953125 266.43701171875,-365.72698974609375 266.43701171875,-365.72698974609375 C266.43701171875,-365.72698974609375 266.3479919433594,-349.3559875488281 266.3479919433594,-349.3559875488281 C266.3479919433594,-349.3559875488281 257.2950134277344,-337.1300048828125 257.2950134277344,-337.1300048828125 C257.2950134277344,-337.1300048828125 269.85400390625,-315.0979919433594 269.85400390625,-315.0979919433594 C269.85400390625,-315.0979919433594 284.9880065917969,-316.6610107421875 284.9880065917969,-316.6610107421875 C284.9880065917969,-316.6610107421875 299.1189880371094,-308.39599609375 299.1189880371094,-308.39599609375 C299.1189880371094,-308.39599609375 305.1809997558594,-294.4440002441406 305.1809997558594,-294.4440002441406 C305.1809997558594,-294.4440002441406 330.5429992675781,-294.30499267578125 330.5429992675781,-294.30499267578125 C330.5429992675781,-294.30499267578125 336.7569885253906,-308.1910095214844 336.7569885253906,-308.1910095214844 C336.7569885253906,-308.1910095214844 350.97900390625,-316.29901123046875 350.97900390625,-316.29901123046875 C350.97900390625,-316.29901123046875 366.0929870605469,-314.5710144042969 366.0929870605469,-314.5710144042969 C366.0929870605469,-314.5710144042969 378.8949890136719,-336.46600341796875 378.8949890136719,-336.46600341796875 C378.8949890136719,-336.46600341796875 369.97601318359375,-348.78900146484375 369.97601318359375,-348.78900146484375 C369.97601318359375,-348.78900146484375 370.06500244140625,-365.1619873046875 370.06500244140625,-365.1619873046875z M329.2340087890625,-337.9150085449219 C318.54998779296875,-331.82598876953125 304.9530029296875,-335.54998779296875 298.864013671875,-346.2309875488281 C292.7720031738281,-356.9150085449219 296.4949951171875,-370.510986328125 307.1789855957031,-376.6029968261719 C317.8599853515625,-382.6919860839844 331.4599914550781,-378.968994140625 337.54901123046875,-368.2850036621094 C343.6409912109375,-357.60400390625 339.9179992675781,-344.0039978027344 329.2340087890625,-337.9150085449219z"></path><path stroke-linecap="round" stroke-linejoin="round" fill-opacity="0" stroke="rgb(32,40,112)" stroke-opacity="1" stroke-width="2" d=" M370.06500244140625,-365.1619873046875 C370.06500244140625,-365.1619873046875 379.1180114746094,-377.385986328125 379.1180114746094,-377.385986328125 C379.1180114746094,-377.385986328125 366.5570068359375,-399.4200134277344 366.5570068359375,-399.4200134277344 C366.5570068359375,-399.4200134277344 351.42498779296875,-397.85699462890625 351.42498779296875,-397.85699462890625 C351.42498779296875,-397.85699462890625 337.2909851074219,-406.1199951171875 337.2909851074219,-406.1199951171875 C337.2909851074219,-406.1199951171875 331.2300109863281,-420.0740051269531 331.2300109863281,-420.0740051269531 C331.2300109863281,-420.0740051269531 305.8699951171875,-420.2130126953125 305.8699951171875,-420.2130126953125 C305.8699951171875,-420.2130126953125 299.656005859375,-406.3269958496094 299.656005859375,-406.3269958496094 C299.656005859375,-406.3269958496094 285.4339904785156,-398.2170104980469 285.4339904785156,-398.2170104980469 C285.4339904785156,-398.2170104980469 270.32000732421875,-399.9440002441406 270.32000732421875,-399.9440002441406 C270.32000732421875,-399.9440002441406 257.51800537109375,-378.052001953125 257.51800537109375,-378.052001953125 C257.51800537109375,-378.052001953125 266.43701171875,-365.72698974609375 266.43701171875,-365.72698974609375 C266.43701171875,-365.72698974609375 266.3479919433594,-349.3559875488281 266.3479919433594,-349.3559875488281 C266.3479919433594,-349.3559875488281 257.2950134277344,-337.1300048828125 257.2950134277344,-337.1300048828125 C257.2950134277344,-337.1300048828125 269.85400390625,-315.0979919433594 269.85400390625,-315.0979919433594 C269.85400390625,-315.0979919433594 284.9880065917969,-316.6610107421875 284.9880065917969,-316.6610107421875 C284.9880065917969,-316.6610107421875 299.1189880371094,-308.39599609375 299.1189880371094,-308.39599609375 C299.1189880371094,-308.39599609375 305.1809997558594,-294.4440002441406 305.1809997558594,-294.4440002441406 C305.1809997558594,-294.4440002441406 330.5429992675781,-294.30499267578125 330.5429992675781,-294.30499267578125 C330.5429992675781,-294.30499267578125 336.7569885253906,-308.1910095214844 336.7569885253906,-308.1910095214844 C336.7569885253906,-308.1910095214844 350.97900390625,-316.29901123046875 350.97900390625,-316.29901123046875 C350.97900390625,-316.29901123046875 366.0929870605469,-314.5710144042969 366.0929870605469,-314.5710144042969 C366.0929870605469,-314.5710144042969 378.8949890136719,-336.46600341796875 378.8949890136719,-336.46600341796875 C378.8949890136719,-336.46600341796875 369.97601318359375,-348.78900146484375 369.97601318359375,-348.78900146484375 C369.97601318359375,-348.78900146484375 370.06500244140625,-365.1619873046875 370.06500244140625,-365.1619873046875z M329.2340087890625,-337.9150085449219 C318.54998779296875,-331.82598876953125 304.9530029296875,-335.54998779296875 298.864013671875,-346.2309875488281 C292.7720031738281,-356.9150085449219 296.4949951171875,-370.510986328125 307.1789855957031,-376.6029968261719 C317.8599853515625,-382.6919860839844 331.4599914550781,-378.968994140625 337.54901123046875,-368.2850036621094 C343.6409912109375,-357.60400390625 339.9179992675781,-344.0039978027344 329.2340087890625,-337.9150085449219z"></path></g></g><g transform="matrix(1,0,0,1,811.3049926757812,758.885009765625)" opacity="1" style="display: block;"><g opacity="1" transform="matrix(1,0,0,1,0,0)"><path fill="rgb(132,132,250)" fill-opacity="1" d=" M294.0320129394531,0 C294.0320129394531,0.9570000171661377 294.0320129394531,1.9240000247955322 294.01300048828125,2.88100004196167 C292.7560119628906,134.10400390625 205.5330047607422,244.7760009765625 85.94599914550781,281.260009765625 C58.76100158691406,289.56500244140625 29.89699935913086,294.0320129394531 0,294.0320129394531 C-162.39599609375,294.0320129394531 -294.0320129394531,162.38699340820312 -294.0320129394531,0 C-294.0320129394531,-162.39599609375 -162.39599609375,-294.0320129394531 0,-294.0320129394531 C162.38699340820312,-294.0320129394531 294.0320129394531,-162.39599609375 294.0320129394531,0z"></path><path stroke-linecap="round" stroke-linejoin="round" fill-opacity="0" stroke="rgb(32,40,112)" stroke-opacity="1" stroke-width="2" d=" M294.0320129394531,0 C294.0320129394531,0.9570000171661377 294.0320129394531,1.9240000247955322 294.01300048828125,2.88100004196167 C292.7560119628906,134.10400390625 205.5330047607422,244.7760009765625 85.94599914550781,281.260009765625 C58.76100158691406,289.56500244140625 29.89699935913086,294.0320129394531 0,294.0320129394531 C-162.39599609375,294.0320129394531 -294.0320129394531,162.38699340820312 -294.0320129394531,0 C-294.0320129394531,-162.39599609375 -162.39599609375,-294.0320129394531 0,-294.0320129394531 C162.38699340820312,-294.0320129394531 294.0320129394531,-162.39599609375 294.0320129394531,0z"></path></g></g><g mask="url(#__lottie_element_24_1)" style="display: block;"><g transform="matrix(1.0019099712371826,0,0,1.0019099712371826,958.591796875,830.9494018554688)" opacity="1"><g opacity="1" transform="matrix(1,0,0,1,0,0)"><path fill="rgb(32,40,112)" fill-opacity="1" d=" M153.5070037841797,-63.54600143432617 C152.24899291992188,67.677001953125 65.0270004272461,178.35000610351562 -54.560001373291016,214.83399963378906 C-54.560001373291016,214.83399963378906 -147.0070037841797,122.56199645996094 -147.0070037841797,122.56199645996094 C-147.0070037841797,122.56199645996094 7.460000038146973,-209.33399963378906 7.460000038146973,-209.33399963378906 C7.460000038146973,-209.33399963378906 153.5070037841797,-63.54600143432617 153.5070037841797,-63.54600143432617z"></path><path stroke-linecap="round" stroke-linejoin="round" fill-opacity="0" stroke="rgb(32,40,112)" stroke-opacity="1" stroke-width="2" d=" M153.5070037841797,-63.54600143432617 C152.24899291992188,67.677001953125 65.0270004272461,178.35000610351562 -54.560001373291016,214.83399963378906 C-54.560001373291016,214.83399963378906 -147.0070037841797,122.56199645996094 -147.0070037841797,122.56199645996094 C-147.0070037841797,122.56199645996094 7.460000038146973,-209.33399963378906 7.460000038146973,-209.33399963378906 C7.460000038146973,-209.33399963378906 153.5070037841797,-63.54600143432617 153.5070037841797,-63.54600143432617z"></path></g></g></g><g transform="matrix(1.0019099712371826,0,0,1.0019099712371826,811.302001953125,758.8820190429688)" opacity="1" style="display: block;"><g opacity="1" transform="matrix(1,0,0,1,0,0)"><path fill="rgb(249,74,130)" fill-opacity="1" d=" M53.499000549316406,157.80299377441406 C53.499000549316406,157.80299377441406 0,194.48800659179688 0,194.48800659179688 C0,194.48800659179688 -53.499000549316406,157.80299377441406 -53.499000549316406,157.80299377441406 C-116.697998046875,114.46700286865234 -154.4720001220703,42.762001037597656 -154.4720001220703,-33.86800003051758 C-154.4720001220703,-33.86800003051758 -154.4720001220703,-137.40699768066406 -154.4720001220703,-137.40699768066406 C-154.4720001220703,-137.40699768066406 0,-194.48800659179688 0,-194.48800659179688 C0,-194.48800659179688 154.4720001220703,-137.40699768066406 154.4720001220703,-137.40699768066406 C154.4720001220703,-137.40699768066406 154.4720001220703,-33.86800003051758 154.4720001220703,-33.86800003051758 C154.4720001220703,42.762001037597656 116.697998046875,114.46700286865234 53.499000549316406,157.80299377441406z"></path><path stroke-linecap="round" stroke-linejoin="round" fill-opacity="0" stroke="rgb(32,40,112)" stroke-opacity="1" stroke-width="2" d=" M53.499000549316406,157.80299377441406 C53.499000549316406,157.80299377441406 0,194.48800659179688 0,194.48800659179688 C0,194.48800659179688 -53.499000549316406,157.80299377441406 -53.499000549316406,157.80299377441406 C-116.697998046875,114.46700286865234 -154.4720001220703,42.762001037597656 -154.4720001220703,-33.86800003051758 C-154.4720001220703,-33.86800003051758 -154.4720001220703,-137.40699768066406 -154.4720001220703,-137.40699768066406 C-154.4720001220703,-137.40699768066406 0,-194.48800659179688 0,-194.48800659179688 C0,-194.48800659179688 154.4720001220703,-137.40699768066406 154.4720001220703,-137.40699768066406 C154.4720001220703,-137.40699768066406 154.4720001220703,-33.86800003051758 154.4720001220703,-33.86800003051758 C154.4720001220703,42.762001037597656 116.697998046875,114.46700286865234 53.499000549316406,157.80299377441406z"></path></g></g><g transform="matrix(1.0053163766860962,0,0,1.0053163766860962,811.302001953125,758.8820190429688)" opacity="1" style="display: block;"><g opacity="1" transform="matrix(1,0,0,1,0,0)"><path fill="rgb(255,255,255)" fill-opacity="1" d=" M42.06100082397461,124.06500244140625 C42.06100082397461,124.06500244140625 0,152.906005859375 0,152.906005859375 C0,152.906005859375 -42.06100082397461,124.06500244140625 -42.06100082397461,124.06500244140625 C-91.74800109863281,89.99400329589844 -121.44599914550781,33.619998931884766 -121.44599914550781,-26.62700080871582 C-121.44599914550781,-26.62700080871582 -121.44599914550781,-108.02899932861328 -121.44599914550781,-108.02899932861328 C-121.44599914550781,-108.02899932861328 0,-152.906005859375 0,-152.906005859375 C0,-152.906005859375 121.44599914550781,-108.02899932861328 121.44599914550781,-108.02899932861328 C121.44599914550781,-108.02899932861328 121.44599914550781,-26.62700080871582 121.44599914550781,-26.62700080871582 C121.44599914550781,33.619998931884766 91.74800109863281,89.99400329589844 42.06100082397461,124.06500244140625z"></path><path stroke-linecap="round" stroke-linejoin="round" fill-opacity="0" stroke="rgb(32,40,112)" stroke-opacity="1" stroke-width="2" d=" M42.06100082397461,124.06500244140625 C42.06100082397461,124.06500244140625 0,152.906005859375 0,152.906005859375 C0,152.906005859375 -42.06100082397461,124.06500244140625 -42.06100082397461,124.06500244140625 C-91.74800109863281,89.99400329589844 -121.44599914550781,33.619998931884766 -121.44599914550781,-26.62700080871582 C-121.44599914550781,-26.62700080871582 -121.44599914550781,-108.02899932861328 -121.44599914550781,-108.02899932861328 C-121.44599914550781,-108.02899932861328 0,-152.906005859375 0,-152.906005859375 C0,-152.906005859375 121.44599914550781,-108.02899932861328 121.44599914550781,-108.02899932861328 C121.44599914550781,-108.02899932861328 121.44599914550781,-26.62700080871582 121.44599914550781,-26.62700080871582 C121.44599914550781,33.619998931884766 91.74800109863281,89.99400329589844 42.06100082397461,124.06500244140625z"></path></g></g><g transform="matrix(1.0053163766860962,0,0,1.0053163766860962,818.3995361328125,747.6717529296875)" opacity="1" style="display: block;"><g opacity="1" transform="matrix(1,0,0,1,0,0)"><path fill="rgb(249,74,130)" fill-opacity="1" d=" M-17.268999099731445,55.85900115966797 C-17.268999099731445,55.85900115966797 -83.3010025024414,-10.17300033569336 -83.3010025024414,-10.17300033569336 C-83.3010025024414,-10.17300033569336 -72.1520004272461,-21.320999145507812 -72.1520004272461,-21.320999145507812 C-72.1520004272461,-21.320999145507812 -17.268999099731445,33.5620002746582 -17.268999099731445,33.5620002746582 C-17.268999099731445,33.5620002746582 72.1520004272461,-55.85900115966797 72.1520004272461,-55.85900115966797 C72.1520004272461,-55.85900115966797 83.3010025024414,-44.71099853515625 83.3010025024414,-44.71099853515625 C83.3010025024414,-44.71099853515625 -17.268999099731445,55.85900115966797 -17.268999099731445,55.85900115966797z"></path></g></g><g mask="url(#__lottie_element_15_1)" style="display: none;"><g><g><path></path></g></g></g><g mask="url(#__lottie_element_3_1)" style="display: none;"><g><g><path></path></g></g></g></g></svg>