<svg width="1600" height="1600" viewBox="0 0 1600 1600" fill="none" xmlns="http://www.w3.org/2000/svg">
<mask id="mask0_2_8735" style="mask-type:luminance" maskUnits="userSpaceOnUse" x="25" y="25" width="1550" height="1550">
<path d="M1575 25H25V1575H1575V25Z" fill="white"/>
</mask>
<g mask="url(#mask0_2_8735)">
<mask id="mask1_2_8735" style="mask-type:luminance" maskUnits="userSpaceOnUse" x="155" y="155" width="1290" height="1290">
<path d="M1444.03 155H155V1444.03H1444.03V155Z" fill="white"/>
</mask>
<g mask="url(#mask1_2_8735)">
<path d="M646.372 486.16H1061.53V965.245H646.372V486.16Z" fill="#0626A9"/>
<path d="M646.372 486.16H1061.53V965.245H646.372V486.16Z" stroke="#0626A9" stroke-width="2" stroke-linecap="round" stroke-linejoin="round"/>
<path d="M1033.99 615.745H673.907V518.168H1033.99V615.745Z" fill="white"/>
<path d="M1033.99 615.745H673.907V518.168H1033.99V615.745Z" stroke="#0626A9" stroke-width="2" stroke-linecap="round" stroke-linejoin="round"/>
<mask id="mask2_2_8735" style="mask-type:luminance" maskUnits="userSpaceOnUse" x="155" y="155" width="1290" height="1290">
<path d="M155 155H1444.03V1444.03H155V155Z" fill="white"/>
</mask>
<g mask="url(#mask2_2_8735)">
<path d="M607.564 657.464V419.328" stroke="#0626A9" stroke-width="2" stroke-linecap="round" stroke-linejoin="round"/>
<path d="M559.044 657.464V477.953H426.227" stroke="#0626A9" stroke-width="2" stroke-linecap="round" stroke-linejoin="round"/>
<path d="M544.901 791.148H448.366V665.474" stroke="#0626A9" stroke-width="2" stroke-linecap="round" stroke-linejoin="round"/>
<path d="M533.066 838.664H329.727V598.382" stroke="#0626A9" stroke-width="2" stroke-linecap="round" stroke-linejoin="round"/>
<path d="M533.066 875.709H382.299V951.487" stroke="#0626A9" stroke-width="2" stroke-linecap="round" stroke-linejoin="round"/>
<path d="M924.565 1029.52H1122.05V867.887" stroke="#0626A9" stroke-width="2" stroke-linecap="round" stroke-linejoin="round"/>
<path d="M929.339 1090.87H1174.09V797.691H1255.41" stroke="#0626A9" stroke-width="2" stroke-linecap="round" stroke-linejoin="round"/>
<path d="M621.022 406.043C621.022 413.476 614.997 419.5 607.564 419.5C600.132 419.5 594.107 413.476 594.107 406.043C594.107 398.61 600.132 392.585 607.564 392.585C614.997 392.585 621.022 398.61 621.022 406.043Z" fill="#84AAE4"/>
<path d="M621.022 406.043C621.022 413.476 614.997 419.5 607.564 419.5C600.132 419.5 594.107 413.476 594.107 406.043C594.107 398.61 600.132 392.585 607.564 392.585C614.997 392.585 621.022 398.61 621.022 406.043Z" stroke="#0626A9" stroke-width="2" stroke-linecap="round" stroke-linejoin="round"/>
<path d="M426.427 477.954C426.427 485.387 420.403 491.411 412.97 491.411C405.537 491.411 399.512 485.387 399.512 477.954C399.512 470.521 405.537 464.496 412.97 464.496C420.403 464.496 426.427 470.521 426.427 477.954Z" fill="#8869D5"/>
<path d="M426.427 477.954C426.427 485.387 420.403 491.411 412.97 491.411C405.537 491.411 399.512 485.387 399.512 477.954C399.512 470.521 405.537 464.496 412.97 464.496C420.403 464.496 426.427 470.521 426.427 477.954Z" stroke="#0626A9" stroke-width="2" stroke-linecap="round" stroke-linejoin="round"/>
<path d="M461.823 653.418C461.823 660.85 455.798 666.875 448.365 666.875C440.932 666.875 434.908 660.85 434.908 653.418C434.908 645.985 440.932 639.96 448.365 639.96C455.798 639.96 461.823 645.985 461.823 653.418Z" fill="#84AAE4"/>
<path d="M461.823 653.418C461.823 660.85 455.798 666.875 448.365 666.875C440.932 666.875 434.908 660.85 434.908 653.418C434.908 645.985 440.932 639.96 448.365 639.96C455.798 639.96 461.823 645.985 461.823 653.418Z" stroke="#0626A9" stroke-width="2" stroke-linecap="round" stroke-linejoin="round"/>
<path d="M343.185 584.115C343.185 591.548 337.16 597.573 329.727 597.573C322.295 597.573 316.27 591.548 316.27 584.115C316.27 576.682 322.295 570.658 329.727 570.658C337.16 570.658 343.185 576.682 343.185 584.115Z" fill="#84AAE4"/>
<path d="M343.185 584.115C343.185 591.548 337.16 597.573 329.727 597.573C322.295 597.573 316.27 591.548 316.27 584.115C316.27 576.682 322.295 570.658 329.727 570.658C337.16 570.658 343.185 576.682 343.185 584.115Z" stroke="#0626A9" stroke-width="2" stroke-linecap="round" stroke-linejoin="round"/>
<path d="M395.71 964.947C395.71 972.375 389.686 978.401 382.253 978.401C374.82 978.401 368.796 972.375 368.796 964.947C368.796 957.511 374.82 951.487 382.253 951.487C389.686 951.487 395.71 957.511 395.71 964.947Z" fill="#84AAE4"/>
<path d="M395.71 964.947C395.71 972.375 389.686 978.401 382.253 978.401C374.82 978.401 368.796 972.375 368.796 964.947C368.796 957.511 374.82 951.487 382.253 951.487C389.686 951.487 395.71 957.511 395.71 964.947Z" stroke="#0626A9" stroke-width="2" stroke-linecap="round" stroke-linejoin="round"/>
<path d="M1135.51 854.43C1135.51 861.863 1129.48 867.887 1122.05 867.887C1114.62 867.887 1108.59 861.863 1108.59 854.43C1108.59 846.997 1114.62 840.972 1122.05 840.972C1129.48 840.972 1135.51 846.997 1135.51 854.43Z" fill="#84AAE4"/>
<path d="M1135.51 854.43C1135.51 861.863 1129.48 867.887 1122.05 867.887C1114.62 867.887 1108.59 861.863 1108.59 854.43C1108.59 846.997 1114.62 840.972 1122.05 840.972C1129.48 840.972 1135.51 846.997 1135.51 854.43Z" stroke="#0626A9" stroke-width="2" stroke-linecap="round" stroke-linejoin="round"/>
<path d="M1282.76 797.692C1282.76 805.125 1276.74 811.149 1269.3 811.149C1261.87 811.149 1255.85 805.125 1255.85 797.692C1255.85 790.259 1261.87 784.234 1269.3 784.234C1276.74 784.234 1282.76 790.259 1282.76 797.692Z" fill="#8869D5"/>
<path d="M1282.76 797.692C1282.76 805.125 1276.74 811.149 1269.3 811.149C1261.87 811.149 1255.85 805.125 1255.85 797.692C1255.85 790.259 1261.87 784.234 1269.3 784.234C1276.74 784.234 1282.76 790.259 1282.76 797.692Z" stroke="#0626A9" stroke-width="2" stroke-linecap="round" stroke-linejoin="round"/>
</g>
<mask id="mask3_2_8735" style="mask-type:luminance" maskUnits="userSpaceOnUse" x="155" y="155" width="1290" height="1290">
<path d="M155 155H1444.03V1444.03H155V155Z" fill="white"/>
</mask>
<g mask="url(#mask3_2_8735)">
<path d="M939.543 1174.77H523.671V653.418H939.543V1174.77Z" fill="#84AAE4"/>
<path d="M939.543 1174.77H523.671V653.418H939.543V1174.77Z" stroke="#0626A9" stroke-width="2" stroke-linecap="round" stroke-linejoin="round"/>
<path d="M892.572 779.142H570.643V707.602H892.572V779.142Z" fill="white"/>
<path d="M892.572 779.142H570.643V707.602H892.572V779.142Z" stroke="#0626A9" stroke-width="2" stroke-linecap="round" stroke-linejoin="round"/>
<path d="M595.357 755.578L619.77 731.166" stroke="#0626A9" stroke-width="2" stroke-linecap="round" stroke-linejoin="round"/>
<path d="M619.77 755.578L595.357 731.166" stroke="#0626A9" stroke-width="2" stroke-linecap="round" stroke-linejoin="round"/>
<path d="M646.372 755.578L670.785 731.166" stroke="#0626A9" stroke-width="2" stroke-linecap="round" stroke-linejoin="round"/>
<path d="M670.785 755.578L646.372 731.166" stroke="#0626A9" stroke-width="2" stroke-linecap="round" stroke-linejoin="round"/>
<path d="M697.386 755.578L721.799 731.166" stroke="#0626A9" stroke-width="2" stroke-linecap="round" stroke-linejoin="round"/>
<path d="M721.799 755.578L697.386 731.166" stroke="#0626A9" stroke-width="2" stroke-linecap="round" stroke-linejoin="round"/>
<path d="M748.401 755.578L772.814 731.166" stroke="#0626A9" stroke-width="2" stroke-linecap="round" stroke-linejoin="round"/>
<path d="M772.814 755.578L748.401 731.166" stroke="#0626A9" stroke-width="2" stroke-linecap="round" stroke-linejoin="round"/>
<path d="M867.078 743.372C867.078 753.602 858.785 761.895 848.555 761.895C838.325 761.895 830.033 753.602 830.033 743.372C830.033 733.142 838.325 724.849 848.555 724.849C858.785 724.849 867.078 733.142 867.078 743.372Z" fill="#8869D5"/>
<path d="M839.448 741.728L847.149 749.428L860.377 736.199" stroke="#0626A9" stroke-width="2" stroke-linecap="round" stroke-linejoin="round"/>
<path d="M892.572 893.543H570.643V822.004H892.572V893.543Z" fill="white"/>
<path d="M892.572 893.543H570.643V822.004H892.572V893.543Z" stroke="#0626A9" stroke-width="2" stroke-linecap="round" stroke-linejoin="round"/>
<path d="M595.357 869.98L619.77 845.567" stroke="#0626A9" stroke-width="2" stroke-linecap="round" stroke-linejoin="round"/>
<path d="M619.77 869.98L595.357 845.567" stroke="#0626A9" stroke-width="2" stroke-linecap="round" stroke-linejoin="round"/>
<path d="M646.372 869.98L670.785 845.567" stroke="#0626A9" stroke-width="2" stroke-linecap="round" stroke-linejoin="round"/>
<path d="M670.785 869.98L646.372 845.567" stroke="#0626A9" stroke-width="2" stroke-linecap="round" stroke-linejoin="round"/>
<path d="M697.386 869.98L721.799 845.567" stroke="#0626A9" stroke-width="2" stroke-linecap="round" stroke-linejoin="round"/>
<path d="M721.799 869.98L697.386 845.567" stroke="#0626A9" stroke-width="2" stroke-linecap="round" stroke-linejoin="round"/>
<path d="M748.401 869.98L772.814 845.567" stroke="#0626A9" stroke-width="2" stroke-linecap="round" stroke-linejoin="round"/>
<path d="M772.814 869.98L748.401 845.567" stroke="#0626A9" stroke-width="2" stroke-linecap="round" stroke-linejoin="round"/>
<path d="M867.078 857.773C867.078 868.004 858.785 876.296 848.555 876.296C838.325 876.296 830.033 868.004 830.033 857.773C830.033 847.543 838.325 839.251 848.555 839.251C858.785 839.251 867.078 847.543 867.078 857.773Z" fill="#8869D5"/>
<path d="M839.448 856.129L847.149 863.829L860.377 850.601" stroke="#0626A9" stroke-width="2" stroke-linecap="round" stroke-linejoin="round"/>
<path d="M892.572 1006.33H570.643V934.794H892.572V1006.33Z" fill="white"/>
<path d="M892.572 1006.33H570.643V934.794H892.572V1006.33Z" stroke="#0626A9" stroke-width="2" stroke-linecap="round" stroke-linejoin="round"/>
<path d="M595.357 982.767L619.77 958.357" stroke="#0626A9" stroke-width="2" stroke-linecap="round" stroke-linejoin="round"/>
<path d="M619.77 982.767L595.357 958.357" stroke="#0626A9" stroke-width="2" stroke-linecap="round" stroke-linejoin="round"/>
<path d="M646.372 982.767L670.785 958.357" stroke="#0626A9" stroke-width="2" stroke-linecap="round" stroke-linejoin="round"/>
<path d="M670.785 982.767L646.372 958.357" stroke="#0626A9" stroke-width="2" stroke-linecap="round" stroke-linejoin="round"/>
<path d="M697.386 982.767L721.799 958.357" stroke="#0626A9" stroke-width="2" stroke-linecap="round" stroke-linejoin="round"/>
<path d="M721.799 982.767L697.386 958.357" stroke="#0626A9" stroke-width="2" stroke-linecap="round" stroke-linejoin="round"/>
<path d="M748.401 982.767L772.814 958.357" stroke="#0626A9" stroke-width="2" stroke-linecap="round" stroke-linejoin="round"/>
<path d="M772.814 982.767L748.401 958.357" stroke="#0626A9" stroke-width="2" stroke-linecap="round" stroke-linejoin="round"/>
<path d="M867.078 970.562C867.078 980.794 858.785 989.084 848.555 989.084C838.325 989.084 830.033 980.794 830.033 970.562C830.033 960.334 838.325 952.041 848.555 952.041C858.785 952.041 867.078 960.334 867.078 970.562Z" fill="#8869D5"/>
<path d="M839.448 968.919L847.149 976.621L860.377 963.392" stroke="#0626A9" stroke-width="2" stroke-linecap="round" stroke-linejoin="round"/>
<path d="M892.572 1120.73H570.643V1049.19H892.572V1120.73Z" fill="white"/>
<path d="M892.572 1120.73H570.643V1049.19H892.572V1120.73Z" stroke="#0626A9" stroke-width="2" stroke-linecap="round" stroke-linejoin="round"/>
<path d="M595.357 1097.17L619.77 1072.76" stroke="#0626A9" stroke-width="2" stroke-linecap="round" stroke-linejoin="round"/>
<path d="M619.77 1097.17L595.357 1072.76" stroke="#0626A9" stroke-width="2" stroke-linecap="round" stroke-linejoin="round"/>
<path d="M646.372 1097.17L670.785 1072.76" stroke="#0626A9" stroke-width="2" stroke-linecap="round" stroke-linejoin="round"/>
<path d="M670.785 1097.17L646.372 1072.76" stroke="#0626A9" stroke-width="2" stroke-linecap="round" stroke-linejoin="round"/>
<path d="M697.386 1097.17L721.799 1072.76" stroke="#0626A9" stroke-width="2" stroke-linecap="round" stroke-linejoin="round"/>
<path d="M721.799 1097.17L697.386 1072.76" stroke="#0626A9" stroke-width="2" stroke-linecap="round" stroke-linejoin="round"/>
<path d="M748.401 1097.17L772.814 1072.76" stroke="#0626A9" stroke-width="2" stroke-linecap="round" stroke-linejoin="round"/>
<path d="M772.814 1097.17L748.401 1072.76" stroke="#0626A9" stroke-width="2" stroke-linecap="round" stroke-linejoin="round"/>
<path d="M867.078 1084.96C867.078 1095.2 858.785 1103.49 848.555 1103.49C838.325 1103.49 830.033 1095.2 830.033 1084.96C830.033 1074.73 838.325 1066.44 848.555 1066.44C858.785 1066.44 867.078 1074.73 867.078 1084.96Z" fill="#8869D5"/>
<path d="M839.448 1083.32L847.149 1091.02L860.377 1077.79" stroke="#0626A9" stroke-width="2" stroke-linecap="round" stroke-linejoin="round"/>
</g>
<path d="M534.459 1246.65C534.459 1228.06 527.074 1210.23 513.929 1197.08C500.785 1183.94 482.957 1176.56 464.367 1176.56C445.778 1176.56 427.95 1183.94 414.806 1197.08C401.661 1210.23 394.276 1228.06 394.276 1246.65" stroke="#8869D5" stroke-width="16" stroke-linecap="round" stroke-linejoin="round"/>
<path d="M464.368 1176.56C490.175 1176.56 511.095 1155.63 511.095 1129.83C511.095 1104.03 490.175 1083.1 464.368 1083.1C438.56 1083.1 417.64 1104.03 417.64 1129.83C417.64 1155.63 438.56 1176.56 464.368 1176.56Z" stroke="#8869D5" stroke-width="16" stroke-linecap="round" stroke-linejoin="round"/>
<path d="M464.367 1270.01C528.884 1270.01 581.186 1217.71 581.186 1153.19C581.186 1088.68 528.884 1036.38 464.367 1036.38C399.851 1036.38 347.549 1088.68 347.549 1153.19C347.549 1217.71 399.851 1270.01 464.367 1270.01Z" stroke="#8869D5" stroke-width="16" stroke-linecap="round" stroke-linejoin="round"/>
<mask id="mask4_2_8735" style="mask-type:luminance" maskUnits="userSpaceOnUse" x="155" y="155" width="1290" height="1290">
<path d="M155 155H1444.03V1444.03H155V155Z" fill="white"/>
</mask>
<g mask="url(#mask4_2_8735)">
<path d="M1213.7 494.857C1213.7 545.499 1186.31 589.745 1145.52 613.568C1125.66 625.178 1102.63 631.945 1078.04 632.251C1077.46 632.259 1076.88 632.259 1076.29 632.259C1000.41 632.259 938.893 570.748 938.893 494.857C938.893 418.973 1000.41 357.454 1076.29 357.454C1152.19 357.454 1213.7 418.973 1213.7 494.857Z" fill="#84AAE4"/>
<path d="M1213.7 494.857C1213.7 545.499 1186.31 589.745 1145.52 613.568C1125.66 625.178 1102.63 631.945 1078.04 632.251C1077.46 632.259 1076.88 632.259 1076.29 632.259C1000.41 632.259 938.893 570.748 938.893 494.857C938.893 418.973 1000.41 357.454 1076.29 357.454C1152.19 357.454 1213.7 418.973 1213.7 494.857Z" stroke="#0626A9" stroke-width="2" stroke-linecap="round" stroke-linejoin="round"/>
<path d="M959.974 422.167H1192.62" stroke="#0626A9" stroke-width="2" stroke-linecap="round" stroke-linejoin="round"/>
<path d="M959.975 568.466H1192.62" stroke="#0626A9" stroke-width="2" stroke-linecap="round" stroke-linejoin="round"/>
<path d="M938.897 495.317H1213.67" stroke="#0626A9" stroke-width="2" stroke-linecap="round" stroke-linejoin="round"/>
<path d="M1076.3 357.457C1040.4 355.606 1004.87 419.011 1004.87 494.896C1004.87 570.781 1037.58 631.942 1076.3 632.262" stroke="#0626A9" stroke-width="2" stroke-linecap="round" stroke-linejoin="round"/>
<path d="M1076.3 357.457C1076.3 396.291 1076.17 418.852 1076.17 494.737C1076.17 570.622 1076.3 585.214 1076.3 632.262" stroke="#0626A9" stroke-width="2" stroke-linecap="round" stroke-linejoin="round"/>
<path d="M1076.3 357.457C1115.61 357.457 1147.47 418.974 1147.47 494.86C1147.47 570.745 1115.61 632.262 1076.3 632.262" stroke="#0626A9" stroke-width="2" stroke-linecap="round" stroke-linejoin="round"/>
<path d="M1076.3 357.457C1149.97 357.457 1213.94 418.852 1213.94 494.737C1213.94 570.622 1151.98 632.262 1076.3 632.262" stroke="#0626A9" stroke-width="2" stroke-linecap="round" stroke-linejoin="round"/>
</g>
<mask id="mask5_2_8735" style="mask-type:alpha" maskUnits="userSpaceOnUse" x="937" y="356" width="278" height="278">
<mask id="mask6_2_8735" style="mask-type:luminance" maskUnits="userSpaceOnUse" x="155" y="155" width="1290" height="1290">
<path d="M155 155H1444.03V1444.03H155V155Z" fill="white"/>
</mask>
<g mask="url(#mask6_2_8735)">
<path d="M1213.7 494.857C1213.7 545.499 1186.31 589.745 1145.52 613.568C1125.66 625.178 1102.63 631.945 1078.04 632.251C1077.46 632.259 1076.88 632.259 1076.29 632.259C1000.41 632.259 938.893 570.748 938.893 494.857C938.893 418.973 1000.41 357.454 1076.29 357.454C1152.19 357.454 1213.7 418.973 1213.7 494.857Z" fill="#8484FA"/>
<path d="M1213.7 494.857C1213.7 545.499 1186.31 589.745 1145.52 613.568C1125.66 625.178 1102.63 631.945 1078.04 632.251C1077.46 632.259 1076.88 632.259 1076.29 632.259C1000.41 632.259 938.893 570.748 938.893 494.857C938.893 418.973 1000.41 357.454 1076.29 357.454C1152.19 357.454 1213.7 418.973 1213.7 494.857Z" stroke="#202870" stroke-width="2" stroke-linecap="round" stroke-linejoin="round"/>
<path d="M959.974 422.167H1192.62" stroke="#202870" stroke-width="2" stroke-linecap="round" stroke-linejoin="round"/>
<path d="M959.975 568.466H1192.62" stroke="#202870" stroke-width="2" stroke-linecap="round" stroke-linejoin="round"/>
<path d="M938.897 495.317H1213.67" stroke="#202870" stroke-width="2" stroke-linecap="round" stroke-linejoin="round"/>
<path d="M1076.3 357.457C1040.4 355.606 1004.87 419.011 1004.87 494.896C1004.87 570.781 1037.58 631.942 1076.3 632.262" stroke="#202870" stroke-width="2" stroke-linecap="round" stroke-linejoin="round"/>
<path d="M1076.3 357.457C1076.3 396.291 1076.17 418.852 1076.17 494.737C1076.17 570.622 1076.3 585.214 1076.3 632.262" stroke="#202870" stroke-width="2" stroke-linecap="round" stroke-linejoin="round"/>
<path d="M1076.3 357.457C1115.61 357.457 1147.47 418.974 1147.47 494.86C1147.47 570.745 1115.61 632.262 1076.3 632.262" stroke="#202870" stroke-width="2" stroke-linecap="round" stroke-linejoin="round"/>
<path d="M1076.3 357.457C1149.97 357.457 1213.94 418.852 1213.94 494.737C1213.94 570.622 1151.98 632.262 1076.3 632.262" stroke="#202870" stroke-width="2" stroke-linecap="round" stroke-linejoin="round"/>
</g>
</mask>
<g mask="url(#mask5_2_8735)">
<path d="M1393.76 993.394C1373.9 1005 861.873 1026.73 837.285 1027.04L1115.94 544.588L1393.76 993.394Z" fill="#0626A9"/>
<path d="M1393.76 993.394C1373.9 1005 861.873 1026.73 837.285 1027.04L1115.94 544.588L1393.76 993.394Z" stroke="#0626A9" stroke-width="2" stroke-linecap="round" stroke-linejoin="round"/>
</g>
<path d="M1245.53 574.187C1245.53 613.641 1213.54 645.624 1174.09 645.624C1134.64 645.624 1102.66 613.641 1102.66 574.187C1102.66 534.734 1134.64 502.751 1174.09 502.751C1213.54 502.751 1245.53 534.734 1245.53 574.187Z" fill="#8869D5"/>
<path d="M1245.53 574.187C1245.53 613.641 1213.54 645.624 1174.09 645.624C1134.64 645.624 1102.66 613.641 1102.66 574.187C1102.66 534.734 1134.64 502.751 1174.09 502.751C1213.54 502.751 1245.53 534.734 1245.53 574.187Z" stroke="#0626A9" stroke-width="2" stroke-linecap="round" stroke-linejoin="round"/>
<path d="M1166.25 608.939L1130.86 573.544L1142.25 562.15L1166.25 586.151L1211.58 540.828L1222.97 552.222L1166.25 608.939Z" fill="white"/>
<path d="M1166.25 608.939L1130.86 573.544L1142.25 562.15L1166.25 586.151L1211.58 540.828L1222.97 552.222L1166.25 608.939Z" stroke="#0626A9" stroke-width="2" stroke-linecap="round" stroke-linejoin="round"/>
</g>
</g>
</svg>
