<svg xmlns="http://www.w3.org/2000/svg" xmlns:xlink="http://www.w3.org/1999/xlink" viewBox="0 0 1600 1600" width="1600" height="1600" preserveAspectRatio="xMidYMid meet" style="width: 100%; height: 100%; transform: translate3d(0px, 0px, 0px); content-visibility: visible;"><defs><clipPath id="__lottie_element_2"><rect width="1600" height="1600" x="0" y="0"></rect></clipPath><clipPath id="__lottie_element_11"><path d="M0,0 L1600,0 L1600,1600 L0,1600z"></path></clipPath><g id="__lottie_element_9"><g clip-path="url(#__lottie_element_56)" transform="matrix(1,0,0,1,0,0)" opacity="1" style="display: block;"><g transform="matrix(1,0,0,1,0,0)" opacity="1" style="display: block;"><g opacity="1" transform="matrix(1,0,0,1,1143.551025390625,421.843994140625)"><path fill="rgb(132,132,250)" fill-opacity="1" d=" M170.5500030517578,0 C170.5500030517578,62.86000061035156 136.5500030517578,117.77999877929688 85.93000030517578,147.35000610351562 C61.279998779296875,161.75999450683594 32.689998626708984,170.16000366210938 2.1700000762939453,170.5399932861328 C1.4500000476837158,170.5500030517578 0.7300000190734863,170.5500030517578 0,170.5500030517578 C-94.19000244140625,170.5500030517578 -170.5500030517578,94.19999694824219 -170.5500030517578,0 C-170.5500030517578,-94.19000244140625 -94.19000244140625,-170.5500030517578 0,-170.5500030517578 C94.19999694824219,-170.5500030517578 170.5500030517578,-94.19000244140625 170.5500030517578,0z"></path><path stroke-linecap="round" stroke-linejoin="round" fill-opacity="0" stroke="rgb(32,40,112)" stroke-opacity="1" stroke-width="2" d=" M170.5500030517578,0 C170.5500030517578,62.86000061035156 136.5500030517578,117.77999877929688 85.93000030517578,147.35000610351562 C61.279998779296875,161.75999450683594 32.689998626708984,170.16000366210938 2.1700000762939453,170.5399932861328 C1.4500000476837158,170.5500030517578 0.7300000190734863,170.5500030517578 0,170.5500030517578 C-94.19000244140625,170.5500030517578 -170.5500030517578,94.19999694824219 -170.5500030517578,0 C-170.5500030517578,-94.19000244140625 -94.19000244140625,-170.5500030517578 0,-170.5500030517578 C94.19999694824219,-170.5500030517578 170.5500030517578,-94.19000244140625 170.5500030517578,0z"></path></g><g opacity="1" transform="matrix(1,0,0,1,1143.5550537109375,331.6189880371094)"><path stroke-linecap="round" stroke-linejoin="round" fill-opacity="0" stroke="rgb(32,40,112)" stroke-opacity="1" stroke-width="2" d=" M-144.38699340820312,0 C-144.38699340820312,0 144.38699340820312,0 144.38699340820312,0"></path></g><g opacity="1" transform="matrix(1,0,0,1,1143.5560302734375,513.2119750976562)"><path stroke-linecap="round" stroke-linejoin="round" fill-opacity="0" stroke="rgb(32,40,112)" stroke-opacity="1" stroke-width="2" d=" M-144.38699340820312,0 C-144.38699340820312,0 144.38699340820312,0 144.38699340820312,0"></path></g><g opacity="1" transform="matrix(1,0,0,1,1143.5369873046875,422.4159851074219)"><path stroke-linecap="round" stroke-linejoin="round" fill-opacity="0" stroke="rgb(32,40,112)" stroke-opacity="1" stroke-width="2" d=" M-170.531005859375,0 C-170.531005859375,0 170.531005859375,0 170.531005859375,0"></path></g></g><g transform="matrix(1,0,0,1,1187.72705078125,421.8479919433594)" opacity="1" style="display: block;"><g opacity="1" transform="matrix(1,0,0,1,0,0)"><path stroke-linecap="round" stroke-linejoin="round" fill-opacity="0" stroke="rgb(32,40,112)" stroke-opacity="1" stroke-width="2" d=" M-44.17100143432617,-170.5500030517578 C-88.72699737548828,-172.84800720214844 -132.82899475097656,-94.14700317382812 -132.82899475097656,0.04500000178813934 C-132.82899475097656,94.23699951171875 -92.22699737548828,170.15199279785156 -44.17100143432617,170.5500030517578"></path></g></g><g transform="matrix(1,0,0,1,1187.72705078125,421.8479919433594)" opacity="1" style="display: block;"><g opacity="1" transform="matrix(1,0,0,1,0,0)"><path stroke-linecap="round" stroke-linejoin="round" fill-opacity="0" stroke="rgb(32,40,112)" stroke-opacity="1" stroke-width="2" d=" M-44.17100143432617,-170.5500030517578 C-44.17100143432617,-122.3479995727539 -44.32899856567383,-94.34400177001953 -44.32899856567383,-0.15199999511241913 C-44.32899856567383,94.04000091552734 -44.17100143432617,112.1520004272461 -44.17100143432617,170.5500030517578"></path></g></g><g transform="matrix(1,0,0,1,1187.72705078125,421.8479919433594)" opacity="1" style="display: block;"><g opacity="1" transform="matrix(1,0,0,1,0,0)"><path stroke-linecap="round" stroke-linejoin="round" fill-opacity="0" stroke="rgb(32,40,112)" stroke-opacity="1" stroke-width="2" d=" M-44.17100143432617,-170.5500030517578 C4.61899995803833,-170.5500030517578 44.17100143432617,-94.19200134277344 44.17100143432617,0 C44.17100143432617,94.19200134277344 4.61899995803833,170.5500030517578 -44.17100143432617,170.5500030517578"></path></g></g><g transform="matrix(1,0,0,1,1187.72705078125,421.8479919433594)" opacity="1" style="display: block;"><g opacity="1" transform="matrix(1,0,0,1,0,0)"><path stroke-linecap="round" stroke-linejoin="round" fill-opacity="0" stroke="rgb(32,40,112)" stroke-opacity="1" stroke-width="2" d=" M-44.17100143432617,-170.5500030517578 C47.27299880981445,-170.5500030517578 126.6709976196289,-94.34400177001953 126.6709976196289,-0.15199999511241913 C126.6709976196289,94.04000091552734 49.77299880981445,170.5500030517578 -44.17100143432617,170.5500030517578"></path></g></g><g style="display: none;"><g><path stroke-linecap="round" stroke-linejoin="round" fill-opacity="0"></path></g></g><g style="display: none;"><g><path stroke-linecap="round" stroke-linejoin="round" fill-opacity="0"></path></g></g><g style="display: none;"><g><path stroke-linecap="round" stroke-linejoin="round" fill-opacity="0"></path></g></g><g style="display: none;"><g><path stroke-linecap="round" stroke-linejoin="round" fill-opacity="0"></path></g></g><g style="display: none;"><g><path stroke-linecap="round" stroke-linejoin="round" fill-opacity="0"></path></g></g><g style="display: none;"><g><path stroke-linecap="round" stroke-linejoin="round" fill-opacity="0"></path></g></g><g style="display: none;"><g><path stroke-linecap="round" stroke-linejoin="round" fill-opacity="0"></path></g></g><g style="display: none;"><g><path stroke-linecap="round" stroke-linejoin="round" fill-opacity="0"></path></g></g><g style="display: none;"><g><path stroke-linecap="round" stroke-linejoin="round" fill-opacity="0"></path></g></g></g></g><clipPath id="__lottie_element_56"><path d="M0,0 L1600,0 L1600,1600 L0,1600z"></path></clipPath><mask id="__lottie_element_9_1" mask-type="alpha"><use xlink:href="#__lottie_element_9"></use></mask><clipPath id="__lottie_element_105"><path d="M0,0 L1600,0 L1600,1600 L0,1600z"></path></clipPath><g id="__lottie_element_131"><g clip-path="url(#__lottie_element_132)" style="display: none;"><g style="display: none;"><g><path></path><path stroke-linecap="round" stroke-linejoin="round" fill-opacity="0"></path></g></g><g style="display: none;"><g><path></path><path stroke-linecap="round" stroke-linejoin="round" fill-opacity="0"></path></g></g><g style="display: none;"><g><path stroke-linecap="round" stroke-linejoin="round" fill-opacity="0"></path></g><g><path stroke-linecap="round" stroke-linejoin="round" fill-opacity="0"></path></g></g><g style="display: none;"><g><path stroke-linecap="round" stroke-linejoin="round" fill-opacity="0"></path></g><g><path stroke-linecap="round" stroke-linejoin="round" fill-opacity="0"></path></g></g><g style="display: none;"><g><path stroke-linecap="round" stroke-linejoin="round" fill-opacity="0"></path></g><g><path stroke-linecap="round" stroke-linejoin="round" fill-opacity="0"></path></g></g><g style="display: none;"><g><path stroke-linecap="round" stroke-linejoin="round" fill-opacity="0"></path></g><g><path stroke-linecap="round" stroke-linejoin="round" fill-opacity="0"></path></g></g><g style="display: none;"><g><path></path></g></g><g style="display: none;"><g><path stroke-linecap="round" stroke-linejoin="round" fill-opacity="0"></path></g></g><g style="display: none;"><g><path></path><path stroke-linecap="round" stroke-linejoin="round" fill-opacity="0"></path></g></g><g style="display: none;"><g><path stroke-linecap="round" stroke-linejoin="round" fill-opacity="0"></path></g><g><path stroke-linecap="round" stroke-linejoin="round" fill-opacity="0"></path></g></g><g style="display: none;"><g><path stroke-linecap="round" stroke-linejoin="round" fill-opacity="0"></path></g><g><path stroke-linecap="round" stroke-linejoin="round" fill-opacity="0"></path></g></g><g style="display: none;"><g><path stroke-linecap="round" stroke-linejoin="round" fill-opacity="0"></path></g><g><path stroke-linecap="round" stroke-linejoin="round" fill-opacity="0"></path></g></g><g style="display: none;"><g><path stroke-linecap="round" stroke-linejoin="round" fill-opacity="0"></path></g><g><path stroke-linecap="round" stroke-linejoin="round" fill-opacity="0"></path></g></g><g style="display: none;"><g><path></path></g></g><g style="display: none;"><g><path stroke-linecap="round" stroke-linejoin="round" fill-opacity="0"></path></g></g><g style="display: none;"><g><path></path><path stroke-linecap="round" stroke-linejoin="round" fill-opacity="0"></path></g></g><g style="display: none;"><g><path stroke-linecap="round" stroke-linejoin="round" fill-opacity="0"></path></g><g><path stroke-linecap="round" stroke-linejoin="round" fill-opacity="0"></path></g></g><g style="display: none;"><g><path stroke-linecap="round" stroke-linejoin="round" fill-opacity="0"></path></g><g><path stroke-linecap="round" stroke-linejoin="round" fill-opacity="0"></path></g></g><g style="display: none;"><g><path stroke-linecap="round" stroke-linejoin="round" fill-opacity="0"></path></g><g><path stroke-linecap="round" stroke-linejoin="round" fill-opacity="0"></path></g></g><g style="display: none;"><g><path stroke-linecap="round" stroke-linejoin="round" fill-opacity="0"></path></g><g><path stroke-linecap="round" stroke-linejoin="round" fill-opacity="0"></path></g></g><g style="display: none;"><g><path></path></g></g><g style="display: none;"><g><path stroke-linecap="round" stroke-linejoin="round" fill-opacity="0"></path></g></g><g style="display: none;"><g><path></path><path stroke-linecap="round" stroke-linejoin="round" fill-opacity="0"></path></g></g><g style="display: none;"><g><path stroke-linecap="round" stroke-linejoin="round" fill-opacity="0"></path></g><g><path stroke-linecap="round" stroke-linejoin="round" fill-opacity="0"></path></g></g><g style="display: none;"><g><path stroke-linecap="round" stroke-linejoin="round" fill-opacity="0"></path></g><g><path stroke-linecap="round" stroke-linejoin="round" fill-opacity="0"></path></g></g><g style="display: none;"><g><path stroke-linecap="round" stroke-linejoin="round" fill-opacity="0"></path></g><g><path stroke-linecap="round" stroke-linejoin="round" fill-opacity="0"></path></g></g><g style="display: none;"><g><path stroke-linecap="round" stroke-linejoin="round" fill-opacity="0"></path></g><g><path stroke-linecap="round" stroke-linejoin="round" fill-opacity="0"></path></g></g><g style="display: none;"><g><path></path></g></g><g style="display: none;"><g><path stroke-linecap="round" stroke-linejoin="round" fill-opacity="0"></path></g></g></g></g><clipPath id="__lottie_element_132"><path d="M0,0 L1600,0 L1600,1600 L0,1600z"></path></clipPath><mask id="__lottie_element_131_1" mask-type="alpha"><use xlink:href="#__lottie_element_131"></use></mask><clipPath id="__lottie_element_226"><path d="M0,0 L1600,0 L1600,1600 L0,1600z"></path></clipPath><g id="__lottie_element_252"><g clip-path="url(#__lottie_element_253)" transform="matrix(1,0,0,1,0,0)" opacity="1" style="display: block;"><g transform="matrix(1,0,0,1,715.708984375,942.218994140625)" opacity="1" style="display: block;"><g opacity="1" transform="matrix(1,0,0,1,0,0)"><path fill="rgb(132,132,250)" fill-opacity="1" d=" M258.0989990234375,323.56201171875 C258.0989990234375,323.56201171875 -258.0989990234375,323.56201171875 -258.0989990234375,323.56201171875 C-258.0989990234375,323.56201171875 -258.0989990234375,-323.56201171875 -258.0989990234375,-323.56201171875 C-258.0989990234375,-323.56201171875 258.0989990234375,-323.56201171875 258.0989990234375,-323.56201171875 C258.0989990234375,-323.56201171875 258.0989990234375,323.56201171875 258.0989990234375,323.56201171875z"></path><path stroke-linecap="round" stroke-linejoin="round" fill-opacity="0" stroke="rgb(32,40,112)" stroke-opacity="1" stroke-width="2" d=" M258.0989990234375,323.56201171875 C258.0989990234375,323.56201171875 -258.0989990234375,323.56201171875 -258.0989990234375,323.56201171875 C-258.0989990234375,323.56201171875 -258.0989990234375,-323.56201171875 -258.0989990234375,-323.56201171875 C-258.0989990234375,-323.56201171875 258.0989990234375,-323.56201171875 258.0989990234375,-323.56201171875 C258.0989990234375,-323.56201171875 258.0989990234375,323.56201171875 258.0989990234375,323.56201171875z"></path></g></g><g transform="matrix(1,0,0,1,715.708984375,730.31201171875)" opacity="1" style="display: block;"><g opacity="1" transform="matrix(1,0,0,1,0,0)"><path fill="rgb(255,255,255)" fill-opacity="1" d=" M199.79600524902344,44.39899826049805 C199.79600524902344,44.39899826049805 -199.79600524902344,44.39899826049805 -199.79600524902344,44.39899826049805 C-199.79600524902344,44.39899826049805 -199.79600524902344,-44.39899826049805 -199.79600524902344,-44.39899826049805 C-199.79600524902344,-44.39899826049805 199.79600524902344,-44.39899826049805 199.79600524902344,-44.39899826049805 C199.79600524902344,-44.39899826049805 199.79600524902344,44.39899826049805 199.79600524902344,44.39899826049805z"></path><path stroke-linecap="round" stroke-linejoin="round" fill-opacity="0" stroke="rgb(32,40,112)" stroke-opacity="1" stroke-width="2" d=" M199.79600524902344,44.39899826049805 C199.79600524902344,44.39899826049805 -199.79600524902344,44.39899826049805 -199.79600524902344,44.39899826049805 C-199.79600524902344,44.39899826049805 -199.79600524902344,-44.39899826049805 -199.79600524902344,-44.39899826049805 C-199.79600524902344,-44.39899826049805 199.79600524902344,-44.39899826049805 199.79600524902344,-44.39899826049805 C199.79600524902344,-44.39899826049805 199.79600524902344,44.39899826049805 199.79600524902344,44.39899826049805z"></path></g></g><g transform="matrix(1,0,0,1,-0.00103759765625,0)" opacity="1" style="display: block;"><g opacity="1" transform="matrix(1,0,0,1,561.7420043945312,730.31201171875)"><path stroke-linecap="round" stroke-linejoin="round" fill-opacity="0" stroke="rgb(32,40,112)" stroke-opacity="1" stroke-width="2" d=" M-15.151000022888184,15.151000022888184 C-15.151000022888184,15.151000022888184 15.151000022888184,-15.151000022888184 15.151000022888184,-15.151000022888184"></path></g><g opacity="1" transform="matrix(1,0,0,1,561.7420043945312,730.31201171875)"><path stroke-linecap="round" stroke-linejoin="round" fill-opacity="0" stroke="rgb(32,40,112)" stroke-opacity="1" stroke-width="2" d=" M15.151000022888184,15.151000022888184 C15.151000022888184,15.151000022888184 -15.151000022888184,-15.151000022888184 -15.151000022888184,-15.151000022888184"></path></g></g><g transform="matrix(1,0,0,1,0,0)" opacity="1" style="display: block;"><g opacity="1" transform="matrix(1,0,0,1,625.06298828125,730.31201171875)"><path stroke-linecap="round" stroke-linejoin="round" fill-opacity="0" stroke="rgb(32,40,112)" stroke-opacity="1" stroke-width="2" d=" M-15.151000022888184,15.151000022888184 C-15.151000022888184,15.151000022888184 15.151000022888184,-15.151000022888184 15.151000022888184,-15.151000022888184"></path></g><g opacity="1" transform="matrix(1,0,0,1,625.06298828125,730.31201171875)"><path stroke-linecap="round" stroke-linejoin="round" fill-opacity="0" stroke="rgb(32,40,112)" stroke-opacity="1" stroke-width="2" d=" M15.151000022888184,15.151000022888184 C15.151000022888184,15.151000022888184 -15.151000022888184,-15.151000022888184 -15.151000022888184,-15.151000022888184"></path></g></g><g transform="matrix(1,0,0,1,0,0)" opacity="1" style="display: block;"><g opacity="1" transform="matrix(1,0,0,1,688.3839721679688,730.31201171875)"><path stroke-linecap="round" stroke-linejoin="round" fill-opacity="0" stroke="rgb(32,40,112)" stroke-opacity="1" stroke-width="2" d=" M-15.151000022888184,15.151000022888184 C-15.151000022888184,15.151000022888184 15.151000022888184,-15.151000022888184 15.151000022888184,-15.151000022888184"></path></g><g opacity="1" transform="matrix(1,0,0,1,688.3839721679688,730.31201171875)"><path stroke-linecap="round" stroke-linejoin="round" fill-opacity="0" stroke="rgb(32,40,112)" stroke-opacity="1" stroke-width="2" d=" M15.151000022888184,15.151000022888184 C15.151000022888184,15.151000022888184 -15.151000022888184,-15.151000022888184 -15.151000022888184,-15.151000022888184"></path></g></g><g transform="matrix(1,0,0,1,-0.00006103515625,0)" opacity="1" style="display: block;"><g opacity="1" transform="matrix(1,0,0,1,751.7050170898438,730.31201171875)"><path stroke-linecap="round" stroke-linejoin="round" fill-opacity="0" stroke="rgb(32,40,112)" stroke-opacity="1" stroke-width="2" d=" M-15.151000022888184,15.151000022888184 C-15.151000022888184,15.151000022888184 15.151000022888184,-15.151000022888184 15.151000022888184,-15.151000022888184"></path></g><g opacity="1" transform="matrix(1,0,0,1,751.7050170898438,730.31201171875)"><path stroke-linecap="round" stroke-linejoin="round" fill-opacity="0" stroke="rgb(32,40,112)" stroke-opacity="1" stroke-width="2" d=" M15.151000022888184,15.151000022888184 C15.151000022888184,15.151000022888184 -15.151000022888184,-15.151000022888184 -15.151000022888184,-15.151000022888184"></path></g></g><g transform="matrix(1,0,0,1,860.8699951171875,730.31201171875)" opacity="1" style="display: block;"><g opacity="1" transform="matrix(1,0,0,1,0,0)"><path fill="rgb(249,74,130)" fill-opacity="1" d=" M22.990999221801758,0 C22.990999221801758,12.697999954223633 12.697999954223633,22.990999221801758 0,22.990999221801758 C-12.697999954223633,22.990999221801758 -22.990999221801758,12.697999954223633 -22.990999221801758,0 C-22.990999221801758,-12.697999954223633 -12.697999954223633,-22.990999221801758 0,-22.990999221801758 C12.697999954223633,-22.990999221801758 22.990999221801758,-12.697999954223633 22.990999221801758,0z"></path></g></g><g transform="matrix(1,0,0,1,862.5549926757812,729.6190185546875)" opacity="1" style="display: block;"><g opacity="1" transform="matrix(1,0,0,1,0,0)"><path stroke-linecap="round" stroke-linejoin="round" fill-opacity="0" stroke="rgb(32,40,112)" stroke-opacity="1" stroke-width="2" d=" M-12.98900032043457,-1.3480000495910645 C-12.98900032043457,-1.3480000495910645 -3.430999994277954,8.210000038146973 -3.430999994277954,8.210000038146973 C-3.430999994277954,8.210000038146973 12.98900032043457,-8.210000038146973 12.98900032043457,-8.210000038146973"></path></g></g><g transform="matrix(1,0,0,1,715.708984375,872.31201171875)" opacity="1" style="display: block;"><g opacity="1" transform="matrix(1,0,0,1,0,0)"><path fill="rgb(255,255,255)" fill-opacity="1" d=" M199.79600524902344,44.39899826049805 C199.79600524902344,44.39899826049805 -199.79600524902344,44.39899826049805 -199.79600524902344,44.39899826049805 C-199.79600524902344,44.39899826049805 -199.79600524902344,-44.39899826049805 -199.79600524902344,-44.39899826049805 C-199.79600524902344,-44.39899826049805 199.79600524902344,-44.39899826049805 199.79600524902344,-44.39899826049805 C199.79600524902344,-44.39899826049805 199.79600524902344,44.39899826049805 199.79600524902344,44.39899826049805z"></path><path stroke-linecap="round" stroke-linejoin="round" fill-opacity="0" stroke="rgb(32,40,112)" stroke-opacity="1" stroke-width="2" d=" M199.79600524902344,44.39899826049805 C199.79600524902344,44.39899826049805 -199.79600524902344,44.39899826049805 -199.79600524902344,44.39899826049805 C-199.79600524902344,44.39899826049805 -199.79600524902344,-44.39899826049805 -199.79600524902344,-44.39899826049805 C-199.79600524902344,-44.39899826049805 199.79600524902344,-44.39899826049805 199.79600524902344,-44.39899826049805 C199.79600524902344,-44.39899826049805 199.79600524902344,44.39899826049805 199.79600524902344,44.39899826049805z"></path></g></g><g transform="matrix(1,0,0,1,-0.00103759765625,142)" opacity="1" style="display: block;"><g opacity="1" transform="matrix(1,0,0,1,561.7420043945312,730.31201171875)"><path stroke-linecap="round" stroke-linejoin="round" fill-opacity="0" stroke="rgb(32,40,112)" stroke-opacity="1" stroke-width="2" d=" M-15.151000022888184,15.151000022888184 C-15.151000022888184,15.151000022888184 15.151000022888184,-15.151000022888184 15.151000022888184,-15.151000022888184"></path></g><g opacity="1" transform="matrix(1,0,0,1,561.7420043945312,730.31201171875)"><path stroke-linecap="round" stroke-linejoin="round" fill-opacity="0" stroke="rgb(32,40,112)" stroke-opacity="1" stroke-width="2" d=" M15.151000022888184,15.151000022888184 C15.151000022888184,15.151000022888184 -15.151000022888184,-15.151000022888184 -15.151000022888184,-15.151000022888184"></path></g></g><g transform="matrix(1,0,0,1,0,142)" opacity="1" style="display: block;"><g opacity="1" transform="matrix(1,0,0,1,625.06298828125,730.31201171875)"><path stroke-linecap="round" stroke-linejoin="round" fill-opacity="0" stroke="rgb(32,40,112)" stroke-opacity="1" stroke-width="2" d=" M-15.151000022888184,15.151000022888184 C-15.151000022888184,15.151000022888184 15.151000022888184,-15.151000022888184 15.151000022888184,-15.151000022888184"></path></g><g opacity="1" transform="matrix(1,0,0,1,625.06298828125,730.31201171875)"><path stroke-linecap="round" stroke-linejoin="round" fill-opacity="0" stroke="rgb(32,40,112)" stroke-opacity="1" stroke-width="2" d=" M15.151000022888184,15.151000022888184 C15.151000022888184,15.151000022888184 -15.151000022888184,-15.151000022888184 -15.151000022888184,-15.151000022888184"></path></g></g><g transform="matrix(1,0,0,1,0,142)" opacity="1" style="display: block;"><g opacity="1" transform="matrix(1,0,0,1,688.3839721679688,730.31201171875)"><path stroke-linecap="round" stroke-linejoin="round" fill-opacity="0" stroke="rgb(32,40,112)" stroke-opacity="1" stroke-width="2" d=" M-15.151000022888184,15.151000022888184 C-15.151000022888184,15.151000022888184 15.151000022888184,-15.151000022888184 15.151000022888184,-15.151000022888184"></path></g><g opacity="1" transform="matrix(1,0,0,1,688.3839721679688,730.31201171875)"><path stroke-linecap="round" stroke-linejoin="round" fill-opacity="0" stroke="rgb(32,40,112)" stroke-opacity="1" stroke-width="2" d=" M15.151000022888184,15.151000022888184 C15.151000022888184,15.151000022888184 -15.151000022888184,-15.151000022888184 -15.151000022888184,-15.151000022888184"></path></g></g><g transform="matrix(1,0,0,1,-0.00006103515625,142)" opacity="1" style="display: block;"><g opacity="1" transform="matrix(1,0,0,1,751.7050170898438,730.31201171875)"><path stroke-linecap="round" stroke-linejoin="round" fill-opacity="0" stroke="rgb(32,40,112)" stroke-opacity="1" stroke-width="2" d=" M-15.151000022888184,15.151000022888184 C-15.151000022888184,15.151000022888184 15.151000022888184,-15.151000022888184 15.151000022888184,-15.151000022888184"></path></g><g opacity="1" transform="matrix(1,0,0,1,751.7050170898438,730.31201171875)"><path stroke-linecap="round" stroke-linejoin="round" fill-opacity="0" stroke="rgb(32,40,112)" stroke-opacity="1" stroke-width="2" d=" M15.151000022888184,15.151000022888184 C15.151000022888184,15.151000022888184 -15.151000022888184,-15.151000022888184 -15.151000022888184,-15.151000022888184"></path></g></g><g transform="matrix(1,0,0,1,860.8699951171875,872.31201171875)" opacity="1" style="display: block;"><g opacity="1" transform="matrix(1,0,0,1,0,0)"><path fill="rgb(249,74,130)" fill-opacity="1" d=" M22.990999221801758,0 C22.990999221801758,12.697999954223633 12.697999954223633,22.990999221801758 0,22.990999221801758 C-12.697999954223633,22.990999221801758 -22.990999221801758,12.697999954223633 -22.990999221801758,0 C-22.990999221801758,-12.697999954223633 -12.697999954223633,-22.990999221801758 0,-22.990999221801758 C12.697999954223633,-22.990999221801758 22.990999221801758,-12.697999954223633 22.990999221801758,0z"></path></g></g><g transform="matrix(1,0,0,1,862.5549926757812,871.6190185546875)" opacity="1" style="display: block;"><g opacity="1" transform="matrix(1,0,0,1,0,0)"><path stroke-linecap="round" stroke-linejoin="round" fill-opacity="0" stroke="rgb(32,40,112)" stroke-opacity="1" stroke-width="2" d=" M-12.98900032043457,-1.3480000495910645 C-12.98900032043457,-1.3480000495910645 -3.430999994277954,8.210000038146973 -3.430999994277954,8.210000038146973 C-3.430999994277954,8.210000038146973 12.98900032043457,-8.210000038146973 12.98900032043457,-8.210000038146973"></path></g></g><g transform="matrix(1,0,0,1,715.708984375,1012.31201171875)" opacity="1" style="display: block;"><g opacity="1" transform="matrix(1,0,0,1,0,0)"><path fill="rgb(255,255,255)" fill-opacity="1" d=" M199.79600524902344,44.39899826049805 C199.79600524902344,44.39899826049805 -199.79600524902344,44.39899826049805 -199.79600524902344,44.39899826049805 C-199.79600524902344,44.39899826049805 -199.79600524902344,-44.39899826049805 -199.79600524902344,-44.39899826049805 C-199.79600524902344,-44.39899826049805 199.79600524902344,-44.39899826049805 199.79600524902344,-44.39899826049805 C199.79600524902344,-44.39899826049805 199.79600524902344,44.39899826049805 199.79600524902344,44.39899826049805z"></path><path stroke-linecap="round" stroke-linejoin="round" fill-opacity="0" stroke="rgb(32,40,112)" stroke-opacity="1" stroke-width="2" d=" M199.79600524902344,44.39899826049805 C199.79600524902344,44.39899826049805 -199.79600524902344,44.39899826049805 -199.79600524902344,44.39899826049805 C-199.79600524902344,44.39899826049805 -199.79600524902344,-44.39899826049805 -199.79600524902344,-44.39899826049805 C-199.79600524902344,-44.39899826049805 199.79600524902344,-44.39899826049805 199.79600524902344,-44.39899826049805 C199.79600524902344,-44.39899826049805 199.79600524902344,44.39899826049805 199.79600524902344,44.39899826049805z"></path></g></g><g transform="matrix(1,0,0,1,-0.00103759765625,282)" opacity="1" style="display: block;"><g opacity="1" transform="matrix(1,0,0,1,561.7420043945312,730.31201171875)"><path stroke-linecap="round" stroke-linejoin="round" fill-opacity="0" stroke="rgb(32,40,112)" stroke-opacity="1" stroke-width="2" d=" M-15.151000022888184,15.151000022888184 C-15.151000022888184,15.151000022888184 15.151000022888184,-15.151000022888184 15.151000022888184,-15.151000022888184"></path></g><g opacity="1" transform="matrix(1,0,0,1,561.7420043945312,730.31201171875)"><path stroke-linecap="round" stroke-linejoin="round" fill-opacity="0" stroke="rgb(32,40,112)" stroke-opacity="1" stroke-width="2" d=" M15.151000022888184,15.151000022888184 C15.151000022888184,15.151000022888184 -15.151000022888184,-15.151000022888184 -15.151000022888184,-15.151000022888184"></path></g></g><g transform="matrix(1,0,0,1,0,282)" opacity="1" style="display: block;"><g opacity="1" transform="matrix(1,0,0,1,625.06298828125,730.31201171875)"><path stroke-linecap="round" stroke-linejoin="round" fill-opacity="0" stroke="rgb(32,40,112)" stroke-opacity="1" stroke-width="2" d=" M-15.151000022888184,15.151000022888184 C-15.151000022888184,15.151000022888184 15.151000022888184,-15.151000022888184 15.151000022888184,-15.151000022888184"></path></g><g opacity="1" transform="matrix(1,0,0,1,625.06298828125,730.31201171875)"><path stroke-linecap="round" stroke-linejoin="round" fill-opacity="0" stroke="rgb(32,40,112)" stroke-opacity="1" stroke-width="2" d=" M15.151000022888184,15.151000022888184 C15.151000022888184,15.151000022888184 -15.151000022888184,-15.151000022888184 -15.151000022888184,-15.151000022888184"></path></g></g><g transform="matrix(1,0,0,1,0,282)" opacity="1" style="display: block;"><g opacity="1" transform="matrix(1,0,0,1,688.3839721679688,730.31201171875)"><path stroke-linecap="round" stroke-linejoin="round" fill-opacity="0" stroke="rgb(32,40,112)" stroke-opacity="1" stroke-width="2" d=" M-15.151000022888184,15.151000022888184 C-15.151000022888184,15.151000022888184 15.151000022888184,-15.151000022888184 15.151000022888184,-15.151000022888184"></path></g><g opacity="1" transform="matrix(1,0,0,1,688.3839721679688,730.31201171875)"><path stroke-linecap="round" stroke-linejoin="round" fill-opacity="0" stroke="rgb(32,40,112)" stroke-opacity="1" stroke-width="2" d=" M15.151000022888184,15.151000022888184 C15.151000022888184,15.151000022888184 -15.151000022888184,-15.151000022888184 -15.151000022888184,-15.151000022888184"></path></g></g><g transform="matrix(1,0,0,1,-0.00006103515625,282)" opacity="1" style="display: block;"><g opacity="1" transform="matrix(1,0,0,1,751.7050170898438,730.31201171875)"><path stroke-linecap="round" stroke-linejoin="round" fill-opacity="0" stroke="rgb(32,40,112)" stroke-opacity="1" stroke-width="2" d=" M-15.151000022888184,15.151000022888184 C-15.151000022888184,15.151000022888184 15.151000022888184,-15.151000022888184 15.151000022888184,-15.151000022888184"></path></g><g opacity="1" transform="matrix(1,0,0,1,751.7050170898438,730.31201171875)"><path stroke-linecap="round" stroke-linejoin="round" fill-opacity="0" stroke="rgb(32,40,112)" stroke-opacity="1" stroke-width="2" d=" M15.151000022888184,15.151000022888184 C15.151000022888184,15.151000022888184 -15.151000022888184,-15.151000022888184 -15.151000022888184,-15.151000022888184"></path></g></g><g transform="matrix(1,0,0,1,860.8699951171875,1012.31201171875)" opacity="1" style="display: block;"><g opacity="1" transform="matrix(1,0,0,1,0,0)"><path fill="rgb(249,74,130)" fill-opacity="1" d=" M22.990999221801758,0 C22.990999221801758,12.697999954223633 12.697999954223633,22.990999221801758 0,22.990999221801758 C-12.697999954223633,22.990999221801758 -22.990999221801758,12.697999954223633 -22.990999221801758,0 C-22.990999221801758,-12.697999954223633 -12.697999954223633,-22.990999221801758 0,-22.990999221801758 C12.697999954223633,-22.990999221801758 22.990999221801758,-12.697999954223633 22.990999221801758,0z"></path></g></g><g transform="matrix(1,0,0,1,862.5549926757812,1011.6190185546875)" opacity="1" style="display: block;"><g opacity="1" transform="matrix(1,0,0,1,0,0)"><path stroke-linecap="round" stroke-linejoin="round" fill-opacity="0" stroke="rgb(32,40,112)" stroke-opacity="1" stroke-width="2" d=" M-12.98900032043457,-1.3480000495910645 C-12.98900032043457,-1.3480000495910645 -3.430999994277954,8.210000038146973 -3.430999994277954,8.210000038146973 C-3.430999994277954,8.210000038146973 12.98900032043457,-8.210000038146973 12.98900032043457,-8.210000038146973"></path></g></g><g transform="matrix(1,0,0,1,715.708984375,1154.31201171875)" opacity="1" style="display: block;"><g opacity="1" transform="matrix(1,0,0,1,0,0)"><path fill="rgb(255,255,255)" fill-opacity="1" d=" M199.79600524902344,44.39899826049805 C199.79600524902344,44.39899826049805 -199.79600524902344,44.39899826049805 -199.79600524902344,44.39899826049805 C-199.79600524902344,44.39899826049805 -199.79600524902344,-44.39899826049805 -199.79600524902344,-44.39899826049805 C-199.79600524902344,-44.39899826049805 199.79600524902344,-44.39899826049805 199.79600524902344,-44.39899826049805 C199.79600524902344,-44.39899826049805 199.79600524902344,44.39899826049805 199.79600524902344,44.39899826049805z"></path><path stroke-linecap="round" stroke-linejoin="round" fill-opacity="0" stroke="rgb(32,40,112)" stroke-opacity="1" stroke-width="2" d=" M199.79600524902344,44.39899826049805 C199.79600524902344,44.39899826049805 -199.79600524902344,44.39899826049805 -199.79600524902344,44.39899826049805 C-199.79600524902344,44.39899826049805 -199.79600524902344,-44.39899826049805 -199.79600524902344,-44.39899826049805 C-199.79600524902344,-44.39899826049805 199.79600524902344,-44.39899826049805 199.79600524902344,-44.39899826049805 C199.79600524902344,-44.39899826049805 199.79600524902344,44.39899826049805 199.79600524902344,44.39899826049805z"></path></g></g><g transform="matrix(1,0,0,1,-0.00103759765625,424)" opacity="1" style="display: block;"><g opacity="1" transform="matrix(1,0,0,1,561.7420043945312,730.31201171875)"><path stroke-linecap="round" stroke-linejoin="round" fill-opacity="0" stroke="rgb(32,40,112)" stroke-opacity="1" stroke-width="2" d=" M-15.151000022888184,15.151000022888184 C-15.151000022888184,15.151000022888184 15.151000022888184,-15.151000022888184 15.151000022888184,-15.151000022888184"></path></g><g opacity="1" transform="matrix(1,0,0,1,561.7420043945312,730.31201171875)"><path stroke-linecap="round" stroke-linejoin="round" fill-opacity="0" stroke="rgb(32,40,112)" stroke-opacity="1" stroke-width="2" d=" M15.151000022888184,15.151000022888184 C15.151000022888184,15.151000022888184 -15.151000022888184,-15.151000022888184 -15.151000022888184,-15.151000022888184"></path></g></g><g transform="matrix(1,0,0,1,0,424)" opacity="1" style="display: block;"><g opacity="1" transform="matrix(1,0,0,1,625.06298828125,730.31201171875)"><path stroke-linecap="round" stroke-linejoin="round" fill-opacity="0" stroke="rgb(32,40,112)" stroke-opacity="1" stroke-width="2" d=" M-15.151000022888184,15.151000022888184 C-15.151000022888184,15.151000022888184 15.151000022888184,-15.151000022888184 15.151000022888184,-15.151000022888184"></path></g><g opacity="1" transform="matrix(1,0,0,1,625.06298828125,730.31201171875)"><path stroke-linecap="round" stroke-linejoin="round" fill-opacity="0" stroke="rgb(32,40,112)" stroke-opacity="1" stroke-width="2" d=" M15.151000022888184,15.151000022888184 C15.151000022888184,15.151000022888184 -15.151000022888184,-15.151000022888184 -15.151000022888184,-15.151000022888184"></path></g></g><g transform="matrix(1,0,0,1,0,424)" opacity="1" style="display: block;"><g opacity="1" transform="matrix(1,0,0,1,688.3839721679688,730.31201171875)"><path stroke-linecap="round" stroke-linejoin="round" fill-opacity="0" stroke="rgb(32,40,112)" stroke-opacity="1" stroke-width="2" d=" M-15.151000022888184,15.151000022888184 C-15.151000022888184,15.151000022888184 15.151000022888184,-15.151000022888184 15.151000022888184,-15.151000022888184"></path></g><g opacity="1" transform="matrix(1,0,0,1,688.3839721679688,730.31201171875)"><path stroke-linecap="round" stroke-linejoin="round" fill-opacity="0" stroke="rgb(32,40,112)" stroke-opacity="1" stroke-width="2" d=" M15.151000022888184,15.151000022888184 C15.151000022888184,15.151000022888184 -15.151000022888184,-15.151000022888184 -15.151000022888184,-15.151000022888184"></path></g></g><g transform="matrix(1,0,0,1,-0.00006103515625,424)" opacity="1" style="display: block;"><g opacity="1" transform="matrix(1,0,0,1,751.7050170898438,730.31201171875)"><path stroke-linecap="round" stroke-linejoin="round" fill-opacity="0" stroke="rgb(32,40,112)" stroke-opacity="1" stroke-width="2" d=" M-15.151000022888184,15.151000022888184 C-15.151000022888184,15.151000022888184 15.151000022888184,-15.151000022888184 15.151000022888184,-15.151000022888184"></path></g><g opacity="1" transform="matrix(1,0,0,1,751.7050170898438,730.31201171875)"><path stroke-linecap="round" stroke-linejoin="round" fill-opacity="0" stroke="rgb(32,40,112)" stroke-opacity="1" stroke-width="2" d=" M15.151000022888184,15.151000022888184 C15.151000022888184,15.151000022888184 -15.151000022888184,-15.151000022888184 -15.151000022888184,-15.151000022888184"></path></g></g><g transform="matrix(1,0,0,1,860.8699951171875,1154.31201171875)" opacity="1" style="display: block;"><g opacity="1" transform="matrix(1,0,0,1,0,0)"><path fill="rgb(249,74,130)" fill-opacity="1" d=" M22.990999221801758,0 C22.990999221801758,12.697999954223633 12.697999954223633,22.990999221801758 0,22.990999221801758 C-12.697999954223633,22.990999221801758 -22.990999221801758,12.697999954223633 -22.990999221801758,0 C-22.990999221801758,-12.697999954223633 -12.697999954223633,-22.990999221801758 0,-22.990999221801758 C12.697999954223633,-22.990999221801758 22.990999221801758,-12.697999954223633 22.990999221801758,0z"></path></g></g><g transform="matrix(1,0,0,1,862.5549926757812,1153.6190185546875)" opacity="1" style="display: block;"><g opacity="1" transform="matrix(1,0,0,1,0,0)"><path stroke-linecap="round" stroke-linejoin="round" fill-opacity="0" stroke="rgb(32,40,112)" stroke-opacity="1" stroke-width="2" d=" M-12.98900032043457,-1.3480000495910645 C-12.98900032043457,-1.3480000495910645 -3.430999994277954,8.210000038146973 -3.430999994277954,8.210000038146973 C-3.430999994277954,8.210000038146973 12.98900032043457,-8.210000038146973 12.98900032043457,-8.210000038146973"></path></g></g></g></g><clipPath id="__lottie_element_253"><path d="M0,0 L1600,0 L1600,1600 L0,1600z"></path></clipPath><mask id="__lottie_element_252_1" mask-type="alpha"><use xlink:href="#__lottie_element_252"></use></mask><clipPath id="__lottie_element_347"><path d="M0,0 L1600,0 L1600,1600 L0,1600z"></path></clipPath><clipPath id="__lottie_element_438"><path d="M0,0 L1600,0 L1600,1600 L0,1600z"></path></clipPath></defs><g clip-path="url(#__lottie_element_2)"><g transform="matrix(1,0,0,1,0,0)" opacity="1" style="display: block;"><g opacity="1" transform="matrix(1,0,0,1,867.5650024414062,708.3809814453125)"><path fill="rgb(32,40,112)" fill-opacity="1" d=" M-257.65301513671875,-297.33099365234375 C-257.65301513671875,-297.33099365234375 257.65301513671875,-297.33099365234375 257.65301513671875,-297.33099365234375 C257.65301513671875,-297.33099365234375 257.65301513671875,297.33099365234375 257.65301513671875,297.33099365234375 C257.65301513671875,297.33099365234375 -257.65301513671875,297.33099365234375 -257.65301513671875,297.33099365234375 C-257.65301513671875,297.33099365234375 -257.65301513671875,-297.33099365234375 -257.65301513671875,-297.33099365234375z"></path><path stroke-linecap="round" stroke-linejoin="round" fill-opacity="0" stroke="rgb(32,40,112)" stroke-opacity="1" stroke-width="2" d=" M-257.65301513671875,-297.33099365234375 C-257.65301513671875,-297.33099365234375 257.65301513671875,-297.33099365234375 257.65301513671875,-297.33099365234375 C257.65301513671875,-297.33099365234375 257.65301513671875,297.33099365234375 257.65301513671875,297.33099365234375 C257.65301513671875,297.33099365234375 -257.65301513671875,297.33099365234375 -257.65301513671875,297.33099365234375 C-257.65301513671875,297.33099365234375 -257.65301513671875,-297.33099365234375 -257.65301513671875,-297.33099365234375z"></path></g><g opacity="1" transform="matrix(1,0,0,1,867.5650024414062,511.3380126953125)"><path fill="rgb(255,255,255)" fill-opacity="1" d=" M223.4759979248047,60.55799865722656 C223.4759979248047,60.55799865722656 -223.4759979248047,60.55799865722656 -223.4759979248047,60.55799865722656 C-223.4759979248047,60.55799865722656 -223.4759979248047,-60.55799865722656 -223.4759979248047,-60.55799865722656 C-223.4759979248047,-60.55799865722656 223.4759979248047,-60.55799865722656 223.4759979248047,-60.55799865722656 C223.4759979248047,-60.55799865722656 223.4759979248047,60.55799865722656 223.4759979248047,60.55799865722656z"></path><path stroke-linecap="round" stroke-linejoin="round" fill-opacity="0" stroke="rgb(32,40,112)" stroke-opacity="1" stroke-width="2" d=" M223.4759979248047,60.55799865722656 C223.4759979248047,60.55799865722656 -223.4759979248047,60.55799865722656 -223.4759979248047,60.55799865722656 C-223.4759979248047,60.55799865722656 -223.4759979248047,-60.55799865722656 -223.4759979248047,-60.55799865722656 C-223.4759979248047,-60.55799865722656 223.4759979248047,-60.55799865722656 223.4759979248047,-60.55799865722656 C223.4759979248047,-60.55799865722656 223.4759979248047,60.55799865722656 223.4759979248047,60.55799865722656z"></path></g></g><g clip-path="url(#__lottie_element_438)" transform="matrix(1,0,0,1,0,0)" opacity="1" style="display: block;"><g transform="matrix(1,0,0,1,561.7420043945312,475.8869934082031)" opacity="1" style="display: block;"><g opacity="1" transform="matrix(1,0,0,1,0,0)"><path stroke-linecap="round" stroke-linejoin="round" fill-opacity="0" stroke="rgb(32,40,112)" stroke-opacity="1" stroke-width="2" d=" M0,147.79200744628906 C0,147.79200744628906 0,-147.79200744628906 0,-147.79200744628906"></path></g></g><g transform="matrix(1,0,0,1,419.0870056152344,512.27099609375)" opacity="1" style="display: block;"><g opacity="1" transform="matrix(1,0,0,1,0,0)"><path stroke-linecap="round" stroke-linejoin="round" fill-opacity="0" stroke="rgb(32,40,112)" stroke-opacity="1" stroke-width="2" d=" M82.42900085449219,111.40799713134766 C82.42900085449219,111.40799713134766 82.42900085449219,-111.40799713134766 82.42900085449219,-111.40799713134766 C82.42900085449219,-111.40799713134766 -82.42900085449219,-111.40799713134766 -82.42900085449219,-111.40799713134766"></path></g></g><g transform="matrix(1,0,0,1,424.04998779296875,711.6179809570312)" opacity="1" style="display: block;"><g opacity="1" transform="matrix(1,0,0,1,0,0)"><path stroke-linecap="round" stroke-linejoin="round" fill-opacity="0" stroke="rgb(32,40,112)" stroke-opacity="1" stroke-width="2" d=" M59.9119987487793,77.99600219726562 C59.9119987487793,77.99600219726562 -59.9119987487793,77.99600219726562 -59.9119987487793,77.99600219726562 C-59.9119987487793,77.99600219726562 -59.9119987487793,-77.99600219726562 -59.9119987487793,-77.99600219726562"></path></g></g><g transform="matrix(1,0,0,1,343.07501220703125,699.468994140625)" opacity="1" style="display: block;"><g opacity="1" transform="matrix(1,0,0,1,0,0)"><path stroke-linecap="round" stroke-linejoin="round" fill-opacity="0" stroke="rgb(32,40,112)" stroke-opacity="1" stroke-width="2" d=" M126.19599914550781,149.12399291992188 C126.19599914550781,149.12399291992188 -126.19599914550781,149.12399291992188 -126.19599914550781,149.12399291992188 C-126.19599914550781,149.12399291992188 -126.19599914550781,-149.12399291992188 -126.19599914550781,-149.12399291992188"></path></g></g><g transform="matrix(1,0,0,1,375.7019958496094,941.60400390625)" opacity="1" style="display: block;"><g opacity="1" transform="matrix(1,0,0,1,0,0)"><path stroke-linecap="round" stroke-linejoin="round" fill-opacity="0" stroke="rgb(32,40,112)" stroke-opacity="1" stroke-width="2" d=" M93.56900024414062,-47.02899932861328 C93.56900024414062,-47.02899932861328 -93.56900024414062,-47.02899932861328 -93.56900024414062,-47.02899932861328 C-93.56900024414062,-47.02899932861328 -93.56900024414062,47.02899932861328 -93.56900024414062,47.02899932861328"></path></g></g><g transform="matrix(1,0,0,1,1077.780029296875,985.1790161132812)" opacity="1" style="display: block;"><g opacity="1" transform="matrix(1,0,0,1,0,0)"><path stroke-linecap="round" stroke-linejoin="round" fill-opacity="0" stroke="rgb(32,40,112)" stroke-opacity="1" stroke-width="2" d=" M-122.56400299072266,100.31300354003906 C-122.56400299072266,100.31300354003906 122.56400299072266,100.31300354003906 122.56400299072266,100.31300354003906 C122.56400299072266,100.31300354003906 122.56400299072266,-100.31300354003906 122.56400299072266,-100.31300354003906"></path></g></g><g transform="matrix(1,0,0,1,1163.508056640625,979.6890258789062)" opacity="1" style="display: block;"><g opacity="1" transform="matrix(1,0,0,1,0,0)"><path stroke-linecap="round" stroke-linejoin="round" fill-opacity="0" stroke="rgb(32,40,112)" stroke-opacity="1" stroke-width="2" d=" M-202.36599731445312,181.95399475097656 C-202.36599731445312,181.95399475097656 101.43499755859375,181.95399475097656 101.43499755859375,181.95399475097656 C101.43499755859375,181.95399475097656 101.43499755859375,-181.95399475097656 101.43499755859375,-181.95399475097656 C101.43499755859375,-181.95399475097656 202.36599731445312,-181.95399475097656 202.36599731445312,-181.95399475097656"></path></g></g><g style="display: none;"><g><path stroke-linecap="round" stroke-linejoin="round" fill-opacity="0"></path></g></g><g style="display: none;"><g><path stroke-linecap="round" stroke-linejoin="round" fill-opacity="0"></path></g></g><g style="display: none;"><g><path stroke-linecap="round" stroke-linejoin="round" fill-opacity="0"></path></g></g><g style="display: none;"><g><path stroke-linecap="round" stroke-linejoin="round" fill-opacity="0"></path></g></g><g style="display: none;"><g><path stroke-linecap="round" stroke-linejoin="round" fill-opacity="0"></path></g></g><g style="display: none;"><g><path stroke-linecap="round" stroke-linejoin="round" fill-opacity="0"></path></g></g><g style="display: none;"><g><path stroke-linecap="round" stroke-linejoin="round" fill-opacity="0"></path></g></g><g transform="matrix(1,0,0,1,561.7420043945312,311.6050109863281)" opacity="1" style="display: block;"><g opacity="1" transform="matrix(1,0,0,1,0,0)"><path fill="rgb(132,132,250)" fill-opacity="1" d=" M16.70400047302246,0 C16.70400047302246,9.22599983215332 9.22599983215332,16.70400047302246 0,16.70400047302246 C-9.22599983215332,16.70400047302246 -16.70400047302246,9.22599983215332 -16.70400047302246,0 C-16.70400047302246,-9.22599983215332 -9.22599983215332,-16.70400047302246 0,-16.70400047302246 C9.22599983215332,-16.70400047302246 16.70400047302246,-9.22599983215332 16.70400047302246,0z"></path><path stroke-linecap="round" stroke-linejoin="round" fill-opacity="0" stroke="rgb(32,40,112)" stroke-opacity="1" stroke-width="2" d=" M16.70400047302246,0 C16.70400047302246,9.22599983215332 9.22599983215332,16.70400047302246 0,16.70400047302246 C-9.22599983215332,16.70400047302246 -16.70400047302246,9.22599983215332 -16.70400047302246,0 C-16.70400047302246,-9.22599983215332 -9.22599983215332,-16.70400047302246 0,-16.70400047302246 C9.22599983215332,-16.70400047302246 16.70400047302246,-9.22599983215332 16.70400047302246,0z"></path></g></g><g transform="matrix(1,0,0,1,320.2030029296875,400.864013671875)" opacity="1" style="display: block;"><g opacity="1" transform="matrix(1,0,0,1,0,0)"><path fill="rgb(249,74,130)" fill-opacity="1" d=" M16.70400047302246,0 C16.70400047302246,9.22599983215332 9.22599983215332,16.70400047302246 0,16.70400047302246 C-9.22599983215332,16.70400047302246 -16.70400047302246,9.22599983215332 -16.70400047302246,0 C-16.70400047302246,-9.22599983215332 -9.22599983215332,-16.70400047302246 0,-16.70400047302246 C9.22599983215332,-16.70400047302246 16.70400047302246,-9.22599983215332 16.70400047302246,0z"></path><path stroke-linecap="round" stroke-linejoin="round" fill-opacity="0" stroke="rgb(32,40,112)" stroke-opacity="1" stroke-width="2" d=" M16.70400047302246,0 C16.70400047302246,9.22599983215332 9.22599983215332,16.70400047302246 0,16.70400047302246 C-9.22599983215332,16.70400047302246 -16.70400047302246,9.22599983215332 -16.70400047302246,0 C-16.70400047302246,-9.22599983215332 -9.22599983215332,-16.70400047302246 0,-16.70400047302246 C9.22599983215332,-16.70400047302246 16.70400047302246,-9.22599983215332 16.70400047302246,0z"></path></g></g><g transform="matrix(1,0,0,1,364.1369934082031,618.656982421875)" opacity="1" style="display: block;"><g opacity="1" transform="matrix(1,0,0,1,0,0)"><path fill="rgb(132,132,250)" fill-opacity="1" d=" M16.70400047302246,0 C16.70400047302246,9.22599983215332 9.22599983215332,16.70400047302246 0,16.70400047302246 C-9.22599983215332,16.70400047302246 -16.70400047302246,9.22599983215332 -16.70400047302246,0 C-16.70400047302246,-9.22599983215332 -9.22599983215332,-16.70400047302246 0,-16.70400047302246 C9.22599983215332,-16.70400047302246 16.70400047302246,-9.22599983215332 16.70400047302246,0z"></path><path stroke-linecap="round" stroke-linejoin="round" fill-opacity="0" stroke="rgb(32,40,112)" stroke-opacity="1" stroke-width="2" d=" M16.70400047302246,0 C16.70400047302246,9.22599983215332 9.22599983215332,16.70400047302246 0,16.70400047302246 C-9.22599983215332,16.70400047302246 -16.70400047302246,9.22599983215332 -16.70400047302246,0 C-16.70400047302246,-9.22599983215332 -9.22599983215332,-16.70400047302246 0,-16.70400047302246 C9.22599983215332,-16.70400047302246 16.70400047302246,-9.22599983215332 16.70400047302246,0z"></path></g></g><g transform="matrix(1,0,0,1,216.87899780273438,532.635986328125)" opacity="1" style="display: block;"><g opacity="1" transform="matrix(1,0,0,1,0,0)"><path fill="rgb(132,132,250)" fill-opacity="1" d=" M16.70400047302246,0 C16.70400047302246,9.22599983215332 9.22599983215332,16.70400047302246 0,16.70400047302246 C-9.22599983215332,16.70400047302246 -16.70400047302246,9.22599983215332 -16.70400047302246,0 C-16.70400047302246,-9.22599983215332 -9.22599983215332,-16.70400047302246 0,-16.70400047302246 C9.22599983215332,-16.70400047302246 16.70400047302246,-9.22599983215332 16.70400047302246,0z"></path><path stroke-linecap="round" stroke-linejoin="round" fill-opacity="0" stroke="rgb(32,40,112)" stroke-opacity="1" stroke-width="2" d=" M16.70400047302246,0 C16.70400047302246,9.22599983215332 9.22599983215332,16.70400047302246 0,16.70400047302246 C-9.22599983215332,16.70400047302246 -16.70400047302246,9.22599983215332 -16.70400047302246,0 C-16.70400047302246,-9.22599983215332 -9.22599983215332,-16.70400047302246 0,-16.70400047302246 C9.22599983215332,-16.70400047302246 16.70400047302246,-9.22599983215332 16.70400047302246,0z"></path></g></g><g transform="matrix(1,0,0,1,282.07598876953125,1005.3369750976562)" opacity="1" style="display: block;"><g opacity="1" transform="matrix(1,0,0,1,0,0)"><path fill="rgb(132,132,250)" fill-opacity="1" d=" M16.70400047302246,0 C16.70400047302246,9.22599983215332 9.22599983215332,16.70400047302246 0,16.70400047302246 C-9.22599983215332,16.70400047302246 -16.70400047302246,9.22599983215332 -16.70400047302246,0 C-16.70400047302246,-9.22599983215332 -9.22599983215332,-16.70400047302246 0,-16.70400047302246 C9.22599983215332,-16.70400047302246 16.70400047302246,-9.22599983215332 16.70400047302246,0z"></path><path stroke-linecap="round" stroke-linejoin="round" fill-opacity="0" stroke="rgb(32,40,112)" stroke-opacity="1" stroke-width="2" d=" M16.70400047302246,0 C16.70400047302246,9.22599983215332 9.22599983215332,16.70400047302246 0,16.70400047302246 C-9.22599983215332,16.70400047302246 -16.70400047302246,9.22599983215332 -16.70400047302246,0 C-16.70400047302246,-9.22599983215332 -9.22599983215332,-16.70400047302246 0,-16.70400047302246 C9.22599983215332,-16.70400047302246 16.70400047302246,-9.22599983215332 16.70400047302246,0z"></path></g></g><g transform="matrix(1,0,0,1,1200.343994140625,868.1619873046875)" opacity="1" style="display: block;"><g opacity="1" transform="matrix(1,0,0,1,0,0)"><path fill="rgb(132,132,250)" fill-opacity="1" d=" M16.70400047302246,0 C16.70400047302246,9.22599983215332 9.22599983215332,16.70400047302246 0,16.70400047302246 C-9.22599983215332,16.70400047302246 -16.70400047302246,9.22599983215332 -16.70400047302246,0 C-16.70400047302246,-9.22599983215332 -9.22599983215332,-16.70400047302246 0,-16.70400047302246 C9.22599983215332,-16.70400047302246 16.70400047302246,-9.22599983215332 16.70400047302246,0z"></path><path stroke-linecap="round" stroke-linejoin="round" fill-opacity="0" stroke="rgb(32,40,112)" stroke-opacity="1" stroke-width="2" d=" M16.70400047302246,0 C16.70400047302246,9.22599983215332 9.22599983215332,16.70400047302246 0,16.70400047302246 C-9.22599983215332,16.70400047302246 -16.70400047302246,9.22599983215332 -16.70400047302246,0 C-16.70400047302246,-9.22599983215332 -9.22599983215332,-16.70400047302246 0,-16.70400047302246 C9.22599983215332,-16.70400047302246 16.70400047302246,-9.22599983215332 16.70400047302246,0z"></path></g></g><g transform="matrix(1,0,0,1,1383.1209716796875,797.7360229492188)" opacity="1" style="display: block;"><g opacity="1" transform="matrix(1,0,0,1,0,0)"><path fill="rgb(249,74,130)" fill-opacity="1" d=" M16.70400047302246,0 C16.70400047302246,9.22599983215332 9.22599983215332,16.70400047302246 0,16.70400047302246 C-9.22599983215332,16.70400047302246 -16.70400047302246,9.22599983215332 -16.70400047302246,0 C-16.70400047302246,-9.22599983215332 -9.22599983215332,-16.70400047302246 0,-16.70400047302246 C9.22599983215332,-16.70400047302246 16.70400047302246,-9.22599983215332 16.70400047302246,0z"></path><path stroke-linecap="round" stroke-linejoin="round" fill-opacity="0" stroke="rgb(32,40,112)" stroke-opacity="1" stroke-width="2" d=" M16.70400047302246,0 C16.70400047302246,9.22599983215332 9.22599983215332,16.70400047302246 0,16.70400047302246 C-9.22599983215332,16.70400047302246 -16.70400047302246,9.22599983215332 -16.70400047302246,0 C-16.70400047302246,-9.22599983215332 -9.22599983215332,-16.70400047302246 0,-16.70400047302246 C9.22599983215332,-16.70400047302246 16.70400047302246,-9.22599983215332 16.70400047302246,0z"></path></g></g></g><g clip-path="url(#__lottie_element_347)" transform="matrix(1,0,0,1,0,0)" opacity="1" style="display: block;"><g transform="matrix(1,0,0,1,715.708984375,942.218994140625)" opacity="1" style="display: block;"><g opacity="1" transform="matrix(1,0,0,1,0,0)"><path fill="rgb(132,132,250)" fill-opacity="1" d=" M258.0989990234375,323.56201171875 C258.0989990234375,323.56201171875 -258.0989990234375,323.56201171875 -258.0989990234375,323.56201171875 C-258.0989990234375,323.56201171875 -258.0989990234375,-323.56201171875 -258.0989990234375,-323.56201171875 C-258.0989990234375,-323.56201171875 258.0989990234375,-323.56201171875 258.0989990234375,-323.56201171875 C258.0989990234375,-323.56201171875 258.0989990234375,323.56201171875 258.0989990234375,323.56201171875z"></path><path stroke-linecap="round" stroke-linejoin="round" fill-opacity="0" stroke="rgb(32,40,112)" stroke-opacity="1" stroke-width="2" d=" M258.0989990234375,323.56201171875 C258.0989990234375,323.56201171875 -258.0989990234375,323.56201171875 -258.0989990234375,323.56201171875 C-258.0989990234375,323.56201171875 -258.0989990234375,-323.56201171875 -258.0989990234375,-323.56201171875 C-258.0989990234375,-323.56201171875 258.0989990234375,-323.56201171875 258.0989990234375,-323.56201171875 C258.0989990234375,-323.56201171875 258.0989990234375,323.56201171875 258.0989990234375,323.56201171875z"></path></g></g><g transform="matrix(1,0,0,1,715.708984375,730.31201171875)" opacity="1" style="display: block;"><g opacity="1" transform="matrix(1,0,0,1,0,0)"><path fill="rgb(255,255,255)" fill-opacity="1" d=" M199.79600524902344,44.39899826049805 C199.79600524902344,44.39899826049805 -199.79600524902344,44.39899826049805 -199.79600524902344,44.39899826049805 C-199.79600524902344,44.39899826049805 -199.79600524902344,-44.39899826049805 -199.79600524902344,-44.39899826049805 C-199.79600524902344,-44.39899826049805 199.79600524902344,-44.39899826049805 199.79600524902344,-44.39899826049805 C199.79600524902344,-44.39899826049805 199.79600524902344,44.39899826049805 199.79600524902344,44.39899826049805z"></path><path stroke-linecap="round" stroke-linejoin="round" fill-opacity="0" stroke="rgb(32,40,112)" stroke-opacity="1" stroke-width="2" d=" M199.79600524902344,44.39899826049805 C199.79600524902344,44.39899826049805 -199.79600524902344,44.39899826049805 -199.79600524902344,44.39899826049805 C-199.79600524902344,44.39899826049805 -199.79600524902344,-44.39899826049805 -199.79600524902344,-44.39899826049805 C-199.79600524902344,-44.39899826049805 199.79600524902344,-44.39899826049805 199.79600524902344,-44.39899826049805 C199.79600524902344,-44.39899826049805 199.79600524902344,44.39899826049805 199.79600524902344,44.39899826049805z"></path></g></g><g transform="matrix(1,0,0,1,-0.00103759765625,0)" opacity="1" style="display: block;"><g opacity="1" transform="matrix(1,0,0,1,561.7420043945312,730.31201171875)"><path stroke-linecap="round" stroke-linejoin="round" fill-opacity="0" stroke="rgb(32,40,112)" stroke-opacity="1" stroke-width="2" d=" M-15.151000022888184,15.151000022888184 C-15.151000022888184,15.151000022888184 15.151000022888184,-15.151000022888184 15.151000022888184,-15.151000022888184"></path></g><g opacity="1" transform="matrix(1,0,0,1,561.7420043945312,730.31201171875)"><path stroke-linecap="round" stroke-linejoin="round" fill-opacity="0" stroke="rgb(32,40,112)" stroke-opacity="1" stroke-width="2" d=" M15.151000022888184,15.151000022888184 C15.151000022888184,15.151000022888184 -15.151000022888184,-15.151000022888184 -15.151000022888184,-15.151000022888184"></path></g></g><g transform="matrix(1,0,0,1,0,0)" opacity="1" style="display: block;"><g opacity="1" transform="matrix(1,0,0,1,625.06298828125,730.31201171875)"><path stroke-linecap="round" stroke-linejoin="round" fill-opacity="0" stroke="rgb(32,40,112)" stroke-opacity="1" stroke-width="2" d=" M-15.151000022888184,15.151000022888184 C-15.151000022888184,15.151000022888184 15.151000022888184,-15.151000022888184 15.151000022888184,-15.151000022888184"></path></g><g opacity="1" transform="matrix(1,0,0,1,625.06298828125,730.31201171875)"><path stroke-linecap="round" stroke-linejoin="round" fill-opacity="0" stroke="rgb(32,40,112)" stroke-opacity="1" stroke-width="2" d=" M15.151000022888184,15.151000022888184 C15.151000022888184,15.151000022888184 -15.151000022888184,-15.151000022888184 -15.151000022888184,-15.151000022888184"></path></g></g><g transform="matrix(1,0,0,1,0,0)" opacity="1" style="display: block;"><g opacity="1" transform="matrix(1,0,0,1,688.3839721679688,730.31201171875)"><path stroke-linecap="round" stroke-linejoin="round" fill-opacity="0" stroke="rgb(32,40,112)" stroke-opacity="1" stroke-width="2" d=" M-15.151000022888184,15.151000022888184 C-15.151000022888184,15.151000022888184 15.151000022888184,-15.151000022888184 15.151000022888184,-15.151000022888184"></path></g><g opacity="1" transform="matrix(1,0,0,1,688.3839721679688,730.31201171875)"><path stroke-linecap="round" stroke-linejoin="round" fill-opacity="0" stroke="rgb(32,40,112)" stroke-opacity="1" stroke-width="2" d=" M15.151000022888184,15.151000022888184 C15.151000022888184,15.151000022888184 -15.151000022888184,-15.151000022888184 -15.151000022888184,-15.151000022888184"></path></g></g><g transform="matrix(1,0,0,1,-0.00006103515625,0)" opacity="1" style="display: block;"><g opacity="1" transform="matrix(1,0,0,1,751.7050170898438,730.31201171875)"><path stroke-linecap="round" stroke-linejoin="round" fill-opacity="0" stroke="rgb(32,40,112)" stroke-opacity="1" stroke-width="2" d=" M-15.151000022888184,15.151000022888184 C-15.151000022888184,15.151000022888184 15.151000022888184,-15.151000022888184 15.151000022888184,-15.151000022888184"></path></g><g opacity="1" transform="matrix(1,0,0,1,751.7050170898438,730.31201171875)"><path stroke-linecap="round" stroke-linejoin="round" fill-opacity="0" stroke="rgb(32,40,112)" stroke-opacity="1" stroke-width="2" d=" M15.151000022888184,15.151000022888184 C15.151000022888184,15.151000022888184 -15.151000022888184,-15.151000022888184 -15.151000022888184,-15.151000022888184"></path></g></g><g transform="matrix(1,0,0,1,860.8699951171875,730.31201171875)" opacity="1" style="display: block;"><g opacity="1" transform="matrix(1,0,0,1,0,0)"><path fill="rgb(249,74,130)" fill-opacity="1" d=" M22.990999221801758,0 C22.990999221801758,12.697999954223633 12.697999954223633,22.990999221801758 0,22.990999221801758 C-12.697999954223633,22.990999221801758 -22.990999221801758,12.697999954223633 -22.990999221801758,0 C-22.990999221801758,-12.697999954223633 -12.697999954223633,-22.990999221801758 0,-22.990999221801758 C12.697999954223633,-22.990999221801758 22.990999221801758,-12.697999954223633 22.990999221801758,0z"></path></g></g><g transform="matrix(1,0,0,1,862.5549926757812,729.6190185546875)" opacity="1" style="display: block;"><g opacity="1" transform="matrix(1,0,0,1,0,0)"><path stroke-linecap="round" stroke-linejoin="round" fill-opacity="0" stroke="rgb(32,40,112)" stroke-opacity="1" stroke-width="2" d=" M-12.98900032043457,-1.3480000495910645 C-12.98900032043457,-1.3480000495910645 -3.430999994277954,8.210000038146973 -3.430999994277954,8.210000038146973 C-3.430999994277954,8.210000038146973 12.98900032043457,-8.210000038146973 12.98900032043457,-8.210000038146973"></path></g></g><g transform="matrix(1,0,0,1,715.708984375,872.31201171875)" opacity="1" style="display: block;"><g opacity="1" transform="matrix(1,0,0,1,0,0)"><path fill="rgb(255,255,255)" fill-opacity="1" d=" M199.79600524902344,44.39899826049805 C199.79600524902344,44.39899826049805 -199.79600524902344,44.39899826049805 -199.79600524902344,44.39899826049805 C-199.79600524902344,44.39899826049805 -199.79600524902344,-44.39899826049805 -199.79600524902344,-44.39899826049805 C-199.79600524902344,-44.39899826049805 199.79600524902344,-44.39899826049805 199.79600524902344,-44.39899826049805 C199.79600524902344,-44.39899826049805 199.79600524902344,44.39899826049805 199.79600524902344,44.39899826049805z"></path><path stroke-linecap="round" stroke-linejoin="round" fill-opacity="0" stroke="rgb(32,40,112)" stroke-opacity="1" stroke-width="2" d=" M199.79600524902344,44.39899826049805 C199.79600524902344,44.39899826049805 -199.79600524902344,44.39899826049805 -199.79600524902344,44.39899826049805 C-199.79600524902344,44.39899826049805 -199.79600524902344,-44.39899826049805 -199.79600524902344,-44.39899826049805 C-199.79600524902344,-44.39899826049805 199.79600524902344,-44.39899826049805 199.79600524902344,-44.39899826049805 C199.79600524902344,-44.39899826049805 199.79600524902344,44.39899826049805 199.79600524902344,44.39899826049805z"></path></g></g><g transform="matrix(1,0,0,1,-0.00103759765625,142)" opacity="1" style="display: block;"><g opacity="1" transform="matrix(1,0,0,1,561.7420043945312,730.31201171875)"><path stroke-linecap="round" stroke-linejoin="round" fill-opacity="0" stroke="rgb(32,40,112)" stroke-opacity="1" stroke-width="2" d=" M-15.151000022888184,15.151000022888184 C-15.151000022888184,15.151000022888184 15.151000022888184,-15.151000022888184 15.151000022888184,-15.151000022888184"></path></g><g opacity="1" transform="matrix(1,0,0,1,561.7420043945312,730.31201171875)"><path stroke-linecap="round" stroke-linejoin="round" fill-opacity="0" stroke="rgb(32,40,112)" stroke-opacity="1" stroke-width="2" d=" M15.151000022888184,15.151000022888184 C15.151000022888184,15.151000022888184 -15.151000022888184,-15.151000022888184 -15.151000022888184,-15.151000022888184"></path></g></g><g transform="matrix(1,0,0,1,0,142)" opacity="1" style="display: block;"><g opacity="1" transform="matrix(1,0,0,1,625.06298828125,730.31201171875)"><path stroke-linecap="round" stroke-linejoin="round" fill-opacity="0" stroke="rgb(32,40,112)" stroke-opacity="1" stroke-width="2" d=" M-15.151000022888184,15.151000022888184 C-15.151000022888184,15.151000022888184 15.151000022888184,-15.151000022888184 15.151000022888184,-15.151000022888184"></path></g><g opacity="1" transform="matrix(1,0,0,1,625.06298828125,730.31201171875)"><path stroke-linecap="round" stroke-linejoin="round" fill-opacity="0" stroke="rgb(32,40,112)" stroke-opacity="1" stroke-width="2" d=" M15.151000022888184,15.151000022888184 C15.151000022888184,15.151000022888184 -15.151000022888184,-15.151000022888184 -15.151000022888184,-15.151000022888184"></path></g></g><g transform="matrix(1,0,0,1,0,142)" opacity="1" style="display: block;"><g opacity="1" transform="matrix(1,0,0,1,688.3839721679688,730.31201171875)"><path stroke-linecap="round" stroke-linejoin="round" fill-opacity="0" stroke="rgb(32,40,112)" stroke-opacity="1" stroke-width="2" d=" M-15.151000022888184,15.151000022888184 C-15.151000022888184,15.151000022888184 15.151000022888184,-15.151000022888184 15.151000022888184,-15.151000022888184"></path></g><g opacity="1" transform="matrix(1,0,0,1,688.3839721679688,730.31201171875)"><path stroke-linecap="round" stroke-linejoin="round" fill-opacity="0" stroke="rgb(32,40,112)" stroke-opacity="1" stroke-width="2" d=" M15.151000022888184,15.151000022888184 C15.151000022888184,15.151000022888184 -15.151000022888184,-15.151000022888184 -15.151000022888184,-15.151000022888184"></path></g></g><g transform="matrix(1,0,0,1,-0.00006103515625,142)" opacity="1" style="display: block;"><g opacity="1" transform="matrix(1,0,0,1,751.7050170898438,730.31201171875)"><path stroke-linecap="round" stroke-linejoin="round" fill-opacity="0" stroke="rgb(32,40,112)" stroke-opacity="1" stroke-width="2" d=" M-15.151000022888184,15.151000022888184 C-15.151000022888184,15.151000022888184 15.151000022888184,-15.151000022888184 15.151000022888184,-15.151000022888184"></path></g><g opacity="1" transform="matrix(1,0,0,1,751.7050170898438,730.31201171875)"><path stroke-linecap="round" stroke-linejoin="round" fill-opacity="0" stroke="rgb(32,40,112)" stroke-opacity="1" stroke-width="2" d=" M15.151000022888184,15.151000022888184 C15.151000022888184,15.151000022888184 -15.151000022888184,-15.151000022888184 -15.151000022888184,-15.151000022888184"></path></g></g><g transform="matrix(1,0,0,1,860.8699951171875,872.31201171875)" opacity="1" style="display: block;"><g opacity="1" transform="matrix(1,0,0,1,0,0)"><path fill="rgb(249,74,130)" fill-opacity="1" d=" M22.990999221801758,0 C22.990999221801758,12.697999954223633 12.697999954223633,22.990999221801758 0,22.990999221801758 C-12.697999954223633,22.990999221801758 -22.990999221801758,12.697999954223633 -22.990999221801758,0 C-22.990999221801758,-12.697999954223633 -12.697999954223633,-22.990999221801758 0,-22.990999221801758 C12.697999954223633,-22.990999221801758 22.990999221801758,-12.697999954223633 22.990999221801758,0z"></path></g></g><g transform="matrix(1,0,0,1,862.5549926757812,871.6190185546875)" opacity="1" style="display: block;"><g opacity="1" transform="matrix(1,0,0,1,0,0)"><path stroke-linecap="round" stroke-linejoin="round" fill-opacity="0" stroke="rgb(32,40,112)" stroke-opacity="1" stroke-width="2" d=" M-12.98900032043457,-1.3480000495910645 C-12.98900032043457,-1.3480000495910645 -3.430999994277954,8.210000038146973 -3.430999994277954,8.210000038146973 C-3.430999994277954,8.210000038146973 12.98900032043457,-8.210000038146973 12.98900032043457,-8.210000038146973"></path></g></g><g transform="matrix(1,0,0,1,715.708984375,1012.31201171875)" opacity="1" style="display: block;"><g opacity="1" transform="matrix(1,0,0,1,0,0)"><path fill="rgb(255,255,255)" fill-opacity="1" d=" M199.79600524902344,44.39899826049805 C199.79600524902344,44.39899826049805 -199.79600524902344,44.39899826049805 -199.79600524902344,44.39899826049805 C-199.79600524902344,44.39899826049805 -199.79600524902344,-44.39899826049805 -199.79600524902344,-44.39899826049805 C-199.79600524902344,-44.39899826049805 199.79600524902344,-44.39899826049805 199.79600524902344,-44.39899826049805 C199.79600524902344,-44.39899826049805 199.79600524902344,44.39899826049805 199.79600524902344,44.39899826049805z"></path><path stroke-linecap="round" stroke-linejoin="round" fill-opacity="0" stroke="rgb(32,40,112)" stroke-opacity="1" stroke-width="2" d=" M199.79600524902344,44.39899826049805 C199.79600524902344,44.39899826049805 -199.79600524902344,44.39899826049805 -199.79600524902344,44.39899826049805 C-199.79600524902344,44.39899826049805 -199.79600524902344,-44.39899826049805 -199.79600524902344,-44.39899826049805 C-199.79600524902344,-44.39899826049805 199.79600524902344,-44.39899826049805 199.79600524902344,-44.39899826049805 C199.79600524902344,-44.39899826049805 199.79600524902344,44.39899826049805 199.79600524902344,44.39899826049805z"></path></g></g><g transform="matrix(1,0,0,1,-0.00103759765625,282)" opacity="1" style="display: block;"><g opacity="1" transform="matrix(1,0,0,1,561.7420043945312,730.31201171875)"><path stroke-linecap="round" stroke-linejoin="round" fill-opacity="0" stroke="rgb(32,40,112)" stroke-opacity="1" stroke-width="2" d=" M-15.151000022888184,15.151000022888184 C-15.151000022888184,15.151000022888184 15.151000022888184,-15.151000022888184 15.151000022888184,-15.151000022888184"></path></g><g opacity="1" transform="matrix(1,0,0,1,561.7420043945312,730.31201171875)"><path stroke-linecap="round" stroke-linejoin="round" fill-opacity="0" stroke="rgb(32,40,112)" stroke-opacity="1" stroke-width="2" d=" M15.151000022888184,15.151000022888184 C15.151000022888184,15.151000022888184 -15.151000022888184,-15.151000022888184 -15.151000022888184,-15.151000022888184"></path></g></g><g transform="matrix(1,0,0,1,0,282)" opacity="1" style="display: block;"><g opacity="1" transform="matrix(1,0,0,1,625.06298828125,730.31201171875)"><path stroke-linecap="round" stroke-linejoin="round" fill-opacity="0" stroke="rgb(32,40,112)" stroke-opacity="1" stroke-width="2" d=" M-15.151000022888184,15.151000022888184 C-15.151000022888184,15.151000022888184 15.151000022888184,-15.151000022888184 15.151000022888184,-15.151000022888184"></path></g><g opacity="1" transform="matrix(1,0,0,1,625.06298828125,730.31201171875)"><path stroke-linecap="round" stroke-linejoin="round" fill-opacity="0" stroke="rgb(32,40,112)" stroke-opacity="1" stroke-width="2" d=" M15.151000022888184,15.151000022888184 C15.151000022888184,15.151000022888184 -15.151000022888184,-15.151000022888184 -15.151000022888184,-15.151000022888184"></path></g></g><g transform="matrix(1,0,0,1,0,282)" opacity="1" style="display: block;"><g opacity="1" transform="matrix(1,0,0,1,688.3839721679688,730.31201171875)"><path stroke-linecap="round" stroke-linejoin="round" fill-opacity="0" stroke="rgb(32,40,112)" stroke-opacity="1" stroke-width="2" d=" M-15.151000022888184,15.151000022888184 C-15.151000022888184,15.151000022888184 15.151000022888184,-15.151000022888184 15.151000022888184,-15.151000022888184"></path></g><g opacity="1" transform="matrix(1,0,0,1,688.3839721679688,730.31201171875)"><path stroke-linecap="round" stroke-linejoin="round" fill-opacity="0" stroke="rgb(32,40,112)" stroke-opacity="1" stroke-width="2" d=" M15.151000022888184,15.151000022888184 C15.151000022888184,15.151000022888184 -15.151000022888184,-15.151000022888184 -15.151000022888184,-15.151000022888184"></path></g></g><g transform="matrix(1,0,0,1,-0.00006103515625,282)" opacity="1" style="display: block;"><g opacity="1" transform="matrix(1,0,0,1,751.7050170898438,730.31201171875)"><path stroke-linecap="round" stroke-linejoin="round" fill-opacity="0" stroke="rgb(32,40,112)" stroke-opacity="1" stroke-width="2" d=" M-15.151000022888184,15.151000022888184 C-15.151000022888184,15.151000022888184 15.151000022888184,-15.151000022888184 15.151000022888184,-15.151000022888184"></path></g><g opacity="1" transform="matrix(1,0,0,1,751.7050170898438,730.31201171875)"><path stroke-linecap="round" stroke-linejoin="round" fill-opacity="0" stroke="rgb(32,40,112)" stroke-opacity="1" stroke-width="2" d=" M15.151000022888184,15.151000022888184 C15.151000022888184,15.151000022888184 -15.151000022888184,-15.151000022888184 -15.151000022888184,-15.151000022888184"></path></g></g><g transform="matrix(1,0,0,1,860.8699951171875,1012.31201171875)" opacity="1" style="display: block;"><g opacity="1" transform="matrix(1,0,0,1,0,0)"><path fill="rgb(249,74,130)" fill-opacity="1" d=" M22.990999221801758,0 C22.990999221801758,12.697999954223633 12.697999954223633,22.990999221801758 0,22.990999221801758 C-12.697999954223633,22.990999221801758 -22.990999221801758,12.697999954223633 -22.990999221801758,0 C-22.990999221801758,-12.697999954223633 -12.697999954223633,-22.990999221801758 0,-22.990999221801758 C12.697999954223633,-22.990999221801758 22.990999221801758,-12.697999954223633 22.990999221801758,0z"></path></g></g><g transform="matrix(1,0,0,1,862.5549926757812,1011.6190185546875)" opacity="1" style="display: block;"><g opacity="1" transform="matrix(1,0,0,1,0,0)"><path stroke-linecap="round" stroke-linejoin="round" fill-opacity="0" stroke="rgb(32,40,112)" stroke-opacity="1" stroke-width="2" d=" M-12.98900032043457,-1.3480000495910645 C-12.98900032043457,-1.3480000495910645 -3.430999994277954,8.210000038146973 -3.430999994277954,8.210000038146973 C-3.430999994277954,8.210000038146973 12.98900032043457,-8.210000038146973 12.98900032043457,-8.210000038146973"></path></g></g><g transform="matrix(1,0,0,1,715.708984375,1154.31201171875)" opacity="1" style="display: block;"><g opacity="1" transform="matrix(1,0,0,1,0,0)"><path fill="rgb(255,255,255)" fill-opacity="1" d=" M199.79600524902344,44.39899826049805 C199.79600524902344,44.39899826049805 -199.79600524902344,44.39899826049805 -199.79600524902344,44.39899826049805 C-199.79600524902344,44.39899826049805 -199.79600524902344,-44.39899826049805 -199.79600524902344,-44.39899826049805 C-199.79600524902344,-44.39899826049805 199.79600524902344,-44.39899826049805 199.79600524902344,-44.39899826049805 C199.79600524902344,-44.39899826049805 199.79600524902344,44.39899826049805 199.79600524902344,44.39899826049805z"></path><path stroke-linecap="round" stroke-linejoin="round" fill-opacity="0" stroke="rgb(32,40,112)" stroke-opacity="1" stroke-width="2" d=" M199.79600524902344,44.39899826049805 C199.79600524902344,44.39899826049805 -199.79600524902344,44.39899826049805 -199.79600524902344,44.39899826049805 C-199.79600524902344,44.39899826049805 -199.79600524902344,-44.39899826049805 -199.79600524902344,-44.39899826049805 C-199.79600524902344,-44.39899826049805 199.79600524902344,-44.39899826049805 199.79600524902344,-44.39899826049805 C199.79600524902344,-44.39899826049805 199.79600524902344,44.39899826049805 199.79600524902344,44.39899826049805z"></path></g></g><g transform="matrix(1,0,0,1,-0.00103759765625,424)" opacity="1" style="display: block;"><g opacity="1" transform="matrix(1,0,0,1,561.7420043945312,730.31201171875)"><path stroke-linecap="round" stroke-linejoin="round" fill-opacity="0" stroke="rgb(32,40,112)" stroke-opacity="1" stroke-width="2" d=" M-15.151000022888184,15.151000022888184 C-15.151000022888184,15.151000022888184 15.151000022888184,-15.151000022888184 15.151000022888184,-15.151000022888184"></path></g><g opacity="1" transform="matrix(1,0,0,1,561.7420043945312,730.31201171875)"><path stroke-linecap="round" stroke-linejoin="round" fill-opacity="0" stroke="rgb(32,40,112)" stroke-opacity="1" stroke-width="2" d=" M15.151000022888184,15.151000022888184 C15.151000022888184,15.151000022888184 -15.151000022888184,-15.151000022888184 -15.151000022888184,-15.151000022888184"></path></g></g><g transform="matrix(1,0,0,1,0,424)" opacity="1" style="display: block;"><g opacity="1" transform="matrix(1,0,0,1,625.06298828125,730.31201171875)"><path stroke-linecap="round" stroke-linejoin="round" fill-opacity="0" stroke="rgb(32,40,112)" stroke-opacity="1" stroke-width="2" d=" M-15.151000022888184,15.151000022888184 C-15.151000022888184,15.151000022888184 15.151000022888184,-15.151000022888184 15.151000022888184,-15.151000022888184"></path></g><g opacity="1" transform="matrix(1,0,0,1,625.06298828125,730.31201171875)"><path stroke-linecap="round" stroke-linejoin="round" fill-opacity="0" stroke="rgb(32,40,112)" stroke-opacity="1" stroke-width="2" d=" M15.151000022888184,15.151000022888184 C15.151000022888184,15.151000022888184 -15.151000022888184,-15.151000022888184 -15.151000022888184,-15.151000022888184"></path></g></g><g transform="matrix(1,0,0,1,0,424)" opacity="1" style="display: block;"><g opacity="1" transform="matrix(1,0,0,1,688.3839721679688,730.31201171875)"><path stroke-linecap="round" stroke-linejoin="round" fill-opacity="0" stroke="rgb(32,40,112)" stroke-opacity="1" stroke-width="2" d=" M-15.151000022888184,15.151000022888184 C-15.151000022888184,15.151000022888184 15.151000022888184,-15.151000022888184 15.151000022888184,-15.151000022888184"></path></g><g opacity="1" transform="matrix(1,0,0,1,688.3839721679688,730.31201171875)"><path stroke-linecap="round" stroke-linejoin="round" fill-opacity="0" stroke="rgb(32,40,112)" stroke-opacity="1" stroke-width="2" d=" M15.151000022888184,15.151000022888184 C15.151000022888184,15.151000022888184 -15.151000022888184,-15.151000022888184 -15.151000022888184,-15.151000022888184"></path></g></g><g transform="matrix(1,0,0,1,-0.00006103515625,424)" opacity="1" style="display: block;"><g opacity="1" transform="matrix(1,0,0,1,751.7050170898438,730.31201171875)"><path stroke-linecap="round" stroke-linejoin="round" fill-opacity="0" stroke="rgb(32,40,112)" stroke-opacity="1" stroke-width="2" d=" M-15.151000022888184,15.151000022888184 C-15.151000022888184,15.151000022888184 15.151000022888184,-15.151000022888184 15.151000022888184,-15.151000022888184"></path></g><g opacity="1" transform="matrix(1,0,0,1,751.7050170898438,730.31201171875)"><path stroke-linecap="round" stroke-linejoin="round" fill-opacity="0" stroke="rgb(32,40,112)" stroke-opacity="1" stroke-width="2" d=" M15.151000022888184,15.151000022888184 C15.151000022888184,15.151000022888184 -15.151000022888184,-15.151000022888184 -15.151000022888184,-15.151000022888184"></path></g></g><g transform="matrix(1,0,0,1,860.8699951171875,1154.31201171875)" opacity="1" style="display: block;"><g opacity="1" transform="matrix(1,0,0,1,0,0)"><path fill="rgb(249,74,130)" fill-opacity="1" d=" M22.990999221801758,0 C22.990999221801758,12.697999954223633 12.697999954223633,22.990999221801758 0,22.990999221801758 C-12.697999954223633,22.990999221801758 -22.990999221801758,12.697999954223633 -22.990999221801758,0 C-22.990999221801758,-12.697999954223633 -12.697999954223633,-22.990999221801758 0,-22.990999221801758 C12.697999954223633,-22.990999221801758 22.990999221801758,-12.697999954223633 22.990999221801758,0z"></path></g></g><g transform="matrix(1,0,0,1,862.5549926757812,1153.6190185546875)" opacity="1" style="display: block;"><g opacity="1" transform="matrix(1,0,0,1,0,0)"><path stroke-linecap="round" stroke-linejoin="round" fill-opacity="0" stroke="rgb(32,40,112)" stroke-opacity="1" stroke-width="2" d=" M-12.98900032043457,-1.3480000495910645 C-12.98900032043457,-1.3480000495910645 -3.430999994277954,8.210000038146973 -3.430999994277954,8.210000038146973 C-3.430999994277954,8.210000038146973 12.98900032043457,-8.210000038146973 12.98900032043457,-8.210000038146973"></path></g></g></g><g clip-path="url(#__lottie_element_226)" transform="matrix(1,0,0,1,0,0)" opacity="1" style="display: block;"><g mask="url(#__lottie_element_252_1)" style="display: block;"><g transform="matrix(1,0,0,1,623.218994140625,1151.31103515625)" opacity="1"><g opacity="1" transform="matrix(1,0,0,1,0,0)"><path fill="rgb(32,40,112)" fill-opacity="1" d=" M-107.31199645996094,-113.25 C-107.31199645996094,-113.25 378.31201171875,349 378.31201171875,349 C378.31201171875,349 -115.56199645996094,339.68798828125 -115.56199645996094,339.68798828125 C-115.56199645996094,339.68798828125 -107.31199645996094,-113.25 -107.31199645996094,-113.25z"></path><path stroke-linecap="round" stroke-linejoin="round" fill-opacity="0" stroke="rgb(32,40,112)" stroke-opacity="1" stroke-width="2" d=" M-107.31199645996094,-113.25 C-107.31199645996094,-113.25 378.31201171875,349 378.31201171875,349 C378.31201171875,349 -115.56199645996094,339.68798828125 -115.56199645996094,339.68798828125 C-115.56199645996094,339.68798828125 -107.31199645996094,-113.25 -107.31199645996094,-113.25z"></path></g></g></g><g transform="matrix(1,0,0,1,419.1610107421875,1055.6209716796875)" opacity="1" style="display: block;"><g opacity="1" transform="matrix(1,0,0,1,0,0)"><path fill="rgb(249,74,130)" fill-opacity="1" d=" M110.31300354003906,74.93800354003906 C110.31300354003906,74.93800354003906 -110.31199645996094,74.93800354003906 -110.31199645996094,74.93800354003906 C-110.31199645996094,74.93800354003906 -110.31199645996094,35.4379997253418 -110.31199645996094,35.4379997253418 C-110.31199645996094,-25.374000549316406 -60.8120002746582,-74.93800354003906 0,-74.93800354003906 C0,-74.93800354003906 0,-74.93800354003906 0,-74.93800354003906 C60.8120002746582,-74.93800354003906 110.31300354003906,-25.374000549316406 110.31300354003906,35.4379997253418 C110.31300354003906,35.4379997253418 110.31300354003906,74.93800354003906 110.31300354003906,74.93800354003906z M-85.31199645996094,74.68800354003906 C-85.31199645996094,74.68800354003906 85.31199645996094,74.68800354003906 85.31199645996094,74.68800354003906 C85.31199645996094,74.68800354003906 85.31199645996094,35.4379997253418 85.31199645996094,35.4379997253418 C85.31199645996094,-11.62399959564209 47.0620002746582,-49.9379997253418 0,-49.9379997253418 C-47.0620002746582,-49.9379997253418 -85.31199645996094,-11.62399959564209 -85.31199645996094,35.4379997253418 C-85.31199645996094,35.4379997253418 -85.31199645996094,74.68800354003906 -85.31199645996094,74.68800354003906z"></path><path stroke-linecap="round" stroke-linejoin="round" fill-opacity="0" stroke="rgb(32,40,112)" stroke-opacity="1" stroke-width="2" d=" M110.31300354003906,74.93800354003906 C110.31300354003906,74.93800354003906 -110.31199645996094,74.93800354003906 -110.31199645996094,74.93800354003906 C-110.31199645996094,74.93800354003906 -110.31199645996094,35.4379997253418 -110.31199645996094,35.4379997253418 C-110.31199645996094,-25.374000549316406 -60.8120002746582,-74.93800354003906 0,-74.93800354003906 C0,-74.93800354003906 0,-74.93800354003906 0,-74.93800354003906 C60.8120002746582,-74.93800354003906 110.31300354003906,-25.374000549316406 110.31300354003906,35.4379997253418 C110.31300354003906,35.4379997253418 110.31300354003906,74.93800354003906 110.31300354003906,74.93800354003906z M-85.31199645996094,74.68800354003906 C-85.31199645996094,74.68800354003906 85.31199645996094,74.68800354003906 85.31199645996094,74.68800354003906 C85.31199645996094,74.68800354003906 85.31199645996094,35.4379997253418 85.31199645996094,35.4379997253418 C85.31199645996094,-11.62399959564209 47.0620002746582,-49.9379997253418 0,-49.9379997253418 C-47.0620002746582,-49.9379997253418 -85.31199645996094,-11.62399959564209 -85.31199645996094,35.4379997253418 C-85.31199645996094,35.4379997253418 -85.31199645996094,74.68800354003906 -85.31199645996094,74.68800354003906z"></path></g></g><g transform="matrix(1,0,0,1,0,0)" opacity="1" style="display: block;"><g opacity="1" transform="matrix(1,0,0,1,419.1610107421875,1239.52099609375)"><path fill="rgb(249,74,130)" fill-opacity="1" d=" M109.11799621582031,109.18499755859375 C109.11799621582031,109.18499755859375 -109.11799621582031,109.18499755859375 -109.11799621582031,109.18499755859375 C-128.81700134277344,109.18499755859375 -144.78700256347656,93.21600341796875 -144.78700256347656,73.51699829101562 C-144.78700256347656,73.51699829101562 -144.78700256347656,-109.18499755859375 -144.78700256347656,-109.18499755859375 C-144.78700256347656,-109.18499755859375 144.78700256347656,-109.18499755859375 144.78700256347656,-109.18499755859375 C144.78700256347656,-109.18499755859375 144.78700256347656,73.51699829101562 144.78700256347656,73.51699829101562 C144.78700256347656,93.21600341796875 128.81700134277344,109.18499755859375 109.11799621582031,109.18499755859375z"></path><path stroke-linecap="round" stroke-linejoin="round" fill-opacity="0" stroke="rgb(32,40,112)" stroke-opacity="1" stroke-width="2" d=" M109.11799621582031,109.18499755859375 C109.11799621582031,109.18499755859375 -109.11799621582031,109.18499755859375 -109.11799621582031,109.18499755859375 C-128.81700134277344,109.18499755859375 -144.78700256347656,93.21600341796875 -144.78700256347656,73.51699829101562 C-144.78700256347656,73.51699829101562 -144.78700256347656,-109.18499755859375 -144.78700256347656,-109.18499755859375 C-144.78700256347656,-109.18499755859375 144.78700256347656,-109.18499755859375 144.78700256347656,-109.18499755859375 C144.78700256347656,-109.18499755859375 144.78700256347656,73.51699829101562 144.78700256347656,73.51699829101562 C144.78700256347656,93.21600341796875 128.81700134277344,109.18499755859375 109.11799621582031,109.18499755859375z"></path></g><g opacity="1" transform="matrix(1,0,0,1,419.1610107421875,1239.52099609375)"><path fill="rgb(255,255,255)" fill-opacity="1" d=" M36.41899871826172,59.237998962402344 C36.41899871826172,59.237998962402344 14.48799991607666,-0.7879999876022339 14.48799991607666,-0.7879999876022339 C24.319000244140625,-5.992000102996826 31.020999908447266,-16.31999969482422 31.020999908447266,-28.218000411987305 C31.020999908447266,-45.349998474121094 17.131999969482422,-59.237998962402344 0,-59.237998962402344 C-17.131999969482422,-59.237998962402344 -31.020999908447266,-45.349998474121094 -31.020999908447266,-28.218000411987305 C-31.020999908447266,-16.31999969482422 -24.319000244140625,-5.992000102996826 -14.48799991607666,-0.7879999876022339 C-14.48799991607666,-0.7879999876022339 -36.41899871826172,59.237998962402344 -36.41899871826172,59.237998962402344 C-36.41899871826172,59.237998962402344 36.41899871826172,59.237998962402344 36.41899871826172,59.237998962402344z"></path><path stroke-linecap="round" stroke-linejoin="round" fill-opacity="0" stroke="rgb(32,40,112)" stroke-opacity="1" stroke-width="2" d=" M36.41899871826172,59.237998962402344 C36.41899871826172,59.237998962402344 14.48799991607666,-0.7879999876022339 14.48799991607666,-0.7879999876022339 C24.319000244140625,-5.992000102996826 31.020999908447266,-16.31999969482422 31.020999908447266,-28.218000411987305 C31.020999908447266,-45.349998474121094 17.131999969482422,-59.237998962402344 0,-59.237998962402344 C-17.131999969482422,-59.237998962402344 -31.020999908447266,-45.349998474121094 -31.020999908447266,-28.218000411987305 C-31.020999908447266,-16.31999969482422 -24.319000244140625,-5.992000102996826 -14.48799991607666,-0.7879999876022339 C-14.48799991607666,-0.7879999876022339 -36.41899871826172,59.237998962402344 -36.41899871826172,59.237998962402344 C-36.41899871826172,59.237998962402344 36.41899871826172,59.237998962402344 36.41899871826172,59.237998962402344z"></path></g></g></g><g clip-path="url(#__lottie_element_105)" style="display: none;"><g mask="url(#__lottie_element_131_1)" style="display: none;"><g><g><path></path><path stroke-linecap="round" stroke-linejoin="round" fill-opacity="0"></path></g></g></g><g style="display: none;"><g><path></path><path stroke-linecap="round" stroke-linejoin="round" fill-opacity="0"></path></g></g><g style="display: none;"><g><path></path><path stroke-linecap="round" stroke-linejoin="round" fill-opacity="0"></path></g><g><path></path><path stroke-linecap="round" stroke-linejoin="round" fill-opacity="0"></path></g></g></g><g clip-path="url(#__lottie_element_11)" transform="matrix(1,0,0,1,0,0)" opacity="1" style="display: block;"><g transform="matrix(1,0,0,1,0,0)" opacity="1" style="display: block;"><g opacity="1" transform="matrix(1,0,0,1,1143.551025390625,421.843994140625)"><path fill="rgb(132,132,250)" fill-opacity="1" d=" M170.5500030517578,0 C170.5500030517578,62.86000061035156 136.5500030517578,117.77999877929688 85.93000030517578,147.35000610351562 C61.279998779296875,161.75999450683594 32.689998626708984,170.16000366210938 2.1700000762939453,170.5399932861328 C1.4500000476837158,170.5500030517578 0.7300000190734863,170.5500030517578 0,170.5500030517578 C-94.19000244140625,170.5500030517578 -170.5500030517578,94.19999694824219 -170.5500030517578,0 C-170.5500030517578,-94.19000244140625 -94.19000244140625,-170.5500030517578 0,-170.5500030517578 C94.19999694824219,-170.5500030517578 170.5500030517578,-94.19000244140625 170.5500030517578,0z"></path><path stroke-linecap="round" stroke-linejoin="round" fill-opacity="0" stroke="rgb(32,40,112)" stroke-opacity="1" stroke-width="2" d=" M170.5500030517578,0 C170.5500030517578,62.86000061035156 136.5500030517578,117.77999877929688 85.93000030517578,147.35000610351562 C61.279998779296875,161.75999450683594 32.689998626708984,170.16000366210938 2.1700000762939453,170.5399932861328 C1.4500000476837158,170.5500030517578 0.7300000190734863,170.5500030517578 0,170.5500030517578 C-94.19000244140625,170.5500030517578 -170.5500030517578,94.19999694824219 -170.5500030517578,0 C-170.5500030517578,-94.19000244140625 -94.19000244140625,-170.5500030517578 0,-170.5500030517578 C94.19999694824219,-170.5500030517578 170.5500030517578,-94.19000244140625 170.5500030517578,0z"></path></g><g opacity="1" transform="matrix(1,0,0,1,1143.5550537109375,331.6189880371094)"><path stroke-linecap="round" stroke-linejoin="round" fill-opacity="0" stroke="rgb(32,40,112)" stroke-opacity="1" stroke-width="2" d=" M-144.38699340820312,0 C-144.38699340820312,0 144.38699340820312,0 144.38699340820312,0"></path></g><g opacity="1" transform="matrix(1,0,0,1,1143.5560302734375,513.2119750976562)"><path stroke-linecap="round" stroke-linejoin="round" fill-opacity="0" stroke="rgb(32,40,112)" stroke-opacity="1" stroke-width="2" d=" M-144.38699340820312,0 C-144.38699340820312,0 144.38699340820312,0 144.38699340820312,0"></path></g><g opacity="1" transform="matrix(1,0,0,1,1143.5369873046875,422.4159851074219)"><path stroke-linecap="round" stroke-linejoin="round" fill-opacity="0" stroke="rgb(32,40,112)" stroke-opacity="1" stroke-width="2" d=" M-170.531005859375,0 C-170.531005859375,0 170.531005859375,0 170.531005859375,0"></path></g></g><g transform="matrix(1,0,0,1,1187.72705078125,421.8479919433594)" opacity="1" style="display: block;"><g opacity="1" transform="matrix(1,0,0,1,0,0)"><path stroke-linecap="round" stroke-linejoin="round" fill-opacity="0" stroke="rgb(32,40,112)" stroke-opacity="1" stroke-width="2" d=" M-44.17100143432617,-170.5500030517578 C-88.72699737548828,-172.84800720214844 -132.82899475097656,-94.14700317382812 -132.82899475097656,0.04500000178813934 C-132.82899475097656,94.23699951171875 -92.22699737548828,170.15199279785156 -44.17100143432617,170.5500030517578"></path></g></g><g transform="matrix(1,0,0,1,1187.72705078125,421.8479919433594)" opacity="1" style="display: block;"><g opacity="1" transform="matrix(1,0,0,1,0,0)"><path stroke-linecap="round" stroke-linejoin="round" fill-opacity="0" stroke="rgb(32,40,112)" stroke-opacity="1" stroke-width="2" d=" M-44.17100143432617,-170.5500030517578 C-44.17100143432617,-122.3479995727539 -44.32899856567383,-94.34400177001953 -44.32899856567383,-0.15199999511241913 C-44.32899856567383,94.04000091552734 -44.17100143432617,112.1520004272461 -44.17100143432617,170.5500030517578"></path></g></g><g transform="matrix(1,0,0,1,1187.72705078125,421.8479919433594)" opacity="1" style="display: block;"><g opacity="1" transform="matrix(1,0,0,1,0,0)"><path stroke-linecap="round" stroke-linejoin="round" fill-opacity="0" stroke="rgb(32,40,112)" stroke-opacity="1" stroke-width="2" d=" M-44.17100143432617,-170.5500030517578 C4.61899995803833,-170.5500030517578 44.17100143432617,-94.19200134277344 44.17100143432617,0 C44.17100143432617,94.19200134277344 4.61899995803833,170.5500030517578 -44.17100143432617,170.5500030517578"></path></g></g><g transform="matrix(1,0,0,1,1187.72705078125,421.8479919433594)" opacity="1" style="display: block;"><g opacity="1" transform="matrix(1,0,0,1,0,0)"><path stroke-linecap="round" stroke-linejoin="round" fill-opacity="0" stroke="rgb(32,40,112)" stroke-opacity="1" stroke-width="2" d=" M-44.17100143432617,-170.5500030517578 C47.27299880981445,-170.5500030517578 126.6709976196289,-94.34400177001953 126.6709976196289,-0.15199999511241913 C126.6709976196289,94.04000091552734 49.77299880981445,170.5500030517578 -44.17100143432617,170.5500030517578"></path></g></g><g style="display: none;"><g><path stroke-linecap="round" stroke-linejoin="round" fill-opacity="0"></path></g></g><g style="display: none;"><g><path stroke-linecap="round" stroke-linejoin="round" fill-opacity="0"></path></g></g><g style="display: none;"><g><path stroke-linecap="round" stroke-linejoin="round" fill-opacity="0"></path></g></g><g style="display: none;"><g><path stroke-linecap="round" stroke-linejoin="round" fill-opacity="0"></path></g></g><g style="display: none;"><g><path stroke-linecap="round" stroke-linejoin="round" fill-opacity="0"></path></g></g><g style="display: none;"><g><path stroke-linecap="round" stroke-linejoin="round" fill-opacity="0"></path></g></g><g style="display: none;"><g><path stroke-linecap="round" stroke-linejoin="round" fill-opacity="0"></path></g></g><g style="display: none;"><g><path stroke-linecap="round" stroke-linejoin="round" fill-opacity="0"></path></g></g><g style="display: none;"><g><path stroke-linecap="round" stroke-linejoin="round" fill-opacity="0"></path></g></g></g><g mask="url(#__lottie_element_9_1)" style="display: block;"><g transform="matrix(1,0,0,1,1187.6009521484375,537.9779663085938)" opacity="1"><g opacity="1" transform="matrix(1,0,0,1,0,0)"><path fill="rgb(32,40,112)" fill-opacity="1" d=" M350,502.677001953125 C325.3500061035156,517.0869750976562 -310.20001220703125,544.0479736328125 -340.7200012207031,544.427978515625 C-340.7200012207031,544.427978515625 5.159999847412109,-54.404998779296875 5.159999847412109,-54.404998779296875 C5.159999847412109,-54.404998779296875 350,502.677001953125 350,502.677001953125z"></path><path stroke-linecap="round" stroke-linejoin="round" fill-opacity="0" stroke="rgb(32,40,112)" stroke-opacity="1" stroke-width="2" d=" M350,502.677001953125 C325.3500061035156,517.0869750976562 -310.20001220703125,544.0479736328125 -340.7200012207031,544.427978515625 C-340.7200012207031,544.427978515625 5.159999847412109,-54.404998779296875 5.159999847412109,-54.404998779296875 C5.159999847412109,-54.404998779296875 350,502.677001953125 350,502.677001953125z"></path></g></g></g><g transform="matrix(1,0,0,1,1264.9429931640625,520.31298828125)" opacity="1" style="display: block;"><g opacity="1" transform="matrix(1,0,0,1,0,0)"><path fill="rgb(249,74,130)" fill-opacity="1" d=" M88.66999816894531,0 C88.66999816894531,48.97100067138672 48.97100067138672,88.66999816894531 0,88.66999816894531 C-48.97100067138672,88.66999816894531 -88.66999816894531,48.97100067138672 -88.66999816894531,0 C-88.66999816894531,-48.97100067138672 -48.97100067138672,-88.66999816894531 0,-88.66999816894531 C48.97100067138672,-88.66999816894531 88.66999816894531,-48.97100067138672 88.66999816894531,0z"></path><path stroke-linecap="round" stroke-linejoin="round" fill-opacity="0" stroke="rgb(32,40,112)" stroke-opacity="1" stroke-width="2" d=" M88.66999816894531,0 C88.66999816894531,48.97100067138672 48.97100067138672,88.66999816894531 0,88.66999816894531 C-48.97100067138672,88.66999816894531 -88.66999816894531,48.97100067138672 -88.66999816894531,0 C-88.66999816894531,-48.97100067138672 -48.97100067138672,-88.66999816894531 0,-88.66999816894531 C48.97100067138672,-88.66999816894531 88.66999816894531,-48.97100067138672 88.66999816894531,0z"></path></g></g><g transform="matrix(1,0,0,1,1268.4420166015625,521.177001953125)" opacity="1" style="display: block;"><g opacity="1" transform="matrix(1,0,0,1,0,0)"><path fill="rgb(255,255,255)" fill-opacity="1" d=" M-13.232999801635742,42.270999908447266 C-13.232999801635742,42.270999908447266 -57.16699981689453,-1.6629999876022339 -57.16699981689453,-1.6629999876022339 C-57.16699981689453,-1.6629999876022339 -43.02399826049805,-15.805000305175781 -43.02399826049805,-15.805000305175781 C-43.02399826049805,-15.805000305175781 -13.232999801635742,13.986000061035156 -13.232999801635742,13.986000061035156 C-13.232999801635742,13.986000061035156 43.02399826049805,-42.270999908447266 43.02399826049805,-42.270999908447266 C43.02399826049805,-42.270999908447266 57.16699981689453,-28.128000259399414 57.16699981689453,-28.128000259399414 C57.16699981689453,-28.128000259399414 -13.232999801635742,42.270999908447266 -13.232999801635742,42.270999908447266z"></path><path stroke-linecap="round" stroke-linejoin="round" fill-opacity="0" stroke="rgb(32,40,112)" stroke-opacity="1" stroke-width="2" d=" M-13.232999801635742,42.270999908447266 C-13.232999801635742,42.270999908447266 -57.16699981689453,-1.6629999876022339 -57.16699981689453,-1.6629999876022339 C-57.16699981689453,-1.6629999876022339 -43.02399826049805,-15.805000305175781 -43.02399826049805,-15.805000305175781 C-43.02399826049805,-15.805000305175781 -13.232999801635742,13.986000061035156 -13.232999801635742,13.986000061035156 C-13.232999801635742,13.986000061035156 43.02399826049805,-42.270999908447266 43.02399826049805,-42.270999908447266 C43.02399826049805,-42.270999908447266 57.16699981689453,-28.128000259399414 57.16699981689453,-28.128000259399414 C57.16699981689453,-28.128000259399414 -13.232999801635742,42.270999908447266 -13.232999801635742,42.270999908447266z"></path></g></g></g></svg>