<svg width="1600" height="1600" viewBox="0 0 1600 1600" fill="none" xmlns="http://www.w3.org/2000/svg">
<g clip-path="url(#clip0_24_16457)">
<mask id="mask0_24_16457" style="mask-type:luminance" maskUnits="userSpaceOnUse" x="0" y="0" width="1600" height="1600">
<path d="M1600 0H0V1600H1600V0Z" fill="white"/>
</mask>
<g mask="url(#mask0_24_16457)">
<path d="M609.912 411.05H1125.22V1005.71H609.912V411.05Z" fill="#0626A9"/>
<path d="M609.912 411.05H1125.22V1005.71H609.912V411.05Z" stroke="#0626A9" stroke-width="2" stroke-linecap="round" stroke-linejoin="round"/>
<path d="M1091.04 571.896H644.089V450.78H1091.04V571.896Z" fill="white"/>
<path d="M1091.04 571.896H644.089V450.78H1091.04V571.896Z" stroke="#0626A9" stroke-width="2" stroke-linecap="round" stroke-linejoin="round"/>
<mask id="mask1_24_16457" style="mask-type:luminance" maskUnits="userSpaceOnUse" x="0" y="0" width="1600" height="1600">
<path d="M0 0H1600V1600H0V0Z" fill="white"/>
</mask>
<g mask="url(#mask1_24_16457)">
<path d="M561.742 623.679V328.095" stroke="#0626A9" stroke-width="2" stroke-linecap="round" stroke-linejoin="round"/>
<path d="M501.516 623.679V400.863H336.658" stroke="#0626A9" stroke-width="2" stroke-linecap="round" stroke-linejoin="round"/>
<path d="M483.962 789.614H364.138V633.622" stroke="#0626A9" stroke-width="2" stroke-linecap="round" stroke-linejoin="round"/>
<path d="M469.271 848.593H216.879V550.345" stroke="#0626A9" stroke-width="2" stroke-linecap="round" stroke-linejoin="round"/>
<path d="M469.271 894.575H282.133V988.633" stroke="#0626A9" stroke-width="2" stroke-linecap="round" stroke-linejoin="round"/>
<path d="M955.216 1085.49H1200.34V884.866" stroke="#0626A9" stroke-width="2" stroke-linecap="round" stroke-linejoin="round"/>
<path d="M961.142 1161.64H1264.94V797.735H1365.87" stroke="#0626A9" stroke-width="2" stroke-linecap="round" stroke-linejoin="round"/>
<path d="M578.446 311.605C578.446 320.831 570.968 328.309 561.742 328.309C552.516 328.309 545.038 320.831 545.038 311.605C545.038 302.379 552.516 294.901 561.742 294.901C570.968 294.901 578.446 302.379 578.446 311.605Z" fill="#84AAE4"/>
<path d="M578.446 311.605C578.446 320.831 570.968 328.309 561.742 328.309C552.516 328.309 545.038 320.831 545.038 311.605C545.038 302.379 552.516 294.901 561.742 294.901C570.968 294.901 578.446 302.379 578.446 311.605Z" stroke="#0626A9" stroke-width="2" stroke-linecap="round" stroke-linejoin="round"/>
<path d="M336.907 400.864C336.907 410.09 329.429 417.568 320.203 417.568C310.977 417.568 303.499 410.09 303.499 400.864C303.499 391.638 310.977 384.16 320.203 384.16C329.429 384.16 336.907 391.638 336.907 400.864Z" fill="#8869D5"/>
<path d="M336.907 400.864C336.907 410.09 329.429 417.568 320.203 417.568C310.977 417.568 303.499 410.09 303.499 400.864C303.499 391.638 310.977 384.16 320.203 384.16C329.429 384.16 336.907 391.638 336.907 400.864Z" stroke="#0626A9" stroke-width="2" stroke-linecap="round" stroke-linejoin="round"/>
<path d="M380.841 618.657C380.841 627.883 373.363 635.361 364.137 635.361C354.911 635.361 347.433 627.883 347.433 618.657C347.433 609.431 354.911 601.953 364.137 601.953C373.363 601.953 380.841 609.431 380.841 618.657Z" fill="#84AAE4"/>
<path d="M380.841 618.657C380.841 627.883 373.363 635.361 364.137 635.361C354.911 635.361 347.433 627.883 347.433 618.657C347.433 609.431 354.911 601.953 364.137 601.953C373.363 601.953 380.841 609.431 380.841 618.657Z" stroke="#0626A9" stroke-width="2" stroke-linecap="round" stroke-linejoin="round"/>
<path d="M233.583 532.636C233.583 541.862 226.105 549.34 216.879 549.34C207.653 549.34 200.175 541.862 200.175 532.636C200.175 523.41 207.653 515.932 216.879 515.932C226.105 515.932 233.583 523.41 233.583 532.636Z" fill="#84AAE4"/>
<path d="M233.583 532.636C233.583 541.862 226.105 549.34 216.879 549.34C207.653 549.34 200.175 541.862 200.175 532.636C200.175 523.41 207.653 515.932 216.879 515.932C226.105 515.932 233.583 523.41 233.583 532.636Z" stroke="#0626A9" stroke-width="2" stroke-linecap="round" stroke-linejoin="round"/>
<path d="M298.78 1005.34C298.78 1014.56 291.302 1022.04 282.076 1022.04C272.85 1022.04 265.372 1014.56 265.372 1005.34C265.372 996.111 272.85 988.633 282.076 988.633C291.302 988.633 298.78 996.111 298.78 1005.34Z" fill="#84AAE4"/>
<path d="M298.78 1005.34C298.78 1014.56 291.302 1022.04 282.076 1022.04C272.85 1022.04 265.372 1014.56 265.372 1005.34C265.372 996.111 272.85 988.633 282.076 988.633C291.302 988.633 298.78 996.111 298.78 1005.34Z" stroke="#0626A9" stroke-width="2" stroke-linecap="round" stroke-linejoin="round"/>
<path d="M1217.05 868.162C1217.05 877.388 1209.57 884.866 1200.34 884.866C1191.12 884.866 1183.64 877.388 1183.64 868.162C1183.64 858.936 1191.12 851.458 1200.34 851.458C1209.57 851.458 1217.05 858.936 1217.05 868.162Z" fill="#84AAE4"/>
<path d="M1217.05 868.162C1217.05 877.388 1209.57 884.866 1200.34 884.866C1191.12 884.866 1183.64 877.388 1183.64 868.162C1183.64 858.936 1191.12 851.458 1200.34 851.458C1209.57 851.458 1217.05 858.936 1217.05 868.162Z" stroke="#0626A9" stroke-width="2" stroke-linecap="round" stroke-linejoin="round"/>
<path d="M1399.82 797.736C1399.82 806.962 1392.35 814.44 1383.12 814.44C1373.89 814.44 1366.42 806.962 1366.42 797.736C1366.42 788.51 1373.89 781.032 1383.12 781.032C1392.35 781.032 1399.82 788.51 1399.82 797.736Z" fill="#8869D5"/>
<path d="M1399.82 797.736C1399.82 806.962 1392.35 814.44 1383.12 814.44C1373.89 814.44 1366.42 806.962 1366.42 797.736C1366.42 788.51 1373.89 781.032 1383.12 781.032C1392.35 781.032 1399.82 788.51 1399.82 797.736Z" stroke="#0626A9" stroke-width="2" stroke-linecap="round" stroke-linejoin="round"/>
</g>
<mask id="mask2_24_16457" style="mask-type:luminance" maskUnits="userSpaceOnUse" x="0" y="0" width="1600" height="1600">
<path d="M0 0H1600V1600H0V0Z" fill="white"/>
</mask>
<g mask="url(#mask2_24_16457)">
<path d="M973.808 1265.78H457.61V618.657H973.808V1265.78Z" fill="#84AAE4"/>
<path d="M973.808 1265.78H457.61V618.657H973.808V1265.78Z" stroke="#0626A9" stroke-width="2" stroke-linecap="round" stroke-linejoin="round"/>
<path d="M915.505 774.711H515.913V685.913H915.505V774.711Z" fill="white"/>
<path d="M915.505 774.711H515.913V685.913H915.505V774.711Z" stroke="#0626A9" stroke-width="2" stroke-linecap="round" stroke-linejoin="round"/>
<path d="M546.59 745.463L576.892 715.161" stroke="#0626A9" stroke-width="2" stroke-linecap="round" stroke-linejoin="round"/>
<path d="M576.892 745.463L546.59 715.161" stroke="#0626A9" stroke-width="2" stroke-linecap="round" stroke-linejoin="round"/>
<path d="M609.912 745.463L640.214 715.161" stroke="#0626A9" stroke-width="2" stroke-linecap="round" stroke-linejoin="round"/>
<path d="M640.214 745.463L609.912 715.161" stroke="#0626A9" stroke-width="2" stroke-linecap="round" stroke-linejoin="round"/>
<path d="M673.233 745.463L703.535 715.161" stroke="#0626A9" stroke-width="2" stroke-linecap="round" stroke-linejoin="round"/>
<path d="M703.535 745.463L673.233 715.161" stroke="#0626A9" stroke-width="2" stroke-linecap="round" stroke-linejoin="round"/>
<path d="M736.555 745.463L766.857 715.161" stroke="#0626A9" stroke-width="2" stroke-linecap="round" stroke-linejoin="round"/>
<path d="M766.857 745.463L736.555 715.161" stroke="#0626A9" stroke-width="2" stroke-linecap="round" stroke-linejoin="round"/>
<path d="M883.861 730.312C883.861 743.01 873.568 753.303 860.87 753.303C848.172 753.303 837.879 743.01 837.879 730.312C837.879 717.614 848.172 707.321 860.87 707.321C873.568 707.321 883.861 717.614 883.861 730.312Z" fill="#8869D5"/>
<path d="M849.566 728.271L859.124 737.829L875.544 721.409" stroke="#0626A9" stroke-width="2" stroke-linecap="round" stroke-linejoin="round"/>
<path d="M915.505 916.711H515.913V827.913H915.505V916.711Z" fill="white"/>
<path d="M915.505 916.711H515.913V827.913H915.505V916.711Z" stroke="#0626A9" stroke-width="2" stroke-linecap="round" stroke-linejoin="round"/>
<path d="M546.59 887.463L576.892 857.161" stroke="#0626A9" stroke-width="2" stroke-linecap="round" stroke-linejoin="round"/>
<path d="M576.892 887.463L546.59 857.161" stroke="#0626A9" stroke-width="2" stroke-linecap="round" stroke-linejoin="round"/>
<path d="M609.912 887.463L640.214 857.161" stroke="#0626A9" stroke-width="2" stroke-linecap="round" stroke-linejoin="round"/>
<path d="M640.214 887.463L609.912 857.161" stroke="#0626A9" stroke-width="2" stroke-linecap="round" stroke-linejoin="round"/>
<path d="M673.233 887.463L703.535 857.161" stroke="#0626A9" stroke-width="2" stroke-linecap="round" stroke-linejoin="round"/>
<path d="M703.535 887.463L673.233 857.161" stroke="#0626A9" stroke-width="2" stroke-linecap="round" stroke-linejoin="round"/>
<path d="M736.555 887.463L766.857 857.161" stroke="#0626A9" stroke-width="2" stroke-linecap="round" stroke-linejoin="round"/>
<path d="M766.857 887.463L736.555 857.161" stroke="#0626A9" stroke-width="2" stroke-linecap="round" stroke-linejoin="round"/>
<path d="M883.861 872.312C883.861 885.01 873.568 895.303 860.87 895.303C848.172 895.303 837.879 885.01 837.879 872.312C837.879 859.614 848.172 849.321 860.87 849.321C873.568 849.321 883.861 859.614 883.861 872.312Z" fill="#8869D5"/>
<path d="M849.566 870.271L859.124 879.829L875.544 863.409" stroke="#0626A9" stroke-width="2" stroke-linecap="round" stroke-linejoin="round"/>
<path d="M915.505 1056.71H515.913V967.913H915.505V1056.71Z" fill="white"/>
<path d="M915.505 1056.71H515.913V967.913H915.505V1056.71Z" stroke="#0626A9" stroke-width="2" stroke-linecap="round" stroke-linejoin="round"/>
<path d="M546.59 1027.46L576.892 997.161" stroke="#0626A9" stroke-width="2" stroke-linecap="round" stroke-linejoin="round"/>
<path d="M576.892 1027.46L546.59 997.161" stroke="#0626A9" stroke-width="2" stroke-linecap="round" stroke-linejoin="round"/>
<path d="M609.912 1027.46L640.214 997.161" stroke="#0626A9" stroke-width="2" stroke-linecap="round" stroke-linejoin="round"/>
<path d="M640.214 1027.46L609.912 997.161" stroke="#0626A9" stroke-width="2" stroke-linecap="round" stroke-linejoin="round"/>
<path d="M673.233 1027.46L703.535 997.161" stroke="#0626A9" stroke-width="2" stroke-linecap="round" stroke-linejoin="round"/>
<path d="M703.535 1027.46L673.233 997.161" stroke="#0626A9" stroke-width="2" stroke-linecap="round" stroke-linejoin="round"/>
<path d="M736.555 1027.46L766.857 997.161" stroke="#0626A9" stroke-width="2" stroke-linecap="round" stroke-linejoin="round"/>
<path d="M766.857 1027.46L736.555 997.161" stroke="#0626A9" stroke-width="2" stroke-linecap="round" stroke-linejoin="round"/>
<path d="M883.861 1012.31C883.861 1025.01 873.568 1035.3 860.87 1035.3C848.172 1035.3 837.879 1025.01 837.879 1012.31C837.879 999.614 848.172 989.321 860.87 989.321C873.568 989.321 883.861 999.614 883.861 1012.31Z" fill="#8869D5"/>
<path d="M849.566 1010.27L859.124 1019.83L875.544 1003.41" stroke="#0626A9" stroke-width="2" stroke-linecap="round" stroke-linejoin="round"/>
<path d="M915.505 1198.71H515.913V1109.91H915.505V1198.71Z" fill="white"/>
<path d="M915.505 1198.71H515.913V1109.91H915.505V1198.71Z" stroke="#0626A9" stroke-width="2" stroke-linecap="round" stroke-linejoin="round"/>
<path d="M546.59 1169.46L576.892 1139.16" stroke="#0626A9" stroke-width="2" stroke-linecap="round" stroke-linejoin="round"/>
<path d="M576.892 1169.46L546.59 1139.16" stroke="#0626A9" stroke-width="2" stroke-linecap="round" stroke-linejoin="round"/>
<path d="M609.912 1169.46L640.214 1139.16" stroke="#0626A9" stroke-width="2" stroke-linecap="round" stroke-linejoin="round"/>
<path d="M640.214 1169.46L609.912 1139.16" stroke="#0626A9" stroke-width="2" stroke-linecap="round" stroke-linejoin="round"/>
<path d="M673.233 1169.46L703.535 1139.16" stroke="#0626A9" stroke-width="2" stroke-linecap="round" stroke-linejoin="round"/>
<path d="M703.535 1169.46L673.233 1139.16" stroke="#0626A9" stroke-width="2" stroke-linecap="round" stroke-linejoin="round"/>
<path d="M736.555 1169.46L766.857 1139.16" stroke="#0626A9" stroke-width="2" stroke-linecap="round" stroke-linejoin="round"/>
<path d="M766.857 1169.46L736.555 1139.16" stroke="#0626A9" stroke-width="2" stroke-linecap="round" stroke-linejoin="round"/>
<path d="M883.861 1154.31C883.861 1167.01 873.568 1177.3 860.87 1177.3C848.172 1177.3 837.879 1167.01 837.879 1154.31C837.879 1141.61 848.172 1131.32 860.87 1131.32C873.568 1131.32 883.861 1141.61 883.861 1154.31Z" fill="#8869D5"/>
<path d="M849.566 1152.27L859.124 1161.83L875.544 1145.41" stroke="#0626A9" stroke-width="2" stroke-linecap="round" stroke-linejoin="round"/>
</g>
<path d="M471 1355C471 1331.93 461.834 1309.8 445.518 1293.48C429.203 1277.17 407.074 1268 384 1268C360.926 1268 338.797 1277.17 322.482 1293.48C306.166 1309.8 297 1331.93 297 1355" stroke="#8869D5" stroke-width="16" stroke-linecap="round" stroke-linejoin="round"/>
<path d="M384 1268C416.033 1268 442 1242.03 442 1210C442 1177.97 416.033 1152 384 1152C351.967 1152 326 1177.97 326 1210C326 1242.03 351.967 1268 384 1268Z" stroke="#8869D5" stroke-width="16" stroke-linecap="round" stroke-linejoin="round"/>
<path d="M384 1384C464.081 1384 529 1319.08 529 1239C529 1158.92 464.081 1094 384 1094C303.919 1094 239 1158.92 239 1239C239 1319.08 303.919 1384 384 1384Z" stroke="#8869D5" stroke-width="16" stroke-linecap="round" stroke-linejoin="round"/>
<mask id="mask3_24_16457" style="mask-type:luminance" maskUnits="userSpaceOnUse" x="0" y="0" width="1600" height="1600">
<path d="M0 0H1600V1600H0V0Z" fill="white"/>
</mask>
<g mask="url(#mask3_24_16457)">
<path d="M1314.1 421.844C1314.1 484.704 1280.1 539.624 1229.48 569.194C1204.83 583.604 1176.24 592.004 1145.72 592.384C1145 592.394 1144.28 592.394 1143.55 592.394C1049.36 592.394 973.001 516.044 973.001 421.844C973.001 327.654 1049.36 251.294 1143.55 251.294C1237.75 251.294 1314.1 327.654 1314.1 421.844Z" fill="#84AAE4"/>
<path d="M1314.1 421.844C1314.1 484.704 1280.1 539.624 1229.48 569.194C1204.83 583.604 1176.24 592.004 1145.72 592.384C1145 592.394 1144.28 592.394 1143.55 592.394C1049.36 592.394 973.001 516.044 973.001 421.844C973.001 327.654 1049.36 251.294 1143.55 251.294C1237.75 251.294 1314.1 327.654 1314.1 421.844Z" stroke="#0626A9" stroke-width="2" stroke-linecap="round" stroke-linejoin="round"/>
<path d="M999.168 331.619H1287.94" stroke="#0626A9" stroke-width="2" stroke-linecap="round" stroke-linejoin="round"/>
<path d="M999.169 513.212H1287.94" stroke="#0626A9" stroke-width="2" stroke-linecap="round" stroke-linejoin="round"/>
<path d="M973.006 422.416H1314.07" stroke="#0626A9" stroke-width="2" stroke-linecap="round" stroke-linejoin="round"/>
<path d="M1143.56 251.298C1099 249 1054.9 327.701 1054.9 421.893C1054.9 516.085 1095.5 592 1143.56 592.398" stroke="#0626A9" stroke-width="2" stroke-linecap="round" stroke-linejoin="round"/>
<path d="M1143.56 251.298C1143.56 299.5 1143.4 327.504 1143.4 421.696C1143.4 515.888 1143.56 534 1143.56 592.398" stroke="#0626A9" stroke-width="2" stroke-linecap="round" stroke-linejoin="round"/>
<path d="M1143.56 251.298C1192.35 251.298 1231.9 327.656 1231.9 421.848C1231.9 516.04 1192.35 592.398 1143.56 592.398" stroke="#0626A9" stroke-width="2" stroke-linecap="round" stroke-linejoin="round"/>
<path d="M1143.56 251.298C1235 251.298 1314.4 327.504 1314.4 421.696C1314.4 515.888 1237.5 592.398 1143.56 592.398" stroke="#0626A9" stroke-width="2" stroke-linecap="round" stroke-linejoin="round"/>
</g>
<mask id="mask4_24_16457" style="mask-type:alpha" maskUnits="userSpaceOnUse" x="972" y="250" width="344" height="344">
<mask id="mask5_24_16457" style="mask-type:luminance" maskUnits="userSpaceOnUse" x="0" y="0" width="1600" height="1600">
<path d="M0 0H1600V1600H0V0Z" fill="white"/>
</mask>
<g mask="url(#mask5_24_16457)">
<path d="M1314.1 421.844C1314.1 484.704 1280.1 539.624 1229.48 569.194C1204.83 583.604 1176.24 592.004 1145.72 592.384C1145 592.394 1144.28 592.394 1143.55 592.394C1049.36 592.394 973.001 516.044 973.001 421.844C973.001 327.654 1049.36 251.294 1143.55 251.294C1237.75 251.294 1314.1 327.654 1314.1 421.844Z" fill="#8484FA"/>
<path d="M1314.1 421.844C1314.1 484.704 1280.1 539.624 1229.48 569.194C1204.83 583.604 1176.24 592.004 1145.72 592.384C1145 592.394 1144.28 592.394 1143.55 592.394C1049.36 592.394 973.001 516.044 973.001 421.844C973.001 327.654 1049.36 251.294 1143.55 251.294C1237.75 251.294 1314.1 327.654 1314.1 421.844Z" stroke="#202870" stroke-width="2" stroke-linecap="round" stroke-linejoin="round"/>
<path d="M999.168 331.619H1287.94" stroke="#202870" stroke-width="2" stroke-linecap="round" stroke-linejoin="round"/>
<path d="M999.169 513.212H1287.94" stroke="#202870" stroke-width="2" stroke-linecap="round" stroke-linejoin="round"/>
<path d="M973.006 422.416H1314.07" stroke="#202870" stroke-width="2" stroke-linecap="round" stroke-linejoin="round"/>
<path d="M1143.56 251.298C1099 249 1054.9 327.701 1054.9 421.893C1054.9 516.085 1095.5 592 1143.56 592.398" stroke="#202870" stroke-width="2" stroke-linecap="round" stroke-linejoin="round"/>
<path d="M1143.56 251.298C1143.56 299.5 1143.4 327.504 1143.4 421.696C1143.4 515.888 1143.56 534 1143.56 592.398" stroke="#202870" stroke-width="2" stroke-linecap="round" stroke-linejoin="round"/>
<path d="M1143.56 251.298C1192.35 251.298 1231.9 327.656 1231.9 421.848C1231.9 516.04 1192.35 592.398 1143.56 592.398" stroke="#202870" stroke-width="2" stroke-linecap="round" stroke-linejoin="round"/>
<path d="M1143.56 251.298C1235 251.298 1314.4 327.504 1314.4 421.696C1314.4 515.888 1237.5 592.398 1143.56 592.398" stroke="#202870" stroke-width="2" stroke-linecap="round" stroke-linejoin="round"/>
</g>
</mask>
<g mask="url(#mask4_24_16457)">
<path d="M1537.6 1040.65C1512.95 1055.06 877.401 1082.03 846.881 1082.41L1192.76 483.573L1537.6 1040.65Z" fill="#0626A9"/>
<path d="M1537.6 1040.65C1512.95 1055.06 877.401 1082.03 846.881 1082.41L1192.76 483.573L1537.6 1040.65Z" stroke="#0626A9" stroke-width="2" stroke-linecap="round" stroke-linejoin="round"/>
</g>
<path d="M1353.61 520.313C1353.61 569.284 1313.91 608.983 1264.94 608.983C1215.97 608.983 1176.27 569.284 1176.27 520.313C1176.27 471.342 1215.97 431.643 1264.94 431.643C1313.91 431.643 1353.61 471.342 1353.61 520.313Z" fill="#8869D5"/>
<path d="M1353.61 520.313C1353.61 569.284 1313.91 608.983 1264.94 608.983C1215.97 608.983 1176.27 569.284 1176.27 520.313C1176.27 471.342 1215.97 431.643 1264.94 431.643C1313.91 431.643 1353.61 471.342 1353.61 520.313Z" stroke="#0626A9" stroke-width="2" stroke-linecap="round" stroke-linejoin="round"/>
<path d="M1255.21 563.448L1211.28 519.514L1225.42 505.372L1255.21 535.163L1311.47 478.906L1325.61 493.049L1255.21 563.448Z" fill="white"/>
<path d="M1255.21 563.448L1211.28 519.514L1225.42 505.372L1255.21 535.163L1311.47 478.906L1325.61 493.049L1255.21 563.448Z" stroke="#0626A9" stroke-width="2" stroke-linecap="round" stroke-linejoin="round"/>
</g>
</g>
<defs>
<clipPath id="clip0_24_16457">
<rect width="1600" height="1600" fill="white"/>
</clipPath>
</defs>
</svg>
