<svg width="1600" height="1600" viewBox="0 0 1600 1600" fill="none" xmlns="http://www.w3.org/2000/svg">
<g clip-path="url(#clip0_24_18742)">
<mask id="mask0_24_18742" style="mask-type:luminance" maskUnits="userSpaceOnUse" x="0" y="0" width="1600" height="1600">
<path d="M1600 0H0V1600H1600V0Z" fill="white"/>
</mask>
<g mask="url(#mask0_24_18742)">
<path d="M737 893.444H104.112V97H737V893.444Z" stroke="#0626A9" stroke-width="1.779" stroke-linecap="round" stroke-linejoin="round"/>
<path d="M1540.56 747.666H1202.78V97" stroke="#0626A9" stroke-width="1.934" stroke-linecap="round" stroke-linejoin="round"/>
<path d="M142.28 1385.28H1513.84" stroke="#0626A9" stroke-width="2" stroke-linecap="round" stroke-linejoin="round"/>
<path d="M930.2 1365.87H671.402V935.621H930.2V1365.87Z" fill="#84AAE4"/>
<path d="M930.2 1365.87H671.402V935.621H930.2V1365.87Z" stroke="#0626A9" stroke-width="1.934" stroke-linecap="round" stroke-linejoin="round"/>
<path d="M1012.15 1385.28H589.449V1381.77C589.449 1362.27 605.255 1346.46 624.752 1346.46H976.85C996.347 1346.46 1012.15 1362.27 1012.15 1381.77V1385.28Z" fill="#84AAE4"/>
<path d="M1012.15 1385.28H589.449V1381.77C589.449 1362.27 605.255 1346.46 624.752 1346.46H976.85C996.347 1346.46 1012.15 1362.27 1012.15 1381.77V1385.28Z" stroke="#0626A9" stroke-width="1.934" stroke-linecap="round" stroke-linejoin="round"/>
<path d="M670.593 1223.53L931.009 1158.83L929.391 1077.96L670.593 1145.89V1223.53Z" fill="#0626A9"/>
<path d="M1347.51 1149.94H254.09C239.797 1149.94 228.211 1138.35 228.211 1124.06V464.933C228.211 450.64 239.797 439.053 254.09 439.053H1347.51C1361.8 439.053 1373.39 450.64 1373.39 464.933V1124.06C1373.39 1138.35 1361.8 1149.94 1347.51 1149.94Z" fill="#84AAE4"/>
<path d="M1347.51 1149.94H254.09C239.797 1149.94 228.211 1138.35 228.211 1124.06V464.933C228.211 450.64 239.797 439.053 254.09 439.053H1347.51C1361.8 439.053 1373.39 450.64 1373.39 464.933V1124.06C1373.39 1138.35 1361.8 1149.94 1347.51 1149.94Z" stroke="#0626A9" stroke-width="1.934" stroke-linecap="round" stroke-linejoin="round"/>
<path d="M1356.41 1092.19H245.194V496.799H1356.41V1092.19Z" fill="white"/>
<path d="M1356.41 1092.19H245.194V496.799H1356.41V1092.19Z" stroke="#0626A9" stroke-width="1.934" stroke-linecap="round" stroke-linejoin="round"/>
<path d="M1336.19 1048.84H611.555V534.485H1336.19V1048.84Z" fill="white"/>
<path d="M1336.19 1048.84H611.555V534.485H1336.19V1048.84Z" stroke="#0626A9" stroke-width="1.934" stroke-linecap="round" stroke-linejoin="round"/>
<path d="M1109.45 1027.8H885.915V830.492H1109.45V1027.8Z" fill="#84AAE4"/>
<path d="M1109.45 1027.8H885.915V830.492H1109.45V1027.8Z" stroke="#0626A9" stroke-width="1.934" stroke-linecap="round" stroke-linejoin="round"/>
<path d="M1093.11 1010.25H902.25V848.045H1093.11V1010.25Z" fill="white"/>
<path d="M1093.11 1010.25H902.25V848.045H1093.11V1010.25Z" stroke="#0626A9" stroke-width="1.934" stroke-linecap="round" stroke-linejoin="round"/>
<path d="M960.417 906.667L990.917 937.167" stroke="#84AAE4" stroke-width="6" stroke-linecap="round" stroke-linejoin="round"/>
<path d="M955.333 937.167L985.833 906.667L996 891.417" stroke="#84AAE4" stroke-width="6" stroke-linecap="round" stroke-linejoin="round"/>
<path d="M945.167 891.417H1006.17" stroke="#84AAE4" stroke-width="6" stroke-linecap="round" stroke-linejoin="round"/>
<path d="M970.583 876.167H975.666" stroke="#84AAE4" stroke-width="6" stroke-linecap="round" stroke-linejoin="round"/>
<path d="M1046.83 977.833L1021.42 927L996 977.833" stroke="#84AAE4" stroke-width="6" stroke-linecap="round" stroke-linejoin="round"/>
<path d="M1006.17 957.5H1036.67" stroke="#84AAE4" stroke-width="6" stroke-linecap="round" stroke-linejoin="round"/>
<path d="M1149.89 569.989H1299.48" stroke="#0626A9" stroke-width="1.934" stroke-linecap="round" stroke-linejoin="round"/>
<path d="M1149.89 600.94H1299.48" stroke="#0626A9" stroke-width="1.934" stroke-linecap="round" stroke-linejoin="round"/>
<path d="M1149.89 631.891H1299.48" stroke="#0626A9" stroke-width="1.934" stroke-linecap="round" stroke-linejoin="round"/>
<path d="M1149.89 662.842H1299.48" stroke="#0626A9" stroke-width="1.934" stroke-linecap="round" stroke-linejoin="round"/>
<path d="M1149.89 693.793H1299.48" stroke="#0626A9" stroke-width="1.934" stroke-linecap="round" stroke-linejoin="round"/>
<path d="M1149.89 724.743H1299.48" stroke="#0626A9" stroke-width="1.934" stroke-linecap="round" stroke-linejoin="round"/>
<path d="M1149.89 755.694H1299.48" stroke="#0626A9" stroke-width="1.934" stroke-linecap="round" stroke-linejoin="round"/>
<path d="M1149.89 786.645H1299.48" stroke="#0626A9" stroke-width="1.934" stroke-linecap="round" stroke-linejoin="round"/>
<path d="M1149.89 817.596H1299.48" stroke="#0626A9" stroke-width="1.934" stroke-linecap="round" stroke-linejoin="round"/>
<path d="M1299.45 1048.87V846.827H1149.89V1048.87" stroke="#0626A9" stroke-width="1.934" stroke-linecap="round" stroke-linejoin="round"/>
<path d="M635.729 1027.8H852.385V560.962H635.729V1027.8Z" stroke="#0626A9" stroke-width="1.934" stroke-linecap="round" stroke-linejoin="round"/>
<path d="M323.866 693.019H516.689C542.358 693.019 563.167 713.828 563.167 739.497V1048.85H298.813V718.072C298.813 704.235 310.029 693.019 323.866 693.019Z" fill="white"/>
<path d="M323.866 693.019H516.689C542.358 693.019 563.167 713.828 563.167 739.497V1048.85H298.813V718.072C298.813 704.235 310.029 693.019 323.866 693.019Z" stroke="#0626A9" stroke-width="2" stroke-linecap="round" stroke-linejoin="round"/>
<path d="M542.724 705.558C528.502 697.019 516.492 707.191 511.613 727.78C505.983 751.537 501.835 770.352 501.835 770.352L269.058 773.944C269.058 773.944 270.724 761.612 277.561 738.115C286.275 708.17 299.808 691.617 325.249 693.019L521.391 693.463" fill="white"/>
<path d="M542.724 705.558C528.502 697.019 516.492 707.191 511.613 727.78C505.983 751.537 501.835 770.352 501.835 770.352L269.058 773.944C269.058 773.944 270.724 761.612 277.561 738.115C286.275 708.17 299.808 691.617 325.249 693.019L521.391 693.463" stroke="#0626A9" stroke-width="2" stroke-linecap="round" stroke-linejoin="round"/>
<path d="M300.368 812.338L495.265 770.352L297.983 774.056L300.368 812.338Z" fill="#0626A9"/>
<path d="M508.28 1489.91H460.28C453.162 1489.91 447.391 1484.14 447.391 1477.02C447.391 1469.9 453.162 1464.13 460.28 1464.13H508.28C515.398 1464.13 521.169 1469.9 521.169 1477.02C521.169 1484.14 515.398 1489.91 508.28 1489.91Z" fill="white"/>
<path d="M508.28 1489.91H460.28C453.162 1489.91 447.391 1484.14 447.391 1477.02C447.391 1469.9 453.162 1464.13 460.28 1464.13H508.28C515.398 1464.13 521.169 1469.9 521.169 1477.02C521.169 1484.14 515.398 1489.91 508.28 1489.91Z" stroke="#0626A9" stroke-width="1.934" stroke-linecap="round" stroke-linejoin="round"/>
<path d="M600.724 1489.91H552.724C545.606 1489.91 539.835 1484.14 539.835 1477.02C539.835 1469.9 545.606 1464.13 552.724 1464.13H600.724C607.842 1464.13 613.613 1469.9 613.613 1477.02C613.613 1484.14 607.842 1489.91 600.724 1489.91Z" fill="white"/>
<path d="M600.724 1489.91H552.724C545.606 1489.91 539.835 1484.14 539.835 1477.02C539.835 1469.9 545.606 1464.13 552.724 1464.13H600.724C607.842 1464.13 613.613 1469.9 613.613 1477.02C613.613 1484.14 607.842 1489.91 600.724 1489.91Z" stroke="#0626A9" stroke-width="1.934" stroke-linecap="round" stroke-linejoin="round"/>
<path d="M1039.83 1489.91H991.834C984.716 1489.91 978.945 1484.14 978.945 1477.02C978.945 1469.9 984.716 1464.13 991.834 1464.13H1039.83C1046.95 1464.13 1052.72 1469.9 1052.72 1477.02C1052.72 1484.14 1046.95 1489.91 1039.83 1489.91Z" fill="white"/>
<path d="M1039.83 1489.91H991.834C984.716 1489.91 978.945 1484.14 978.945 1477.02C978.945 1469.9 984.716 1464.13 991.834 1464.13H1039.83C1046.95 1464.13 1052.72 1469.9 1052.72 1477.02C1052.72 1484.14 1046.95 1489.91 1039.83 1489.91Z" stroke="#0626A9" stroke-width="1.934" stroke-linecap="round" stroke-linejoin="round"/>
<path d="M1133.17 1489.91H1085.17C1078.05 1489.91 1072.28 1484.14 1072.28 1477.02C1072.28 1469.9 1078.05 1464.13 1085.17 1464.13H1133.17C1140.29 1464.13 1146.06 1469.9 1146.06 1477.02C1146.06 1484.14 1140.29 1489.91 1133.17 1489.91Z" fill="white"/>
<path d="M1133.17 1489.91H1085.17C1078.05 1489.91 1072.28 1484.14 1072.28 1477.02C1072.28 1469.9 1078.05 1464.13 1085.17 1464.13H1133.17C1140.29 1464.13 1146.06 1469.9 1146.06 1477.02C1146.06 1484.14 1140.29 1489.91 1133.17 1489.91Z" stroke="#0626A9" stroke-width="1.934" stroke-linecap="round" stroke-linejoin="round"/>
<path d="M946.057 1489.91H643.391C636.273 1489.91 630.502 1484.14 630.502 1477.02C630.502 1469.9 636.273 1464.13 643.391 1464.13H946.057C953.175 1464.13 958.946 1469.9 958.946 1477.02C958.946 1484.14 953.175 1489.91 946.057 1489.91Z" fill="white"/>
<path d="M946.057 1489.91H643.391C636.273 1489.91 630.502 1484.14 630.502 1477.02C630.502 1469.9 636.273 1464.13 643.391 1464.13H946.057C953.175 1464.13 958.946 1469.9 958.946 1477.02C958.946 1484.14 953.175 1489.91 946.057 1489.91Z" stroke="#0626A9" stroke-width="1.934" stroke-linecap="round" stroke-linejoin="round"/>
<path d="M1201.61 1510.3H400.428C400.428 1491.19 415.927 1475.69 435.046 1475.69H1167C1186.11 1475.69 1201.61 1491.19 1201.61 1510.3Z" fill="white"/>
<path d="M1201.61 1510.3H400.428C400.428 1491.19 415.927 1475.69 435.046 1475.69H1167C1186.11 1475.69 1201.61 1491.19 1201.61 1510.3Z" stroke="#0626A9" stroke-width="1.934" stroke-linecap="round" stroke-linejoin="round"/>
<path d="M189.836 1510.3H1484.5" stroke="#0626A9" stroke-width="2" stroke-linecap="round" stroke-linejoin="round"/>
<path d="M358 847H507.596" stroke="#0626A9" stroke-width="1.934" stroke-linecap="round" stroke-linejoin="round"/>
<path d="M358 877.951H507.596" stroke="#0626A9" stroke-width="1.934" stroke-linecap="round" stroke-linejoin="round"/>
<path d="M358 908.902H507.596" stroke="#0626A9" stroke-width="1.934" stroke-linecap="round" stroke-linejoin="round"/>
<path d="M358 939.852H507.596" stroke="#0626A9" stroke-width="1.934" stroke-linecap="round" stroke-linejoin="round"/>
<path d="M358 970.803H507.596" stroke="#0626A9" stroke-width="1.934" stroke-linecap="round" stroke-linejoin="round"/>
<path d="M668 595H817.596" stroke="#0626A9" stroke-width="1.934" stroke-linecap="round" stroke-linejoin="round"/>
<path d="M668 625.951H817.596" stroke="#0626A9" stroke-width="1.934" stroke-linecap="round" stroke-linejoin="round"/>
<path d="M668 656.902H817.596" stroke="#0626A9" stroke-width="1.934" stroke-linecap="round" stroke-linejoin="round"/>
<path d="M668 687.852H817.596" stroke="#0626A9" stroke-width="1.934" stroke-linecap="round" stroke-linejoin="round"/>
<path d="M668 718.803H817.596" stroke="#0626A9" stroke-width="1.934" stroke-linecap="round" stroke-linejoin="round"/>
<path d="M668 841H817.596" stroke="#0626A9" stroke-width="1.934" stroke-linecap="round" stroke-linejoin="round"/>
<path d="M668 871.951H817.596" stroke="#0626A9" stroke-width="1.934" stroke-linecap="round" stroke-linejoin="round"/>
<path d="M668 902.902H817.596" stroke="#0626A9" stroke-width="1.934" stroke-linecap="round" stroke-linejoin="round"/>
<path d="M668 933.852H817.596" stroke="#0626A9" stroke-width="1.934" stroke-linecap="round" stroke-linejoin="round"/>
<path d="M668 964.803H817.596" stroke="#0626A9" stroke-width="1.934" stroke-linecap="round" stroke-linejoin="round"/>
</g>
</g>
<defs>
<clipPath id="clip0_24_18742">
<rect width="1600" height="1600" fill="white"/>
</clipPath>
</defs>
</svg>
