<svg width="1600" height="1600" viewBox="0 0 1600 1600" fill="none" xmlns="http://www.w3.org/2000/svg">
<g clip-path="url(#clip0_25_44042)">
<mask id="mask0_25_44042" style="mask-type:luminance" maskUnits="userSpaceOnUse" x="0" y="0" width="1600" height="1600">
<path d="M1600 0H0V1600H1600V0Z" fill="white"/>
</mask>
<g mask="url(#mask0_25_44042)">
<mask id="mask1_25_44042" style="mask-type:luminance" maskUnits="userSpaceOnUse" x="0" y="0" width="1600" height="1600">
<path d="M1600 0H0V1600H1600V0Z" fill="white"/>
</mask>
<g mask="url(#mask1_25_44042)">
<path d="M747.195 486.404V640.584H807.513V689.17" stroke="#0626A9" stroke-width="2" stroke-miterlimit="10" stroke-dasharray="60 60"/>
<path d="M781.043 483.075V551.545H1035.87" stroke="#0626A9" stroke-width="2" stroke-miterlimit="10" stroke-dasharray="60 60"/>
<path d="M709.261 480.574L709.369 634.754H593.699" stroke="#0626A9" stroke-width="2" stroke-miterlimit="10" stroke-dasharray="60 60"/>
<path d="M646.207 635.095V958.336H594.706L594.359 1002.21" stroke="#0626A9" stroke-width="2" stroke-miterlimit="10" stroke-dasharray="60 60"/>
<path d="M537.374 303.397V349.067H601.508" stroke="#0626A9" stroke-width="2" stroke-miterlimit="10" stroke-dasharray="60 60"/>
<path d="M421.415 373.037V268.415H493.647" stroke="#0626A9" stroke-width="2" stroke-miterlimit="10" stroke-dasharray="60 60"/>
<path d="M652.547 179.188L716.171 179.988V200.394" stroke="#0626A9" stroke-width="2" stroke-miterlimit="10" stroke-dasharray="60 60"/>
<path d="M836.664 227.602V199.422H935.744" stroke="#0626A9" stroke-width="2" stroke-miterlimit="10" stroke-dasharray="60 60"/>
<path d="M889.138 366.558H929.95V277.16H1033.02V321.859" stroke="#0626A9" stroke-width="2" stroke-miterlimit="10" stroke-dasharray="60 60"/>
<path d="M119.332 1206.19H417.302" stroke="#0626A9" stroke-width="2" stroke-miterlimit="10"/>
<path d="M798.608 1443.22H1177.58" stroke="#0626A9" stroke-width="2" stroke-miterlimit="10"/>
<path d="M1157.3 1176.66H1497.6" stroke="#0626A9" stroke-width="2" stroke-miterlimit="10"/>
<path d="M565.018 421.953C565.018 425.71 561.973 428.755 558.216 428.755C554.459 428.755 551.414 425.71 551.414 421.953C551.414 418.196 554.459 415.151 558.216 415.151C561.973 415.151 565.018 418.196 565.018 421.953Z" fill="#84AAE4"/>
<path d="M565.018 421.953C565.018 425.71 561.973 428.755 558.216 428.755C554.459 428.755 551.414 425.71 551.414 421.953C551.414 418.196 554.459 415.151 558.216 415.151C561.973 415.151 565.018 418.196 565.018 421.953Z" stroke="#0626A9" stroke-width="2" stroke-miterlimit="10"/>
<path d="M560.107 383.83C560.107 386.513 557.931 388.689 555.248 388.689C552.565 388.689 550.389 386.513 550.389 383.83C550.389 381.147 552.565 378.971 555.248 378.971C557.931 378.971 560.107 381.147 560.107 383.83Z" fill="#84AAE4"/>
<path d="M560.107 383.83C560.107 386.513 557.931 388.689 555.248 388.689C552.565 388.689 550.389 386.513 550.389 383.83C550.389 381.147 552.565 378.971 555.248 378.971C557.931 378.971 560.107 381.147 560.107 383.83Z" stroke="#0626A9" stroke-width="2" stroke-miterlimit="10"/>
<path d="M326.088 502.007C326.088 504.69 323.912 506.866 321.229 506.866C318.546 506.866 316.37 504.69 316.37 502.007C316.37 499.324 318.546 497.148 321.229 497.148C323.912 497.148 326.088 499.324 326.088 502.007Z" fill="#84AAE4"/>
<path d="M326.088 502.007C326.088 504.69 323.912 506.866 321.229 506.866C318.546 506.866 316.37 504.69 316.37 502.007C316.37 499.324 318.546 497.148 321.229 497.148C323.912 497.148 326.088 499.324 326.088 502.007Z" stroke="#0626A9" stroke-width="2" stroke-miterlimit="10"/>
<path d="M850.95 381.817C850.95 385.037 848.34 387.647 845.12 387.647C841.9 387.647 839.29 385.037 839.29 381.817C839.29 378.597 841.9 375.987 845.12 375.987C848.34 375.987 850.95 378.597 850.95 381.817Z" fill="#84AAE4"/>
<path d="M850.95 381.817C850.95 385.037 848.34 387.647 845.12 387.647C841.9 387.647 839.29 385.037 839.29 381.817C839.29 378.597 841.9 375.987 845.12 375.987C848.34 375.987 850.95 378.597 850.95 381.817Z" stroke="#0626A9" stroke-width="2" stroke-miterlimit="10"/>
<path d="M977.064 471.68C977.064 476.51 973.149 480.425 968.319 480.425C963.489 480.425 959.574 476.51 959.574 471.68C959.574 466.85 963.489 462.935 968.319 462.935C973.149 462.935 977.064 466.85 977.064 471.68Z" fill="#84AAE4"/>
<path d="M977.064 471.68C977.064 476.51 973.149 480.425 968.319 480.425C963.489 480.425 959.574 476.51 959.574 471.68C959.574 466.85 963.489 462.935 968.319 462.935C973.149 462.935 977.064 466.85 977.064 471.68Z" stroke="#0626A9" stroke-width="2" stroke-miterlimit="10"/>
<path d="M918.727 435.613C918.727 437.223 917.422 438.528 915.812 438.528C914.202 438.528 912.896 437.223 912.896 435.613C912.896 434.003 914.202 432.698 915.812 432.698C917.422 432.698 918.727 434.003 918.727 435.613Z" fill="#84AAE4"/>
<path d="M918.727 435.613C918.727 437.223 917.422 438.528 915.812 438.528C914.202 438.528 912.896 437.223 912.896 435.613C912.896 434.003 914.202 432.698 915.812 432.698C917.422 432.698 918.727 434.003 918.727 435.613Z" stroke="#0626A9" stroke-width="2" stroke-miterlimit="10"/>
<path d="M204.844 828.353C204.844 832.333 201.618 835.559 197.638 835.559C193.658 835.559 190.432 832.333 190.432 828.353C190.432 824.373 193.658 821.147 197.638 821.147C201.618 821.147 204.844 824.373 204.844 828.353Z" fill="#84AAE4"/>
<path d="M204.844 828.353C204.844 832.333 201.618 835.559 197.638 835.559C193.658 835.559 190.432 832.333 190.432 828.353C190.432 824.373 193.658 821.147 197.638 821.147C201.618 821.147 204.844 824.373 204.844 828.353Z" stroke="#0626A9" stroke-width="2" stroke-miterlimit="10"/>
<path d="M1161.47 527.545C1161.47 530.107 1159.4 532.184 1156.83 532.184C1154.27 532.184 1152.2 530.107 1152.2 527.545C1152.2 524.983 1154.27 522.906 1156.83 522.906C1159.4 522.906 1161.47 524.983 1161.47 527.545Z" fill="#84AAE4"/>
<path d="M1161.47 527.545C1161.47 530.107 1159.4 532.184 1156.83 532.184C1154.27 532.184 1152.2 530.107 1152.2 527.545C1152.2 524.983 1154.27 522.906 1156.83 522.906C1159.4 522.906 1161.47 524.983 1161.47 527.545Z" stroke="#0626A9" stroke-width="2" stroke-miterlimit="10"/>
<path d="M908.077 650.192C908.077 655.827 903.509 660.395 897.874 660.395C892.239 660.395 887.671 655.827 887.671 650.192C887.671 644.557 892.239 639.989 897.874 639.989C903.509 639.989 908.077 644.557 908.077 650.192Z" fill="#8869D5"/>
<path d="M908.077 650.192C908.077 655.827 903.509 660.395 897.874 660.395C892.239 660.395 887.671 655.827 887.671 650.192C887.671 644.557 892.239 639.989 897.874 639.989C903.509 639.989 908.077 644.557 908.077 650.192Z" stroke="#0626A9" stroke-width="2" stroke-linecap="round" stroke-linejoin="round"/>
<path d="M675.667 930.11C675.667 933.209 673.155 935.721 670.056 935.721C666.957 935.721 664.445 933.209 664.445 930.11C664.445 927.011 666.957 924.499 670.056 924.499C673.155 924.499 675.667 927.011 675.667 930.11Z" fill="#8869D5"/>
<path d="M675.667 930.11C675.667 933.209 673.155 935.721 670.056 935.721C666.957 935.721 664.445 933.209 664.445 930.11C664.445 927.011 666.957 924.499 670.056 924.499C673.155 924.499 675.667 927.011 675.667 930.11Z" stroke="#0626A9" stroke-width="2" stroke-linecap="round" stroke-linejoin="round"/>
<path d="M1132.02 502.843V322.067H1060.76H989.501V502.843H1132.02Z" fill="#84AAE4"/>
<path d="M1132.02 502.843V322.067H1060.76H989.501V502.843H1132.02Z" stroke="#0626A9" stroke-width="2" stroke-miterlimit="10"/>
<path d="M520.142 623.558V375.446H448.882H377.622V623.558H520.142Z" fill="white"/>
<path d="M520.142 623.558V375.446H448.882H377.622V623.558H520.142Z" stroke="#0626A9" stroke-width="2" stroke-linecap="round" stroke-linejoin="round"/>
<mask id="mask2_25_44042" style="mask-type:alpha" maskUnits="userSpaceOnUse" x="376" y="374" width="146" height="251">
<path d="M520.142 623.558V375.446H448.882H377.622V623.558H520.142Z" fill="white"/>
<path d="M520.142 623.558V375.446H448.882H377.622V623.558H520.142Z" stroke="#202870" stroke-width="2" stroke-linecap="round" stroke-linejoin="round"/>
</mask>
<g mask="url(#mask2_25_44042)">
<path d="M590.471 757.085V458.902L447.327 458.997L428.067 598.763L406.235 757.182L590.471 757.085Z" fill="#0626A9"/>
</g>
<path d="M590.441 929.715H447.921V459.403H519.181H590.441V929.715Z" fill="white"/>
<path d="M590.441 929.715H447.921V459.403H519.181H590.441V929.715Z" stroke="#0626A9" stroke-width="2" stroke-linecap="round" stroke-linejoin="round"/>
<mask id="mask3_25_44042" style="mask-type:alpha" maskUnits="userSpaceOnUse" x="446" y="458" width="146" height="473">
<path d="M590.441 929.715H447.921V459.403H519.181H590.441V929.715Z" fill="white"/>
<path d="M590.441 929.715H447.921V459.403H519.181H590.441V929.715Z" stroke="#202870" stroke-width="2" stroke-linecap="round" stroke-linejoin="round"/>
</mask>
<g mask="url(#mask3_25_44042)">
<path d="M474.482 502.143H519.181H563.88" stroke="#0626A9" stroke-width="2" stroke-linecap="round" stroke-linejoin="round"/>
<path d="M474.482 544.884H519.181H563.88" stroke="#0626A9" stroke-width="2" stroke-linecap="round" stroke-linejoin="round"/>
<path d="M474.482 758.589H519.181H563.88" stroke="#0626A9" stroke-width="2" stroke-linecap="round" stroke-linejoin="round"/>
<path d="M474.482 801.33H519.181H563.88" stroke="#0626A9" stroke-width="2" stroke-linecap="round" stroke-linejoin="round"/>
<path d="M474.482 844.071H519.181H563.88" stroke="#0626A9" stroke-width="2" stroke-linecap="round" stroke-linejoin="round"/>
<path d="M474.482 886.812H519.181H563.88" stroke="#0626A9" stroke-width="2" stroke-linecap="round" stroke-linejoin="round"/>
<path d="M564.204 715.813H474.158V587.545H564.204V715.813Z" fill="#84AAE4"/>
<path d="M564.204 715.813H474.158V587.545H564.204V715.813Z" stroke="#0626A9" stroke-width="2" stroke-miterlimit="10"/>
</g>
<path d="M651.864 302.254V119.886H577.147H502.43V302.254H651.864Z" fill="#84AAE4"/>
<path d="M651.864 302.254V119.886H577.147H502.43V302.254H651.864Z" stroke="#0626A9" stroke-width="2" stroke-miterlimit="10"/>
<path d="M870.912 1157.39H728.392V687.075H799.652H870.912V1157.39Z" fill="#84AAE4"/>
<path d="M870.912 1157.39H728.392V687.075H799.652H870.912V1157.39Z" stroke="#0626A9" stroke-width="2" stroke-miterlimit="10"/>
<mask id="mask4_25_44042" style="mask-type:alpha" maskUnits="userSpaceOnUse" x="727" y="686" width="145" height="473">
<path d="M870.912 1157.39H728.392V687.075H799.652H870.912V1157.39Z" fill="#8484FA"/>
<path d="M870.912 1157.39H728.392V687.075H799.652H870.912V1157.39Z" stroke="#202870" stroke-width="2" stroke-miterlimit="10"/>
</mask>
<g mask="url(#mask4_25_44042)">
<path d="M754.952 729.815H799.651H844.35" stroke="white" stroke-width="2" stroke-linecap="round" stroke-linejoin="round"/>
<path d="M754.952 772.556H799.651H844.35" stroke="white" stroke-width="2" stroke-linecap="round" stroke-linejoin="round"/>
<path d="M754.952 943.52H799.651H844.35" stroke="white" stroke-width="2" stroke-linecap="round" stroke-linejoin="round"/>
<path d="M754.952 986.261H799.651H815.738" stroke="white" stroke-width="2" stroke-linecap="round" stroke-linejoin="round"/>
<path d="M754.952 1029H799.651H844.35" stroke="white" stroke-width="2" stroke-linecap="round" stroke-linejoin="round"/>
<path d="M818.727 1071.74H844.351" stroke="white" stroke-width="2" stroke-linecap="round" stroke-linejoin="round"/>
<path d="M754.952 1114.48H799.651H844.35" stroke="white" stroke-width="2" stroke-linecap="round" stroke-linejoin="round"/>
<path d="M799.003 815.179H844.673" stroke="white" stroke-width="2" stroke-linecap="round" stroke-linejoin="round"/>
</g>
<mask id="mask5_25_44042" style="mask-type:alpha" maskUnits="userSpaceOnUse" x="988" y="321" width="146" height="183">
<path d="M1132.02 502.843V322.067H1060.76H989.501V502.843H1132.02Z" fill="#8484FA"/>
<path d="M1132.02 502.843V322.067H1060.76H989.501V502.843H1132.02Z" stroke="#202870" stroke-width="2" stroke-miterlimit="10"/>
</mask>
<g mask="url(#mask5_25_44042)">
<path d="M1169.76 488.52V457.727H1060.99L1027.24 457.483L926.67 650.795L1169.76 706.957V488.52Z" fill="#0626A9"/>
</g>
<path d="M1171.52 927.521H1029V457.209H1100.26H1171.52V927.521Z" fill="white"/>
<path d="M1171.52 927.521H1029V457.209H1100.26H1171.52V927.521Z" stroke="#0626A9" stroke-width="2" stroke-linecap="round" stroke-linejoin="round"/>
<mask id="mask6_25_44042" style="mask-type:alpha" maskUnits="userSpaceOnUse" x="1028" y="456" width="145" height="473">
<path d="M1171.52 927.521H1029V457.209H1100.26H1171.52V927.521Z" fill="white"/>
<path d="M1171.52 927.521H1029V457.209H1100.26H1171.52V927.521Z" stroke="#202870" stroke-width="2" stroke-linecap="round" stroke-linejoin="round"/>
</mask>
<g mask="url(#mask6_25_44042)">
<path d="M1055.56 499.95H1100.26H1144.96" stroke="#0626A9" stroke-width="2" stroke-linecap="round" stroke-linejoin="round"/>
<path d="M1055.56 542.691H1100.26H1144.96" stroke="#0626A9" stroke-width="2" stroke-linecap="round" stroke-linejoin="round"/>
<path d="M1055.56 713.655H1100.26H1144.96" stroke="#0626A9" stroke-width="2" stroke-linecap="round" stroke-linejoin="round"/>
<path d="M1055.56 756.396H1100.26H1144.96" stroke="#0626A9" stroke-width="2" stroke-linecap="round" stroke-linejoin="round"/>
<path d="M1055.99 670.899H1100.69H1145.39" stroke="#0626A9" stroke-width="2" stroke-linecap="round" stroke-linejoin="round"/>
<path d="M1055.56 799.137H1100.26H1144.96" stroke="#0626A9" stroke-width="2" stroke-linecap="round" stroke-linejoin="round"/>
<path d="M1055.56 841.878H1100.26H1144.96" stroke="#0626A9" stroke-width="2" stroke-linecap="round" stroke-linejoin="round"/>
<path d="M1055.56 884.619H1100.26H1144.96" stroke="#0626A9" stroke-width="2" stroke-linecap="round" stroke-linejoin="round"/>
<path d="M1125.31 585.314H1145.28" stroke="#0626A9" stroke-width="2" stroke-linecap="round" stroke-linejoin="round"/>
<path d="M1055.56 929.377H1100.26H1144.96" stroke="#0626A9" stroke-width="2" stroke-linecap="round" stroke-linejoin="round"/>
</g>
<path d="M517.236 1282.98V991.304H588.496H659.756V1282.98" fill="white"/>
<path d="M517.236 1282.98V991.304H588.496H659.756V1282.98" stroke="#0626A9" stroke-width="2" stroke-linecap="round" stroke-linejoin="round"/>
<mask id="mask7_25_44042" style="mask-type:alpha" maskUnits="userSpaceOnUse" x="516" y="990" width="145" height="294">
<path d="M517.236 1282.98V991.304H588.496H659.756V1282.98" fill="white"/>
<path d="M517.236 1282.98V991.304H588.496H659.756V1282.98" stroke="#202870" stroke-width="2" stroke-linecap="round" stroke-linejoin="round"/>
</mask>
<g mask="url(#mask7_25_44042)">
<path d="M633.521 1250.54H543.475V1018.13H633.521V1250.54Z" fill="#84AAE4"/>
<path d="M633.521 1250.54H543.475V1018.13H633.521V1250.54Z" stroke="#0626A9" stroke-width="2" stroke-miterlimit="10"/>
</g>
<mask id="mask8_25_44042" style="mask-type:alpha" maskUnits="userSpaceOnUse" x="500" y="119" width="152" height="186">
<path d="M650.985 303.217V120.849H576.268H501.551V303.217H650.985Z" fill="#8484FA"/>
<path d="M650.985 303.217V120.849H576.268H501.551V303.217H650.985Z" stroke="#202870" stroke-width="2" stroke-miterlimit="10"/>
</mask>
<g mask="url(#mask8_25_44042)">
<path d="M861.877 339.151C861.877 418.535 797.523 482.889 718.139 482.889C638.755 482.889 574.401 418.535 574.401 339.151C574.401 259.767 638.755 195.413 718.139 195.413C797.523 195.413 861.877 259.767 861.877 339.151Z" fill="#0626A9"/>
<path d="M861.877 339.151C861.877 418.535 797.523 482.889 718.139 482.889C638.755 482.889 574.401 418.535 574.401 339.151C574.401 259.767 638.755 195.413 718.139 195.413C797.523 195.413 861.877 259.767 861.877 339.151Z" stroke="#0626A9" stroke-width="2" stroke-linecap="round" stroke-linejoin="round"/>
</g>
<path d="M889.879 341.584C889.879 420.968 825.525 485.322 746.141 485.322C666.757 485.322 602.403 420.968 602.403 341.584C602.403 262.2 666.757 197.846 746.141 197.846C825.525 197.846 889.879 262.2 889.879 341.584Z" fill="white"/>
<path d="M889.879 341.584C889.879 420.968 825.525 485.322 746.141 485.322C666.757 485.322 602.403 420.968 602.403 341.584C602.403 262.2 666.757 197.846 746.141 197.846C825.525 197.846 889.879 262.2 889.879 341.584Z" stroke="#0626A9" stroke-width="2" stroke-linecap="round" stroke-linejoin="round"/>
<path d="M820.25 416.25L784.445 380.445" stroke="#84AAE4" stroke-width="8" stroke-linecap="round" stroke-linejoin="round"/>
<path d="M737.75 399.75C774.201 399.75 803.75 370.201 803.75 333.75C803.75 297.299 774.201 267.75 737.75 267.75C701.299 267.75 671.75 297.299 671.75 333.75C671.75 370.201 701.299 399.75 737.75 399.75Z" stroke="#84AAE4" stroke-width="8" stroke-linecap="round" stroke-linejoin="round"/>
</g>
</g>
</g>
<defs>
<clipPath id="clip0_25_44042">
<rect width="1600" height="1600" fill="white"/>
</clipPath>
</defs>
</svg>
