<svg width="1600" height="1600" viewBox="0 0 1600 1600" fill="none" xmlns="http://www.w3.org/2000/svg">
<g clip-path="url(#clip0_24_20100)">
<mask id="mask0_24_20100" style="mask-type:luminance" maskUnits="userSpaceOnUse" x="0" y="0" width="1600" height="1600">
<path d="M1600 0H0V1600H1600V0Z" fill="white"/>
</mask>
<g mask="url(#mask0_24_20100)">
<path d="M747.195 486.404V640.584H807.513V689.17" stroke="#0626A9" stroke-width="2" stroke-miterlimit="10" stroke-dasharray="60 60"/>
<path d="M781.043 483.075V551.545H1035.87" stroke="#0626A9" stroke-width="2" stroke-miterlimit="10" stroke-dasharray="60 60"/>
<path d="M709.261 480.574L709.369 634.754H593.699" stroke="#0626A9" stroke-width="2" stroke-miterlimit="10" stroke-dasharray="60 60"/>
<path d="M646.207 635.095V958.336H594.706L594.359 1002.21" stroke="#0626A9" stroke-width="2" stroke-miterlimit="10" stroke-dasharray="60 60"/>
<path d="M537.374 303.397V349.067H601.508" stroke="#0626A9" stroke-width="2" stroke-miterlimit="10" stroke-dasharray="60 60"/>
<path d="M421.415 373.037V268.415H493.647" stroke="#0626A9" stroke-width="2" stroke-miterlimit="10" stroke-dasharray="60 60"/>
<path d="M652.547 179.188L716.171 179.988V200.394" stroke="#0626A9" stroke-width="2" stroke-miterlimit="10" stroke-dasharray="60 60"/>
<path d="M836.664 227.602V199.422H935.744" stroke="#0626A9" stroke-width="2" stroke-miterlimit="10" stroke-dasharray="60 60"/>
<path d="M889.138 366.558H929.95V277.16H1033.02V321.859" stroke="#0626A9" stroke-width="2" stroke-miterlimit="10" stroke-dasharray="60 60"/>
<path d="M119.332 1206.19H417.302" stroke="#0626A9" stroke-width="2" stroke-miterlimit="10"/>
<path d="M798.608 1443.22H1177.58" stroke="#0626A9" stroke-width="2" stroke-miterlimit="10"/>
<path d="M1157.3 1176.66H1497.6" stroke="#0626A9" stroke-width="2" stroke-miterlimit="10"/>
<path d="M565.018 421.953C565.018 425.71 561.973 428.755 558.216 428.755C554.459 428.755 551.414 425.71 551.414 421.953C551.414 418.196 554.459 415.151 558.216 415.151C561.973 415.151 565.018 418.196 565.018 421.953Z" fill="#84AAE4"/>
<path d="M565.018 421.953C565.018 425.71 561.973 428.755 558.216 428.755C554.459 428.755 551.414 425.71 551.414 421.953C551.414 418.196 554.459 415.151 558.216 415.151C561.973 415.151 565.018 418.196 565.018 421.953Z" stroke="#0626A9" stroke-width="2" stroke-miterlimit="10"/>
<path d="M560.107 383.83C560.107 386.513 557.931 388.689 555.248 388.689C552.565 388.689 550.389 386.513 550.389 383.83C550.389 381.147 552.565 378.971 555.248 378.971C557.931 378.971 560.107 381.147 560.107 383.83Z" fill="#84AAE4"/>
<path d="M560.107 383.83C560.107 386.513 557.931 388.689 555.248 388.689C552.565 388.689 550.389 386.513 550.389 383.83C550.389 381.147 552.565 378.971 555.248 378.971C557.931 378.971 560.107 381.147 560.107 383.83Z" stroke="#0626A9" stroke-width="2" stroke-miterlimit="10"/>
<path d="M326.088 502.007C326.088 504.69 323.912 506.866 321.229 506.866C318.546 506.866 316.37 504.69 316.37 502.007C316.37 499.324 318.546 497.148 321.229 497.148C323.912 497.148 326.088 499.324 326.088 502.007Z" fill="#84AAE4"/>
<path d="M326.088 502.007C326.088 504.69 323.912 506.866 321.229 506.866C318.546 506.866 316.37 504.69 316.37 502.007C316.37 499.324 318.546 497.148 321.229 497.148C323.912 497.148 326.088 499.324 326.088 502.007Z" stroke="#0626A9" stroke-width="2" stroke-miterlimit="10"/>
<path d="M850.95 381.817C850.95 385.037 848.34 387.647 845.12 387.647C841.9 387.647 839.29 385.037 839.29 381.817C839.29 378.597 841.9 375.987 845.12 375.987C848.34 375.987 850.95 378.597 850.95 381.817Z" fill="#84AAE4"/>
<path d="M850.95 381.817C850.95 385.037 848.34 387.647 845.12 387.647C841.9 387.647 839.29 385.037 839.29 381.817C839.29 378.597 841.9 375.987 845.12 375.987C848.34 375.987 850.95 378.597 850.95 381.817Z" stroke="#0626A9" stroke-width="2" stroke-miterlimit="10"/>
<path d="M977.064 471.68C977.064 476.51 973.149 480.425 968.319 480.425C963.489 480.425 959.574 476.51 959.574 471.68C959.574 466.85 963.489 462.935 968.319 462.935C973.149 462.935 977.064 466.85 977.064 471.68Z" fill="#84AAE4"/>
<path d="M977.064 471.68C977.064 476.51 973.149 480.425 968.319 480.425C963.489 480.425 959.574 476.51 959.574 471.68C959.574 466.85 963.489 462.935 968.319 462.935C973.149 462.935 977.064 466.85 977.064 471.68Z" stroke="#0626A9" stroke-width="2" stroke-miterlimit="10"/>
<path d="M918.727 435.613C918.727 437.223 917.422 438.528 915.812 438.528C914.202 438.528 912.897 437.223 912.897 435.613C912.897 434.003 914.202 432.698 915.812 432.698C917.422 432.698 918.727 434.003 918.727 435.613Z" fill="#84AAE4"/>
<path d="M918.727 435.613C918.727 437.223 917.422 438.528 915.812 438.528C914.202 438.528 912.897 437.223 912.897 435.613C912.897 434.003 914.202 432.698 915.812 432.698C917.422 432.698 918.727 434.003 918.727 435.613Z" stroke="#0626A9" stroke-width="2" stroke-miterlimit="10"/>
<path d="M204.844 828.353C204.844 832.333 201.618 835.559 197.638 835.559C193.658 835.559 190.432 832.333 190.432 828.353C190.432 824.373 193.658 821.147 197.638 821.147C201.618 821.147 204.844 824.373 204.844 828.353Z" fill="#84AAE4"/>
<path d="M204.844 828.353C204.844 832.333 201.618 835.559 197.638 835.559C193.658 835.559 190.432 832.333 190.432 828.353C190.432 824.373 193.658 821.147 197.638 821.147C201.618 821.147 204.844 824.373 204.844 828.353Z" stroke="#0626A9" stroke-width="2" stroke-miterlimit="10"/>
<path d="M1161.47 527.545C1161.47 530.107 1159.4 532.184 1156.83 532.184C1154.27 532.184 1152.2 530.107 1152.2 527.545C1152.2 524.983 1154.27 522.906 1156.83 522.906C1159.4 522.906 1161.47 524.983 1161.47 527.545Z" fill="#84AAE4"/>
<path d="M1161.47 527.545C1161.47 530.107 1159.4 532.184 1156.83 532.184C1154.27 532.184 1152.2 530.107 1152.2 527.545C1152.2 524.983 1154.27 522.906 1156.83 522.906C1159.4 522.906 1161.47 524.983 1161.47 527.545Z" stroke="#0626A9" stroke-width="2" stroke-miterlimit="10"/>
<path d="M908.077 650.192C908.077 655.827 903.509 660.395 897.874 660.395C892.239 660.395 887.671 655.827 887.671 650.192C887.671 644.557 892.239 639.989 897.874 639.989C903.509 639.989 908.077 644.557 908.077 650.192Z" fill="#8869D5"/>
<path d="M908.077 650.192C908.077 655.827 903.509 660.395 897.874 660.395C892.239 660.395 887.671 655.827 887.671 650.192C887.671 644.557 892.239 639.989 897.874 639.989C903.509 639.989 908.077 644.557 908.077 650.192Z" stroke="#0626A9" stroke-width="2" stroke-linecap="round" stroke-linejoin="round"/>
<path d="M675.667 930.11C675.667 933.209 673.155 935.721 670.056 935.721C666.957 935.721 664.445 933.209 664.445 930.11C664.445 927.011 666.957 924.499 670.056 924.499C673.155 924.499 675.667 927.011 675.667 930.11Z" fill="#8869D5"/>
<path d="M675.667 930.11C675.667 933.209 673.155 935.721 670.056 935.721C666.957 935.721 664.445 933.209 664.445 930.11C664.445 927.011 666.957 924.499 670.056 924.499C673.155 924.499 675.667 927.011 675.667 930.11Z" stroke="#0626A9" stroke-width="2" stroke-linecap="round" stroke-linejoin="round"/>
<path d="M1132.02 502.843V322.067H1060.76H989.501V502.843H1132.02Z" fill="#84AAE4"/>
<path d="M1132.02 502.843V322.067H1060.76H989.501V502.843H1132.02Z" stroke="#0626A9" stroke-width="2" stroke-miterlimit="10"/>
<path d="M520.142 623.558V375.446H448.882H377.622V623.558H520.142Z" fill="white"/>
<path d="M520.142 623.558V375.446H448.882H377.622V623.558H520.142Z" stroke="#0626A9" stroke-width="2" stroke-linecap="round" stroke-linejoin="round"/>
<mask id="mask1_24_20100" style="mask-type:alpha" maskUnits="userSpaceOnUse" x="376" y="374" width="146" height="251">
<path d="M520.142 623.558V375.446H448.882H377.622V623.558H520.142Z" fill="white"/>
<path d="M520.142 623.558V375.446H448.882H377.622V623.558H520.142Z" stroke="#202870" stroke-width="2" stroke-linecap="round" stroke-linejoin="round"/>
</mask>
<g mask="url(#mask1_24_20100)">
<path d="M590.471 757.085V458.902L447.327 458.997L428.067 598.763L406.235 757.182L590.471 757.085Z" fill="#0626A9"/>
</g>
<path d="M590.441 929.715H447.921V459.403H519.181H590.441V929.715Z" fill="white"/>
<path d="M590.441 929.715H447.921V459.403H519.181H590.441V929.715Z" stroke="#0626A9" stroke-width="2" stroke-linecap="round" stroke-linejoin="round"/>
<mask id="mask2_24_20100" style="mask-type:alpha" maskUnits="userSpaceOnUse" x="446" y="458" width="146" height="473">
<path d="M590.441 929.715H447.921V459.403H519.181H590.441V929.715Z" fill="white"/>
<path d="M590.441 929.715H447.921V459.403H519.181H590.441V929.715Z" stroke="#202870" stroke-width="2" stroke-linecap="round" stroke-linejoin="round"/>
</mask>
<g mask="url(#mask2_24_20100)">
<path d="M474.482 502.143H519.181H563.88" stroke="#0626A9" stroke-width="2" stroke-linecap="round" stroke-linejoin="round"/>
<path d="M474.482 544.884H519.181H563.88" stroke="#0626A9" stroke-width="2" stroke-linecap="round" stroke-linejoin="round"/>
<path d="M474.482 758.589H519.181H563.88" stroke="#0626A9" stroke-width="2" stroke-linecap="round" stroke-linejoin="round"/>
<path d="M474.482 801.33H519.181H563.88" stroke="#0626A9" stroke-width="2" stroke-linecap="round" stroke-linejoin="round"/>
<path d="M474.482 844.071H519.181H563.88" stroke="#0626A9" stroke-width="2" stroke-linecap="round" stroke-linejoin="round"/>
<path d="M474.482 886.812H519.181H563.88" stroke="#0626A9" stroke-width="2" stroke-linecap="round" stroke-linejoin="round"/>
<path d="M564.204 715.813H474.158V587.545H564.204V715.813Z" fill="#84AAE4"/>
<path d="M564.204 715.813H474.158V587.545H564.204V715.813Z" stroke="#0626A9" stroke-width="2" stroke-miterlimit="10"/>
</g>
<path d="M651.864 302.254V119.886H577.147H502.43V302.254H651.864Z" fill="#84AAE4"/>
<path d="M651.864 302.254V119.886H577.147H502.43V302.254H651.864Z" stroke="#0626A9" stroke-width="2" stroke-miterlimit="10"/>
<path d="M870.912 1157.39H728.392V687.075H799.652H870.912V1157.39Z" fill="#84AAE4"/>
<path d="M870.912 1157.39H728.392V687.075H799.652H870.912V1157.39Z" stroke="#0626A9" stroke-width="2" stroke-miterlimit="10"/>
<mask id="mask3_24_20100" style="mask-type:alpha" maskUnits="userSpaceOnUse" x="727" y="686" width="145" height="473">
<path d="M870.912 1157.39H728.392V687.075H799.652H870.912V1157.39Z" fill="#8484FA"/>
<path d="M870.912 1157.39H728.392V687.075H799.652H870.912V1157.39Z" stroke="#202870" stroke-width="2" stroke-miterlimit="10"/>
</mask>
<g mask="url(#mask3_24_20100)">
<path d="M754.953 729.815H799.652H844.351" stroke="white" stroke-width="2" stroke-linecap="round" stroke-linejoin="round"/>
<path d="M754.953 772.556H799.652H844.351" stroke="white" stroke-width="2" stroke-linecap="round" stroke-linejoin="round"/>
<path d="M754.953 943.52H799.652H844.351" stroke="white" stroke-width="2" stroke-linecap="round" stroke-linejoin="round"/>
<path d="M754.953 986.261H799.652H815.739" stroke="white" stroke-width="2" stroke-linecap="round" stroke-linejoin="round"/>
<path d="M754.953 1029H799.652H844.351" stroke="white" stroke-width="2" stroke-linecap="round" stroke-linejoin="round"/>
<path d="M818.727 1071.74H844.351" stroke="white" stroke-width="2" stroke-linecap="round" stroke-linejoin="round"/>
<path d="M754.953 1114.48H799.652H844.351" stroke="white" stroke-width="2" stroke-linecap="round" stroke-linejoin="round"/>
<path d="M799.004 815.179H844.674" stroke="white" stroke-width="2" stroke-linecap="round" stroke-linejoin="round"/>
</g>
<mask id="mask4_24_20100" style="mask-type:alpha" maskUnits="userSpaceOnUse" x="988" y="321" width="146" height="183">
<path d="M1132.02 502.843V322.067H1060.76H989.501V502.843H1132.02Z" fill="#8484FA"/>
<path d="M1132.02 502.843V322.067H1060.76H989.501V502.843H1132.02Z" stroke="#202870" stroke-width="2" stroke-miterlimit="10"/>
</mask>
<g mask="url(#mask4_24_20100)">
<path d="M1169.76 488.52V457.727H1060.99L1027.24 457.483L926.67 650.795L1169.76 706.957V488.52Z" fill="#0626A9"/>
</g>
<path d="M1171.52 927.521H1029V457.209H1100.26H1171.52V927.521Z" fill="white"/>
<path d="M1171.52 927.521H1029V457.209H1100.26H1171.52V927.521Z" stroke="#0626A9" stroke-width="2" stroke-linecap="round" stroke-linejoin="round"/>
<mask id="mask5_24_20100" style="mask-type:alpha" maskUnits="userSpaceOnUse" x="1028" y="456" width="145" height="473">
<path d="M1171.52 927.521H1029V457.209H1100.26H1171.52V927.521Z" fill="white"/>
<path d="M1171.52 927.521H1029V457.209H1100.26H1171.52V927.521Z" stroke="#202870" stroke-width="2" stroke-linecap="round" stroke-linejoin="round"/>
</mask>
<g mask="url(#mask5_24_20100)">
<path d="M1055.56 499.95H1100.26H1144.96" stroke="#0626A9" stroke-width="2" stroke-linecap="round" stroke-linejoin="round"/>
<path d="M1055.56 542.691H1100.26H1144.96" stroke="#0626A9" stroke-width="2" stroke-linecap="round" stroke-linejoin="round"/>
<path d="M1055.56 713.655H1100.26H1144.96" stroke="#0626A9" stroke-width="2" stroke-linecap="round" stroke-linejoin="round"/>
<path d="M1055.56 756.396H1100.26H1144.96" stroke="#0626A9" stroke-width="2" stroke-linecap="round" stroke-linejoin="round"/>
<path d="M1055.99 670.899H1100.69H1145.39" stroke="#0626A9" stroke-width="2" stroke-linecap="round" stroke-linejoin="round"/>
<path d="M1055.56 799.137H1100.26H1144.96" stroke="#0626A9" stroke-width="2" stroke-linecap="round" stroke-linejoin="round"/>
<path d="M1055.56 841.878H1100.26H1144.96" stroke="#0626A9" stroke-width="2" stroke-linecap="round" stroke-linejoin="round"/>
<path d="M1055.56 884.619H1100.26H1144.96" stroke="#0626A9" stroke-width="2" stroke-linecap="round" stroke-linejoin="round"/>
<path d="M1125.31 585.314H1145.28" stroke="#0626A9" stroke-width="2" stroke-linecap="round" stroke-linejoin="round"/>
<path d="M1055.56 929.377H1100.26H1144.96" stroke="#0626A9" stroke-width="2" stroke-linecap="round" stroke-linejoin="round"/>
</g>
<path d="M517.236 1282.98V991.304H588.496H659.756V1282.98" fill="white"/>
<path d="M517.236 1282.98V991.304H588.496H659.756V1282.98" stroke="#0626A9" stroke-width="2" stroke-linecap="round" stroke-linejoin="round"/>
<mask id="mask6_24_20100" style="mask-type:alpha" maskUnits="userSpaceOnUse" x="516" y="990" width="145" height="294">
<path d="M517.236 1282.98V991.304H588.496H659.756V1282.98" fill="white"/>
<path d="M517.236 1282.98V991.304H588.496H659.756V1282.98" stroke="#202870" stroke-width="2" stroke-linecap="round" stroke-linejoin="round"/>
</mask>
<g mask="url(#mask6_24_20100)">
<path d="M633.52 1250.54H543.474V1018.13H633.52V1250.54Z" fill="#84AAE4"/>
<path d="M633.52 1250.54H543.474V1018.13H633.52V1250.54Z" stroke="#0626A9" stroke-width="2" stroke-miterlimit="10"/>
</g>
<mask id="mask7_24_20100" style="mask-type:alpha" maskUnits="userSpaceOnUse" x="500" y="119" width="152" height="186">
<path d="M650.985 303.217V120.849H576.268H501.551V303.217H650.985Z" fill="#8484FA"/>
<path d="M650.985 303.217V120.849H576.268H501.551V303.217H650.985Z" stroke="#202870" stroke-width="2" stroke-miterlimit="10"/>
</mask>
<g mask="url(#mask7_24_20100)">
<path d="M861.878 339.151C861.878 418.535 797.524 482.889 718.14 482.889C638.756 482.889 574.402 418.535 574.402 339.151C574.402 259.767 638.756 195.413 718.14 195.413C797.524 195.413 861.878 259.767 861.878 339.151Z" fill="#0626A9"/>
<path d="M861.878 339.151C861.878 418.535 797.524 482.889 718.14 482.889C638.756 482.889 574.402 418.535 574.402 339.151C574.402 259.767 638.756 195.413 718.14 195.413C797.524 195.413 861.878 259.767 861.878 339.151Z" stroke="#0626A9" stroke-width="2" stroke-linecap="round" stroke-linejoin="round"/>
</g>
<path d="M889.879 341.584C889.879 420.968 825.525 485.322 746.141 485.322C666.757 485.322 602.403 420.968 602.403 341.584C602.403 262.2 666.757 197.846 746.141 197.846C825.525 197.846 889.879 262.2 889.879 341.584Z" fill="white"/>
<path d="M889.879 341.584C889.879 420.968 825.525 485.322 746.141 485.322C666.757 485.322 602.403 420.968 602.403 341.584C602.403 262.2 666.757 197.846 746.141 197.846C825.525 197.846 889.879 262.2 889.879 341.584Z" stroke="#0626A9" stroke-width="2" stroke-linecap="round" stroke-linejoin="round"/>
<path d="M820.25 416.25L784.445 380.445" stroke="#84AAE4" stroke-width="8" stroke-linecap="round" stroke-linejoin="round"/>
<path d="M737.75 399.75C774.201 399.75 803.75 370.201 803.75 333.75C803.75 297.299 774.201 267.75 737.75 267.75C701.299 267.75 671.75 297.299 671.75 333.75C671.75 370.201 701.299 399.75 737.75 399.75Z" stroke="#84AAE4" stroke-width="8" stroke-linecap="round" stroke-linejoin="round"/>
<mask id="mask8_24_20100" style="mask-type:luminance" maskUnits="userSpaceOnUse" x="0" y="0" width="1600" height="1600">
<path d="M0 0H1600V1600H0V0Z" fill="white"/>
</mask>
<g mask="url(#mask8_24_20100)">
<path d="M1136.96 637.277C1136.4 639.177 1134.4 640.259 1132.5 639.693C1130.6 639.127 1129.52 637.127 1130.08 635.227C1130.65 633.327 1132.65 632.245 1134.55 632.811C1136.45 633.377 1137.53 635.377 1136.96 637.277Z" fill="white"/>
<path d="M1136.96 637.277C1136.4 639.177 1134.4 640.259 1132.5 639.693C1130.6 639.127 1129.52 637.127 1130.08 635.227C1130.65 633.327 1132.65 632.245 1134.55 632.811C1136.45 633.377 1137.53 635.377 1136.96 637.277Z" stroke="#0626A9" stroke-width="2" stroke-linecap="round" stroke-linejoin="round"/>
<path d="M1136.91 634.828C1136.91 634.828 1133.96 627.738 1132.04 626.574C1130.12 625.41 1127.87 627.777 1128.69 632.182C1129.41 636.045 1130.04 637.909 1130.04 637.909" fill="white"/>
<path d="M1136.91 634.828C1136.91 634.828 1133.96 627.738 1132.04 626.574C1130.12 625.41 1127.87 627.777 1128.69 632.182C1129.41 636.045 1130.04 637.909 1130.04 637.909" stroke="#0626A9" stroke-width="2" stroke-linecap="round" stroke-linejoin="round"/>
<path d="M1141.78 649.359C1141.01 651.926 1138.31 653.387 1135.74 652.622C1133.18 651.857 1131.72 649.156 1132.48 646.589C1133.25 644.022 1135.95 642.561 1138.51 643.326C1141.08 644.091 1142.54 646.792 1141.78 649.359Z" fill="white"/>
<path d="M1141.78 649.359C1141.01 651.926 1138.31 653.387 1135.74 652.622C1133.18 651.857 1131.72 649.156 1132.48 646.589C1133.25 644.022 1135.95 642.561 1138.51 643.326C1141.08 644.091 1142.54 646.792 1141.78 649.359Z" stroke="#0626A9" stroke-width="2" stroke-linecap="round" stroke-linejoin="round"/>
<path d="M1141.58 646.177L1136.91 634.828L1129.88 637.466L1132.46 648.882" fill="white"/>
<path d="M1129.88 637.466L1132.46 648.882" stroke="#0626A9" stroke-width="2" stroke-linecap="round" stroke-linejoin="round"/>
<path d="M1141.58 646.177L1136.91 634.827" stroke="#0626A9" stroke-width="2" stroke-linecap="round" stroke-linejoin="round"/>
<path d="M1153.44 684.782C1150.92 693.249 1142.01 698.067 1133.54 695.544C1125.08 693.021 1120.26 684.113 1122.78 675.646C1125.3 667.179 1134.21 662.361 1142.68 664.884C1151.15 667.407 1155.96 676.315 1153.44 684.782Z" fill="white"/>
<path d="M1153.44 684.782C1150.92 693.249 1142.01 698.067 1133.54 695.544C1125.08 693.021 1120.26 684.113 1122.78 675.646C1125.3 667.179 1134.21 662.361 1142.68 664.884C1151.15 667.407 1155.96 676.315 1153.44 684.782Z" stroke="#0626A9" stroke-width="2" stroke-linecap="round" stroke-linejoin="round"/>
<path d="M1152.83 673.651L1141.39 645.824L1132.31 648.292C1132.31 648.292 1127.41 647.169 1124.63 651.13C1124.63 651.13 1121.07 649.412 1119.1 653.82C1119.1 653.82 1116.05 653.913 1114.48 657.835C1112.92 661.757 1113.43 672.296 1114.03 674.79C1115.32 680.17 1119.23 677.193 1119.23 677.193L1124.32 688.72" fill="white"/>
<path d="M1132.31 648.292C1132.31 648.292 1127.41 647.169 1124.63 651.13C1124.63 651.13 1121.07 649.411 1119.1 653.819C1119.1 653.819 1116.05 653.912 1114.48 657.834C1112.92 661.756 1113.43 672.295 1114.03 674.789C1115.32 680.169 1119.23 677.193 1119.23 677.193L1124.32 688.719" stroke="#0626A9" stroke-width="2" stroke-linecap="round" stroke-linejoin="round"/>
<path d="M1152.83 673.651L1141.54 645.969" stroke="#0626A9" stroke-width="2" stroke-linecap="round" stroke-linejoin="round"/>
<path d="M1119.23 677.194C1119.23 677.194 1115.8 664.729 1119.45 652.902Z" fill="white"/>
<path d="M1119.23 677.194C1119.23 677.194 1115.8 664.729 1119.45 652.902" stroke="#0626A9" stroke-width="2" stroke-linecap="round" stroke-linejoin="round"/>
<path d="M1124.85 651.064C1124.85 651.064 1122.63 665.783 1124.83 672.947C1124.83 672.947 1124.4 679.718 1119.42 677.447" fill="white"/>
<path d="M1124.85 651.064C1124.85 651.064 1122.63 665.783 1124.83 672.947C1124.83 672.947 1124.4 679.718 1119.42 677.447" stroke="#0626A9" stroke-width="2" stroke-linecap="round" stroke-linejoin="round"/>
<path d="M1143.33 658.541C1143.33 658.541 1135.46 650.871 1133.41 648.486C1131.36 646.101 1128.38 648.468 1128.81 651.653C1129.18 654.38 1134.54 662.232 1134.54 662.232C1134.54 662.232 1132.16 668.227 1133.87 675.048" fill="white"/>
<path d="M1143.33 658.541C1143.33 658.541 1135.46 650.871 1133.41 648.486C1131.36 646.101 1128.38 648.468 1128.81 651.653C1129.18 654.38 1134.54 662.232 1134.54 662.232C1134.54 662.232 1132.16 668.227 1133.87 675.048" stroke="#0626A9" stroke-width="2" stroke-linecap="round" stroke-linejoin="round"/>
<path d="M1124.9 673.165C1124.9 673.165 1127.26 677.812 1130.26 673.71C1131.86 671.525 1130.7 663.85 1131.72 658.436" fill="white"/>
<path d="M1124.9 673.165C1124.9 673.165 1127.26 677.812 1130.26 673.71C1131.86 671.525 1130.7 663.85 1131.72 658.436" stroke="#0626A9" stroke-width="2" stroke-linecap="round" stroke-linejoin="round"/>
<path d="M1184.87 728.195C1194.2 719.335 1208.95 719.72 1217.81 729.055C1226.67 738.39 1226.29 753.141 1216.95 762.001C1207.62 770.861 1192.87 770.476 1184.01 761.141C1175.15 751.806 1175.53 737.055 1184.87 728.195Z" fill="white"/>
<path d="M1184.87 728.195C1194.2 719.335 1208.95 719.72 1217.81 729.055C1226.67 738.39 1226.29 753.141 1216.95 762.001C1207.62 770.861 1192.87 770.476 1184.01 761.141C1175.15 751.806 1175.53 737.055 1184.87 728.195Z" stroke="#0626A9" stroke-width="2" stroke-linecap="round" stroke-linejoin="round"/>
<path d="M1215.47 726.9C1216.29 727.556 1217.07 728.274 1217.81 729.055C1222.52 734.012 1224.62 740.496 1224.15 746.814" stroke="#0626A9" stroke-width="2" stroke-linecap="round" stroke-linejoin="round"/>
<path d="M1124.72 689.336C1136.65 702.674 1185.14 762.361 1185.14 762.361L1216.92 728.165C1199.64 712.006 1151.01 669.589 1151.01 669.589L1124.72 689.336Z" fill="white"/>
<path d="M1216.92 728.165C1199.64 712.006 1151.01 669.589 1151.01 669.589M1124.72 689.336C1137.05 704.474 1185.14 762.361 1185.14 762.361" stroke="#0626A9" stroke-width="2" stroke-linecap="round" stroke-linejoin="round"/>
<path d="M1209.13 681.511C1199.61 684.121 1209.4 701.219 1228.97 707.788C1248.55 714.357 1256.15 699.298 1256.15 699.298C1256.15 699.298 1247.09 671.11 1209.13 681.511Z" fill="#0626A9"/>
<path d="M1209.13 681.511C1199.61 684.121 1209.4 701.219 1228.97 707.788C1248.55 714.357 1256.15 699.298 1256.15 699.298C1256.15 699.298 1247.09 671.11 1209.13 681.511Z" stroke="#0626A9" stroke-width="2" stroke-linecap="round" stroke-linejoin="round"/>
<path d="M1248.96 643.259C1236.52 647.229 1229.66 660.532 1233.63 672.972C1237.6 685.412 1250.9 692.277 1263.34 688.307C1275.78 684.337 1282.64 671.034 1278.67 658.594C1274.7 646.154 1261.4 639.289 1248.96 643.259Z" fill="#84AAE4"/>
<path d="M1248.96 643.259C1236.52 647.229 1229.66 660.532 1233.63 672.972C1237.6 685.412 1250.9 692.277 1263.34 688.307C1275.78 684.337 1282.64 671.034 1278.67 658.594C1274.7 646.154 1261.4 639.289 1248.96 643.259Z" stroke="#0626A9" stroke-width="2" stroke-linecap="round" stroke-linejoin="round"/>
<path d="M1218.74 760.147C1243.87 727.987 1274.91 680.182 1274.91 680.182L1236.22 653.073L1188.73 725.873" fill="white"/>
<path d="M1229.08 693.059C1247.98 705.513 1250.78 718.8 1252.89 718.8C1255.53 714.92 1274.91 680.183 1274.91 680.183L1236.86 652.118L1221.42 667.616L1206.64 682.192C1214.36 682.863 1221.45 688.03 1229.08 693.059Z" fill="#84AAE4"/>
<path d="M1236.86 652.117L1221.42 667.615L1206.64 682.191" stroke="#0626A9" stroke-width="2" stroke-linecap="round" stroke-linejoin="round"/>
<path d="M1218.74 760.147C1243.87 727.987 1274.91 680.183 1274.91 680.183M1215.13 684.604L1188.73 725.873" stroke="#0626A9" stroke-width="2" stroke-linecap="round" stroke-linejoin="round"/>
<path d="M1255.35 770.843C1255.35 796.627 1276.25 817.529 1302.04 817.529C1327.82 817.529 1348.72 796.627 1348.72 770.843C1348.72 745.059 1327.82 724.157 1302.04 724.157C1276.25 724.157 1255.35 745.059 1255.35 770.843Z" fill="#84AAE4"/>
<path d="M1255.35 770.843C1255.35 796.627 1276.25 817.529 1302.04 817.529C1327.82 817.529 1348.72 796.627 1348.72 770.843C1348.72 745.059 1327.82 724.157 1302.04 724.157C1276.25 724.157 1255.35 745.059 1255.35 770.843Z" stroke="#0626A9" stroke-width="2" stroke-linecap="round" stroke-linejoin="round"/>
<path d="M1366.8 649.52C1378.09 656.076 1381.93 670.545 1375.37 681.838C1368.82 693.131 1354.35 696.97 1343.05 690.414C1331.76 683.858 1327.92 669.389 1334.48 658.096C1341.03 646.803 1355.5 642.964 1366.8 649.52Z" fill="#84AAE4"/>
<path d="M1366.8 649.52C1378.09 656.076 1381.93 670.545 1375.37 681.838C1368.82 693.131 1354.35 696.97 1343.05 690.414C1331.76 683.858 1327.92 669.389 1334.48 658.096C1341.03 646.803 1355.5 642.964 1366.8 649.52Z" stroke="#0626A9" stroke-width="2" stroke-linecap="round" stroke-linejoin="round"/>
<path d="M1350.65 745.137L1255.52 747.676L1255.38 767.886L1255.35 771.98C1255.35 771.98 1268.77 780.249 1310.78 778.025C1337.56 776.608 1345.96 769.602 1345.96 769.602L1349.05 765.875L1350.65 745.137Z" fill="white"/>
<path d="M1255.52 747.677L1255.35 772.617" stroke="#0626A9" stroke-width="2" stroke-linecap="round" stroke-linejoin="round"/>
<path d="M1285.45 638.818C1285.28 650.489 1294.6 660.089 1306.27 660.261C1317.94 660.433 1327.54 651.111 1327.72 639.44C1327.89 627.769 1318.57 618.169 1306.89 617.997C1295.22 617.825 1285.62 627.147 1285.45 638.818Z" fill="white"/>
<path d="M1285.45 638.818C1285.28 650.489 1294.6 660.089 1306.27 660.261C1317.94 660.433 1327.54 651.111 1327.72 639.44C1327.89 627.769 1318.57 618.169 1306.89 617.997C1295.22 617.825 1285.62 627.147 1285.45 638.818Z" stroke="#0626A9" stroke-width="2" stroke-linecap="round" stroke-linejoin="round"/>
<path d="M1248.96 643.258C1248.96 643.258 1252.78 669.36 1253.67 675.005C1254.56 680.65 1246.33 691.073 1244.73 703.198C1243.12 715.323 1250.56 724.268 1252.21 738.371C1253.53 749.623 1255.35 772.617 1255.35 772.617C1255.35 772.617 1273.23 778.849 1299.51 778.864C1337.04 778.886 1348.72 770.842 1348.72 770.842C1348.72 770.842 1354.92 752.057 1358.27 713.925C1360.61 687.313 1363.64 647.74 1363.64 647.74C1363.64 647.74 1339.09 637.806 1296.42 638.738C1258.66 639.562 1248.96 643.258 1248.96 643.258Z" fill="#84AAE4"/>
<path d="M1285.17 673.952L1327.26 639.314C1320.47 638.842 1307.34 638.289 1299.17 638.467C1290.27 638.661 1274.28 639.764 1268.26 640.191L1285.17 673.952Z" fill="white"/>
<path d="M1253.67 675.006C1254.56 680.651 1246.33 691.074 1244.73 703.199C1243.12 715.324 1250.72 725.749 1252.37 739.852" stroke="#0626A9" stroke-width="2" stroke-linecap="round" stroke-linejoin="round"/>
<path d="M1285.23 639.163C1258.59 640.437 1248.96 643.259 1248.96 643.259" stroke="#0626A9" stroke-width="2" stroke-linecap="round" stroke-linejoin="round"/>
<path d="M1364.11 648.18C1364.11 648.18 1349.44 642.098 1323.41 639.666" stroke="#0626A9" stroke-width="2" stroke-linecap="round" stroke-linejoin="round"/>
<path d="M1285.23 639.163L1289.29 604.746L1324.2 593.416L1328.24 640.852" fill="white"/>
<path d="M1285.23 639.163L1289.29 604.746L1324.2 593.416L1328.24 640.852" stroke="#0626A9" stroke-width="2" stroke-linecap="round" stroke-linejoin="round"/>
<path d="M1352.88 614.875C1351.28 626.539 1340.53 634.698 1328.86 633.099C1317.2 631.5 1309.04 620.749 1310.64 609.085C1312.24 597.421 1322.99 589.262 1334.65 590.861C1346.32 592.46 1354.48 603.211 1352.88 614.875Z" fill="#0626A9"/>
<path d="M1303.29 609.922C1285.52 619.439 1268.25 611.52 1268.98 601.742C1269.69 592.345 1278.39 582.955 1278.39 582.955C1278.39 582.955 1276.24 577.919 1277.75 576.207C1279.53 574.202 1283.04 576.872 1283.04 576.872C1288.16 568.07 1293.68 561.208 1297.68 558.015C1306.64 550.856 1322.08 553.914 1330.68 566.127C1333.6 570.286 1336.35 578.192 1335.88 581.451C1334.75 589.271 1318.38 609.435 1318.23 605.096" fill="white"/>
<path d="M1303.29 609.922C1285.52 619.439 1268.25 611.52 1268.98 601.742C1269.69 592.345 1278.39 582.955 1278.39 582.955C1278.39 582.955 1276.24 577.919 1277.75 576.207C1279.53 574.202 1283.04 576.872 1283.04 576.872C1288.16 568.07 1293.68 561.208 1297.68 558.015C1306.64 550.856 1322.08 553.914 1330.68 566.127C1333.6 570.286 1336.35 578.192 1335.88 581.451C1334.75 589.271 1318.38 609.435 1318.23 605.096" stroke="#0626A9" stroke-width="2" stroke-linecap="round" stroke-linejoin="round"/>
<path d="M1287.1 574.504C1286.52 575.405 1288.21 575.858 1290.98 577.497C1293.74 579.136 1296.47 581.468 1297.12 580.44C1297.58 579.723 1296.25 576.774 1293.49 575.135C1290.72 573.496 1288.08 572.984 1287.1 574.504Z" fill="#0626A9"/>
<path d="M1287.58 579.623C1287.28 580.28 1287.58 581.053 1288.23 581.351C1288.89 581.649 1289.66 581.358 1289.96 580.701C1290.26 580.044 1289.97 579.271 1289.31 578.973C1288.65 578.675 1287.88 578.966 1287.58 579.623Z" fill="#0626A9"/>
<path d="M1284.89 594.923C1284.11 595.824 1281.54 596.528 1280.51 596.191Z" fill="white"/>
<path d="M1284.89 594.923C1284.11 595.824 1281.54 596.528 1280.51 596.191" stroke="#0626A9" stroke-width="2" stroke-linecap="round" stroke-linejoin="round"/>
<path d="M1290.08 558.099C1290.08 558.099 1304.58 546.878 1323.45 556.547C1337.98 563.995 1346.28 583.762 1324.79 608.112L1313.64 594.009C1313.64 594.009 1310.47 593.375 1309.53 591.519C1308.15 588.786 1307.41 580.824 1307.51 575.303C1307.51 575.303 1293.69 570.685 1290.08 558.099Z" fill="#0626A9"/>
<path d="M1313.1 594.112C1313.1 594.112 1320.56 589.051 1324.03 594.213C1326.53 597.927 1323.06 603.805 1319.57 607.079C1315.87 610.554 1311.06 611.878 1309.53 607.805" fill="white"/>
<path d="M1313.1 594.112C1313.1 594.112 1320.56 589.051 1324.03 594.213C1326.53 597.927 1323.06 603.805 1319.57 607.079C1315.87 610.554 1311.06 611.878 1309.53 607.805" stroke="#0626A9" stroke-width="2" stroke-linecap="round" stroke-linejoin="round"/>
<path d="M1321.73 598.131C1321.73 598.131 1319.61 594.424 1314.55 597.199" stroke="#0626A9" stroke-width="2" stroke-linecap="round" stroke-linejoin="round"/>
<path d="M1318.72 600.569C1318.72 600.569 1316.57 598.326 1317.62 596.479" stroke="#0626A9" stroke-width="2" stroke-linecap="round" stroke-linejoin="round"/>
<path d="M1238.89 836.972C1238.89 836.972 1240.04 816.407 1244.42 800.919C1248.48 786.562 1255.59 771.702 1255.59 771.702C1255.59 771.702 1271.1 777.484 1295.18 777.754C1334.46 778.195 1348.24 769.537 1348.24 769.537C1348.24 769.537 1352.35 779.142 1357.41 793.429C1363.08 809.441 1364.24 838.109 1364.24 838.109C1364.24 838.109 1339.4 840.27 1307.5 839.16C1271.14 837.895 1238.89 836.972 1238.89 836.972Z" fill="#0626A9"/>
<path d="M1233.85 1137.43C1233.81 1154.66 1247.75 1168.66 1264.98 1168.7C1282.21 1168.74 1296.21 1154.8 1296.25 1137.57C1296.29 1120.34 1282.35 1106.34 1265.12 1106.3C1247.89 1106.26 1233.89 1120.2 1233.85 1137.43Z" fill="#84AAE4"/>
<path d="M1233.85 1137.43C1233.81 1154.66 1247.75 1168.66 1264.98 1168.7C1282.21 1168.74 1296.21 1154.8 1296.25 1137.57C1296.29 1120.34 1282.35 1106.34 1265.12 1106.3C1247.89 1106.26 1233.89 1120.2 1233.85 1137.43Z" stroke="#0626A9" stroke-width="2" stroke-linecap="round" stroke-linejoin="round"/>
<path d="M1205.48 1175.99L1296.23 1176.09L1296.25 1167.42L1296.31 1136.74L1233.98 1134.73L1226.44 1144.34C1226.44 1144.34 1221.42 1144.75 1217.93 1146C1207.17 1149.84 1204.87 1159.99 1204.73 1167.42C1204.64 1172.29 1205.48 1175.99 1205.48 1175.99Z" fill="white"/>
<path d="M1205.48 1175.99L1296.23 1176.09L1296.25 1167.42L1296.31 1136.74L1233.98 1134.73L1226.44 1144.34C1226.44 1144.34 1221.42 1144.75 1217.93 1146C1207.17 1149.84 1204.87 1159.99 1204.73 1167.42C1204.64 1172.29 1205.48 1175.99 1205.48 1175.99Z" stroke="#0626A9" stroke-width="2" stroke-linecap="round" stroke-linejoin="round"/>
<path d="M1226.44 1144.34C1226.44 1144.34 1237.48 1142.68 1250.6 1147.66" stroke="#0626A9" stroke-width="2" stroke-linecap="round" stroke-linejoin="round"/>
<path d="M1205.48 1175.99L1296.23 1176.09L1296.25 1167.42H1204.73C1204.64 1172.29 1205.48 1175.99 1205.48 1175.99Z" fill="#0626A9"/>
<path d="M1297.71 982.934C1298.29 966.133 1285.13 952.045 1268.33 951.47C1251.53 950.895 1237.44 964.049 1236.87 980.85C1236.29 997.651 1249.45 1011.74 1266.25 1012.31C1283.05 1012.89 1297.14 999.735 1297.71 982.934Z" fill="white"/>
<path d="M1297.71 982.934C1298.29 966.133 1285.13 952.045 1268.33 951.47C1251.53 950.895 1237.44 964.049 1236.87 980.85C1236.29 997.651 1249.45 1011.74 1266.25 1012.31C1283.05 1012.89 1297.14 999.735 1297.71 982.934Z" stroke="#0626A9" stroke-width="2" stroke-linecap="round" stroke-linejoin="round"/>
<path d="M1236.8 980.648L1235 1134.07L1296.03 1136L1297.71 982.933L1236.8 980.648Z" fill="white"/>
<path d="M1234.47 1114.3L1234.13 1134.26C1234.13 1134.26 1244.49 1136.73 1265.34 1137.04C1287.1 1137.37 1295.99 1136.44 1295.99 1136.44L1296.16 1114.17L1234.47 1114.3Z" fill="#84AAE4"/>
<path d="M1234.47 1114.3L1234.13 1134.26C1234.13 1134.26 1244.49 1136.73 1265.34 1137.04C1287.1 1137.37 1295.99 1136.44 1295.99 1136.44L1296.16 1114.17L1234.47 1114.3Z" stroke="#0626A9" stroke-width="2" stroke-linecap="round" stroke-linejoin="round"/>
<path d="M1296.31 1136.74L1297.71 982.934" stroke="#0626A9" stroke-width="2" stroke-linecap="round" stroke-linejoin="round"/>
<path d="M1236.8 980.648L1234.13 1134.26" stroke="#0626A9" stroke-width="2" stroke-linecap="round" stroke-linejoin="round"/>
<path d="M1297.73 982.725L1298.42 935.116L1299.1 887.575L1301.12 857.389C1301.75 848.071 1294.18 840.255 1284.85 840.577L1257.33 841.525C1246.84 841.886 1238.49 850.422 1238.36 860.912L1236.88 980.854L1297.73 982.725Z" fill="white"/>
<path d="M1297.73 982.725L1298.42 935.116L1299.1 887.575L1301.12 857.389" stroke="#0626A9" stroke-width="2" stroke-linecap="round" stroke-linejoin="round"/>
<path d="M1238.36 860.912L1236.88 980.854" stroke="#0626A9" stroke-width="2" stroke-linecap="round" stroke-linejoin="round"/>
<path d="M1302.23 844.42C1300.75 861.889 1285.39 874.854 1267.92 873.378C1250.46 871.902 1237.49 856.545 1238.97 839.076C1240.44 821.607 1255.8 808.642 1273.27 810.118C1290.74 811.594 1303.7 826.951 1302.23 844.42Z" fill="#0626A9"/>
<path d="M1238.89 836.972L1229.56 956.991C1237.92 960.092 1250.31 963.636 1265.66 964.403C1281.23 965.181 1294.07 962.814 1302.75 960.515C1301.63 946.315 1303.5 858.048 1302.37 843.848" fill="#0626A9"/>
<path d="M1302.85 1137.56C1302.85 1154.79 1316.81 1168.76 1334.04 1168.77C1351.27 1168.77 1365.24 1154.8 1365.25 1137.57C1365.25 1120.34 1351.28 1106.37 1334.05 1106.37C1316.82 1106.37 1302.85 1120.33 1302.85 1137.56Z" fill="#84AAE4"/>
<path d="M1302.85 1137.56C1302.85 1154.79 1316.81 1168.76 1334.04 1168.77C1351.27 1168.77 1365.24 1154.8 1365.25 1137.57C1365.25 1120.34 1351.28 1106.37 1334.05 1106.37C1316.82 1106.37 1302.85 1120.33 1302.85 1137.56Z" stroke="#0626A9" stroke-width="2" stroke-linecap="round" stroke-linejoin="round"/>
<path d="M1364.53 983.75C1364.84 966.942 1351.46 953.067 1334.65 952.759C1317.84 952.451 1303.97 965.828 1303.66 982.636C1303.35 999.444 1316.73 1013.32 1333.54 1013.63C1350.34 1013.93 1364.22 1000.56 1364.53 983.75Z" fill="white"/>
<path d="M1364.53 983.75C1364.84 966.942 1351.46 953.067 1334.65 952.759C1317.84 952.451 1303.97 965.828 1303.66 982.636C1303.35 999.444 1316.73 1013.32 1333.54 1013.63C1350.34 1013.93 1364.22 1000.56 1364.53 983.75Z" stroke="#0626A9" stroke-width="2" stroke-linecap="round" stroke-linejoin="round"/>
<path d="M1302.87 983.248L1303.29 1134.25L1364.85 1136.83L1364.53 983.751L1302.87 983.248Z" fill="white"/>
<path d="M1365.41 1137.1L1364.63 1115L1303.77 1115.97L1302.97 1134.86" fill="#84AAE4"/>
<path d="M1365.41 1137.1L1364.63 1115L1303.77 1115.97L1302.97 1134.86" stroke="#0626A9" stroke-width="2" stroke-linecap="round" stroke-linejoin="round"/>
<path d="M1365.14 1137.56L1364.53 983.75" stroke="#0626A9" stroke-width="2" stroke-linecap="round" stroke-linejoin="round"/>
<path d="M1302.76 984.345L1303.05 1133.9" stroke="#0626A9" stroke-width="2" stroke-linecap="round" stroke-linejoin="round"/>
<path d="M1364.54 981.886L1363.15 934.293L1361.75 886.768L1362.45 856.522C1362.67 847.185 1354.77 839.708 1345.45 840.438L1318 842.59C1307.54 843.41 1299.57 852.303 1299.9 862.788L1302.87 983.247L1364.54 981.886Z" fill="white"/>
<path d="M1364.54 981.886L1363.15 934.293L1361.75 886.767L1362.45 856.522" stroke="#0626A9" stroke-width="2" stroke-linecap="round" stroke-linejoin="round"/>
<path d="M1299.9 862.789L1302.76 984.345" stroke="#0626A9" stroke-width="2" stroke-linecap="round" stroke-linejoin="round"/>
<path d="M1364.38 843.499C1363.63 862.105 1347.93 876.578 1329.33 875.824C1310.72 875.07 1296.25 859.375 1297 840.769C1297.75 822.163 1313.45 807.69 1332.06 808.444C1350.66 809.198 1365.13 824.893 1364.38 843.499Z" fill="#0626A9"/>
<path d="M1364.24 838.109C1365.58 854.18 1366.76 944.796 1367.59 958.242C1359.01 960.919 1346.28 963.845 1330.7 963.749C1315.33 963.654 1302.8 960.656 1294.31 957.924L1296.83 839.24L1291.42 834.905" fill="#0626A9"/>
<path d="M1293.84 956.771L1296.83 839.24L1291.42 834.905" stroke="white" stroke-width="2" stroke-linecap="round" stroke-linejoin="round"/>
<path d="M1318.93 1137.56C1318.92 1145.92 1325.69 1152.69 1334.05 1152.69C1342.4 1152.69 1349.17 1145.92 1349.17 1137.57C1349.17 1129.22 1342.4 1122.44 1334.05 1122.44C1325.7 1122.44 1318.93 1129.21 1318.93 1137.56Z" fill="#84AAE4"/>
<path d="M1274.56 1176.19L1365.31 1176.09L1365.31 1167.42L1365.31 1136.74L1302.98 1134.86L1295.46 1144.49C1295.46 1144.49 1290.43 1144.91 1286.95 1146.17C1276.2 1150.04 1273.92 1160.19 1273.79 1167.62C1273.72 1172.49 1274.56 1176.19 1274.56 1176.19Z" fill="white"/>
<path d="M1274.56 1176.19L1365.31 1176.09L1365.31 1167.42L1365.31 1136.74L1302.98 1134.86L1295.46 1144.49C1295.46 1144.49 1290.43 1144.91 1286.95 1146.17C1276.2 1150.04 1273.92 1160.19 1273.79 1167.62C1273.72 1172.49 1274.56 1176.19 1274.56 1176.19Z" stroke="#0626A9" stroke-width="2" stroke-linecap="round" stroke-linejoin="round"/>
<path d="M1295.46 1144.49C1295.46 1144.49 1306.5 1142.8 1319.63 1147.75" stroke="#0626A9" stroke-width="2" stroke-linecap="round" stroke-linejoin="round"/>
<path d="M1274.56 1176.19L1365.31 1176.09L1365.31 1167.42L1273.79 1167.62C1273.72 1172.49 1274.56 1176.19 1274.56 1176.19Z" fill="#0626A9"/>
<path d="M1398.59 669.162C1408.4 668.061 1405.64 687.568 1389.89 700.917C1374.13 714.266 1359.31 709.451 1359.31 709.451C1359.31 709.451 1359.48 673.551 1398.59 669.162Z" fill="#0626A9"/>
<path d="M1407.31 756.075C1399.16 746.588 1400.24 732.288 1409.73 724.136C1419.22 715.984 1433.52 717.066 1441.67 726.553C1449.82 736.04 1448.74 750.34 1439.25 758.492C1429.77 766.644 1415.47 765.562 1407.31 756.075Z" fill="white"/>
<path d="M1407.31 756.075C1399.16 746.588 1400.24 732.288 1409.73 724.136C1419.22 715.984 1433.52 717.066 1441.67 726.553C1449.82 736.04 1448.74 750.34 1439.25 758.492C1429.77 766.644 1415.47 765.562 1407.31 756.075Z" stroke="#0626A9" stroke-width="2" stroke-linecap="round" stroke-linejoin="round"/>
<path d="M1387.82 670.588L1354.13 703.454C1354.13 703.454 1379.69 730.94 1409.68 758.62L1441.31 726.251L1387.82 670.588Z" fill="white"/>
<path d="M1402.07 669.684L1388.71 662.498L1371.72 653.356L1338.7 687.197C1338.7 687.197 1347.63 696.723 1360.19 709.696C1365.25 697.401 1380.71 677.524 1402.07 669.684Z" fill="#84AAE4"/>
<path d="M1401.86 670.686L1370.28 652.138" stroke="#0626A9" stroke-width="2" stroke-linecap="round" stroke-linejoin="round"/>
<path d="M1353.03 702.27C1353.03 702.27 1378.91 730.246 1409.68 758.62M1440.93 725.729L1392.2 675.098" stroke="#0626A9" stroke-width="2" stroke-linecap="round" stroke-linejoin="round"/>
<path d="M1357.28 653.765C1366.22 655.087 1372.4 663.409 1371.08 672.352C1369.75 681.295 1361.43 687.473 1352.49 686.151C1343.55 684.829 1337.37 676.507 1338.69 667.564C1340.01 658.621 1348.33 652.443 1357.28 653.765Z" fill="#84AAE4"/>
<path d="M1379.78 799.046C1379.78 808.297 1372.28 815.796 1363.03 815.796C1353.78 815.796 1346.28 808.297 1346.28 799.046C1346.28 789.795 1353.78 782.296 1363.03 782.296C1372.28 782.296 1379.78 789.795 1379.78 799.046Z" fill="white"/>
<path d="M1379.78 799.046C1379.78 808.297 1372.28 815.796 1363.03 815.796C1353.78 815.796 1346.28 808.297 1346.28 799.046C1346.28 789.795 1353.78 782.296 1363.03 782.296C1372.28 782.296 1379.78 789.795 1379.78 799.046Z" stroke="#0626A9" stroke-width="2" stroke-linecap="round" stroke-linejoin="round"/>
<path d="M1374.26 811.426C1388.17 800.174 1437.93 759.651 1437.93 759.651L1409.5 724.424C1392.51 740.881 1350.85 787.393 1350.85 787.393L1374.26 811.426Z" fill="white"/>
<path d="M1415.52 749.025C1411.26 744.069 1411.83 736.6 1416.78 732.341C1421.74 728.082 1429.21 728.647 1433.47 733.603C1437.72 738.559 1437.16 746.028 1432.2 750.287C1427.25 754.546 1419.78 753.981 1415.52 749.025Z" fill="white"/>
<path d="M1403.29 730.482C1386.3 746.939 1350.85 787.393 1350.85 787.393M1374.26 811.426C1388.17 800.174 1437.93 759.65 1437.93 759.65" stroke="#0626A9" stroke-width="2" stroke-linecap="round" stroke-linejoin="round"/>
<path d="M1371.77 799.046C1371.77 803.873 1367.86 807.785 1363.03 807.785C1358.2 807.785 1354.29 803.873 1354.29 799.046C1354.29 794.219 1358.2 790.307 1363.03 790.307C1367.86 790.307 1371.77 794.219 1371.77 799.046Z" fill="white"/>
<path d="M1370.16 783.837C1370.16 783.837 1353.34 776.692 1345.35 775.592C1335.58 774.248 1324.51 774.262 1314.91 782.592C1312.26 784.896 1306.79 789.888 1304.07 794.27C1301.44 798.501 1303.81 799.637 1303.81 799.637C1303.1 802.688 1307.2 802.822 1307.2 802.822C1307.2 802.822 1309.24 808.147 1313.86 804.537C1323.33 797.127 1328.25 797.917 1328.25 797.917C1328.25 797.917 1323.61 802.057 1322.35 803.467C1319.58 806.544 1316.78 809.952 1320.06 811.298C1322.7 812.381 1334.42 805.251 1334.42 805.251C1334.42 805.251 1343.51 814.412 1360.16 815.641" fill="white"/>
<path d="M1370.16 783.837C1370.16 783.837 1353.34 776.692 1345.35 775.592C1335.58 774.248 1324.51 774.262 1314.91 782.592C1312.26 784.896 1306.79 789.888 1304.07 794.27C1301.44 798.501 1303.81 799.637 1303.81 799.637C1303.1 802.688 1307.2 802.822 1307.2 802.822C1307.2 802.822 1309.24 808.147 1313.86 804.537C1323.33 797.127 1328.25 797.917 1328.25 797.917C1328.25 797.917 1323.61 802.057 1322.35 803.467C1319.58 806.544 1316.78 809.952 1320.06 811.298C1322.7 812.381 1334.42 805.251 1334.42 805.251C1334.42 805.251 1343.51 814.412 1360.16 815.641" stroke="#0626A9" stroke-width="2" stroke-linecap="round" stroke-linejoin="round"/>
<path d="M1327.71 798.453C1327.71 798.453 1329.41 796.881 1332.77 794.697Z" fill="white"/>
<path d="M1327.71 798.453C1327.71 798.453 1329.41 796.881 1332.77 794.697" stroke="#0626A9" stroke-width="2" stroke-linecap="round" stroke-linejoin="round"/>
<path d="M1307.2 802.822C1307.2 802.822 1315.34 796.019 1318.07 793.44C1322.39 789.351 1330.1 788.772 1330.1 788.772" fill="white"/>
<path d="M1307.2 802.822C1307.2 802.822 1315.34 796.019 1318.07 793.44C1322.39 789.351 1330.1 788.772 1330.1 788.772" stroke="#0626A9" stroke-width="2" stroke-linecap="round" stroke-linejoin="round"/>
<path d="M1303.81 799.636C1303.81 799.636 1310.19 792.565 1314.16 788.712C1320.33 782.728 1326.83 781.792 1326.83 781.792" fill="white"/>
<path d="M1303.81 799.636C1303.81 799.636 1310.19 792.565 1314.16 788.712C1320.33 782.728 1326.83 781.792 1326.83 781.792" stroke="#0626A9" stroke-width="2" stroke-linecap="round" stroke-linejoin="round"/>
<path d="M1357.23 640.557C1355.26 654.92 1342.02 664.967 1327.66 662.998C1313.29 661.029 1303.25 647.79 1305.21 633.427C1307.18 619.064 1320.42 609.017 1334.79 610.986C1349.15 612.955 1359.2 626.194 1357.23 640.557Z" fill="#0626A9"/>
</g>
<mask id="mask9_24_20100" style="mask-type:luminance" maskUnits="userSpaceOnUse" x="0" y="0" width="1600" height="1600">
<path d="M0 0H1600V1600H0V0Z" fill="white"/>
</mask>
<g mask="url(#mask9_24_20100)">
<path d="M1014.05 812.454C1014.05 812.454 1034.27 802.999 1042.5 818.962C1048.99 831.531 1043.03 854.472 1041.31 865.487C1039.59 876.502 1039 894.661 1039 894.661C1039 894.661 1036.32 892.742 1034.87 888.084C1034.09 885.565 1033.1 876.543 1033.1 876.543C1033.1 876.543 1031.2 881.516 1030.93 887.842C1030.58 895.748 1033 897.264 1033 897.264C1033 897.264 1023.95 901.785 1015.68 897.491C1006.11 892.522 1004.98 887.301 1005.15 878.358C1005.21 875.294 1003.69 872.639 1014.66 844.736C1020.41 830.102 1004.05 817 1004.05 817L1014.05 812.454Z" fill="#8869D5"/>
<path d="M909.627 1425.05C909.595 1434.4 917.148 1442.01 926.497 1442.04C935.846 1442.07 943.451 1434.52 943.483 1425.17C943.515 1415.82 935.962 1408.22 926.613 1408.18C917.264 1408.15 909.659 1415.71 909.627 1425.05Z" fill="#0626A9"/>
<path d="M909.627 1425.05C909.595 1434.4 917.148 1442.01 926.497 1442.04C935.846 1442.07 943.451 1434.52 943.483 1425.17C943.515 1415.82 935.962 1408.22 926.613 1408.18C917.264 1408.15 909.659 1415.71 909.627 1425.05Z" stroke="#0626A9" stroke-width="2" stroke-linecap="round" stroke-linejoin="round"/>
<path d="M917.565 1425.13C917.548 1430.1 921.559 1434.13 926.523 1434.15C931.487 1434.17 935.526 1430.16 935.543 1425.19C935.56 1420.23 931.549 1416.19 926.585 1416.17C921.621 1416.16 917.582 1420.17 917.565 1425.13Z" fill="#8869D5"/>
<path d="M925.835 1408.1C922.935 1408.35 920.343 1409.17 918.029 1410.39H918.025C917.152 1410.84 916.323 1411.36 915.53 1411.92C914.597 1412.57 913.723 1413.28 912.902 1414.05C912.293 1414.61 911.716 1415.2 911.17 1415.8C905.314 1422.25 902.598 1430.86 902.236 1434.05C901.94 1436.64 901.882 1439.23 901.877 1441.92L926.497 1442.04" fill="#8869D5"/>
<path d="M925.835 1408.1C922.935 1408.35 920.343 1409.17 918.029 1410.39H918.025C917.152 1410.84 916.323 1411.36 915.53 1411.92C914.597 1412.57 913.723 1413.28 912.902 1414.05C912.293 1414.61 911.716 1415.2 911.17 1415.8C905.314 1422.25 902.598 1430.86 902.236 1434.05C901.94 1436.64 901.882 1439.23 901.877 1441.92L926.497 1442.04" stroke="#0626A9" stroke-width="2" stroke-linecap="round" stroke-linejoin="round"/>
<path d="M901.845 1441.92L926.497 1442.04L926.456 1434.15L901.948 1434.06C901.789 1436.59 901.848 1439.24 901.845 1441.92Z" fill="#0626A9"/>
<path d="M925.512 1406.4C925.735 1424.05 940.22 1438.18 957.867 1437.95C975.514 1437.73 989.639 1423.24 989.416 1405.6C989.193 1387.95 974.708 1373.83 957.061 1374.05C939.414 1374.27 925.289 1388.76 925.512 1406.4Z" fill="#0626A9"/>
<path d="M925.512 1406.4C925.735 1424.05 940.22 1438.18 957.867 1437.95C975.514 1437.73 989.639 1423.24 989.416 1405.6C989.193 1387.95 974.708 1373.83 957.061 1374.05C939.414 1374.27 925.289 1388.76 925.512 1406.4Z" stroke="#0626A9" stroke-width="2" stroke-linecap="round" stroke-linejoin="round"/>
<path d="M925.538 1408.82L926.383 1398.76L989.19 1394.46L989.416 1405.6" fill="#8869D5"/>
<path d="M925.538 1408.82L926.383 1398.76L989.19 1394.46L989.416 1405.6" stroke="#0626A9" stroke-width="2" stroke-linecap="round" stroke-linejoin="round"/>
<path d="M925.964 1442.09L989.867 1441.08L989.409 1404.82L924.271 1408.39" fill="#8869D5"/>
<path d="M925.965 1442.09L989.867 1441.08L989.409 1404.82" stroke="#0626A9" stroke-width="2" stroke-linecap="round" stroke-linejoin="round"/>
<path d="M925.965 1442.09L989.869 1441.23L989.77 1433.37L925.307 1434.18L925.965 1442.09Z" fill="#0626A9"/>
<path d="M925.024 1408.29C925.024 1408.29 934.034 1406.18 944.878 1411.95Z" fill="#8869D5"/>
<path d="M925.024 1408.29C925.024 1408.29 934.034 1406.18 944.878 1411.95" stroke="#0626A9" stroke-width="2" stroke-linecap="round" stroke-linejoin="round"/>
<path d="M916.972 1213.31C917.056 1231.99 932.262 1247.06 950.936 1246.97C969.61 1246.89 984.682 1231.68 984.598 1213.01C984.514 1194.34 969.308 1179.26 950.634 1179.35C931.96 1179.43 916.888 1194.64 916.972 1213.31Z" fill="#0626A9"/>
<path d="M916.972 1213.31C917.056 1231.99 932.262 1247.06 950.936 1246.97C969.61 1246.89 984.682 1231.68 984.598 1213.01C984.514 1194.34 969.308 1179.26 950.634 1179.35C931.96 1179.43 916.888 1194.64 916.972 1213.31Z" stroke="#0626A9" stroke-width="2" stroke-linecap="round" stroke-linejoin="round"/>
<path d="M916.973 1212.85L917.231 1410.35C917.231 1410.35 928.23 1406.11 953.475 1415.55C977.064 1424.36 989.551 1416.88 989.551 1416.88L984.582 1214.2" fill="#0626A9"/>
<path d="M916.973 1212.85L917.231 1410.35C917.231 1410.35 928.23 1406.11 953.475 1415.55C977.064 1424.36 989.551 1416.88 989.551 1416.88L984.582 1214.2" stroke="#0626A9" stroke-width="2" stroke-linecap="round" stroke-linejoin="round"/>
<path d="M916.644 1065.57C916.728 1084.25 931.934 1099.32 950.608 1099.23C969.282 1099.15 984.354 1083.94 984.27 1065.27C984.186 1046.6 968.98 1031.52 950.306 1031.61C931.632 1031.69 916.56 1046.9 916.644 1065.57Z" fill="#0626A9"/>
<path d="M916.644 1065.57C916.728 1084.25 931.934 1099.32 950.608 1099.23C969.282 1099.15 984.354 1083.94 984.27 1065.27C984.186 1046.6 968.98 1031.52 950.306 1031.61C931.632 1031.69 916.56 1046.9 916.644 1065.57Z" stroke="#0626A9" stroke-width="2" stroke-linecap="round" stroke-linejoin="round"/>
<path d="M984.596 1213.49L984.253 1061.43L916.77 1063.87L917.064 1210.64" fill="#0626A9"/>
<path d="M984.596 1213.49L984.253 1061.43L916.77 1063.87L917.064 1210.64" stroke="#0626A9" stroke-width="2" stroke-linecap="round" stroke-linejoin="round"/>
<path d="M916.77 1063.87L917.064 1210.64Z" fill="#0626A9"/>
<path d="M916.77 1063.87L917.064 1210.64" stroke="#0626A9" stroke-width="2" stroke-linecap="round" stroke-linejoin="round"/>
<path d="M828.107 839.764C827.494 841.822 825.329 842.993 823.271 842.38C821.213 841.767 820.042 839.602 820.655 837.544C821.268 835.486 823.433 834.315 825.491 834.928C827.549 835.541 828.72 837.706 828.107 839.764Z" fill="white"/>
<path d="M828.107 839.764C827.494 841.822 825.329 842.993 823.271 842.38C821.213 841.767 820.042 839.602 820.655 837.544C821.268 835.486 823.433 834.315 825.491 834.928C827.549 835.541 828.72 837.706 828.107 839.764Z" stroke="#0626A9" stroke-width="2" stroke-linecap="round" stroke-linejoin="round"/>
<path d="M828.043 837.112C828.043 837.112 824.85 829.435 822.77 828.175C820.69 826.915 818.254 829.479 819.146 834.248C819.928 838.431 820.608 840.448 820.608 840.448" fill="white"/>
<path d="M828.043 837.112C828.043 837.112 824.85 829.435 822.77 828.175C820.69 826.915 818.254 829.479 819.146 834.248C819.928 838.431 820.608 840.448 820.608 840.448" stroke="#0626A9" stroke-width="2" stroke-linecap="round" stroke-linejoin="round"/>
<path d="M833.318 852.846C832.49 855.626 829.565 857.207 826.785 856.379C824.005 855.551 822.424 852.626 823.252 849.846C824.08 847.066 827.005 845.485 829.785 846.313C832.565 847.141 834.146 850.066 833.318 852.846Z" fill="white"/>
<path d="M833.318 852.846C832.49 855.626 829.565 857.207 826.785 856.379C824.005 855.551 822.424 852.626 823.252 849.846C824.08 847.066 827.005 845.485 829.785 846.313C832.565 847.141 834.146 850.066 833.318 852.846Z" stroke="#0626A9" stroke-width="2" stroke-linecap="round" stroke-linejoin="round"/>
<path d="M833.1 849.4L828.044 837.112L820.432 839.968L823.225 852.328" fill="white"/>
<path d="M820.432 839.968L823.226 852.328" stroke="#0626A9" stroke-width="2" stroke-linecap="round" stroke-linejoin="round"/>
<path d="M833.1 849.4L828.044 837.112" stroke="#0626A9" stroke-width="2" stroke-linecap="round" stroke-linejoin="round"/>
<path d="M845.946 891.197C843.215 900.364 833.57 905.581 824.403 902.85C815.236 900.119 810.019 890.474 812.75 881.307C815.481 872.14 825.126 866.923 834.293 869.654C843.46 872.385 848.677 882.03 845.946 891.197Z" fill="white"/>
<path d="M845.946 891.197C843.215 900.364 833.57 905.581 824.403 902.85C815.236 900.119 810.019 890.474 812.75 881.307C815.481 872.14 825.126 866.923 834.293 869.654C843.46 872.385 848.677 882.03 845.946 891.197Z" stroke="#0626A9" stroke-width="2" stroke-linecap="round" stroke-linejoin="round"/>
<path d="M845.281 879.145L832.893 849.018L823.07 851.689C823.07 851.689 817.758 850.474 814.753 854.762C814.753 854.762 810.896 852.901 808.762 857.674C808.762 857.674 805.463 857.775 803.766 862.021C802.069 866.267 802.631 877.678 803.278 880.379C804.674 886.203 808.907 882.981 808.907 882.981L814.419 895.46" fill="white"/>
<path d="M823.071 851.689C823.071 851.689 817.759 850.474 814.754 854.762C814.754 854.762 810.896 852.901 808.762 857.674C808.762 857.674 805.464 857.775 803.767 862.021C802.07 866.267 802.632 877.677 803.279 880.378C804.675 886.202 808.908 882.981 808.908 882.981L814.42 895.46" stroke="#0626A9" stroke-width="2" stroke-linecap="round" stroke-linejoin="round"/>
<path d="M845.282 879.145L833.06 849.175" stroke="#0626A9" stroke-width="2" stroke-linecap="round" stroke-linejoin="round"/>
<path d="M808.908 882.981C808.908 882.981 805.196 869.486 809.141 856.681Z" fill="white"/>
<path d="M808.908 882.981C808.908 882.981 805.196 869.486 809.141 856.681" stroke="#0626A9" stroke-width="2" stroke-linecap="round" stroke-linejoin="round"/>
<path d="M814.988 854.69C814.988 854.69 812.588 870.628 814.974 878.384C814.974 878.384 814.497 885.714 809.11 883.255" fill="white"/>
<path d="M814.988 854.69C814.988 854.69 812.588 870.628 814.974 878.384C814.974 878.384 814.497 885.714 809.11 883.255" stroke="#0626A9" stroke-width="2" stroke-linecap="round" stroke-linejoin="round"/>
<path d="M834.994 862.785C834.994 862.785 826.472 854.482 824.253 851.899C822.034 849.316 818.815 851.88 819.282 855.328C819.682 858.28 825.477 866.781 825.477 866.781C825.477 866.781 822.902 873.273 824.758 880.658" fill="white"/>
<path d="M834.994 862.785C834.994 862.785 826.472 854.482 824.253 851.899C822.034 849.316 818.815 851.88 819.282 855.328C819.682 858.28 825.477 866.781 825.477 866.781C825.477 866.781 822.902 873.273 824.758 880.658" stroke="#0626A9" stroke-width="2" stroke-linecap="round" stroke-linejoin="round"/>
<path d="M815.047 878.618C815.047 878.618 817.604 883.65 820.849 879.208C822.577 876.842 821.325 868.534 822.431 862.672" fill="white"/>
<path d="M815.047 878.618C815.047 878.618 817.604 883.65 820.849 879.208C822.577 876.842 821.325 868.534 822.431 862.672" stroke="#0626A9" stroke-width="2" stroke-linecap="round" stroke-linejoin="round"/>
<path d="M844.567 976.456C834.128 967.713 832.752 952.163 841.495 941.724C850.238 931.285 865.788 929.909 876.227 938.652C886.666 947.395 888.042 962.945 879.299 973.384C870.556 983.823 855.006 985.199 844.567 976.456Z" fill="white"/>
<path d="M844.567 976.456C834.128 967.713 832.752 952.163 841.495 941.724C850.238 931.285 865.788 929.909 876.227 938.652C886.666 947.395 888.042 962.945 879.299 973.384C870.556 983.823 855.006 985.199 844.567 976.456Z" stroke="#0626A9" stroke-width="2" stroke-linecap="round" stroke-linejoin="round"/>
<path d="M961.275 931.35C954.045 940.137 941.06 941.4 932.273 934.17C923.486 926.94 922.223 913.955 929.453 905.168C936.683 896.381 949.668 895.118 958.455 902.348C967.242 909.578 968.505 922.563 961.275 931.35Z" fill="white"/>
<path d="M961.275 931.35C954.045 940.137 941.06 941.4 932.273 934.17C923.486 926.94 922.223 913.955 929.453 905.168C936.683 896.381 949.668 895.118 958.455 902.348C967.242 909.578 968.505 922.563 961.275 931.35Z" stroke="#0626A9" stroke-width="2" stroke-linecap="round" stroke-linejoin="round"/>
<path d="M938.953 898.256C929.293 901.425 849.584 935.697 849.584 935.697L871.136 979.94L949.662 938.515" fill="white"/>
<path d="M871.136 979.939L949.662 938.515Z" fill="white"/>
<path d="M871.136 979.939L949.662 938.515" stroke="#0626A9" stroke-width="2" stroke-linecap="round" stroke-linejoin="round"/>
<path d="M938.952 898.257C929.292 901.426 849.584 935.697 849.584 935.697Z" fill="white"/>
<path d="M938.952 898.257C929.292 901.426 849.584 935.697 849.584 935.697" stroke="#0626A9" stroke-width="2" stroke-linecap="round" stroke-linejoin="round"/>
<path d="M853.713 970.635C846.489 966.944 843.625 958.094 847.316 950.87C851.007 943.646 859.857 940.782 867.081 944.473C874.305 948.164 877.169 957.014 873.478 964.238C869.787 971.462 860.937 974.326 853.713 970.635Z" fill="white"/>
<path d="M875.493 935.275L867.446 922.026C867.446 922.026 860.383 927.74 848.373 932.998C838.992 937.105 821.848 938.955 821.848 938.955C821.848 938.955 816.744 946.77 842.174 974.188" fill="white"/>
<path d="M875.493 935.275L867.446 922.026C867.446 922.026 860.383 927.74 848.373 932.998C838.992 937.105 821.848 938.955 821.848 938.955C821.848 938.955 816.744 946.77 842.174 974.188" stroke="#0626A9" stroke-width="2" stroke-linecap="round" stroke-linejoin="round"/>
<path d="M822.235 938.03C820.975 939.965 820.641 943.481 824.207 944.477C829.797 946.039 847.961 936.846 852.804 933.45C857.647 930.054 839.066 912.186 822.235 938.03Z" fill="white"/>
<path d="M822.235 938.03C820.975 939.965 820.641 943.481 824.207 944.477C829.797 946.039 847.961 936.846 852.804 933.45C857.647 930.054 839.066 912.186 822.235 938.03Z" stroke="#0626A9" stroke-width="2" stroke-linecap="round" stroke-linejoin="round"/>
<path d="M843.75 876.405L867.647 922.731C867.647 922.731 862.114 931.359 838.882 940.939L814.529 895.668" fill="white"/>
<path d="M843.75 876.405L867.647 922.731C867.647 922.731 862.114 931.359 838.882 940.939L814.529 895.668" stroke="#0626A9" stroke-width="2" stroke-linecap="round" stroke-linejoin="round"/>
<path d="M836.27 934.686C836.27 934.686 851.554 934.895 867.648 922.731C867.648 922.731 854.993 935.57 838.883 940.939L836.27 934.686Z" fill="#0626A9"/>
<path d="M968.39 895.032L971.939 862.176L998.658 853.067L1003.03 894.373" fill="white"/>
<path d="M968.39 895.032L971.939 862.176L998.658 853.067L1003.03 894.373" stroke="#0626A9" stroke-width="2" stroke-linecap="round" stroke-linejoin="round"/>
<path d="M967.488 826.495C967.488 826.495 966.044 824.765 967.365 819.357C968.686 813.949 971.262 812.344 973.67 812.826C976.078 813.308 977.448 815.844 977.32 816.014C977.192 816.184 967.488 826.495 967.488 826.495Z" fill="#8869D5"/>
<path d="M979.5 864.274C963.378 867.265 950.956 859.407 950.132 848.755C949.308 838.103 965.627 823.931 967.051 822.004C975.371 810.742 979.522 807.668 984.796 806.394C997.605 803.299 1018.36 820.703 1015.85 835.587C1013.56 849.158 994.992 860.929 994.992 860.929" fill="white"/>
<path d="M979.5 864.274C963.378 867.265 950.956 859.407 950.132 848.755C949.308 838.103 965.627 823.931 967.051 822.004C975.371 810.742 979.522 807.668 984.796 806.394C997.605 803.299 1018.36 820.703 1015.85 835.587C1013.56 849.158 994.992 860.929 994.992 860.929" stroke="#0626A9" stroke-width="2" stroke-linecap="round" stroke-linejoin="round"/>
<path d="M980.893 831.682C979.953 832.504 981.796 834.546 983.953 837.012C986.11 839.478 987.765 841.434 988.705 840.612C989.645 839.79 988.658 837.124 986.501 834.658C984.344 832.192 981.833 830.86 980.893 831.682Z" fill="#8869D5"/>
<path d="M967.502 821.111C966.739 822.128 968.191 822.995 970.019 824.367C971.847 825.739 972.955 827.073 973.718 826.056C974.481 825.039 973.618 823.102 971.79 821.73C969.962 820.358 968.265 820.094 967.502 821.111Z" fill="#8869D5"/>
<path d="M964.75 847.36C967.018 848.032 971.506 848.366 971.506 848.366Z" fill="white"/>
<path d="M964.75 847.36C967.018 848.032 971.506 848.366 971.506 848.366" stroke="#0626A9" stroke-width="2" stroke-linecap="round" stroke-linejoin="round"/>
<path d="M973.251 832.797C973.251 832.797 971.358 835.116 969.682 835.353C968.006 835.59 967.481 834.297 965.565 835.252C963.649 836.207 963.927 838.9 965.146 840.295" fill="white"/>
<path d="M973.251 832.797C973.251 832.797 971.358 835.116 969.682 835.353C968.006 835.59 967.481 834.297 965.565 835.252C963.649 836.207 963.927 838.9 965.146 840.295" stroke="#0626A9" stroke-width="2" stroke-linecap="round" stroke-linejoin="round"/>
<path d="M978.727 838.571C978.152 838.725 977.813 839.317 977.967 839.891C978.121 840.466 978.713 840.805 979.287 840.651C979.862 840.497 980.201 839.905 980.047 839.331C979.893 838.756 979.301 838.417 978.727 838.571Z" fill="#0626A9"/>
<path d="M967.711 828.82C967.159 829.043 966.895 829.671 967.118 830.223C967.34 830.774 967.969 831.039 968.52 830.816C969.072 830.593 969.336 829.965 969.114 829.413C968.891 828.862 968.262 828.597 967.711 828.82Z" fill="#0626A9"/>
<path d="M983.219 802.057C998.195 797.664 1007.49 809.142 1007.49 809.142C1007.49 809.142 1019.57 819.609 1018.85 833.572C1018.12 847.535 1005.92 856.009 1005.92 856.009C1005.92 856.009 997.975 855.247 996.214 852.346C994.453 849.445 997.215 848.498 995.954 844.094C994.693 839.69 991.569 834.818 992.841 827.89C994.113 820.962 999.638 816.76 999.638 816.76C999.638 816.76 992.016 814.789 986.87 817.341C982.394 819.561 979.862 824.71 979.862 824.71L966.567 814.711C966.567 814.711 972.141 805.306 983.219 802.057Z" fill="#8869D5"/>
<path d="M999.639 816.761C999.639 816.761 994.474 816.637 989.328 819.189C984.852 821.409 982.319 826.558 982.319 826.558" fill="white"/>
<path d="M999.639 816.761C999.639 816.761 994.474 816.637 989.328 819.189C984.852 821.409 982.319 826.558 982.319 826.558" stroke="#8869D5" stroke-width="2" stroke-linecap="round" stroke-linejoin="round"/>
<path d="M994.809 849.081C994.809 849.081 1001.35 845.137 1005.72 848.305C1009.42 850.987 1009.55 857.355 1004.42 860.797C999.21 864.289 993.094 864.112 991.942 863.246C989.742 861.592 989.292 859.006 990.395 857.141" fill="white"/>
<path d="M994.809 849.081C994.809 849.081 1001.35 845.137 1005.72 848.305C1009.42 850.987 1009.55 857.355 1004.42 860.797C999.21 864.289 993.094 864.112 991.942 863.246C989.742 861.592 989.292 859.006 990.395 857.141" stroke="#0626A9" stroke-width="2" stroke-linecap="round" stroke-linejoin="round"/>
<path d="M1004.38 854.478C1004.38 854.478 1003.69 850.217 997.389 853.416C997.389 853.416 1000.55 853.995 1001.17 855.958" fill="white"/>
<path d="M1004.38 854.478C1004.38 854.478 1003.69 850.217 997.389 853.416C997.389 853.416 1000.55 853.995 1001.17 855.958" stroke="#0626A9" stroke-width="2" stroke-linecap="round" stroke-linejoin="round"/>
<path d="M1046.21 1424.55C1046.19 1433.89 1053.75 1441.49 1063.1 1441.51C1072.45 1441.53 1080.05 1433.97 1080.07 1424.62C1080.09 1415.27 1072.52 1407.68 1063.18 1407.65C1053.83 1407.63 1046.23 1415.2 1046.21 1424.55Z" fill="#0626A9"/>
<path d="M1046.21 1424.55C1046.19 1433.89 1053.75 1441.49 1063.1 1441.51C1072.45 1441.53 1080.05 1433.97 1080.07 1424.62C1080.09 1415.27 1072.52 1407.68 1063.18 1407.65C1053.83 1407.63 1046.23 1415.2 1046.21 1424.55Z" stroke="#0626A9" stroke-width="2" stroke-linecap="round" stroke-linejoin="round"/>
<path d="M1054.15 1424.61C1054.14 1429.58 1058.15 1433.61 1063.12 1433.62C1068.08 1433.63 1072.11 1429.62 1072.13 1424.65C1072.14 1419.69 1068.12 1415.66 1063.16 1415.65C1058.19 1415.63 1054.16 1419.65 1054.15 1424.61Z" fill="#8869D5"/>
<path d="M1062.4 1407.57C1059.5 1407.83 1056.91 1408.65 1054.59 1409.87H1054.59C1053.72 1410.32 1052.89 1410.84 1052.1 1411.4C1051.16 1412.05 1050.29 1412.77 1049.47 1413.54C1048.86 1414.1 1048.29 1414.69 1047.74 1415.29C1041.89 1421.75 1039.19 1430.36 1038.83 1433.55C1038.53 1436.14 1038.48 1438.74 1038.48 1441.42L1063.1 1441.51" fill="#8869D5"/>
<path d="M1062.4 1407.57C1059.5 1407.83 1056.91 1408.65 1054.59 1409.87H1054.59C1053.72 1410.32 1052.89 1410.84 1052.1 1411.4C1051.16 1412.05 1050.29 1412.77 1049.47 1413.54C1048.86 1414.1 1048.29 1414.69 1047.74 1415.29C1041.89 1421.75 1039.19 1430.36 1038.83 1433.55C1038.53 1436.14 1038.48 1438.74 1038.48 1441.42L1063.1 1441.51" stroke="#0626A9" stroke-width="2" stroke-linecap="round" stroke-linejoin="round"/>
<path d="M1038.45 1441.42L1063.1 1441.51L1063.05 1433.62L1038.54 1433.56C1038.38 1436.1 1038.45 1438.74 1038.45 1441.42Z" fill="#0626A9"/>
<path d="M1055.84 1407.27C1062.07 1423.78 1080.51 1432.11 1097.02 1425.88C1113.53 1419.64 1121.86 1401.21 1115.63 1384.7C1109.39 1368.19 1090.95 1359.86 1074.44 1366.09C1057.93 1372.33 1049.6 1390.76 1055.84 1407.27Z" fill="#0626A9"/>
<path d="M1055.84 1407.27C1062.07 1423.78 1080.51 1432.11 1097.02 1425.88C1113.53 1419.64 1121.86 1401.21 1115.63 1384.7C1109.39 1368.19 1090.95 1359.86 1074.44 1366.09C1057.93 1372.33 1049.6 1390.76 1055.84 1407.27Z" stroke="#0626A9" stroke-width="2" stroke-linecap="round" stroke-linejoin="round"/>
<path d="M1056.51 1409.15L1053.4 1397.08L1111.61 1374.31L1115.63 1384.69" fill="#8869D5"/>
<path d="M1056.51 1409.15L1053.4 1397.08L1111.61 1374.31L1115.63 1384.69" stroke="#0626A9" stroke-width="2" stroke-linecap="round" stroke-linejoin="round"/>
<path d="M1068.45 1440.66L1128.17 1417.89L1115.36 1383.97L1056.03 1409.21" fill="#8869D5"/>
<path d="M1068.45 1440.66L1128.17 1417.89L1115.36 1383.97" stroke="#0626A9" stroke-width="2" stroke-linecap="round" stroke-linejoin="round"/>
<path d="M1068.45 1440.66L1128.22 1418.03L1125.44 1410.68L1065.13 1433.45L1068.45 1440.66Z" fill="#0626A9"/>
<path d="M1056.03 1409.21C1056.03 1409.21 1063.78 1404.16 1075.94 1405.88Z" fill="#8869D5"/>
<path d="M1056.03 1409.21C1056.03 1409.21 1063.78 1404.16 1075.94 1405.88" stroke="#0626A9" stroke-width="2" stroke-linecap="round" stroke-linejoin="round"/>
<path d="M965.57 1068.43C975.61 1066.72 985.629 1064.73 995.614 1062.72C1005.74 1060.68 1016.14 1056.05 1026.1 1053.31L1015.35 1017.34L940.964 1014.99C940.964 1014.99 918.404 1025.72 916.78 1063.39C919.166 1064.28 955.965 1070.08 965.57 1068.43Z" fill="#0626A9"/>
<path d="M965.57 1068.43C975.61 1066.72 985.629 1064.73 995.614 1062.72C1005.74 1060.68 1016.14 1056.05 1026.1 1053.31L1015.35 1017.34L940.964 1014.99C940.964 1014.99 918.404 1025.72 916.78 1063.39C919.166 1064.28 955.965 1070.08 965.57 1068.43Z" stroke="#0626A9" stroke-width="2" stroke-linecap="round" stroke-linejoin="round"/>
<path d="M1015.47 1020.48C1015.47 1041.17 998.699 1057.94 978.009 1057.94C957.319 1057.94 940.547 1041.17 940.547 1020.48C940.547 999.787 957.319 983.015 978.009 983.015C998.699 983.015 1015.47 999.787 1015.47 1020.48Z" fill="#0626A9"/>
<path d="M1015.47 1020.48C1015.47 1041.17 998.699 1057.94 978.009 1057.94C957.319 1057.94 940.547 1041.17 940.547 1020.48C940.547 999.787 957.319 983.015 978.009 983.015C998.699 983.015 1015.47 999.787 1015.47 1020.48Z" stroke="#0626A9" stroke-width="2" stroke-linecap="round" stroke-linejoin="round"/>
<path d="M1020.71 950.351L1015.18 1017.06C1015.18 1017.06 982.986 1022.43 967.849 1020.99C950.149 1019.3 940.218 1015.46 940.218 1015.46L939.287 979.484C927.033 947.769 939.257 928.967 939.257 928.967C939.257 928.967 936.802 900.507 938.408 898.5C940.014 896.493 1025.11 901.256 1025.11 901.256L1020.71 950.351Z" fill="white"/>
<path d="M1020.71 950.351L1015.35 1016.89C1015.35 1016.89 982.986 1022.43 967.849 1020.99C950.149 1019.3 940.218 1015.46 940.218 1015.46L939.286 979.484C927.032 947.769 939.257 928.967 939.257 928.967" stroke="#0626A9" stroke-width="2" stroke-linecap="round" stroke-linejoin="round"/>
<path d="M1002.3 889.503C1015.23 894.428 1025.11 901.257 1025.11 901.257C975.136 909.426 938.406 898.5 938.406 898.5C938.406 898.5 948.432 894.203 968.901 889.503" fill="white"/>
<path d="M1002.3 889.503C1015.23 894.428 1025.11 901.257 1025.11 901.257C975.136 909.426 938.406 898.5 938.406 898.5C938.406 898.5 948.432 894.203 968.901 889.503" stroke="#0626A9" stroke-width="2" stroke-linecap="round" stroke-linejoin="round"/>
<path d="M1110.71 971.294C1112.82 983.676 1104.51 995.431 1092.12 997.549C1079.74 999.667 1067.99 991.348 1065.87 978.966C1063.75 966.584 1072.07 954.829 1084.45 952.711C1096.83 950.593 1108.59 958.912 1110.71 971.294Z" fill="white"/>
<path d="M1110.71 971.294C1112.82 983.676 1104.51 995.431 1092.12 997.549C1079.74 999.667 1067.99 991.348 1065.87 978.966C1063.75 966.584 1072.07 954.829 1084.45 952.711C1096.83 950.593 1108.59 958.912 1110.71 971.294Z" stroke="#0626A9" stroke-width="2" stroke-linecap="round" stroke-linejoin="round"/>
<path d="M1025.11 901.257C1033.39 904.838 1087.64 939.019 1098.34 947.861C1110.68 958.064 1118.73 977.656 1102.71 992.723C1094.03 1000.88 1075.97 994.342 1075.97 994.342C1075.97 994.342 1016.95 962.73 1006.03 956.085" fill="white"/>
<path d="M1025.11 901.257C1033.39 904.838 1087.64 939.019 1098.34 947.861C1110.68 958.064 1118.73 977.656 1102.71 992.723C1094.03 1000.88 1075.97 994.342 1075.97 994.342C1075.97 994.342 1016.95 962.73 1006.03 956.085" stroke="#0626A9" stroke-width="2" stroke-linecap="round" stroke-linejoin="round"/>
<path d="M1048.05 1018.79C1052.2 1026.12 1049.61 1035.43 1042.28 1039.58C1034.95 1043.72 1025.64 1041.14 1021.5 1033.81C1017.35 1026.48 1019.93 1017.17 1027.26 1013.03C1034.6 1008.88 1043.9 1011.46 1048.05 1018.79Z" fill="white"/>
<path d="M1048.05 1018.79C1052.2 1026.12 1049.61 1035.43 1042.28 1039.58C1034.95 1043.72 1025.64 1041.14 1021.5 1033.81C1017.35 1026.48 1019.93 1017.17 1027.26 1013.03C1034.6 1008.88 1043.9 1011.46 1048.05 1018.79Z" stroke="#0626A9" stroke-width="2" stroke-linecap="round" stroke-linejoin="round"/>
<path d="M1093.29 1019.39C1092.46 1022.97 1083.67 1021.56 1070.68 1013C1057.68 1004.45 1077.19 991.038 1077.19 991.038C1077.19 991.038 1096.04 1007.5 1093.29 1019.39Z" fill="white"/>
<path d="M1093.29 1019.39C1092.46 1022.97 1083.67 1021.56 1070.68 1013C1057.68 1004.45 1077.19 991.038 1077.19 991.038C1077.19 991.038 1096.04 1007.5 1093.29 1019.39Z" stroke="#0626A9" stroke-width="2" stroke-linecap="round" stroke-linejoin="round"/>
<path d="M1102.32 992.682C1093.8 1001 1043.42 1038.85 1043.42 1038.85L1024.9 1014.46L1065.56 969.142" fill="white"/>
<path d="M1024.9 1014.46L1065.56 969.142Z" fill="white"/>
<path d="M1024.9 1014.46L1065.56 969.142" stroke="#0626A9" stroke-width="2" stroke-linecap="round" stroke-linejoin="round"/>
<path d="M1102.32 992.682C1093.8 1001 1043.42 1038.85 1043.42 1038.85Z" fill="white"/>
<path d="M1102.32 992.682C1093.8 1001 1043.42 1038.85 1043.42 1038.85" stroke="#0626A9" stroke-width="2" stroke-linecap="round" stroke-linejoin="round"/>
<path d="M1070.58 960.798C1067.25 964.452 1050.23 986.048 1050.53 985.693C1050.53 985.693 1055.39 985.993 1063.97 990.047C1076.82 996.122 1095.82 1009.88 1093.29 1019.39C1093.29 1019.39 1110.07 997.139 1111.43 975.894" fill="white"/>
<path d="M1070.58 960.798C1067.25 964.452 1050.23 986.048 1050.53 985.693C1050.53 985.693 1055.39 985.993 1063.97 990.047C1076.82 996.122 1095.82 1009.88 1093.29 1019.39C1093.29 1019.39 1110.07 997.139 1111.43 975.894" stroke="#0626A9" stroke-width="2" stroke-linecap="round" stroke-linejoin="round"/>
<path d="M1098.24 973.234C1099.29 978.732 1095.68 984.039 1090.18 985.086C1084.69 986.133 1079.38 982.524 1078.33 977.026C1077.28 971.528 1080.89 966.221 1086.39 965.174C1091.89 964.127 1097.2 967.736 1098.24 973.234Z" fill="white"/>
<path d="M1052.58 986.007C1052.58 986.007 1075.38 997.113 1079.7 1010.98L1087.08 1005.62C1087.08 1005.62 1072.01 991.015 1052.58 986.007Z" fill="#0626A9"/>
<path d="M1042.62 1017.44C1042.62 1017.44 1030.34 1010.03 1024.25 1008.29C1016.81 1006.17 1008.21 1004.96 999.827 1010.37C997.51 1011.87 992.712 1015.14 990.115 1018.25C987.607 1021.25 989.322 1022.39 989.322 1022.39C988.431 1024.68 991.603 1025.24 991.603 1025.24C991.603 1025.24 992.603 1029.6 996.586 1027.31C1004.76 1022.59 1008.5 1023.75 1008.5 1023.75C1008.5 1023.75 1004.44 1026.46 1003.3 1027.41C1000.81 1029.5 998.263 1031.84 1000.66 1033.25C1002.59 1034.38 1012.49 1030.13 1012.49 1030.13C1012.49 1030.13 1018.54 1038.25 1031.34 1041.05" fill="white"/>
<path d="M1042.62 1017.44C1042.62 1017.44 1030.34 1010.03 1024.25 1008.29C1016.81 1006.17 1008.21 1004.96 999.827 1010.37C997.51 1011.87 992.712 1015.14 990.115 1018.25C987.607 1021.25 989.322 1022.39 989.322 1022.39C988.431 1024.68 991.603 1025.24 991.603 1025.24C991.603 1025.24 992.603 1029.6 996.586 1027.31C1004.76 1022.59 1008.5 1023.75 1008.5 1023.75C1008.5 1023.75 1004.44 1026.46 1003.3 1027.41C1000.81 1029.5 998.263 1031.84 1000.66 1033.25C1002.59 1034.38 1012.49 1030.13 1012.49 1030.13C1012.49 1030.13 1018.54 1038.25 1031.34 1041.05" stroke="#0626A9" stroke-width="2" stroke-linecap="round" stroke-linejoin="round"/>
<path d="M1008.03 1024.11C1008.03 1024.11 1009.52 1023.08 1012.37 1021.75Z" fill="white"/>
<path d="M1008.03 1024.11C1008.03 1024.11 1009.52 1023.08 1012.37 1021.75" stroke="#0626A9" stroke-width="2" stroke-linecap="round" stroke-linejoin="round"/>
<path d="M991.604 1025.24C991.604 1025.24 998.677 1020.85 1001.08 1019.15C1004.89 1016.45 1010.95 1016.85 1010.95 1016.85" fill="white"/>
<path d="M991.604 1025.24C991.604 1025.24 998.677 1020.85 1001.08 1019.15C1004.89 1016.45 1010.95 1016.85 1010.95 1016.85" stroke="#0626A9" stroke-width="2" stroke-linecap="round" stroke-linejoin="round"/>
<path d="M989.323 1022.39C989.323 1022.39 995.056 1017.6 998.569 1015.04C1004.03 1011.08 1009.18 1011.07 1009.18 1011.07" fill="white"/>
<path d="M989.323 1022.39C989.323 1022.39 995.056 1017.6 998.569 1015.04C1004.03 1011.08 1009.18 1011.07 1009.18 1011.07" stroke="#0626A9" stroke-width="2" stroke-linecap="round" stroke-linejoin="round"/>
<path d="M1040.17 1023.25C1041.85 1026.23 1040.8 1030.01 1037.82 1031.69C1034.84 1033.38 1031.06 1032.33 1029.38 1029.35C1027.7 1026.37 1028.74 1022.59 1031.72 1020.91C1034.7 1019.22 1038.48 1020.27 1040.17 1023.25Z" fill="white"/>
<path d="M1001.85 1217.64C1006.88 1235.62 1025.54 1246.12 1043.53 1241.08C1061.51 1236.04 1072 1217.38 1066.97 1199.4C1061.93 1181.42 1043.27 1170.92 1025.29 1175.96C1007.3 1181 996.81 1199.66 1001.85 1217.64Z" fill="#0626A9"/>
<path d="M1001.85 1217.64C1006.88 1235.62 1025.54 1246.12 1043.53 1241.08C1061.51 1236.04 1072 1217.38 1066.97 1199.4C1061.93 1181.42 1043.27 1170.92 1025.29 1175.96C1007.3 1181 996.81 1199.66 1001.85 1217.64Z" stroke="#0626A9" stroke-width="2" stroke-linecap="round" stroke-linejoin="round"/>
<path d="M1001.73 1217.2L1048.34 1409.65C1048.34 1409.65 1059.51 1406.82 1084.67 1407.53C1109.84 1408.24 1119.8 1396.75 1119.8 1396.75L1067.27 1200.55" fill="#0626A9"/>
<path d="M1001.73 1217.2L1048.34 1409.65C1048.34 1409.65 1059.51 1406.82 1084.67 1407.53C1109.84 1408.24 1119.8 1396.75 1119.8 1396.75L1067.27 1200.55" stroke="#0626A9" stroke-width="2" stroke-linecap="round" stroke-linejoin="round"/>
<path d="M962.318 1075.29C967.355 1093.27 986.016 1103.76 1004 1098.73C1021.98 1093.69 1032.48 1075.03 1027.44 1057.05C1022.4 1039.06 1003.74 1028.57 985.758 1033.61C967.776 1038.64 957.281 1057.3 962.318 1075.29Z" fill="#0626A9"/>
<path d="M962.318 1075.29C967.355 1093.27 986.016 1103.76 1004 1098.73C1021.98 1093.69 1032.48 1075.03 1027.44 1057.05C1022.4 1039.06 1003.74 1028.57 985.758 1033.61C967.776 1038.64 957.281 1057.3 962.318 1075.29Z" stroke="#0626A9" stroke-width="2" stroke-linecap="round" stroke-linejoin="round"/>
<path d="M1067.09 1199.86L1044.99 1120.27L1026.4 1053.34L961.987 1073.61L1001.23 1215.04" fill="#0626A9"/>
<path d="M1067.09 1199.86L1044.99 1120.27L1026.4 1053.34L961.987 1073.61L1001.23 1215.04" stroke="#0626A9" stroke-width="2" stroke-linecap="round" stroke-linejoin="round"/>
<path d="M961.987 1073.61L969.906 1102.15L1001.23 1215.04" fill="#0626A9"/>
<path d="M961.987 1073.61L969.906 1102.15L1001.23 1215.04" stroke="#0626A9" stroke-width="2" stroke-linecap="round" stroke-linejoin="round"/>
<path d="M987.76 1174.33L964.541 1083.67L955.304 1074.88" stroke="white" stroke-width="2" stroke-linecap="round" stroke-linejoin="round"/>
</g>
<mask id="mask10_24_20100" style="mask-type:luminance" maskUnits="userSpaceOnUse" x="0" y="0" width="1600" height="1600">
<path d="M0 0H1600V1600H0V0Z" fill="white"/>
</mask>
<g mask="url(#mask10_24_20100)">
<path d="M356.415 775.952C366.009 785.122 381.22 784.777 390.39 775.183C399.56 765.589 399.215 750.378 389.621 741.208C380.027 732.038 364.816 732.383 355.646 741.977C346.476 751.571 346.821 766.782 356.415 775.952Z" fill="white"/>
<path d="M356.415 775.952C366.009 785.122 381.22 784.777 390.39 775.183C399.56 765.589 399.215 750.378 389.621 741.208C380.027 732.038 364.816 732.383 355.646 741.977C346.476 751.571 346.821 766.782 356.415 775.952Z" stroke="#0626A9" stroke-width="2" stroke-linecap="round" stroke-linejoin="round"/>
<path d="M292.906 710.901C301.782 721.626 317.672 723.126 328.397 714.25C339.122 705.374 340.622 689.484 331.746 678.759C322.87 668.034 306.98 666.534 296.255 675.41C285.53 684.286 284.03 700.176 292.906 710.901Z" fill="white"/>
<path d="M389.621 741.209L343.026 694.464L308.229 726.703L355.087 774.682" fill="white"/>
<path d="M389.621 741.209L343.026 694.464L308.229 726.703L355.087 774.682" stroke="#0626A9" stroke-width="2" stroke-linecap="round" stroke-linejoin="round"/>
<path d="M331.939 679.066L358.31 705.121C358.31 705.121 355.701 703.061 349.983 706.042C342.267 710.066 330.237 720.627 319.103 737.838L296.37 714.503" fill="#84AAE4"/>
<path d="M331.939 679.066L358.31 705.121C358.31 705.121 355.701 703.061 349.983 706.042C342.267 710.066 330.237 720.627 319.103 737.838L296.37 714.503" stroke="#0626A9" stroke-width="2" stroke-linecap="round" stroke-linejoin="round"/>
<path d="M358.311 705.121C358.311 705.121 361.368 708.141 359.538 710.811Z" fill="#84AAE4"/>
<path d="M358.311 705.121C358.311 705.121 361.368 708.141 359.538 710.811" stroke="#0626A9" stroke-width="2" stroke-linecap="round" stroke-linejoin="round"/>
<path d="M357.47 709.437C357.47 709.437 344.67 711.011 320.699 738.541L319.45 737.307C319.45 737.307 336.94 708.983 353.396 704.711L357.47 709.437Z" fill="#0626A9"/>
<path d="M452.548 647.586C452.548 649.603 454.183 651.238 456.2 651.238C458.217 651.238 459.852 649.603 459.852 647.586C459.852 645.569 458.217 643.934 456.2 643.934C454.183 643.934 452.548 645.569 452.548 647.586Z" fill="white"/>
<path d="M452.548 647.586C452.548 649.603 454.183 651.238 456.2 651.238C458.217 651.238 459.852 649.603 459.852 647.586C459.852 645.569 458.217 643.934 456.2 643.934C454.183 643.934 452.548 645.569 452.548 647.586Z" stroke="#0626A9" stroke-width="2" stroke-linecap="round" stroke-linejoin="round"/>
<path d="M453.315 645.215C453.315 645.215 458.249 639.16 460.46 638.583C462.671 638.006 464.176 640.968 462.094 645.023C460.268 648.579 459.114 650.213 459.114 650.213" fill="white"/>
<path d="M453.315 645.215C453.315 645.215 458.249 639.16 460.46 638.583C462.671 638.006 464.176 640.968 462.094 645.023C460.268 648.579 459.114 650.213 459.114 650.213" stroke="#0626A9" stroke-width="2" stroke-linecap="round" stroke-linejoin="round"/>
<path d="M444.345 657.967C444.345 660.692 446.554 662.901 449.279 662.901C452.004 662.901 454.213 660.692 454.213 657.967C454.213 655.242 452.004 653.033 449.279 653.033C446.554 653.033 444.345 655.242 444.345 657.967Z" fill="white"/>
<path d="M444.345 657.967C444.345 660.692 446.554 662.901 449.279 662.901C452.004 662.901 454.213 660.692 454.213 657.967C454.213 655.242 452.004 653.033 449.279 653.033C446.554 653.033 444.345 655.242 444.345 657.967Z" stroke="#0626A9" stroke-width="2" stroke-linecap="round" stroke-linejoin="round"/>
<path d="M445.467 654.923L453.316 645.215L459.403 649.829L453.572 660.209" fill="white"/>
<path d="M459.403 649.829L453.571 660.209" stroke="#0626A9" stroke-width="2" stroke-linecap="round" stroke-linejoin="round"/>
<path d="M445.466 654.923L453.316 645.215" stroke="#0626A9" stroke-width="2" stroke-linecap="round" stroke-linejoin="round"/>
<path d="M422.687 689.112C422.687 698.099 429.972 705.384 438.959 705.384C447.946 705.384 455.231 698.099 455.231 689.112C455.231 680.125 447.946 672.84 438.959 672.84C429.972 672.84 422.687 680.125 422.687 689.112Z" fill="white"/>
<path d="M422.687 689.112C422.687 698.099 429.972 705.384 438.959 705.384C447.946 705.384 455.231 698.099 455.231 689.112C455.231 680.125 447.946 672.84 438.959 672.84C429.972 672.84 422.687 680.125 422.687 689.112Z" stroke="#0626A9" stroke-width="2" stroke-linecap="round" stroke-linejoin="round"/>
<path d="M426.518 678.438L445.755 654.634L453.883 659.675C453.883 659.675 458.991 660.006 460.547 664.673C460.547 664.673 464.52 664.032 465.161 668.902C465.161 668.902 468.104 669.879 468.493 674.157C468.882 678.435 465.314 688.559 464.007 690.817C461.188 695.687 458.24 691.65 458.24 691.65L449.929 701.408" fill="white"/>
<path d="M453.883 659.676C453.883 659.676 458.991 660.007 460.547 664.674C460.547 664.674 464.52 664.033 465.161 668.903C465.161 668.903 468.104 669.879 468.493 674.157C468.882 678.435 465.314 688.559 464.007 690.817C461.188 695.687 458.24 691.65 458.24 691.65L449.93 701.408" stroke="#0626A9" stroke-width="2" stroke-linecap="round" stroke-linejoin="round"/>
<path d="M426.518 678.439L445.562 654.731" stroke="#0626A9" stroke-width="2" stroke-linecap="round" stroke-linejoin="round"/>
<path d="M458.24 691.651C458.24 691.651 465.202 680.496 465.085 667.907Z" fill="white"/>
<path d="M458.24 691.651C458.24 691.651 465.202 680.496 465.085 667.907" stroke="#0626A9" stroke-width="2" stroke-linecap="round" stroke-linejoin="round"/>
<path d="M460.356 664.546C460.356 664.546 458.241 679.54 454.012 685.884C454.012 685.884 452.474 692.612 457.985 691.843" fill="white"/>
<path d="M460.356 664.546C460.356 664.546 458.241 679.54 454.012 685.884C454.012 685.884 452.474 692.612 457.985 691.843" stroke="#0626A9" stroke-width="2" stroke-linecap="round" stroke-linejoin="round"/>
<path d="M440.17 666.468C440.17 666.468 450.071 661.278 452.762 659.548C455.453 657.818 457.664 660.989 456.318 663.969C455.166 666.52 447.667 672.62 447.667 672.62C447.667 672.62 448.244 679.156 444.592 685.307" fill="white"/>
<path d="M440.17 666.468C440.17 666.468 450.071 661.278 452.762 659.548C455.453 657.818 457.664 660.989 456.318 663.969C455.166 666.52 447.667 672.62 447.667 672.62C447.667 672.62 448.244 679.156 444.592 685.307" stroke="#0626A9" stroke-width="2" stroke-linecap="round" stroke-linejoin="round"/>
<path d="M453.884 686.075C453.884 686.075 450.231 689.92 448.501 685.05C447.58 682.456 450.936 675.311 451.513 669.736" fill="white"/>
<path d="M453.884 686.075C453.884 686.075 450.231 689.92 448.501 685.05C447.58 682.456 450.936 675.311 451.513 669.736" stroke="#0626A9" stroke-width="2" stroke-linecap="round" stroke-linejoin="round"/>
<path d="M449.93 701.408L387.98 775.896L353.236 742.69L426.518 678.438" fill="white"/>
<path d="M366.638 732.14L425.938 679.066" stroke="#0626A9" stroke-width="2" stroke-linecap="round" stroke-linejoin="round"/>
<path d="M449.931 701.408L390.391 775.182" stroke="#0626A9" stroke-width="2" stroke-linecap="round" stroke-linejoin="round"/>
<path d="M361.522 770.608C368.165 776.957 378.697 776.719 385.046 770.076C391.395 763.433 391.157 752.901 384.514 746.552C377.871 740.203 367.339 740.441 360.99 747.084C354.641 753.727 354.879 764.259 361.522 770.608Z" fill="white"/>
<path d="M257.339 1170.03C257.339 1188.24 242.576 1203 224.365 1203C206.154 1203 191.391 1188.24 191.391 1170.03C191.391 1151.82 206.154 1137.05 224.365 1137.05C242.576 1137.05 257.339 1151.82 257.339 1170.03Z" fill="#0626A9"/>
<path d="M257.339 1170.03C257.339 1188.24 242.576 1203 224.365 1203C206.154 1203 191.391 1188.24 191.391 1170.03C191.391 1151.82 206.154 1137.05 224.365 1137.05C242.576 1137.05 257.339 1151.82 257.339 1170.03Z" stroke="#0626A9" stroke-width="2" stroke-linecap="round" stroke-linejoin="round"/>
<path d="M190.531 1169.56L189.005 1205.7H284.202L284.735 1204C287.436 1181.26 275.711 1166.63 257.167 1162.27L190.531 1169.56Z" fill="#0626A9"/>
<path d="M189.363 1197.21H285.111" stroke="white" stroke-width="2" stroke-linecap="round" stroke-linejoin="round"/>
<path d="M268.244 1168.15C268.244 1168.15 259.753 1173.7 257.794 1182.19" stroke="white" stroke-width="2" stroke-linecap="round" stroke-linejoin="round"/>
<path d="M260.407 1175.98L245.385 1172.07" stroke="white" stroke-width="2" stroke-linecap="round" stroke-linejoin="round"/>
<path d="M228.486 982.469C224.435 1002.22 237.158 1021.51 256.904 1025.56C276.65 1029.61 295.943 1016.89 299.994 997.141C304.046 977.395 291.322 958.103 271.576 954.051C251.83 949.999 232.537 962.723 228.486 982.469Z" fill="white"/>
<path d="M299.537 998.356L263.019 1164.08C263.019 1164.08 219.485 1181.58 190.763 1164.78L228.487 982.469" fill="white"/>
<path d="M299.537 998.356L263.019 1164.08C263.019 1164.08 219.485 1181.58 190.763 1164.78L228.487 982.469" stroke="#0626A9" stroke-width="2" stroke-linecap="round" stroke-linejoin="round"/>
<path d="M262.47 840.432C258.33 859.95 270.795 879.129 290.313 883.269C309.831 887.409 329.01 874.944 333.15 855.426C337.29 835.908 324.825 816.729 305.307 812.589C285.789 808.449 266.61 820.914 262.47 840.432Z" fill="white"/>
<path d="M262.47 840.432C258.33 859.95 270.795 879.129 290.313 883.269C309.831 887.409 329.01 874.944 333.15 855.426C337.29 835.908 324.825 816.729 305.307 812.589C285.789 808.449 266.61 820.914 262.47 840.432Z" stroke="#0626A9" stroke-width="2" stroke-linecap="round" stroke-linejoin="round"/>
<path d="M261.792 843.633L228.252 982.617L299.195 998.977L333.152 855.426" fill="white"/>
<path d="M262.922 838.553L228.252 982.617Z" fill="white"/>
<path d="M262.922 838.553L228.252 982.617" stroke="#0626A9" stroke-width="2" stroke-linecap="round" stroke-linejoin="round"/>
<path d="M299.195 998.978L333.151 855.426Z" fill="white"/>
<path d="M299.195 998.978L333.151 855.426" stroke="#0626A9" stroke-width="2" stroke-linecap="round" stroke-linejoin="round"/>
<path d="M292.258 665.464C292.258 673.554 298.816 680.112 306.906 680.112C314.996 680.112 321.554 673.554 321.554 665.464C321.554 657.374 314.996 650.816 306.906 650.816C298.816 650.816 292.258 657.374 292.258 665.464Z" fill="white"/>
<path d="M292.258 665.464C292.258 673.554 298.816 680.112 306.906 680.112C314.996 680.112 321.554 673.554 321.554 665.464C321.554 657.374 314.996 650.816 306.906 650.816C298.816 650.816 292.258 657.374 292.258 665.464Z" stroke="#0626A9" stroke-width="2" stroke-linecap="round" stroke-linejoin="round"/>
<path d="M292.401 662.162C292.477 661.72 296.389 637.21 296.389 637.21L323.675 640.171L321.67 667.802" fill="white"/>
<path d="M292.401 662.162C292.477 661.72 296.389 637.21 296.389 637.21L323.675 640.171L321.67 667.802" stroke="#0626A9" stroke-width="2" stroke-linecap="round" stroke-linejoin="round"/>
<path d="M322.525 655.412C321.697 655.125 311.927 654.156 310.78 638.772L323.676 640.171L322.525 655.412Z" fill="#0626A9"/>
<path d="M292.258 662.998L293.785 654.061C293.785 654.061 312.362 654.55 323.676 662.161V670.641C323.676 670.641 318.106 667.331 306.474 665.608" fill="#84AAE4"/>
<path d="M292.258 662.998L293.785 654.061C293.785 654.061 312.362 654.55 323.676 662.161V670.641C323.676 670.641 318.106 667.331 306.474 665.608" stroke="#0626A9" stroke-width="2" stroke-linecap="round" stroke-linejoin="round"/>
<path d="M317.698 647.46C329.548 649.929 337.583 644.789 338.69 638.613C340.155 630.441 333.103 623.396 333.103 623.396C333.103 623.396 335.435 619.172 334.26 617.537C332.883 615.621 329.566 617.65 329.566 617.65C325.864 609.479 321.634 602.973 318.414 599.819C311.192 592.746 294.396 594.01 285.776 603.951C282.84 607.337 281.118 613.565 281.242 616.464C281.539 623.419 295.696 643.049 296.21 639.259" fill="white"/>
<path d="M317.698 647.46C329.548 649.929 337.583 644.789 338.69 638.613C340.155 630.441 333.103 623.396 333.103 623.396C333.103 623.396 335.435 619.172 334.26 617.537C332.883 615.621 329.566 617.65 329.566 617.65C325.864 609.479 321.634 602.973 318.414 599.819C311.192 592.746 294.396 594.01 285.776 603.951C282.84 607.337 281.118 613.565 281.242 616.464C281.539 623.419 295.696 643.049 296.21 639.259" stroke="#0626A9" stroke-width="2" stroke-linecap="round" stroke-linejoin="round"/>
<path d="M324.162 611.718C324.804 612.408 323.412 613.065 321.269 614.919C319.126 616.773 317.129 619.221 316.4 618.432C315.892 617.882 316.581 615.117 318.724 613.263C320.867 611.409 323.078 610.552 324.162 611.718Z" fill="#0626A9"/>
<path d="M324.55 618.143C324.964 618.625 324.907 619.352 324.425 619.766C323.943 620.18 323.215 620.123 322.802 619.641C322.388 619.159 322.445 618.432 322.927 618.018C323.409 617.604 324.136 617.661 324.55 618.143Z" fill="#0626A9"/>
<path d="M324.003 630.721C324.003 630.721 327.304 632.707 329.143 630.429Z" fill="white"/>
<path d="M324.003 630.721C324.003 630.721 327.304 632.707 329.143 630.429" stroke="#0626A9" stroke-width="2" stroke-linecap="round" stroke-linejoin="round"/>
<path d="M319.3 584.872C314.525 575.628 303.32 589.275 303.32 589.275C303.32 589.275 290.103 592.909 282.448 600.2C274.979 607.314 275.11 618.3 279.276 624.366C283.866 631.049 296.2 638.846 296.2 638.846C296.2 638.846 295.336 629.463 299.244 630.367C304.242 631.523 301.817 624.233 301.744 619.278C301.744 619.278 325.848 597.547 319.3 584.872Z" fill="#8869D5"/>
<path d="M301.689 630.087C301.689 630.087 295.593 624.986 292.095 629.202C289.578 632.235 292.092 637.696 294.86 640.877C297.798 644.252 301.893 645.841 303.598 642.407" fill="white"/>
<path d="M301.689 630.087C301.689 630.087 295.593 624.986 292.095 629.202C289.578 632.235 292.092 637.696 294.86 640.877C297.798 644.252 301.893 645.841 303.598 642.407" stroke="#0626A9" stroke-width="2" stroke-linecap="round" stroke-linejoin="round"/>
<path d="M293.972 633.818C293.972 633.818 296.16 630.758 300.348 633.64" stroke="#0626A9" stroke-width="2" stroke-linecap="round" stroke-linejoin="round"/>
<path d="M296.39 636.223C296.39 636.223 298.475 634.45 297.72 632.737" stroke="#0626A9" stroke-width="2" stroke-linecap="round" stroke-linejoin="round"/>
<path d="M273.303 799.781C273.303 820.614 290.192 837.503 311.025 837.503C331.858 837.503 348.747 820.614 348.747 799.781C348.747 778.948 331.858 762.059 311.025 762.059C290.192 762.059 273.303 778.948 273.303 799.781Z" fill="#0626A9"/>
<path d="M292.401 662.161C292.401 662.161 314.743 663.118 326.573 672.692C338.403 682.266 344.917 700.691 347.789 735.348C350.661 770.005 347.806 796.708 347.933 799.126C348.04 801.166 275.87 804.522 272.919 799.83C267.81 791.707 271.397 744.016 271.397 744.016C271.397 744.016 264.879 700.647 278.474 676.904C285.52 664.598 292.401 662.161 292.401 662.161Z" fill="#84AAE4"/>
<path d="M292.401 662.161C292.401 662.161 314.743 663.118 326.573 672.692C338.403 682.266 344.917 700.691 347.789 735.348C350.661 770.005 347.806 796.708 347.933 799.126C348.04 801.166 275.87 804.522 272.919 799.83C267.81 791.707 271.397 744.016 271.397 744.016C271.397 744.016 264.879 700.647 278.474 676.904C285.52 664.598 292.401 662.161 292.401 662.161Z" stroke="#0626A9" stroke-width="2" stroke-linecap="round" stroke-linejoin="round"/>
<path d="M338.785 1170.79C338.785 1189 324.022 1203.76 305.811 1203.76C287.6 1203.76 272.837 1189 272.837 1170.79C272.837 1152.58 287.6 1137.81 305.811 1137.81C324.022 1137.81 338.785 1152.58 338.785 1170.79Z" fill="#0626A9"/>
<path d="M338.785 1170.79C338.785 1189 324.022 1203.76 305.811 1203.76C287.6 1203.76 272.837 1189 272.837 1170.79C272.837 1152.58 287.6 1137.81 305.811 1137.81C324.022 1137.81 338.785 1152.58 338.785 1170.79Z" stroke="#0626A9" stroke-width="2" stroke-linecap="round" stroke-linejoin="round"/>
<path d="M272.298 1173.89L272.535 1188.17L272.837 1206.46H365.649L366.182 1204.77C368.883 1182.02 357.157 1167.39 338.613 1163.03L272.298 1173.89Z" fill="#0626A9"/>
<path d="M272.299 1173.89L272.535 1188.17L272.837 1206.46" stroke="white" stroke-width="2" stroke-linecap="round" stroke-linejoin="round"/>
<path d="M272.837 1197.97H366.557" stroke="white" stroke-width="2" stroke-linecap="round" stroke-linejoin="round"/>
<path d="M349.691 1168.91C349.691 1168.91 341.2 1174.46 339.241 1182.95" stroke="white" stroke-width="2" stroke-linecap="round" stroke-linejoin="round"/>
<path d="M341.854 1176.75L326.832 1172.83" stroke="white" stroke-width="2" stroke-linecap="round" stroke-linejoin="round"/>
<path d="M272.299 996.235C272.299 1016.39 288.639 1032.73 308.797 1032.73C328.955 1032.73 345.295 1016.39 345.295 996.235C345.295 976.077 328.955 959.737 308.797 959.737C288.639 959.737 272.299 976.077 272.299 996.235Z" fill="white"/>
<path d="M272.299 996.235C272.299 1016.39 288.639 1032.73 308.797 1032.73C328.955 1032.73 345.295 1016.39 345.295 996.235C345.295 976.077 328.955 959.737 308.797 959.737C288.639 959.737 272.299 976.077 272.299 996.235Z" stroke="#0626A9" stroke-width="2" stroke-linecap="round" stroke-linejoin="round"/>
<path d="M345.092 997.517L341.728 1164.03C341.728 1164.03 302.623 1185.65 272.298 1174.09V996.235" fill="white"/>
<path d="M345.092 997.517L341.728 1164.03C341.728 1164.03 302.623 1185.65 272.298 1174.09V996.235" stroke="#0626A9" stroke-width="2" stroke-linecap="round" stroke-linejoin="round"/>
<path d="M276.266 850.044C276.266 869.996 292.441 886.171 312.393 886.171C332.345 886.171 348.52 869.996 348.52 850.044C348.52 830.092 332.345 813.917 312.393 813.917C292.441 813.917 276.266 830.092 276.266 850.044Z" fill="white"/>
<path d="M276.266 850.044C276.266 869.996 292.441 886.171 312.393 886.171C332.345 886.171 348.52 869.996 348.52 850.044C348.52 830.092 332.345 813.917 312.393 813.917C292.441 813.917 276.266 830.092 276.266 850.044Z" stroke="#0626A9" stroke-width="2" stroke-linecap="round" stroke-linejoin="round"/>
<path d="M272.298 996.235L276.266 853.316L277.132 853.277L348.52 850.045L345.092 997.517L272.298 996.235Z" fill="white"/>
<path d="M348.519 850.045L345.091 997.517Z" fill="white"/>
<path d="M348.519 850.045L345.091 997.517" stroke="#0626A9" stroke-width="2" stroke-linecap="round" stroke-linejoin="round"/>
<path d="M272.298 996.235L276.266 853.315Z" fill="white"/>
<path d="M272.298 996.235L276.266 853.315" stroke="#0626A9" stroke-width="2" stroke-linecap="round" stroke-linejoin="round"/>
<path d="M262.922 838.554C262.922 838.554 268.625 809.439 272.618 799.831L347.933 799.45C348.504 805.326 349.842 821.561 348.519 850.044C348.519 850.044 335.912 863.26 297.325 858.647C267.684 855.103 262.922 838.554 262.922 838.554Z" fill="white"/>
<path d="M262.922 838.554C262.922 838.554 268.625 809.439 272.618 799.831L347.933 799.45C348.504 805.326 349.842 821.561 348.519 850.044" fill="white"/>
<path d="M262.922 838.554C262.922 838.554 268.625 809.439 272.618 799.831L347.933 799.45C348.504 805.326 349.842 821.561 348.519 850.044" stroke="#0626A9" stroke-width="2" stroke-linecap="round" stroke-linejoin="round"/>
<path d="M245.273 767.635C240.631 780.068 246.947 793.91 259.38 798.552C271.813 803.194 285.655 796.878 290.297 784.445C294.939 772.012 288.623 758.17 276.19 753.528C263.757 748.886 249.915 755.202 245.273 767.635Z" fill="white"/>
<path d="M245.273 767.635C240.631 780.068 246.947 793.91 259.38 798.552C271.813 803.194 285.655 796.878 290.297 784.445C294.939 772.012 288.623 758.17 276.19 753.528C263.757 748.886 249.915 755.202 245.273 767.635Z" stroke="#0626A9" stroke-width="2" stroke-linecap="round" stroke-linejoin="round"/>
<path d="M280.002 683.617C273.647 696.003 278.537 711.197 290.923 717.552C303.309 723.907 318.503 719.017 324.858 706.631C331.213 694.245 326.323 679.051 313.937 672.696C301.551 666.341 286.357 671.231 280.002 683.617Z" fill="#84AAE4"/>
<path d="M290.297 784.445L314.874 723.19L271.523 703.929L245.916 765.912" fill="white"/>
<path d="M290.297 784.445L314.874 723.19L271.523 703.929L245.916 765.912" stroke="#0626A9" stroke-width="2" stroke-linecap="round" stroke-linejoin="round"/>
<path d="M324.65 706.93L311.108 741.44C311.108 741.44 311.973 738.229 306.978 734.151C300.237 728.647 285.787 721.759 265.58 718.316L278.057 688.222" fill="#84AAE4"/>
<path d="M324.65 706.93L311.108 741.44C311.108 741.44 311.973 738.229 306.978 734.151C300.237 728.647 285.787 721.759 265.58 718.316L278.057 688.222" stroke="#0626A9" stroke-width="2" stroke-linecap="round" stroke-linejoin="round"/>
<path d="M311.108 741.44C311.108 741.44 309.539 745.44 306.364 744.811Z" fill="#84AAE4"/>
<path d="M311.108 741.44C311.108 741.44 309.539 745.44 306.364 744.811" stroke="#0626A9" stroke-width="2" stroke-linecap="round" stroke-linejoin="round"/>
<path d="M306.811 742.37C306.811 742.37 300.317 731.228 265.564 720.059L266.206 718.424C266.206 718.424 299.132 723.325 309.548 736.762L306.811 742.37Z" fill="#0626A9"/>
<path d="M313.604 835.094C305.057 838.788 301.123 848.712 304.817 857.259C308.511 865.806 318.435 869.74 326.982 866.046C335.529 862.352 339.463 852.428 335.769 843.881C332.075 835.334 322.151 831.4 313.604 835.094Z" stroke="#0626A9" stroke-width="2" stroke-linecap="round" stroke-linejoin="round"/>
<path d="M308.401 862.9L247.971 789.107L287.33 761.528L334.157 840.861" fill="white"/>
<path d="M287.743 762.227L334.157 840.861" stroke="#0626A9" stroke-width="2" stroke-linecap="round" stroke-linejoin="round"/>
<path d="M308.401 862.901L247.971 789.107" stroke="#0626A9" stroke-width="2" stroke-linecap="round" stroke-linejoin="round"/>
<path d="M258.103 761.691C250.577 766.964 248.752 777.339 254.025 784.865C259.298 792.391 269.673 794.216 277.199 788.943C284.725 783.67 286.55 773.295 281.277 765.769C276.003 758.243 265.629 756.418 258.103 761.691Z" fill="white"/>
<path d="M334.106 840.886C334.106 840.886 347.483 853.744 351.696 860.767C356.843 869.348 361.244 879.691 357.293 891.973C356.2 895.37 353.718 902.464 350.711 906.749C347.807 910.887 345.803 909.128 345.803 909.128C343.239 911.011 341.479 907.236 341.479 907.236C341.479 907.236 335.694 907.45 337.225 901.704C340.368 889.909 337.667 885.625 337.667 885.625C337.667 885.625 335.652 891.608 334.84 893.353C333.069 897.16 331.002 901.13 328.439 898.608C326.378 896.58 328.36 882.789 328.36 882.789C328.36 882.789 316.186 877.96 308.4 862.901" fill="white"/>
<path d="M334.106 840.886C334.106 840.886 347.483 853.744 351.696 860.767C356.843 869.348 361.244 879.691 357.293 891.973C356.2 895.37 353.718 902.464 350.711 906.749C347.807 910.887 345.803 909.128 345.803 909.128C343.239 911.011 341.479 907.236 341.479 907.236C341.479 907.236 335.694 907.45 337.225 901.704C340.368 889.909 337.667 885.625 337.667 885.625C337.667 885.625 335.652 891.608 334.84 893.353C333.069 897.16 331.002 901.13 328.439 898.608C326.378 896.58 328.36 882.789 328.36 882.789C328.36 882.789 316.186 877.96 308.4 862.901" stroke="#0626A9" stroke-width="2" stroke-linecap="round" stroke-linejoin="round"/>
<path d="M337.383 886.342C337.383 886.342 338.172 884.128 338.875 880.128Z" fill="white"/>
<path d="M337.383 886.342C337.383 886.342 338.172 884.128 338.875 880.128" stroke="#0626A9" stroke-width="2" stroke-linecap="round" stroke-linejoin="round"/>
<path d="M341.48 907.235C341.48 907.235 344.588 896.927 345.909 893.353C348.003 887.686 345.47 880.259 345.47 880.259" fill="white"/>
<path d="M341.48 907.235C341.48 907.235 344.588 896.927 345.909 893.353C348.003 887.686 345.47 880.259 345.47 880.259" stroke="#0626A9" stroke-width="2" stroke-linecap="round" stroke-linejoin="round"/>
<path d="M345.805 909.128C345.805 909.128 349.867 900.359 351.88 895.113C355.006 886.966 353.288 880.522 353.288 880.522" fill="white"/>
<path d="M345.805 909.128C345.805 909.128 349.867 900.359 351.88 895.113C355.006 886.966 353.288 880.522 353.288 880.522" stroke="#0626A9" stroke-width="2" stroke-linecap="round" stroke-linejoin="round"/>
<path d="M316.779 842.442C312.29 844.382 310.224 849.594 312.164 854.083C314.104 858.572 319.316 860.638 323.805 858.698C328.294 856.758 330.36 851.546 328.42 847.057C326.48 842.568 321.268 840.502 316.779 842.442Z" fill="white"/>
</g>
</g>
</g>
<defs>
<clipPath id="clip0_24_20100">
<rect width="1600" height="1600" fill="white"/>
</clipPath>
</defs>
</svg>
