<svg width="1600" height="1600" viewBox="0 0 1600 1600" fill="none" xmlns="http://www.w3.org/2000/svg">
<g clip-path="url(#clip0_2_9013)">
<mask id="mask0_2_9013" style="mask-type:luminance" maskUnits="userSpaceOnUse" x="0" y="0" width="1600" height="1600">
<path d="M1600 0H0V1600H1600V0Z" fill="white"/>
</mask>
<g mask="url(#mask0_2_9013)">
<mask id="mask1_2_9013" style="mask-type:luminance" maskUnits="userSpaceOnUse" x="107" y="107" width="1386" height="1386">
<path d="M1493 107H107V1493H1493V107Z" fill="white"/>
</mask>
<g mask="url(#mask1_2_9013)">
<mask id="mask2_2_9013" style="mask-type:luminance" maskUnits="userSpaceOnUse" x="107" y="107" width="1386" height="1386">
<path d="M1493 107H107V1493H1493V107Z" fill="white"/>
</mask>
<g mask="url(#mask2_2_9013)">
<path d="M754.258 528.347V661.906H806.508V703.993" stroke="#0626A9" stroke-width="2" stroke-miterlimit="10" stroke-dasharray="60 60"/>
<path d="M783.579 525.464V584.776H1004.32" stroke="#0626A9" stroke-width="2" stroke-miterlimit="10" stroke-dasharray="60 60"/>
<path d="M721.397 523.297L721.491 656.856H621.292" stroke="#0626A9" stroke-width="2" stroke-miterlimit="10" stroke-dasharray="60 60"/>
<path d="M666.777 657.151V937.159H622.164L621.864 975.164" stroke="#0626A9" stroke-width="2" stroke-miterlimit="10" stroke-dasharray="60 60"/>
<path d="M572.5 369.818V409.379H628.056" stroke="#0626A9" stroke-width="2" stroke-miterlimit="10" stroke-dasharray="60 60"/>
<path d="M472.051 430.143V339.514H534.622" stroke="#0626A9" stroke-width="2" stroke-miterlimit="10" stroke-dasharray="60 60"/>
<path d="M672.269 262.222L727.383 262.915V280.591" stroke="#0626A9" stroke-width="2" stroke-miterlimit="10" stroke-dasharray="60 60"/>
<path d="M831.76 304.16V279.749H917.588" stroke="#0626A9" stroke-width="2" stroke-miterlimit="10" stroke-dasharray="60 60"/>
<path d="M877.216 424.531H912.569V347.09H1001.85V385.81" stroke="#0626A9" stroke-width="2" stroke-miterlimit="10" stroke-dasharray="60 60"/>
<path d="M210.371 1151.86H468.488" stroke="#0626A9" stroke-width="2" stroke-miterlimit="10"/>
<path d="M798.794 1357.19H1127.08" stroke="#0626A9" stroke-width="2" stroke-miterlimit="10"/>
<path d="M1109.51 1126.28H1404.3" stroke="#0626A9" stroke-width="2" stroke-miterlimit="10"/>
<path d="M596.447 472.517C596.447 475.771 593.809 478.409 590.555 478.409C587.3 478.409 584.662 475.771 584.662 472.517C584.662 469.262 587.3 466.625 590.555 466.625C593.809 466.625 596.447 469.262 596.447 472.517Z" fill="#84AAE4"/>
<path d="M596.447 472.517C596.447 475.771 593.809 478.409 590.555 478.409C587.3 478.409 584.662 475.771 584.662 472.517C584.662 469.262 587.3 466.625 590.555 466.625C593.809 466.625 596.447 469.262 596.447 472.517Z" stroke="#0626A9" stroke-width="2" stroke-miterlimit="10"/>
<path d="M592.193 439.493C592.193 441.817 590.308 443.702 587.984 443.702C585.66 443.702 583.775 441.817 583.775 439.493C583.775 437.169 585.66 435.284 587.984 435.284C590.308 435.284 592.193 437.169 592.193 439.493Z" fill="#84AAE4"/>
<path d="M592.193 439.493C592.193 441.817 590.308 443.702 587.984 443.702C585.66 443.702 583.775 441.817 583.775 439.493C583.775 437.169 585.66 435.284 587.984 435.284C590.308 435.284 592.193 437.169 592.193 439.493Z" stroke="#0626A9" stroke-width="2" stroke-miterlimit="10"/>
<path d="M389.474 541.864C389.474 544.188 387.589 546.073 385.265 546.073C382.941 546.073 381.056 544.188 381.056 541.864C381.056 539.539 382.941 537.654 385.265 537.654C387.589 537.654 389.474 539.539 389.474 541.864Z" fill="#84AAE4"/>
<path d="M389.474 541.864C389.474 544.188 387.589 546.073 385.265 546.073C382.941 546.073 381.056 544.188 381.056 541.864C381.056 539.539 382.941 537.654 385.265 537.654C387.589 537.654 389.474 539.539 389.474 541.864Z" stroke="#0626A9" stroke-width="2" stroke-miterlimit="10"/>
<path d="M844.135 437.749C844.135 440.538 841.874 442.799 839.085 442.799C836.296 442.799 834.035 440.538 834.035 437.749C834.035 434.96 836.296 432.699 839.085 432.699C841.874 432.699 844.135 434.96 844.135 437.749Z" fill="#84AAE4"/>
<path d="M844.135 437.749C844.135 440.538 841.874 442.799 839.085 442.799C836.296 442.799 834.035 440.538 834.035 437.749C834.035 434.96 836.296 432.699 839.085 432.699C841.874 432.699 844.135 434.96 844.135 437.749Z" stroke="#0626A9" stroke-width="2" stroke-miterlimit="10"/>
<path d="M953.382 515.593C953.382 519.777 949.99 523.168 945.806 523.168C941.622 523.168 938.231 519.777 938.231 515.593C938.231 511.409 941.622 508.017 945.806 508.017C949.99 508.017 953.382 511.409 953.382 515.593Z" fill="#84AAE4"/>
<path d="M953.382 515.593C953.382 519.777 949.99 523.168 945.806 523.168C941.622 523.168 938.231 519.777 938.231 515.593C938.231 511.409 941.622 508.017 945.806 508.017C949.99 508.017 953.382 511.409 953.382 515.593Z" stroke="#0626A9" stroke-width="2" stroke-miterlimit="10"/>
<path d="M902.847 484.35C902.847 485.744 901.717 486.875 900.322 486.875C898.927 486.875 897.796 485.744 897.796 484.35C897.796 482.955 898.927 481.825 900.322 481.825C901.717 481.825 902.847 482.955 902.847 484.35Z" fill="#84AAE4"/>
<path d="M902.847 484.35C902.847 485.744 901.717 486.875 900.322 486.875C898.927 486.875 897.796 485.744 897.796 484.35C897.796 482.955 898.927 481.825 900.322 481.825C901.717 481.825 902.847 482.955 902.847 484.35Z" stroke="#0626A9" stroke-width="2" stroke-miterlimit="10"/>
<path d="M284.446 824.561C284.446 828.009 281.652 830.803 278.204 830.803C274.756 830.803 271.962 828.009 271.962 824.561C271.962 821.113 274.756 818.319 278.204 818.319C281.652 818.319 284.446 821.113 284.446 824.561Z" fill="#84AAE4"/>
<path d="M284.446 824.561C284.446 828.009 281.652 830.803 278.204 830.803C274.756 830.803 271.962 828.009 271.962 824.561C271.962 821.113 274.756 818.319 278.204 818.319C281.652 818.319 284.446 821.113 284.446 824.561Z" stroke="#0626A9" stroke-width="2" stroke-miterlimit="10"/>
<path d="M1113.12 563.986C1113.12 566.205 1111.33 568.004 1109.1 568.004C1106.89 568.004 1105.09 566.205 1105.09 563.986C1105.09 561.766 1106.89 559.967 1109.1 559.967C1111.33 559.967 1113.12 561.766 1113.12 563.986Z" fill="#84AAE4"/>
<path d="M1113.12 563.986C1113.12 566.205 1111.33 568.004 1109.1 568.004C1106.89 568.004 1105.09 566.205 1105.09 563.986C1105.09 561.766 1106.89 559.967 1109.1 559.967C1111.33 559.967 1113.12 561.766 1113.12 563.986Z" stroke="#0626A9" stroke-width="2" stroke-miterlimit="10"/>
<path d="M893.622 670.229C893.622 675.11 889.665 679.067 884.783 679.067C879.902 679.067 875.945 675.11 875.945 670.229C875.945 665.348 879.902 661.391 884.783 661.391C889.665 661.391 893.622 665.348 893.622 670.229Z" fill="#8869D5"/>
<path d="M893.622 670.229C893.622 675.11 889.665 679.067 884.783 679.067C879.902 679.067 875.945 675.11 875.945 670.229C875.945 665.348 879.902 661.391 884.783 661.391C889.665 661.391 893.622 665.348 893.622 670.229Z" stroke="#0626A9" stroke-width="2" stroke-linecap="round" stroke-linejoin="round"/>
<path d="M692.297 912.708C692.297 915.392 690.121 917.568 687.436 917.568C684.752 917.568 682.576 915.392 682.576 912.708C682.576 910.023 684.752 907.847 687.436 907.847C690.121 907.847 692.297 910.023 692.297 912.708Z" fill="#8869D5"/>
<path d="M692.297 912.708C692.297 915.392 690.121 917.568 687.436 917.568C684.752 917.568 682.576 915.392 682.576 912.708C682.576 910.023 684.752 907.847 687.436 907.847C690.121 907.847 692.297 910.023 692.297 912.708Z" stroke="#0626A9" stroke-width="2" stroke-linecap="round" stroke-linejoin="round"/>
<path d="M1087.61 542.588V385.99H1025.88H964.155V542.588H1087.61Z" fill="#84AAE4"/>
<path d="M1087.61 542.588V385.99H1025.88H964.155V542.588H1087.61Z" stroke="#0626A9" stroke-width="2" stroke-miterlimit="10"/>
<path d="M557.573 647.157V432.23H495.844H434.115V647.157H557.573Z" fill="white"/>
<path d="M557.573 647.157V432.23H495.844H434.115V647.157H557.573Z" stroke="#0626A9" stroke-width="2" stroke-linecap="round" stroke-linejoin="round"/>
<mask id="mask3_2_9013" style="mask-type:alpha" maskUnits="userSpaceOnUse" x="433" y="431" width="126" height="218">
<path d="M557.573 647.157V432.23H495.844H434.115V647.157H557.573Z" fill="white"/>
<path d="M557.573 647.157V432.23H495.844H434.115V647.157H557.573Z" stroke="#202870" stroke-width="2" stroke-linecap="round" stroke-linejoin="round"/>
</mask>
<g mask="url(#mask3_2_9013)">
<path d="M618.496 762.825V504.524L494.497 504.606L477.813 625.678L458.901 762.909L618.496 762.825Z" fill="#0626A9"/>
</g>
<path d="M618.47 912.366H495.012V504.958H556.741H618.47V912.366Z" fill="white"/>
<path d="M618.47 912.366H495.012V504.958H556.741H618.47V912.366Z" stroke="#0626A9" stroke-width="2" stroke-linecap="round" stroke-linejoin="round"/>
<mask id="mask4_2_9013" style="mask-type:alpha" maskUnits="userSpaceOnUse" x="494" y="503" width="126" height="411">
<path d="M618.47 912.366H495.012V504.958H556.741H618.47V912.366Z" fill="white"/>
<path d="M618.47 912.366H495.012V504.958H556.741H618.47V912.366Z" stroke="#202870" stroke-width="2" stroke-linecap="round" stroke-linejoin="round"/>
</mask>
<g mask="url(#mask4_2_9013)">
<path d="M518.02 541.981H556.741H595.461" stroke="#0626A9" stroke-width="2" stroke-linecap="round" stroke-linejoin="round"/>
<path d="M518.02 579.006H556.741H595.461" stroke="#0626A9" stroke-width="2" stroke-linecap="round" stroke-linejoin="round"/>
<path d="M518.02 764.128H556.741H595.461" stroke="#0626A9" stroke-width="2" stroke-linecap="round" stroke-linejoin="round"/>
<path d="M518.02 801.152H556.741H595.461" stroke="#0626A9" stroke-width="2" stroke-linecap="round" stroke-linejoin="round"/>
<path d="M518.02 838.177H556.741H595.461" stroke="#0626A9" stroke-width="2" stroke-linecap="round" stroke-linejoin="round"/>
<path d="M518.02 875.201H556.741H595.461" stroke="#0626A9" stroke-width="2" stroke-linecap="round" stroke-linejoin="round"/>
<path d="M595.742 727.073H517.739V615.961H595.742V727.073Z" fill="#84AAE4"/>
<path d="M595.742 727.073H517.739V615.961H595.742V727.073Z" stroke="#0626A9" stroke-width="2" stroke-miterlimit="10"/>
</g>
<path d="M671.677 368.828V210.851H606.954H542.23V368.828H671.677Z" fill="#84AAE4"/>
<path d="M671.677 368.828V210.851H606.954H542.23V368.828H671.677Z" stroke="#0626A9" stroke-width="2" stroke-miterlimit="10"/>
<path d="M861.428 1109.59H737.97V702.179H799.699H861.428V1109.59Z" fill="#84AAE4"/>
<path d="M861.428 1109.59H737.97V702.179H799.699H861.428V1109.59Z" stroke="#0626A9" stroke-width="2" stroke-miterlimit="10"/>
<mask id="mask5_2_9013" style="mask-type:alpha" maskUnits="userSpaceOnUse" x="736" y="701" width="127" height="410">
<path d="M861.428 1109.59H737.97V702.179H799.699H861.428V1109.59Z" fill="#8484FA"/>
<path d="M861.428 1109.59H737.97V702.179H799.699H861.428V1109.59Z" stroke="#202870" stroke-width="2" stroke-miterlimit="10"/>
</mask>
<g mask="url(#mask5_2_9013)">
<path d="M760.977 739.202H799.698H838.418" stroke="white" stroke-width="2" stroke-linecap="round" stroke-linejoin="round"/>
<path d="M760.977 776.227H799.698H838.418" stroke="white" stroke-width="2" stroke-linecap="round" stroke-linejoin="round"/>
<path d="M760.977 924.324H799.698H838.418" stroke="white" stroke-width="2" stroke-linecap="round" stroke-linejoin="round"/>
<path d="M760.977 961.349H799.698H813.633" stroke="white" stroke-width="2" stroke-linecap="round" stroke-linejoin="round"/>
<path d="M760.977 998.371H799.698H838.418" stroke="white" stroke-width="2" stroke-linecap="round" stroke-linejoin="round"/>
<path d="M816.222 1035.39H838.419" stroke="white" stroke-width="2" stroke-linecap="round" stroke-linejoin="round"/>
<path d="M760.977 1072.42H799.698H838.418" stroke="white" stroke-width="2" stroke-linecap="round" stroke-linejoin="round"/>
<path d="M799.136 813.149H838.698" stroke="white" stroke-width="2" stroke-linecap="round" stroke-linejoin="round"/>
</g>
<mask id="mask6_2_9013" style="mask-type:alpha" maskUnits="userSpaceOnUse" x="963" y="384" width="126" height="160">
<path d="M1087.61 542.588V385.99H1025.88H964.155V542.588H1087.61Z" fill="#8484FA"/>
<path d="M1087.61 542.588V385.99H1025.88H964.155V542.588H1087.61Z" stroke="#202870" stroke-width="2" stroke-miterlimit="10"/>
</mask>
<g mask="url(#mask6_2_9013)">
<path d="M1120.3 530.18V503.506H1026.08L996.847 503.295L909.728 670.751L1120.3 719.401V530.18Z" fill="#0626A9"/>
</g>
<path d="M1121.83 910.465H998.371V503.057H1060.1H1121.83V910.465Z" fill="white"/>
<path d="M1121.83 910.465H998.371V503.057H1060.1H1121.83V910.465Z" stroke="#0626A9" stroke-width="2" stroke-linecap="round" stroke-linejoin="round"/>
<mask id="mask7_2_9013" style="mask-type:alpha" maskUnits="userSpaceOnUse" x="997" y="502" width="126" height="410">
<path d="M1121.83 910.465H998.371V503.057H1060.1H1121.83V910.465Z" fill="white"/>
<path d="M1121.83 910.465H998.371V503.057H1060.1H1121.83V910.465Z" stroke="#202870" stroke-width="2" stroke-linecap="round" stroke-linejoin="round"/>
</mask>
<g mask="url(#mask7_2_9013)">
<path d="M1021.38 540.082H1060.1H1098.82" stroke="#0626A9" stroke-width="2" stroke-linecap="round" stroke-linejoin="round"/>
<path d="M1021.38 577.106H1060.1H1098.82" stroke="#0626A9" stroke-width="2" stroke-linecap="round" stroke-linejoin="round"/>
<path d="M1021.38 725.204H1060.1H1098.82" stroke="#0626A9" stroke-width="2" stroke-linecap="round" stroke-linejoin="round"/>
<path d="M1021.38 762.228H1060.1H1098.82" stroke="#0626A9" stroke-width="2" stroke-linecap="round" stroke-linejoin="round"/>
<path d="M1021.75 688.166H1060.47H1099.19" stroke="#0626A9" stroke-width="2" stroke-linecap="round" stroke-linejoin="round"/>
<path d="M1021.38 799.252H1060.1H1098.82" stroke="#0626A9" stroke-width="2" stroke-linecap="round" stroke-linejoin="round"/>
<path d="M1021.38 836.277H1060.1H1098.82" stroke="#0626A9" stroke-width="2" stroke-linecap="round" stroke-linejoin="round"/>
<path d="M1021.38 873.301H1060.1H1098.82" stroke="#0626A9" stroke-width="2" stroke-linecap="round" stroke-linejoin="round"/>
<path d="M1081.8 614.028H1099.1" stroke="#0626A9" stroke-width="2" stroke-linecap="round" stroke-linejoin="round"/>
<path d="M1021.38 912.073H1060.1H1098.82" stroke="#0626A9" stroke-width="2" stroke-linecap="round" stroke-linejoin="round"/>
</g>
<path d="M555.056 1218.38V965.717H616.785H678.514V1218.38" fill="white"/>
<path d="M555.056 1218.38V965.717H616.785H678.514V1218.38" stroke="#0626A9" stroke-width="2" stroke-linecap="round" stroke-linejoin="round"/>
<mask id="mask8_2_9013" style="mask-type:alpha" maskUnits="userSpaceOnUse" x="554" y="964" width="126" height="256">
<path d="M555.056 1218.38V965.717H616.785H678.514V1218.38" fill="white"/>
<path d="M555.056 1218.38V965.717H616.785H678.514V1218.38" stroke="#202870" stroke-width="2" stroke-linecap="round" stroke-linejoin="round"/>
</mask>
<g mask="url(#mask8_2_9013)">
<path d="M655.788 1190.28H577.785V988.955H655.788V1190.28Z" fill="#84AAE4"/>
<path d="M655.788 1190.28H577.785V988.955H655.788V1190.28Z" stroke="#0626A9" stroke-width="2" stroke-miterlimit="10"/>
</g>
<mask id="mask9_2_9013" style="mask-type:alpha" maskUnits="userSpaceOnUse" x="540" y="210" width="132" height="161">
<path d="M670.916 369.662V211.685H606.192H541.469V369.662H670.916Z" fill="#8484FA"/>
<path d="M670.916 369.662V211.685H606.192H541.469V369.662H670.916Z" stroke="#202870" stroke-width="2" stroke-miterlimit="10"/>
</mask>
<g mask="url(#mask9_2_9013)">
<path d="M853.601 400.79C853.601 469.556 797.854 525.303 729.088 525.303C660.321 525.303 604.575 469.556 604.575 400.79C604.575 332.023 660.321 276.276 729.088 276.276C797.854 276.276 853.601 332.023 853.601 400.79Z" fill="#0626A9"/>
<path d="M853.601 400.79C853.601 469.556 797.854 525.303 729.088 525.303C660.321 525.303 604.575 469.556 604.575 400.79C604.575 332.023 660.321 276.276 729.088 276.276C797.854 276.276 853.601 332.023 853.601 400.79Z" stroke="#0626A9" stroke-width="2" stroke-linecap="round" stroke-linejoin="round"/>
</g>
<path d="M877.858 402.897C877.858 471.663 822.111 527.41 753.345 527.41C684.578 527.41 628.832 471.663 628.832 402.897C628.832 334.131 684.578 278.384 753.345 278.384C822.111 278.384 877.858 334.131 877.858 402.897Z" fill="white"/>
<path d="M877.858 402.897C877.858 471.663 822.111 527.41 753.345 527.41C684.578 527.41 628.832 471.663 628.832 402.897C628.832 334.131 684.578 278.384 753.345 278.384C822.111 278.384 877.858 334.131 877.858 402.897Z" stroke="#0626A9" stroke-width="2" stroke-linecap="round" stroke-linejoin="round"/>
<path d="M817.542 467.577L786.526 436.56" stroke="#84AAE4" stroke-width="8" stroke-linecap="round" stroke-linejoin="round"/>
<path d="M746.076 453.283C777.652 453.283 803.248 427.687 803.248 396.111C803.248 364.535 777.652 338.938 746.076 338.938C714.5 338.938 688.903 364.535 688.903 396.111C688.903 427.687 714.5 453.283 746.076 453.283Z" stroke="#84AAE4" stroke-width="8" stroke-linecap="round" stroke-linejoin="round"/>
</g>
</g>
</g>
</g>
<defs>
<clipPath id="clip0_2_9013">
<rect width="1600" height="1600" fill="white"/>
</clipPath>
</defs>
</svg>
