<svg width="1600" height="1600" viewBox="0 0 1600 1600" fill="none" xmlns="http://www.w3.org/2000/svg">
<g clip-path="url(#clip0_24_21428)">
<mask id="mask0_24_21428" style="mask-type:luminance" maskUnits="userSpaceOnUse" x="0" y="0" width="1600" height="1600">
<path d="M1600 0H0V1600H1600V0Z" fill="white"/>
</mask>
<g mask="url(#mask0_24_21428)">
<mask id="mask1_24_21428" style="mask-type:luminance" maskUnits="userSpaceOnUse" x="0" y="-213" width="1600" height="1600">
<path d="M0 -213H1600V1387H0V-213Z" fill="white"/>
</mask>
<g mask="url(#mask1_24_21428)">
<path d="M393.111 930.887C393.111 936.821 388.3 941.632 382.366 941.632C376.432 941.632 371.621 936.821 371.621 930.887C371.621 924.953 376.432 920.142 382.366 920.142C388.3 920.142 393.111 924.953 393.111 930.887Z" fill="#8869D5"/>
<path d="M393.111 930.887C393.111 936.821 388.3 941.632 382.366 941.632C376.432 941.632 371.621 936.821 371.621 930.887C371.621 924.953 376.432 920.142 382.366 920.142C388.3 920.142 393.111 924.953 393.111 930.887Z" stroke="#0626A9" stroke-width="2" stroke-linecap="round" stroke-linejoin="round"/>
<path d="M436.495 828.79C436.495 832.299 433.65 835.144 430.141 835.144C426.632 835.144 423.787 832.299 423.787 828.79C423.787 825.281 426.632 822.436 430.141 822.436C433.65 822.436 436.495 825.281 436.495 828.79Z" fill="#0626A9"/>
<path d="M436.495 828.79C436.495 832.299 433.65 835.144 430.141 835.144C426.632 835.144 423.787 832.299 423.787 828.79C423.787 825.281 426.632 822.436 430.141 822.436C433.65 822.436 436.495 825.281 436.495 828.79Z" stroke="#0626A9" stroke-width="2" stroke-linecap="round" stroke-linejoin="round"/>
<path d="M786.801 1115.33C786.801 1118.35 784.349 1120.81 781.324 1120.81C778.299 1120.81 775.847 1118.35 775.847 1115.33C775.847 1112.3 778.299 1109.85 781.324 1109.85C784.349 1109.85 786.801 1112.3 786.801 1115.33Z" fill="white"/>
<path d="M786.801 1115.33C786.801 1118.35 784.349 1120.81 781.324 1120.81C778.299 1120.81 775.847 1118.35 775.847 1115.33C775.847 1112.3 778.299 1109.85 781.324 1109.85C784.349 1109.85 786.801 1112.3 786.801 1115.33Z" stroke="#0626A9" stroke-width="2" stroke-linecap="round" stroke-linejoin="round"/>
<path d="M493.815 943.992C493.815 947.017 491.363 949.469 488.338 949.469C485.313 949.469 482.861 947.017 482.861 943.992C482.861 940.967 485.313 938.515 488.338 938.515C491.363 938.515 493.815 940.967 493.815 943.992Z" fill="white"/>
<path d="M493.815 943.992C493.815 947.017 491.363 949.469 488.338 949.469C485.313 949.469 482.861 947.017 482.861 943.992C482.861 940.967 485.313 938.515 488.338 938.515C491.363 938.515 493.815 940.967 493.815 943.992Z" stroke="#0626A9" stroke-width="2" stroke-linecap="round" stroke-linejoin="round"/>
<path d="M737.182 1198.18C737.182 1205.99 730.849 1212.33 723.037 1212.33C715.225 1212.33 708.892 1205.99 708.892 1198.18C708.892 1190.37 715.225 1184.04 723.037 1184.04C730.849 1184.04 737.182 1190.37 737.182 1198.18Z" fill="#8869D5"/>
<path d="M737.182 1198.18C737.182 1205.99 730.849 1212.33 723.037 1212.33C715.225 1212.33 708.892 1205.99 708.892 1198.18C708.892 1190.37 715.225 1184.04 723.037 1184.04C730.849 1184.04 737.182 1190.37 737.182 1198.18Z" stroke="#0626A9" stroke-width="2" stroke-linecap="round" stroke-linejoin="round"/>
<path d="M915.352 1166.21C915.352 1170.51 911.868 1173.99 907.57 1173.99C903.272 1173.99 899.788 1170.51 899.788 1166.21C899.788 1161.91 903.272 1158.43 907.57 1158.43C911.868 1158.43 915.352 1161.91 915.352 1166.21Z" fill="#0626A9"/>
<path d="M915.352 1166.21C915.352 1170.51 911.868 1173.99 907.57 1173.99C903.272 1173.99 899.788 1170.51 899.788 1166.21C899.788 1161.91 903.272 1158.43 907.57 1158.43C911.868 1158.43 915.352 1161.91 915.352 1166.21Z" stroke="#0626A9" stroke-width="2" stroke-linecap="round" stroke-linejoin="round"/>
<path d="M956.838 1037.11C956.838 1041.23 953.494 1044.58 949.369 1044.58C945.244 1044.58 941.9 1041.23 941.9 1037.11C941.9 1032.98 945.244 1029.64 949.369 1029.64C953.494 1029.64 956.838 1032.98 956.838 1037.11Z" fill="white"/>
<path d="M956.838 1037.11C956.838 1041.23 953.494 1044.58 949.369 1044.58C945.244 1044.58 941.9 1041.23 941.9 1037.11C941.9 1032.98 945.244 1029.64 949.369 1029.64C953.494 1029.64 956.838 1032.98 956.838 1037.11Z" stroke="#0626A9" stroke-width="2" stroke-linecap="round" stroke-linejoin="round"/>
<path d="M1168.3 899.297C1168.3 903.284 1165.07 906.517 1161.08 906.517C1157.1 906.517 1153.86 903.284 1153.86 899.297C1153.86 895.31 1157.1 892.077 1161.08 892.077C1165.07 892.077 1168.3 895.31 1168.3 899.297Z" fill="white"/>
<path d="M1168.3 899.297C1168.3 903.284 1165.07 906.517 1161.08 906.517C1157.1 906.517 1153.86 903.284 1153.86 899.297C1153.86 895.31 1157.1 892.077 1161.08 892.077C1165.07 892.077 1168.3 895.31 1168.3 899.297Z" stroke="#0626A9" stroke-width="2" stroke-linecap="round" stroke-linejoin="round"/>
<path d="M1239.86 840.391C1239.86 844.791 1236.3 848.357 1231.9 848.357C1227.5 848.357 1223.93 844.791 1223.93 840.391C1223.93 835.991 1227.5 832.425 1231.9 832.425C1236.3 832.425 1239.86 835.991 1239.86 840.391Z" fill="#0626A9"/>
<path d="M1239.86 840.391C1239.86 844.791 1236.3 848.357 1231.9 848.357C1227.5 848.357 1223.93 844.791 1223.93 840.391C1223.93 835.991 1227.5 832.425 1231.9 832.425C1236.3 832.425 1239.86 835.991 1239.86 840.391Z" stroke="#0626A9" stroke-width="2" stroke-linecap="round" stroke-linejoin="round"/>
<path d="M1267.02 981.804C1267.02 987.854 1262.11 992.758 1256.06 992.758C1250.01 992.758 1245.11 987.854 1245.11 981.804C1245.11 975.754 1250.01 970.85 1256.06 970.85C1262.11 970.85 1267.02 975.754 1267.02 981.804Z" fill="#8869D5"/>
<path d="M1267.02 981.804C1267.02 987.854 1262.11 992.758 1256.06 992.758C1250.01 992.758 1245.11 987.854 1245.11 981.804C1245.11 975.754 1250.01 970.85 1256.06 970.85C1262.11 970.85 1267.02 975.754 1267.02 981.804Z" stroke="#0626A9" stroke-width="2" stroke-linecap="round" stroke-linejoin="round"/>
</g>
<mask id="mask2_24_21428" style="mask-type:luminance" maskUnits="userSpaceOnUse" x="0" y="-213" width="1600" height="1600">
<path d="M0 -213H1600V1387H0V-213Z" fill="white"/>
</mask>
<g mask="url(#mask2_24_21428)">
<mask id="mask3_24_21428" style="mask-type:alpha" maskUnits="userSpaceOnUse" x="684" y="610" width="231" height="232">
<path d="M898.894 782.754C867.586 837.617 797.731 856.711 742.868 825.403C688.005 794.095 668.91 724.24 700.218 669.377C731.526 614.514 801.382 595.42 856.245 626.728C911.108 658.036 930.202 727.891 898.894 782.754Z" fill="white"/>
<path d="M898.894 782.754C867.586 837.617 797.731 856.711 742.868 825.403C688.005 794.095 668.91 724.24 700.218 669.377C731.526 614.514 801.382 595.42 856.245 626.728C911.108 658.036 930.202 727.891 898.894 782.754Z" stroke="#202870" stroke-width="2" stroke-linecap="round" stroke-linejoin="round"/>
</mask>
<g mask="url(#mask3_24_21428)">
<path d="M1065.5 683.678L1065.92 767.775L1112.4 830.596L1047.83 943.74L970.102 935.684L897.484 978.099L866.316 1049.76L736.047 1050.41L704.16 979.072L631.119 937.39L553.476 946.228L487.773 833.74L533.615 770.453L533.191 686.356" fill="#84AAE4"/>
<path d="M1065.5 683.678L1065.92 767.775L1112.4 830.596L1047.83 943.74L970.102 935.684L897.484 978.099L866.316 1049.76L736.047 1050.41L704.16 979.072L631.119 937.39L553.476 946.228L487.773 833.74L533.615 770.453L533.191 686.356" stroke="#0626A9" stroke-width="2" stroke-linecap="round" stroke-linejoin="round"/>
</g>
<mask id="mask4_24_21428" style="mask-type:alpha" maskUnits="userSpaceOnUse" x="485" y="402" width="629" height="650">
<path d="M967.994 516.741L1045.64 507.903L1111.34 620.391L1065.5 683.678L1065.92 767.775L1112.4 830.596L1047.83 943.74L970.102 935.684L897.484 978.099L866.316 1049.76L736.047 1050.41L704.16 979.072L631.119 937.39L553.476 946.228L487.773 833.74L533.615 770.453L533.191 686.356L486.715 623.535L551.282 510.39L629.011 518.447L701.629 476.032L732.796 404.372L863.065 403.716L894.952 475.059L967.994 516.741Z" fill="#8484FA"/>
<path d="M967.994 516.741L1045.64 507.903L1111.34 620.391L1065.5 683.678L1065.92 767.775L1112.4 830.596L1047.83 943.74L970.102 935.684L897.484 978.099L866.316 1049.76L736.047 1050.41L704.16 979.072L631.119 937.39L553.476 946.228L487.773 833.74L533.615 770.453L533.191 686.356L486.715 623.535L551.282 510.39L629.011 518.447L701.629 476.032L732.796 404.372L863.065 403.716L894.952 475.059L967.994 516.741Z" stroke="#202870" stroke-width="2" stroke-linecap="round" stroke-linejoin="round"/>
</mask>
<g mask="url(#mask4_24_21428)">
<mask id="mask5_24_21428" style="mask-type:luminance" maskUnits="userSpaceOnUse" x="0" y="-213" width="1600" height="1600">
<path d="M0 -213H1600V1387H0V-213Z" fill="white"/>
</mask>
<g mask="url(#mask5_24_21428)">
<path d="M958.608 723.101C960.675 797.384 910.527 865.438 835.365 883.215" stroke="#0626A9" stroke-width="2" stroke-linecap="round" stroke-linejoin="round"/>
<path d="M842.669 883.837C842.669 887.045 840.068 889.646 836.86 889.646C833.652 889.646 831.051 887.045 831.051 883.837C831.051 880.629 833.652 878.028 836.86 878.028C840.068 878.028 842.669 880.629 842.669 883.837Z" fill="#0626A9"/>
<path d="M842.669 883.837C842.669 887.045 840.068 889.646 836.86 889.646C833.652 889.646 831.051 887.045 831.051 883.837C831.051 880.629 833.652 878.028 836.86 878.028C840.068 878.028 842.669 880.629 842.669 883.837Z" stroke="#0626A9" stroke-width="2" stroke-linecap="round" stroke-linejoin="round"/>
<path d="M693.47 847.045C655.633 813.659 636.322 764.63 639.809 715.593" stroke="#0626A9" stroke-width="2" stroke-linecap="round" stroke-linejoin="round"/>
<path d="M699.11 846.981C699.11 850.189 696.509 852.79 693.301 852.79C690.093 852.79 687.493 850.189 687.493 846.981C687.493 843.773 690.093 841.172 693.301 841.172C696.509 841.172 699.11 843.773 699.11 846.981Z" fill="#0626A9"/>
<path d="M699.11 846.981C699.11 850.189 696.509 852.79 693.301 852.79C690.093 852.79 687.493 850.189 687.493 846.981C687.493 843.773 690.093 841.172 693.301 841.172C696.509 841.172 699.11 843.773 699.11 846.981Z" stroke="#0626A9" stroke-width="2" stroke-linecap="round" stroke-linejoin="round"/>
<path d="M970.93 840.985C1002.31 790.195 1009.03 731.122 994.383 677.757" stroke="#0626A9" stroke-width="2" stroke-linecap="round" stroke-linejoin="round"/>
<path d="M977.826 840.879C977.826 844.087 975.225 846.688 972.017 846.688C968.809 846.688 966.208 844.087 966.208 840.879C966.208 837.671 968.809 835.07 972.017 835.07C975.225 835.07 977.826 837.671 977.826 840.879Z" fill="#0626A9"/>
<path d="M977.826 840.879C977.826 844.087 975.225 846.688 972.017 846.688C968.809 846.688 966.208 844.087 966.208 840.879C966.208 837.671 968.809 835.07 972.017 835.07C975.225 835.07 977.826 837.671 977.826 840.879Z" stroke="#0626A9" stroke-width="2" stroke-linecap="round" stroke-linejoin="round"/>
<path d="M594.045 707.504C586.222 786.14 624.148 865.709 697.215 907.405C741.904 932.907 792.103 939.885 838.934 930.765" stroke="#0626A9" stroke-width="2" stroke-linecap="round" stroke-linejoin="round"/>
<path d="M843.227 930.931C843.227 934.139 840.626 936.74 837.418 936.74C834.21 936.74 831.609 934.139 831.609 930.931C831.609 927.723 834.21 925.122 837.418 925.122C840.626 925.122 843.227 927.723 843.227 930.931Z" fill="#0626A9"/>
<path d="M843.227 930.931C843.227 934.139 840.626 936.74 837.418 936.74C834.21 936.74 831.609 934.139 831.609 930.931C831.609 927.723 834.21 925.122 837.418 925.122C840.626 925.122 843.227 927.723 843.227 930.931Z" stroke="#0626A9" stroke-width="2" stroke-linecap="round" stroke-linejoin="round"/>
</g>
</g>
<path d="M913.844 731.561C911.479 792.708 861.124 841.517 799.414 841.44C737.778 841.363 687.589 792.545 685.265 731.494" stroke="#0626A9" stroke-width="2" stroke-linecap="round" stroke-linejoin="round"/>
</g>
<mask id="mask6_24_21428" style="mask-type:luminance" maskUnits="userSpaceOnUse" x="0" y="-213" width="1600" height="1600">
<path d="M0 -213H1600V1387H0V-213Z" fill="white"/>
</mask>
<g mask="url(#mask6_24_21428)">
<path d="M1194.94 1059.36L1186.18 1037.35L1191.69 1016.04L1162.89 993.3L1143.45 1003.61L1120.01 1000.19L1104.31 984.76L1070.22 998.34L1069.42 1020.33L1054.74 1038.92L1033.53 1044.81L1028.24 1081.11L1046.88 1092.81L1055.65 1114.81L1050.14 1136.12L1078.93 1158.86L1098.38 1148.56L1121.82 1151.97L1137.52 1167.4L1171.61 1153.83L1172.41 1131.83L1187.09 1113.24L1208.3 1107.36L1213.59 1071.05L1194.94 1059.36ZM1152.79 1080.73C1150.23 1098.33 1133.87 1110.53 1116.27 1107.96C1098.66 1105.39 1086.47 1089.04 1089.04 1071.44C1091.6 1053.83 1107.95 1041.64 1125.56 1044.2C1143.17 1046.77 1155.36 1063.12 1152.79 1080.73Z" fill="#0626A9"/>
<path d="M1194.94 1059.36L1186.18 1037.35L1191.69 1016.04L1162.89 993.3L1143.45 1003.61L1120.01 1000.19L1104.31 984.76L1070.22 998.34L1069.42 1020.33L1054.74 1038.92L1033.53 1044.81L1028.24 1081.11L1046.88 1092.81L1055.65 1114.81L1050.14 1136.12L1078.93 1158.86L1098.38 1148.56L1121.82 1151.97L1137.52 1167.4L1171.61 1153.83L1172.41 1131.83L1187.09 1113.24L1208.3 1107.36L1213.59 1071.05L1194.94 1059.36ZM1152.79 1080.73C1150.23 1098.33 1133.87 1110.53 1116.27 1107.96C1098.66 1105.39 1086.47 1089.04 1089.04 1071.44C1091.6 1053.83 1107.95 1041.64 1125.56 1044.2C1143.17 1046.77 1155.36 1063.12 1152.79 1080.73Z" stroke="#0626A9" stroke-width="2" stroke-linecap="round" stroke-linejoin="round"/>
<path d="M598.18 1116.73L585.91 1085.92L593.63 1056.09L553.31 1024.26L526.08 1038.68L493.26 1033.9L471.28 1012.3L423.56 1031.3L422.43 1062.1L401.88 1088.13L372.19 1096.36L364.78 1147.2L390.89 1163.56L403.16 1194.38L395.44 1224.21L435.76 1256.04L462.99 1241.62L495.81 1246.4L517.79 1268L565.51 1249L566.63 1218.2L587.18 1192.17L616.88 1183.94L624.29 1133.1L598.18 1116.73ZM539.17 1146.65C535.57 1171.3 512.68 1188.37 488.03 1184.78C463.38 1181.19 446.31 1158.29 449.9 1133.64C453.5 1109 476.39 1091.93 501.04 1095.52C525.69 1099.11 542.76 1122 539.17 1146.65Z" fill="#0626A9"/>
<path d="M598.18 1116.73L585.91 1085.92L593.63 1056.09L553.31 1024.26L526.08 1038.68L493.26 1033.9L471.28 1012.3L423.56 1031.3L422.43 1062.1L401.88 1088.13L372.19 1096.36L364.78 1147.2L390.89 1163.56L403.16 1194.38L395.44 1224.21L435.76 1256.04L462.99 1241.62L495.81 1246.4L517.79 1268L565.51 1249L566.63 1218.2L587.18 1192.17L616.88 1183.94L624.29 1133.1L598.18 1116.73ZM539.17 1146.65C535.57 1171.3 512.68 1188.37 488.03 1184.78C463.38 1181.19 446.31 1158.29 449.9 1133.64C453.5 1109 476.39 1091.93 501.04 1095.52C525.69 1099.11 542.76 1122 539.17 1146.65Z" stroke="#0626A9" stroke-width="2" stroke-linecap="round" stroke-linejoin="round"/>
</g>
<mask id="mask7_24_21428" style="mask-type:luminance" maskUnits="userSpaceOnUse" x="0" y="-213" width="1600" height="1600">
<path d="M0 -213H1600V1387H0V-213Z" fill="white"/>
</mask>
<g mask="url(#mask7_24_21428)">
<path d="M1321.74 673.4H1066.76V555.382H1321.74V673.4Z" fill="#84AAE4"/>
<path d="M1321.74 673.4H1066.76V555.382H1321.74V673.4Z" stroke="#0626A9" stroke-width="2" stroke-linecap="round" stroke-linejoin="round"/>
<path d="M1164.74 618.792H1120.91V555.382" stroke="#0626A9" stroke-width="2" stroke-linecap="round" stroke-linejoin="round"/>
<path d="M1169.46 618.792C1169.46 621.396 1167.35 623.507 1164.74 623.507C1162.14 623.507 1160.03 621.396 1160.03 618.792C1160.03 616.188 1162.14 614.077 1164.74 614.077C1167.35 614.077 1169.46 616.188 1169.46 618.792Z" fill="#0626A9"/>
<path d="M1169.46 618.792C1169.46 621.396 1167.35 623.507 1164.74 623.507C1162.14 623.507 1160.03 621.396 1160.03 618.792C1160.03 616.188 1162.14 614.077 1164.74 614.077C1167.35 614.077 1169.46 616.188 1169.46 618.792Z" stroke="#0626A9" stroke-width="2" stroke-linecap="round" stroke-linejoin="round"/>
<path d="M1147.14 589.332H1248.09V673.4" stroke="#0626A9" stroke-width="2" stroke-linecap="round" stroke-linejoin="round"/>
<path d="M1147.54 589.332C1147.54 591.936 1145.43 594.047 1142.83 594.047C1140.23 594.047 1138.11 591.936 1138.11 589.332C1138.11 586.728 1140.23 584.617 1142.83 584.617C1145.43 584.617 1147.54 586.728 1147.54 589.332Z" fill="#0626A9"/>
<path d="M1147.54 589.332C1147.54 591.936 1145.43 594.047 1142.83 594.047C1140.23 594.047 1138.11 591.936 1138.11 589.332C1138.11 586.728 1140.23 584.617 1142.83 584.617C1145.43 584.617 1147.54 586.728 1147.54 589.332Z" stroke="#0626A9" stroke-width="2" stroke-linecap="round" stroke-linejoin="round"/>
<path d="M1269.65 673.4V612.684H1321.74" stroke="#0626A9" stroke-width="2" stroke-linecap="round" stroke-linejoin="round"/>
<path d="M1290.13 555.382V582.866" stroke="#0626A9" stroke-width="2" stroke-linecap="round" stroke-linejoin="round"/>
<path d="M1294.84 587.581C1294.84 590.185 1292.73 592.296 1290.13 592.296C1287.52 592.296 1285.41 590.185 1285.41 587.581C1285.41 584.977 1287.52 582.866 1290.13 582.866C1292.73 582.866 1294.84 584.977 1294.84 587.581Z" fill="#0626A9"/>
<path d="M1294.84 587.581C1294.84 590.185 1292.73 592.296 1290.13 592.296C1287.52 592.296 1285.41 590.185 1285.41 587.581C1285.41 584.977 1287.52 582.866 1290.13 582.866C1292.73 582.866 1294.84 584.977 1294.84 587.581Z" stroke="#0626A9" stroke-width="2" stroke-linecap="round" stroke-linejoin="round"/>
<path d="M1212.17 614.391V643.043H1248.09" stroke="#0626A9" stroke-width="2" stroke-linecap="round" stroke-linejoin="round"/>
<path d="M1216.88 612.685C1216.88 615.289 1214.77 617.4 1212.17 617.4C1209.56 617.4 1207.45 615.289 1207.45 612.685C1207.45 610.081 1209.56 607.97 1212.17 607.97C1214.77 607.97 1216.88 610.081 1216.88 612.685Z" fill="#0626A9"/>
<path d="M1216.88 612.685C1216.88 615.289 1214.77 617.4 1212.17 617.4C1209.56 617.4 1207.45 615.289 1207.45 612.685C1207.45 610.081 1209.56 607.97 1212.17 607.97C1214.77 607.97 1216.88 610.081 1216.88 612.685Z" stroke="#0626A9" stroke-width="2" stroke-linecap="round" stroke-linejoin="round"/>
<path d="M1144.99 618.792V646.096H1094.33" stroke="#0626A9" stroke-width="2" stroke-linecap="round" stroke-linejoin="round"/>
</g>
<mask id="mask8_24_21428" style="mask-type:luminance" maskUnits="userSpaceOnUse" x="0" y="-213" width="1600" height="1600">
<path d="M0 -213H1600V1387H0V-213Z" fill="white"/>
</mask>
<g mask="url(#mask8_24_21428)">
<path d="M956.744 527.272H643.113V382.11H956.744V527.272Z" fill="#84AAE4"/>
<path d="M956.744 527.272H643.113V382.11H956.744V527.272Z" stroke="#0626A9" stroke-width="2.46" stroke-linecap="round" stroke-linejoin="round"/>
<path d="M763.636 460.104H709.725V382.11" stroke="#0626A9" stroke-width="2.46" stroke-linecap="round" stroke-linejoin="round"/>
<path d="M769.436 460.104C769.436 463.307 766.839 465.903 763.636 465.903C760.433 465.903 757.837 463.307 757.837 460.104C757.837 456.901 760.433 454.305 763.636 454.305C766.839 454.305 769.436 456.901 769.436 460.104Z" fill="#0626A9"/>
<path d="M769.436 460.104C769.436 463.307 766.839 465.903 763.636 465.903C760.433 465.903 757.837 463.307 757.837 460.104C757.837 456.901 760.433 454.305 763.636 454.305C766.839 454.305 769.436 456.901 769.436 460.104Z" stroke="#0626A9" stroke-width="2.46" stroke-linecap="round" stroke-linejoin="round"/>
<path d="M741.982 423.868H866.156V527.272" stroke="#0626A9" stroke-width="2.46" stroke-linecap="round" stroke-linejoin="round"/>
<path d="M742.48 423.869C742.48 427.072 739.883 429.668 736.68 429.668C733.477 429.668 730.881 427.072 730.881 423.869C730.881 420.666 733.477 418.07 736.68 418.07C739.883 418.07 742.48 420.666 742.48 423.869Z" fill="#0626A9"/>
<path d="M742.48 423.869C742.48 427.072 739.883 429.668 736.68 429.668C733.477 429.668 730.881 427.072 730.881 423.869C730.881 420.666 733.477 418.07 736.68 418.07C739.883 418.07 742.48 420.666 742.48 423.869Z" stroke="#0626A9" stroke-width="2.46" stroke-linecap="round" stroke-linejoin="round"/>
<path d="M892.669 527.272V452.592H956.745" stroke="#0626A9" stroke-width="2.46" stroke-linecap="round" stroke-linejoin="round"/>
<path d="M917.857 382.109V415.915" stroke="#0626A9" stroke-width="2.46" stroke-linecap="round" stroke-linejoin="round"/>
<path d="M923.657 421.715C923.657 424.918 921.06 427.514 917.857 427.514C914.654 427.514 912.058 424.918 912.058 421.715C912.058 418.512 914.654 415.916 917.857 415.916C921.06 415.916 923.657 418.512 923.657 421.715Z" fill="#0626A9"/>
<path d="M923.657 421.715C923.657 424.918 921.06 427.514 917.857 427.514C914.654 427.514 912.058 424.918 912.058 421.715C912.058 418.512 914.654 415.916 917.857 415.916C921.06 415.916 923.657 418.512 923.657 421.715Z" stroke="#0626A9" stroke-width="2.46" stroke-linecap="round" stroke-linejoin="round"/>
<path d="M821.966 454.69V489.932H866.155" stroke="#0626A9" stroke-width="2.46" stroke-linecap="round" stroke-linejoin="round"/>
<path d="M827.766 452.592C827.766 455.795 825.169 458.391 821.966 458.391C818.764 458.391 816.167 455.795 816.167 452.592C816.167 449.389 818.764 446.793 821.966 446.793C825.169 446.793 827.766 449.389 827.766 452.592Z" fill="#0626A9"/>
<path d="M827.766 452.592C827.766 455.795 825.169 458.391 821.966 458.391C818.764 458.391 816.167 455.795 816.167 452.592C816.167 449.389 818.764 446.793 821.966 446.793C825.169 446.793 827.766 449.389 827.766 452.592Z" stroke="#0626A9" stroke-width="2.46" stroke-linecap="round" stroke-linejoin="round"/>
<path d="M739.332 460.104V493.688H677.025" stroke="#0626A9" stroke-width="2.46" stroke-linecap="round" stroke-linejoin="round"/>
</g>
<mask id="mask9_24_21428" style="mask-type:luminance" maskUnits="userSpaceOnUse" x="0" y="-213" width="1600" height="1600">
<path d="M0 -213H1600V1387H0V-213Z" fill="white"/>
</mask>
<g mask="url(#mask9_24_21428)">
<path d="M530.808 672.672H280.924V557.014H530.808V672.672Z" fill="#84AAE4"/>
<path d="M530.808 672.672H280.924V557.014H530.808V672.672Z" stroke="#0626A9" stroke-width="1.96" stroke-linecap="round" stroke-linejoin="round"/>
<path d="M376.949 619.156H333.996V557.014" stroke="#0626A9" stroke-width="1.96" stroke-linecap="round" stroke-linejoin="round"/>
<path d="M381.57 619.156C381.57 621.708 379.501 623.777 376.949 623.777C374.397 623.777 372.328 621.708 372.328 619.156C372.328 616.604 374.397 614.535 376.949 614.535C379.501 614.535 381.57 616.604 381.57 619.156Z" fill="#0626A9"/>
<path d="M381.57 619.156C381.57 621.708 379.501 623.777 376.949 623.777C374.397 623.777 372.328 621.708 372.328 619.156C372.328 616.604 374.397 614.535 376.949 614.535C379.501 614.535 381.57 616.604 381.57 619.156Z" stroke="#0626A9" stroke-width="1.96" stroke-linecap="round" stroke-linejoin="round"/>
<path d="M359.697 590.286H458.632V672.672" stroke="#0626A9" stroke-width="1.96" stroke-linecap="round" stroke-linejoin="round"/>
<path d="M360.093 590.286C360.093 592.838 358.024 594.907 355.472 594.907C352.92 594.907 350.852 592.838 350.852 590.286C350.852 587.734 352.92 585.665 355.472 585.665C358.024 585.665 360.093 587.734 360.093 590.286Z" fill="#0626A9"/>
<path d="M360.093 590.286C360.093 592.838 358.024 594.907 355.472 594.907C352.92 594.907 350.852 592.838 350.852 590.286C350.852 587.734 352.92 585.665 355.472 585.665C358.024 585.665 360.093 587.734 360.093 590.286Z" stroke="#0626A9" stroke-width="1.96" stroke-linecap="round" stroke-linejoin="round"/>
<path d="M479.756 672.672V613.17H530.808" stroke="#0626A9" stroke-width="1.96" stroke-linecap="round" stroke-linejoin="round"/>
<path d="M499.824 557.014V583.948" stroke="#0626A9" stroke-width="1.96" stroke-linecap="round" stroke-linejoin="round"/>
<path d="M504.446 588.569C504.446 591.121 502.377 593.19 499.825 593.19C497.273 593.19 495.204 591.121 495.204 588.569C495.204 586.017 497.273 583.948 499.825 583.948C502.377 583.948 504.446 586.017 504.446 588.569Z" fill="#0626A9"/>
<path d="M504.446 588.569C504.446 591.121 502.377 593.19 499.825 593.19C497.273 593.19 495.204 591.121 495.204 588.569C495.204 586.017 497.273 583.948 499.825 583.948C502.377 583.948 504.446 586.017 504.446 588.569Z" stroke="#0626A9" stroke-width="1.96" stroke-linecap="round" stroke-linejoin="round"/>
<path d="M423.424 614.843V642.921H458.631" stroke="#0626A9" stroke-width="1.96" stroke-linecap="round" stroke-linejoin="round"/>
<path d="M428.044 613.171C428.044 615.723 425.975 617.792 423.423 617.792C420.872 617.792 418.803 615.723 418.803 613.171C418.803 610.619 420.872 608.55 423.423 608.55C425.975 608.55 428.044 610.619 428.044 613.171Z" fill="#0626A9"/>
<path d="M428.044 613.171C428.044 615.723 425.975 617.792 423.423 617.792C420.872 617.792 418.803 615.723 418.803 613.171C418.803 610.619 420.872 608.55 423.423 608.55C425.975 608.55 428.044 610.619 428.044 613.171Z" stroke="#0626A9" stroke-width="1.96" stroke-linecap="round" stroke-linejoin="round"/>
<path d="M357.585 619.156V645.914H307.942" stroke="#0626A9" stroke-width="1.96" stroke-linecap="round" stroke-linejoin="round"/>
</g>
<mask id="mask10_24_21428" style="mask-type:luminance" maskUnits="userSpaceOnUse" x="0" y="-213" width="1600" height="1600">
<path d="M0 -213H1600V1387H0V-213Z" fill="white"/>
</mask>
<g mask="url(#mask10_24_21428)">
<path d="M1384.75 673.25L215.938 673.438L254.375 732H1345L1384.75 673.25Z" fill="white"/>
<path d="M1384.12 673.4H807.101L807.077 498.594L807.101 498.296C810.177 496.065 812.185 492.452 812.185 488.362C812.185 481.582 806.689 476.086 799.909 476.086C793.129 476.086 787.633 481.582 787.633 488.362C787.633 492.452 789.641 496.065 792.717 498.296L792.699 498.653L792.717 673.4H215.699" fill="white"/>
<path d="M1384.12 673.4H807.101L807.077 498.594L807.101 498.296C810.177 496.065 812.185 492.452 812.185 488.362C812.185 481.582 806.689 476.086 799.909 476.086C793.129 476.086 787.633 481.582 787.633 488.362C787.633 492.452 789.641 496.065 792.717 498.296L792.699 498.653L792.717 673.4H215.699" stroke="#0626A9" stroke-width="2" stroke-linecap="round" stroke-linejoin="round"/>
<path d="M254.794 731.821H1344.8" stroke="#0626A9" stroke-width="2" stroke-linecap="round" stroke-linejoin="round"/>
</g>
</g>
</g>
<defs>
<clipPath id="clip0_24_21428">
<rect width="1600" height="1600" fill="white"/>
</clipPath>
</defs>
</svg>
