<svg width="1600" height="1600" viewBox="0 0 1600 1600" fill="none" xmlns="http://www.w3.org/2000/svg">
<g clip-path="url(#clip0_24_16935)">
<mask id="mask0_24_16935" style="mask-type:luminance" maskUnits="userSpaceOnUse" x="0" y="0" width="1600" height="1600">
<path d="M1600 0H0V1600H1600V0Z" fill="white"/>
</mask>
<g mask="url(#mask0_24_16935)">
<path d="M891.199 337.42H1328.77V938.23H891.199V337.42Z" fill="white"/>
<path d="M891.199 337.42H1328.77V938.23H891.199V337.42Z" stroke="#0626A9" stroke-width="2" stroke-linecap="round" stroke-linejoin="round"/>
<path d="M1276.05 496.801H943.918V403.663H1276.05V496.801Z" fill="#84AAE4"/>
<path d="M1276.05 496.801H943.918V403.663H1276.05V496.801Z" stroke="#0626A9" stroke-width="2" stroke-linecap="round" stroke-linejoin="round"/>
<path d="M944.557 532.068H1215.86" stroke="#0626A9" stroke-width="2" stroke-linecap="round" stroke-linejoin="round"/>
<path d="M944.556 574.99C944.556 574.99 1071.46 574.99 1111.99 574.99" stroke="#0626A9" stroke-width="2" stroke-linecap="round" stroke-linejoin="round"/>
<path d="M944.556 617.911C944.556 617.911 1121.43 617.911 1216.78 617.911" stroke="#0626A9" stroke-width="2" stroke-linecap="round" stroke-linejoin="round"/>
<path d="M1112.31 621.07L1100.12 938.294H1239.74L1112.31 621.07Z" fill="#0626A9"/>
<path d="M1112.31 621.07L1100.12 938.294H1239.74L1112.31 621.07Z" stroke="#0626A9" stroke-width="2" stroke-linecap="round" stroke-linejoin="round"/>
<path d="M891.199 1037.85V1202.78H1112.31" stroke="#0626A9" stroke-width="2" stroke-linecap="round" stroke-linejoin="round"/>
<path d="M1316.46 1201.37C1316.46 1263.46 1266.13 1313.78 1204.05 1313.78C1141.96 1313.78 1091.64 1263.46 1091.64 1201.37C1091.64 1139.29 1141.96 1088.96 1204.05 1088.96C1266.13 1088.96 1316.46 1139.29 1316.46 1201.37Z" fill="#84AAE4"/>
<path d="M1316.46 1201.37C1316.46 1263.46 1266.13 1313.78 1204.05 1313.78C1141.96 1313.78 1091.64 1263.46 1091.64 1201.37C1091.64 1139.29 1141.96 1088.96 1204.05 1088.96C1266.13 1088.96 1316.46 1139.29 1316.46 1201.37Z" stroke="#0626A9" stroke-width="2" stroke-linecap="round" stroke-linejoin="round"/>
<path d="M1283.51 1201.37C1283.51 1201.37 1247.93 1240.06 1204.05 1240.06C1160.16 1240.06 1124.58 1201.37 1124.58 1201.37C1124.58 1201.37 1160.16 1162.69 1204.05 1162.69C1247.93 1162.69 1283.51 1201.37 1283.51 1201.37Z" fill="white"/>
<path d="M1283.51 1201.37C1283.51 1201.37 1247.93 1240.06 1204.05 1240.06C1160.16 1240.06 1124.58 1201.37 1124.58 1201.37C1124.58 1201.37 1160.16 1162.69 1204.05 1162.69C1247.93 1162.69 1283.51 1201.37 1283.51 1201.37Z" stroke="#0626A9" stroke-width="2" stroke-linecap="round" stroke-linejoin="round"/>
<mask id="mask1_24_16935" style="mask-type:alpha" maskUnits="userSpaceOnUse" x="1123" y="1161" width="162" height="81">
<path d="M1283.51 1201.37C1283.51 1201.37 1247.93 1240.06 1204.05 1240.06C1160.16 1240.06 1124.58 1201.37 1124.58 1201.37C1124.58 1201.37 1160.16 1162.69 1204.05 1162.69C1247.93 1162.69 1283.51 1201.37 1283.51 1201.37Z" fill="white"/>
<path d="M1283.51 1201.37C1283.51 1201.37 1247.93 1240.06 1204.05 1240.06C1160.16 1240.06 1124.58 1201.37 1124.58 1201.37C1124.58 1201.37 1160.16 1162.69 1204.05 1162.69C1247.93 1162.69 1283.51 1201.37 1283.51 1201.37Z" stroke="#202870" stroke-width="2" stroke-linecap="round" stroke-linejoin="round"/>
</mask>
<g mask="url(#mask1_24_16935)">
<path d="M1242.73 1201.37C1242.73 1222.74 1225.41 1240.06 1204.05 1240.06C1182.68 1240.06 1165.36 1222.74 1165.36 1201.37C1165.36 1180.01 1182.68 1162.69 1204.05 1162.69C1225.41 1162.69 1242.73 1180.01 1242.73 1201.37Z" fill="#0626A9"/>
<path d="M1242.73 1201.37C1242.73 1222.74 1225.41 1240.06 1204.05 1240.06C1182.68 1240.06 1165.36 1222.74 1165.36 1201.37C1165.36 1180.01 1182.68 1162.69 1204.05 1162.69C1225.41 1162.69 1242.73 1180.01 1242.73 1201.37Z" stroke="#0626A9" stroke-width="2" stroke-linecap="round" stroke-linejoin="round"/>
<path d="M1222.32 1201.37C1222.32 1211.47 1214.14 1219.65 1204.05 1219.65C1193.96 1219.65 1185.77 1211.47 1185.77 1201.37C1185.77 1191.28 1193.96 1183.1 1204.05 1183.1C1214.14 1183.1 1222.32 1191.28 1222.32 1201.37Z" fill="white"/>
<path d="M1222.32 1201.37C1222.32 1211.47 1214.14 1219.65 1204.05 1219.65C1193.96 1219.65 1185.77 1211.47 1185.77 1201.37C1185.77 1191.28 1193.96 1183.1 1204.05 1183.1C1214.14 1183.1 1222.32 1191.28 1222.32 1201.37Z" stroke="#0626A9" stroke-width="2" stroke-linecap="round" stroke-linejoin="round"/>
</g>
<path d="M719.332 621.07V488.39H498.848" stroke="#0626A9" stroke-width="2" stroke-linecap="round" stroke-linejoin="round"/>
<path d="M508.79 488.39C508.79 550.472 458.463 600.799 396.381 600.799C334.299 600.799 283.972 550.472 283.972 488.39C283.972 426.308 334.299 375.981 396.381 375.981C458.463 375.981 508.79 426.308 508.79 488.39Z" fill="#84AAE4"/>
<path d="M508.79 488.39C508.79 550.472 458.463 600.799 396.381 600.799C334.299 600.799 283.972 550.472 283.972 488.39C283.972 426.308 334.299 375.981 396.381 375.981C458.463 375.981 508.79 426.308 508.79 488.39Z" stroke="#0626A9" stroke-width="2" stroke-linecap="round" stroke-linejoin="round"/>
<path d="M460.473 443.832L440.939 424.299L396.381 468.856L351.824 424.299L332.29 443.832L376.848 488.39L332.29 532.948L351.824 552.481L396.381 507.924L440.939 552.481L460.473 532.948L415.915 488.39L460.473 443.832Z" fill="white"/>
<path d="M460.473 443.832L440.939 424.299L396.381 468.856L351.824 424.299L332.29 443.832L376.848 488.39L332.29 532.948L351.824 552.481L396.381 507.924L440.939 552.481L460.473 532.948L415.915 488.39L460.473 443.832Z" stroke="#0626A9" stroke-width="2.02401" stroke-linecap="round" stroke-linejoin="round"/>
<mask id="mask2_24_16935" style="mask-type:luminance" maskUnits="userSpaceOnUse" x="0" y="0" width="1600" height="1600">
<path d="M0 0H1600V1600H0V0Z" fill="white"/>
</mask>
<g mask="url(#mask2_24_16935)">
<path d="M799.81 1045.99V1340.27" stroke="#0626A9" stroke-width="2" stroke-linecap="round" stroke-linejoin="round"/>
<path d="M695.122 716.378H400.844" stroke="#0626A9" stroke-width="2" stroke-linecap="round" stroke-linejoin="round"/>
<path d="M831.624 264.297V404.928H765.368V616.683" stroke="#0626A9" stroke-width="2" stroke-linecap="round" stroke-linejoin="round"/>
<path d="M307.201 1057.84H189.255V809.387" stroke="#0626A9" stroke-width="2" stroke-linecap="round" stroke-linejoin="round"/>
<path d="M1112.31 829.898H1410.75V997.908" stroke="#0626A9" stroke-width="2" stroke-linecap="round" stroke-linejoin="round"/>
<path d="M1112.31 829.898H1197.99" stroke="white" stroke-width="2" stroke-linecap="round" stroke-linejoin="round"/>
<path d="M1112.31 780.083H1264.71V694.349" stroke="#0626A9" stroke-width="2" stroke-linecap="round" stroke-linejoin="round"/>
<path d="M1112.31 780.082H1177.82" stroke="white" stroke-width="2" stroke-linecap="round" stroke-linejoin="round"/>
<path d="M813.693 1132.53C813.693 1140.32 807.371 1146.65 799.573 1146.65C791.775 1146.65 785.453 1140.32 785.453 1132.53C785.453 1124.73 791.775 1118.41 799.573 1118.41C807.371 1118.41 813.693 1124.73 813.693 1132.53Z" fill="#8869D5"/>
<path d="M813.693 1132.53C813.693 1140.32 807.371 1146.65 799.573 1146.65C791.775 1146.65 785.453 1140.32 785.453 1132.53C785.453 1124.73 791.775 1118.41 799.573 1118.41C807.371 1118.41 813.693 1124.73 813.693 1132.53Z" stroke="#0626A9" stroke-width="2" stroke-linecap="round" stroke-linejoin="round"/>
<path d="M604.785 703.493C596.987 703.493 590.665 709.815 590.665 717.613C590.665 725.411 596.987 731.733 604.785 731.733C612.583 731.733 618.905 725.411 618.905 717.613C618.905 709.815 612.583 703.493 604.785 703.493Z" fill="white"/>
<path d="M604.785 703.493C596.987 703.493 590.665 709.815 590.665 717.613C590.665 725.411 596.987 731.733 604.785 731.733C612.583 731.733 618.905 725.411 618.905 717.613C618.905 709.815 612.583 703.493 604.785 703.493Z" stroke="#0626A9" stroke-width="2" stroke-linecap="round" stroke-linejoin="round"/>
<path d="M845.639 316.377C845.639 308.579 839.317 302.257 831.519 302.257C823.721 302.257 817.399 308.579 817.399 316.377C817.399 324.175 823.721 330.497 831.519 330.497C839.317 330.497 845.639 324.175 845.639 316.377Z" fill="#8869D5"/>
<path d="M845.639 316.377C845.639 308.579 839.317 302.257 831.519 302.257C823.721 302.257 817.399 308.579 817.399 316.377C817.399 324.175 823.721 330.497 831.519 330.497C839.317 330.497 845.639 324.175 845.639 316.377Z" stroke="#0626A9" stroke-width="2" stroke-linecap="round" stroke-linejoin="round"/>
<path d="M778.461 542.489C778.461 534.691 772.139 528.369 764.341 528.369C756.543 528.369 750.221 534.691 750.221 542.489C750.221 550.287 756.543 556.609 764.341 556.609C772.139 556.609 778.461 550.287 778.461 542.489Z" fill="#8869D5"/>
<path d="M778.461 542.489C778.461 534.691 772.139 528.369 764.341 528.369C756.543 528.369 750.221 534.691 750.221 542.489C750.221 550.287 756.543 556.609 764.341 556.609C772.139 556.609 778.461 550.287 778.461 542.489Z" stroke="#0626A9" stroke-width="2" stroke-linecap="round" stroke-linejoin="round"/>
<path d="M202.331 865.519C202.331 873.317 196.009 879.639 188.211 879.639C180.413 879.639 174.091 873.317 174.091 865.519C174.091 857.721 180.413 851.399 188.211 851.399C196.009 851.399 202.331 857.721 202.331 865.519Z" fill="#84AAE4"/>
<path d="M202.331 865.519C202.331 873.317 196.009 879.639 188.211 879.639C180.413 879.639 174.091 873.317 174.091 865.519C174.091 857.721 180.413 851.399 188.211 851.399C196.009 851.399 202.331 857.721 202.331 865.519Z" stroke="#0626A9" stroke-width="2" stroke-linecap="round" stroke-linejoin="round"/>
<path d="M264.745 1058.38C264.745 1066.18 258.423 1072.5 250.625 1072.5C242.827 1072.5 236.505 1066.18 236.505 1058.38C236.505 1050.59 242.827 1044.26 250.625 1044.26C258.423 1044.26 264.745 1050.59 264.745 1058.38Z" fill="#84AAE4"/>
<path d="M264.745 1058.38C264.745 1066.18 258.423 1072.5 250.625 1072.5C242.827 1072.5 236.505 1066.18 236.505 1058.38C236.505 1050.59 242.827 1044.26 250.625 1044.26C258.423 1044.26 264.745 1050.59 264.745 1058.38Z" stroke="#0626A9" stroke-width="2" stroke-linecap="round" stroke-linejoin="round"/>
<path d="M1425.1 941.31C1425.1 949.108 1418.78 955.43 1410.98 955.43C1403.18 955.43 1396.86 949.108 1396.86 941.31C1396.86 933.512 1403.18 927.19 1410.98 927.19C1418.78 927.19 1425.1 933.512 1425.1 941.31Z" fill="white"/>
<path d="M1425.1 941.31C1425.1 949.108 1418.78 955.43 1410.98 955.43C1403.18 955.43 1396.86 949.108 1396.86 941.31C1396.86 933.512 1403.18 927.19 1410.98 927.19C1418.78 927.19 1425.1 933.512 1425.1 941.31Z" stroke="#0626A9" stroke-width="2" stroke-linecap="round" stroke-linejoin="round"/>
<path d="M1211.24 829.986C1211.24 837.784 1204.91 844.106 1197.12 844.106C1189.32 844.106 1183 837.784 1183 829.986C1183 822.188 1189.32 815.866 1197.12 815.866C1204.91 815.866 1211.24 822.188 1211.24 829.986Z" fill="white"/>
<path d="M1211.24 829.986C1211.24 837.784 1204.91 844.106 1197.12 844.106C1189.32 844.106 1183 837.784 1183 829.986C1183 822.188 1189.32 815.866 1197.12 815.866C1204.91 815.866 1211.24 822.188 1211.24 829.986Z" stroke="#0626A9" stroke-width="2" stroke-linecap="round" stroke-linejoin="round"/>
<path d="M1206.35 779.641C1206.35 787.439 1200.03 793.761 1192.23 793.761C1184.43 793.761 1178.11 787.439 1178.11 779.641C1178.11 771.843 1184.43 765.521 1192.23 765.521C1200.03 765.521 1206.35 771.843 1206.35 779.641Z" fill="#84AAE4"/>
<path d="M1206.35 779.641C1206.35 787.439 1200.03 793.761 1192.23 793.761C1184.43 793.761 1178.11 787.439 1178.11 779.641C1178.11 771.843 1184.43 765.521 1192.23 765.521C1200.03 765.521 1206.35 771.843 1206.35 779.641Z" stroke="#0626A9" stroke-width="2" stroke-linecap="round" stroke-linejoin="round"/>
</g>
<path d="M704.48 1024.95L742.159 974.07L689.879 882.36L626.897 888.865L568.07 854.475L542.842 796.396L437.289 795.816L411.429 853.61L352.232 887.368L289.325 880.178L236.042 971.297L273.163 1022.6L272.794 1090.73L235.115 1141.62L287.385 1233.32L350.377 1226.82L409.194 1261.22L434.422 1319.29L539.985 1319.87L565.845 1262.07L625.042 1228.32L687.949 1235.51L741.231 1144.38L704.111 1093.09L704.48 1024.95ZM534.534 1138.35C490.065 1163.7 433.473 1148.2 408.129 1103.74C382.774 1059.27 398.271 1002.68 442.74 977.327C487.198 951.983 543.801 967.48 569.145 1011.95C594.5 1056.41 579.003 1113.01 534.534 1138.35Z" fill="#0626A9"/>
<path d="M704.48 1024.95L742.159 974.07L689.879 882.36L626.897 888.865L568.07 854.475L542.842 796.396L437.289 795.816L411.429 853.61L352.232 887.368L289.325 880.178L236.042 971.297L273.163 1022.6L272.794 1090.73L235.115 1141.62L287.385 1233.32L350.377 1226.82L409.194 1261.22L434.422 1319.29L539.985 1319.87L565.845 1262.07L625.042 1228.32L687.949 1235.51L741.231 1144.38L704.111 1093.09L704.48 1024.95ZM534.534 1138.35C490.065 1163.7 433.473 1148.2 408.129 1103.74C382.774 1059.27 398.271 1002.68 442.74 977.327C487.198 951.983 543.801 967.48 569.145 1011.95C594.5 1056.41 579.003 1113.01 534.534 1138.35Z" stroke="#0626A9" stroke-width="2" stroke-linecap="round" stroke-linejoin="round"/>
<path d="M507.688 1019.69H1112.31V621.07C1112.31 613.237 1105.96 606.887 1098.13 606.887H521.871C514.038 606.887 507.688 613.237 507.688 621.07V1019.69Z" fill="#84AAE4"/>
<path d="M507.688 1019.69H1112.31V621.07C1112.31 613.237 1105.96 606.887 1098.13 606.887H521.871C514.038 606.887 507.688 613.237 507.688 621.07V1019.69Z" stroke="#0626A9" stroke-width="2" stroke-linecap="round" stroke-linejoin="round"/>
<path d="M531.169 993.882H1088.83V637.564H531.169V993.882Z" fill="white"/>
<path d="M531.169 993.882H1088.83V637.564H531.169V993.882Z" stroke="#0626A9" stroke-width="2" stroke-linecap="round" stroke-linejoin="round"/>
<path d="M684.119 902.394L809.999 716.378L935.879 902.394H684.119Z" fill="#8869D5"/>
<path d="M684.119 902.394L809.999 716.378L935.879 902.394H684.119Z" stroke="#0626A9" stroke-width="2" stroke-linecap="round" stroke-linejoin="round"/>
<path d="M815.036 842.061H804.962L799.808 777.477H820.19L815.036 842.061Z" fill="white"/>
<path d="M821.425 864.996C821.425 871.306 816.309 876.422 809.999 876.422C803.689 876.422 798.573 871.306 798.573 864.996C798.573 858.686 803.689 853.57 809.999 853.57C816.309 853.57 821.425 858.686 821.425 864.996Z" fill="white"/>
<path d="M485.321 1061.26H1134.67C1153.48 1061.26 1168.73 1046.01 1168.73 1027.2V1014.93H451.263V1027.2C451.263 1046.01 466.511 1061.26 485.321 1061.26Z" fill="#84AAE4"/>
<path d="M485.321 1061.26H1134.67C1153.48 1061.26 1168.73 1046.01 1168.73 1027.2V1014.93H451.263V1027.2C451.263 1046.01 466.511 1061.26 485.321 1061.26Z" stroke="#0626A9" stroke-width="2" stroke-linecap="round" stroke-linejoin="round"/>
<path d="M859.163 1031.17H760.833C751.867 1031.17 744.599 1023.9 744.599 1014.93H875.397C875.397 1023.9 868.129 1031.17 859.163 1031.17Z" fill="#0626A9"/>
<path d="M859.163 1031.17H760.833C751.867 1031.17 744.599 1023.9 744.599 1014.93H875.397C875.397 1023.9 868.129 1031.17 859.163 1031.17Z" stroke="#0626A9" stroke-width="2" stroke-linecap="round" stroke-linejoin="round"/>
</g>
</g>
<defs>
<clipPath id="clip0_24_16935">
<rect width="1600" height="1600" fill="white"/>
</clipPath>
</defs>
</svg>
