<svg width="1600" height="1600" viewBox="0 0 1600 1600" fill="none" xmlns="http://www.w3.org/2000/svg">
<g clip-path="url(#clip0_24_22752)">
<mask id="mask0_24_22752" style="mask-type:luminance" maskUnits="userSpaceOnUse" x="0" y="0" width="1600" height="1600">
<path d="M1600 0H0V1600H1600V0Z" fill="white"/>
</mask>
<g mask="url(#mask0_24_22752)">
<path d="M833.822 855.918H771.087C765.431 835.15 757.204 815.443 746.746 797.172L791.112 752.806C800.341 743.577 800.341 728.614 791.112 719.385L730.488 658.761C721.259 649.532 706.296 649.532 697.067 658.761L652.701 703.127C634.43 692.669 614.723 684.442 593.955 678.786L598.955 616.051C598.955 602.999 588.374 592.418 575.322 592.418H489.588C476.536 592.418 465.955 602.999 465.955 616.051L460.955 678.786C440.187 684.442 420.48 692.669 402.209 703.127L357.843 658.761C348.614 649.532 333.651 649.532 324.422 658.761L263.798 719.385C254.569 728.614 254.569 743.577 263.798 752.806L308.164 797.172C297.706 815.443 289.479 835.15 283.823 855.918H221.088C208.036 855.918 197.455 866.499 197.455 879.551V965.285C197.455 978.337 208.036 988.918 221.088 988.918H283.823C289.479 1009.69 297.706 1029.39 308.164 1047.66L263.798 1092.03C254.569 1101.26 254.569 1116.22 263.798 1125.45L324.422 1186.08C333.651 1195.3 348.614 1195.3 357.843 1186.08L402.209 1141.71C420.48 1152.17 440.187 1160.39 460.955 1166.05V1228.79C460.955 1241.84 471.536 1252.42 484.588 1252.42H570.322C583.374 1252.42 593.955 1241.84 593.955 1228.79V1166.05C614.723 1160.39 634.43 1152.17 652.701 1141.71L697.067 1186.08C706.296 1195.3 721.259 1195.3 730.488 1186.08L791.112 1125.45C800.341 1116.22 800.341 1101.26 791.112 1092.03L746.746 1047.66C757.204 1029.39 765.431 1009.69 771.087 988.918H833.822C846.874 988.918 857.455 978.337 857.455 965.285V879.551C857.455 866.499 846.874 855.918 833.822 855.918ZM652.455 922.418C652.455 991.454 596.491 1047.42 527.455 1047.42C458.419 1047.42 402.455 991.454 402.455 922.418C402.455 853.382 458.419 797.418 527.455 797.418C596.491 797.418 652.455 853.382 652.455 922.418Z" fill="#84AAE4"/>
<path d="M833.822 855.918H771.087C765.431 835.15 757.204 815.443 746.746 797.172L791.112 752.806C800.341 743.577 800.341 728.614 791.112 719.385L730.488 658.761C721.259 649.532 706.296 649.532 697.067 658.761L652.701 703.127C634.43 692.669 614.723 684.442 593.955 678.786L598.955 616.051C598.955 602.999 588.374 592.418 575.322 592.418H489.588C476.536 592.418 465.955 602.999 465.955 616.051L460.955 678.786C440.187 684.442 420.48 692.669 402.209 703.127L357.843 658.761C348.614 649.532 333.651 649.532 324.422 658.761L263.798 719.385C254.569 728.614 254.569 743.577 263.798 752.806L308.164 797.172C297.706 815.443 289.479 835.15 283.823 855.918H221.088C208.036 855.918 197.455 866.499 197.455 879.551V965.285C197.455 978.337 208.036 988.918 221.088 988.918H283.823C289.479 1009.69 297.706 1029.39 308.164 1047.66L263.798 1092.03C254.569 1101.26 254.569 1116.22 263.798 1125.45L324.422 1186.08C333.651 1195.3 348.614 1195.3 357.843 1186.08L402.209 1141.71C420.48 1152.17 440.187 1160.39 460.955 1166.05V1228.79C460.955 1241.84 471.536 1252.42 484.588 1252.42H570.322C583.374 1252.42 593.955 1241.84 593.955 1228.79V1166.05C614.723 1160.39 634.43 1152.17 652.701 1141.71L697.067 1186.08C706.296 1195.3 721.259 1195.3 730.488 1186.08L791.112 1125.45C800.341 1116.22 800.341 1101.26 791.112 1092.03L746.746 1047.66C757.204 1029.39 765.431 1009.69 771.087 988.918H833.822C846.874 988.918 857.455 978.337 857.455 965.285V879.551C857.455 866.499 846.874 855.918 833.822 855.918ZM652.455 922.418C652.455 991.454 596.491 1047.42 527.455 1047.42C458.419 1047.42 402.455 991.454 402.455 922.418C402.455 853.382 458.419 797.418 527.455 797.418C596.491 797.418 652.455 853.382 652.455 922.418Z" stroke="#0626A9" stroke-width="2" stroke-miterlimit="10" stroke-linecap="round"/>
<path d="M397.238 1459.04L1206.31 1447.82L1327.61 1023.15C1330.33 1013.68 1324.85 1006 1315.38 1006H544.269C534.798 1006 524.919 1013.68 522.204 1023.15L397.238 1459.04Z" fill="#0626A9"/>
<path d="M397.238 1459.04L1206.31 1447.82L1327.61 1023.15C1330.33 1013.68 1324.85 1006 1315.38 1006H544.269C534.798 1006 524.919 1013.68 522.204 1023.15L397.238 1459.04Z" stroke="#0626A9" stroke-width="2" stroke-linecap="round" stroke-linejoin="round"/>
<path d="M382.401 1459.04H1187.81L1312.78 1023.15C1315.49 1013.68 1310.02 1006 1300.55 1006H529.432C519.961 1006 510.082 1013.68 507.367 1023.15L382.401 1459.04Z" fill="#84AAE4"/>
<path d="M382.401 1459.04H1187.81L1312.78 1023.15C1315.49 1013.68 1310.02 1006 1300.55 1006H529.432C519.961 1006 510.082 1013.68 507.367 1023.15L382.401 1459.04Z" stroke="#0626A9" stroke-width="2" stroke-linecap="round" stroke-linejoin="round"/>
<path d="M403.116 1441.62H1177.09L1296.98 1023.43H523.008L403.116 1441.62Z" fill="white"/>
<g clip-path="url(#clip1_24_22752)">
<path d="M775.597 1229.65C781.255 1229.65 787.107 1225.23 788.668 1219.79C790.23 1214.34 786.908 1209.93 781.25 1209.93C775.593 1209.93 769.74 1214.34 768.179 1219.79C766.618 1225.23 769.939 1229.65 775.597 1229.65Z" fill="#DEE1E3" stroke="#455564" stroke-miterlimit="10"/>
<path d="M1146.22 1059.16H619.058L526.357 1382.45H1053.51L1146.22 1059.16Z" fill="#455564" stroke="#455564" stroke-width="2.4"/>
<mask id="mask1_24_22752" style="mask-type:luminance" maskUnits="userSpaceOnUse" x="524" y="1212" width="580" height="172">
<path d="M1103.45 1212.31H573.555L524.353 1383.9H1054.25L1103.45 1212.31Z" fill="white"/>
</mask>
<g mask="url(#mask1_24_22752)">
<path d="M513.608 1223.02C513.608 1223.02 541.333 1270.78 653.555 1269.33H658.413C755.295 1269.33 862.373 1243.33 931.421 1238.14C947.458 1237.04 963.501 1236.53 979.492 1237.12C1084.11 1240.95 1141.58 1278.6 1141.58 1278.6L1107.95 1395.88H464.041L513.633 1222.93L513.608 1223.02Z" fill="#CDF3C3"/>
<path d="M980.873 1225.23C876.837 1225.23 780.222 1265.26 663.366 1260.07C616.172 1258.03 583.693 1246.56 561.46 1235.09C533.367 1220.64 521.857 1205.34 519.701 1201.77L515.68 1215.79C515.68 1215.79 524.465 1234.75 556.404 1249.02C577.608 1258.54 609.45 1265.76 654.308 1265.17H658.724C754.9 1265.17 856.258 1242.48 930.182 1234.15C946.975 1232.88 963.724 1232.37 980.51 1232.96C1085.04 1236.78 1142.87 1274.43 1142.87 1274.43L1144.16 1269.93L1148.64 1254.29C1148.64 1254.29 1086.7 1225.14 980.898 1225.14" fill="#CDF3C3"/>
</g>
<path d="M1050.65 1284.63H931.427L910.469 1357.72H1029.7L1050.65 1284.63Z" fill="white"/>
<path d="M639.842 1194.89L654.335 1192.08C656.111 1191.74 660.657 1190.98 661.531 1193.78C662.119 1195.74 660.233 1200.16 658.339 1202.45C655.461 1206.02 651.139 1206.61 648.721 1207.04L642.664 1208.14L638.442 1217.32L628.77 1219.02L639.842 1194.89ZM644.686 1203.56C648.237 1202.88 649.233 1202.79 650.333 1200.5L651.061 1198.88C652.331 1195.99 650.571 1196.59 647.662 1197.18L644.662 1203.64L644.686 1203.56Z" fill="white"/>
<path d="M663.016 1213.24C661.137 1213.33 658.722 1212.82 657.781 1210.86C657.318 1210.01 657.315 1208.48 658.043 1206.87L661.659 1198.88C665.436 1190.64 670.485 1188.43 677.209 1187.15L679.539 1186.73C681.692 1186.3 685.636 1185.79 687.177 1188.43C688.255 1190.21 687.493 1192.25 686.208 1194.89L682.949 1201.94C681.121 1205.85 678.517 1209.08 673.58 1211.2C671.57 1212.05 664.164 1213.24 663.104 1213.24M672.114 1195.99L668.111 1204.41C667.061 1206.53 666.68 1207.55 667.152 1208.06C667.56 1208.48 668.732 1208.4 669.561 1207.97C670.904 1207.29 671.251 1206.7 672.561 1203.98L676.612 1195.4C677.501 1193.53 678.043 1192.25 677.635 1191.83C677.203 1191.49 675.628 1191.74 675.138 1191.91C673.594 1192.68 673.174 1193.53 672.025 1195.99" fill="white"/>
<path d="M699.615 1183.24L696.173 1197.1L706.339 1181.97L715.594 1180.18L712.054 1194.38L722.407 1178.91L727.38 1177.89L709.435 1204.75L699.296 1206.53L702.193 1194.89L693.818 1207.46L683.768 1209.25L689.781 1185.2L699.615 1183.24Z" fill="white"/>
<path d="M727.757 1177.8L748.798 1173.73L746.825 1178.14L735.593 1180.35L733.126 1185.88L740.782 1184.43L738.686 1189.28L730.966 1190.64L728.079 1197.01L739.149 1195.06L736.965 1199.9L716.223 1203.56L727.757 1177.8Z" fill="white"/>
<path d="M750.461 1173.47L766.087 1170.41C771.413 1169.39 772.062 1169.9 772.601 1172.03C772.933 1173.64 771.297 1177.8 770.176 1179.25C768.394 1181.46 766.4 1182.56 764.286 1183.16C765.358 1184.35 765.129 1185.45 764.746 1187.41L763.298 1195.23L753.538 1196.93L754.854 1189.87C755.533 1185.96 755.573 1186.13 753.508 1186.56L748.412 1197.86L738.74 1199.56L750.372 1173.47H750.461ZM755.668 1181.8C760.239 1180.95 760.367 1181.12 761.612 1178.31C763.02 1175.26 761.862 1175.59 758.135 1176.27L755.668 1181.8Z" fill="white"/>
<path d="M678.172 1218.6L693.058 1215.96C695.388 1215.54 698.522 1214.77 699.904 1216.73C701.031 1218.34 700.093 1220.38 699.13 1222.51L695.192 1231.01C692.079 1237.55 689.81 1238.99 682.58 1240.18L667.125 1242.65L678.172 1218.6ZM678.673 1236.87H679.203C682.931 1236.19 683.123 1236.44 684.837 1232.62L688.824 1223.95C690.564 1220.04 690.363 1220.13 686.081 1220.89L678.786 1236.78L678.673 1236.87Z" fill="#CDF3C3"/>
<path d="M705.262 1213.75L720.815 1210.95C726.117 1210.01 726.765 1210.52 727.329 1212.56C727.685 1214.09 726.122 1218 725.026 1219.36C723.293 1221.4 721.322 1222.42 719.209 1223.02C720.305 1224.12 720.077 1225.23 719.742 1227.01L718.441 1234.32L708.729 1235.85L709.923 1229.22C710.529 1225.57 710.569 1225.74 708.529 1226.08L703.652 1236.61L694.029 1238.14L705.198 1213.67H705.286L705.262 1213.75ZM710.591 1221.66C715.137 1220.89 715.29 1220.98 716.487 1218.34C717.845 1215.45 716.688 1215.79 712.985 1216.39L710.615 1221.57L710.591 1221.66Z" fill="#CDF3C3"/>
<path d="M731.507 1209.08L741.179 1207.38L729.815 1232.54L720.192 1234.07L731.507 1209.08Z" fill="#CDF3C3"/>
<path d="M744.063 1206.87L754.113 1205.09L755.765 1219.96L763.142 1203.47L768.067 1202.62L756.492 1228.2L745.559 1229.99L744.047 1216.47L737.422 1231.26L732.61 1232.03L744.063 1206.87Z" fill="#CDF3C3"/>
<path d="M770.573 1202.2L780.358 1200.41L775.853 1210.27L790.786 1198.54L797.196 1197.44L785.096 1207.29L783.17 1223.87L773.434 1225.48L774.358 1215.79L772.82 1217.15L768.711 1226.25L759.087 1227.78L770.573 1202.2Z" fill="#CDF3C3"/>
<path d="M818.267 1083.3H756.534L750.588 1104.04H812.321L818.267 1083.3Z" fill="#CDF3C3"/>
<path d="M778.401 1192.76L800.739 1189.7C810.298 1154.52 788.94 1126.13 752.554 1126.13C716.168 1126.13 742.668 1126.73 737.872 1127.75L750.617 1083.3H729.156L705.957 1164.21C717.256 1153.75 732.099 1146.95 746.672 1146.95C771.488 1146.95 786.02 1166.5 779.099 1190.64L778.514 1192.68L778.401 1192.76Z" fill="#CDF3C3"/>
<path fill-rule="evenodd" clip-rule="evenodd" d="M663.223 1170.33C662.955 1171.26 661.941 1172.03 660.969 1172.03C659.998 1172.03 659.422 1171.26 659.69 1170.33C659.958 1169.39 660.973 1168.63 661.944 1168.63C662.916 1168.63 663.491 1169.39 663.223 1170.33Z" fill="#CDF3C3"/>
<path fill-rule="evenodd" clip-rule="evenodd" d="M645.75 1231.26C645.507 1232.11 644.581 1232.88 643.609 1232.88C642.638 1232.88 642.126 1232.2 642.394 1231.26C642.662 1230.33 643.564 1229.65 644.535 1229.65C645.507 1229.65 646.018 1230.33 645.75 1231.26Z" fill="#CDF3C3"/>
<path fill-rule="evenodd" clip-rule="evenodd" d="M672.919 1178.4C672.529 1179.76 671.088 1180.78 669.763 1180.78C668.439 1180.78 667.607 1179.67 667.973 1178.4C668.338 1177.12 669.803 1176.02 671.128 1176.02C672.453 1176.02 673.284 1177.12 672.919 1178.4Z" fill="#CDF3C3"/>
<path fill-rule="evenodd" clip-rule="evenodd" d="M652.818 1242.65C652.306 1244.43 650.391 1245.88 648.536 1245.88C646.682 1245.88 645.594 1244.43 646.106 1242.65C646.618 1240.86 648.534 1239.42 650.388 1239.42C652.243 1239.42 653.33 1240.86 652.818 1242.65Z" fill="#CDF3C3"/>
<path fill-rule="evenodd" clip-rule="evenodd" d="M662.863 1225.48C662.448 1226.93 660.871 1228.12 659.369 1228.12C657.868 1228.12 656.973 1226.93 657.387 1225.48C657.801 1224.04 659.379 1222.85 660.88 1222.85C662.382 1222.85 663.277 1224.04 662.863 1225.48Z" fill="#CDF3C3"/>
<path fill-rule="evenodd" clip-rule="evenodd" d="M676.31 1160.72C676.066 1161.57 675.14 1162.34 674.169 1162.34C673.197 1162.34 672.686 1161.66 672.954 1160.72C673.222 1159.79 674.124 1159.11 675.095 1159.11C676.066 1159.11 676.578 1159.79 676.31 1160.72Z" fill="#CDF3C3"/>
<path d="M620.332 1337.15C615.033 1337.15 609.624 1341.23 608.186 1346.25C606.749 1351.26 607.711 1349.14 608.052 1350.41L608.003 1350.58H612.154L611.795 1349.99C611.229 1348.88 611.153 1347.61 611.542 1346.25C612.493 1342.93 616.099 1340.21 619.455 1340.21C622.811 1340.21 624.857 1342.93 623.907 1346.25C622.956 1349.56 622.685 1348.97 621.51 1349.99L620.809 1350.58H624.872L624.92 1350.41C626.081 1349.14 626.848 1347.69 627.263 1346.25C628.7 1341.23 625.543 1337.15 620.332 1337.15Z" fill="#455564"/>
<path d="M620.746 1335.71C624.367 1335.71 628.171 1333.84 630.638 1330.78L631.049 1330.27H627.163L627.114 1330.44C625.464 1331.88 623.454 1332.73 621.511 1332.73C619.568 1332.73 618.133 1331.88 617.311 1330.44L617.36 1330.27H613.386L613.504 1330.78C614.305 1333.84 617.037 1335.71 620.569 1335.71H620.746Z" fill="#455564"/>
<path d="M597.425 1330.18H585.414L579.541 1350.67H582.632L585.167 1341.83H591.525L592.378 1338.85H586.019L587.652 1333.16H596.572L597.425 1330.18Z" fill="#455564"/>
<path d="M598.636 1347.52L603.607 1330.18H600.428L594.579 1350.58H604.647L605.524 1347.52H598.636Z" fill="#455564"/>
<path d="M643.958 1340.38L643.831 1335.28L637.663 1345.4L636.991 1330.18H633.547L634.499 1350.58H637.855L643.87 1340.38H643.958ZM637.639 1345.48H637.285C637.261 1345.57 637.639 1345.48 637.639 1345.48Z" fill="#455564"/>
<path d="M658.452 1330.18L649.056 1345.4L648.35 1333.07H645.347L645.891 1350.58H649.335L661.896 1330.18H658.452Z" fill="#455564"/>
<path d="M571.98 1337.92H571.716L573.634 1333.07H578.58L579.409 1330.18H571.725L567.555 1340.72H570.558C574.709 1340.72 574.346 1343.53 574.078 1344.46C573.493 1346.5 571.377 1348.03 569.169 1348.03C566.961 1348.03 566.248 1347.44 565.137 1346.08L564.753 1345.57L563.657 1349.39H563.833C564.521 1350.07 566.02 1351.01 568.404 1351.01C572.555 1351.01 576.137 1348.37 577.258 1344.46C578.379 1340.55 576.308 1337.92 571.98 1337.92Z" fill="#455564"/>
<path d="M583.913 1330.18H580.91L580.082 1333.07H583.084L583.913 1330.18Z" fill="#455564"/>
<path d="M1037.22 1107.86H907.135" stroke="#CDF3C3" stroke-width="2" stroke-linecap="round" stroke-linejoin="round"/>
<path d="M1086.26 1129.96H900.799" stroke="#CDF3C3" stroke-width="2" stroke-linecap="round" stroke-linejoin="round"/>
<path d="M1080.49 1150.1H895.023" stroke="#CDF3C3" stroke-width="2" stroke-linecap="round" stroke-linejoin="round"/>
<path d="M1073.88 1173.13H888.419" stroke="#CDF3C3" stroke-width="2" stroke-linecap="round" stroke-linejoin="round"/>
<path d="M961.3 1196.16H881.815" stroke="#CDF3C3" stroke-width="2" stroke-linecap="round" stroke-linejoin="round"/>
<path d="M1072.71 1084.83H913.739" stroke="#CDF3C3" stroke-width="2" stroke-linecap="round" stroke-linejoin="round"/>
<path d="M901.266 1286.33H821.781" stroke="#415463" stroke-linecap="round" stroke-linejoin="round"/>
<path d="M897.123 1300.78H817.639" stroke="#415463" stroke-linecap="round" stroke-linejoin="round"/>
<path d="M893.004 1315.14H813.52" stroke="#415463" stroke-linecap="round" stroke-linejoin="round"/>
<path d="M842.93 1351.18H803.188" stroke="#415463" stroke-linecap="round" stroke-linejoin="round"/>
<path d="M1004.38 1294.15L993.419 1332.39" stroke="black" stroke-width="2" stroke-linecap="round" stroke-linejoin="round"/>
<path d="M950.953 1294.15L939.987 1332.39" stroke="black" stroke-width="3" stroke-linecap="round" stroke-linejoin="round"/>
<path d="M956.871 1294.15L945.905 1332.39" stroke="black" stroke-width="3" stroke-linecap="round" stroke-linejoin="round"/>
<path d="M963.671 1294.15L952.705 1332.39" stroke="black" stroke-width="3" stroke-linecap="round" stroke-linejoin="round"/>
<path d="M969.588 1294.15L958.622 1332.39" stroke="black" stroke-width="3" stroke-linecap="round" stroke-linejoin="round"/>
<path d="M975.947 1294.15L964.981 1332.39" stroke="black" stroke-width="3" stroke-linecap="round" stroke-linejoin="round"/>
<path d="M998.379 1294.15L987.413 1332.39" stroke="black" stroke-width="3" stroke-linecap="round" stroke-linejoin="round"/>
<path d="M1011.1 1294.15L1000.13 1332.39" stroke="black" stroke-width="3" stroke-linecap="round" stroke-linejoin="round"/>
<path d="M1017.1 1294.15L1006.14 1332.39" stroke="black" stroke-width="3" stroke-linecap="round" stroke-linejoin="round"/>
<path d="M1023.46 1294.15L1012.49 1332.39" stroke="black" stroke-width="3" stroke-linecap="round" stroke-linejoin="round"/>
<path d="M944.57 1294.24L929.949 1345.23" stroke="black" stroke-width="3" stroke-linecap="round" stroke-linejoin="round"/>
<path d="M937.063 1294.24L922.442 1345.23" stroke="black" stroke-width="3" stroke-linecap="round" stroke-linejoin="round"/>
<path d="M991.731 1294.24L977.11 1345.23" stroke="black" stroke-width="3" stroke-linecap="round" stroke-linejoin="round"/>
<path d="M984.225 1294.24L969.603 1345.23" stroke="black" stroke-width="3" stroke-linecap="round" stroke-linejoin="round"/>
<path d="M1039.25 1294.24L1024.62 1345.23" stroke="black" stroke-width="3" stroke-linecap="round" stroke-linejoin="round"/>
<path d="M1031.74 1294.24L1017.12 1345.23" stroke="black" stroke-width="3" stroke-linecap="round" stroke-linejoin="round"/>
<path d="M576.55 1315.82H579.553C579.906 1315.82 580.878 1315.82 581.036 1316.5C581.179 1316.93 580.646 1317.86 580.348 1318.29C579.711 1318.97 578.828 1318.97 578.386 1318.97H577.15L576.261 1320.84H574.229L576.575 1315.74L576.55 1315.82ZM577.506 1318.03C578.213 1318.03 578.478 1318.03 578.688 1317.61L578.785 1317.27C579.133 1316.67 578.755 1316.76 578.137 1316.76L577.482 1318.12L577.506 1318.03Z" fill="#455564"/>
<path d="M581.447 1320.92C581.005 1320.92 580.549 1320.67 580.342 1320.16C580.214 1319.99 580.247 1319.56 580.409 1319.31L581.137 1317.69C581.977 1315.99 582.933 1315.74 584.347 1315.74H584.788C585.23 1315.74 586.025 1315.74 586.359 1316.42C586.591 1316.84 586.381 1317.27 586.146 1317.78L585.467 1319.22C585.071 1319.99 584.547 1320.58 583.478 1320.92C583.101 1321.01 581.535 1320.92 581.359 1320.92M583.329 1317.44L582.489 1319.14L582.269 1319.9C582.245 1319.99 582.574 1320.07 582.799 1319.9C583.088 1319.82 583.137 1319.65 583.46 1319.14L584.301 1317.44L584.52 1316.67C584.544 1316.59 584.103 1316.59 583.99 1316.67C583.701 1316.76 583.564 1316.93 583.329 1317.44Z" fill="#455564"/>
<path d="M589.091 1315.82L588.351 1318.71L590.504 1315.82H592.359L591.618 1318.71L593.772 1315.82H594.831L591.097 1320.84H589.066L589.66 1318.46L587.918 1320.84H585.798L587.06 1315.82H589.091Z" fill="#455564"/>
<path d="M595.008 1315.82H599.336L598.915 1316.67H596.619L596.126 1317.78H597.715L597.271 1318.71H595.681L595.075 1319.9H597.371L596.926 1320.84H592.687L595.008 1315.82Z" fill="#455564"/>
<path d="M599.778 1315.82H602.957C604.017 1315.82 604.145 1315.99 604.288 1316.42C604.367 1316.76 603.947 1317.61 603.873 1317.86C603.487 1318.29 603.109 1318.37 602.643 1318.46C602.835 1318.71 602.85 1318.97 602.728 1319.39L602.466 1320.92H600.435L600.673 1319.48C600.804 1318.71 600.892 1318.71 600.362 1318.71L599.287 1320.92H597.256L599.601 1315.82H599.778ZM600.895 1317.78C601.513 1317.78 601.915 1317.61 602.101 1317.27C602.36 1316.67 602.183 1316.67 601.389 1316.67L600.895 1317.78Z" fill="#455564"/>
<path d="M605.253 1315.82H609.581L609.16 1316.67H606.864L606.371 1317.78H607.96L607.516 1318.71H605.926L605.408 1319.9H607.616L607.26 1320.84H602.932L605.253 1315.82Z" fill="#455564"/>
<path d="M610.022 1315.82H613.113C613.555 1315.82 614.261 1315.82 614.493 1316.25C614.724 1316.67 614.514 1317.1 614.304 1317.52L613.439 1319.31C612.784 1320.67 612.269 1320.92 610.768 1320.92H607.589L609.934 1315.82H610.022ZM610.153 1319.99H610.241C610.771 1319.99 611.197 1319.73 611.408 1319.31L612.273 1317.52C612.693 1316.67 612.58 1316.76 611.697 1316.76L610.129 1320.07L610.153 1319.99Z" fill="#455564"/>
<path d="M620.531 1315.82C620.973 1315.82 621.503 1315.82 621.71 1316.33C621.877 1316.67 621.667 1317.1 621.393 1317.44C620.982 1317.95 620.403 1318.12 619.937 1318.2C620.266 1318.29 620.394 1318.46 620.473 1318.8C620.553 1319.14 620.181 1319.82 619.907 1320.16C619.27 1320.84 618.387 1320.84 617.857 1320.84H614.59L616.935 1315.74H620.556L620.531 1315.82ZM617.306 1319.99C617.748 1319.99 618.101 1319.99 618.262 1319.73C618.262 1319.73 618.683 1318.88 618.619 1318.8C618.579 1318.63 618.403 1318.63 617.873 1318.63L617.218 1319.99H617.306ZM618.317 1317.69C618.936 1317.69 619.112 1317.69 619.362 1317.44C619.362 1317.44 619.685 1316.93 619.533 1316.84C619.493 1316.67 619.228 1316.67 618.786 1316.67L618.293 1317.78L618.317 1317.69Z" fill="#455564"/>
<path d="M622.298 1315.82H624.241L624.21 1317.78L626.095 1315.82H627.244L624.021 1319.05L623.245 1320.84H621.213L622.176 1318.71L622.298 1315.82Z" fill="#455564"/>
</g>
<path d="M403.116 1441.62H1177.09L1296.98 1023.43H523.008L403.116 1441.62Z" stroke="#0626A9" stroke-width="2" stroke-linecap="round" stroke-linejoin="round"/>
<path d="M204.551 1461.32H1176.46L1198.43 1434.96H178.192C178.192 1449.52 189.994 1461.32 204.551 1461.32Z" fill="#84AAE4"/>
<path d="M204.551 1461.32H1176.46L1198.43 1434.96H178.192C178.192 1449.52 189.994 1461.32 204.551 1461.32Z" stroke="#0626A9" stroke-width="2" stroke-linecap="round" stroke-linejoin="round"/>
<path d="M869.332 1461.83H1192.04C1198.24 1461.83 1203.67 1457.66 1205.25 1451.67L1209.54 1435.47H842.973C842.973 1450.03 854.775 1461.83 869.332 1461.83Z" fill="#0626A9"/>
<path d="M869.332 1461.83H1192.04C1198.24 1461.83 1203.67 1457.66 1205.25 1451.67L1209.54 1435.47H842.973C842.973 1450.03 854.775 1461.83 869.332 1461.83Z" stroke="#0626A9" stroke-width="2" stroke-linecap="round" stroke-linejoin="round"/>
<path d="M130.986 1461.83H1469.01" stroke="#0626A9" stroke-width="2" stroke-miterlimit="10"/>
<path d="M248.376 700.921C248.376 690.233 239.712 681.569 229.024 681.569C218.336 681.569 209.672 690.233 209.672 700.921C209.672 711.609 218.336 720.274 229.024 720.274C239.712 720.274 248.376 711.609 248.376 700.921Z" stroke="#0626A9" stroke-width="2" stroke-miterlimit="10"/>
<path d="M255.414 621.276C255.414 614.526 249.942 609.053 243.192 609.053C236.442 609.053 230.969 614.526 230.969 621.276C230.969 628.026 236.442 633.498 243.192 633.498C249.942 633.498 255.414 628.026 255.414 621.276Z" fill="#84AAE4"/>
<path d="M255.414 621.276C255.414 614.526 249.942 609.053 243.192 609.053C236.442 609.053 230.969 614.526 230.969 621.276C230.969 628.026 236.442 633.498 243.192 633.498C249.942 633.498 255.414 628.026 255.414 621.276Z" stroke="#0626A9" stroke-width="2" stroke-miterlimit="10"/>
<path d="M270.98 574.175C270.98 568.692 266.536 564.248 261.053 564.248C255.57 564.248 251.126 568.692 251.126 574.175C251.126 579.658 255.57 584.102 261.053 584.102C266.536 584.102 270.98 579.658 270.98 574.175Z" stroke="#0626A9" stroke-width="2" stroke-miterlimit="10"/>
<path d="M1401.06 974.902C1401.06 964.214 1392.4 955.55 1381.71 955.55C1371.02 955.55 1362.36 964.214 1362.36 974.902C1362.36 985.59 1371.02 994.255 1381.71 994.255C1392.4 994.255 1401.06 985.59 1401.06 974.902Z" stroke="#0626A9" stroke-width="2" stroke-miterlimit="10"/>
<path d="M1294.82 928.33C1294.82 922.568 1290.15 917.898 1284.39 917.898C1278.63 917.898 1273.96 922.568 1273.96 928.33C1273.96 934.092 1278.63 938.763 1284.39 938.763C1290.15 938.763 1294.82 934.092 1294.82 928.33Z" fill="#84AAE4"/>
<path d="M1294.82 928.33C1294.82 922.568 1290.15 917.898 1284.39 917.898C1278.63 917.898 1273.96 922.568 1273.96 928.33C1273.96 934.092 1278.63 938.763 1284.39 938.763C1290.15 938.763 1294.82 934.092 1294.82 928.33Z" stroke="#0626A9" stroke-width="2" stroke-miterlimit="10"/>
<path d="M1355.08 867.004C1355.08 861.521 1350.63 857.076 1345.15 857.076C1339.67 857.076 1335.22 861.521 1335.22 867.004C1335.22 872.487 1339.67 876.931 1345.15 876.931C1350.63 876.931 1355.08 872.487 1355.08 867.004Z" stroke="#0626A9" stroke-width="2" stroke-miterlimit="10"/>
<path d="M1111.82 151.484C1111.82 144.554 1106.2 138.936 1099.27 138.936C1092.34 138.936 1086.72 144.554 1086.72 151.484C1086.72 158.414 1092.34 164.033 1099.27 164.033C1106.2 164.033 1111.82 158.414 1111.82 151.484Z" stroke="#0626A9" stroke-width="2" stroke-miterlimit="10"/>
<path d="M1142.06 203.411C1142.06 198.696 1138.24 194.873 1133.52 194.873C1128.81 194.873 1124.99 198.696 1124.99 203.411C1124.99 208.126 1128.81 211.949 1133.52 211.949C1138.24 211.949 1142.06 208.126 1142.06 203.411Z" stroke="#0626A9" stroke-width="2" stroke-miterlimit="10"/>
<path d="M569.431 1120.2C569.431 1120.2 529.241 1120.2 484.412 1120.2" stroke="#0626A9" stroke-width="2" stroke-miterlimit="10"/>
<path d="M452.529 1120.2C406.298 1120.2 363.971 1120.2 363.971 1120.2C363.971 1120.2 363.971 1084.05 363.971 1028.1" stroke="#0626A9" stroke-width="2" stroke-miterlimit="10"/>
<path d="M363.971 985.589C363.971 910.182 363.971 812.855 363.971 719.893" stroke="#0626A9" stroke-width="2" stroke-miterlimit="10"/>
<path d="M363.971 624.246C363.971 538.767 363.971 466.577 363.971 432.948" stroke="#0626A9" stroke-width="2" stroke-miterlimit="10"/>
<path d="M386.22 412.694C427.94 412.694 513.751 412.694 513.751 412.694" stroke="#0626A9" stroke-width="2" stroke-miterlimit="10"/>
<path d="M585.586 1120.19C585.586 1129.12 578.353 1136.35 569.43 1136.35C560.507 1136.35 553.274 1129.12 553.274 1120.19C553.274 1111.27 560.507 1104.04 569.43 1104.04C578.353 1104.04 585.586 1111.27 585.586 1120.19Z" fill="#84AAE4"/>
<path d="M585.586 1120.19C585.586 1129.12 578.353 1136.35 569.43 1136.35C560.507 1136.35 553.274 1129.12 553.274 1120.19C553.274 1111.27 560.507 1104.04 569.43 1104.04C578.353 1104.04 585.586 1111.27 585.586 1120.19Z" stroke="#0626A9" stroke-width="2" stroke-miterlimit="10"/>
<path d="M1162 1074C1162 1074 1162 1041.68 1162 995.604" stroke="#0626A9" stroke-width="2"/>
<path d="M1162 960.321C1162 921.162 1162 876.646 1162 834.878" stroke="#0626A9" stroke-width="2"/>
<path d="M1162 768.237C1162 744.81 1162 724.47 1162 709.437" stroke="#0626A9" stroke-width="2"/>
<path d="M1177.31 1074.73C1177.31 1083.65 1170.08 1090.89 1161.15 1090.89C1152.23 1090.89 1145 1083.65 1145 1074.73C1145 1065.81 1152.23 1058.57 1161.15 1058.57C1170.08 1058.57 1177.31 1065.81 1177.31 1074.73Z" fill="#84AAE4"/>
<path d="M1177.31 1074.73C1177.31 1083.65 1170.08 1090.89 1161.15 1090.89C1152.23 1090.89 1145 1083.65 1145 1074.73C1145 1065.81 1152.23 1058.57 1161.15 1058.57C1170.08 1058.57 1177.31 1065.81 1177.31 1074.73Z" stroke="#0626A9" stroke-width="2" stroke-miterlimit="10"/>
<path d="M1338.9 741.275H1016.52V459.522H1338.9V741.275Z" fill="white"/>
<path d="M1338.9 741.275H1016.52V459.522H1338.9V741.275Z" stroke="#0626A9" stroke-width="2" stroke-miterlimit="10"/>
<path d="M1270.63 612.732C1270.63 615.482 1270.52 618.202 1270.29 620.892C1270.27 621.082 1270.26 621.262 1270.24 621.452V621.462C1269.08 634.802 1265.27 647.382 1259.33 658.662C1251.13 674.262 1238.89 687.412 1223.98 696.692C1208.83 706.152 1190.92 711.612 1171.74 711.612C1169.19 711.612 1166.66 711.512 1164.15 711.322C1161.58 711.132 1159.02 710.842 1156.5 710.432L1156.31 710.412C1156.3 710.412 1156.29 710.402 1156.28 710.402C1148.89 709.252 1141.77 707.272 1135.02 704.562C1098.59 689.992 1072.86 654.362 1072.86 612.732C1072.86 604.442 1073.88 596.392 1075.8 588.702C1077.18 583.202 1079.01 577.882 1081.27 572.792C1091.81 548.932 1111.52 530.032 1135.92 520.542C1147.02 516.222 1159.1 513.852 1171.74 513.852C1188.11 513.852 1203.55 517.832 1217.15 524.882C1219.47 526.082 1221.74 527.372 1223.95 528.762H1223.96C1251.98 546.202 1270.63 577.292 1270.63 612.732Z" stroke="#0626A9" stroke-width="2" stroke-miterlimit="10"/>
<mask id="mask2_24_22752" style="mask-type:alpha" maskUnits="userSpaceOnUse" x="1072" y="513" width="199" height="199">
<path d="M1270.63 612.732C1270.63 615.482 1270.52 618.202 1270.29 620.892C1270.27 621.082 1270.26 621.262 1270.24 621.452V621.462C1269.08 634.802 1265.27 647.382 1259.33 658.662C1251.13 674.262 1238.89 687.412 1223.98 696.692C1208.83 706.152 1190.92 711.612 1171.74 711.612C1169.19 711.612 1166.66 711.512 1164.15 711.322C1161.58 711.132 1159.02 710.842 1156.5 710.432L1156.31 710.412C1156.3 710.412 1156.29 710.402 1156.28 710.402C1148.89 709.252 1141.77 707.272 1135.02 704.562C1098.59 689.992 1072.86 654.362 1072.86 612.732C1072.86 604.442 1073.88 596.392 1075.8 588.702C1077.18 583.202 1079.01 577.882 1081.27 572.792C1091.81 548.932 1111.52 530.032 1135.92 520.542C1147.02 516.222 1159.1 513.852 1171.74 513.852C1188.11 513.852 1203.55 517.832 1217.15 524.882C1219.47 526.082 1221.74 527.372 1223.95 528.762H1223.96C1251.98 546.202 1270.63 577.292 1270.63 612.732Z" fill="#8484FA"/>
</mask>
<g mask="url(#mask2_24_22752)">
<path d="M1223.96 528.762H1223.95C1186.7 521.712 1144.75 535.472 1120.4 558.512C1101.5 576.402 1128.96 584.197 1179.95 601.948C1218.07 615.219 1218.89 656.39 1231.46 636.812C1273.97 570.606 1271.02 627.585 1284.42 628.206C1304.5 629.137 1305.31 553.31 1305.31 550.56C1305.31 515.12 1251.98 546.202 1223.96 528.762Z" fill="#84AAE4"/>
<path d="M1155.67 683.547C1152.92 649.734 1191.53 659.829 1184.75 639.5C1180.54 626.885 1139.57 617.455 1108.51 617.195C1071.12 616.885 1097.77 662.074 1117.97 679.376C1158.77 714.324 1149.62 723.722 1162.24 732.894C1164.09 734.24 1166.32 734.959 1168.61 735.028C1178.59 735.331 1184.29 723.751 1177.97 716.021C1168.66 704.638 1157.64 707.829 1155.67 683.547Z" fill="#84AAE4"/>
<path d="M1112.34 601.736C1117.91 589.659 1094.48 554.749 1072.01 533.308C1044.95 507.5 1033.46 558.687 1036.36 585.127C1042.2 638.531 1029.1 639.124 1032.02 654.444C1032.45 656.693 1033.59 658.745 1035.21 660.361C1042.29 667.412 1054.37 662.868 1055.04 652.903C1056.04 638.23 1045.82 633.022 1061 613.961C1082.12 587.418 1103.38 621.199 1112.34 601.736Z" fill="#84AAE4"/>
<path d="M1222.87 696.536C1274.54 711.501 1289.52 703.593 1259.33 658.662C1245.79 638.506 1181.88 684.664 1222.87 696.536Z" fill="#84AAE4"/>
<path d="M1184.47 694.874C1178.49 694.874 1182.63 707.607 1184.75 713.227C1185.35 714.803 1186.86 715.84 1188.54 715.84C1190.97 715.84 1192.86 713.731 1192.57 711.323C1191.85 705.16 1189.84 694.874 1184.47 694.874Z" fill="#84AAE4"/>
</g>
<path d="M1270.63 612.732C1270.63 615.482 1270.52 618.202 1270.29 620.892C1270.27 621.082 1270.26 621.262 1270.24 621.452V621.462C1269.08 634.802 1265.27 647.382 1259.33 658.662C1251.13 674.262 1238.89 687.412 1223.98 696.692C1208.83 706.152 1190.92 711.612 1171.74 711.612C1169.19 711.612 1166.66 711.512 1164.15 711.322C1161.58 711.132 1159.02 710.842 1156.5 710.432L1156.31 710.412C1156.3 710.412 1156.29 710.402 1156.28 710.402C1148.89 709.252 1141.77 707.272 1135.02 704.562C1098.59 689.992 1072.86 654.362 1072.86 612.732C1072.86 604.442 1073.88 596.392 1075.8 588.702C1077.18 583.202 1079.01 577.882 1081.27 572.792C1091.81 548.932 1111.52 530.032 1135.92 520.542C1147.02 516.222 1159.1 513.852 1171.74 513.852C1188.11 513.852 1203.55 517.832 1217.15 524.882C1219.47 526.082 1221.74 527.372 1223.95 528.762H1223.96C1251.98 546.202 1270.63 577.292 1270.63 612.732Z" stroke="#0626A9" stroke-width="2" stroke-miterlimit="10"/>
</g>
<g clip-path="url(#clip2_24_22752)">
<g clip-path="url(#clip3_24_22752)">
<path d="M684.37 504.37H474V294H684.37V504.37Z" fill="#84AAE4"/>
<path d="M684.37 504.37H474V294H684.37V504.37Z" stroke="#0626A9" stroke-width="2" stroke-linecap="round" stroke-linejoin="round"/>
<path d="M671.926 438H486.444V306.444H671.926V438Z" fill="white"/>
<path d="M671.926 438H486.444V306.444H671.926V438Z" stroke="#0626A9" stroke-width="2" stroke-linecap="round" stroke-linejoin="round"/>
<mask id="mask3_24_22752" style="mask-type:alpha" maskUnits="userSpaceOnUse" x="485" y="305" width="188" height="134">
<path d="M671.926 438H486.444V306.444H671.926V438Z" fill="white"/>
<path d="M671.926 438H486.444V306.444H671.926V438Z" stroke="#202870" stroke-width="2" stroke-linecap="round" stroke-linejoin="round"/>
</mask>
<g mask="url(#mask3_24_22752)">
<path d="M857.407 372.469V437.999H486.447V372.469C499.507 366.189 513.757 367.109 528.607 368.619C538.187 369.599 547.657 372.329 556.537 376.019C565.327 379.669 573.297 384.939 582.127 388.499C598.997 395.309 616.947 394.959 633.937 388.699C646.867 383.929 659.307 377.989 671.927 372.469C684.987 366.189 699.237 367.109 714.087 368.619C723.667 369.599 733.137 372.329 742.017 376.019C750.807 379.669 758.777 384.939 767.607 388.499C784.477 395.309 802.427 394.959 819.417 388.699C832.347 383.929 844.787 377.989 857.407 372.469Z" fill="#8869D5"/>
<path d="M857.407 372.469V437.999H486.447V372.469C499.507 366.189 513.757 367.109 528.607 368.619C538.187 369.599 547.657 372.329 556.537 376.019C565.327 379.669 573.297 384.939 582.127 388.499C598.997 395.309 616.947 394.959 633.937 388.699C646.867 383.929 659.307 377.989 671.927 372.469C684.987 366.189 699.237 367.109 714.087 368.619C723.667 369.599 733.137 372.329 742.017 376.019C750.807 379.669 758.777 384.939 767.607 388.499C784.477 395.309 802.427 394.959 819.417 388.699C832.347 383.929 844.787 377.989 857.407 372.469Z" stroke="#0626A9" stroke-width="2" stroke-linecap="round" stroke-linejoin="round"/>
</g>
<path d="M671.926 438H486.444V306.444H671.926V438Z" stroke="#0626A9" stroke-width="2" stroke-linecap="round" stroke-linejoin="round"/>
<path d="M518.148 471.185C518.148 479.94 511.051 487.037 502.296 487.037C493.541 487.037 486.444 479.94 486.444 471.185C486.444 462.43 493.541 455.333 502.296 455.333C511.051 455.333 518.148 462.43 518.148 471.185Z" fill="white"/>
<path d="M518.148 471.185C518.148 479.94 511.051 487.037 502.296 487.037C493.541 487.037 486.444 479.94 486.444 471.185C486.444 462.43 493.541 455.333 502.296 455.333C511.051 455.333 518.148 462.43 518.148 471.185Z" stroke="#0626A9" stroke-width="2" stroke-linecap="round" stroke-linejoin="round"/>
<path d="M530.297 471.185H613.258" stroke="#0626A9" stroke-width="2" stroke-linecap="round" stroke-linejoin="round"/>
</g>
</g>
</g>
<defs>
<clipPath id="clip0_24_22752">
<rect width="1600" height="1600" fill="white"/>
</clipPath>
<clipPath id="clip1_24_22752">
<rect width="644" height="415" fill="white" transform="matrix(1 0 -0.275637 0.961262 570.39 1025)"/>
</clipPath>
<clipPath id="clip2_24_22752">
<rect width="237" height="242" fill="white" transform="translate(473 293)"/>
</clipPath>
<clipPath id="clip3_24_22752">
<rect width="466.37" height="477.383" fill="white" transform="translate(474 294)"/>
</clipPath>
</defs>
</svg>
