<svg width="1600" height="1600" viewBox="0 0 1600 1600" fill="none" xmlns="http://www.w3.org/2000/svg">
<g clip-path="url(#clip0_2_9143)">
<mask id="mask0_2_9143" style="mask-type:luminance" maskUnits="userSpaceOnUse" x="0" y="0" width="1600" height="1600">
<path d="M1600 0H0V1600H1600V0Z" fill="white"/>
</mask>
<g mask="url(#mask0_2_9143)">
<mask id="mask1_2_9143" style="mask-type:luminance" maskUnits="userSpaceOnUse" x="0" y="0" width="1600" height="1600">
<path d="M1600 0H0V1600H1600V0Z" fill="white"/>
</mask>
<g mask="url(#mask1_2_9143)">
<path d="M833.822 855.918H771.087C765.431 835.15 757.204 815.443 746.746 797.172L791.112 752.806C800.341 743.577 800.341 728.614 791.112 719.385L730.488 658.761C721.259 649.532 706.296 649.532 697.067 658.761L652.701 703.127C634.43 692.669 614.723 684.442 593.955 678.786L598.955 616.051C598.955 602.999 588.374 592.418 575.322 592.418H489.588C476.536 592.418 465.955 602.999 465.955 616.051L460.955 678.786C440.187 684.442 420.48 692.669 402.209 703.127L357.843 658.761C348.614 649.532 333.651 649.532 324.422 658.761L263.798 719.385C254.569 728.614 254.569 743.577 263.798 752.806L308.164 797.172C297.706 815.443 289.479 835.15 283.823 855.918H221.088C208.036 855.918 197.455 866.499 197.455 879.551V965.285C197.455 978.337 208.036 988.918 221.088 988.918H283.823C289.479 1009.69 297.706 1029.39 308.164 1047.66L263.798 1092.03C254.569 1101.26 254.569 1116.22 263.798 1125.45L324.422 1186.08C333.651 1195.3 348.614 1195.3 357.843 1186.08L402.209 1141.71C420.48 1152.17 440.187 1160.39 460.955 1166.05V1228.79C460.955 1241.84 471.536 1252.42 484.588 1252.42H570.322C583.374 1252.42 593.955 1241.84 593.955 1228.79V1166.05C614.723 1160.39 634.43 1152.17 652.701 1141.71L697.067 1186.08C706.296 1195.3 721.259 1195.3 730.488 1186.08L791.112 1125.45C800.341 1116.22 800.341 1101.26 791.112 1092.03L746.746 1047.66C757.204 1029.39 765.431 1009.69 771.087 988.918H833.822C846.874 988.918 857.455 978.337 857.455 965.285V879.551C857.455 866.499 846.874 855.918 833.822 855.918ZM652.455 922.418C652.455 991.454 596.491 1047.42 527.455 1047.42C458.419 1047.42 402.455 991.454 402.455 922.418C402.455 853.382 458.419 797.418 527.455 797.418C596.491 797.418 652.455 853.382 652.455 922.418Z" fill="#84AAE4"/>
<path d="M833.822 855.918H771.087C765.431 835.15 757.204 815.443 746.746 797.172L791.112 752.806C800.341 743.577 800.341 728.614 791.112 719.385L730.488 658.761C721.259 649.532 706.296 649.532 697.067 658.761L652.701 703.127C634.43 692.669 614.723 684.442 593.955 678.786L598.955 616.051C598.955 602.999 588.374 592.418 575.322 592.418H489.588C476.536 592.418 465.955 602.999 465.955 616.051L460.955 678.786C440.187 684.442 420.48 692.669 402.209 703.127L357.843 658.761C348.614 649.532 333.651 649.532 324.422 658.761L263.798 719.385C254.569 728.614 254.569 743.577 263.798 752.806L308.164 797.172C297.706 815.443 289.479 835.15 283.823 855.918H221.088C208.036 855.918 197.455 866.499 197.455 879.551V965.285C197.455 978.337 208.036 988.918 221.088 988.918H283.823C289.479 1009.69 297.706 1029.39 308.164 1047.66L263.798 1092.03C254.569 1101.26 254.569 1116.22 263.798 1125.45L324.422 1186.08C333.651 1195.3 348.614 1195.3 357.843 1186.08L402.209 1141.71C420.48 1152.17 440.187 1160.39 460.955 1166.05V1228.79C460.955 1241.84 471.536 1252.42 484.588 1252.42H570.322C583.374 1252.42 593.955 1241.84 593.955 1228.79V1166.05C614.723 1160.39 634.43 1152.17 652.701 1141.71L697.067 1186.08C706.296 1195.3 721.259 1195.3 730.488 1186.08L791.112 1125.45C800.341 1116.22 800.341 1101.26 791.112 1092.03L746.746 1047.66C757.204 1029.39 765.431 1009.69 771.087 988.918H833.822C846.874 988.918 857.455 978.337 857.455 965.285V879.551C857.455 866.499 846.874 855.918 833.822 855.918ZM652.455 922.418C652.455 991.454 596.491 1047.42 527.455 1047.42C458.419 1047.42 402.455 991.454 402.455 922.418C402.455 853.382 458.419 797.418 527.455 797.418C596.491 797.418 652.455 853.382 652.455 922.418Z" stroke="#0626A9" stroke-width="2" stroke-miterlimit="10" stroke-linecap="round"/>
<path d="M397.238 1459.04L1206.31 1447.82L1327.61 1023.15C1330.33 1013.68 1324.85 1006 1315.38 1006H544.269C534.798 1006 524.919 1013.68 522.204 1023.15L397.238 1459.04Z" fill="#0626A9"/>
<path d="M397.238 1459.04L1206.31 1447.82L1327.61 1023.15C1330.33 1013.68 1324.85 1006 1315.38 1006H544.269C534.798 1006 524.919 1013.68 522.204 1023.15L397.238 1459.04Z" stroke="#0626A9" stroke-width="2" stroke-linecap="round" stroke-linejoin="round"/>
<path d="M382.401 1459.04H1187.81L1312.78 1023.15C1315.49 1013.68 1310.02 1006 1300.55 1006H529.432C519.961 1006 510.082 1013.68 507.367 1023.15L382.401 1459.04Z" fill="#84AAE4"/>
<path d="M382.401 1459.04H1187.81L1312.78 1023.15C1315.49 1013.68 1310.02 1006 1300.55 1006H529.432C519.961 1006 510.082 1013.68 507.367 1023.15L382.401 1459.04Z" stroke="#0626A9" stroke-width="2" stroke-linecap="round" stroke-linejoin="round"/>
<path d="M403.116 1441.62H1177.09L1296.98 1023.43H523.008L403.116 1441.62Z" fill="white"/>
<mask id="mask2_2_9143" style="mask-type:luminance" maskUnits="userSpaceOnUse" x="569" y="1138" width="529" height="206">
<path d="M1097.99 1138H628.986L570 1343.71H1039L1097.99 1138Z" fill="white"/>
</mask>
<g mask="url(#mask2_2_9143)">
<mask id="mask3_2_9143" style="mask-type:luminance" maskUnits="userSpaceOnUse" x="498" y="1138" width="599" height="460">
<path d="M1096.08 1138.96H629.711L498.126 1597.85H964.496L1096.08 1138.96Z" fill="white"/>
</mask>
<g mask="url(#mask3_2_9143)">
<path d="M782.095 1341.18H571.725L629.711 1138.96H840.081L782.095 1341.18Z" fill="#84AAE4"/>
<path d="M782.095 1341.18H571.725L629.711 1138.96H840.081L782.095 1341.18Z" stroke="#0626A9" stroke-width="2" stroke-linecap="round" stroke-linejoin="round"/>
<path d="M787.945 1277.38H602.463L638.725 1150.92H824.207L787.945 1277.38Z" fill="white"/>
<path d="M787.945 1277.38H602.463L638.725 1150.92H824.207L787.945 1277.38Z" stroke="#0626A9" stroke-width="2" stroke-linecap="round" stroke-linejoin="round"/>
<mask id="mask4_2_9143" style="mask-type:alpha" maskUnits="userSpaceOnUse" x="601" y="1149" width="225" height="130">
<path d="M787.945 1277.38H602.463L638.725 1150.92H824.207L787.945 1277.38Z" fill="white"/>
<path d="M787.945 1277.38H602.463L638.725 1150.92H824.207L787.945 1277.38Z" stroke="#202870" stroke-width="2" stroke-linecap="round" stroke-linejoin="round"/>
</mask>
<g mask="url(#mask4_2_9143)">
<path d="M991.489 1214.39L973.426 1277.38H602.466L620.529 1214.39C635.32 1208.35 649.316 1209.24 663.75 1210.69C673.06 1211.63 681.777 1214.26 689.64 1217.8C697.424 1221.31 703.941 1226.38 711.79 1229.8C726.783 1236.35 744.83 1236.01 763.545 1229.99C777.79 1225.41 791.867 1219.7 806.009 1214.39C820.8 1208.35 834.796 1209.24 849.23 1210.69C858.54 1211.63 867.257 1214.26 875.12 1217.8C882.904 1221.31 889.421 1226.38 897.27 1229.8C912.263 1236.35 930.31 1236.01 949.025 1229.99C963.27 1225.41 977.347 1219.7 991.489 1214.39Z" fill="#8869D5"/>
<path d="M991.489 1214.39L973.426 1277.38H602.466L620.529 1214.39C635.32 1208.35 649.316 1209.24 663.75 1210.69C673.06 1211.63 681.777 1214.26 689.64 1217.8C697.424 1221.31 703.941 1226.38 711.79 1229.8C726.783 1236.35 744.83 1236.01 763.545 1229.99C777.79 1225.41 791.867 1219.7 806.009 1214.39C820.8 1208.35 834.796 1209.24 849.23 1210.69C858.54 1211.63 867.257 1214.26 875.12 1217.8C882.904 1221.31 889.421 1226.38 897.27 1229.8C912.263 1236.35 930.31 1236.01 949.025 1229.99C963.27 1225.41 977.347 1219.7 991.489 1214.39Z" stroke="#0626A9" stroke-width="2" stroke-linecap="round" stroke-linejoin="round"/>
</g>
<path d="M787.945 1277.38H602.463L638.725 1150.92H824.207L787.945 1277.38Z" stroke="#0626A9" stroke-width="2" stroke-linecap="round" stroke-linejoin="round"/>
<path d="M625.02 1309.28C622.607 1317.7 613.553 1324.52 604.798 1324.52C596.043 1324.52 590.903 1317.7 593.316 1309.28C595.729 1300.87 604.782 1294.04 613.537 1294.04C622.292 1294.04 627.433 1300.87 625.02 1309.28Z" fill="white"/>
<path d="M625.02 1309.28C622.607 1317.7 613.553 1324.52 604.798 1324.52C596.043 1324.52 590.903 1317.7 593.316 1309.28C595.729 1300.87 604.782 1294.04 613.537 1294.04C622.292 1294.04 627.433 1300.87 625.02 1309.28Z" stroke="#0626A9" stroke-width="2" stroke-linecap="round" stroke-linejoin="round"/>
<path d="M637.169 1309.28H720.13" stroke="#0626A9" stroke-width="2" stroke-linecap="round" stroke-linejoin="round"/>
<path d="M1038.09 1341.18H827.725L885.711 1138.96H1096.08L1038.09 1341.18Z" fill="#84AAE4"/>
<path d="M1038.09 1341.18H827.725L885.711 1138.96H1096.08L1038.09 1341.18Z" stroke="#0626A9" stroke-width="2" stroke-linecap="round" stroke-linejoin="round"/>
<path d="M1043.94 1277.38H858.463L894.725 1150.92H1080.21L1043.94 1277.38Z" fill="white"/>
<path d="M1043.94 1277.38H858.463L894.725 1150.92H1080.21L1043.94 1277.38Z" stroke="#0626A9" stroke-width="2" stroke-linecap="round" stroke-linejoin="round"/>
<path d="M1003.62 1214.15C998.399 1232.35 978.819 1247.11 959.885 1247.11C940.951 1247.11 929.833 1232.35 935.052 1214.15C940.271 1195.95 959.85 1181.2 978.784 1181.2C997.718 1181.2 1008.84 1195.95 1003.62 1214.15Z" fill="#0626A9"/>
<path d="M1003.62 1214.15C998.399 1232.35 978.819 1247.11 959.885 1247.11C940.951 1247.11 929.833 1232.35 935.052 1214.15C940.271 1195.95 959.85 1181.2 978.784 1181.2C997.718 1181.2 1008.84 1195.95 1003.62 1214.15Z" stroke="#0626A9" stroke-width="2" stroke-linecap="round" stroke-linejoin="round"/>
<path d="M956.348 1226.71L963.548 1201.6L986.068 1214.15L956.348 1226.71Z" fill="white"/>
<path d="M956.348 1226.71L963.548 1201.6L986.068 1214.15L956.348 1226.71Z" stroke="#0626A9" stroke-width="2" stroke-linecap="round" stroke-linejoin="round"/>
<path d="M881.02 1309.28C878.607 1317.7 869.554 1324.52 860.799 1324.52C852.044 1324.52 846.903 1317.7 849.316 1309.28C851.729 1300.87 860.782 1294.04 869.537 1294.04C878.292 1294.04 883.433 1300.87 881.02 1309.28Z" fill="white"/>
<path d="M881.02 1309.28C878.607 1317.7 869.554 1324.52 860.799 1324.52C852.044 1324.52 846.903 1317.7 849.316 1309.28C851.729 1300.87 860.782 1294.04 869.537 1294.04C878.292 1294.04 883.433 1300.87 881.02 1309.28Z" stroke="#0626A9" stroke-width="2" stroke-linecap="round" stroke-linejoin="round"/>
<path d="M893.169 1309.28H976.131" stroke="#0626A9" stroke-width="2" stroke-linecap="round" stroke-linejoin="round"/>
</g>
</g>
<path d="M403.116 1441.62H1177.09L1296.98 1023.43H523.008L403.116 1441.62Z" stroke="#0626A9" stroke-width="2" stroke-linecap="round" stroke-linejoin="round"/>
<path d="M204.551 1461.32H1176.46L1198.43 1434.96H178.192C178.192 1449.52 189.994 1461.32 204.551 1461.32Z" fill="#84AAE4"/>
<path d="M204.551 1461.32H1176.46L1198.43 1434.96H178.192C178.192 1449.52 189.994 1461.32 204.551 1461.32Z" stroke="#0626A9" stroke-width="2" stroke-linecap="round" stroke-linejoin="round"/>
<path d="M869.332 1461.83H1192.04C1198.24 1461.83 1203.67 1457.66 1205.25 1451.67L1209.54 1435.47H842.973C842.973 1450.03 854.775 1461.83 869.332 1461.83Z" fill="#0626A9"/>
<path d="M869.332 1461.83H1192.04C1198.24 1461.83 1203.67 1457.66 1205.25 1451.67L1209.54 1435.47H842.973C842.973 1450.03 854.775 1461.83 869.332 1461.83Z" stroke="#0626A9" stroke-width="2" stroke-linecap="round" stroke-linejoin="round"/>
<path d="M130.986 1461.83H1469.01" stroke="#0626A9" stroke-width="2" stroke-miterlimit="10"/>
<path d="M248.376 700.921C248.376 690.233 239.712 681.569 229.024 681.569C218.336 681.569 209.672 690.233 209.672 700.921C209.672 711.609 218.336 720.274 229.024 720.274C239.712 720.274 248.376 711.609 248.376 700.921Z" stroke="#0626A9" stroke-width="2" stroke-miterlimit="10"/>
<path d="M255.414 621.276C255.414 614.526 249.942 609.053 243.192 609.053C236.442 609.053 230.969 614.526 230.969 621.276C230.969 628.026 236.442 633.498 243.192 633.498C249.942 633.498 255.414 628.026 255.414 621.276Z" fill="#84AAE4"/>
<path d="M255.414 621.276C255.414 614.526 249.942 609.053 243.192 609.053C236.442 609.053 230.969 614.526 230.969 621.276C230.969 628.026 236.442 633.498 243.192 633.498C249.942 633.498 255.414 628.026 255.414 621.276Z" stroke="#0626A9" stroke-width="2" stroke-miterlimit="10"/>
<path d="M270.98 574.175C270.98 568.692 266.536 564.248 261.053 564.248C255.57 564.248 251.126 568.692 251.126 574.175C251.126 579.658 255.57 584.102 261.053 584.102C266.536 584.102 270.98 579.658 270.98 574.175Z" stroke="#0626A9" stroke-width="2" stroke-miterlimit="10"/>
<path d="M1401.06 974.902C1401.06 964.214 1392.4 955.55 1381.71 955.55C1371.02 955.55 1362.36 964.214 1362.36 974.902C1362.36 985.59 1371.02 994.255 1381.71 994.255C1392.4 994.255 1401.06 985.59 1401.06 974.902Z" stroke="#0626A9" stroke-width="2" stroke-miterlimit="10"/>
<path d="M1294.82 928.33C1294.82 922.568 1290.15 917.898 1284.39 917.898C1278.63 917.898 1273.96 922.568 1273.96 928.33C1273.96 934.092 1278.63 938.763 1284.39 938.763C1290.15 938.763 1294.82 934.092 1294.82 928.33Z" fill="#84AAE4"/>
<path d="M1294.82 928.33C1294.82 922.568 1290.15 917.898 1284.39 917.898C1278.63 917.898 1273.96 922.568 1273.96 928.33C1273.96 934.092 1278.63 938.763 1284.39 938.763C1290.15 938.763 1294.82 934.092 1294.82 928.33Z" stroke="#0626A9" stroke-width="2" stroke-miterlimit="10"/>
<path d="M1355.08 867.004C1355.08 861.521 1350.63 857.076 1345.15 857.076C1339.67 857.076 1335.22 861.521 1335.22 867.004C1335.22 872.487 1339.67 876.931 1345.15 876.931C1350.63 876.931 1355.08 872.487 1355.08 867.004Z" stroke="#0626A9" stroke-width="2" stroke-miterlimit="10"/>
<path d="M1111.82 151.484C1111.82 144.554 1106.2 138.936 1099.27 138.936C1092.34 138.936 1086.72 144.554 1086.72 151.484C1086.72 158.414 1092.34 164.033 1099.27 164.033C1106.2 164.033 1111.82 158.414 1111.82 151.484Z" stroke="#0626A9" stroke-width="2" stroke-miterlimit="10"/>
<path d="M1142.06 203.411C1142.06 198.696 1138.24 194.873 1133.52 194.873C1128.81 194.873 1124.99 198.696 1124.99 203.411C1124.99 208.126 1128.81 211.949 1133.52 211.949C1138.24 211.949 1142.06 208.126 1142.06 203.411Z" stroke="#0626A9" stroke-width="2" stroke-miterlimit="10"/>
<path d="M569.431 1120.2C569.431 1120.2 529.241 1120.2 484.412 1120.2" stroke="#0626A9" stroke-width="2" stroke-miterlimit="10"/>
<path d="M452.529 1120.2C406.298 1120.2 363.971 1120.2 363.971 1120.2C363.971 1120.2 363.971 1084.05 363.971 1028.1" stroke="#0626A9" stroke-width="2" stroke-miterlimit="10"/>
<path d="M363.971 985.589C363.971 910.182 363.971 812.855 363.971 719.893" stroke="#0626A9" stroke-width="2" stroke-miterlimit="10"/>
<path d="M363.971 624.246C363.971 538.767 363.971 466.577 363.971 432.948" stroke="#0626A9" stroke-width="2" stroke-miterlimit="10"/>
<path d="M386.22 412.694C427.94 412.694 513.751 412.694 513.751 412.694" stroke="#0626A9" stroke-width="2" stroke-miterlimit="10"/>
<path d="M585.586 1120.19C585.586 1129.12 578.353 1136.35 569.43 1136.35C560.507 1136.35 553.274 1129.12 553.274 1120.19C553.274 1111.27 560.507 1104.04 569.43 1104.04C578.353 1104.04 585.586 1111.27 585.586 1120.19Z" fill="#84AAE4"/>
<path d="M585.586 1120.19C585.586 1129.12 578.353 1136.35 569.43 1136.35C560.507 1136.35 553.274 1129.12 553.274 1120.19C553.274 1111.27 560.507 1104.04 569.43 1104.04C578.353 1104.04 585.586 1111.27 585.586 1120.19Z" stroke="#0626A9" stroke-width="2" stroke-miterlimit="10"/>
<path d="M1162 1074C1162 1074 1162 1041.68 1162 995.604" stroke="#0626A9" stroke-width="2"/>
<path d="M1162 960.321C1162 921.162 1162 876.646 1162 834.878" stroke="#0626A9" stroke-width="2"/>
<path d="M1162 768.237C1162 744.81 1162 724.47 1162 709.437" stroke="#0626A9" stroke-width="2"/>
<path d="M1177.31 1074.73C1177.31 1083.65 1170.08 1090.89 1161.15 1090.89C1152.23 1090.89 1145 1083.65 1145 1074.73C1145 1065.81 1152.23 1058.57 1161.15 1058.57C1170.08 1058.57 1177.31 1065.81 1177.31 1074.73Z" fill="#84AAE4"/>
<path d="M1177.31 1074.73C1177.31 1083.65 1170.08 1090.89 1161.15 1090.89C1152.23 1090.89 1145 1083.65 1145 1074.73C1145 1065.81 1152.23 1058.57 1161.15 1058.57C1170.08 1058.57 1177.31 1065.81 1177.31 1074.73Z" stroke="#0626A9" stroke-width="2" stroke-miterlimit="10"/>
<path d="M1338.9 741.275H1016.52V459.522H1338.9V741.275Z" fill="white"/>
<path d="M1338.9 741.275H1016.52V459.522H1338.9V741.275Z" stroke="#0626A9" stroke-width="2" stroke-miterlimit="10"/>
<path d="M1270.63 612.732C1270.63 615.482 1270.52 618.202 1270.29 620.892C1270.27 621.082 1270.26 621.262 1270.24 621.452V621.462C1269.08 634.802 1265.27 647.382 1259.33 658.662C1251.13 674.262 1238.89 687.412 1223.98 696.692C1208.83 706.152 1190.92 711.612 1171.74 711.612C1169.19 711.612 1166.66 711.512 1164.15 711.322C1161.58 711.132 1159.02 710.842 1156.5 710.432L1156.31 710.412C1156.3 710.412 1156.29 710.402 1156.28 710.402C1148.89 709.252 1141.77 707.272 1135.02 704.562C1098.59 689.992 1072.86 654.362 1072.86 612.732C1072.86 604.442 1073.88 596.392 1075.8 588.702C1077.18 583.202 1079.01 577.882 1081.27 572.792C1091.81 548.932 1111.52 530.032 1135.92 520.542C1147.02 516.222 1159.1 513.852 1171.74 513.852C1188.11 513.852 1203.55 517.832 1217.15 524.882C1219.47 526.082 1221.74 527.372 1223.95 528.762H1223.96C1251.98 546.202 1270.63 577.292 1270.63 612.732Z" stroke="#0626A9" stroke-width="2" stroke-miterlimit="10"/>
<mask id="mask5_2_9143" style="mask-type:alpha" maskUnits="userSpaceOnUse" x="1072" y="513" width="199" height="199">
<path d="M1270.63 612.732C1270.63 615.482 1270.52 618.202 1270.29 620.892C1270.27 621.082 1270.26 621.262 1270.24 621.452V621.462C1269.08 634.802 1265.27 647.382 1259.33 658.662C1251.13 674.262 1238.89 687.412 1223.98 696.692C1208.83 706.152 1190.92 711.612 1171.74 711.612C1169.19 711.612 1166.66 711.512 1164.15 711.322C1161.58 711.132 1159.02 710.842 1156.5 710.432L1156.31 710.412C1156.3 710.412 1156.29 710.402 1156.28 710.402C1148.89 709.252 1141.77 707.272 1135.02 704.562C1098.59 689.992 1072.86 654.362 1072.86 612.732C1072.86 604.442 1073.88 596.392 1075.8 588.702C1077.18 583.202 1079.01 577.882 1081.27 572.792C1091.81 548.932 1111.52 530.032 1135.92 520.542C1147.02 516.222 1159.1 513.852 1171.74 513.852C1188.11 513.852 1203.55 517.832 1217.15 524.882C1219.47 526.082 1221.74 527.372 1223.95 528.762H1223.96C1251.98 546.202 1270.63 577.292 1270.63 612.732Z" fill="#8484FA"/>
</mask>
<g mask="url(#mask5_2_9143)">
<path d="M1223.96 528.762H1223.95C1186.7 521.712 1144.75 535.472 1120.4 558.512C1101.5 576.402 1128.96 584.197 1179.95 601.948C1218.07 615.219 1218.89 656.39 1231.46 636.812C1273.97 570.606 1271.02 627.585 1284.42 628.206C1304.5 629.137 1305.31 553.31 1305.31 550.56C1305.31 515.12 1251.98 546.202 1223.96 528.762Z" fill="#84AAE4"/>
<path d="M1155.67 683.547C1152.92 649.734 1191.53 659.829 1184.75 639.5C1180.54 626.885 1139.57 617.455 1108.51 617.195C1071.12 616.885 1097.77 662.074 1117.97 679.376C1158.77 714.324 1149.62 723.722 1162.24 732.894C1164.09 734.24 1166.32 734.959 1168.61 735.028C1178.59 735.331 1184.29 723.751 1177.97 716.021C1168.66 704.638 1157.64 707.829 1155.67 683.547Z" fill="#84AAE4"/>
<path d="M1112.34 601.736C1117.91 589.659 1094.48 554.749 1072.01 533.308C1044.95 507.5 1033.46 558.687 1036.36 585.127C1042.2 638.531 1029.1 639.124 1032.02 654.444C1032.45 656.693 1033.59 658.745 1035.21 660.361C1042.29 667.412 1054.37 662.868 1055.04 652.903C1056.04 638.23 1045.82 633.022 1061 613.961C1082.12 587.418 1103.38 621.199 1112.34 601.736Z" fill="#84AAE4"/>
<path d="M1222.87 696.536C1274.54 711.501 1289.52 703.593 1259.33 658.662C1245.79 638.506 1181.88 684.664 1222.87 696.536Z" fill="#84AAE4"/>
<path d="M1184.47 694.874C1178.49 694.874 1182.63 707.607 1184.75 713.227C1185.35 714.803 1186.86 715.84 1188.54 715.84C1190.97 715.84 1192.86 713.731 1192.57 711.323C1191.85 705.16 1189.84 694.874 1184.47 694.874Z" fill="#84AAE4"/>
</g>
<path d="M1270.63 612.732C1270.63 615.482 1270.52 618.202 1270.29 620.892C1270.27 621.082 1270.26 621.262 1270.24 621.452V621.462C1269.08 634.802 1265.27 647.382 1259.33 658.662C1251.13 674.262 1238.89 687.412 1223.98 696.692C1208.83 706.152 1190.92 711.612 1171.74 711.612C1169.19 711.612 1166.66 711.512 1164.15 711.322C1161.58 711.132 1159.02 710.842 1156.5 710.432L1156.31 710.412C1156.3 710.412 1156.29 710.402 1156.28 710.402C1148.89 709.252 1141.77 707.272 1135.02 704.562C1098.59 689.992 1072.86 654.362 1072.86 612.732C1072.86 604.442 1073.88 596.392 1075.8 588.702C1077.18 583.202 1079.01 577.882 1081.27 572.792C1091.81 548.932 1111.52 530.032 1135.92 520.542C1147.02 516.222 1159.1 513.852 1171.74 513.852C1188.11 513.852 1203.55 517.832 1217.15 524.882C1219.47 526.082 1221.74 527.372 1223.95 528.762H1223.96C1251.98 546.202 1270.63 577.292 1270.63 612.732Z" stroke="#0626A9" stroke-width="2" stroke-miterlimit="10"/>
</g>
<mask id="mask6_2_9143" style="mask-type:luminance" maskUnits="userSpaceOnUse" x="473" y="293" width="237" height="242">
<path d="M710 293H473V535H710V293Z" fill="white"/>
</mask>
<g mask="url(#mask6_2_9143)">
<mask id="mask7_2_9143" style="mask-type:luminance" maskUnits="userSpaceOnUse" x="474" y="294" width="467" height="478">
<path d="M940.37 294H474V771.383H940.37V294Z" fill="white"/>
</mask>
<g mask="url(#mask7_2_9143)">
<path d="M684.37 504.37H474V294H684.37V504.37Z" fill="#84AAE4"/>
<path d="M684.37 504.37H474V294H684.37V504.37Z" stroke="#0626A9" stroke-width="2" stroke-linecap="round" stroke-linejoin="round"/>
<path d="M671.926 438H486.444V306.444H671.926V438Z" fill="white"/>
<path d="M671.926 438H486.444V306.444H671.926V438Z" stroke="#0626A9" stroke-width="2" stroke-linecap="round" stroke-linejoin="round"/>
<mask id="mask8_2_9143" style="mask-type:alpha" maskUnits="userSpaceOnUse" x="485" y="305" width="188" height="134">
<path d="M671.926 438H486.444V306.444H671.926V438Z" fill="white"/>
<path d="M671.926 438H486.444V306.444H671.926V438Z" stroke="#202870" stroke-width="2" stroke-linecap="round" stroke-linejoin="round"/>
</mask>
<g mask="url(#mask8_2_9143)">
<path d="M857.407 372.469V437.999H486.447V372.469C499.507 366.189 513.757 367.109 528.607 368.619C538.187 369.599 547.657 372.329 556.537 376.019C565.327 379.669 573.297 384.939 582.127 388.499C598.997 395.309 616.947 394.959 633.937 388.699C646.867 383.929 659.307 377.989 671.927 372.469C684.987 366.189 699.237 367.109 714.087 368.619C723.667 369.599 733.137 372.329 742.017 376.019C750.807 379.669 758.777 384.939 767.607 388.499C784.477 395.309 802.427 394.959 819.417 388.699C832.347 383.929 844.787 377.989 857.407 372.469Z" fill="#8869D5"/>
<path d="M857.407 372.469V437.999H486.447V372.469C499.507 366.189 513.757 367.109 528.607 368.619C538.187 369.599 547.657 372.329 556.537 376.019C565.327 379.669 573.297 384.939 582.127 388.499C598.997 395.309 616.947 394.959 633.937 388.699C646.867 383.929 659.307 377.989 671.927 372.469C684.987 366.189 699.237 367.109 714.087 368.619C723.667 369.599 733.137 372.329 742.017 376.019C750.807 379.669 758.777 384.939 767.607 388.499C784.477 395.309 802.427 394.959 819.417 388.699C832.347 383.929 844.787 377.989 857.407 372.469Z" stroke="#0626A9" stroke-width="2" stroke-linecap="round" stroke-linejoin="round"/>
</g>
<path d="M671.926 438H486.444V306.444H671.926V438Z" stroke="#0626A9" stroke-width="2" stroke-linecap="round" stroke-linejoin="round"/>
<path d="M518.148 471.185C518.148 479.94 511.051 487.037 502.296 487.037C493.541 487.037 486.444 479.94 486.444 471.185C486.444 462.43 493.541 455.333 502.296 455.333C511.051 455.333 518.148 462.43 518.148 471.185Z" fill="white"/>
<path d="M518.148 471.185C518.148 479.94 511.051 487.037 502.296 487.037C493.541 487.037 486.444 479.94 486.444 471.185C486.444 462.43 493.541 455.333 502.296 455.333C511.051 455.333 518.148 462.43 518.148 471.185Z" stroke="#0626A9" stroke-width="2" stroke-linecap="round" stroke-linejoin="round"/>
<path d="M530.297 471.185H613.258" stroke="#0626A9" stroke-width="2" stroke-linecap="round" stroke-linejoin="round"/>
</g>
</g>
</g>
</g>
<defs>
<clipPath id="clip0_2_9143">
<rect width="1600" height="1600" fill="white"/>
</clipPath>
</defs>
</svg>
