<svg width="1600" height="1600" viewBox="0 0 1600 1600" fill="none" xmlns="http://www.w3.org/2000/svg">
<g clip-path="url(#clip0_24_17233)">
<mask id="mask0_24_17233" style="mask-type:luminance" maskUnits="userSpaceOnUse" x="0" y="0" width="1600" height="1600">
<path d="M1600 0H0V1600H1600V0Z" fill="white"/>
</mask>
<g mask="url(#mask0_24_17233)">
<mask id="mask1_24_17233" style="mask-type:luminance" maskUnits="userSpaceOnUse" x="0" y="0" width="1600" height="1600">
<path d="M0 0H1600V1600H0V0Z" fill="white"/>
</mask>
<g mask="url(#mask1_24_17233)">
<path d="M1244.41 882.361C1244.41 888.323 1239.58 893.157 1233.62 893.157C1227.66 893.157 1222.82 888.323 1222.82 882.361C1222.82 876.399 1227.66 871.565 1233.62 871.565C1239.58 871.565 1244.41 876.399 1244.41 882.361Z" fill="#8869D5"/>
<path d="M1244.41 882.361C1244.41 888.323 1239.58 893.157 1233.62 893.157C1227.66 893.157 1222.82 888.323 1222.82 882.361C1222.82 876.399 1227.66 871.565 1233.62 871.565C1239.58 871.565 1244.41 876.399 1244.41 882.361Z" stroke="#0626A9" stroke-width="2" stroke-linecap="round" stroke-linejoin="round"/>
<path d="M270.371 978.213C270.371 984.977 264.888 990.46 258.124 990.46C251.36 990.46 245.877 984.977 245.877 978.213C245.877 971.449 251.36 965.966 258.124 965.966C264.888 965.966 270.371 971.449 270.371 978.213Z" fill="#8869D5"/>
<path d="M270.371 978.213C270.371 984.977 264.888 990.46 258.124 990.46C251.36 990.46 245.877 984.977 245.877 978.213C245.877 971.449 251.36 965.966 258.124 965.966C264.888 965.966 270.371 971.449 270.371 978.213Z" stroke="#0626A9" stroke-width="2" stroke-linecap="round" stroke-linejoin="round"/>
<path d="M798.272 759.316C798.272 764.342 794.197 768.417 789.171 768.417C784.145 768.417 780.07 764.342 780.07 759.316C780.07 754.29 784.145 750.215 789.171 750.215C794.197 750.215 798.272 754.29 798.272 759.316Z" fill="white"/>
<path d="M798.272 759.316C798.272 764.342 794.197 768.417 789.171 768.417C784.145 768.417 780.07 764.342 780.07 759.316C780.07 754.29 784.145 750.215 789.171 750.215C794.197 750.215 798.272 754.29 798.272 759.316Z" stroke="#0626A9" stroke-width="2" stroke-linecap="round" stroke-linejoin="round"/>
<path d="M437.189 688.357C437.189 693.383 433.114 697.458 428.088 697.458C423.062 697.458 418.987 693.383 418.987 688.357C418.987 683.331 423.062 679.256 428.088 679.256C433.114 679.256 437.189 683.331 437.189 688.357Z" fill="white"/>
<path d="M437.189 688.357C437.189 693.383 433.114 697.458 428.088 697.458C423.062 697.458 418.987 693.383 418.987 688.357C418.987 683.331 423.062 679.256 428.088 679.256C433.114 679.256 437.189 683.331 437.189 688.357Z" stroke="#0626A9" stroke-width="2" stroke-linecap="round" stroke-linejoin="round"/>
<path d="M1082.18 525.354C1082.18 532.585 1076.32 538.446 1069.09 538.446C1061.86 538.446 1056 532.585 1056 525.354C1056 518.123 1061.86 512.262 1069.09 512.262C1076.32 512.262 1082.18 518.123 1082.18 525.354Z" fill="#84AAE4"/>
<path d="M1082.18 525.354C1082.18 532.585 1076.32 538.446 1069.09 538.446C1061.86 538.446 1056 532.585 1056 525.354C1056 518.123 1061.86 512.262 1069.09 512.262C1076.32 512.262 1082.18 518.123 1082.18 525.354Z" stroke="#0626A9" stroke-width="2" stroke-linecap="round" stroke-linejoin="round"/>
<path d="M916.079 355.399C916.079 359.737 912.562 363.254 908.224 363.254C903.886 363.254 900.369 359.737 900.369 355.399C900.369 351.061 903.886 347.544 908.224 347.544C912.562 347.544 916.079 351.061 916.079 355.399Z" fill="#0626A9"/>
<path d="M916.079 355.399C916.079 359.737 912.562 363.254 908.224 363.254C903.886 363.254 900.369 359.737 900.369 355.399C900.369 351.061 903.886 347.544 908.224 347.544C912.562 347.544 916.079 351.061 916.079 355.399Z" stroke="#0626A9" stroke-width="2" stroke-linecap="round" stroke-linejoin="round"/>
</g>
<mask id="mask2_24_17233" style="mask-type:luminance" maskUnits="userSpaceOnUse" x="0" y="68" width="1600" height="1600">
<path d="M0 68H1600V1668H0V68Z" fill="white"/>
</mask>
<g mask="url(#mask2_24_17233)">
<path d="M463.638 645.855L243.978 659.44L225.832 366.037L445.492 352.452L463.638 645.855Z" fill="white"/>
<path d="M463.638 645.855L243.978 659.44L225.832 366.037L445.492 352.452L463.638 645.855Z" stroke="#0626A9" stroke-width="2" stroke-linecap="round" stroke-linejoin="round"/>
<path d="M259.097 578.337C259.097 578.337 270.417 577.637 286.556 576.639" stroke="#0626A9" stroke-width="2" stroke-linecap="round" stroke-linejoin="round"/>
<path d="M398.371 526.162L256.251 534.952L253.352 488.064L395.471 479.274L398.371 526.162Z" fill="#84AAE4"/>
<path d="M398.371 526.162L256.251 534.952L253.352 488.064L395.471 479.274L398.371 526.162Z" stroke="#0626A9" stroke-width="2" stroke-linecap="round" stroke-linejoin="round"/>
<path d="M250.829 444.66L317.422 440.541" stroke="#0626A9" stroke-width="2" stroke-linecap="round" stroke-linejoin="round"/>
<path d="M501.193 349.007C503.095 379.769 479.7 406.249 448.938 408.151C418.176 410.054 391.696 386.658 389.793 355.896C387.891 325.134 411.286 298.654 442.048 296.752C472.81 294.849 499.29 318.244 501.193 349.007Z" fill="#8869D5"/>
<path d="M501.193 349.007C503.095 379.769 479.7 406.249 448.938 408.151C418.176 410.054 391.696 386.658 389.793 355.896C387.891 325.134 411.286 298.654 442.048 296.752C472.81 294.849 499.29 318.244 501.193 349.007Z" stroke="#0626A9" stroke-width="2" stroke-linecap="round" stroke-linejoin="round"/>
<path d="M435.489 366.193L411.745 352.425L431.056 332.921" stroke="#0626A9" stroke-width="2" stroke-linecap="round" stroke-linejoin="round"/>
<path d="M459.375 363.011L478.687 343.507L454.942 329.739" stroke="#0626A9" stroke-width="2" stroke-linecap="round" stroke-linejoin="round"/>
</g>
<path d="M776.096 527.98V587.466H690.892L670.784 609.734V527.98H776.096Z" fill="#84AAE4"/>
<path d="M776.096 527.98V587.466H690.892L670.784 609.734V527.98H776.096Z" stroke="#0626A9" stroke-width="2" stroke-linecap="round" stroke-linejoin="round"/>
<path d="M757.417 557.723C757.417 557.723 708.25 557.812 708.25 557.723C703.25 557.75 697.812 557.75 692.75 557.723C692.75 557.687 692.633 557.723 692.633 557.723" stroke="#0626A9" stroke-width="2" stroke-linecap="round" stroke-linejoin="round"/>
<path d="M808.472 585.98V645.466H893.676L913.784 667.734V585.98H808.472Z" fill="white"/>
<path d="M808.472 585.98V645.466H893.676L913.784 667.734V585.98H808.472Z" stroke="#0626A9" stroke-width="2" stroke-linecap="round" stroke-linejoin="round"/>
<path d="M827.152 615.723C827.152 615.723 853.194 615.812 853.194 615.723C855.569 606.687 866.506 606.75 868.694 615.723C868.694 615.687 891.936 615.723 891.936 615.723" stroke="#0626A9" stroke-width="2" stroke-linecap="round" stroke-linejoin="round"/>
<mask id="mask3_24_17233" style="mask-type:luminance" maskUnits="userSpaceOnUse" x="0" y="0" width="1600" height="1600">
<path d="M0 0H1600V1600H0V0Z" fill="white"/>
</mask>
<g mask="url(#mask3_24_17233)">
<path d="M398.001 1046.32L720.832 1049.61L722.922 844.548L400.091 841.257L398.001 1046.32Z" fill="white"/>
<path d="M398.001 1046.32L720.832 1049.61L722.922 844.548L400.091 841.257L398.001 1046.32Z" stroke="#0626A9" stroke-width="2" stroke-linecap="round" stroke-linejoin="round"/>
<path d="M400.09 841.258L722.921 844.548L723.342 803.291L400.511 800L400.09 841.258Z" fill="#0626A9"/>
<path d="M704.837 823.733C704.783 829.03 700.446 833.28 695.149 833.226C689.852 833.172 685.602 828.834 685.656 823.538C685.71 818.241 690.048 813.991 695.344 814.045C700.641 814.099 704.891 818.436 704.837 823.733Z" fill="white"/>
<path d="M704.837 823.733C704.783 829.03 700.446 833.28 695.149 833.226C689.852 833.172 685.602 828.834 685.656 823.538C685.71 818.241 690.048 813.991 695.344 814.045C700.641 814.099 704.891 818.436 704.837 823.733Z" stroke="#0626A9" stroke-width="2" stroke-linecap="round" stroke-linejoin="round"/>
<path d="M662.738 823.304C662.684 828.601 658.346 832.851 653.049 832.797C647.753 832.743 643.503 828.405 643.557 823.108C643.611 817.812 647.948 813.562 653.245 813.616C658.542 813.67 662.792 818.007 662.738 823.304Z" fill="white"/>
<path d="M662.738 823.304C662.684 828.601 658.346 832.851 653.049 832.797C647.753 832.743 643.503 828.405 643.557 823.108C643.611 817.812 647.948 813.562 653.245 813.616C658.542 813.67 662.792 818.007 662.738 823.304Z" stroke="#0626A9" stroke-width="2" stroke-linecap="round" stroke-linejoin="round"/>
<path d="M620.637 822.875C620.583 828.172 616.245 832.422 610.949 832.368C605.652 832.314 601.402 827.976 601.456 822.679C601.51 817.383 605.847 813.133 611.144 813.187C616.441 813.241 620.691 817.578 620.637 822.875Z" fill="white"/>
<path d="M620.637 822.875C620.583 828.172 616.245 832.422 610.949 832.368C605.652 832.314 601.402 827.976 601.456 822.679C601.51 817.383 605.847 813.133 611.144 813.187C616.441 813.241 620.691 817.578 620.637 822.875Z" stroke="#0626A9" stroke-width="2" stroke-linecap="round" stroke-linejoin="round"/>
<path d="M647.701 1001.11L472.104 999.316L473.221 889.766L648.818 891.556L647.701 1001.11Z" fill="#8869D5"/>
<path d="M647.701 1001.11L472.104 999.316L473.221 889.766L648.818 891.556L647.701 1001.11Z" stroke="#0626A9" stroke-width="2" stroke-linecap="round" stroke-linejoin="round"/>
</g>
<path d="M1182.17 1180.26H1451.07L1476.48 993.647C1477.03 989.592 1474.19 986.305 1470.13 986.305H1215.92C1211.86 986.305 1208.13 989.592 1207.58 993.647L1182.17 1180.26Z" fill="#0626A9"/>
<path d="M1196.87 1176.97H1461.21L1486.19 993.523C1486.73 989.537 1483.94 986.305 1479.95 986.305H1230.04C1226.06 986.305 1222.39 989.537 1221.84 993.523L1196.87 1176.97Z" fill="white"/>
<path d="M1196.87 1176.97H1461.21L1486.19 993.523C1486.73 989.537 1483.94 986.305 1479.95 986.305H1230.04C1226.06 986.305 1222.39 989.537 1221.84 993.523L1196.87 1176.97Z" stroke="#0626A9" stroke-width="2" stroke-linecap="round" stroke-linejoin="round"/>
<path d="M1329.67 1084.93C1328.77 1091.5 1333.37 1096.82 1339.94 1096.82C1346.51 1096.82 1352.56 1091.5 1353.46 1084.93C1354.35 1078.36 1349.75 1073.03 1343.18 1073.03C1336.61 1073.03 1330.56 1078.36 1329.67 1084.93Z" fill="#0626A9"/>
<path d="M1061.26 1188.51H1443.63C1453.8 1188.51 1462.04 1180.27 1462.04 1170.1H1042.85C1042.85 1180.27 1051.09 1188.51 1061.26 1188.51Z" fill="#0626A9"/>
<path d="M1512.56 1272.46H87.4414V1189.3H1512.56V1272.46Z" fill="white"/>
<path d="M1512.56 1272.46H87.4414V1189.3H1512.56V1272.46Z" stroke="#0626A9" stroke-width="2" stroke-linecap="round" stroke-linejoin="round"/>
</g>
</g>
<defs>
<clipPath id="clip0_24_17233">
<rect width="1600" height="1600" fill="white"/>
</clipPath>
</defs>
</svg>
