<svg width="1600" height="1600" viewBox="0 0 1600 1600" fill="none" xmlns="http://www.w3.org/2000/svg">
<g clip-path="url(#clip0_2_8946)">
<mask id="mask0_2_8946" style="mask-type:luminance" maskUnits="userSpaceOnUse" x="0" y="0" width="1600" height="1600">
<path d="M1600 0H0V1600H1600V0Z" fill="white"/>
</mask>
<g mask="url(#mask0_2_8946)">
<mask id="mask1_2_8946" style="mask-type:luminance" maskUnits="userSpaceOnUse" x="51" y="51" width="1498" height="1498">
<path d="M1549 51H51V1549H1549V51Z" fill="white"/>
</mask>
<g mask="url(#mask1_2_8946)">
<mask id="mask2_2_8946" style="mask-type:luminance" maskUnits="userSpaceOnUse" x="51" y="51" width="1498" height="1498">
<path d="M51 51H1549V1549H51V51Z" fill="white"/>
</mask>
<g mask="url(#mask2_2_8946)">
<path d="M1216.08 877.11C1216.08 882.692 1211.56 887.218 1205.98 887.218C1200.4 887.218 1195.87 882.692 1195.87 877.11C1195.87 871.529 1200.4 867.003 1205.98 867.003C1211.56 867.003 1216.08 871.529 1216.08 877.11Z" fill="#8869D5"/>
<path d="M1216.08 877.11C1216.08 882.692 1211.56 887.218 1205.98 887.218C1200.4 887.218 1195.87 882.692 1195.87 877.11C1195.87 871.529 1200.4 867.003 1205.98 867.003C1211.56 867.003 1216.08 871.529 1216.08 877.11Z" stroke="#0626A9" stroke-width="2" stroke-linecap="round" stroke-linejoin="round"/>
<path d="M304.135 966.852C304.135 973.185 299.001 978.318 292.669 978.318C286.336 978.318 281.202 973.185 281.202 966.852C281.202 960.519 286.336 955.386 292.669 955.386C299.001 955.386 304.135 960.519 304.135 966.852Z" fill="#8869D5"/>
<path d="M304.135 966.852C304.135 973.185 299.001 978.318 292.669 978.318C286.336 978.318 281.202 973.185 281.202 966.852C281.202 960.519 286.336 955.386 292.669 955.386C299.001 955.386 304.135 960.519 304.135 966.852Z" stroke="#0626A9" stroke-width="2" stroke-linecap="round" stroke-linejoin="round"/>
<path d="M798.382 761.91C798.382 766.615 794.567 770.431 789.861 770.431C785.156 770.431 781.341 766.615 781.341 761.91C781.341 757.204 785.156 753.389 789.861 753.389C794.567 753.389 798.382 757.204 798.382 761.91Z" fill="white"/>
<path d="M798.382 761.91C798.382 766.615 794.567 770.431 789.861 770.431C785.156 770.431 781.341 766.615 781.341 761.91C781.341 757.204 785.156 753.389 789.861 753.389C794.567 753.389 798.382 757.204 798.382 761.91Z" stroke="#0626A9" stroke-width="2" stroke-linecap="round" stroke-linejoin="round"/>
<path d="M460.318 695.474C460.318 700.18 456.503 703.995 451.797 703.995C447.092 703.995 443.277 700.18 443.277 695.474C443.277 690.769 447.092 686.953 451.797 686.953C456.503 686.953 460.318 690.769 460.318 695.474Z" fill="white"/>
<path d="M460.318 695.474C460.318 700.18 456.503 703.995 451.797 703.995C447.092 703.995 443.277 700.18 443.277 695.474C443.277 690.769 447.092 686.953 451.797 686.953C456.503 686.953 460.318 690.769 460.318 695.474Z" stroke="#0626A9" stroke-width="2" stroke-linecap="round" stroke-linejoin="round"/>
<path d="M1064.19 542.863C1064.19 549.633 1058.7 555.12 1051.94 555.12C1045.17 555.12 1039.68 549.633 1039.68 542.863C1039.68 536.093 1045.17 530.605 1051.94 530.605C1058.7 530.605 1064.19 536.093 1064.19 542.863Z" fill="#84AAE4"/>
<path d="M1064.19 542.863C1064.19 549.633 1058.7 555.12 1051.94 555.12C1045.17 555.12 1039.68 549.633 1039.68 542.863C1039.68 536.093 1045.17 530.605 1051.94 530.605C1058.7 530.605 1064.19 536.093 1064.19 542.863Z" stroke="#0626A9" stroke-width="2" stroke-linecap="round" stroke-linejoin="round"/>
<path d="M908.679 383.742C908.679 387.804 905.386 391.097 901.325 391.097C897.263 391.097 893.97 387.804 893.97 383.742C893.97 379.681 897.263 376.388 901.325 376.388C905.386 376.388 908.679 379.681 908.679 383.742Z" fill="#0626A9"/>
<path d="M908.679 383.742C908.679 387.804 905.386 391.097 901.325 391.097C897.263 391.097 893.97 387.804 893.97 383.742C893.97 379.681 897.263 376.388 901.325 376.388C905.386 376.388 908.679 379.681 908.679 383.742Z" stroke="#0626A9" stroke-width="2" stroke-linecap="round" stroke-linejoin="round"/>
</g>
<mask id="mask3_2_8946" style="mask-type:luminance" maskUnits="userSpaceOnUse" x="51" y="114" width="1498" height="1499">
<path d="M51 114.665H1549V1612.66H51V114.665Z" fill="white"/>
</mask>
<g mask="url(#mask3_2_8946)">
<path d="M485.081 655.682L279.424 668.401L262.435 393.702L468.092 380.983L485.081 655.682Z" fill="white"/>
<path d="M485.081 655.682L279.424 668.401L262.435 393.702L468.092 380.983L485.081 655.682Z" stroke="#0626A9" stroke-width="2" stroke-linecap="round" stroke-linejoin="round"/>
<path d="M293.58 592.468C293.58 592.468 304.178 591.813 319.288 590.878" stroke="#0626A9" stroke-width="2" stroke-linecap="round" stroke-linejoin="round"/>
<path d="M423.975 543.619L290.915 551.849L288.201 507.95L421.26 499.72L423.975 543.619Z" fill="#84AAE4"/>
<path d="M423.975 543.619L290.915 551.849L288.201 507.95L421.26 499.72L423.975 543.619Z" stroke="#0626A9" stroke-width="2" stroke-linecap="round" stroke-linejoin="round"/>
<path d="M285.839 467.313L348.186 463.457" stroke="#0626A9" stroke-width="2" stroke-linecap="round" stroke-linejoin="round"/>
<path d="M520.242 377.758C522.023 406.559 500.119 431.351 471.318 433.131C442.517 434.913 417.725 413.009 415.944 384.208C414.163 355.407 436.067 330.615 464.867 328.834C493.668 327.052 518.46 348.956 520.242 377.758Z" fill="#8869D5"/>
<path d="M520.242 377.758C522.023 406.559 500.119 431.351 471.318 433.131C442.517 434.913 417.725 413.009 415.944 384.208C414.163 355.407 436.067 330.615 464.867 328.834C493.668 327.052 518.46 348.956 520.242 377.758Z" stroke="#0626A9" stroke-width="2" stroke-linecap="round" stroke-linejoin="round"/>
<path d="M458.727 393.848L436.496 380.958L454.576 362.697" stroke="#0626A9" stroke-width="2" stroke-linecap="round" stroke-linejoin="round"/>
<path d="M481.09 390.869L499.171 372.608L476.939 359.718" stroke="#0626A9" stroke-width="2" stroke-linecap="round" stroke-linejoin="round"/>
</g>
<path d="M777.62 545.321V601.015H697.848L679.022 621.863V545.321H777.62Z" fill="#84AAE4"/>
<path d="M777.62 545.321V601.015H697.848L679.022 621.863V545.321H777.62Z" stroke="#0626A9" stroke-width="2" stroke-linecap="round" stroke-linejoin="round"/>
<path d="M760.132 573.168C760.132 573.168 714.099 573.252 714.099 573.168C709.418 573.193 704.327 573.193 699.587 573.168C699.587 573.134 699.478 573.168 699.478 573.168" stroke="#0626A9" stroke-width="2" stroke-linecap="round" stroke-linejoin="round"/>
<path d="M807.932 599.624V655.318H887.704L906.53 676.166V599.624H807.932Z" fill="white"/>
<path d="M807.932 599.624V655.318H887.704L906.53 676.166V599.624H807.932Z" stroke="#0626A9" stroke-width="2" stroke-linecap="round" stroke-linejoin="round"/>
<path d="M825.421 627.471C825.421 627.471 849.803 627.554 849.803 627.471C852.026 619.011 862.266 619.07 864.315 627.471C864.315 627.437 886.075 627.471 886.075 627.471" stroke="#0626A9" stroke-width="2" stroke-linecap="round" stroke-linejoin="round"/>
<mask id="mask4_2_8946" style="mask-type:luminance" maskUnits="userSpaceOnUse" x="51" y="51" width="1498" height="1498">
<path d="M51 51H1549V1549H51V51Z" fill="white"/>
</mask>
<g mask="url(#mask4_2_8946)">
<path d="M423.628 1030.62L725.879 1033.7L727.836 841.708L425.585 838.627L423.628 1030.62Z" fill="white"/>
<path d="M423.628 1030.62L725.879 1033.7L727.836 841.708L425.585 838.627L423.628 1030.62Z" stroke="#0626A9" stroke-width="2" stroke-linecap="round" stroke-linejoin="round"/>
<path d="M425.584 838.628L727.835 841.708L728.229 803.081L425.978 800L425.584 838.628Z" fill="#0626A9"/>
<path d="M710.904 822.22C710.853 827.179 706.793 831.158 701.833 831.108C696.874 831.057 692.895 826.996 692.945 822.037C692.996 817.078 697.057 813.099 702.016 813.15C706.975 813.2 710.954 817.261 710.904 822.22Z" fill="white"/>
<path d="M710.904 822.22C710.853 827.179 706.793 831.158 701.833 831.108C696.874 831.057 692.895 826.996 692.945 822.037C692.996 817.078 697.057 813.099 702.016 813.15C706.975 813.2 710.954 817.261 710.904 822.22Z" stroke="#0626A9" stroke-width="2" stroke-linecap="round" stroke-linejoin="round"/>
<path d="M671.488 821.818C671.438 826.778 667.376 830.757 662.417 830.706C657.459 830.656 653.48 826.594 653.53 821.635C653.581 816.676 657.641 812.697 662.601 812.748C667.56 812.798 671.539 816.859 671.488 821.818Z" fill="white"/>
<path d="M671.488 821.818C671.438 826.778 667.376 830.757 662.417 830.706C657.459 830.656 653.48 826.594 653.53 821.635C653.581 816.676 657.641 812.697 662.601 812.748C667.56 812.798 671.539 816.859 671.488 821.818Z" stroke="#0626A9" stroke-width="2" stroke-linecap="round" stroke-linejoin="round"/>
<path d="M632.071 821.417C632.021 826.376 627.959 830.355 623.001 830.304C618.042 830.254 614.063 826.193 614.113 821.233C614.164 816.275 618.224 812.296 623.184 812.346C628.143 812.397 632.122 816.457 632.071 821.417Z" fill="white"/>
<path d="M632.071 821.417C632.021 826.376 627.959 830.355 623.001 830.304C618.042 830.254 614.063 826.193 614.113 821.233C614.164 816.275 618.224 812.296 623.184 812.346C628.143 812.397 632.122 816.457 632.071 821.417Z" stroke="#0626A9" stroke-width="2" stroke-linecap="round" stroke-linejoin="round"/>
<path d="M657.41 988.289L493.007 986.61L494.053 884.043L658.456 885.719L657.41 988.289Z" fill="#8869D5"/>
<path d="M657.41 988.289L493.007 986.61L494.053 884.043L658.456 885.719L657.41 988.289Z" stroke="#0626A9" stroke-width="2" stroke-linecap="round" stroke-linejoin="round"/>
</g>
<path d="M1157.81 1156.02H1409.56L1433.35 981.302C1433.87 977.505 1431.21 974.428 1427.41 974.428H1189.41C1185.6 974.428 1182.11 977.505 1181.6 981.302L1157.81 1156.02Z" fill="#0626A9"/>
<path d="M1171.57 1152.94H1419.06L1442.45 981.186C1442.95 977.454 1440.34 974.428 1436.6 974.428H1202.63C1198.9 974.428 1195.46 977.454 1194.95 981.186L1171.57 1152.94Z" fill="white"/>
<path d="M1171.57 1152.94H1419.06L1442.45 981.186C1442.95 977.454 1440.34 974.428 1436.6 974.428H1202.63C1198.9 974.428 1195.46 977.454 1194.95 981.186L1171.57 1152.94Z" stroke="#0626A9" stroke-width="2" stroke-linecap="round" stroke-linejoin="round"/>
<path d="M1295.9 1066.77C1295.06 1072.92 1299.37 1077.9 1305.52 1077.9C1311.67 1077.9 1317.33 1072.92 1318.18 1066.77C1319.01 1060.61 1314.7 1055.62 1308.55 1055.62C1302.4 1055.62 1296.74 1060.61 1295.9 1066.77Z" fill="#0626A9"/>
<path d="M1044.6 1163.74H1402.6C1412.12 1163.74 1419.83 1156.03 1419.83 1146.51H1027.37C1027.37 1156.03 1035.08 1163.74 1044.6 1163.74Z" fill="#0626A9"/>
<path d="M1467.13 1242.34H132.867V1164.48H1467.13V1242.34Z" fill="white"/>
<path d="M1467.13 1242.34H132.867V1164.48H1467.13V1242.34Z" stroke="#0626A9" stroke-width="2" stroke-linecap="round" stroke-linejoin="round"/>
</g>
</g>
</g>
<defs>
<clipPath id="clip0_2_8946">
<rect width="1600" height="1600" fill="white"/>
</clipPath>
</defs>
</svg>
