<svg width="1600" height="1600" viewBox="0 0 1600 1600" fill="none" xmlns="http://www.w3.org/2000/svg">
<g clip-path="url(#clip0_24_26936)">
<mask id="mask0_24_26936" style="mask-type:luminance" maskUnits="userSpaceOnUse" x="190" y="0" width="1600" height="1600">
<path d="M1790 0H190V1600H1790V0Z" fill="white"/>
</mask>
<g mask="url(#mask0_24_26936)">
<path d="M1060.95 589.002C1060.95 594.95 1056.13 599.773 1050.18 599.773C1044.24 599.773 1039.41 594.95 1039.41 589.002C1039.41 583.054 1044.24 578.231 1050.18 578.231C1056.13 578.231 1060.95 583.054 1060.95 589.002Z" fill="white"/>
<path d="M1060.95 589.002C1060.95 594.95 1056.13 599.773 1050.18 599.773C1044.24 599.773 1039.41 594.95 1039.41 589.002C1039.41 583.054 1044.24 578.231 1050.18 578.231C1056.13 578.231 1060.95 583.054 1060.95 589.002Z" stroke="#0626A9" stroke-width="2" stroke-linecap="round" stroke-linejoin="round"/>
<path d="M505.18 419.845C505.18 428.433 498.218 435.395 489.63 435.395C481.042 435.395 474.08 428.433 474.08 419.845C474.08 411.257 481.042 404.295 489.63 404.295C498.218 404.295 505.18 411.257 505.18 419.845Z" fill="white"/>
<path d="M505.18 419.845C505.18 428.433 498.218 435.395 489.63 435.395C481.042 435.395 474.08 428.433 474.08 419.845C474.08 411.257 481.042 404.295 489.63 404.295C498.218 404.295 505.18 411.257 505.18 419.845Z" stroke="#0626A9" stroke-width="2" stroke-linecap="round" stroke-linejoin="round"/>
<path d="M635.274 1214.88C635.274 1221.86 629.617 1227.52 622.639 1227.52C615.661 1227.52 610.004 1221.86 610.004 1214.88C610.004 1207.91 615.661 1202.25 622.639 1202.25C629.617 1202.25 635.274 1207.91 635.274 1214.88Z" fill="#8869D5"/>
<path d="M577.126 544.931C577.126 551.909 571.469 557.566 564.491 557.566C557.513 557.566 551.856 551.909 551.856 544.931C551.856 537.953 557.513 532.296 564.491 532.296C571.469 532.296 577.126 537.953 577.126 544.931Z" fill="#8869D5"/>
<path d="M370.245 1238.32C370.245 1243.4 366.123 1247.52 361.039 1247.52C355.955 1247.52 351.833 1243.4 351.833 1238.32C351.833 1233.23 355.955 1229.11 361.039 1229.11C366.123 1229.11 370.245 1233.23 370.245 1238.32Z" fill="#84AAE4"/>
<path d="M370.245 1238.32C370.245 1243.4 366.123 1247.52 361.039 1247.52C355.955 1247.52 351.833 1243.4 351.833 1238.32C351.833 1233.23 355.955 1229.11 361.039 1229.11C366.123 1229.11 370.245 1233.23 370.245 1238.32Z" stroke="#0626A9" stroke-width="2" stroke-linecap="round" stroke-linejoin="round"/>
<path d="M331.913 911.491C331.913 914.844 329.195 917.562 325.842 917.562C322.489 917.562 319.771 914.844 319.771 911.491C319.771 908.138 322.489 905.42 325.842 905.42C329.195 905.42 331.913 908.138 331.913 911.491Z" fill="#8869D5"/>
<path d="M1245.62 441.993C1245.62 446.53 1241.95 450.208 1237.41 450.208C1232.87 450.208 1229.19 446.53 1229.19 441.993C1229.19 437.456 1232.87 433.778 1237.41 433.778C1241.95 433.778 1245.62 437.456 1245.62 441.993Z" fill="#0626A9"/>
<path d="M1245.62 441.993C1245.62 446.53 1241.95 450.208 1237.41 450.208C1232.87 450.208 1229.19 446.53 1229.19 441.993C1229.19 437.456 1232.87 433.778 1237.41 433.778C1241.95 433.778 1245.62 437.456 1245.62 441.993Z" stroke="#0626A9" stroke-width="2" stroke-linecap="round" stroke-linejoin="round"/>
<path d="M1106.84 319.513C1106.84 321.782 1105 323.621 1102.73 323.621C1100.46 323.621 1098.62 321.782 1098.62 319.513C1098.62 317.244 1100.46 315.405 1102.73 315.405C1105 315.405 1106.84 317.244 1106.84 319.513Z" fill="#8869D5"/>
<path d="M726.515 1076.02H594.953L651.097 944.462H782.659L726.515 1076.02Z" fill="#84AAE4"/>
<path d="M726.515 1076.02H594.953L651.097 944.462H782.659L726.515 1076.02Z" stroke="#0626A9" stroke-width="2" stroke-linecap="round" stroke-linejoin="round"/>
<path d="M758.196 1001.79L638.347 974.337L651.096 944.462H782.659L758.196 1001.79Z" fill="#0626A9"/>
<path d="M758.196 1001.79L638.347 974.337L651.096 944.462H782.659L758.196 1001.79Z" stroke="#0626A9" stroke-width="2" stroke-linecap="round" stroke-linejoin="round"/>
<path d="M1002.02 963.531H445.607C437.739 963.531 429.307 957.154 426.772 949.286L324.456 631.69C321.921 623.822 326.244 617.445 334.112 617.445H890.529C898.397 617.445 906.829 623.822 909.364 631.69L1011.68 949.286C1014.21 957.154 1009.89 963.531 1002.02 963.531Z" fill="#0626A9"/>
<path d="M1002.02 963.531H445.607C437.739 963.531 429.307 957.154 426.772 949.286L324.456 631.69C321.921 623.822 326.244 617.445 334.112 617.445H890.529C898.397 617.445 906.829 623.822 909.364 631.69L1011.68 949.286C1014.21 957.154 1009.89 963.531 1002.02 963.531Z" stroke="#0626A9" stroke-width="2" stroke-linecap="round" stroke-linejoin="round"/>
<path d="M1022.67 963.531H466.252C458.384 963.531 449.952 957.154 447.417 949.286L345.101 631.69C342.566 623.822 346.889 617.445 354.757 617.445H911.174C919.042 617.445 927.474 623.822 930.009 631.69L1032.33 949.286C1034.86 957.154 1030.54 963.531 1022.67 963.531Z" fill="#84AAE4"/>
<path d="M1022.67 963.531H466.252C458.384 963.531 449.952 957.154 447.417 949.286L345.101 631.69C342.566 623.822 346.889 617.445 354.757 617.445H911.174C919.042 617.445 927.474 623.822 930.009 631.69L1032.33 949.286C1034.86 957.154 1030.54 963.531 1022.67 963.531Z" stroke="#0626A9" stroke-width="2" stroke-linecap="round" stroke-linejoin="round"/>
<path d="M1009.22 942.582H466.207L368.21 638.394H911.219L1009.22 942.582Z" fill="white"/>
<path d="M1009.22 942.582H466.207L368.21 638.394H911.219L1009.22 942.582Z" stroke="#0626A9" stroke-width="2" stroke-linecap="round" stroke-linejoin="round"/>
<path d="M815.747 1061.77H600.84L593.877 1076.59L831.875 1077.9C831.875 1068.99 824.654 1061.77 815.747 1061.77Z" fill="#0626A9"/>
<path d="M1040.87 1110.83H306.328V1077.9H1040.87V1110.83Z" fill="white"/>
<path d="M1040.87 1110.83H306.328V1077.9H1040.87V1110.83Z" stroke="#0626A9" stroke-width="2" stroke-linecap="round" stroke-linejoin="round"/>
<path d="M832.816 883.269H563.021L511.746 720.573H781.541L832.816 883.269Z" fill="white"/>
<path d="M832.816 883.269H563.021L511.746 720.573H781.541L832.816 883.269Z" stroke="#0626A9" stroke-width="2" stroke-linecap="round" stroke-linejoin="round"/>
<path d="M781.54 720.573H511.746L502.188 690.245H771.982L781.54 720.573Z" fill="#0626A9"/>
<path d="M781.54 720.573H511.746L502.188 690.245H771.982L781.54 720.573Z" stroke="#0626A9" stroke-width="2" stroke-linecap="round" stroke-linejoin="round"/>
<path d="M900.416 730.237H630.621L607.288 655.697H877.083L900.416 730.237Z" fill="white"/>
<path d="M900.416 730.237H630.621L607.288 655.697H877.083L900.416 730.237Z" stroke="#0626A9" stroke-width="2" stroke-linecap="round" stroke-linejoin="round"/>
<path d="M877.083 655.697H607.289L597.731 625.369H867.525L877.083 655.697Z" fill="#0626A9"/>
<path d="M877.083 655.697H607.289L597.731 625.369H867.525L877.083 655.697Z" stroke="#0626A9" stroke-width="2" stroke-linecap="round" stroke-linejoin="round"/>
<path d="M634.064 688.374H860.512" stroke="#0626A9" stroke-width="2" stroke-linecap="round" stroke-linejoin="round"/>
<path d="M979.07 688.225H709.275L658 525.529H927.795L979.07 688.225Z" fill="white"/>
<path d="M979.07 688.225H709.275L658 525.529H927.795L979.07 688.225Z" stroke="#0626A9" stroke-width="2" stroke-linecap="round" stroke-linejoin="round"/>
<path d="M927.794 525.529H658L648.442 495.201H918.236L927.794 525.529Z" fill="#0626A9"/>
<path d="M927.794 525.529H658L648.442 495.201H918.236L927.794 525.529Z" stroke="#0626A9" stroke-width="2" stroke-linecap="round" stroke-linejoin="round"/>
<path d="M816.496 649.643H717.35L685.924 550.497H785.07L816.496 649.643Z" fill="white"/>
<path d="M816.496 649.643H717.35L685.924 550.497H785.07L816.496 649.643Z" stroke="#0626A9" stroke-width="2" stroke-linecap="round" stroke-linejoin="round"/>
<path d="M1068.97 436.24H799.174L775.841 361.7H1045.64L1068.97 436.24Z" fill="white"/>
<path d="M1068.97 436.24H799.174L775.841 361.7H1045.64L1068.97 436.24Z" stroke="#0626A9" stroke-width="2" stroke-linecap="round" stroke-linejoin="round"/>
<path d="M1045.64 361.7H775.842L766.284 331.372H1036.08L1045.64 361.7Z" fill="#0626A9"/>
<path d="M1045.64 361.7H775.842L766.284 331.372H1036.08L1045.64 361.7Z" stroke="#0626A9" stroke-width="2" stroke-linecap="round" stroke-linejoin="round"/>
<path d="M809.182 398.97H1035.63" stroke="#0626A9" stroke-width="2" stroke-linecap="round" stroke-linejoin="round"/>
</g>
<g clip-path="url(#clip1_24_26936)">
<g clip-path="url(#clip2_24_26936)">
<path d="M800.631 920.182H590.261L532.275 717.961H742.645L800.631 920.182Z" fill="#84AAE4"/>
<path d="M800.631 920.182H590.261L532.275 717.961H742.645L800.631 920.182Z" stroke="#0626A9" stroke-width="2" stroke-linecap="round" stroke-linejoin="round"/>
<path d="M769.893 856.383H584.411L548.149 729.923H733.631L769.893 856.383Z" fill="white"/>
<path d="M769.893 856.383H584.411L548.149 729.923H733.631L769.893 856.383Z" stroke="#0626A9" stroke-width="2" stroke-linecap="round" stroke-linejoin="round"/>
<mask id="mask1_24_26936" style="mask-type:alpha" maskUnits="userSpaceOnUse" x="547" y="728" width="224" height="130">
<path d="M769.893 856.383H584.411L548.149 729.923H733.631L769.893 856.383Z" fill="white"/>
<path d="M769.893 856.383H584.411L548.149 729.923H733.631L769.893 856.383Z" stroke="#202870" stroke-width="2" stroke-linecap="round" stroke-linejoin="round"/>
</mask>
<g mask="url(#mask1_24_26936)">
<path d="M937.311 793.39L955.374 856.382H584.414L566.351 793.39C577.68 787.354 592.184 788.238 607.45 789.69C617.3 790.632 627.523 793.256 637.42 796.803C647.216 800.312 656.638 805.377 666.45 808.799C685.197 815.346 703.05 815.009 718.315 808.992C729.93 804.407 740.733 798.697 751.831 793.39C763.16 787.354 777.664 788.238 792.93 789.69C802.78 790.632 813.002 793.256 822.9 796.803C832.696 800.312 842.118 805.377 851.93 808.799C870.677 815.346 888.53 815.009 903.795 808.992C915.41 804.407 926.213 798.697 937.311 793.39Z" fill="#8869D5"/>
<path d="M937.311 793.39L955.374 856.382H584.414L566.351 793.39C577.68 787.354 592.184 788.238 607.45 789.69C617.3 790.632 627.523 793.256 637.42 796.803C647.216 800.312 656.638 805.377 666.45 808.799C685.197 815.346 703.05 815.009 718.315 808.992C729.93 804.407 740.733 798.697 751.831 793.39C763.16 787.354 777.664 788.238 792.93 789.69C802.78 790.632 813.002 793.256 822.9 796.803C832.696 800.312 842.118 805.377 851.93 808.799C870.677 815.346 888.53 815.009 903.795 808.992C915.41 804.407 926.213 798.697 937.311 793.39Z" stroke="#0626A9" stroke-width="2" stroke-linecap="round" stroke-linejoin="round"/>
</g>
<path d="M769.893 856.383H584.411L548.149 729.923H733.631L769.893 856.383Z" stroke="#0626A9" stroke-width="2" stroke-linecap="round" stroke-linejoin="round"/>
<path d="M625.263 888.282C627.676 896.698 622.535 903.52 613.78 903.52C605.025 903.52 595.972 896.698 593.559 888.282C591.146 879.867 596.286 873.044 605.041 873.044C613.796 873.044 622.85 879.867 625.263 888.282Z" fill="white"/>
<path d="M625.263 888.282C627.676 896.698 622.535 903.52 613.78 903.52C605.025 903.52 595.972 896.698 593.559 888.282C591.146 879.867 596.286 873.044 605.041 873.044C613.796 873.044 622.85 879.867 625.263 888.282Z" stroke="#0626A9" stroke-width="2" stroke-linecap="round" stroke-linejoin="round"/>
<path d="M637.411 888.282H720.373" stroke="#0626A9" stroke-width="2" stroke-linecap="round" stroke-linejoin="round"/>
<path d="M1056.63 920.182H846.261L788.275 717.961H998.645L1056.63 920.182Z" fill="#84AAE4"/>
<path d="M1056.63 920.182H846.261L788.275 717.961H998.645L1056.63 920.182Z" stroke="#0626A9" stroke-width="2" stroke-linecap="round" stroke-linejoin="round"/>
</g>
</g>
<g clip-path="url(#clip3_24_26936)">
<g clip-path="url(#clip4_24_26936)">
<path d="M725.825 760.182H515.455L457.469 557.961H667.839L725.825 760.182Z" fill="#84AAE4"/>
<path d="M725.825 760.182H515.455L457.469 557.961H667.839L725.825 760.182Z" stroke="#0626A9" stroke-width="2" stroke-linecap="round" stroke-linejoin="round"/>
<path d="M981.825 760.182H771.455L713.469 557.961H923.839L981.825 760.182Z" fill="#84AAE4"/>
<path d="M981.825 760.182H771.455L713.469 557.961H923.839L981.825 760.182Z" stroke="#0626A9" stroke-width="2" stroke-linecap="round" stroke-linejoin="round"/>
<path d="M951.087 696.383H765.605L729.343 569.923H914.825L951.087 696.383Z" fill="white"/>
<path d="M951.087 696.383H765.605L729.343 569.923H914.825L951.087 696.383Z" stroke="#0626A9" stroke-width="2" stroke-linecap="round" stroke-linejoin="round"/>
<path d="M874.498 633.153C879.717 651.354 868.599 666.108 849.665 666.108C830.731 666.108 811.151 651.354 805.932 633.153C800.713 614.952 811.831 600.198 830.765 600.198C849.699 600.198 869.279 614.952 874.498 633.153Z" fill="#0626A9"/>
<path d="M874.498 633.153C879.717 651.354 868.599 666.108 849.665 666.108C830.731 666.108 811.151 651.354 805.932 633.153C800.713 614.952 811.831 600.198 830.765 600.198C849.699 600.198 869.279 614.952 874.498 633.153Z" stroke="#0626A9" stroke-width="2" stroke-linecap="round" stroke-linejoin="round"/>
<path d="M834.427 645.707L827.228 620.599L856.947 633.153L834.427 645.707Z" fill="white"/>
<path d="M834.427 645.707L827.228 620.599L856.947 633.153L834.427 645.707Z" stroke="#0626A9" stroke-width="2" stroke-linecap="round" stroke-linejoin="round"/>
<path d="M806.456 728.282C808.869 736.698 803.729 743.52 794.974 743.52C786.219 743.52 777.165 736.698 774.752 728.282C772.339 719.867 777.48 713.044 786.235 713.044C794.99 713.044 804.043 719.867 806.456 728.282Z" fill="white"/>
<path d="M806.456 728.282C808.869 736.698 803.729 743.52 794.974 743.52C786.219 743.52 777.165 736.698 774.752 728.282C772.339 719.867 777.48 713.044 786.235 713.044C794.99 713.044 804.043 719.867 806.456 728.282Z" stroke="#0626A9" stroke-width="2" stroke-linecap="round" stroke-linejoin="round"/>
<path d="M818.604 728.282H901.566" stroke="#0626A9" stroke-width="2" stroke-linecap="round" stroke-linejoin="round"/>
</g>
</g>
</g>
<defs>
<clipPath id="clip0_24_26936">
<rect width="1600" height="1600" fill="white"/>
</clipPath>
<clipPath id="clip1_24_26936">
<rect width="211" height="211" fill="white" transform="matrix(1 0 0.275637 0.961262 531 717)"/>
</clipPath>
<clipPath id="clip2_24_26936">
<rect width="466.37" height="477.383" fill="white" transform="matrix(1 0 0.275637 0.961262 532.275 717.961)"/>
</clipPath>
<clipPath id="clip3_24_26936">
<rect width="220.519" height="211" fill="white" transform="matrix(1 0 0.275637 0.961262 710 557)"/>
</clipPath>
<clipPath id="clip4_24_26936">
<rect width="466.37" height="477.383" fill="white" transform="matrix(1 0 0.275637 0.961262 457.469 557.961)"/>
</clipPath>
</defs>
</svg>
