<svg width="1600" height="1600" viewBox="0 0 1600 1600" fill="none" xmlns="http://www.w3.org/2000/svg">
<g clip-path="url(#clip0_24_24003)">
<mask id="mask0_24_24003" style="mask-type:luminance" maskUnits="userSpaceOnUse" x="0" y="0" width="1600" height="1600">
<path d="M1600 0H0V1600H1600V0Z" fill="white"/>
</mask>
<g mask="url(#mask0_24_24003)">
<mask id="mask1_24_24003" style="mask-type:luminance" maskUnits="userSpaceOnUse" x="0" y="0" width="1600" height="1600">
<path d="M0 0H1600V1600H0V0Z" fill="white"/>
</mask>
<g mask="url(#mask1_24_24003)">
<path d="M1103.43 1079.48L1260.3 994.084" stroke="#0626A9" stroke-width="2" stroke-linecap="round" stroke-linejoin="round" stroke-dasharray="100 100"/>
<path d="M1054.92 980.995L1527.89 347.677" stroke="#0626A9" stroke-width="2" stroke-linecap="round" stroke-linejoin="round" stroke-dasharray="130 130"/>
<path d="M996.072 916.769L1385.63 118.921" stroke="#0626A9" stroke-width="2" stroke-linecap="round" stroke-linejoin="round" stroke-dasharray="164 164"/>
<path d="M791.766 279.162L787.021 57.912" stroke="#0626A9" stroke-width="2" stroke-linecap="round" stroke-linejoin="round" stroke-dasharray="100 100"/>
<path d="M630.788 868.225L367.621 134.095" stroke="#0626A9" stroke-width="2" stroke-linecap="round" stroke-linejoin="round" stroke-dasharray="150 210"/>
<path d="M113.988 374.906L520.105 950.017" stroke="#0626A9" stroke-width="2" stroke-linecap="round" stroke-linejoin="round" stroke-dasharray="216 100"/>
<path d="M224.025 921.396L449.659 1060.36" stroke="#0626A9" stroke-width="2" stroke-linecap="round" stroke-linejoin="round" stroke-dasharray="100 100"/>
</g>
<path d="M803.911 814.718L326.485 594.301L386.948 463.339L864.374 683.755L803.911 814.718Z" fill="white"/>
<path d="M803.911 814.718L326.485 594.301L386.948 463.339L864.374 683.755L803.911 814.718Z" stroke="#0626A9" stroke-width="2" stroke-linecap="round" stroke-linejoin="round"/>
<path d="M600.874 607.239L387.922 508.924L397.224 488.775L610.176 587.091L600.874 607.239Z" fill="#84AAE4"/>
<path d="M352.511 585.623L620.833 709.502" stroke="#0626A9" stroke-width="2" stroke-linecap="round" stroke-linejoin="round"/>
<path d="M366.279 555.802L745.345 730.809" stroke="#0626A9" stroke-width="2" stroke-linecap="round" stroke-linejoin="round"/>
<path d="M380.047 525.982L776.338 708.942" stroke="#0626A9" stroke-width="2" stroke-linecap="round" stroke-linejoin="round"/>
<path d="M678.495 1077.38L344.573 983.441L413.065 739.977L746.987 833.918L678.495 1077.38Z" fill="#84AAE4"/>
<path d="M678.495 1077.38L344.573 983.441L413.065 739.977L746.987 833.918L678.495 1077.38Z" stroke="#0626A9" stroke-width="2" stroke-linecap="round" stroke-linejoin="round"/>
<path d="M652.949 1032.27L389.893 958.264L438.611 785.091L701.667 859.095L652.949 1032.27Z" fill="white"/>
<path d="M1380.87 947.708L865.189 1215.09L817.168 1122.48L1332.85 855.094L1380.87 947.708Z" fill="white"/>
<path d="M1380.87 947.708L865.189 1215.09L817.168 1122.48L1332.85 855.094L1380.87 947.708Z" stroke="#0626A9" stroke-width="2" stroke-linecap="round" stroke-linejoin="round"/>
<path d="M954.829 1129.44C954.829 1129.44 997.515 1107.31 1022.12 1094.55" stroke="#0626A9" stroke-width="2" stroke-linecap="round" stroke-linejoin="round"/>
<path d="M1074.46 1067.41C1074.46 1067.41 1219.94 991.979 1263.83 969.226Z" fill="white"/>
<path d="M1074.46 1067.41C1074.46 1067.41 1219.94 991.979 1263.83 969.226" stroke="#0626A9" stroke-width="2" stroke-linecap="round" stroke-linejoin="round"/>
<path d="M939.506 1098.22L1003.56 1065" stroke="#0626A9" stroke-width="2" stroke-linecap="round" stroke-linejoin="round"/>
<path d="M924.923 1149.48L887.757 1171.31L865.931 1134.14L903.097 1112.32L924.923 1149.48Z" fill="#8869D5"/>
<path d="M1204.91 772.662C1215.15 729.835 1188.72 686.818 1145.9 676.582C1103.07 666.346 1060.05 692.767 1049.82 735.594C1039.58 778.421 1066 821.438 1108.83 831.674C1151.66 841.91 1194.67 815.489 1204.91 772.662Z" fill="white"/>
<path d="M1204.91 772.662C1215.15 729.835 1188.72 686.818 1145.9 676.582C1103.07 666.346 1060.05 692.767 1049.82 735.594C1039.58 778.421 1066 821.438 1108.83 831.674C1151.66 841.91 1194.67 815.489 1204.91 772.662Z" stroke="#0626A9" stroke-width="2" stroke-linecap="round" stroke-linejoin="round"/>
<path d="M1061.28 550.559C1058.44 524.485 1035 505.653 1008.92 508.496C982.847 511.34 964.014 534.783 966.858 560.857C969.702 586.932 993.144 605.764 1019.22 602.92C1045.29 600.077 1064.13 576.634 1061.28 550.559Z" stroke="#0626A9" stroke-width="2" stroke-linecap="round" stroke-linejoin="round"/>
<path d="M1011.25 529.804L1016.9 581.613" stroke="#0626A9" stroke-width="2" stroke-linecap="round" stroke-linejoin="round"/>
<path d="M1039.97 552.883L988.166 558.533" stroke="#0626A9" stroke-width="2" stroke-linecap="round" stroke-linejoin="round"/>
<path d="M370.822 701.41C360.783 673.342 329.89 658.726 301.822 668.766C273.754 678.805 259.139 709.698 269.178 737.765C279.217 765.833 310.11 780.449 338.178 770.409C366.245 760.37 380.861 729.477 370.822 701.41Z" fill="white"/>
<path d="M370.822 701.41C360.783 673.342 329.89 658.726 301.822 668.766C273.754 678.805 259.139 709.698 269.178 737.765C279.217 765.833 310.11 780.449 338.178 770.409C366.245 760.37 380.861 729.477 370.822 701.41Z" stroke="#0626A9" stroke-width="2" stroke-linecap="round" stroke-linejoin="round"/>
<path d="M346.586 710.078L296.748 701.004L313.809 748.702L346.586 710.078Z" fill="#84AAE4"/>
<path d="M477.265 1051.01L450.278 940.905L362.817 1013.02L401.029 1025.71L385.84 1071.47L423.864 1084.09L439.053 1038.32L477.265 1051.01Z" fill="white"/>
<path d="M477.265 1051.01L450.278 940.905L362.817 1013.02L401.029 1025.71L385.84 1071.47L423.864 1084.09L439.053 1038.32L477.265 1051.01Z" stroke="#0626A9" stroke-width="2" stroke-linecap="round" stroke-linejoin="round"/>
<path d="M1043.26 843.979L646.384 1062.9L496.419 791.024L893.292 572.108L1043.26 843.979Z" fill="white"/>
<path d="M1043.26 843.979L646.384 1062.9L496.419 791.024L893.292 572.108L1043.26 843.979Z" stroke="#0626A9" stroke-width="2" stroke-linecap="round" stroke-linejoin="round"/>
<path d="M999.961 846.38L760.943 978.223L629.101 739.205L868.118 607.363L999.961 846.38Z" fill="white"/>
<path d="M999.961 846.38L760.943 978.223L629.101 739.205L868.118 607.363L999.961 846.38Z" stroke="#0626A9" stroke-width="2" stroke-linecap="round" stroke-linejoin="round"/>
<path d="M780.856 725.172C780.074 715.087 771.263 707.544 761.177 708.327C751.091 709.109 743.549 717.919 744.331 728.005C745.114 738.091 753.924 745.633 764.01 744.851C774.096 744.069 781.638 735.258 780.856 725.172Z" fill="#8869D5"/>
<path d="M711.581 888.734L742.855 790.032L812.013 800.426L836.458 688.248L919.92 701.276L999.959 846.379L760.943 978.222L711.581 888.734Z" fill="#84AAE4"/>
<path d="M711.581 888.734L742.855 790.032L812.013 800.426L836.458 688.248L919.92 701.276L999.959 846.379L760.943 978.222L711.581 888.734Z" stroke="#0626A9" stroke-width="2" stroke-linecap="round" stroke-linejoin="round"/>
<path d="M999.689 1070.09C1023.56 1018.04 1000.72 956.505 948.673 932.636C896.629 908.767 835.09 931.607 811.221 983.652C787.352 1035.7 810.192 1097.24 862.237 1121.1C914.281 1144.97 975.82 1122.13 999.689 1070.09Z" fill="white"/>
<path d="M999.689 1070.09C1023.56 1018.04 1000.72 956.505 948.673 932.636C896.629 908.767 835.09 931.607 811.221 983.652C787.352 1035.7 810.192 1097.24 862.237 1121.1C914.281 1144.97 975.82 1122.13 999.689 1070.09Z" stroke="#0626A9" stroke-width="2" stroke-linecap="round" stroke-linejoin="round"/>
<path d="M966.994 1014.93L905.456 1026.87L874.354 972.446" stroke="white" stroke-width="2" stroke-miterlimit="10"/>
<path d="M649.116 902.65C685.48 861.995 682.003 799.559 641.348 763.195C600.693 726.831 538.257 730.308 501.893 770.963C465.529 811.618 469.006 874.054 509.661 910.418C550.316 946.782 612.752 943.305 649.116 902.65Z" fill="white"/>
<path d="M649.116 902.65C685.48 861.995 682.003 799.559 641.348 763.195C600.693 726.831 538.257 730.308 501.893 770.963C465.529 811.618 469.006 874.054 509.661 910.418C550.316 946.782 612.752 943.305 649.116 902.65Z" stroke="#0626A9" stroke-width="2" stroke-linecap="round" stroke-linejoin="round"/>
<path d="M542.547 856.281L599.575 792.524C601.921 789.902 605.947 789.677 608.569 792.022L616.338 798.972C618.96 801.317 619.185 805.344 616.84 807.966L559.811 871.723L542.547 856.281Z" fill="#8869D5"/>
<path d="M542.547 856.281L599.575 792.524C601.921 789.902 605.947 789.677 608.569 792.022L616.338 798.972C618.96 801.317 619.185 805.344 616.84 807.966L559.811 871.723L542.547 856.281Z" stroke="#8869D5" stroke-miterlimit="10"/>
<path d="M538.555 878.116L559.81 871.723L542.547 856.282L538.555 878.116Z" stroke="#0626A9" stroke-width="2" stroke-linecap="round" stroke-linejoin="round"/>
<path d="M597.95 794.342L615.214 809.784L616.84 807.965C619.185 805.344 618.96 801.317 616.338 798.972L608.569 792.023C605.947 789.678 601.921 789.902 599.575 792.524L597.95 794.342Z" fill="white"/>
<path d="M597.95 794.342L615.214 809.784L616.84 807.965C619.185 805.344 618.96 801.317 616.338 798.972L608.569 792.023C605.947 789.678 601.921 789.902 599.575 792.524L597.95 794.342Z" stroke="#0626A9" stroke-width="2" stroke-linecap="round" stroke-linejoin="round"/>
<path d="M609.092 882.387L526.475 808.489L541.916 791.226L624.534 865.124L609.092 882.387Z" fill="white"/>
<path d="M609.092 882.387L526.475 808.489L541.916 791.226L624.534 865.124L609.092 882.387Z" stroke="#0626A9" stroke-width="2" stroke-linecap="round" stroke-linejoin="round"/>
<path d="M547.964 812.174L555.686 803.543" stroke="#0626A9" stroke-width="2" stroke-linecap="round" stroke-linejoin="round"/>
<path d="M561.734 824.491L569.455 815.859" stroke="#0626A9" stroke-width="2" stroke-linecap="round" stroke-linejoin="round"/>
<path d="M575.504 836.806L583.226 828.175" stroke="#0626A9" stroke-width="2" stroke-linecap="round" stroke-linejoin="round"/>
<path d="M589.274 849.123L596.995 840.491" stroke="#0626A9" stroke-width="2" stroke-linecap="round" stroke-linejoin="round"/>
<path d="M603.043 861.44L610.765 852.808" stroke="#0626A9" stroke-width="2" stroke-linecap="round" stroke-linejoin="round"/>
<path d="M672.769 1057.89C678.592 1030.66 661.238 1003.86 634.008 998.04C606.779 992.218 579.985 1009.57 574.162 1036.8C568.34 1064.03 585.694 1090.82 612.923 1096.65C640.152 1102.47 666.947 1085.12 672.769 1057.89Z" fill="white"/>
<path d="M672.769 1057.89C678.592 1030.66 661.238 1003.86 634.008 998.04C606.779 992.218 579.985 1009.57 574.162 1036.8C568.34 1064.03 585.694 1090.82 612.923 1096.65C640.152 1102.47 666.947 1085.12 672.769 1057.89Z" stroke="#0626A9" stroke-width="2" stroke-linecap="round" stroke-linejoin="round"/>
<mask id="mask2_24_24003" style="mask-type:alpha" maskUnits="userSpaceOnUse" x="600" y="1035" width="59" height="30">
<path d="M602.002 1038.95L617.483 1062.85L656.456 1037.61" stroke="#202870" stroke-width="4" stroke-linecap="round" stroke-linejoin="round"/>
</mask>
<g mask="url(#mask2_24_24003)">
<path d="M602.002 1038.95L617.483 1062.85L656.456 1037.61" stroke="#0626A9" stroke-width="2" stroke-linecap="round" stroke-linejoin="round"/>
</g>
</g>
<g clip-path="url(#clip1_24_24003)">
<g clip-path="url(#clip2_24_24003)">
<path d="M1042.96 1071.9L849.171 1153.76L767.311 959.973L961.1 878.112L1042.96 1071.9Z" fill="#84AAE4"/>
<path d="M1042.96 1071.9L849.171 1153.76L767.311 959.973L961.1 878.112L1042.96 1071.9Z" stroke="#0626A9" stroke-width="2" stroke-linecap="round" stroke-linejoin="round"/>
<path d="M1005.67 1015.6L834.808 1087.78L783.616 966.593L954.479 894.418L1005.67 1015.6Z" fill="white"/>
<path d="M1005.67 1015.6L834.808 1087.78L783.616 966.593L954.479 894.418L1005.67 1015.6Z" stroke="#0626A9" stroke-width="2" stroke-linecap="round" stroke-linejoin="round"/>
<mask id="mask3_24_24003" style="mask-type:alpha" maskUnits="userSpaceOnUse" x="782" y="893" width="225" height="196">
<path d="M1005.67 1015.6L834.808 1087.78L783.616 966.593L954.479 894.418L1005.67 1015.6Z" fill="white"/>
<path d="M1005.67 1015.6L834.808 1087.78L783.616 966.593L954.479 894.418L1005.67 1015.6Z" stroke="#202870" stroke-width="2" stroke-linecap="round" stroke-linejoin="round"/>
</mask>
<g mask="url(#mask3_24_24003)">
<path d="M1151.03 883.063L1176.53 943.428L834.811 1087.78L809.311 1027.41C818.898 1016.55 832.383 1011.85 846.65 1007.46C855.857 1004.64 865.642 1003.47 875.258 1003.41C884.776 1003.35 894.168 1005.11 903.688 1004.95C921.878 1004.66 938.277 997.35 951.492 984.972C961.547 975.547 970.695 965.234 980.172 955.238C989.759 944.371 1003.24 939.674 1017.51 935.286C1026.72 932.461 1036.5 931.291 1046.12 931.235C1055.64 931.177 1065.03 932.93 1074.55 932.773C1092.74 932.482 1109.14 925.175 1122.35 912.797C1132.41 903.371 1141.56 893.059 1151.03 883.063Z" fill="#8869D5"/>
<path d="M1151.03 883.063L1176.53 943.428L834.811 1087.78L809.311 1027.41C818.898 1016.55 832.383 1011.85 846.65 1007.46C855.857 1004.64 865.642 1003.47 875.258 1003.41C884.776 1003.35 894.168 1005.11 903.688 1004.95C921.878 1004.66 938.277 997.35 951.492 984.972C961.547 975.547 970.695 965.234 980.172 955.238C989.759 944.371 1003.24 939.674 1017.51 935.286C1026.72 932.461 1036.5 931.291 1046.12 931.235C1055.64 931.177 1065.03 932.93 1074.55 932.773C1092.74 932.482 1109.14 925.175 1122.35 912.797C1132.41 903.371 1141.56 893.059 1151.03 883.063Z" stroke="#0626A9" stroke-width="2" stroke-linecap="round" stroke-linejoin="round"/>
</g>
<path d="M1005.67 1015.6L834.808 1087.78L783.616 966.593L954.479 894.418L1005.67 1015.6Z" stroke="#0626A9" stroke-width="2" stroke-linecap="round" stroke-linejoin="round"/>
<path d="M876.926 1106.01C880.333 1114.08 876.557 1123.38 868.492 1126.78C860.427 1130.19 851.128 1126.42 847.721 1118.35C844.314 1110.29 848.09 1100.99 856.155 1097.58C864.22 1094.17 873.52 1097.95 876.926 1106.01Z" fill="white"/>
<path d="M876.926 1106.01C880.333 1114.08 876.557 1123.38 868.492 1126.78C860.427 1130.19 851.128 1126.42 847.721 1118.35C844.314 1110.29 848.09 1100.99 856.155 1097.58C864.22 1094.17 873.52 1097.95 876.926 1106.01Z" stroke="#0626A9" stroke-width="2" stroke-linecap="round" stroke-linejoin="round"/>
<path d="M888.118 1101.29L964.541 1069" stroke="#0626A9" stroke-width="2" stroke-linecap="round" stroke-linejoin="round"/>
<path d="M1278.78 972.285L1084.99 1054.15L1003.13 860.356L1196.92 778.496L1278.78 972.285Z" fill="#84AAE4"/>
<path d="M1278.78 972.285L1084.99 1054.15L1003.13 860.356L1196.92 778.496L1278.78 972.285Z" stroke="#0626A9" stroke-width="2" stroke-linecap="round" stroke-linejoin="round"/>
<path d="M1241.49 915.988L1070.63 988.164L1019.44 866.977L1190.3 794.801L1241.49 915.988Z" fill="white"/>
<path d="M1241.49 915.988L1070.63 988.164L1019.44 866.977L1190.3 794.801L1241.49 915.988Z" stroke="#0626A9" stroke-width="2" stroke-linecap="round" stroke-linejoin="round"/>
<path d="M1146.86 1317.87L953.072 1399.73L871.212 1205.94L1065 1124.08L1146.86 1317.87Z" fill="#84AAE4"/>
<path d="M1146.86 1317.87L953.072 1399.73L871.212 1205.94L1065 1124.08L1146.86 1317.87Z" stroke="#0626A9" stroke-width="2" stroke-linecap="round" stroke-linejoin="round"/>
<path d="M1109.57 1261.57L938.71 1333.75L887.519 1212.56L1058.38 1140.39L1109.57 1261.57Z" fill="white"/>
<path d="M1109.57 1261.57L938.71 1333.75L887.519 1212.56L1058.38 1140.39L1109.57 1261.57Z" stroke="#0626A9" stroke-width="2" stroke-linecap="round" stroke-linejoin="round"/>
</g>
</g>
<g clip-path="url(#clip3_24_24003)">
<g clip-path="url(#clip4_24_24003)">
<path d="M958.209 815.282L755.812 757.916L813.178 555.519L1015.58 612.885L958.209 815.282Z" fill="#84AAE4"/>
<path d="M958.209 815.282L755.812 757.916L813.178 555.519L1015.58 612.885L958.209 815.282Z" stroke="#0626A9" stroke-width="2" stroke-linecap="round" stroke-linejoin="round"/>
<path d="M1204.51 885.091L1002.11 827.725L1059.48 625.328L1261.87 682.694L1204.51 885.091Z" fill="#84AAE4"/>
<path d="M1204.51 885.091L1002.11 827.725L1059.48 625.328L1261.87 682.694L1204.51 885.091Z" stroke="#0626A9" stroke-width="2" stroke-linecap="round" stroke-linejoin="round"/>
<path d="M1210.63 817.843L1032.18 767.264L1068.05 640.694L1246.51 691.273L1210.63 817.843Z" fill="white"/>
<path d="M1210.63 817.843L1032.18 767.264L1068.05 640.694L1246.51 691.273L1210.63 817.843Z" stroke="#0626A9" stroke-width="2" stroke-linecap="round" stroke-linejoin="round"/>
<path d="M1172.33 738.617C1167.16 756.834 1148.21 767.415 1130 762.252C1111.78 757.089 1101.2 738.136 1106.36 719.92C1111.52 701.703 1130.48 691.122 1148.69 696.285C1166.91 701.448 1177.49 720.401 1172.33 738.617Z" fill="#0626A9"/>
<path d="M1172.33 738.617C1167.16 756.834 1148.21 767.415 1130 762.252C1111.78 757.089 1101.2 738.136 1106.36 719.92C1111.52 701.703 1130.48 691.122 1148.69 696.285C1166.91 701.448 1177.49 720.401 1172.33 738.617Z" stroke="#0626A9" stroke-width="2" stroke-linecap="round" stroke-linejoin="round"/>
<path d="M1126.75 739.274L1133.87 714.143L1155.44 733.831L1126.75 739.274Z" fill="white"/>
<path d="M1126.75 739.274L1133.87 714.143L1155.44 733.831L1126.75 739.274Z" stroke="#0626A9" stroke-width="2" stroke-linecap="round" stroke-linejoin="round"/>
<path d="M1053.63 807.837C1051.25 816.26 1042.48 821.153 1034.06 818.765C1025.64 816.378 1020.74 807.614 1023.13 799.191C1025.52 790.768 1034.28 785.875 1042.71 788.263C1051.13 790.65 1056.02 799.413 1053.63 807.837Z" fill="white"/>
<path d="M1053.63 807.837C1051.25 816.26 1042.48 821.153 1034.06 818.765C1025.64 816.378 1020.74 807.614 1023.13 799.191C1025.52 790.768 1034.28 785.875 1042.71 788.263C1051.13 790.65 1056.02 799.413 1053.63 807.837Z" stroke="#0626A9" stroke-width="2" stroke-linecap="round" stroke-linejoin="round"/>
<path d="M1065.32 811.149L1145.14 833.772" stroke="#0626A9" stroke-width="2" stroke-linecap="round" stroke-linejoin="round"/>
<path d="M1131.7 1141.98L929.298 1084.62L986.664 882.221L1189.06 939.587L1131.7 1141.98Z" fill="#84AAE4"/>
<path d="M1131.7 1141.98L929.298 1084.62L986.664 882.221L1189.06 939.587L1131.7 1141.98Z" stroke="#0626A9" stroke-width="2" stroke-linecap="round" stroke-linejoin="round"/>
</g>
</g>
</g>
<defs>
<clipPath id="clip0_24_24003">
<rect width="1600" height="1600" fill="white"/>
</clipPath>
<clipPath id="clip1_24_24003">
<rect width="217" height="211" fill="white" transform="translate(766 959.44) rotate(-22.9002)"/>
</clipPath>
<clipPath id="clip2_24_24003">
<rect width="466.37" height="477.383" fill="white" transform="translate(767.311 959.973) rotate(-22.9002)"/>
</clipPath>
<clipPath id="clip3_24_24003">
<rect width="210" height="211" fill="white" transform="translate(1059.75 624.366) rotate(15.8245)"/>
</clipPath>
<clipPath id="clip4_24_24003">
<rect width="466.37" height="477.383" fill="white" transform="translate(813.178 555.519) rotate(15.8245)"/>
</clipPath>
</defs>
</svg>
