<svg width="1600" height="1600" viewBox="0 0 1600 1600" fill="none" xmlns="http://www.w3.org/2000/svg">
<g clip-path="url(#clip0_24_27385)">
<mask id="mask0_24_27385" style="mask-type:luminance" maskUnits="userSpaceOnUse" x="0" y="0" width="1600" height="1600">
<path d="M1600 0H0V1600H1600V0Z" fill="white"/>
</mask>
<g mask="url(#mask0_24_27385)">
<path d="M1300.7 424.001H968.403" stroke="#0626A9" stroke-width="2" stroke-linecap="round" stroke-linejoin="round"/>
<path d="M1055.71 424.001L1085.56 488.177L1224.21 487.919L1247.21 424.001" stroke="#0626A9" stroke-width="2" stroke-linecap="round" stroke-linejoin="round"/>
<path d="M1205.05 424.002L1185 460.42H933.444" stroke="#0626A9" stroke-width="2" stroke-linecap="round" stroke-linejoin="round"/>
<mask id="mask1_24_27385" style="mask-type:luminance" maskUnits="userSpaceOnUse" x="0" y="0" width="1600" height="1600">
<path d="M0 0H1600V1600H0V0Z" fill="white"/>
</mask>
<g mask="url(#mask1_24_27385)">
<path d="M962.272 424.001C962.272 431.666 956.059 437.879 948.394 437.879C940.729 437.879 934.516 431.666 934.516 424.001C934.516 416.336 940.729 410.123 948.394 410.123C956.059 410.123 962.272 416.336 962.272 424.001Z" fill="#8869D5"/>
<path d="M962.272 424.001C962.272 431.666 956.059 437.879 948.394 437.879C940.729 437.879 934.516 431.666 934.516 424.001C934.516 416.336 940.729 410.123 948.394 410.123C956.059 410.123 962.272 416.336 962.272 424.001Z" stroke="#0626A9" stroke-width="2" stroke-linecap="round" stroke-linejoin="round"/>
</g>
<path d="M578.507 344.201H258.299" stroke="#0626A9" stroke-width="2" stroke-linecap="round" stroke-linejoin="round"/>
<path d="M333.521 344.201L363.374 408.377L502.019 408.119L525.017 344.201" stroke="#0626A9" stroke-width="2" stroke-linecap="round" stroke-linejoin="round"/>
<path d="M482.855 344.202L462.804 380.62H211.253" stroke="#0626A9" stroke-width="2" stroke-linecap="round" stroke-linejoin="round"/>
<mask id="mask2_24_27385" style="mask-type:luminance" maskUnits="userSpaceOnUse" x="-710" y="-80" width="1600" height="1600">
<path d="M-710 -80H890V1520H-710V-80Z" fill="white"/>
</mask>
<g mask="url(#mask2_24_27385)">
<path d="M600.772 344.001C600.772 351.666 594.559 357.879 586.894 357.879C579.229 357.879 573.016 351.666 573.016 344.001C573.016 336.336 579.229 330.123 586.894 330.123C594.559 330.123 600.772 336.336 600.772 344.001Z" fill="#8869D5"/>
<path d="M600.772 344.001C600.772 351.666 594.559 357.879 586.894 357.879C579.229 357.879 573.016 351.666 573.016 344.001C573.016 336.336 579.229 330.123 586.894 330.123C594.559 330.123 600.772 336.336 600.772 344.001Z" stroke="#0626A9" stroke-width="2" stroke-linecap="round" stroke-linejoin="round"/>
</g>
<path d="M532.966 703.198H1025.69" stroke="#0626A9" stroke-width="2" stroke-linecap="round" stroke-linejoin="round" stroke-dasharray="308 25 20 20"/>
<path d="M375.502 758.797V943.777H683.342" stroke="#0626A9" stroke-width="2" stroke-linecap="round" stroke-linejoin="round" stroke-dasharray="308 25 20 20"/>
<path d="M905.265 488.177V702.155" stroke="#0626A9" stroke-width="2" stroke-linecap="round" stroke-linejoin="round" stroke-dasharray="308 25 20 20"/>
<path d="M532.967 758.797H218.037V573.647H532.967V758.797Z" fill="#84AAE4"/>
<path d="M532.967 758.797H218.037V573.647H532.967V758.797Z" stroke="#0626A9" stroke-width="2" stroke-linecap="round" stroke-linejoin="round"/>
<path d="M256.625 758.797H218.037V573.647H256.625V758.797Z" fill="white"/>
<path d="M256.625 758.797H218.037V573.647H256.625V758.797Z" stroke="#0626A9" stroke-width="2" stroke-linecap="round" stroke-linejoin="round"/>
<path d="M1388.75 844.847H1070.17V631.399H1388.75V844.847Z" fill="#84AAE4"/>
<path d="M1388.75 844.847H1070.17V631.399H1388.75V844.847Z" stroke="#0626A9" stroke-width="2" stroke-linecap="round" stroke-linejoin="round"/>
<path d="M1070.17 844.847H1025.69V631.399H1070.17V844.847Z" stroke="#0626A9" stroke-width="2" stroke-linecap="round" stroke-linejoin="round"/>
<mask id="mask3_24_27385" style="mask-type:luminance" maskUnits="userSpaceOnUse" x="0" y="0" width="1600" height="1600">
<path d="M0 0H1600V1600H0V0Z" fill="white"/>
</mask>
<g mask="url(#mask3_24_27385)">
<path d="M676.599 1126.69H979.79L1065.18 916.278C1067.03 911.706 1064.83 908 1060.26 908H773.626C769.054 908 763.843 911.706 761.988 916.278L676.599 1126.69Z" fill="#0626A9"/>
<path d="M694.118 1123.98H992.168L1076.11 917.137C1077.93 912.643 1075.77 909 1071.27 909H789.499C785.005 909 779.883 912.643 778.059 917.137L694.118 1123.98Z" fill="white"/>
<path d="M694.118 1123.98H992.168L1076.11 917.137C1077.93 912.643 1075.77 909 1071.27 909H789.499C785.005 909 779.883 912.643 778.059 917.137L694.118 1123.98Z" stroke="#0626A9" stroke-width="2" stroke-linecap="round" stroke-linejoin="round"/>
<path d="M871.837 1020.2C868.831 1027.61 872.398 1033.61 879.806 1033.61C887.214 1033.61 895.655 1027.61 898.661 1020.2C901.667 1012.79 898.1 1006.79 890.692 1006.79C883.284 1006.79 874.843 1012.79 871.837 1020.2Z" fill="#0626A9"/>
<path d="M543.75 1136.98H974.888C986.348 1136.98 995.638 1127.69 995.638 1116.23H523C523 1127.69 532.29 1136.98 543.75 1136.98Z" fill="white"/>
<path d="M543.75 1136.98H974.888C986.348 1136.98 995.638 1127.69 995.638 1116.23H523C523 1127.69 532.29 1136.98 543.75 1136.98Z" stroke="#0626A9" stroke-width="2" stroke-linecap="round" stroke-linejoin="round"/>
</g>
<path d="M241.959 1340.4H1387.28" stroke="#0626A9" stroke-width="2" stroke-linecap="round" stroke-linejoin="round"/>
<path d="M968.404 488.177H627.246V259.599H968.404V488.177Z" fill="white"/>
<path d="M968.404 488.177H627.246V259.599H968.404V488.177Z" stroke="#0626A9" stroke-width="2" stroke-linecap="round" stroke-linejoin="round"/>
<path d="M627.246 488.177H579.608V259.599H627.246V488.177Z" fill="#84AAE4"/>
<path d="M627.246 488.177H579.608V259.599H627.246V488.177Z" stroke="#0626A9" stroke-width="2" stroke-linecap="round" stroke-linejoin="round"/>
</g>
</g>
<defs>
<clipPath id="clip0_24_27385">
<rect width="1600" height="1600" fill="white"/>
</clipPath>
</defs>
</svg>
