<svg width="1600" height="1600" viewBox="0 0 1600 1600" fill="none" xmlns="http://www.w3.org/2000/svg">
<g clip-path="url(#clip0_24_28297)">
<mask id="mask0_24_28297" style="mask-type:luminance" maskUnits="userSpaceOnUse" x="0" y="0" width="1600" height="1600">
<path d="M1600 0H0V1600H1600V0Z" fill="white"/>
</mask>
<g mask="url(#mask0_24_28297)">
<mask id="mask1_24_28297" style="mask-type:luminance" maskUnits="userSpaceOnUse" x="0" y="0" width="1600" height="1600">
<path d="M0 0H1600V1600H0V0Z" fill="white"/>
</mask>
<g mask="url(#mask1_24_28297)">
<path d="M1244.41 882.361C1244.41 888.323 1239.58 893.157 1233.62 893.157C1227.66 893.157 1222.82 888.323 1222.82 882.361C1222.82 876.399 1227.66 871.565 1233.62 871.565C1239.58 871.565 1244.41 876.399 1244.41 882.361Z" fill="#8869D5"/>
<path d="M1244.41 882.361C1244.41 888.323 1239.58 893.157 1233.62 893.157C1227.66 893.157 1222.82 888.323 1222.82 882.361C1222.82 876.399 1227.66 871.565 1233.62 871.565C1239.58 871.565 1244.41 876.399 1244.41 882.361Z" stroke="#0626A9" stroke-width="2" stroke-linecap="round" stroke-linejoin="round"/>
<path d="M270.371 978.213C270.371 984.977 264.888 990.46 258.124 990.46C251.36 990.46 245.877 984.977 245.877 978.213C245.877 971.449 251.36 965.966 258.124 965.966C264.888 965.966 270.371 971.449 270.371 978.213Z" fill="#8869D5"/>
<path d="M270.371 978.213C270.371 984.977 264.888 990.46 258.124 990.46C251.36 990.46 245.877 984.977 245.877 978.213C245.877 971.449 251.36 965.966 258.124 965.966C264.888 965.966 270.371 971.449 270.371 978.213Z" stroke="#0626A9" stroke-width="2" stroke-linecap="round" stroke-linejoin="round"/>
<path d="M798.272 759.316C798.272 764.342 794.197 768.417 789.171 768.417C784.145 768.417 780.07 764.342 780.07 759.316C780.07 754.29 784.145 750.215 789.171 750.215C794.197 750.215 798.272 754.29 798.272 759.316Z" fill="white"/>
<path d="M798.272 759.316C798.272 764.342 794.197 768.417 789.171 768.417C784.145 768.417 780.07 764.342 780.07 759.316C780.07 754.29 784.145 750.215 789.171 750.215C794.197 750.215 798.272 754.29 798.272 759.316Z" stroke="#0626A9" stroke-width="2" stroke-linecap="round" stroke-linejoin="round"/>
<path d="M437.189 688.357C437.189 693.383 433.114 697.458 428.088 697.458C423.062 697.458 418.987 693.383 418.987 688.357C418.987 683.331 423.062 679.256 428.088 679.256C433.114 679.256 437.189 683.331 437.189 688.357Z" fill="white"/>
<path d="M437.189 688.357C437.189 693.383 433.114 697.458 428.088 697.458C423.062 697.458 418.987 693.383 418.987 688.357C418.987 683.331 423.062 679.256 428.088 679.256C433.114 679.256 437.189 683.331 437.189 688.357Z" stroke="#0626A9" stroke-width="2" stroke-linecap="round" stroke-linejoin="round"/>
<path d="M1082.18 525.354C1082.18 532.585 1076.32 538.446 1069.09 538.446C1061.86 538.446 1056 532.585 1056 525.354C1056 518.123 1061.86 512.262 1069.09 512.262C1076.32 512.262 1082.18 518.123 1082.18 525.354Z" fill="#84AAE4"/>
<path d="M1082.18 525.354C1082.18 532.585 1076.32 538.446 1069.09 538.446C1061.86 538.446 1056 532.585 1056 525.354C1056 518.123 1061.86 512.262 1069.09 512.262C1076.32 512.262 1082.18 518.123 1082.18 525.354Z" stroke="#0626A9" stroke-width="2" stroke-linecap="round" stroke-linejoin="round"/>
<path d="M916.079 355.399C916.079 359.737 912.562 363.254 908.224 363.254C903.886 363.254 900.369 359.737 900.369 355.399C900.369 351.061 903.886 347.544 908.224 347.544C912.562 347.544 916.079 351.061 916.079 355.399Z" fill="#0626A9"/>
<path d="M916.079 355.399C916.079 359.737 912.562 363.254 908.224 363.254C903.886 363.254 900.369 359.737 900.369 355.399C900.369 351.061 903.886 347.544 908.224 347.544C912.562 347.544 916.079 351.061 916.079 355.399Z" stroke="#0626A9" stroke-width="2" stroke-linecap="round" stroke-linejoin="round"/>
</g>
<mask id="mask2_24_28297" style="mask-type:luminance" maskUnits="userSpaceOnUse" x="0" y="0" width="1600" height="1600">
<path d="M0 0H1600V1600H0V0Z" fill="white"/>
</mask>
<g mask="url(#mask2_24_28297)">
<path d="M463.638 577.855L243.978 591.44L225.832 298.037L445.492 284.452L463.638 577.855Z" fill="white"/>
<path d="M463.638 577.855L243.978 591.44L225.832 298.037L445.492 284.452L463.638 577.855Z" stroke="#0626A9" stroke-width="2" stroke-linecap="round" stroke-linejoin="round"/>
<path d="M259.097 510.337C259.097 510.337 270.417 509.637 286.556 508.639" stroke="#0626A9" stroke-width="2" stroke-linecap="round" stroke-linejoin="round"/>
<path d="M398.371 458.163L256.251 466.952L253.352 420.064L395.471 411.274L398.371 458.163Z" fill="#84AAE4"/>
<path d="M398.371 458.163L256.251 466.952L253.352 420.064L395.471 411.274L398.371 458.163Z" stroke="#0626A9" stroke-width="2" stroke-linecap="round" stroke-linejoin="round"/>
<path d="M250.829 376.66L317.422 372.541" stroke="#0626A9" stroke-width="2" stroke-linecap="round" stroke-linejoin="round"/>
<path d="M501.193 281.007C503.095 311.769 479.7 338.249 448.938 340.151C418.176 342.054 391.696 318.658 389.793 287.896C387.891 257.134 411.286 230.654 442.048 228.752C472.81 226.849 499.29 250.244 501.193 281.007Z" fill="#8869D5"/>
<path d="M501.193 281.007C503.095 311.769 479.7 338.249 448.938 340.151C418.176 342.054 391.696 318.658 389.793 287.896C387.891 257.134 411.286 230.654 442.048 228.752C472.81 226.849 499.29 250.244 501.193 281.007Z" stroke="#0626A9" stroke-width="2" stroke-linecap="round" stroke-linejoin="round"/>
<path d="M435.489 298.193L411.745 284.425L431.056 264.921" stroke="#0626A9" stroke-width="2" stroke-linecap="round" stroke-linejoin="round"/>
<path d="M459.375 295.011L478.687 275.507L454.942 261.739" stroke="#0626A9" stroke-width="2" stroke-linecap="round" stroke-linejoin="round"/>
</g>
<path d="M776.096 527.98V587.466H690.892L670.784 609.734V527.98H776.096Z" fill="#84AAE4"/>
<path d="M776.096 527.98V587.466H690.892L670.784 609.734V527.98H776.096Z" stroke="#0626A9" stroke-width="2" stroke-linecap="round" stroke-linejoin="round"/>
<path d="M757.417 557.723C757.417 557.723 708.25 557.812 708.25 557.723C703.25 557.75 697.812 557.75 692.75 557.723C692.75 557.687 692.633 557.723 692.633 557.723" stroke="#0626A9" stroke-width="2" stroke-linecap="round" stroke-linejoin="round"/>
<path d="M808.472 585.98V645.466H893.676L913.784 667.734V585.98H808.472Z" fill="white"/>
<path d="M808.472 585.98V645.466H893.676L913.784 667.734V585.98H808.472Z" stroke="#0626A9" stroke-width="2" stroke-linecap="round" stroke-linejoin="round"/>
<path d="M827.152 615.723C827.152 615.723 853.194 615.812 853.194 615.723C855.569 606.687 866.506 606.75 868.694 615.723C868.694 615.687 891.936 615.723 891.936 615.723" stroke="#0626A9" stroke-width="2" stroke-linecap="round" stroke-linejoin="round"/>
<mask id="mask3_24_28297" style="mask-type:luminance" maskUnits="userSpaceOnUse" x="0" y="0" width="1600" height="1600">
<path d="M0 0H1600V1600H0V0Z" fill="white"/>
</mask>
<g mask="url(#mask3_24_28297)">
<path d="M1156.45 794.976L1479.28 798.267L1481.37 593.199L1158.54 589.909L1156.45 794.976Z" fill="white"/>
<path d="M1156.45 794.976L1479.28 798.267L1481.37 593.199L1158.54 589.909L1156.45 794.976Z" stroke="#0626A9" stroke-width="2" stroke-linecap="round" stroke-linejoin="round"/>
<path d="M1158.54 589.91L1481.37 593.2L1481.79 551.942L1158.96 548.652L1158.54 589.91Z" fill="#0626A9"/>
<path d="M1463.29 572.385C1463.23 577.682 1458.89 581.932 1453.6 581.878C1448.3 581.824 1444.05 577.486 1444.11 572.189C1444.16 566.893 1448.5 562.643 1453.79 562.697C1459.09 562.751 1463.34 567.088 1463.29 572.385Z" fill="white"/>
<path d="M1463.29 572.385C1463.23 577.682 1458.89 581.932 1453.6 581.878C1448.3 581.824 1444.05 577.486 1444.11 572.189C1444.16 566.893 1448.5 562.643 1453.79 562.697C1459.09 562.751 1463.34 567.088 1463.29 572.385Z" stroke="#0626A9" stroke-width="2" stroke-linecap="round" stroke-linejoin="round"/>
<path d="M1421.19 571.956C1421.13 577.253 1416.8 581.503 1411.5 581.449C1406.2 581.395 1401.95 577.057 1402.01 571.76C1402.06 566.464 1406.4 562.214 1411.69 562.268C1416.99 562.322 1421.24 566.659 1421.19 571.956Z" fill="white"/>
<path d="M1421.19 571.956C1421.13 577.253 1416.8 581.503 1411.5 581.449C1406.2 581.395 1401.95 577.057 1402.01 571.76C1402.06 566.464 1406.4 562.214 1411.69 562.268C1416.99 562.322 1421.24 566.659 1421.19 571.956Z" stroke="#0626A9" stroke-width="2" stroke-linecap="round" stroke-linejoin="round"/>
<path d="M1379.09 571.527C1379.03 576.823 1374.69 581.073 1369.4 581.019C1364.1 580.965 1359.85 576.628 1359.91 571.331C1359.96 566.034 1364.3 561.784 1369.59 561.838C1374.89 561.892 1379.14 566.23 1379.09 571.527Z" fill="white"/>
<path d="M1379.09 571.527C1379.03 576.823 1374.69 581.073 1369.4 581.019C1364.1 580.965 1359.85 576.628 1359.91 571.331C1359.96 566.034 1364.3 561.784 1369.59 561.838C1374.89 561.892 1379.14 566.23 1379.09 571.527Z" stroke="#0626A9" stroke-width="2" stroke-linecap="round" stroke-linejoin="round"/>
<path d="M1406.15 749.758L1230.55 747.968L1231.67 638.418L1407.27 640.208L1406.15 749.758Z" fill="#8869D5"/>
<path d="M1406.15 749.758L1230.55 747.968L1231.67 638.418L1407.27 640.208L1406.15 749.758Z" stroke="#0626A9" stroke-width="2" stroke-linecap="round" stroke-linejoin="round"/>
<path d="M1291.41 712.445L1269.41 693.937L1292.87 677.317" stroke="#0626A9" stroke-width="2" stroke-linecap="round" stroke-linejoin="round"/>
<path d="M1343.07 714.589L1366.53 697.969L1344.53 679.461" stroke="#0626A9" stroke-width="2" stroke-linecap="round" stroke-linejoin="round"/>
<path d="M1319.62 671.674L1319.55 718.622" stroke="#0626A9" stroke-width="2" stroke-linecap="round" stroke-linejoin="round"/>
</g>
<mask id="mask4_24_28297" style="mask-type:luminance" maskUnits="userSpaceOnUse" x="0" y="0" width="1600" height="1600">
<path d="M0 0H1600V1600H0V0Z" fill="white"/>
</mask>
<g mask="url(#mask4_24_28297)">
<path d="M630.403 1175.17C635.836 1223.16 601.338 1266.47 553.35 1271.9C505.362 1277.33 462.056 1242.84 456.623 1194.85C451.19 1146.86 485.688 1103.55 533.676 1098.12C581.664 1092.69 624.97 1127.19 630.403 1175.17Z" fill="#0626A9"/>
<path d="M629.567 1170.84L637.541 1240.6L463.762 1260.27L455.505 1184.97L629.567 1170.84Z" fill="#0626A9"/>
<path d="M531.023 1180.88C528.723 1229.12 487.753 1266.36 439.513 1264.06C391.273 1261.76 354.033 1220.79 356.332 1172.55C358.633 1124.31 399.601 1087.07 447.841 1089.37C496.081 1091.67 533.323 1132.64 531.023 1180.88Z" fill="#0626A9"/>
<path d="M530.89 1176.47L527.651 1245.99L352.61 1245.17L356.452 1170.52L530.89 1176.47Z" fill="#0626A9"/>
<path d="M527.65 1245.99L530.89 1176.47Z" fill="#84AAE4"/>
<path d="M527.65 1245.99L530.89 1176.47" stroke="#84AAE4" stroke-width="2" stroke-linecap="round" stroke-linejoin="round"/>
<path d="M431.436 1033.93C422.746 1046 402.86 1059.73 382.884 1095.3C360.958 1134.34 358.047 1158.95 358.047 1158.95L630.403 1175.17C630.403 1175.17 627.686 1145.73 624.214 1115.71C619.97 1079.02 620.164 1066.79 620.164 1066.79L431.436 1033.93Z" fill="#0626A9"/>
<path d="M765.825 1142.16C765.821 1167.4 745.36 1187.85 720.123 1187.85C694.886 1187.85 674.431 1167.38 674.435 1142.15C674.439 1116.91 694.9 1096.46 720.137 1096.46C745.374 1096.46 765.829 1116.92 765.825 1142.16Z" fill="white"/>
<path d="M765.825 1142.16C765.821 1167.4 745.36 1187.85 720.123 1187.85C694.886 1187.85 674.431 1167.38 674.435 1142.15C674.439 1116.91 694.9 1096.46 720.137 1096.46C745.374 1096.46 765.829 1116.92 765.825 1142.16Z" stroke="#0626A9" stroke-width="2" stroke-linecap="round" stroke-linejoin="round"/>
<path d="M841.484 1177.55C860.411 1183.1 878.555 1186.96 882.115 1186.64C886.279 1186.26 887.415 1182.09 887.415 1182.09C887.415 1182.09 893.599 1176.67 884.514 1170.86C856.321 1152.85 827.861 1143.85 814.865 1138.55C806.505 1135.14 765.826 1125.68 751.836 1109.27L725.106 1144.19L720.22 1187.32L837.634 1186.63C844.259 1183.41 843.497 1174.05 833.661 1171.87C799.592 1164.29 786.596 1155.83 786.596 1155.83" fill="white"/>
<path d="M718.995 1187.85L838.109 1187.15C844.83 1183.89 844.057 1174.39 834.079 1172.17C799.517 1164.49 776.425 1151.29 776.425 1151.29" stroke="#0626A9" stroke-width="2" stroke-linecap="round" stroke-linejoin="round"/>
<path d="M842.015 1177.93C861.216 1183.57 879.622 1187.49 883.233 1187.16C887.457 1186.77 888.61 1182.55 888.61 1182.55C888.61 1182.55 894.884 1177.05 885.668 1171.16C857.067 1152.88 828.194 1143.75 815.01 1138.37C806.529 1134.91 769.285 1127.16 751.837 1109.27" stroke="#0626A9" stroke-width="2" stroke-linecap="round" stroke-linejoin="round"/>
<path d="M798.71 1161.77C798.205 1161.01 795.051 1156.47 793.916 1151.29Z" fill="white"/>
<path d="M798.71 1161.77C798.205 1161.01 795.051 1156.47 793.916 1151.29" stroke="#0626A9" stroke-width="2" stroke-linecap="round" stroke-linejoin="round"/>
<path d="M884.008 1185.88C884.008 1185.88 891.958 1180.2 883.631 1174.9C875.304 1169.6 815.873 1146.88 815.873 1146.88" stroke="#0626A9" stroke-width="2" stroke-linecap="round" stroke-linejoin="round"/>
<path d="M668.206 969.757C694.045 960.619 722.398 974.159 731.536 999.997C740.674 1025.84 727.134 1054.19 701.296 1063.33C675.457 1072.46 647.104 1058.92 637.966 1033.09C628.829 1007.25 642.368 978.894 668.206 969.757Z" fill="white"/>
<path d="M668.206 969.757C694.045 960.619 722.398 974.159 731.536 999.997C740.674 1025.84 727.134 1054.19 701.296 1063.33C675.457 1072.46 647.104 1058.92 637.966 1033.09C628.829 1007.25 642.368 978.894 668.206 969.757Z" stroke="#0626A9" stroke-width="2" stroke-linecap="round" stroke-linejoin="round"/>
<path d="M754.345 1112.31L733.204 1005.54L636.574 1030.39C636.574 1030.39 675.159 1152.01 676.735 1155.62" fill="white"/>
<path d="M636.574 1030.39C636.574 1030.39 674.513 1151.02 676.734 1155.62" stroke="#0626A9" stroke-width="2" stroke-linecap="round" stroke-linejoin="round"/>
<path d="M754.345 1112.31L733.204 1005.54" stroke="#0626A9" stroke-width="2" stroke-linecap="round" stroke-linejoin="round"/>
<path d="M723.291 915.994C723.291 915.994 734.261 937.589 674.518 953.027C636.673 962.806 611.307 943.257 611.307 943.257C611.307 943.257 654.941 904.223 686.901 907.53C718.862 910.838 723.291 915.994 723.291 915.994Z" fill="#0626A9"/>
<path d="M613.312 786.354C639.756 775.256 670.189 787.697 681.287 814.141C692.385 840.585 679.943 871.017 653.499 882.115C627.056 893.213 596.623 880.772 585.525 854.328C574.427 827.885 586.868 797.452 613.312 786.354Z" fill="#84AAE4"/>
<path d="M613.312 786.354C639.756 775.256 670.189 787.697 681.287 814.141C692.385 840.585 679.943 871.017 653.499 882.115C627.056 893.213 596.623 880.772 585.525 854.328C574.427 827.885 586.868 797.452 613.312 786.354Z" stroke="#0626A9" stroke-width="2" stroke-linecap="round" stroke-linejoin="round"/>
<path d="M584.561 851.138L634.894 1024.42L731.504 999.492L684.246 822.67L584.561 851.138Z" fill="white"/>
<path d="M731.504 999.491L684.199 822.462Z" fill="#84AAE4"/>
<path d="M731.504 999.491L684.199 822.462" stroke="#0626A9" stroke-width="2" stroke-linecap="round" stroke-linejoin="round"/>
<path d="M584.654 851.553L634.893 1024.42Z" fill="#84AAE4"/>
<path d="M584.654 851.553L634.893 1024.42" stroke="#0626A9" stroke-width="2" stroke-linecap="round" stroke-linejoin="round"/>
<path d="M681.288 814.14C695.193 846.078 723.29 915.995 723.29 915.995C723.29 915.995 698.61 903.005 634.804 930.044C612.452 939.515 611.306 943.257 611.306 943.257L581.824 840.302" fill="#84AAE4"/>
<path d="M681.288 814.14C695.193 846.078 723.29 915.995 723.29 915.995C723.29 915.995 698.61 903.005 634.804 930.044C612.452 939.515 611.306 943.257 611.306 943.257L581.824 840.302" stroke="#0626A9" stroke-width="2" stroke-linecap="round" stroke-linejoin="round"/>
<path d="M564.192 605.219C567.857 627.59 552.691 648.697 530.319 652.362C507.947 656.026 486.84 640.86 483.176 618.488C479.512 596.117 494.677 575.01 517.049 571.345C539.421 567.681 560.528 582.847 564.192 605.219Z" fill="#0626A9"/>
<path d="M593.694 803.767C592.663 825.327 574.35 841.968 552.79 840.937C531.229 839.905 514.588 821.592 515.62 800.032C516.651 778.472 534.964 761.83 556.524 762.862C578.085 763.893 594.726 782.206 593.694 803.767Z" fill="white"/>
<path d="M593.694 803.767C592.663 825.327 574.35 841.968 552.79 840.937C531.229 839.905 514.588 821.592 515.62 800.032C516.651 778.472 534.964 761.83 556.524 762.862C578.085 763.893 594.726 782.206 593.694 803.767Z" stroke="#0626A9" stroke-width="2" stroke-linecap="round" stroke-linejoin="round"/>
<path d="M515.846 797.308L526.01 702.501L596.24 708.839L593.695 803.767" fill="white"/>
<path d="M515.846 797.308L526.01 702.501L596.24 708.839L593.695 803.767" stroke="#0626A9" stroke-width="2" stroke-linecap="round" stroke-linejoin="round"/>
<path d="M545.613 713.076C545.613 713.076 553.251 775.889 594.236 783.574L596.997 713.023L545.613 713.076Z" fill="#0626A9"/>
<path d="M551.602 740.867C573.846 760.927 613.448 765.474 629.015 747.523C644.582 729.572 629.783 687.11 629.787 681.78C629.817 650.638 626.463 639.652 618.721 630.395C599.919 607.914 539.794 611.566 524.585 641.491C510.717 668.776 528.333 714.389 528.333 714.389" fill="white"/>
<path d="M551.602 740.867C573.846 760.927 613.448 765.474 629.015 747.523C644.582 729.572 629.783 687.11 629.787 681.78C629.817 650.638 626.463 639.652 618.721 630.395C599.919 607.914 539.794 611.566 524.585 641.491C510.717 668.776 528.333 714.389 528.333 714.389" stroke="#0626A9" stroke-width="2" stroke-linecap="round" stroke-linejoin="round"/>
<path d="M544.18 690.101C544.18 690.101 551.156 691.243 553.316 689.607C559.461 684.956 564.561 667.233 571.524 666.516C606.018 662.959 613.562 644.55 613.562 644.55C613.562 644.55 617.356 647.571 620.99 650.902C625.721 655.238 629.786 656.19 629.786 656.19C629.786 656.19 630.54 644.433 627.418 638.356C620.988 625.844 612.402 616.509 575.813 614.008C531.801 610.999 518.215 636.64 512.359 651.585C497.421 689.714 523.464 732.869 523.464 732.869C523.464 732.869 529.521 738.734 536.307 716.728C538.353 710.095 544.18 690.101 544.18 690.101Z" fill="#0626A9"/>
<path d="M544.301 688.732C544.301 688.732 537.736 671.497 525.816 672.903C516.23 674.033 509.394 683.407 511.626 696.965C513.987 711.301 525.447 717.314 530.682 717.847C536.773 718.467 541.032 713.774 541.528 708.98" fill="white"/>
<path d="M544.301 688.732C544.301 688.732 537.736 671.497 525.816 672.903C516.23 674.033 509.394 683.407 511.626 696.965C513.987 711.301 525.447 717.314 530.682 717.847C536.773 718.467 541.032 713.774 541.528 708.98" stroke="#0626A9" stroke-width="2" stroke-linecap="round" stroke-linejoin="round"/>
<path d="M520.057 685.722C520.057 685.722 526.926 679.016 533.953 693.069C533.953 693.069 527.542 689.924 523.836 692.614" fill="white"/>
<path d="M520.057 685.722C520.057 685.722 526.926 679.016 533.953 693.069C533.953 693.069 527.542 689.924 523.836 692.614" stroke="#0626A9" stroke-width="2" stroke-linecap="round" stroke-linejoin="round"/>
<path d="M512.712 652.342C512.712 652.342 518.665 634.441 533.209 624.494C548.757 613.859 565.041 614.62 565.041 614.62" stroke="white" stroke-width="2" stroke-linecap="round" stroke-linejoin="round"/>
<path d="M602.24 675.639C602.444 678.115 596.341 678.533 589.08 679.132C581.818 679.73 576.147 680.282 575.943 677.806C575.739 675.329 581.46 672.836 588.722 672.237C595.983 671.638 602.036 673.162 602.24 675.639Z" fill="#0626A9"/>
<path d="M628.093 669.861C628.185 672.255 624.993 672.042 620.671 672.206C616.348 672.37 613.188 673.248 613.097 670.854C613.005 668.459 616.435 666.384 620.757 666.22C625.08 666.057 628.002 667.466 628.093 669.861Z" fill="#0626A9"/>
<path d="M600.918 712.637C600.918 712.637 606.166 721.85 615.704 716.299C615.704 716.299 607.24 722.126 600.99 712.751" stroke="#0626A9" stroke-width="2" stroke-linecap="round" stroke-linejoin="round"/>
<path d="M615.448 690.172C618.129 692.813 621.519 691.515 622.941 695.438C624.268 699.099 621.044 704.128 617.018 705.007" fill="white"/>
<path d="M615.448 690.172C618.129 692.813 621.519 691.515 622.941 695.438C624.268 699.099 621.044 704.128 617.018 705.007" stroke="#0626A9" stroke-width="2" stroke-linecap="round" stroke-linejoin="round"/>
<path d="M594.884 688.411C594.894 689.733 593.829 690.815 592.507 690.824C591.184 690.834 590.103 689.77 590.093 688.447C590.083 687.125 591.147 686.043 592.47 686.033C593.792 686.024 594.874 687.088 594.884 688.411Z" fill="#0626A9"/>
<path d="M624.142 685.005C624.152 686.328 623.088 687.409 621.765 687.419C620.443 687.429 619.361 686.365 619.351 685.042C619.341 683.719 620.406 682.638 621.728 682.628C623.051 682.618 624.132 683.683 624.142 685.005Z" fill="#0626A9"/>
<path d="M477.391 779.998C503.919 791.427 516.158 822.197 504.729 848.725C493.3 875.253 462.531 887.492 436.003 876.063C409.475 864.634 397.235 833.865 408.664 807.336C420.094 780.808 450.863 768.569 477.391 779.998Z" fill="#84AAE4"/>
<path d="M477.391 779.998C503.919 791.427 516.158 822.197 504.729 848.725C493.3 875.253 462.531 887.492 436.003 876.063C409.475 864.634 397.235 833.865 408.664 807.336C420.094 780.808 450.863 768.569 477.391 779.998Z" stroke="#0626A9" stroke-width="2" stroke-linecap="round" stroke-linejoin="round"/>
<path d="M618.938 1071C612.587 1123.75 564.674 1161.36 511.923 1155.01C459.172 1148.66 421.559 1100.74 427.911 1047.99C434.263 995.243 482.176 957.63 534.926 963.981C587.677 970.333 625.29 1018.25 618.938 1071Z" fill="#0626A9"/>
<path d="M448.246 776.59C487.116 772.76 517.859 785.769 517.859 785.769C517.859 785.769 535.874 804.5 558.626 809.391C595.52 817.321 594.558 795.481 594.558 795.481C594.558 795.481 617.753 779.312 640.072 782.725C641.678 782.971 640.41 871.993 643.809 919.113C647.976 976.871 622.419 987.574 622.419 987.574L619.598 1063.44L429.534 1039.27L440.351 965.436L444.663 886.967" fill="#84AAE4"/>
<path d="M444.663 886.967L440.351 965.436L429.533 1039.27L619.598 1063.44L622.419 987.575C622.419 987.575 651.712 973.401 643.667 917.781C640.462 895.618 638.498 886.073 638.498 886.073" fill="#84AAE4"/>
<path d="M444.663 886.967L440.351 965.436L429.533 1039.27L619.598 1063.44L622.419 987.575C622.419 987.575 651.712 973.401 643.667 917.781C640.462 895.618 638.498 886.073 638.498 886.073" stroke="#0626A9" stroke-width="2" stroke-linecap="round" stroke-linejoin="round"/>
<path d="M448.246 776.59C482.457 771.378 517.859 785.77 517.859 785.77C517.859 785.77 537.495 804.971 560.268 809.763C595.224 817.12 594.558 795.481 594.558 795.481C594.558 795.481 618.368 779.291 640.073 782.725" stroke="#0626A9" stroke-width="2" stroke-linecap="round" stroke-linejoin="round"/>
<path d="M496.439 960.953C496.439 960.953 509.689 978.923 537.796 977.492Z" fill="#84AAE4"/>
<path d="M496.439 960.953C496.439 960.953 509.689 978.923 537.796 977.492" stroke="#0626A9" stroke-width="2" stroke-linecap="round" stroke-linejoin="round"/>
<path d="M445.545 948.417C445.545 948.417 424.826 962.904 394.109 933.741C368.619 909.541 355.725 874.832 355.725 874.832C355.725 874.832 403.458 896.698 429.253 919.728C443.245 932.22 445.545 948.417 445.545 948.417Z" fill="#0626A9"/>
<path d="M305.5 945.776C328.232 930.236 359.258 936.066 374.797 958.799C390.337 981.531 384.507 1012.56 361.775 1028.1C339.043 1043.64 308.017 1037.81 292.477 1015.07C276.937 992.342 282.767 961.316 305.5 945.776Z" fill="white"/>
<path d="M305.5 945.776C328.232 930.236 359.258 936.066 374.797 958.799C390.337 981.531 384.507 1012.56 361.775 1028.1C339.043 1043.64 308.017 1037.81 292.477 1015.07C276.937 992.342 282.767 961.316 305.5 945.776Z" stroke="#0626A9" stroke-width="2" stroke-linecap="round" stroke-linejoin="round"/>
<path d="M411.511 803.193L294.139 956.494L373.639 1016.71L490.719 863.662L411.511 803.193Z" fill="white"/>
<path d="M373.639 1016.71L479.786 878.273Z" fill="#84AAE4"/>
<path d="M373.639 1016.71L479.786 878.273" stroke="#0626A9" stroke-width="2" stroke-linecap="round" stroke-linejoin="round"/>
<path d="M415.485 799.291L294.139 956.495Z" fill="#84AAE4"/>
<path d="M415.485 799.291L294.139 956.495" stroke="#0626A9" stroke-width="2" stroke-linecap="round" stroke-linejoin="round"/>
<path d="M472.503 801.428C487.196 810.158 492.03 829.145 483.3 843.838C474.57 858.53 455.583 863.364 440.89 854.634C426.198 845.904 421.364 826.917 430.094 812.224C438.824 797.532 457.811 792.698 472.503 801.428Z" fill="#84AAE4"/>
<path d="M417.635 793.241C392.448 817.075 355.726 874.833 355.726 874.833C355.726 874.833 392.104 889.962 416.034 908.163C445.66 930.696 445.545 948.416 445.545 948.416L499.559 848.372" fill="#84AAE4"/>
<path d="M423.037 787.987C392.379 816.174 355.726 874.833 355.726 874.833C355.726 874.833 392.103 889.962 416.034 908.163C445.659 930.696 445.545 948.416 445.545 948.416L484.749 874.721" stroke="#0626A9" stroke-width="2" stroke-linecap="round" stroke-linejoin="round"/>
<path d="M210.264 1143.25C210.264 1168.49 230.722 1188.95 255.959 1188.95C281.196 1188.95 301.654 1168.49 301.654 1143.25C301.654 1118.02 281.196 1097.56 255.959 1097.56C230.722 1097.56 210.264 1118.02 210.264 1143.25Z" fill="white"/>
<path d="M210.264 1143.25C210.264 1168.49 230.722 1188.95 255.959 1188.95C281.196 1188.95 301.654 1168.49 301.654 1143.25C301.654 1118.02 281.196 1097.56 255.959 1097.56C230.722 1097.56 210.264 1118.02 210.264 1143.25Z" stroke="#0626A9" stroke-width="2" stroke-linecap="round" stroke-linejoin="round"/>
<path d="M134.599 1178.63C115.671 1184.18 97.5271 1188.04 93.9671 1187.71C89.8031 1187.33 88.6671 1183.17 88.6671 1183.17C88.6671 1183.17 82.4841 1177.74 91.5691 1171.94C119.765 1153.92 148.227 1144.93 161.224 1139.63C169.585 1136.23 210.263 1126.77 224.256 1110.36L250.982 1145.29L255.862 1188.42L138.447 1187.71C131.822 1184.49 132.586 1175.13 142.422 1172.95C176.492 1165.38 189.489 1156.92 189.489 1156.92" fill="white"/>
<path d="M257.087 1188.95L137.973 1188.23C131.252 1184.97 132.028 1175.47 142.006 1173.25C176.569 1165.57 189.754 1157 189.754 1157" stroke="#0626A9" stroke-width="2" stroke-linecap="round" stroke-linejoin="round"/>
<path d="M134.069 1179.02C114.867 1184.65 96.4604 1188.56 92.8494 1188.23C88.6254 1187.85 87.4724 1183.62 87.4724 1183.62C87.4724 1183.62 81.1994 1178.12 90.4164 1172.23C119.02 1153.96 147.894 1144.84 161.079 1139.46C169.561 1136 206.806 1128.26 224.256 1110.36" stroke="#0626A9" stroke-width="2" stroke-linecap="round" stroke-linejoin="round"/>
<path d="M177.375 1162.85C177.88 1162.1 181.035 1157.55 182.171 1152.38Z" fill="white"/>
<path d="M177.375 1162.85C177.88 1162.1 181.035 1157.55 182.171 1152.38" stroke="#0626A9" stroke-width="2" stroke-linecap="round" stroke-linejoin="round"/>
<path d="M92.0743 1186.95C92.0743 1186.95 84.1243 1181.28 92.4523 1175.98C100.78 1170.68 160.214 1147.96 160.214 1147.96" stroke="#0626A9" stroke-width="2" stroke-linecap="round" stroke-linejoin="round"/>
<path d="M346.828 959.453C362.112 967.732 367.789 986.833 359.51 1002.12C351.231 1017.4 332.13 1023.08 316.847 1014.8C301.563 1006.52 295.886 987.419 304.165 972.135C312.444 956.851 331.545 951.174 346.828 959.453Z" fill="white"/>
<path d="M300.348 1153.9L374.627 1015.34L287.739 966.901C287.739 966.901 225.6 1108.63 223.861 1110.74" fill="white"/>
<path d="M287.739 966.901C287.739 966.901 224.714 1109.59 222.931 1111.68" stroke="#0626A9" stroke-width="2" stroke-linecap="round" stroke-linejoin="round"/>
<path d="M300.346 1153.9L374.627 1015.34" stroke="#0626A9" stroke-width="2" stroke-linecap="round" stroke-linejoin="round"/>
</g>
<path d="M973.333 662.833H1038.33V727.833" stroke="#8869D5" stroke-width="22" stroke-linecap="round" stroke-linejoin="round"/>
<path d="M1038.33 662.833L946.25 754.917L892.084 700.75L821.667 771.167" stroke="#8869D5" stroke-width="22" stroke-linecap="round" stroke-linejoin="round"/>
<path d="M1291.94 1137.49C1283.55 1158.31 1293.62 1181.99 1314.44 1190.38C1335.26 1198.77 1358.94 1188.7 1367.33 1167.88C1375.72 1147.07 1365.65 1123.39 1344.84 1114.99C1324.02 1106.6 1300.34 1116.67 1291.94 1137.49Z" fill="white"/>
<path d="M1291.94 1137.49C1283.55 1158.31 1293.62 1181.99 1314.44 1190.38C1335.26 1198.77 1358.94 1188.7 1367.33 1167.88C1375.72 1147.07 1365.65 1123.39 1344.84 1114.99C1324.02 1106.6 1300.34 1116.67 1291.94 1137.49Z" stroke="#0626A9" stroke-width="2" stroke-linecap="round" stroke-linejoin="round"/>
<path d="M1320.01 1112.07C1351.84 1109.29 1419.17 1114.38 1427.71 1122.05C1435.49 1129.03 1426.37 1134.02 1426.37 1134.02C1426.37 1134.02 1438.19 1135.08 1438.32 1143.77C1438.4 1149.51 1430.2 1153.3 1430.2 1153.3C1430.2 1153.3 1435.05 1161.09 1427.49 1165.95C1422.18 1169.36 1408.86 1169.7 1408.86 1169.7C1408.86 1169.7 1416.54 1179.73 1406.16 1183.36C1395.78 1186.99 1327.58 1193.67 1327.58 1193.67" fill="white"/>
<path d="M1320.01 1112.07C1351.84 1109.29 1419.17 1114.38 1427.71 1122.05C1435.49 1129.03 1426.37 1134.02 1426.37 1134.02C1426.37 1134.02 1438.19 1135.08 1438.32 1143.77C1438.4 1149.51 1430.2 1153.3 1430.2 1153.3C1430.2 1153.3 1435.05 1161.09 1427.49 1165.95C1422.18 1169.36 1408.86 1169.7 1408.86 1169.7C1408.86 1169.7 1416.54 1179.73 1406.16 1183.36C1395.78 1186.99 1327.58 1193.67 1327.58 1193.67" stroke="#0626A9" stroke-width="2" stroke-linecap="round" stroke-linejoin="round"/>
<path d="M1314.02 1114.84C1328.15 1104.18 1378.83 1082.53 1387.17 1089.57C1395.22 1096.38 1366.19 1115.42 1366.19 1115.42C1366.19 1115.42 1359.87 1132.82 1339.93 1142.47" fill="white"/>
<path d="M1314.02 1114.84C1328.15 1104.18 1378.83 1082.53 1387.17 1089.57C1395.22 1096.38 1366.19 1115.42 1366.19 1115.42C1366.19 1115.42 1359.87 1132.82 1339.93 1142.47" stroke="#0626A9" stroke-width="2" stroke-linecap="round" stroke-linejoin="round"/>
<path d="M1426.37 1134.02C1426.37 1134.02 1390.9 1130.85 1368.76 1132.48Z" fill="white"/>
<path d="M1426.37 1134.02C1426.37 1134.02 1390.9 1130.85 1368.76 1132.48" stroke="#0626A9" stroke-width="2" stroke-linecap="round" stroke-linejoin="round"/>
<path d="M1430.2 1153.3C1430.2 1153.3 1392.91 1149.07 1371.19 1150.26Z" fill="white"/>
<path d="M1430.2 1153.3C1430.2 1153.3 1392.91 1149.07 1371.19 1150.26" stroke="#0626A9" stroke-width="2" stroke-linecap="round" stroke-linejoin="round"/>
<path d="M1408.86 1169.7C1408.86 1169.7 1381.01 1167.5 1369.94 1168.32Z" fill="white"/>
<path d="M1408.86 1169.7C1408.86 1169.7 1381.01 1167.5 1369.94 1168.32" stroke="#0626A9" stroke-width="2" stroke-linecap="round" stroke-linejoin="round"/>
<path d="M1073.75 1146.08C1069.8 1173.52 1088.84 1198.97 1116.28 1202.92C1143.72 1206.87 1169.16 1187.83 1173.12 1160.39C1177.07 1132.96 1158.03 1107.51 1130.59 1103.56C1103.15 1099.61 1077.71 1118.64 1073.75 1146.08Z" fill="white"/>
<path d="M1073.75 1146.08C1069.8 1173.52 1088.84 1198.97 1116.28 1202.92C1143.72 1206.87 1169.16 1187.83 1173.12 1160.39C1177.07 1132.96 1158.03 1107.51 1130.59 1103.56C1103.15 1099.61 1077.71 1118.64 1073.75 1146.08Z" stroke="#0626A9" stroke-width="2" stroke-linecap="round" stroke-linejoin="round"/>
<path d="M1162.05 970.127C1159.43 996.512 1135.92 1015.78 1109.54 1013.17C1083.15 1010.55 1063.88 987.042 1066.5 960.657C1069.11 934.272 1092.62 915.003 1119.01 917.618C1145.39 920.233 1164.66 943.742 1162.05 970.127Z" fill="#84AAE4"/>
<path d="M1162.05 970.127C1159.43 996.512 1135.92 1015.78 1109.54 1013.17C1083.15 1010.55 1063.88 987.042 1066.5 960.657C1069.11 934.272 1092.62 915.003 1119.01 917.618C1145.39 920.233 1164.66 943.742 1162.05 970.127Z" stroke="#0626A9" stroke-width="2" stroke-linecap="round" stroke-linejoin="round"/>
<path d="M1173.63 1152.12C1173.63 1152.12 1165.87 1028.98 1162.29 999.192L1070.89 1003.58L1073.36 1156.8" fill="white"/>
<path d="M1173.63 1152.12C1173.63 1152.12 1165.87 1028.98 1162.29 999.192L1070.89 1003.58L1073.36 1156.8" stroke="#0626A9" stroke-width="2" stroke-linecap="round" stroke-linejoin="round"/>
<path d="M1161.85 957.626C1168.08 984.285 1176.18 1068.54 1176.18 1068.54C1151.95 1081.69 1067.52 1066.61 1067.52 1066.61L1066.27 964.483" fill="#84AAE4"/>
<path d="M1161.85 957.626C1168.08 984.285 1176.18 1068.54 1176.18 1068.54C1151.95 1081.69 1067.52 1066.61 1067.52 1066.61L1066.27 964.483" stroke="#0626A9" stroke-width="2" stroke-linecap="round" stroke-linejoin="round"/>
<path d="M1173.58 1046.98C1173.58 1046.98 1164.68 1053.2 1142.29 1052.17" stroke="#0626A9" stroke-width="2" stroke-linecap="round" stroke-linejoin="round"/>
<path d="M1104.75 1153.24C1104.75 1163.56 1113.12 1171.92 1123.44 1171.92C1133.76 1171.92 1142.12 1163.56 1142.12 1153.24C1142.12 1142.92 1133.75 1134.55 1123.43 1134.55C1113.12 1134.56 1104.75 1142.92 1104.75 1153.24Z" fill="white"/>
<path d="M1313.03 1157.12C1310.87 1184.66 1330.83 1193.66 1330.83 1193.66L1121.62 1203.44L1126.38 1103.04C1126.38 1103.04 1323.32 1117.41 1326.05 1116.87C1326.05 1116.87 1315.26 1128.62 1313.03 1157.12Z" fill="white"/>
<path d="M1326.05 1116.87C1312.29 1115.98 1145.62 1104.37 1145.62 1104.37" stroke="#0626A9" stroke-width="2" stroke-linecap="round" stroke-linejoin="round"/>
<path d="M1121.62 1203.44L1329.55 1193.72" stroke="#0626A9" stroke-width="2" stroke-linecap="round" stroke-linejoin="round"/>
<path d="M1065.82 903.946L1072.85 843.64C1072.85 843.64 1037.46 797.686 1026.07 794.674C1014.68 791.662 1007.79 806.499 1007.79 806.499L987.953 880.918" fill="white"/>
<path d="M1065.82 903.946L1072.85 843.64C1072.85 843.64 1037.46 797.686 1026.07 794.674C1014.68 791.662 1007.79 806.499 1007.79 806.499L987.953 880.918" stroke="#0626A9" stroke-width="2" stroke-linecap="round" stroke-linejoin="round"/>
<path d="M1068.63 879.784C1068.63 879.784 1046.06 871.22 1023.77 834.179C1023.77 834.179 1046.62 820.463 1060.03 822.098C1076.49 824.104 1073.3 839.5 1073.3 839.5L1068.63 879.784Z" fill="#0626A9"/>
<path d="M1036.89 788.775C1031.35 798.355 1019.1 801.633 1009.52 796.097C999.937 790.562 996.659 778.307 1002.19 768.728C1007.73 759.148 1019.98 755.87 1029.56 761.405C1039.14 766.941 1042.42 779.195 1036.89 788.775Z" fill="white"/>
<path d="M1017.45 832.369C1033.06 857.158 1069.14 871.955 1088.56 859.191C1107.98 846.426 1105.32 802.521 1106.74 797.506C1115.04 768.198 1114.8 756.964 1109.97 746.193C1098.24 720.037 1040.67 707.508 1018.41 731.641C998.104 753.644 1002.57 801.263 1002.57 801.263" fill="white"/>
<path d="M1017.45 832.369C1033.06 857.158 1069.14 871.955 1088.56 859.191C1107.98 846.426 1105.32 802.521 1106.74 797.506C1115.04 768.198 1114.8 756.964 1109.97 746.193C1098.24 720.037 1040.67 707.508 1018.41 731.641C998.104 753.644 1002.57 801.263 1002.57 801.263" stroke="#0626A9" stroke-width="2" stroke-linecap="round" stroke-linejoin="round"/>
<path d="M1126.38 761.021C1134.14 742.622 1103.51 720.27 1084.08 716.836C1084.08 716.836 1054.6 691.862 1024.1 713.566C996.683 733.078 1000.99 793.523 1000.99 793.523C1000.99 793.523 1022.5 779.591 1024.57 785.731C1027.51 794.445 1033.37 794.645 1035.26 784.847C1038.58 767.554 1051.22 758.438 1051.22 758.438C1059.57 763.348 1089.05 773.226 1099.59 773.18C1114.19 773.115 1124.18 766.261 1126.38 761.021Z" fill="#0626A9"/>
<path d="M1023.2 785.801C1023.2 785.801 1021.51 768.333 1010 765.991C997.735 763.494 991.754 771.52 990.256 784.875C988.672 798.997 999.627 808.766 1002.65 809.594C1008.43 811.175 1013.47 808.509 1015.21 804.127" fill="white"/>
<path d="M1023.2 785.801C1023.2 785.801 1021.51 768.333 1010 765.991C997.735 763.494 991.754 771.52 990.256 784.875C988.672 798.997 999.627 808.766 1002.65 809.594C1008.43 811.175 1013.47 808.509 1015.21 804.127" stroke="#0626A9" stroke-width="2" stroke-linecap="round" stroke-linejoin="round"/>
<path d="M1001.18 776.53C1001.18 776.53 1009.43 772.04 1012.31 787.136C1012.31 787.136 1007.11 782.472 1002.91 784.021" fill="white"/>
<path d="M1001.18 776.53C1001.18 776.53 1009.43 772.04 1012.31 787.136C1012.31 787.136 1007.11 782.472 1002.91 784.021" stroke="#0626A9" stroke-width="2" stroke-linecap="round" stroke-linejoin="round"/>
<path d="M1082.46 783.74C1082 786.127 1076.14 784.899 1069.15 783.533C1062.15 782.168 1056.67 781.182 1057.13 778.796C1057.6 776.41 1063.65 775.583 1070.64 776.948C1077.64 778.314 1082.93 781.354 1082.46 783.74Z" fill="#0626A9"/>
<path d="M1109.1 787.727C1108.55 790.005 1105.6 788.956 1101.49 787.963C1097.38 786.97 1094.17 786.959 1094.72 784.68C1095.27 782.402 1099.05 781.358 1103.16 782.351C1107.27 783.344 1109.65 785.448 1109.1 787.727Z" fill="#0626A9"/>
<path d="M1075.41 827.314C1075.41 827.314 1081.96 836.53 1091.52 830.315C1091.52 830.315 1083.24 836.68 1075.5 827.426" stroke="#0626A9" stroke-width="2" stroke-linecap="round" stroke-linejoin="round"/>
<path d="M1090.66 792.055C1090.66 792.055 1089.19 798.401 1091.02 801.599C1092.84 804.797 1095.76 803.978 1096.67 808.546C1097.58 813.114 1092.58 816.223 1088.56 815.982" fill="white"/>
<path d="M1090.66 792.055C1090.66 792.055 1089.19 798.401 1091.02 801.599C1092.84 804.797 1095.76 803.978 1096.67 808.546C1097.58 813.114 1092.58 816.223 1088.56 815.982" stroke="#0626A9" stroke-width="2" stroke-linecap="round" stroke-linejoin="round"/>
<path d="M1072.13 794.481C1071.78 795.728 1070.49 796.463 1069.25 796.122C1068 795.78 1067.26 794.491 1067.61 793.243C1067.95 791.995 1069.24 791.26 1070.48 791.602C1071.73 791.943 1072.47 793.233 1072.13 794.481Z" fill="#0626A9"/>
<path d="M1100.57 799.044C1100.23 800.292 1098.94 801.027 1097.69 800.686C1096.45 800.344 1095.71 799.054 1096.05 797.807C1096.39 796.559 1097.68 795.824 1098.93 796.165C1100.18 796.507 1100.92 797.797 1100.57 799.044Z" fill="#0626A9"/>
<path d="M900.978 901.732C929.917 903.651 951.82 928.668 949.901 957.607C947.982 986.546 922.965 1008.45 894.026 1006.53C865.087 1004.61 843.183 979.594 845.103 950.655C847.022 921.716 872.039 899.813 900.978 901.732Z" fill="#84AAE4"/>
<path d="M900.978 901.732C929.917 903.651 951.82 928.668 949.901 957.607C947.982 986.546 922.965 1008.45 894.026 1006.53C865.087 1004.61 843.183 979.594 845.103 950.655C847.022 921.716 872.039 899.813 900.978 901.732Z" stroke="#0626A9" stroke-width="2" stroke-linecap="round" stroke-linejoin="round"/>
<path d="M882.045 903.779C917.795 890.334 987.33 884.526 987.33 884.526L1034.15 895.824L1041.55 935.257L1051.74 896.306L1066.75 889.673C1066.75 889.673 1094.4 902.628 1133.31 920.293C1134.71 920.928 1106.15 961.736 1106.76 1006.29C1107.37 1050.84 1104.94 1137.07 1104.48 1156.68C1104.03 1175.61 1102.94 1198.7 1102.98 1193.97L887.738 1178.73C887.738 1178.73 881.05 1176.42 881.096 1170.29C881.351 1136.93 891.636 1063.24 900.994 987.99" fill="#84AAE4"/>
<path d="M1106.76 1006.29C1106.67 1054.21 1105.23 1126.69 1104.77 1146.3C1104.32 1165.22 1102.94 1198.7 1102.97 1193.97L1018.51 1188.4C1018.51 1188.4 881.139 1171.84 881.186 1165.71C881.44 1132.36 891.636 1063.24 900.994 987.99" stroke="#0626A9" stroke-width="2" stroke-linecap="round" stroke-linejoin="round"/>
<path d="M1066.75 889.673C1066.75 889.673 1094.4 902.629 1133.31 920.294" stroke="#0626A9" stroke-width="2" stroke-linecap="round" stroke-linejoin="round"/>
<path d="M882.045 903.779C917.795 890.334 987.33 884.526 987.33 884.526" stroke="#0626A9" stroke-width="2" stroke-linecap="round" stroke-linejoin="round"/>
<path d="M1030.34 900.843C1026.62 899.086 1014.97 924.718 1014.97 924.718C1014.97 924.718 982.614 898.534 972.614 886.002" fill="#84AAE4"/>
<path d="M1030.34 900.843C1026.62 899.086 1014.97 924.718 1014.97 924.718C1014.97 924.718 982.614 898.534 972.614 886.002" stroke="#0626A9" stroke-width="2" stroke-linecap="round" stroke-linejoin="round"/>
<path d="M1055.47 901.505C1055.47 901.505 1058.45 900.844 1059.32 909.59C1060.18 918.336 1059.93 926.899 1059.93 926.899C1059.93 926.899 1074.7 917.265 1076.35 910.652L1066.75 889.673C1063.14 897.689 1051.73 896.305 1051.73 896.305L1041.71 933.101L1034.15 895.823C1007.77 886.861 988.573 870.218 988.573 870.218L972.613 886.002" fill="#84AAE4"/>
<path d="M1055.47 901.505C1055.47 901.505 1058.45 900.844 1059.32 909.59C1060.18 918.336 1059.93 926.899 1059.93 926.899C1059.93 926.899 1074.7 917.265 1076.35 910.652L1066.75 889.673C1063.14 897.689 1051.73 896.305 1051.73 896.305L1041.71 933.101L1034.15 895.823C1007.77 886.861 988.573 870.218 988.573 870.218L972.613 886.002" stroke="#0626A9" stroke-width="2" stroke-linecap="round" stroke-linejoin="round"/>
<path d="M1041.71 933.101C1041.71 933.101 1044.56 1079.89 1032.82 1178.49Z" fill="#84AAE4"/>
<path d="M1041.71 933.101C1041.71 933.101 1044.56 1079.89 1032.82 1178.49" stroke="#0626A9" stroke-width="2" stroke-linecap="round" stroke-linejoin="round"/>
<path d="M956.071 1014.99L1007.74 1015.13L1007.77 1001.96L956.108 1001.82L956.071 1014.99Z" fill="#84AAE4"/>
<path d="M956.071 1014.99L1007.74 1015.13L1007.77 1001.96L956.108 1001.82L956.071 1014.99Z" stroke="#0626A9" stroke-width="2" stroke-linecap="round" stroke-linejoin="round"/>
<path d="M1034.15 895.824C1034.15 895.824 1042.16 940.997 1041.73 934.552C1041.72 934.263 1051.73 896.306 1051.73 896.306" fill="white"/>
<path d="M1034.15 895.824C1034.15 895.824 1042.16 940.997 1041.73 934.552C1041.72 934.263 1051.73 896.306 1051.73 896.306" stroke="#0626A9" stroke-width="2" stroke-linecap="round" stroke-linejoin="round"/>
<path d="M807.181 1140.37C805.783 1112.69 827.094 1089.11 854.779 1087.71C882.465 1086.31 906.043 1107.62 907.441 1135.31C908.839 1162.99 887.528 1186.57 859.843 1187.97C832.157 1189.37 808.579 1168.06 807.181 1140.37Z" fill="white"/>
<path d="M807.181 1140.37C805.783 1112.69 827.094 1089.11 854.779 1087.71C882.465 1086.31 906.043 1107.62 907.441 1135.31C908.839 1162.99 887.528 1186.57 859.843 1187.97C832.157 1189.37 808.579 1168.06 807.181 1140.37Z" stroke="#0626A9" stroke-width="2" stroke-linecap="round" stroke-linejoin="round"/>
<path d="M807.178 1134.17C808.83 1087.76 845.107 949.932 846.345 953.428L936.152 994.781L907.28 1138.36" fill="white"/>
<path d="M807.178 1134.17C808.83 1087.76 845.107 949.932 846.345 953.428L936.152 994.781L907.28 1138.36" stroke="#0626A9" stroke-width="2" stroke-linecap="round" stroke-linejoin="round"/>
<path d="M846.995 941.187L811.202 1046.48C811.202 1046.48 873.443 1086.95 924.93 1075.45L947.226 971.626" fill="#84AAE4"/>
<path d="M846.995 941.187L811.202 1046.48C811.202 1046.48 873.443 1086.95 924.93 1075.45L947.226 971.626" stroke="#0626A9" stroke-width="2" stroke-linecap="round" stroke-linejoin="round"/>
<path d="M822.801 1022.53C822.801 1022.53 860.921 1046.2 901.83 1047.91" stroke="#0626A9" stroke-width="2" stroke-linecap="round" stroke-linejoin="round"/>
<path d="M882.524 929.902C896.452 921.56 914.507 926.09 922.849 940.018C931.191 953.947 926.661 972.002 912.733 980.344C898.804 988.685 880.749 984.156 872.407 970.227C864.065 956.299 868.595 938.243 882.524 929.902Z" fill="#84AAE4"/>
<path d="M1071.23 1131.22C1080.74 1150.4 1072.9 1173.65 1053.72 1183.16C1034.54 1192.67 1011.29 1184.83 1001.78 1165.65C992.276 1146.47 1000.11 1123.22 1019.29 1113.71C1038.47 1104.21 1061.72 1112.05 1071.23 1131.22Z" fill="white"/>
<path d="M1071.23 1131.22C1080.74 1150.4 1072.9 1173.65 1053.72 1183.16C1034.54 1192.67 1011.29 1184.83 1001.78 1165.65C992.276 1146.47 1000.11 1123.22 1019.29 1113.71C1038.47 1104.21 1061.72 1112.05 1071.23 1131.22Z" stroke="#0626A9" stroke-width="2" stroke-linecap="round" stroke-linejoin="round"/>
<path d="M1147.89 1127.74C1148.47 1133.83 1144 1139.25 1137.9 1139.83C1131.8 1140.41 1126.39 1135.93 1125.81 1129.83C1125.23 1123.74 1129.7 1118.32 1135.8 1117.74C1141.9 1117.16 1147.31 1121.64 1147.89 1127.74Z" fill="white"/>
<path d="M1147.89 1127.74C1148.47 1133.83 1144 1139.25 1137.9 1139.83C1131.8 1140.41 1126.39 1135.93 1125.81 1129.83C1125.23 1123.74 1129.7 1118.32 1135.8 1117.74C1141.9 1117.16 1147.31 1121.64 1147.89 1127.74Z" stroke="#0626A9" stroke-width="2" stroke-linecap="round" stroke-linejoin="round"/>
<path d="M1143.2 1119.64C1143.2 1119.64 1170.31 1141.32 1173.22 1151.24C1175.43 1158.76 1171.95 1160.33 1168.15 1160.59C1158.72 1161.22 1133.75 1141.12 1130.1 1137.57" fill="white"/>
<path d="M1143.2 1119.64C1143.2 1119.64 1170.31 1141.32 1173.22 1151.24C1175.43 1158.76 1171.95 1160.33 1168.15 1160.59C1158.72 1161.22 1133.75 1141.12 1130.1 1137.57" stroke="#0626A9" stroke-width="2" stroke-linecap="round" stroke-linejoin="round"/>
<path d="M1107.83 1121.02C1108 1128.53 1102.06 1134.77 1094.55 1134.94C1087.04 1135.12 1080.81 1129.18 1080.63 1121.67C1080.45 1114.16 1086.4 1107.93 1093.91 1107.75C1101.42 1107.57 1107.65 1113.51 1107.83 1121.02Z" fill="white"/>
<path d="M1107.83 1121.02C1108 1128.53 1102.06 1134.77 1094.55 1134.94C1087.04 1135.12 1080.81 1129.18 1080.63 1121.67C1080.45 1114.16 1086.4 1107.93 1093.91 1107.75C1101.42 1107.57 1107.65 1113.51 1107.83 1121.02Z" stroke="#0626A9" stroke-width="2" stroke-linecap="round" stroke-linejoin="round"/>
<path d="M1097.45 1108.12C1121.04 1112.68 1140.59 1118.26 1140.59 1118.26L1135.45 1139.29L1092.4 1134.83" fill="white"/>
<path d="M1135.45 1139.29L1092.4 1134.83" stroke="#0626A9" stroke-width="2" stroke-linecap="round" stroke-linejoin="round"/>
<path d="M1096.94 1108.02C1121.07 1112.67 1140.59 1118.26 1140.59 1118.26" stroke="#0626A9" stroke-width="2" stroke-linecap="round" stroke-linejoin="round"/>
<path d="M1093.97 1107.75C1093.97 1107.75 1057.52 1108.72 1038.13 1109.45C1029.72 1109.77 1036.51 1187.3 1036.51 1187.3C1036.51 1187.3 1052.72 1186.2 1067.14 1183.05C1084.44 1179.28 1094.23 1174.39 1094.23 1174.39L1089.49 1151.89V1139.48L1093.97 1107.75Z" fill="white"/>
<path d="M1034.96 1187.17C1034.96 1187.17 1052.78 1186.48 1067.15 1183.05C1084.98 1178.8 1094.23 1174.39 1094.23 1174.39" stroke="#0626A9" stroke-width="2" stroke-linecap="round" stroke-linejoin="round"/>
<path d="M1093.97 1107.75C1093.97 1107.75 1053.69 1109.68 1037.4 1109.68" stroke="#0626A9" stroke-width="2" stroke-linecap="round" stroke-linejoin="round"/>
<path d="M1157.03 1142.9C1157.63 1149.25 1152.96 1154.87 1146.61 1155.46C1140.27 1156.06 1134.64 1151.39 1134.05 1145.04C1133.46 1138.69 1138.12 1133.07 1144.47 1132.48C1150.82 1131.88 1156.44 1136.55 1157.03 1142.9Z" fill="white"/>
<path d="M1157.03 1142.9C1157.63 1149.25 1152.96 1154.87 1146.61 1155.46C1140.27 1156.06 1134.64 1151.39 1134.05 1145.04C1133.46 1138.69 1138.12 1133.07 1144.47 1132.48C1150.82 1131.88 1156.44 1136.55 1157.03 1142.9Z" stroke="#0626A9" stroke-width="2" stroke-linecap="round" stroke-linejoin="round"/>
<path d="M1152.16 1134.47C1152.16 1134.47 1180.33 1157.07 1183.35 1167.4C1185.63 1175.22 1182 1176.86 1178.06 1177.11C1168.24 1177.76 1142.3 1156.8 1138.5 1153.1" fill="white"/>
<path d="M1152.16 1134.47C1152.16 1134.47 1180.33 1157.07 1183.35 1167.4C1185.63 1175.22 1182 1176.86 1178.06 1177.11C1168.24 1177.76 1142.3 1156.8 1138.5 1153.1" stroke="#0626A9" stroke-width="2" stroke-linecap="round" stroke-linejoin="round"/>
<path d="M1114.53 1140C1115.76 1147.71 1110.5 1154.97 1102.78 1156.19C1095.06 1157.42 1087.81 1152.16 1086.58 1144.44C1085.35 1136.72 1090.62 1129.47 1098.33 1128.24C1106.05 1127.01 1113.31 1132.28 1114.53 1140Z" fill="white"/>
<path d="M1099.57 1128.31C1124.3 1126.06 1147.94 1132.6 1147.94 1132.6L1145.55 1155L1100.54 1156.37" fill="white"/>
<path d="M1145.56 1155L1100.54 1156.37" stroke="#0626A9" stroke-width="2" stroke-linecap="round" stroke-linejoin="round"/>
<path d="M1099.57 1128.31C1124.3 1126.06 1147.94 1132.6 1147.94 1132.6" stroke="#0626A9" stroke-width="2" stroke-linecap="round" stroke-linejoin="round"/>
<path d="M1152.87 1145.9C1154.41 1151.86 1150.82 1157.95 1144.86 1159.49C1138.9 1161.03 1132.82 1157.45 1131.28 1151.48C1129.74 1145.52 1133.32 1139.44 1139.28 1137.9C1145.24 1136.36 1151.32 1139.94 1152.87 1145.9Z" fill="white"/>
<path d="M1152.87 1145.9C1154.41 1151.86 1150.82 1157.95 1144.86 1159.49C1138.9 1161.03 1132.82 1157.45 1131.28 1151.48C1129.74 1145.52 1133.32 1139.44 1139.28 1137.9C1145.24 1136.36 1151.32 1139.94 1152.87 1145.9Z" stroke="#0626A9" stroke-width="2" stroke-linecap="round" stroke-linejoin="round"/>
<path d="M1146.92 1138.61C1146.92 1138.61 1177.26 1155.83 1181.73 1165.22C1185.11 1172.33 1181.9 1174.44 1178.18 1175.29C1168.91 1177.42 1140.95 1161.43 1136.76 1158.49" fill="white"/>
<path d="M1146.92 1138.61C1146.92 1138.61 1177.26 1155.83 1181.73 1165.22C1185.11 1172.33 1181.9 1174.44 1178.18 1175.29C1168.91 1177.42 1140.95 1161.43 1136.76 1158.49" stroke="#0626A9" stroke-width="2" stroke-linecap="round" stroke-linejoin="round"/>
<path d="M1111.89 1147.73C1113.78 1155.03 1109.39 1162.49 1102.08 1164.38C1094.77 1166.27 1087.31 1161.88 1085.42 1154.57C1083.53 1147.26 1087.93 1139.8 1095.24 1137.91C1102.54 1136.02 1110 1140.42 1111.89 1147.73Z" fill="white"/>
<path d="M1096.43 1137.87C1120 1133.43 1143.33 1137.54 1143.33 1137.54L1143.1 1159.3L1099.95 1164.76" fill="white"/>
<path d="M1143.1 1159.3L1099.95 1164.76" stroke="#0626A9" stroke-width="2" stroke-linecap="round" stroke-linejoin="round"/>
<path d="M1096.43 1137.87C1120 1133.43 1143.33 1137.54 1143.33 1137.54" stroke="#0626A9" stroke-width="2" stroke-linecap="round" stroke-linejoin="round"/>
<path d="M1139.67 1156.9C1142.51 1161.7 1140.92 1167.88 1136.13 1170.72C1131.34 1173.56 1125.15 1171.97 1122.31 1167.18C1119.47 1162.39 1121.06 1156.2 1125.85 1153.36C1130.64 1150.53 1136.83 1152.11 1139.67 1156.9Z" fill="white"/>
<path d="M1139.67 1156.9C1142.51 1161.7 1140.92 1167.88 1136.13 1170.72C1131.34 1173.56 1125.15 1171.97 1122.31 1167.18C1119.47 1162.39 1121.06 1156.2 1125.85 1153.36C1130.64 1150.53 1136.83 1152.11 1139.67 1156.9Z" stroke="#0626A9" stroke-width="2" stroke-linecap="round" stroke-linejoin="round"/>
<path d="M1132.67 1152.06C1132.67 1152.06 1162.33 1160.42 1169.6 1166.43C1175.09 1170.96 1172.07 1174.4 1169.05 1176.08C1161.54 1180.25 1133.22 1173.39 1128.84 1171.89" fill="white"/>
<path d="M1132.67 1152.06C1132.67 1152.06 1162.33 1160.42 1169.6 1166.43C1175.09 1170.96 1172.07 1174.4 1169.05 1176.08C1161.54 1180.25 1133.22 1173.39 1128.84 1171.89" stroke="#0626A9" stroke-width="2" stroke-linecap="round" stroke-linejoin="round"/>
<path d="M1103.79 1158.5C1105.73 1165.05 1102.01 1171.93 1095.46 1173.88C1088.91 1175.82 1082.03 1172.09 1080.09 1165.55C1078.14 1159 1081.87 1152.12 1088.42 1150.17C1094.96 1148.23 1101.84 1151.96 1103.79 1158.5Z" fill="white"/>
<path d="M1090.76 1149.96C1112.31 1147.4 1133.11 1152.54 1133.11 1152.54L1131.57 1172.16L1092.29 1174.45" fill="white"/>
<path d="M1131.57 1172.16L1092.29 1174.45" stroke="#0626A9" stroke-width="2" stroke-linecap="round" stroke-linejoin="round"/>
<path d="M1090.76 1149.96C1112.31 1147.4 1133.11 1152.54 1133.11 1152.54" stroke="#0626A9" stroke-width="2" stroke-linecap="round" stroke-linejoin="round"/>
<path d="M825.827 1135.57C827.089 1118.21 842.182 1105.17 859.539 1106.43C876.897 1107.69 889.945 1122.78 888.684 1140.14C887.422 1157.5 872.329 1170.55 854.972 1169.28C837.615 1168.02 824.566 1152.93 825.827 1135.57Z" fill="white"/>
<path d="M1046.63 1147.72C1046.48 1120.1 1043.51 1109.41 1043.51 1109.41C1043.51 1109.41 1002.73 1104.94 990.175 1103.19C956.613 1098.5 859.08 1087.65 859.08 1087.65L856.557 1188.14C856.557 1188.14 1037.16 1186.36 1039.84 1187.09C1039.84 1187.09 1046.79 1176.3 1046.63 1147.72Z" fill="white"/>
<path d="M1039.84 1187.09C1026.05 1186.98 856.558 1188.14 856.558 1188.14" stroke="#0626A9" stroke-width="2" stroke-linecap="round" stroke-linejoin="round"/>
<path d="M871.515 1089.2C871.515 1089.2 1015.5 1106.21 1043.51 1109.41" stroke="#0626A9" stroke-width="2" stroke-linecap="round" stroke-linejoin="round"/>
<path d="M1182.17 1180.26H1451.07L1476.48 993.647C1477.03 989.592 1474.19 986.305 1470.13 986.305H1215.92C1211.86 986.305 1208.13 989.592 1207.58 993.647L1182.17 1180.26Z" fill="#0626A9"/>
<path d="M1196.87 1176.97H1461.21L1486.19 993.523C1486.73 989.537 1483.94 986.305 1479.95 986.305H1230.04C1226.06 986.305 1222.39 989.537 1221.84 993.523L1196.87 1176.97Z" fill="white"/>
<path d="M1196.87 1176.97H1461.21L1486.19 993.523C1486.73 989.537 1483.94 986.305 1479.95 986.305H1230.04C1226.06 986.305 1222.39 989.537 1221.84 993.523L1196.87 1176.97Z" stroke="#0626A9" stroke-width="2" stroke-linecap="round" stroke-linejoin="round"/>
<path d="M1329.67 1084.93C1328.77 1091.5 1333.37 1096.82 1339.94 1096.82C1346.51 1096.82 1352.56 1091.5 1353.46 1084.93C1354.35 1078.36 1349.75 1073.03 1343.18 1073.03C1336.61 1073.03 1330.56 1078.36 1329.67 1084.93Z" fill="#0626A9"/>
<path d="M1061.26 1188.51H1443.63C1453.8 1188.51 1462.04 1180.27 1462.04 1170.1H1042.85C1042.85 1180.27 1051.09 1188.51 1061.26 1188.51Z" fill="#0626A9"/>
<path d="M1512.56 1272.46H87.4414V1189.3H1512.56V1272.46Z" fill="white"/>
<path d="M1512.56 1272.46H87.4414V1189.3H1512.56V1272.46Z" stroke="#0626A9" stroke-width="2" stroke-linecap="round" stroke-linejoin="round"/>
</g>
</g>
<defs>
<clipPath id="clip0_24_28297">
<rect width="1600" height="1600" fill="white"/>
</clipPath>
</defs>
</svg>
