<svg width="1600" height="1600" viewBox="0 0 1600 1600" fill="none" xmlns="http://www.w3.org/2000/svg">
<g clip-path="url(#clip0_24_28818)">
<mask id="mask0_24_28818" style="mask-type:luminance" maskUnits="userSpaceOnUse" x="0" y="0" width="1600" height="1600">
<path d="M1600 0H0V1600H1600V0Z" fill="white"/>
</mask>
<g mask="url(#mask0_24_28818)">
<path d="M340.973 1219.1H1259.03" stroke="#0626A9" stroke-width="2" stroke-linecap="round" stroke-linejoin="round"/>
<path d="M502.325 1037.87L532.566 1031.72L543.514 981.438L518.569 963.265L508.459 931.625L518.249 902.352L480.184 867.734L451.972 880.249L419.514 873.186L399.059 850.074L350.046 865.728L346.776 896.42L324.431 920.994L294.186 927.154L283.237 977.426L308.187 995.603L318.289 1027.24L308.503 1056.51L346.572 1091.13L374.784 1078.62L407.238 1085.68L427.693 1108.8L476.71 1093.14L479.977 1062.45L502.325 1037.87ZM403.766 1023.57C379.388 1018.26 363.93 994.199 369.237 969.825C374.544 945.444 398.609 929.986 422.99 935.293C447.364 940.6 462.826 964.668 457.515 989.046C452.211 1013.42 428.144 1028.89 403.766 1023.57Z" fill="#84AAE4"/>
<path d="M502.325 1037.87L532.566 1031.72L543.514 981.438L518.569 963.265L508.459 931.625L518.249 902.352L480.184 867.734L451.972 880.249L419.514 873.186L399.059 850.074L350.046 865.728L346.776 896.42L324.431 920.994L294.186 927.154L283.237 977.426L308.187 995.603L318.289 1027.24L308.503 1056.51L346.572 1091.13L374.784 1078.62L407.238 1085.68L427.693 1108.8L476.71 1093.14L479.977 1062.45L502.325 1037.87ZM403.766 1023.57C379.388 1018.26 363.93 994.199 369.237 969.825C374.544 945.444 398.609 929.986 422.99 935.293C447.364 940.6 462.826 964.668 457.515 989.046C452.211 1013.42 428.144 1028.89 403.766 1023.57Z" stroke="#0626A9" stroke-width="2" stroke-linecap="round" stroke-linejoin="round"/>
<path d="M602.684 585.33L629.453 549.184L592.311 484.029L547.566 488.65L505.772 464.218L487.848 422.955L412.858 422.543L394.486 463.603L352.429 487.586L307.737 482.478L269.882 547.214L296.255 583.66L295.992 632.068L269.223 668.222L306.359 733.37L351.111 728.748L392.898 753.188L410.821 794.443L485.818 794.855L504.191 753.795L546.247 729.82L590.94 734.928L628.794 670.184L602.422 633.746L602.684 585.33ZM481.946 665.9C450.353 683.906 410.147 672.896 392.141 641.311C374.128 609.718 385.138 569.511 416.731 551.498C448.316 533.492 488.53 544.502 506.536 576.095C524.549 607.68 513.539 647.894 481.946 665.9Z" fill="#0626A9"/>
<path d="M602.684 585.33L629.453 549.184L592.311 484.029L547.566 488.65L505.772 464.218L487.848 422.955L412.858 422.543L394.486 463.603L352.429 487.586L307.737 482.478L269.882 547.214L296.255 583.66L295.992 632.068L269.223 668.222L306.359 733.37L351.111 728.748L392.898 753.188L410.821 794.443L485.818 794.855L504.191 753.795L546.247 729.82L590.94 734.928L628.794 670.184L602.422 633.746L602.684 585.33ZM481.946 665.9C450.353 683.906 410.147 672.896 392.141 641.311C374.128 609.718 385.138 569.511 416.731 551.498C448.316 533.492 488.53 544.502 506.536 576.095C524.549 607.68 513.539 647.894 481.946 665.9Z" stroke="#0626A9" stroke-width="1.991" stroke-linecap="round" stroke-linejoin="round"/>
<path d="M905.06 1206.5H736.979V927.064H905.06V1206.5Z" fill="#84AAE4"/>
<path d="M905.06 1206.5H736.979V927.064H905.06V1206.5Z" stroke="#0626A9" stroke-width="2" stroke-linecap="round" stroke-linejoin="round"/>
<path d="M958.286 1219.1H683.754V1216.82C683.754 1204.16 694.018 1193.89 706.681 1193.89H935.358C948.021 1193.89 958.286 1204.16 958.286 1216.82V1219.1Z" fill="#84AAE4"/>
<path d="M958.286 1219.1H683.754V1216.82C683.754 1204.16 694.018 1193.89 706.681 1193.89H935.358C948.021 1193.89 958.286 1204.16 958.286 1216.82V1219.1Z" stroke="#0626A9" stroke-width="2" stroke-linecap="round" stroke-linejoin="round"/>
<path d="M909.025 1056.18L737.105 1156.15V1059.16" fill="#0626A9"/>
<path d="M909.025 1056.18L737.105 1156.15V1059.16" stroke="#0626A9" stroke-width="1.991" stroke-linecap="round" stroke-linejoin="round"/>
<path d="M1176.09 1066.26H465.949C456.666 1066.26 449.141 1058.73 449.141 1049.45V621.367C449.141 612.084 456.666 604.559 465.949 604.559H1176.09C1185.37 604.559 1192.9 612.084 1192.9 621.367V1049.45C1192.9 1058.73 1185.37 1066.26 1176.09 1066.26Z" fill="#84AAE4"/>
<path d="M1176.09 1066.26H465.949C456.666 1066.26 449.141 1058.73 449.141 1049.45V621.367C449.141 612.084 456.666 604.559 465.949 604.559H1176.09C1185.37 604.559 1192.9 612.084 1192.9 621.367V1049.45C1192.9 1058.73 1185.37 1066.26 1176.09 1066.26Z" stroke="#0626A9" stroke-width="2" stroke-linecap="round" stroke-linejoin="round"/>
<path d="M479.84 642.062V1028.75H1162.2V642.062H479.84Z" fill="white"/>
<path d="M479.84 642.062V1028.75H1162.2V642.062H479.84Z" stroke="#0626A9" stroke-width="2" stroke-linecap="round" stroke-linejoin="round"/>
<path d="M864.602 947.29L827.417 972.788L790.232 947.29C746.305 917.168 720.048 867.329 720.048 814.066V742.1L827.417 702.425L934.785 742.1V814.066C934.785 867.329 908.529 917.168 864.602 947.29Z" fill="#8869D5"/>
<path d="M864.602 947.29L827.417 972.788L790.232 947.29C746.305 917.168 720.048 867.329 720.048 814.066V742.1L827.417 702.425L934.785 742.1V814.066C934.785 867.329 908.529 917.168 864.602 947.29Z" stroke="#0626A9" stroke-width="2" stroke-linecap="round" stroke-linejoin="round"/>
<mask id="mask1_24_28818" style="mask-type:alpha" maskUnits="userSpaceOnUse" x="719" y="702" width="216" height="271">
<path d="M864.283 946.348L827.417 971.627L790.552 946.348C747.002 916.485 720.971 867.074 720.971 814.268V742.92L827.417 703.586L933.863 742.92V814.268C933.863 867.074 907.833 916.485 864.283 946.348Z" fill="#F94A82"/>
<path d="M864.283 946.348L827.417 971.627L790.552 946.348C747.002 916.485 720.971 867.074 720.971 814.268V742.92L827.417 703.586L933.863 742.92V814.268C933.863 867.074 907.833 916.485 864.283 946.348Z" stroke="#202870" stroke-width="1.99967" stroke-linecap="round" stroke-linejoin="round"/>
</mask>
<g mask="url(#mask1_24_28818)">
<path d="M570.02 856.805L807.255 589.445Z" fill="#0626A9"/>
<path d="M570.02 856.805L807.255 589.445" stroke="white" stroke-width="50.8361"/>
<path d="M538.581 808.421L775.816 541.061Z" fill="#0626A9"/>
<path d="M538.581 808.421L775.816 541.061" stroke="white" stroke-width="30.1251"/>
</g>
<path d="M815.279 886.989L760.204 831.916L773.637 818.483L815.279 860.125L888.506 786.898L901.939 800.331L815.279 886.989Z" fill="white"/>
<path d="M815.279 886.989L760.204 831.916L773.637 818.483L815.279 860.125L888.506 786.898L901.939 800.331L815.279 886.989Z" stroke="#0626A9" stroke-width="2.04802" stroke-linecap="round" stroke-linejoin="round"/>
<path d="M1324.09 739.345H996.575V528.168H1324.09V739.345Z" fill="#84AAE4"/>
<path d="M1324.09 739.345H996.575V528.168H1324.09V739.345Z" stroke="#0626A9" stroke-width="2" stroke-linecap="round" stroke-linejoin="round"/>
<path d="M1287.1 599.96C1287.1 612.96 1281.66 624.69 1272.92 632.98C1264.75 640.76 1253.7 645.53 1241.53 645.53C1229.37 645.53 1218.32 640.76 1210.14 632.99C1201.41 624.69 1195.96 612.96 1195.96 599.96C1195.96 574.8 1216.37 554.39 1241.53 554.39C1266.7 554.39 1287.1 574.8 1287.1 599.96Z" fill="#0626A9"/>
<path d="M1287.1 599.96C1287.1 612.96 1281.66 624.69 1272.92 632.98C1264.75 640.76 1253.7 645.53 1241.53 645.53C1229.37 645.53 1218.32 640.76 1210.14 632.99C1201.41 624.69 1195.96 612.96 1195.96 599.96C1195.96 574.8 1216.37 554.39 1241.53 554.39C1266.7 554.39 1287.1 574.8 1287.1 599.96Z" stroke="#0626A9" stroke-width="2" stroke-linecap="round" stroke-linejoin="round"/>
<path d="M1257.56 591.929C1257.56 600.78 1250.39 607.955 1241.54 607.955C1232.69 607.955 1225.51 600.78 1225.51 591.929C1225.51 583.078 1232.69 575.903 1241.54 575.903C1250.39 575.903 1257.56 583.078 1257.56 591.929Z" fill="white"/>
<path d="M1257.56 591.929C1257.56 600.78 1250.39 607.955 1241.54 607.955C1232.69 607.955 1225.51 600.78 1225.51 591.929C1225.51 583.078 1232.69 575.903 1241.54 575.903C1250.39 575.903 1257.56 583.078 1257.56 591.929Z" stroke="#0626A9" stroke-width="2" stroke-linecap="round" stroke-linejoin="round"/>
<path d="M1272.92 632.98C1264.75 640.76 1253.7 645.53 1241.53 645.53C1229.37 645.53 1218.32 640.76 1210.14 632.99C1213.4 618.65 1226.22 607.95 1241.53 607.95C1256.85 607.95 1269.67 618.65 1272.92 632.98Z" fill="white"/>
<path d="M1272.92 632.98C1264.75 640.76 1253.7 645.53 1241.53 645.53C1229.37 645.53 1218.32 640.76 1210.14 632.99C1213.4 618.65 1226.22 607.95 1241.53 607.95C1256.85 607.95 1269.67 618.65 1272.92 632.98Z" stroke="#0626A9" stroke-width="2" stroke-linecap="round" stroke-linejoin="round"/>
<path d="M1157.57 599.96H1033.56" stroke="#0626A9" stroke-width="2" stroke-linecap="round" stroke-linejoin="round"/>
<path d="M1251.1 669.717H1033.56" stroke="#0626A9" stroke-width="2" stroke-linecap="round" stroke-linejoin="round"/>
<path d="M1251.1 691.42H1033.56" stroke="#0626A9" stroke-width="2" stroke-linecap="round" stroke-linejoin="round"/>
<path d="M1131.74 713.123H1033.56" stroke="#0626A9" stroke-width="2" stroke-linecap="round" stroke-linejoin="round"/>
<path d="M611.633 931.155L449.141 1025.65V931.155" fill="#0626A9"/>
<path d="M611.633 931.155L449.141 1025.65V931.155" stroke="#0626A9" stroke-width="1.991" stroke-linecap="round" stroke-linejoin="round"/>
<path d="M180.838 931.155H611.633V796.862H180.838V931.155Z" fill="white"/>
<path d="M180.838 931.155H611.633V796.862H180.838V931.155Z" stroke="#0626A9" stroke-width="2" stroke-linecap="round" stroke-linejoin="round"/>
<path d="M180.838 849.665H611.633V796.862H180.838V849.665Z" fill="#84AAE4"/>
<path d="M180.838 849.665H611.633V796.862H180.838V849.665Z" stroke="#0626A9" stroke-width="2" stroke-linecap="round" stroke-linejoin="round"/>
<path d="M294.292 823.263C294.292 828.792 298.775 833.275 304.304 833.275C309.833 833.275 314.315 828.792 314.315 823.263C314.315 817.734 309.833 813.252 304.304 813.252C298.775 813.252 294.292 817.734 294.292 823.263Z" fill="#8869D5"/>
<path d="M294.292 823.263C294.292 828.792 298.775 833.275 304.304 833.275C309.833 833.275 314.315 828.792 314.315 823.263C314.315 817.734 309.833 813.252 304.304 813.252C298.775 813.252 294.292 817.734 294.292 823.263Z" stroke="#0626A9" stroke-width="2" stroke-linecap="round" stroke-linejoin="round"/>
<path d="M248.425 823.263C248.425 828.792 252.907 833.275 258.436 833.275C263.965 833.275 268.448 828.792 268.448 823.263C268.448 817.734 263.965 813.252 258.436 813.252C252.907 813.252 248.425 817.734 248.425 823.263Z" fill="#8869D5"/>
<path d="M248.425 823.263C248.425 828.792 252.907 833.275 258.436 833.275C263.965 833.275 268.448 828.792 268.448 823.263C268.448 817.734 263.965 813.252 258.436 813.252C252.907 813.252 248.425 817.734 248.425 823.263Z" stroke="#0626A9" stroke-width="2" stroke-linecap="round" stroke-linejoin="round"/>
<path d="M202.557 823.263C202.557 828.792 207.039 833.275 212.568 833.275C218.097 833.275 222.58 828.792 222.58 823.263C222.58 817.734 218.097 813.252 212.568 813.252C207.039 813.252 202.557 817.734 202.557 823.263Z" fill="#8869D5"/>
<path d="M202.557 823.263C202.557 828.792 207.039 833.275 212.568 833.275C218.097 833.275 222.58 828.792 222.58 823.263C222.58 817.734 218.097 813.252 212.568 813.252C207.039 813.252 202.557 817.734 202.557 823.263Z" stroke="#0626A9" stroke-width="2" stroke-linecap="round" stroke-linejoin="round"/>
<path d="M1306.32 1093.56L1251.14 1098.49L1242.65 1001.49L1297.83 996.559L1306.32 1093.56Z" fill="white"/>
<path d="M1306.32 1093.56L1251.14 1098.49L1242.65 1001.49L1297.83 996.559L1306.32 1093.56Z" stroke="#0626A9" stroke-width="2" stroke-linecap="round" stroke-linejoin="round"/>
<path d="M1258.32 1069.96L1296.49 1024.48" stroke="#0626A9" stroke-width="2" stroke-linecap="round" stroke-linejoin="round"/>
<path d="M1300.15 1066.3L1254.66 1028.14" stroke="#0626A9" stroke-width="2" stroke-linecap="round" stroke-linejoin="round"/>
<path d="M1260.37 1069.78L1298.54 1024.3" stroke="#0626A9" stroke-width="2" stroke-linecap="round" stroke-linejoin="round"/>
<path d="M1302.2 1066.12L1256.71 1027.96" stroke="#0626A9" stroke-width="2" stroke-linecap="round" stroke-linejoin="round"/>
<path d="M1260.43 1069.78L1298.6 1024.29" stroke="#0626A9" stroke-width="2" stroke-linecap="round" stroke-linejoin="round"/>
<path d="M1302.26 1066.12L1256.77 1027.95" stroke="#0626A9" stroke-width="2" stroke-linecap="round" stroke-linejoin="round"/>
<path d="M1256.5 1070.12L1294.67 1024.64" stroke="#0626A9" stroke-width="2" stroke-linecap="round" stroke-linejoin="round"/>
<path d="M1298.33 1066.46L1252.84 1028.3" stroke="#0626A9" stroke-width="2" stroke-linecap="round" stroke-linejoin="round"/>
<path d="M1382.32 981.185L1364.13 983.251L1361.74 950.055C1359.76 927.479 1339.79 910.719 1317.21 912.694L1310.12 913.314C1287.55 915.289 1270.79 935.263 1272.76 957.839L1275.01 983.533L1257.08 985.102L1254.83 959.408C1251.99 926.945 1276.09 898.223 1308.55 895.383L1315.64 894.763C1348.11 891.922 1376.83 916.023 1379.67 948.486L1382.32 981.185Z" fill="#8869D5"/>
<path d="M1382.32 981.185L1364.13 983.251L1361.74 950.055C1359.76 927.479 1339.79 910.719 1317.21 912.694L1310.12 913.314C1287.55 915.289 1270.79 935.263 1272.76 957.839L1275.01 983.533L1257.08 985.102L1254.83 959.408C1251.99 926.945 1276.09 898.223 1308.55 895.383L1315.64 894.763C1348.11 891.922 1376.83 916.023 1379.67 948.486L1382.32 981.185Z" stroke="#0626A9" stroke-width="2" stroke-linecap="round" stroke-linejoin="round"/>
<path d="M1395.28 1107.71L1267.1 1118.93C1255.39 1119.95 1245.06 1111.28 1244.03 1099.57L1234.19 987.104L1404.8 972.177L1414.64 1084.64C1415.67 1096.36 1407 1106.69 1395.28 1107.71Z" fill="#8869D5"/>
<path d="M1395.28 1107.71L1267.1 1118.93C1255.39 1119.95 1245.06 1111.28 1244.03 1099.57L1234.19 987.104L1404.8 972.177L1414.64 1084.64C1415.67 1096.36 1407 1106.69 1395.28 1107.71Z" stroke="#0626A9" stroke-width="2" stroke-linecap="round" stroke-linejoin="round"/>
<path d="M1341.81 1032.01C1340.96 1022.29 1332.39 1015.1 1322.67 1015.95C1312.96 1016.8 1305.77 1025.37 1306.62 1035.09C1307.2 1041.74 1311.41 1047.21 1317.13 1049.72L1312.72 1078.34L1343.31 1075.67L1334 1048.25C1339.19 1044.78 1342.39 1038.67 1341.81 1032.01Z" fill="white"/>
<path d="M1341.81 1032.01C1340.96 1022.29 1332.39 1015.1 1322.67 1015.95C1312.96 1016.8 1305.77 1025.37 1306.62 1035.09C1307.2 1041.74 1311.41 1047.21 1317.13 1049.72L1312.72 1078.34L1343.31 1075.67L1334 1048.25C1339.19 1044.78 1342.39 1038.67 1341.81 1032.01Z" stroke="#0626A9" stroke-width="2" stroke-linecap="round" stroke-linejoin="round"/>
<path d="M612.811 314.44C612.811 321.96 606.714 328.057 599.194 328.057C591.674 328.057 585.578 321.96 585.578 314.44C585.578 306.92 591.674 300.824 599.194 300.824C606.714 300.824 612.811 306.92 612.811 314.44Z" fill="#8869D5"/>
<path d="M358.363 424.259C358.363 427.967 355.356 430.974 351.648 430.974C347.94 430.974 344.934 427.967 344.934 424.259C344.934 420.551 347.94 417.545 351.648 417.545C355.356 417.545 358.363 420.551 358.363 424.259Z" fill="#84AAE4"/>
<path d="M358.363 424.259C358.363 427.967 355.356 430.974 351.648 430.974C347.94 430.974 344.934 427.967 344.934 424.259C344.934 420.551 347.94 417.545 351.648 417.545C355.356 417.545 358.363 420.551 358.363 424.259Z" stroke="#0626A9" stroke-width="2" stroke-linecap="round" stroke-linejoin="round"/>
<path d="M744.568 562.44C744.568 566.2 741.519 569.248 737.759 569.248C733.999 569.248 730.951 566.2 730.951 562.44C730.951 558.68 733.999 555.631 737.759 555.631C741.519 555.631 744.568 558.68 744.568 562.44Z" fill="#0626A9"/>
<path d="M744.568 562.44C744.568 566.2 741.519 569.248 737.759 569.248C733.999 569.248 730.951 566.2 730.951 562.44C730.951 558.68 733.999 555.631 737.759 555.631C741.519 555.631 744.568 558.68 744.568 562.44Z" stroke="#0626A9" stroke-width="2" stroke-linecap="round" stroke-linejoin="round"/>
<path d="M244.651 673.654C244.651 676.863 242.049 679.465 238.84 679.465C235.631 679.465 233.029 676.863 233.029 673.654C233.029 670.445 235.631 667.843 238.84 667.843C242.049 667.843 244.651 670.445 244.651 673.654Z" fill="#0626A9"/>
<path d="M244.651 673.654C244.651 676.863 242.049 679.465 238.84 679.465C235.631 679.465 233.029 676.863 233.029 673.654C233.029 670.445 235.631 667.843 238.84 667.843C242.049 667.843 244.651 670.445 244.651 673.654Z" stroke="#0626A9" stroke-width="2" stroke-linecap="round" stroke-linejoin="round"/>
<path d="M881.243 523.405C881.243 526.614 878.64 529.216 875.431 529.216C872.222 529.216 869.62 526.614 869.62 523.405C869.62 520.196 872.222 517.594 875.431 517.594C878.64 517.594 881.243 520.196 881.243 523.405Z" fill="#8869D5"/>
<path d="M1061.72 454.366C1061.72 459.735 1057.37 464.088 1052 464.088C1046.63 464.088 1042.28 459.735 1042.28 454.366C1042.28 448.997 1046.63 444.644 1052 444.644C1057.37 444.644 1061.72 448.997 1061.72 454.366Z" fill="white"/>
<path d="M1061.72 454.366C1061.72 459.735 1057.37 464.088 1052 464.088C1046.63 464.088 1042.28 459.735 1042.28 454.366C1042.28 448.997 1046.63 444.644 1052 444.644C1057.37 444.644 1061.72 448.997 1061.72 454.366Z" stroke="#0626A9" stroke-width="2" stroke-linecap="round" stroke-linejoin="round"/>
<path d="M202.608 497.999C202.608 503.368 198.255 507.721 192.886 507.721C187.517 507.721 183.165 503.368 183.165 497.999C183.165 492.63 187.517 488.277 192.886 488.277C198.255 488.277 202.608 492.63 202.608 497.999Z" fill="white"/>
<path d="M202.608 497.999C202.608 503.368 198.255 507.721 192.886 507.721C187.517 507.721 183.165 503.368 183.165 497.999C183.165 492.63 187.517 488.277 192.886 488.277C198.255 488.277 202.608 492.63 202.608 497.999Z" stroke="#0626A9" stroke-width="2" stroke-linecap="round" stroke-linejoin="round"/>
<path d="M605.014 1133.47C605.014 1138.84 600.661 1143.2 595.292 1143.2C589.923 1143.2 585.57 1138.84 585.57 1133.47C585.57 1128.1 589.923 1123.75 595.292 1123.75C600.661 1123.75 605.014 1128.1 605.014 1133.47Z" fill="white"/>
<path d="M605.014 1133.47C605.014 1138.84 600.661 1143.2 595.292 1143.2C589.923 1143.2 585.57 1138.84 585.57 1133.47C585.57 1128.1 589.923 1123.75 595.292 1123.75C600.661 1123.75 605.014 1128.1 605.014 1133.47Z" stroke="#0626A9" stroke-width="2" stroke-linecap="round" stroke-linejoin="round"/>
</g>
</g>
<defs>
<clipPath id="clip0_24_28818">
<rect width="1600" height="1600" fill="white"/>
</clipPath>
</defs>
</svg>
