<svg width="1600" height="1600" viewBox="0 0 1600 1600" fill="none" xmlns="http://www.w3.org/2000/svg">
<g clip-path="url(#clip0_2_8865)">
<mask id="mask0_2_8865" style="mask-type:luminance" maskUnits="userSpaceOnUse" x="0" y="0" width="1600" height="1600">
<path d="M1600 0H0V1600H1600V0Z" fill="white"/>
</mask>
<g mask="url(#mask0_2_8865)">
<mask id="mask1_2_8865" style="mask-type:luminance" maskUnits="userSpaceOnUse" x="69" y="69" width="1462" height="1462">
<path d="M1531 69H69V1531H1531V69Z" fill="white"/>
</mask>
<g mask="url(#mask1_2_8865)">
<path d="M883.333 377.318H1283.16V926.308H883.333V377.318Z" fill="white"/>
<path d="M883.333 377.318H1283.16V926.308H883.333V377.318Z" stroke="#0626A9" stroke-width="2" stroke-linecap="round" stroke-linejoin="round"/>
<path d="M1234.99 522.952H931.505V437.847H1234.99V522.952Z" fill="#84AAE4"/>
<path d="M1234.99 522.952H931.505V437.847H1234.99V522.952Z" stroke="#0626A9" stroke-width="2" stroke-linecap="round" stroke-linejoin="round"/>
<path d="M932.089 555.177H1179.99" stroke="#0626A9" stroke-width="2" stroke-linecap="round" stroke-linejoin="round"/>
<path d="M932.088 594.397C932.088 594.397 1048.05 594.397 1085.08 594.397" stroke="#0626A9" stroke-width="2" stroke-linecap="round" stroke-linejoin="round"/>
<path d="M932.088 633.616C932.088 633.616 1093.71 633.616 1180.83 633.616" stroke="#0626A9" stroke-width="2" stroke-linecap="round" stroke-linejoin="round"/>
<path d="M1085.37 636.503L1074.23 926.366H1201.81L1085.37 636.503Z" fill="#0626A9"/>
<path d="M1085.37 636.503L1074.23 926.366H1201.81L1085.37 636.503Z" stroke="#0626A9" stroke-width="2" stroke-linecap="round" stroke-linejoin="round"/>
<path d="M883.333 1017.34V1168.04H1085.37" stroke="#0626A9" stroke-width="2" stroke-linecap="round" stroke-linejoin="round"/>
<path d="M1271.92 1166.75C1271.92 1223.49 1225.93 1269.47 1169.2 1269.47C1112.47 1269.47 1066.49 1223.49 1066.49 1166.75C1066.49 1110.03 1112.47 1064.04 1169.2 1064.04C1225.93 1064.04 1271.92 1110.03 1271.92 1166.75Z" fill="#84AAE4"/>
<path d="M1271.92 1166.75C1271.92 1223.49 1225.93 1269.47 1169.2 1269.47C1112.47 1269.47 1066.49 1223.49 1066.49 1166.75C1066.49 1110.03 1112.47 1064.04 1169.2 1064.04C1225.93 1064.04 1271.92 1110.03 1271.92 1166.75Z" stroke="#0626A9" stroke-width="2" stroke-linecap="round" stroke-linejoin="round"/>
<path d="M1241.81 1166.75C1241.81 1166.75 1209.3 1202.1 1169.2 1202.1C1129.1 1202.1 1096.58 1166.75 1096.58 1166.75C1096.58 1166.75 1129.1 1131.41 1169.2 1131.41C1209.3 1131.41 1241.81 1166.75 1241.81 1166.75Z" fill="white"/>
<path d="M1241.81 1166.75C1241.81 1166.75 1209.3 1202.1 1169.2 1202.1C1129.1 1202.1 1096.58 1166.75 1096.58 1166.75C1096.58 1166.75 1129.1 1131.41 1169.2 1131.41C1209.3 1131.41 1241.81 1166.75 1241.81 1166.75Z" stroke="#0626A9" stroke-width="2" stroke-linecap="round" stroke-linejoin="round"/>
<mask id="mask2_2_8865" style="mask-type:alpha" maskUnits="userSpaceOnUse" x="1095" y="1130" width="148" height="74">
<path d="M1241.81 1166.75C1241.81 1166.75 1209.3 1202.1 1169.2 1202.1C1129.1 1202.1 1096.58 1166.75 1096.58 1166.75C1096.58 1166.75 1129.1 1131.41 1169.2 1131.41C1209.3 1131.41 1241.81 1166.75 1241.81 1166.75Z" fill="white"/>
<path d="M1241.81 1166.75C1241.81 1166.75 1209.3 1202.1 1169.2 1202.1C1129.1 1202.1 1096.58 1166.75 1096.58 1166.75C1096.58 1166.75 1129.1 1131.41 1169.2 1131.41C1209.3 1131.41 1241.81 1166.75 1241.81 1166.75Z" stroke="#202870" stroke-width="2" stroke-linecap="round" stroke-linejoin="round"/>
</mask>
<g mask="url(#mask2_2_8865)">
<path d="M1204.54 1166.75C1204.54 1186.28 1188.72 1202.1 1169.2 1202.1C1149.67 1202.1 1133.85 1186.28 1133.85 1166.75C1133.85 1147.23 1149.67 1131.41 1169.2 1131.41C1188.72 1131.41 1204.54 1147.23 1204.54 1166.75Z" fill="#0626A9"/>
<path d="M1204.54 1166.75C1204.54 1186.28 1188.72 1202.1 1169.2 1202.1C1149.67 1202.1 1133.85 1186.28 1133.85 1166.75C1133.85 1147.23 1149.67 1131.41 1169.2 1131.41C1188.72 1131.41 1204.54 1147.23 1204.54 1166.75Z" stroke="#0626A9" stroke-width="2" stroke-linecap="round" stroke-linejoin="round"/>
<path d="M1185.89 1166.75C1185.89 1175.98 1178.42 1183.46 1169.2 1183.46C1159.98 1183.46 1152.5 1175.98 1152.5 1166.75C1152.5 1157.53 1159.98 1150.06 1169.2 1150.06C1178.42 1150.06 1185.89 1157.53 1185.89 1166.75Z" fill="white"/>
<path d="M1185.89 1166.75C1185.89 1175.98 1178.42 1183.46 1169.2 1183.46C1159.98 1183.46 1152.5 1175.98 1152.5 1166.75C1152.5 1157.53 1159.98 1150.06 1169.2 1150.06C1178.42 1150.06 1185.89 1157.53 1185.89 1166.75Z" stroke="#0626A9" stroke-width="2" stroke-linecap="round" stroke-linejoin="round"/>
</g>
<path d="M726.29 636.503V515.266H524.822" stroke="#0626A9" stroke-width="2" stroke-linecap="round" stroke-linejoin="round"/>
<path d="M533.907 515.266C533.907 571.994 487.921 617.98 431.193 617.98C374.466 617.98 328.479 571.994 328.479 515.266C328.479 458.539 374.466 412.553 431.193 412.553C487.921 412.553 533.907 458.539 533.907 515.266Z" fill="#84AAE4"/>
<path d="M533.907 515.266C533.907 571.994 487.921 617.98 431.193 617.98C374.466 617.98 328.479 571.994 328.479 515.266C328.479 458.539 374.466 412.553 431.193 412.553C487.921 412.553 533.907 458.539 533.907 515.266Z" stroke="#0626A9" stroke-width="2" stroke-linecap="round" stroke-linejoin="round"/>
<path d="M489.757 474.552L471.908 456.703L431.193 497.417L390.479 456.703L372.63 474.552L413.345 515.266L372.63 555.981L390.479 573.83L431.193 533.116L471.908 573.83L489.757 555.981L449.042 515.266L489.757 474.552Z" fill="white"/>
<path d="M489.757 474.552L471.908 456.703L431.193 497.417L390.479 456.703L372.63 474.552L413.345 515.266L372.63 555.981L390.479 573.83L431.193 533.116L471.908 573.83L489.757 555.981L449.042 515.266L489.757 474.552Z" stroke="#0626A9" stroke-width="2.02401" stroke-linecap="round" stroke-linejoin="round"/>
<mask id="mask3_2_8865" style="mask-type:luminance" maskUnits="userSpaceOnUse" x="69" y="69" width="1462" height="1462">
<path d="M69 69H1531V1531H69V69Z" fill="white"/>
</mask>
<g mask="url(#mask3_2_8865)">
<path d="M799.826 1024.77V1293.67" stroke="#0626A9" stroke-width="2" stroke-linecap="round" stroke-linejoin="round"/>
<path d="M704.168 723.59H435.271" stroke="#0626A9" stroke-width="2" stroke-linecap="round" stroke-linejoin="round"/>
<path d="M828.896 310.501V439.003H768.355V632.494" stroke="#0626A9" stroke-width="2" stroke-linecap="round" stroke-linejoin="round"/>
<path d="M349.705 1035.6H241.932V808.577" stroke="#0626A9" stroke-width="2" stroke-linecap="round" stroke-linejoin="round"/>
<path d="M1085.37 827.319H1358.07V980.838" stroke="#0626A9" stroke-width="2" stroke-linecap="round" stroke-linejoin="round"/>
<path d="M1085.37 827.319H1163.66" stroke="white" stroke-width="2" stroke-linecap="round" stroke-linejoin="round"/>
<path d="M1085.37 781.801H1224.63V703.461" stroke="#0626A9" stroke-width="2" stroke-linecap="round" stroke-linejoin="round"/>
<path d="M1085.37 781.8H1145.23" stroke="white" stroke-width="2" stroke-linecap="round" stroke-linejoin="round"/>
<path d="M812.512 1103.85C812.512 1110.97 806.735 1116.75 799.61 1116.75C792.484 1116.75 786.708 1110.97 786.708 1103.85C786.708 1096.72 792.484 1090.95 799.61 1090.95C806.735 1090.95 812.512 1096.72 812.512 1103.85Z" fill="#8869D5"/>
<path d="M812.512 1103.85C812.512 1110.97 806.735 1116.75 799.61 1116.75C792.484 1116.75 786.708 1110.97 786.708 1103.85C786.708 1096.72 792.484 1090.95 799.61 1090.95C806.735 1090.95 812.512 1096.72 812.512 1103.85Z" stroke="#0626A9" stroke-width="2" stroke-linecap="round" stroke-linejoin="round"/>
<path d="M621.622 711.817C614.497 711.817 608.72 717.593 608.72 724.719C608.72 731.844 614.497 737.621 621.622 737.621C628.748 737.621 634.525 731.844 634.525 724.719C634.525 717.593 628.748 711.817 621.622 711.817Z" fill="white"/>
<path d="M621.622 711.817C614.497 711.817 608.72 717.593 608.72 724.719C608.72 731.844 614.497 737.621 621.622 737.621C628.748 737.621 634.525 731.844 634.525 724.719C634.525 717.593 628.748 711.817 621.622 711.817Z" stroke="#0626A9" stroke-width="2" stroke-linecap="round" stroke-linejoin="round"/>
<path d="M841.702 358.089C841.702 350.964 835.926 345.187 828.8 345.187C821.675 345.187 815.898 350.964 815.898 358.089C815.898 365.215 821.675 370.992 828.8 370.992C835.926 370.992 841.702 365.215 841.702 358.089Z" fill="#8869D5"/>
<path d="M841.702 358.089C841.702 350.964 835.926 345.187 828.8 345.187C821.675 345.187 815.898 350.964 815.898 358.089C815.898 365.215 821.675 370.992 828.8 370.992C835.926 370.992 841.702 365.215 841.702 358.089Z" stroke="#0626A9" stroke-width="2" stroke-linecap="round" stroke-linejoin="round"/>
<path d="M780.319 564.699C780.319 557.574 774.542 551.797 767.417 551.797C760.291 551.797 754.514 557.574 754.514 564.699C754.514 571.825 760.291 577.601 767.417 577.601C774.542 577.601 780.319 571.825 780.319 564.699Z" fill="#8869D5"/>
<path d="M780.319 564.699C780.319 557.574 774.542 551.797 767.417 551.797C760.291 551.797 754.514 557.574 754.514 564.699C754.514 571.825 760.291 577.601 767.417 577.601C774.542 577.601 780.319 571.825 780.319 564.699Z" stroke="#0626A9" stroke-width="2" stroke-linecap="round" stroke-linejoin="round"/>
<path d="M253.88 859.868C253.88 866.993 248.103 872.77 240.978 872.77C233.852 872.77 228.076 866.993 228.076 859.868C228.076 852.743 233.852 846.966 240.978 846.966C248.103 846.966 253.88 852.743 253.88 859.868Z" fill="#84AAE4"/>
<path d="M253.88 859.868C253.88 866.993 248.103 872.77 240.978 872.77C233.852 872.77 228.076 866.993 228.076 859.868C228.076 852.743 233.852 846.966 240.978 846.966C248.103 846.966 253.88 852.743 253.88 859.868Z" stroke="#0626A9" stroke-width="2" stroke-linecap="round" stroke-linejoin="round"/>
<path d="M310.911 1036.09C310.911 1043.22 305.134 1049 298.009 1049C290.883 1049 285.106 1043.22 285.106 1036.09C285.106 1028.98 290.883 1023.19 298.009 1023.19C305.134 1023.19 310.911 1028.98 310.911 1036.09Z" fill="#84AAE4"/>
<path d="M310.911 1036.09C310.911 1043.22 305.134 1049 298.009 1049C290.883 1049 285.106 1043.22 285.106 1036.09C285.106 1028.98 290.883 1023.19 298.009 1023.19C305.134 1023.19 310.911 1028.98 310.911 1036.09Z" stroke="#0626A9" stroke-width="2" stroke-linecap="round" stroke-linejoin="round"/>
<path d="M1371.19 929.122C1371.19 936.247 1365.41 942.024 1358.28 942.024C1351.16 942.024 1345.38 936.247 1345.38 929.122C1345.38 921.996 1351.16 916.22 1358.28 916.22C1365.41 916.22 1371.19 921.996 1371.19 929.122Z" fill="white"/>
<path d="M1371.19 929.122C1371.19 936.247 1365.41 942.024 1358.28 942.024C1351.16 942.024 1345.38 936.247 1345.38 929.122C1345.38 921.996 1351.16 916.22 1358.28 916.22C1365.41 916.22 1371.19 921.996 1371.19 929.122Z" stroke="#0626A9" stroke-width="2" stroke-linecap="round" stroke-linejoin="round"/>
<path d="M1175.77 827.4C1175.77 834.525 1169.99 840.302 1162.87 840.302C1155.74 840.302 1149.97 834.525 1149.97 827.4C1149.97 820.274 1155.74 814.498 1162.87 814.498C1169.99 814.498 1175.77 820.274 1175.77 827.4Z" fill="white"/>
<path d="M1175.77 827.4C1175.77 834.525 1169.99 840.302 1162.87 840.302C1155.74 840.302 1149.97 834.525 1149.97 827.4C1149.97 820.274 1155.74 814.498 1162.87 814.498C1169.99 814.498 1175.77 820.274 1175.77 827.4Z" stroke="#0626A9" stroke-width="2" stroke-linecap="round" stroke-linejoin="round"/>
<path d="M1171.3 781.397C1171.3 788.522 1165.53 794.299 1158.4 794.299C1151.27 794.299 1145.5 788.522 1145.5 781.397C1145.5 774.272 1151.27 768.495 1158.4 768.495C1165.53 768.495 1171.3 774.272 1171.3 781.397Z" fill="#84AAE4"/>
<path d="M1171.3 781.397C1171.3 788.522 1165.53 794.299 1158.4 794.299C1151.27 794.299 1145.5 788.522 1145.5 781.397C1145.5 774.272 1151.27 768.495 1158.4 768.495C1165.53 768.495 1171.3 774.272 1171.3 781.397Z" stroke="#0626A9" stroke-width="2" stroke-linecap="round" stroke-linejoin="round"/>
</g>
<path d="M712.719 1005.55L747.148 959.056L699.377 875.256L641.827 881.2L588.074 849.776L565.022 796.707L468.573 796.177L444.943 848.986L390.852 879.832L333.371 873.263L284.683 956.523L318.603 1003.4L318.265 1065.65L283.836 1112.16L331.598 1195.95L389.157 1190.01L442.901 1221.44L465.953 1274.5L562.411 1275.03L586.041 1222.22L640.132 1191.38L697.613 1197.95L746.3 1114.68L712.381 1067.81L712.719 1005.55ZM557.43 1109.17C516.797 1132.33 465.086 1118.17 441.928 1077.54C418.76 1036.91 432.92 985.199 473.554 962.032C514.177 938.874 565.898 953.035 589.056 993.669C612.224 1034.29 598.064 1086.01 557.43 1109.17Z" fill="#0626A9"/>
<path d="M712.719 1005.55L747.148 959.056L699.377 875.256L641.827 881.2L588.074 849.776L565.022 796.707L468.573 796.177L444.943 848.986L390.852 879.832L333.371 873.263L284.683 956.523L318.603 1003.4L318.265 1065.65L283.836 1112.16L331.598 1195.95L389.157 1190.01L442.901 1221.44L465.953 1274.5L562.411 1275.03L586.041 1222.22L640.132 1191.38L697.613 1197.95L746.3 1114.68L712.381 1067.81L712.719 1005.55ZM557.43 1109.17C516.797 1132.33 465.086 1118.17 441.928 1077.54C418.76 1036.91 432.92 985.199 473.554 962.032C514.177 938.874 565.898 953.035 589.056 993.669C612.224 1034.29 598.064 1086.01 557.43 1109.17Z" stroke="#0626A9" stroke-width="2" stroke-linecap="round" stroke-linejoin="round"/>
<path d="M532.9 1000.74H1085.37V636.503C1085.37 629.345 1079.57 623.543 1072.42 623.543H545.86C538.702 623.543 532.9 629.345 532.9 636.503V1000.74Z" fill="#84AAE4"/>
<path d="M532.9 1000.74H1085.37V636.503C1085.37 629.345 1079.57 623.543 1072.42 623.543H545.86C538.702 623.543 532.9 629.345 532.9 636.503V1000.74Z" stroke="#0626A9" stroke-width="2" stroke-linecap="round" stroke-linejoin="round"/>
<path d="M554.356 977.16H1063.92V651.574H554.356V977.16Z" fill="white"/>
<path d="M554.356 977.16H1063.92V651.574H554.356V977.16Z" stroke="#0626A9" stroke-width="2" stroke-linecap="round" stroke-linejoin="round"/>
<path d="M694.114 893.562L809.137 723.59L924.159 893.562H694.114Z" fill="#8869D5"/>
<path d="M694.114 893.562L809.137 723.59L924.159 893.562H694.114Z" stroke="#0626A9" stroke-width="2" stroke-linecap="round" stroke-linejoin="round"/>
<path d="M813.739 838.433H804.534L799.824 779.42H818.449L813.739 838.433Z" fill="white"/>
<path d="M819.577 859.39C819.577 865.156 814.902 869.831 809.137 869.831C803.371 869.831 798.696 865.156 798.696 859.39C798.696 853.624 803.371 848.95 809.137 848.95C814.902 848.95 819.577 853.624 819.577 859.39Z" fill="white"/>
<path d="M512.462 1038.73H1105.8C1122.99 1038.73 1136.93 1024.79 1136.93 1007.6V996.392H481.342V1007.6C481.342 1024.79 495.274 1038.73 512.462 1038.73Z" fill="#84AAE4"/>
<path d="M512.462 1038.73H1105.8C1122.99 1038.73 1136.93 1024.79 1136.93 1007.6V996.392H481.342V1007.6C481.342 1024.79 495.274 1038.73 512.462 1038.73Z" stroke="#0626A9" stroke-width="2" stroke-linecap="round" stroke-linejoin="round"/>
<path d="M854.06 1011.23H764.211C756.018 1011.23 749.377 1004.59 749.377 996.392H868.894C868.894 1004.59 862.253 1011.23 854.06 1011.23Z" fill="#0626A9"/>
<path d="M854.06 1011.23H764.211C756.018 1011.23 749.377 1004.59 749.377 996.392H868.894C868.894 1004.59 862.253 1011.23 854.06 1011.23Z" stroke="#0626A9" stroke-width="2" stroke-linecap="round" stroke-linejoin="round"/>
</g>
</g>
</g>
<defs>
<clipPath id="clip0_2_8865">
<rect width="1600" height="1600" fill="white"/>
</clipPath>
</defs>
</svg>
