<svg width="1600" height="1600" viewBox="0 0 1600 1600" fill="none" xmlns="http://www.w3.org/2000/svg">
<g clip-path="url(#clip0_24_21844)">
<mask id="mask0_24_21844" style="mask-type:luminance" maskUnits="userSpaceOnUse" x="0" y="0" width="1600" height="1600">
<path d="M1600 0H0V1600H1600V0Z" fill="white"/>
</mask>
<g mask="url(#mask0_24_21844)">
<path d="M1304.33 540.28L1125.64 545.265L1120.42 357.91L1299.1 352.925L1304.33 540.28Z" fill="#0626A9"/>
<path d="M1304.33 540.28L1125.64 545.265L1120.42 357.91L1299.1 352.925L1304.33 540.28Z" stroke="#0626A9" stroke-width="2" stroke-linecap="round" stroke-linejoin="round"/>
<path d="M406.541 458.12L1223.93 420.302L1255.3 1098.46L437.917 1136.28L406.541 458.12Z" fill="white"/>
<path d="M406.541 458.12L1223.93 420.302L1255.3 1098.46L437.917 1136.28L406.541 458.12Z" stroke="#0626A9" stroke-width="2" stroke-linecap="round" stroke-linejoin="round"/>
<path d="M406.541 458.12L1223.93 420.302L1227.8 504.071L410.417 541.889L406.541 458.12Z" fill="#84AAE4"/>
<path d="M406.541 458.12L1223.93 420.302L1227.8 504.071L410.417 541.889L406.541 458.12Z" stroke="#0626A9" stroke-width="2" stroke-linecap="round" stroke-linejoin="round"/>
<path d="M1161.67 477.678C1166.46 477.456 1170.52 481.164 1170.74 485.951C1170.97 490.739 1167.26 494.806 1162.47 495.027C1157.68 495.249 1153.62 491.541 1153.39 486.754C1153.17 481.966 1156.88 477.899 1161.67 477.678Z" fill="#0626A9"/>
<path d="M1161.67 477.678C1166.46 477.456 1170.52 481.164 1170.74 485.951C1170.97 490.739 1167.26 494.806 1162.47 495.027C1157.68 495.249 1153.62 491.541 1153.39 486.754C1153.17 481.966 1156.88 477.899 1161.67 477.678Z" stroke="#0626A9" stroke-width="2"/>
<path d="M1174.6 469.879L1173.97 456.301C1173.64 449.065 1167.5 443.47 1160.26 443.805C1153.03 444.139 1147.43 450.278 1147.76 457.514L1148.39 471.091L1134.28 487.565L1190.17 484.979L1174.6 469.879Z" fill="white"/>
<path d="M1174.6 469.879L1173.97 456.301C1173.64 449.065 1167.5 443.47 1160.26 443.805C1153.03 444.139 1147.43 450.278 1147.76 457.514L1148.39 471.091L1134.28 487.565L1190.17 484.979L1174.6 469.879Z" stroke="#0626A9" stroke-width="2" stroke-linecap="round" stroke-linejoin="round"/>
<path d="M1159.99 437.963L1160.26 443.805" stroke="#0626A9" stroke-width="2" stroke-linecap="round" stroke-linejoin="round"/>
<path d="M457.048 497.757L976.537 473.722" stroke="#0626A9" stroke-width="2" stroke-linecap="round" stroke-linejoin="round"/>
<path d="M1150.98 996.781L550.138 1024.58L530.673 603.875L1131.51 576.076L1150.98 996.781Z" fill="#84AAE4"/>
<path d="M1150.98 996.781L550.138 1024.58L530.673 603.875L1131.51 576.076L1150.98 996.781Z" stroke="#0626A9" stroke-width="2" stroke-linecap="round" stroke-linejoin="round"/>
<path d="M977.482 961.192L583.366 979.426L569.084 670.737L963.2 652.502L977.482 961.192Z" fill="white"/>
<path d="M977.482 961.192L583.366 979.426L569.084 670.737L963.2 652.502L977.482 961.192Z" stroke="#0626A9" stroke-width="2" stroke-linecap="round" stroke-linejoin="round"/>
<path d="M674.844 779.153L621.361 781.627L618.887 728.144L672.37 725.67L674.844 779.153Z" fill="#8869D5"/>
<path d="M674.844 779.153L621.361 781.627L618.887 728.144L672.37 725.67L674.844 779.153Z" stroke="#0626A9" stroke-width="2" stroke-linecap="round" stroke-linejoin="round"/>
<path d="M921.386 767.746L711.246 777.468L708.771 723.986L918.912 714.263L921.386 767.746Z" fill="#8869D5"/>
<path d="M921.386 767.746L711.246 777.468L708.771 723.986L918.912 714.263L921.386 767.746Z" stroke="#0626A9" stroke-width="2" stroke-linecap="round" stroke-linejoin="round"/>
<path d="M679.258 874.56L625.775 877.034L623.301 823.551L676.784 821.077L679.258 874.56Z" fill="#8869D5"/>
<path d="M679.258 874.56L625.775 877.034L623.301 823.551L676.784 821.077L679.258 874.56Z" stroke="#0626A9" stroke-width="2" stroke-linecap="round" stroke-linejoin="round"/>
<path d="M925.8 863.153L715.66 872.875L713.186 819.393L923.326 809.67L925.8 863.153Z" fill="#8869D5"/>
<path d="M925.8 863.153L715.66 872.875L713.186 819.393L923.326 809.67L925.8 863.153Z" stroke="#0626A9" stroke-width="2" stroke-linecap="round" stroke-linejoin="round"/>
<path d="M999.741 650.812L1097.6 646.284" stroke="#0626A9" stroke-width="2" stroke-linecap="round" stroke-linejoin="round"/>
<path d="M1054.76 661.053C1052.42 661.161 1050.43 659.347 1050.32 657.002L1049.52 639.695C1049.41 637.35 1051.23 635.36 1053.57 635.251C1055.92 635.143 1057.91 636.957 1058.01 639.302L1058.82 656.609C1058.92 658.954 1057.11 660.944 1054.76 661.053Z" fill="#0626A9"/>
<path d="M1003.09 723.297L1100.95 718.77" stroke="#0626A9" stroke-width="2" stroke-linecap="round" stroke-linejoin="round"/>
<path d="M1078.62 732.716C1076.28 732.824 1074.29 731.01 1074.18 728.665L1073.38 711.359C1073.27 709.014 1075.08 707.023 1077.43 706.914C1079.77 706.806 1081.76 708.621 1081.87 710.966L1082.67 728.272C1082.78 730.617 1080.97 732.607 1078.62 732.716Z" fill="#0626A9"/>
<path d="M1001.33 685.109L1099.18 680.581" stroke="#0626A9" stroke-width="2" stroke-linecap="round" stroke-linejoin="round"/>
<path d="M1028.97 696.756C1026.63 696.864 1024.64 695.05 1024.53 692.705L1023.73 675.399C1023.62 673.054 1025.44 671.063 1027.78 670.954C1030.13 670.846 1032.12 672.661 1032.23 675.006L1033.03 692.312C1033.13 694.657 1031.32 696.647 1028.97 696.756Z" fill="#0626A9"/>
<mask id="mask1_24_21844" style="mask-type:alpha" maskUnits="userSpaceOnUse" x="405" y="419" width="852" height="719">
<path d="M406.541 458.12L1223.93 420.302L1255.3 1098.46L437.917 1136.28L406.541 458.12Z" fill="white"/>
<path d="M406.541 458.12L1223.93 420.302L1255.3 1098.46L437.917 1136.28L406.541 458.12Z" stroke="#202870" stroke-width="2" stroke-linecap="round" stroke-linejoin="round"/>
</mask>
<g mask="url(#mask1_24_21844)">
<path d="M810.109 1179.53L491.297 1177.53L509.297 886.442L752.192 886.324L810.109 1179.53Z" fill="#0626A9"/>
<path d="M810.109 1179.53L491.297 1177.53L509.297 886.442L752.192 886.324L810.109 1179.53Z" stroke="#0626A9" stroke-width="2" stroke-linecap="round" stroke-linejoin="round"/>
</g>
<path d="M374.61 886.712H746.692V1201.76H374.61V886.712Z" fill="white"/>
<path d="M374.61 886.712H746.692V1201.76H374.61V886.712Z" stroke="#0626A9" stroke-width="2" stroke-linecap="round" stroke-linejoin="round"/>
<path d="M487.184 1135.87H449.651V1026.44H487.184V1135.87Z" fill="#84AAE4"/>
<path d="M487.184 1135.87H449.651V1026.44H487.184V1135.87Z" stroke="#0626A9" stroke-width="2" stroke-linecap="round" stroke-linejoin="round"/>
<path d="M548.844 1135.87H511.311V1079.68H548.844V1135.87Z" fill="#84AAE4"/>
<path d="M548.844 1135.87H511.311V1079.68H548.844V1135.87Z" stroke="#0626A9" stroke-width="2" stroke-linecap="round" stroke-linejoin="round"/>
<path d="M610.503 1135.87H572.97V1053.71H610.503V1135.87Z" fill="#84AAE4"/>
<path d="M610.503 1135.87H572.97V1053.71H610.503V1135.87Z" stroke="#0626A9" stroke-width="2" stroke-linecap="round" stroke-linejoin="round"/>
<path d="M672.161 1135.87H634.628V1013.72H672.161V1135.87Z" fill="#84AAE4"/>
<path d="M672.161 1135.87H634.628V1013.72H672.161V1135.87Z" stroke="#0626A9" stroke-width="2" stroke-linecap="round" stroke-linejoin="round"/>
<path d="M410.202 976.728V1162.63H711.1" stroke="#0626A9" stroke-width="2" stroke-linecap="round" stroke-linejoin="round"/>
<path d="M585.47 956.99H411.866V926.174H585.47V956.99Z" fill="#84AAE4"/>
<path d="M585.47 956.99H411.866V926.174H585.47V956.99Z" stroke="#0626A9" stroke-width="2" stroke-linecap="round" stroke-linejoin="round"/>
<path d="M711.1 956.657H618.704V925.842H711.1V956.657Z" stroke="#0626A9" stroke-width="2" stroke-linecap="round" stroke-linejoin="round"/>
<path d="M1091.6 1291.9H847.007V926.324H1091.6V1291.9Z" fill="white"/>
<path d="M1091.6 1291.9H847.007V926.324H1091.6V1291.9Z" stroke="#0626A9" stroke-width="2" stroke-linecap="round" stroke-linejoin="round"/>
<path d="M1056.37 1257.96H882.239V1049.93H1056.37V1257.96Z" fill="#84AAE4"/>
<path d="M1056.37 1257.96H882.239V1049.93H1056.37V1257.96Z" stroke="#0626A9" stroke-width="2" stroke-linecap="round" stroke-linejoin="round"/>
<path d="M1091.6 990.329H847.007V926.324H1091.6V990.329Z" fill="white"/>
<path d="M1091.6 990.329H847.007V926.324H1091.6V990.329Z" stroke="#0626A9" stroke-width="2" stroke-linecap="round" stroke-linejoin="round"/>
<path d="M882.239 958.327H984.784" stroke="#0626A9" stroke-width="2" stroke-linecap="round" stroke-linejoin="round"/>
<path d="M1354.01 599.138C1354.01 606.953 1347.68 613.288 1339.86 613.288C1332.05 613.288 1325.71 606.953 1325.71 599.138C1325.71 591.323 1332.05 584.988 1339.86 584.988C1347.68 584.988 1354.01 591.323 1354.01 599.138Z" stroke="#0626A9" stroke-width="2" stroke-linecap="round" stroke-linejoin="round"/>
<path d="M1399.24 724.444C1399.24 729.561 1395.09 733.71 1389.98 733.71C1384.86 733.71 1380.71 729.561 1380.71 724.444C1380.71 719.327 1384.86 715.179 1389.98 715.179C1395.09 715.179 1399.24 719.327 1399.24 724.444Z" fill="#8869D5"/>
<path d="M1399.24 724.444C1399.24 729.561 1395.09 733.71 1389.98 733.71C1384.86 733.71 1380.71 729.561 1380.71 724.444C1380.71 719.327 1384.86 715.179 1389.98 715.179C1395.09 715.179 1399.24 719.327 1399.24 724.444Z" stroke="#0626A9" stroke-width="2" stroke-linecap="round" stroke-linejoin="round"/>
<path d="M578.404 259.319C578.404 268.569 570.905 276.067 561.655 276.067C552.405 276.067 544.907 268.569 544.907 259.319C544.907 250.069 552.405 242.57 561.655 242.57C570.905 242.57 578.404 250.069 578.404 259.319Z" stroke="#0626A9" stroke-width="2" stroke-linecap="round" stroke-linejoin="round"/>
<path d="M383.126 519.418C383.126 528.649 375.643 536.132 366.412 536.132C357.181 536.132 349.698 528.649 349.698 519.418C349.698 510.187 357.181 502.704 366.412 502.704C375.643 502.704 383.126 510.187 383.126 519.418Z" stroke="#0626A9" stroke-width="2" stroke-linecap="round" stroke-linejoin="round"/>
<path d="M293.607 693.186C293.607 699.807 288.24 705.173 281.619 705.173C274.998 705.173 269.631 699.807 269.631 693.186C269.631 686.565 274.998 681.198 281.619 681.198C288.24 681.198 293.607 686.565 293.607 693.186Z" stroke="#0626A9" stroke-width="2" stroke-linecap="round" stroke-linejoin="round"/>
<path d="M198.598 465.537C198.598 469.993 194.986 473.606 190.53 473.606C186.074 473.606 182.461 469.993 182.461 465.537C182.461 461.081 186.074 457.469 190.53 457.469C194.986 457.469 198.598 461.081 198.598 465.537Z" fill="#84AAE4"/>
<path d="M198.598 465.537C198.598 469.993 194.986 473.606 190.53 473.606C186.074 473.606 182.461 469.993 182.461 465.537C182.461 461.081 186.074 457.469 190.53 457.469C194.986 457.469 198.598 461.081 198.598 465.537Z" stroke="#0626A9" stroke-width="2" stroke-linecap="round" stroke-linejoin="round"/>
<path d="M696.014 311.056C696.014 315.671 692.273 319.411 687.658 319.411C683.043 319.411 679.303 315.671 679.303 311.056C679.303 306.441 683.043 302.7 687.658 302.7C692.273 302.7 696.014 306.441 696.014 311.056Z" fill="#8869D5"/>
<path d="M696.014 311.056C696.014 315.671 692.273 319.411 687.658 319.411C683.043 319.411 679.303 315.671 679.303 311.056C679.303 306.441 683.043 302.7 687.658 302.7C692.273 302.7 696.014 306.441 696.014 311.056Z" stroke="#0626A9" stroke-width="2" stroke-linecap="round" stroke-linejoin="round"/>
<mask id="mask2_24_21844" style="mask-type:alpha" maskUnits="userSpaceOnUse" x="405" y="419" width="852" height="719">
<path d="M406.541 458.12L1223.93 420.302L1255.3 1098.46L437.917 1136.28L406.541 458.12Z" fill="white"/>
<path d="M406.541 458.12L1223.93 420.302L1255.3 1098.46L437.917 1136.28L406.541 458.12Z" stroke="#202870" stroke-width="2" stroke-linecap="round" stroke-linejoin="round"/>
</mask>
<g mask="url(#mask2_24_21844)">
<path d="M476.001 684.001L266.001 758.001L356.001 952.001L508.001 830.001L476.001 684.001Z" fill="#0626A9"/>
</g>
<g clip-path="url(#clip1_24_21844)">
<path d="M441.161 1001.09L441.844 1000.89L441.161 1001.09Z" fill="#0626A9"/>
<path d="M490.226 971.976L475.163 1010.87L482.304 1010.9L485.953 1001.21L501.479 1001.29L505.033 1011.02L512.175 1011.05L497.492 972.011L490.225 971.976L490.226 971.976ZM488.045 995.252L493.851 979.962L499.446 995.308L488.045 995.252Z" fill="#0626A9"/>
<path d="M514.241 972.093L507.101 972.058L521.784 1011.1L527.939 1011.13L525.09 1002.97L514.241 972.093Z" fill="#0626A9"/>
<path d="M536.975 972.204L526.994 999.895L530.037 1008.59L544.115 972.239L536.975 972.204Z" fill="#32D430"/>
<path d="M569.878 988.719L563.792 988.689L563.763 994.661L569.849 994.691L569.878 988.719Z" fill="#0626A9"/>
<path d="M571.111 978.342L571.14 972.371L549.272 972.264L549.082 1011.23L570.949 1011.34L570.979 1005.37L555.51 1005.29L555.562 994.62L560.713 994.645L560.742 988.674L555.591 988.649L555.642 978.267L571.111 978.342Z" fill="#0626A9"/>
<path d="M441.774 1000.67L432.554 971.733L426.051 971.702L438.617 1010.5L444.967 1010.53L450.952 991.169L448.042 981.487L441.774 1000.67L441.774 1000.67ZM441.161 1001.09L441.844 1000.89L441.16 1001.09L441.161 1001.09Z" fill="#0626A9"/>
<path d="M472.726 971.929L463.167 1000.78L455.362 977.359L449.658 977.331L460.04 1010.6L466.395 1010.63L479.23 971.961L472.726 971.929Z" fill="#0626A9"/>
</g>
<path d="M510.551 832.419L310.148 844.918L292.741 565.83L493.144 553.33L510.551 832.419Z" fill="white"/>
<path d="M510.551 832.419L310.148 844.918L292.741 565.83L493.144 553.33L510.551 832.419Z" stroke="#0626A9" stroke-width="2" stroke-linecap="round" stroke-linejoin="round"/>
<path d="M493.144 553.33L292.741 565.83L290.397 528.252L490.8 515.752L493.144 553.33Z" fill="#84AAE4"/>
<path d="M493.144 553.33L292.741 565.83L290.397 528.252L490.8 515.752L493.144 553.33Z" stroke="#0626A9" stroke-width="2" stroke-linecap="round" stroke-linejoin="round"/>
<path d="M308.092 546.01L363.471 542.555" stroke="#0626A9" stroke-width="2" stroke-linecap="round" stroke-linejoin="round"/>
<path d="M399.482 664.423C361.702 666.78 332.991 699.311 335.347 737.092C337.703 774.863 370.234 803.583 408.015 801.226C418.731 800.558 428.724 797.462 437.474 792.503C459.586 779.988 473.838 755.614 472.151 728.559C469.794 690.778 437.254 662.067 399.482 664.423ZM422.318 765.695C417.502 768.42 412.002 770.132 406.098 770.5C385.285 771.798 367.371 755.979 366.074 735.175C364.776 714.362 380.585 696.449 401.399 695.15C422.202 693.853 440.125 709.662 441.423 730.475C442.353 745.375 434.498 758.804 422.318 765.695Z" fill="#84AAE4"/>
<path d="M399.482 664.423C361.702 666.78 332.991 699.311 335.347 737.092C337.703 774.863 370.234 803.583 408.015 801.226C418.731 800.558 428.724 797.462 437.474 792.503C459.586 779.988 473.838 755.614 472.151 728.559C469.794 690.778 437.254 662.067 399.482 664.423ZM422.318 765.695C417.502 768.42 412.002 770.132 406.098 770.5C385.285 771.798 367.371 755.979 366.074 735.175C364.776 714.362 380.585 696.449 401.399 695.15C422.202 693.853 440.125 709.662 441.423 730.475C442.353 745.375 434.498 758.804 422.318 765.695Z" stroke="#0626A9" stroke-width="2" stroke-linecap="round" stroke-linejoin="round"/>
<path d="M472.15 728.559C473.837 755.614 459.585 779.988 437.473 792.503L422.317 765.695C434.498 758.804 442.352 745.375 441.423 730.475C440.124 709.662 422.202 693.853 401.398 695.15L399.481 664.423C437.253 662.067 469.793 690.778 472.15 728.559Z" fill="#8869D5"/>
<path d="M472.15 728.559C473.837 755.614 459.585 779.988 437.473 792.503L422.317 765.695C434.498 758.804 442.352 745.375 441.423 730.475C440.124 709.662 422.202 693.853 401.398 695.15L399.481 664.423C437.253 662.067 469.793 690.778 472.15 728.559Z" stroke="#0626A9" stroke-width="2" stroke-linecap="round" stroke-linejoin="round"/>
<path d="M451.855 596.716C452.31 603.998 446.774 610.27 439.491 610.724C432.209 611.179 425.937 605.643 425.483 598.36C425.028 591.078 430.564 584.806 437.847 584.352C445.129 583.897 451.401 589.433 451.855 596.716Z" fill="#84AAE4"/>
<path d="M451.855 596.716C452.31 603.998 446.774 610.27 439.491 610.724C432.209 611.179 425.937 605.643 425.483 598.36C425.028 591.078 430.564 584.806 437.847 584.352C445.129 583.897 451.401 589.433 451.855 596.716Z" stroke="#0626A9" stroke-width="2" stroke-linecap="round" stroke-linejoin="round"/>
<path d="M409.267 608.677C409.722 615.96 404.186 622.231 396.904 622.686C389.621 623.14 383.349 617.605 382.895 610.322C382.44 603.039 387.976 596.767 395.259 596.313C402.541 595.859 408.813 601.394 409.267 608.677Z" fill="#84AAE4"/>
<path d="M409.267 608.677C409.722 615.96 404.186 622.231 396.904 622.686C389.621 623.14 383.349 617.605 382.895 610.322C382.44 603.039 387.976 596.767 395.259 596.313C402.541 595.859 408.813 601.394 409.267 608.677Z" stroke="#0626A9" stroke-width="2" stroke-linecap="round" stroke-linejoin="round"/>
<path d="M366.768 622.056C367.223 629.339 361.687 635.611 354.405 636.065C347.122 636.52 340.85 630.984 340.396 623.701C339.941 616.419 345.477 610.147 352.76 609.693C360.042 609.238 366.314 614.774 366.768 622.056Z" fill="#84AAE4"/>
<path d="M366.768 622.056C367.223 629.339 361.687 635.611 354.405 636.065C347.122 636.52 340.85 630.984 340.396 623.701C339.941 616.419 345.477 610.147 352.76 609.693C360.042 609.238 366.314 614.774 366.768 622.056Z" stroke="#0626A9" stroke-width="2" stroke-linecap="round" stroke-linejoin="round"/>
<path d="M406.327 732.664C406.415 734.089 405.334 735.314 403.909 735.403C402.485 735.492 401.259 734.41 401.171 732.986C401.082 731.562 402.164 730.336 403.588 730.247C405.012 730.158 406.238 731.24 406.327 732.664Z" fill="#0626A9"/>
</g>
<g clip-path="url(#clip2_24_21844)">
<mask id="mask3_24_21844" style="mask-type:luminance" maskUnits="userSpaceOnUse" x="902" y="1004" width="135" height="32">
<path d="M1037 1004H902V1036H1037V1004Z" fill="white"/>
</mask>
<g mask="url(#mask3_24_21844)">
<path d="M979.336 1014.74C971.644 1014.74 965.389 1021 965.389 1028.68C965.389 1030.92 965.912 1033.07 966.943 1035.06L967.1 1035.36H972.995L972.281 1034.44C970.988 1032.79 970.308 1030.79 970.308 1028.68C970.308 1023.57 974.358 1019.42 979.341 1019.42C984.324 1019.42 988.331 1023.57 988.331 1028.68C988.331 1030.79 987.653 1032.79 986.373 1034.44L985.665 1035.36H991.579L991.737 1035.06C992.768 1033.06 993.291 1030.92 993.291 1028.68C993.291 1020.99 987.034 1014.74 979.344 1014.74L979.336 1014.74Z" fill="#32D430"/>
<path d="M979.336 1012.42C984.568 1012.42 989.317 1009.52 991.73 1004.86L992.159 1004.03H986.533L986.366 1004.25C984.652 1006.47 982.089 1007.74 979.336 1007.74C976.583 1007.74 974.006 1006.47 972.279 1004.25L972.111 1004.03H966.514L966.943 1004.86C969.355 1009.53 974.105 1012.42 979.336 1012.42Z" fill="#32D430"/>
<path d="M943.096 1004.04H925.621V1035.4H930.081V1021.83H939.391V1017.25H930.081V1008.57H943.096V1004.04Z" fill="#0626A9"/>
<path d="M952.15 1030.61V1004.04H947.467V1035.36H962.161V1030.61H952.15Z" fill="#0626A9"/>
<path d="M1015.04 1019.63L1012.74 1011.83L1007.95 1027.32L1000.67 1004H995.606L1005.53 1035.27H1010.48L1015.04 1019.63H1015.04Z" fill="#0626A9"/>
<path d="M1031.94 1004L1024.61 1027.33L1018.44 1008.45H1014L1022.21 1035.27H1027.16L1037 1004H1031.94Z" fill="#0626A9"/>
<path d="M909.263 1015.88H908.844L909.657 1008.45H916.856V1004.04H905.621L904.011 1020.2H908.336C914.39 1020.2 915.043 1024.45 915.043 1025.98C915.043 1029.13 912.663 1031.42 909.387 1031.42C906.972 1031.42 904.864 1030.47 902.751 1028.43L901.997 1027.7V1033.57L902.193 1033.7C903.445 1034.56 906.068 1036 909.552 1036C915.609 1036 919.678 1031.97 919.678 1025.98C919.678 1019.99 915.589 1015.88 909.258 1015.88H909.263Z" fill="#0626A9"/>
<path d="M923.396 1004.04H919.043V1008.46H923.396V1004.04Z" fill="#0626A9"/>
</g>
</g>
<g clip-path="url(#clip3_24_21844)">
<path d="M962.898 1145.9H899V1082H962.898V1145.9Z" fill="#84AAE4"/>
<path d="M962.898 1145.9H899V1082H962.898V1145.9Z" stroke="#0626A9" stroke-width="2" stroke-linecap="round" stroke-linejoin="round"/>
<path d="M959.118 1125.74H902.78V1085.78H959.118V1125.74Z" fill="white"/>
<path d="M959.118 1125.74H902.78V1085.78H959.118V1125.74Z" stroke="#0626A9" stroke-width="2" stroke-linecap="round" stroke-linejoin="round"/>
<mask id="mask4_24_21844" style="mask-type:alpha" maskUnits="userSpaceOnUse" x="901" y="1084" width="60" height="43">
<path d="M959.118 1125.74H902.78V1085.78H959.118V1125.74Z" fill="white"/>
<path d="M959.118 1125.74H902.78V1085.78H959.118V1125.74Z" stroke="#202870" stroke-width="2" stroke-linecap="round" stroke-linejoin="round"/>
</mask>
<g mask="url(#mask4_24_21844)">
<path d="M1015.46 1105.83V1125.74H902.781V1105.83C906.748 1103.93 911.076 1104.21 915.587 1104.66C918.497 1104.96 921.373 1105.79 924.07 1106.91C926.74 1108.02 929.161 1109.62 931.843 1110.7C936.967 1112.77 942.419 1112.67 947.58 1110.76C951.507 1109.31 955.286 1107.51 959.119 1105.83C963.086 1103.93 967.414 1104.21 971.924 1104.66C974.834 1104.96 977.711 1105.79 980.408 1106.91C983.078 1108.02 985.498 1109.62 988.181 1110.7C993.305 1112.77 998.757 1112.67 1003.92 1110.76C1007.84 1109.31 1011.62 1107.51 1015.46 1105.83Z" fill="#8869D5"/>
<path d="M1015.46 1105.83V1125.74H902.781V1105.83C906.748 1103.93 911.076 1104.21 915.587 1104.66C918.497 1104.96 921.373 1105.79 924.07 1106.91C926.74 1108.02 929.161 1109.62 931.843 1110.7C936.967 1112.77 942.419 1112.67 947.58 1110.76C951.507 1109.31 955.286 1107.51 959.119 1105.83C963.086 1103.93 967.414 1104.21 971.924 1104.66C974.834 1104.96 977.711 1105.79 980.408 1106.91C983.078 1108.02 985.498 1109.62 988.181 1110.7C993.305 1112.77 998.757 1112.67 1003.92 1110.76C1007.84 1109.31 1011.62 1107.51 1015.46 1105.83Z" stroke="#0626A9" stroke-width="2" stroke-linecap="round" stroke-linejoin="round"/>
</g>
<path d="M959.118 1125.74H902.78V1085.78H959.118V1125.74Z" stroke="#0626A9" stroke-width="2" stroke-linecap="round" stroke-linejoin="round"/>
<path d="M912.41 1135.82C912.41 1138.48 910.254 1140.63 907.595 1140.63C904.936 1140.63 902.78 1138.48 902.78 1135.82C902.78 1133.16 904.936 1131 907.595 1131C910.254 1131 912.41 1133.16 912.41 1135.82Z" fill="white"/>
<path d="M912.41 1135.82C912.41 1138.48 910.254 1140.63 907.595 1140.63C904.936 1140.63 902.78 1138.48 902.78 1135.82C902.78 1133.16 904.936 1131 907.595 1131C910.254 1131 912.41 1133.16 912.41 1135.82Z" stroke="#0626A9" stroke-width="2" stroke-linecap="round" stroke-linejoin="round"/>
<path d="M916.1 1135.82H941.298" stroke="#0626A9" stroke-width="2" stroke-linecap="round" stroke-linejoin="round"/>
<path d="M1040.65 1145.9H976.757V1082H1040.65V1145.9Z" fill="#84AAE4"/>
<path d="M1040.65 1145.9H976.757V1082H1040.65V1145.9Z" stroke="#0626A9" stroke-width="2" stroke-linecap="round" stroke-linejoin="round"/>
<path d="M1036.88 1125.74H980.537V1085.78H1036.88V1125.74Z" fill="white"/>
<path d="M1036.88 1125.74H980.537V1085.78H1036.88V1125.74Z" stroke="#0626A9" stroke-width="2" stroke-linecap="round" stroke-linejoin="round"/>
<path d="M1019.12 1105.76C1019.12 1111.51 1014.46 1116.17 1008.71 1116.17C1002.96 1116.17 998.293 1111.51 998.293 1105.76C998.293 1100.01 1002.96 1095.35 1008.71 1095.35C1014.46 1095.35 1019.12 1100.01 1019.12 1105.76Z" fill="#0626A9"/>
<path d="M1019.12 1105.76C1019.12 1111.51 1014.46 1116.17 1008.71 1116.17C1002.96 1116.17 998.293 1111.51 998.293 1105.76C998.293 1100.01 1002.96 1095.35 1008.71 1095.35C1014.46 1095.35 1019.12 1100.01 1019.12 1105.76Z" stroke="#0626A9" stroke-width="2" stroke-linecap="round" stroke-linejoin="round"/>
<path d="M1005.85 1109.73V1101.79L1013.79 1105.76L1005.85 1109.73Z" fill="white"/>
<path d="M1005.85 1109.73V1101.79L1013.79 1105.76L1005.85 1109.73Z" stroke="#0626A9" stroke-width="2" stroke-linecap="round" stroke-linejoin="round"/>
<path d="M990.167 1135.82C990.167 1138.48 988.011 1140.63 985.352 1140.63C982.693 1140.63 980.537 1138.48 980.537 1135.82C980.537 1133.16 982.693 1131 985.352 1131C988.011 1131 990.167 1133.16 990.167 1135.82Z" fill="white"/>
<path d="M990.167 1135.82C990.167 1138.48 988.011 1140.63 985.352 1140.63C982.693 1140.63 980.537 1138.48 980.537 1135.82C980.537 1133.16 982.693 1131 985.352 1131C988.011 1131 990.167 1133.16 990.167 1135.82Z" stroke="#0626A9" stroke-width="2" stroke-linecap="round" stroke-linejoin="round"/>
<path d="M993.856 1135.82H1019.06" stroke="#0626A9" stroke-width="2" stroke-linecap="round" stroke-linejoin="round"/>
<path d="M962.898 1227H899V1163.1H962.898V1227Z" fill="#84AAE4"/>
<path d="M962.898 1227H899V1163.1H962.898V1227Z" stroke="#0626A9" stroke-width="2" stroke-linecap="round" stroke-linejoin="round"/>
<path d="M959.118 1206.84H902.78V1166.88H959.118V1206.84Z" fill="white"/>
<path d="M959.118 1206.84H902.78V1166.88H959.118V1206.84Z" stroke="#0626A9" stroke-width="2" stroke-linecap="round" stroke-linejoin="round"/>
<path d="M941.362 1186.86C941.362 1192.61 936.7 1197.27 930.949 1197.27C925.198 1197.27 920.536 1192.61 920.536 1186.86C920.536 1181.11 925.198 1176.45 930.949 1176.45C936.7 1176.45 941.362 1181.11 941.362 1186.86Z" fill="#0626A9"/>
<path d="M941.362 1186.86C941.362 1192.61 936.7 1197.27 930.949 1197.27C925.198 1197.27 920.536 1192.61 920.536 1186.86C920.536 1181.11 925.198 1176.45 930.949 1176.45C936.7 1176.45 941.362 1181.11 941.362 1186.86Z" stroke="#0626A9" stroke-width="2" stroke-linecap="round" stroke-linejoin="round"/>
<path d="M928.098 1190.83V1182.89L936.031 1186.86L928.098 1190.83Z" fill="white"/>
<path d="M928.098 1190.83V1182.89L936.031 1186.86L928.098 1190.83Z" stroke="#0626A9" stroke-width="2" stroke-linecap="round" stroke-linejoin="round"/>
<path d="M912.41 1216.92C912.41 1219.58 910.254 1221.74 907.595 1221.74C904.936 1221.74 902.78 1219.58 902.78 1216.92C902.78 1214.26 904.936 1212.11 907.595 1212.11C910.254 1212.11 912.41 1214.26 912.41 1216.92Z" fill="white"/>
<path d="M912.41 1216.92C912.41 1219.58 910.254 1221.74 907.595 1221.74C904.936 1221.74 902.78 1219.58 902.78 1216.92C902.78 1214.26 904.936 1212.11 907.595 1212.11C910.254 1212.11 912.41 1214.26 912.41 1216.92Z" stroke="#0626A9" stroke-width="2" stroke-linecap="round" stroke-linejoin="round"/>
<path d="M916.1 1216.92H941.298" stroke="#0626A9" stroke-width="2" stroke-linecap="round" stroke-linejoin="round"/>
<path d="M1040.65 1227H976.757V1163.1H1040.65V1227Z" fill="#84AAE4"/>
<path d="M1040.65 1227H976.757V1163.1H1040.65V1227Z" stroke="#0626A9" stroke-width="2" stroke-linecap="round" stroke-linejoin="round"/>
<path d="M1036.88 1206.84H980.537V1166.88H1036.88V1206.84Z" fill="#0626A9"/>
<path d="M1036.88 1206.84H980.537V1166.88H1036.88V1206.84Z" stroke="#0626A9" stroke-width="2" stroke-linecap="round" stroke-linejoin="round"/>
<path d="M1036.87 1206.84H1015.82L999.616 1194.14L1014.74 1166.88H1036.87V1206.84Z" fill="white"/>
<path d="M1036.87 1206.84H1015.82L999.616 1194.14L1014.74 1166.88H1036.87V1206.84Z" stroke="#0626A9" stroke-width="2" stroke-linecap="round" stroke-linejoin="round"/>
<path d="M1006.86 1181.08L980.537 1171.08V1166.88H1014.74L1006.86 1181.08Z" fill="#8869D5"/>
<path d="M1006.86 1181.08L980.537 1171.08V1166.88H1014.74L1006.86 1181.08Z" stroke="#0626A9" stroke-width="2" stroke-linecap="round" stroke-linejoin="round"/>
<path d="M990.167 1216.92C990.167 1219.58 988.011 1221.74 985.352 1221.74C982.693 1221.74 980.537 1219.58 980.537 1216.92C980.537 1214.26 982.693 1212.11 985.352 1212.11C988.011 1212.11 990.167 1214.26 990.167 1216.92Z" fill="white"/>
<path d="M990.167 1216.92C990.167 1219.58 988.011 1221.74 985.352 1221.74C982.693 1221.74 980.537 1219.58 980.537 1216.92C980.537 1214.26 982.693 1212.11 985.352 1212.11C988.011 1212.11 990.167 1214.26 990.167 1216.92Z" stroke="#0626A9" stroke-width="2" stroke-linecap="round" stroke-linejoin="round"/>
<path d="M993.856 1216.92H1019.06" stroke="#0626A9" stroke-width="2" stroke-linecap="round" stroke-linejoin="round"/>
</g>
</g>
<defs>
<clipPath id="clip0_24_21844">
<rect width="1600" height="1600" fill="white"/>
</clipPath>
<clipPath id="clip1_24_21844">
<rect width="145.091" height="38.9672" fill="white" transform="translate(426.051 971.662) rotate(0.280212)"/>
</clipPath>
<clipPath id="clip2_24_21844">
<rect width="135" height="32" fill="white" transform="translate(902 1004)"/>
</clipPath>
<clipPath id="clip3_24_21844">
<rect width="141.655" height="145" fill="white" transform="translate(899 1082)"/>
</clipPath>
</defs>
</svg>
