<svg width="1600" height="1600" viewBox="0 0 1600 1600" fill="none" xmlns="http://www.w3.org/2000/svg">
<g clip-path="url(#clip0_40000055_8935)">
<mask id="mask0_40000055_8935" style="mask-type:luminance" maskUnits="userSpaceOnUse" x="0" y="0" width="1600" height="1600">
<path d="M1600 0H0V1600H1600V0Z" fill="white"/>
</mask>
<g mask="url(#mask0_40000055_8935)">
<mask id="mask1_40000055_8935" style="mask-type:luminance" maskUnits="userSpaceOnUse" x="0" y="0" width="1600" height="1600">
<path d="M1600 0H0V1600H1600V0Z" fill="white"/>
</mask>
<g mask="url(#mask1_40000055_8935)">
<path d="M364.748 1166.06L299.737 1109.16L635.293 725.729L760.515 835.315L1115.84 429.292L1180.85 486.186L768.633 957.221L643.41 847.635L364.748 1166.06Z" fill="#0626A9"/>
<path d="M364.748 1166.06L299.737 1109.16L635.293 725.729L760.515 835.315L1115.84 429.292L1180.85 486.186L768.633 957.221L643.41 847.635L364.748 1166.06Z" stroke="#0626A9" stroke-width="2" stroke-linecap="round" stroke-linejoin="round"/>
<path d="M1230.53 364.988L1085.57 403.394L1212.82 513.905L1230.53 364.988Z" fill="#0626A9"/>
<path d="M1230.53 364.988L1085.57 403.394L1212.82 513.905L1230.53 364.988Z" stroke="#0626A9" stroke-width="2" stroke-linecap="round" stroke-linejoin="round"/>
<path d="M1091.93 1288H1220.44V597.794H1091.93V1288Z" fill="#84AAE4"/>
<path d="M1091.93 1288H1220.44V597.794H1091.93V1288Z" stroke="#0626A9" stroke-width="1.99004" stroke-linecap="round" stroke-linejoin="round"/>
<path d="M933.491 1288H1062V716.071H933.491V1288Z" fill="#84AAE4"/>
<path d="M933.491 1288H1062V716.071H933.491V1288Z" stroke="#0626A9" stroke-width="1.96337" stroke-linecap="round" stroke-linejoin="round"/>
<path d="M775.052 1287.99H903.563V834.385H775.052V1287.99Z" fill="#84AAE4"/>
<path d="M775.052 1287.99H903.563V834.385H775.052V1287.99Z" stroke="#0626A9" stroke-width="1.92471" stroke-linecap="round" stroke-linejoin="round"/>
<path d="M616.614 1288H745.125V947.243H616.614V1288Z" fill="#84AAE4"/>
<path d="M616.614 1288H745.125V947.243H616.614V1288Z" stroke="#0626A9" stroke-width="1.87883" stroke-linecap="round" stroke-linejoin="round"/>
<path d="M458.175 1288H586.686V1051.3H458.175V1288Z" fill="#84AAE4"/>
<path d="M458.175 1288H586.686V1051.3H458.175V1288Z" stroke="#0626A9" stroke-width="1.83085" stroke-linecap="round" stroke-linejoin="round"/>
<path d="M299.736 1288H428.247V1145.36H299.736V1288Z" fill="#84AAE4"/>
<path d="M299.736 1288H428.247V1145.36H299.736V1288Z" stroke="#0626A9" stroke-width="1.78642" stroke-linecap="round" stroke-linejoin="round"/>
<path d="M1013.03 505.308C1013.03 612.066 926.485 698.61 819.727 698.61C712.968 698.61 626.424 612.066 626.424 505.308C626.424 398.549 712.968 312.005 819.727 312.005C926.485 312.005 1013.03 398.549 1013.03 505.308Z" fill="#8869D5"/>
<path d="M1013.03 505.308C1013.03 612.066 926.485 698.61 819.727 698.61C712.968 698.61 626.424 612.066 626.424 505.308C626.424 398.549 712.968 312.005 819.727 312.005C926.485 312.005 1013.03 398.549 1013.03 505.308Z" stroke="#0626A9" stroke-width="2" stroke-linecap="round" stroke-linejoin="round"/>
<path d="M961.01 505.308C961.01 583.337 897.755 646.592 819.726 646.592C741.697 646.592 678.442 583.337 678.442 505.308C678.442 427.279 741.697 364.024 819.726 364.024C897.755 364.024 961.01 427.279 961.01 505.308Z" fill="white"/>
<path d="M791.1 481.81L791.05 481.8C764.43 476.561 736.888 484.021 716.551 501.978L713.952 504.271L755.307 512.415" fill="#84AAE4"/>
<path d="M791.1 481.81L791.05 481.8C764.43 476.561 736.888 484.021 716.551 501.978L713.952 504.271L755.307 512.415" stroke="#0626A9" stroke-width="2" stroke-linecap="round" stroke-linejoin="round"/>
<path d="M809.016 572.648L756.007 513.079C756.007 513.079 862.304 411.259 913.935 425.844L913.871 425.771C922.359 478.748 808.883 572.498 808.883 572.498L755.874 512.928" fill="#84AAE4"/>
<path d="M809.016 572.648L756.007 513.079C756.007 513.079 862.304 411.259 913.935 425.844L913.871 425.771C922.359 478.748 808.883 572.498 808.883 572.498L755.874 512.928" stroke="#0626A9" stroke-width="2" stroke-linecap="round" stroke-linejoin="round"/>
<mask id="mask2_40000055_8935" style="mask-type:alpha" maskUnits="userSpaceOnUse" x="758" y="427" width="154" height="143">
<path d="M810.32 568.942L759.961 512.351C759.961 512.351 860.943 415.623 909.993 429.478L909.932 429.408C917.997 479.737 810.193 568.799 810.193 568.799L759.834 512.209" fill="#8484FA"/>
<path d="M810.32 568.942L759.961 512.351C759.961 512.351 860.943 415.623 909.993 429.478L909.932 429.408C917.997 479.737 810.193 568.799 810.193 568.799L759.834 512.209" stroke="#202870" stroke-width="1.9" stroke-linecap="round" stroke-linejoin="round"/>
</mask>
<g mask="url(#mask2_40000055_8935)">
<path d="M837.664 515.189C831.025 521.097 820.854 520.505 814.947 513.866C809.039 507.226 809.631 497.056 816.27 491.148C822.909 485.241 833.08 485.832 838.988 492.472C844.895 499.111 844.303 509.282 837.664 515.189Z" fill="white"/>
<path d="M837.664 515.189C831.025 521.097 820.854 520.505 814.947 513.866C809.039 507.226 809.631 497.056 816.27 491.148C822.909 485.241 833.08 485.832 838.988 492.472C844.895 499.111 844.303 509.282 837.664 515.189Z" stroke="#0626A9" stroke-width="2" stroke-linecap="round" stroke-linejoin="round"/>
</g>
<path d="M844.39 541.482L844.394 541.533C846.4 568.589 835.688 595.037 815.42 613.072L812.832 615.377L809.709 573.344" fill="#84AAE4"/>
<path d="M844.39 541.482L844.394 541.533C846.4 568.589 835.688 595.037 815.42 613.072L812.832 615.377L809.709 573.344" stroke="#0626A9" stroke-width="2" stroke-linecap="round" stroke-linejoin="round"/>
<path d="M636.565 1288H488.688V1185.31H636.565V1288Z" fill="white"/>
<path d="M636.565 1288H488.688V1185.31H636.565V1288Z" stroke="#0626A9" stroke-width="2" stroke-linecap="round" stroke-linejoin="round"/>
<path d="M549.716 1288H292.107L343.942 1185.31H497.882L549.716 1288Z" fill="white"/>
<path d="M549.716 1288H292.107L343.942 1185.31H497.882L549.716 1288Z" stroke="#0626A9" stroke-width="2" stroke-linecap="round" stroke-linejoin="round"/>
<path d="M894.175 1288H746.299V1185.31H894.175V1288Z" fill="white"/>
<path d="M894.175 1288H746.299V1185.31H894.175V1288Z" stroke="#0626A9" stroke-width="2" stroke-linecap="round" stroke-linejoin="round"/>
<path d="M807.326 1288H549.717L601.552 1185.31H755.491L807.326 1288Z" fill="white"/>
<path d="M807.326 1288H549.717L601.552 1185.31H755.491L807.326 1288Z" stroke="#0626A9" stroke-width="2" stroke-linecap="round" stroke-linejoin="round"/>
<path d="M894.174 1185.31H617.493V1082.61H894.174V1185.31Z" fill="white"/>
<path d="M894.174 1185.31H617.493V1082.61H894.174V1185.31Z" stroke="#0626A9" stroke-width="2" stroke-linecap="round" stroke-linejoin="round"/>
<path d="M678.522 1185.31H420.913L472.748 1082.61H626.687L678.522 1185.31Z" fill="white"/>
<path d="M678.522 1185.31H420.913L472.748 1082.61H626.687L678.522 1185.31Z" stroke="#0626A9" stroke-width="2" stroke-linecap="round" stroke-linejoin="round"/>
<path d="M215.235 1287.99H1384.16" stroke="#0626A9" stroke-width="2" stroke-linecap="round" stroke-linejoin="round"/>
<path d="M845.47 1287.99V1082.61L799.698 1287.99H845.47Z" fill="#0626A9"/>
<path d="M845.47 1287.99V1082.61L799.698 1287.99H845.47Z" stroke="#0626A9" stroke-width="2" stroke-linecap="round" stroke-linejoin="round"/>
<path d="M341.712 777.147C341.712 783.683 336.413 788.981 329.878 788.981C323.342 788.981 318.044 783.683 318.044 777.147C318.044 770.612 323.342 765.313 329.878 765.313C336.413 765.313 341.712 770.612 341.712 777.147Z" fill="white"/>
<path d="M341.712 777.147C341.712 783.683 336.413 788.981 329.878 788.981C323.342 788.981 318.044 783.683 318.044 777.147C318.044 770.612 323.342 765.313 329.878 765.313C336.413 765.313 341.712 770.612 341.712 777.147Z" stroke="#0626A9" stroke-width="2" stroke-linecap="round" stroke-linejoin="round"/>
<path d="M375.505 876.518C375.505 879.982 372.698 882.79 369.233 882.79C365.769 882.79 362.961 879.982 362.961 876.518C362.961 873.054 365.769 870.246 369.233 870.246C372.698 870.246 375.505 873.054 375.505 876.518Z" fill="#0626A9"/>
<path d="M375.505 876.518C375.505 879.982 372.698 882.79 369.233 882.79C365.769 882.79 362.961 879.982 362.961 876.518C362.961 873.054 365.769 870.246 369.233 870.246C372.698 870.246 375.505 873.054 375.505 876.518Z" stroke="#0626A9" stroke-width="2" stroke-linecap="round" stroke-linejoin="round"/>
<path d="M489.766 716.669C489.766 723.364 484.339 728.791 477.643 728.791C470.948 728.791 465.521 723.364 465.521 716.669C465.521 709.973 470.948 704.546 477.643 704.546C484.339 704.546 489.766 709.973 489.766 716.669Z" fill="#84AAE4"/>
<path d="M489.766 716.669C489.766 723.364 484.339 728.791 477.643 728.791C470.948 728.791 465.521 723.364 465.521 716.669C465.521 709.973 470.948 704.546 477.643 704.546C484.339 704.546 489.766 709.973 489.766 716.669Z" stroke="#0626A9" stroke-width="2" stroke-linecap="round" stroke-linejoin="round"/>
<path d="M290.248 1018.8C290.248 1021.92 287.708 1024.46 284.576 1024.46C281.443 1024.46 278.903 1021.92 278.903 1018.8C278.903 1015.66 281.443 1013.12 284.576 1013.12C287.708 1013.12 290.248 1015.66 290.248 1018.8Z" fill="white"/>
<path d="M290.248 1018.8C290.248 1021.92 287.708 1024.46 284.576 1024.46C281.443 1024.46 278.903 1021.92 278.903 1018.8C278.903 1015.66 281.443 1013.12 284.576 1013.12C287.708 1013.12 290.248 1015.66 290.248 1018.8Z" stroke="#0626A9" stroke-width="2" stroke-linecap="round" stroke-linejoin="round"/>
<path d="M1184.14 851.879C1184.14 860.131 1177.46 866.82 1169.2 866.82C1160.95 866.82 1154.26 860.131 1154.26 851.879C1154.26 843.628 1160.95 836.939 1169.2 836.939C1177.46 836.939 1184.14 843.628 1184.14 851.879Z" fill="white"/>
<path d="M1184.14 851.879C1184.14 860.131 1177.46 866.82 1169.2 866.82C1160.95 866.82 1154.26 860.131 1154.26 851.879C1154.26 843.628 1160.95 836.939 1169.2 836.939C1177.46 836.939 1184.14 843.628 1184.14 851.879Z" stroke="#0626A9" stroke-width="2" stroke-linecap="round" stroke-linejoin="round"/>
<path d="M1313.63 879.132C1313.63 883.544 1310.05 887.119 1305.63 887.119C1301.23 887.119 1297.65 883.544 1297.65 879.132C1297.65 874.721 1301.23 871.146 1305.63 871.146C1310.05 871.146 1313.63 874.721 1313.63 879.132Z" fill="#0626A9"/>
<path d="M1313.63 879.132C1313.63 883.544 1310.05 887.119 1305.63 887.119C1301.23 887.119 1297.65 883.544 1297.65 879.132C1297.65 874.721 1301.23 871.146 1305.63 871.146C1310.05 871.146 1313.63 874.721 1313.63 879.132Z" stroke="#0626A9" stroke-width="2" stroke-linecap="round" stroke-linejoin="round"/>
<path d="M1253.18 752.965C1253.18 757.687 1249.35 761.514 1244.62 761.514C1239.91 761.514 1236.08 757.687 1236.08 752.965C1236.08 748.244 1239.91 744.417 1244.62 744.417C1249.35 744.417 1253.18 748.244 1253.18 752.965Z" fill="white"/>
<path d="M1253.18 752.965C1253.18 757.687 1249.35 761.514 1244.62 761.514C1239.91 761.514 1236.08 757.687 1236.08 752.965C1236.08 748.244 1239.91 744.417 1244.62 744.417C1249.35 744.417 1253.18 748.244 1253.18 752.965Z" stroke="#0626A9" stroke-width="2" stroke-linecap="round" stroke-linejoin="round"/>
<path d="M1276.72 540.591C1276.72 546.057 1272.29 550.488 1266.83 550.488C1261.36 550.488 1256.93 546.057 1256.93 540.591C1256.93 535.125 1261.36 530.694 1266.83 530.694C1272.29 530.694 1276.72 535.125 1276.72 540.591Z" fill="white"/>
<path d="M1276.72 540.591C1276.72 546.057 1272.29 550.488 1266.83 550.488C1261.36 550.488 1256.93 546.057 1256.93 540.591C1256.93 535.125 1261.36 530.694 1266.83 530.694C1272.29 530.694 1276.72 535.125 1276.72 540.591Z" stroke="#0626A9" stroke-width="2" stroke-linecap="round" stroke-linejoin="round"/>
<path d="M1368.33 1105.72C1368.33 1115.48 1360.42 1123.4 1350.65 1123.4C1340.89 1123.4 1332.98 1115.48 1332.98 1105.72C1332.98 1095.96 1340.89 1088.05 1350.65 1088.05C1360.42 1088.05 1368.33 1095.96 1368.33 1105.72Z" fill="#84AAE4"/>
<path d="M1368.33 1105.72C1368.33 1115.48 1360.42 1123.4 1350.65 1123.4C1340.89 1123.4 1332.98 1115.48 1332.98 1105.72C1332.98 1095.96 1340.89 1088.05 1350.65 1088.05C1360.42 1088.05 1368.33 1095.96 1368.33 1105.72Z" stroke="#0626A9" stroke-width="2" stroke-linecap="round" stroke-linejoin="round"/>
</g>
</g>
</g>
<defs>
<clipPath id="clip0_40000055_8935">
<rect width="1600" height="1600" fill="white"/>
</clipPath>
</defs>
</svg>
