<?xml version="1.0" encoding="UTF-8"?>
<!DOCTYPE svg PUBLIC "-//W3C//DTD SVG 1.1//EN" "http://www.w3.org/Graphics/SVG/1.1/DTD/svg11.dtd">
<!-- Creator: CorelDRAW -->
<svg xmlns="http://www.w3.org/2000/svg" xml:space="preserve" width="2359px" height="898px" shape-rendering="geometricPrecision" text-rendering="geometricPrecision" image-rendering="optimizeQuality" fill-rule="evenodd" clip-rule="evenodd"
viewBox="0 0 2312.12 879.9"
 xmlns:xlink="http://www.w3.org/1999/xlink">
 <g id="Ebene_x0020_1">
  <metadata id="CorelCorpID_0Corel-Layer"/>
  <polygon fill="#004F7F" fill-rule="nonzero" points="0,175.979 175.979,175.979 175.979,0 0,0 "/>
  <polygon fill="#0084C3" fill-rule="nonzero" points="0,351.96 175.979,351.96 175.979,175.979 0,175.979 "/>
  <polygon fill="#76CCCD" fill-rule="nonzero" points="0,527.94 175.979,527.94 175.979,351.96 0,351.96 "/>
  <polygon fill="#75C043" fill-rule="nonzero" points="0,703.919 175.979,703.919 175.979,527.94 0,527.94 "/>
  <polygon fill="#00AA4F" fill-rule="nonzero" points="0,879.9 175.979,879.9 175.979,703.919 0,703.919 "/>
  <polygon fill="#75C043" fill-rule="nonzero" points="175.979,879.9 351.96,879.9 351.96,703.919 175.979,703.919 "/>
  <polygon fill="#C4D92D" fill-rule="nonzero" points="351.96,879.9 527.94,879.9 527.94,703.919 351.96,703.919 "/>
  <polygon fill="#D7A96F" fill-rule="nonzero" points="527.94,879.9 703.919,879.9 703.919,703.919 527.94,703.919 "/>
  <polygon fill="#EEE1C5" fill-rule="nonzero" points="703.919,879.9 879.9,879.9 879.9,703.919 703.919,703.919 "/>
  <polygon fill="#C4D92D" fill-rule="nonzero" points="175.979,703.919 351.96,703.919 351.96,527.94 175.979,527.94 "/>
  <polygon fill="#EEE1C5" fill-rule="nonzero" points="351.96,703.919 527.94,703.919 527.94,527.94 351.96,527.94 "/>
  <polygon fill="#E2C197" fill-rule="nonzero" points="527.94,703.919 703.919,703.919 703.919,527.94 527.94,527.94 "/>
  <polygon fill="#D7A96F" fill-rule="nonzero" points="703.919,703.919 879.9,703.919 879.9,527.94 703.919,527.94 "/>
  <polygon fill="#00B3C2" fill-rule="nonzero" points="175.979,527.94 351.96,527.94 351.96,351.96 175.979,351.96 "/>
  <polygon fill="#E2C197" fill-rule="nonzero" points="351.96,527.94 527.94,527.94 527.94,351.96 351.96,351.96 "/>
  <polygon fill="#DF9D88" fill-rule="nonzero" points="527.94,527.94 703.919,527.94 703.919,351.96 527.94,351.96 "/>
  <polygon fill="#ED1C24" fill-rule="nonzero" points="703.919,527.94 879.9,527.94 879.9,351.96 703.919,351.96 "/>
  <polygon fill="#68C3EE" fill-rule="nonzero" points="175.979,351.96 351.96,351.96 351.96,175.979 175.979,175.979 "/>
  <polygon fill="#F58020" fill-rule="nonzero" points="351.96,351.96 527.94,351.96 527.94,175.979 351.96,175.979 "/>
  <polygon fill="#ED1C24" fill-rule="nonzero" points="527.94,351.96 703.919,351.96 703.919,175.979 527.94,175.979 "/>
  <polygon fill="#C3262D" fill-rule="nonzero" points="703.919,351.96 879.9,351.96 879.9,175.979 703.919,175.979 "/>
  <polygon fill="#0084C3" fill-rule="nonzero" points="175.979,175.979 351.96,175.979 351.96,0 175.979,0 "/>
  <polygon fill="#FAA61A" fill-rule="nonzero" points="351.96,175.979 527.94,175.979 527.94,0 351.96,0 "/>
  <polygon fill="#C3262D" fill-rule="nonzero" points="527.94,175.979 703.919,175.979 703.919,0 527.94,0 "/>
  <polygon fill="#8E181B" fill-rule="nonzero" points="703.919,175.979 879.9,175.979 879.9,0 703.919,0 "/>
  <path fill="#375878" fill-rule="nonzero" d="M1118.04 510.25l116.536 0 -59.6592 -164.026 -56.8765 164.026zm-92.5134 132.091l0 -32.3055 28.2391 0 118.844 -344.342 47.3291 0 128.627 344.342 29.1154 0 0 32.3055 -143.106 0 0 -32.3055 35.3985 0 -26.8073 -70.5342 -135.15 0 -23.3069 70.5342 35.4772 0 0 32.3055 -94.6606 0z"/>
  <polygon id="1" fill="#375878" fill-rule="nonzero" points="1395.58,642.341 1395.58,612.812 1426.13,612.812 1426.13,297.906 1395.58,297.906 1395.58,268.099 1490.48,268.099 1490.48,612.812 1521.02,612.812 1521.02,642.341 "/>
  <path id="12" fill="#375878" fill-rule="nonzero" d="M1580.13 408.521l-30.0692 0 0 -30.0831 30.0692 0 0 -74.2371 64.1145 -27.9555 0 102.193 41.0461 0 0 30.0831 -41.0461 0 0 185.501c0,10.8299 0.715354,18.0505 2.06851,21.6597 1.43071,3.61034 3.89741,5.46123 7.47765,5.46123 3.89741,0 7.31791,-2.49911 10.2615,-7.58993 2.9436,-5.09082 5.40914,-12.4967 7.23804,-22.2153l24.4216 13.2364c-5.72862,14.9032 -13.5234,26.0109 -23.308,33.4168 -9.78461,7.40473 -21.5567,11.1077 -35.3973,11.1077 -20.8425,0 -35.4783,-5.18458 -44.0707,-15.5514 -8.51017,-10.4595 -12.8058,-29.5286 -12.8058,-57.3904l0 -167.636z"/>
  <path id="123" fill="#375878" fill-rule="nonzero" d="M1718.06 642.341l0 -29.5286 30.5472 0 0 -204.292 -30.5472 0 0 -30.0831 92.0365 0 0 48.8744c7.15933,-17.6801 15.5919,-31.2869 25.2955,-40.7289 9.70474,-9.34938 20.2047,-14.0698 31.5809,-14.0698 11.4538,0 20.7603,4.1648 27.8409,12.4955 7.07946,8.33191 10.8183,19.4396 11.2952,33.3242l-42.8761 35.2677c-1.352,-13.5153 -3.49922,-23.1414 -6.36295,-28.8804 -2.86373,-5.64644 -6.99959,-8.51596 -12.2502,-8.51596 -9.30655,0 -16.8641,7.68253 -22.5117,23.0488 -5.64875,15.3651 -8.51248,36.0999 -8.51248,62.1108l0 111.448 34.2861 0 0 29.5286 -129.822 0z"/>
  <path id="1234" fill="#375878" fill-rule="nonzero" d="M2016.44 612.812l32.3761 0 0 29.5286 -129.344 0 0 -29.5286 32.3761 0 0 -204.292 -30.5472 0 0 -30.0831 95.1386 0 0 234.375zm-70.3987 -309.816c0,-10.0902 3.57909,-19.2532 10.8183,-27.584 7.2392,-8.33191 15.1139,-12.4967 23.6252,-12.4967 9.22668,0 17.1824,3.97959 24.0222,12.0337 6.84217,8.05294 10.2627,17.4023 10.2627,28.047 0,11.3855 -3.26077,20.9201 -9.78461,28.51 -6.52269,7.58993 -14.7157,11.3855 -24.5003,11.3855 -9.46629,0 -17.5806,-3.88815 -24.3417,-11.6633 -6.76114,-7.77514 -10.1018,-17.1245 -10.1018,-28.2322z"/>
  <path id="12345" fill="#375878" fill-rule="nonzero" d="M2219.13 577.268l0 -46.0975c0,-7.40588 -3.26077,-13.9783 -9.78345,-19.7174 -6.52269,-5.64644 -14.3985,-8.51596 -23.7051,-8.51596 -11.6934,0 -20.6828,4.72157 -27.0457,14.255 -6.36295,9.44198 -9.54616,23.0488 -9.54616,40.8215 0,17.6801 3.18321,31.5647 9.46629,41.5623 6.28424,10.089 14.9553,15.0884 26.1706,15.0884 9.78461,0 17.9776,-3.70294 24.5802,-11.1088 6.60256,-7.40473 9.86332,-16.1985 9.86332,-26.2875zm0 65.0729l0 -24.9923c-8.11314,10.5521 -17.4996,18.4198 -28.1593,23.7884 -10.7384,5.27718 -22.7501,7.9615 -35.8754,7.9615 -22.9087,0 -40.8875,-7.8689 -54.0926,-23.6044 -13.204,-15.7366 -19.8065,-37.3038 -19.8065,-64.7963 0,-26.0109 7.47765,-47.4854 22.3531,-64.3321 14.9541,-16.7541 34.205,-25.1786 57.8303,-25.1786 11.9318,0 22.6714,2.03725 32.2164,6.20205 9.54616,4.16595 18.0575,10.4606 25.534,18.7914l0 -33.8786c0,-25.1786 -3.02231,-41.5623 -8.98823,-49.3375 -5.96592,-7.77629 -16.7842,-11.6633 -32.4549,-11.6633 -11.6934,0 -22.0348,2.49911 -31.023,7.49733 -8.98939,4.90562 -17.8989,13.0523 -26.8073,24.2526l-22.3531 -29.6212c9.30655,-10.089 21.875,-17.7727 37.7841,-23.0488 15.8304,-5.27603 34.2062,-7.86774 55.2061,-7.86774 33.5696,0 57.3534,6.5713 71.4324,19.6236 14.0802,13.1438 21.081,35.8233 21.081,67.9425l0 152.733 29.1142 0 0 29.5286 -92.9914 0z"/>
 </g>
</svg>
