<?xml version="1.0" encoding="UTF-8" standalone="no"?>
<!-- Created with Inkscape (http://www.inkscape.org/) -->

<svg
   width="1000"
   height="738"
   viewBox="0 0 264.58334 195.26268"
   version="1.1"
   id="svg5"
   inkscape:version="1.1 (c68e22c387, 2021-05-23)"
   sodipodi:docname="Energizer Holdings, Inc. Logo.svg"
   xmlns:inkscape="http://www.inkscape.org/namespaces/inkscape"
   xmlns:sodipodi="http://sodipodi.sourceforge.net/DTD/sodipodi-0.dtd"
   xmlns="http://www.w3.org/2000/svg"
   xmlns:svg="http://www.w3.org/2000/svg">
  <sodipodi:namedview
     id="namedview7"
     pagecolor="#ffffff"
     bordercolor="#666666"
     borderopacity="1.0"
     inkscape:pageshadow="2"
     inkscape:pageopacity="0.0"
     inkscape:pagecheckerboard="0"
     inkscape:document-units="mm"
     showgrid="false"
     units="px"
     height="792px"
     inkscape:zoom="0.46324355"
     inkscape:cx="1071.7904"
     inkscape:cy="424.18292"
     inkscape:window-width="1366"
     inkscape:window-height="705"
     inkscape:window-x="-8"
     inkscape:window-y="-8"
     inkscape:window-maximized="1"
     inkscape:current-layer="layer1" />
  <defs
     id="defs2">
    <clipPath
       clipPathUnits="userSpaceOnUse"
       id="clipPath33">
      <path
         d="m 621,671.275 v -395.4 h 197.964 l 214.357,383.062 v 12.338 z"
         id="path31" />
    </clipPath>
    <clipPath
       clipPathUnits="userSpaceOnUse"
       id="clipPath49">
      <path
         d="M 0,0 H 1224 V 783 H 0 Z"
         id="path47" />
    </clipPath>
    <clipPath
       clipPathUnits="userSpaceOnUse"
       id="clipPath57">
      <path
         d="M 620,672.275 H 721 V 493.359 H 620 Z"
         id="path55" />
    </clipPath>
    <clipPath
       clipPathUnits="userSpaceOnUse"
       id="clipPath73">
      <path
         d="M 1040.224,671.275 818.964,275.874 H 1224 v 395.401 z"
         id="path71" />
    </clipPath>
    <clipPath
       clipPathUnits="userSpaceOnUse"
       id="clipPath85">
      <path
         d="M 0,0 H 1224 V 783 H 0 Z"
         id="path83" />
    </clipPath>
    <clipPath
       clipPathUnits="userSpaceOnUse"
       id="clipPath93">
      <path
         d="m 1109,512.763 h 134 V 274.875 h -134 z"
         id="path91" />
    </clipPath>
    <clipPath
       clipPathUnits="userSpaceOnUse"
       id="clipPath113">
      <path
         d="m 0,671.275 v -395.4 h 197.964 l 221.261,395.4 z"
         id="path111" />
    </clipPath>
    <clipPath
       clipPathUnits="userSpaceOnUse"
       id="clipPath125">
      <path
         d="M 419.225,671.274 197.964,275.874 H 603 v 395.4 z"
         id="path123" />
    </clipPath>
    <clipPath
       clipPathUnits="userSpaceOnUse"
       id="clipPath145">
      <path
         d="M 0,0 H 1224 V 783 H 0 Z"
         id="path143" />
    </clipPath>
    <clipPath
       clipPathUnits="userSpaceOnUse"
       id="clipPath153">
      <path
         d="m -18.9999,672.274 h 74 V 541.608 h -74 z"
         id="path151" />
    </clipPath>
    <clipPath
       clipPathUnits="userSpaceOnUse"
       id="clipPath183">
      <path
         d="M 0,0 H 1224 V 783 H 0 Z"
         id="path181" />
    </clipPath>
    <clipPath
       clipPathUnits="userSpaceOnUse"
       id="clipPath207">
      <path
         d="M 0,0 H 1224 V 783 H 0 Z"
         id="path205" />
    </clipPath>
    <clipPath
       clipPathUnits="userSpaceOnUse"
       id="clipPath227">
      <path
         d="M 0,0 H 1224 V 783 H 0 Z"
         id="path225" />
    </clipPath>
    <clipPath
       clipPathUnits="userSpaceOnUse"
       id="clipPath263">
      <path
         d="M 0,0 H 1224 V 783 H 0 Z"
         id="path261" />
    </clipPath>
    <clipPath
       clipPathUnits="userSpaceOnUse"
       id="clipPath279">
      <path
         d="M 0,0 H 1224 V 783 H 0 Z"
         id="path277" />
    </clipPath>
    <clipPath
       clipPathUnits="userSpaceOnUse"
       id="clipPath315">
      <path
         d="M 0,0 H 1224 V 783 H 0 Z"
         id="path313" />
    </clipPath>
    <clipPath
       clipPathUnits="userSpaceOnUse"
       id="clipPath351">
      <path
         d="M 0,0 H 1224 V 783 H 0 Z"
         id="path349" />
    </clipPath>
    <clipPath
       clipPathUnits="userSpaceOnUse"
       id="clipPath371">
      <path
         d="M 0,0 H 1224 V 783 H 0 Z"
         id="path369" />
    </clipPath>
    <clipPath
       clipPathUnits="userSpaceOnUse"
       id="clipPath407">
      <path
         d="M 0,0 H 1224 V 783 H 0 Z"
         id="path405" />
    </clipPath>
    <clipPath
       clipPathUnits="userSpaceOnUse"
       id="clipPath423">
      <path
         d="M 0,0 H 1224 V 783 H 0 Z"
         id="path421" />
    </clipPath>
    <clipPath
       clipPathUnits="userSpaceOnUse"
       id="clipPath459">
      <path
         d="M 0,0 H 1224 V 783 H 0 Z"
         id="path457" />
    </clipPath>
    <clipPath
       clipPathUnits="userSpaceOnUse"
       id="clipPath479">
      <path
         d="M 484.416,487 H 604 V 274.875 H 484.416 Z"
         id="path477" />
    </clipPath>
  </defs>
  <g
     inkscape:label="Lapis 1"
     inkscape:groupmode="layer"
     id="layer1">
    <g
       id="g1408"
       transform="matrix(7.1044146,0,0,7.1206871,-555.23154,-843.08443)">
      <g
         id="g1330">
        <path
           d="m 95.571127,130.26439 c 3.325636,-2.27224 7.150803,-5.04402 10.612963,-7.54839 0.47414,-0.34325 1.17334,-0.68968 1.49472,-1.08408 0.38876,-0.47625 0.46849,-1.47285 0.18698,-2.05529 -0.43039,-0.89182 -1.76601,-1.39311 -2.76543,-0.74753 -0.42298,0.27375 -0.87665,0.98319 -1.23331,1.42063 -2.71357,3.32776 -5.629629,6.79062 -8.295923,10.01466"
           style="fill:#243e95;fill-opacity:1;fill-rule:nonzero;stroke:none;stroke-width:0.352778"
           id="path331" />
        <path
           d="m 106.1697,128.39572 c 1.17651,-0.49847 2.36749,-0.91299 3.58775,-1.41922 0.78034,-0.32456 1.51871,-0.54681 1.64359,-1.45768 0.1711,-1.24002 -0.76941,-2.41406 -2.16641,-2.24226 -0.95426,0.11677 -1.21002,0.80822 -1.56986,1.64395 -0.51682,1.19909 -0.96167,2.26589 -1.49507,3.47521"
           style="fill:#1c75bc;fill-opacity:1;fill-rule:nonzero;stroke:none;stroke-width:0.352778"
           id="path335" />
        <path
           d="m 113.66076,127.71 c -1.20615,-0.16722 -2.159,0.67945 -2.16711,1.83056 -0.0159,2.18123 2.96015,2.52272 3.66218,0.74789 0.50518,-1.27811 -0.37712,-2.42499 -1.49507,-2.57845"
           style="fill:#00aeef;fill-opacity:1;fill-rule:nonzero;stroke:none;stroke-width:0.352778"
           id="path339" />
        <path
           d="m 78.286816,140.27082 h 3.986036 l 0.66675,-1.42275 -2.24155,0.001 0.720372,-1.53812 h 2.113492 l 0.667455,-1.4231 h -2.112433 l 0.614892,-1.30881 h 2.233789 l 0.668514,-1.42063 -3.978628,-3.6e-4 z"
           style="fill:#000000;fill-opacity:1;fill-rule:nonzero;stroke:none;stroke-width:0.352778"
           id="path343" />
        <g
           id="g353"
           transform="matrix(0.35277777,0,0,-0.35277777,95.248336,135.51333)">
          <path
             d="M 0,0 C 1.242,1.615 2.565,1.816 4.008,1.805 L 1.944,-2.533 c -0.434,0.01 -0.51,-0.003 -0.952,-0.003 -0.895,0 -2.111,-0.716 -2.771,-1.956 l -4.238,-8.993 h -4.33 l 7.07,15.059 h 4.032 z"
             style="fill:#000000;fill-opacity:1;fill-rule:nonzero;stroke:none"
             id="path355" />
        </g>
        <path
           d="m 98.870658,140.27082 2.494842,-5.31213 h 1.52506 l -2.49237,5.31213 z m 2.772482,-5.90338 0.43638,-0.93028 1.53035,-7e-4 -0.44061,0.93274 z"
           style="fill:#000000;fill-opacity:1;fill-rule:nonzero;stroke:none;stroke-width:0.352778"
           id="path359" />
        <path
           d="m 103.3346,134.95725 3.49109,-7.1e-4 -0.55774,1.1804 -2.98344,2.9397 h 1.75683 l -0.56656,1.20156 -3.6195,-0.002 0.57891,-1.23472 2.95204,-2.89631 -1.60867,0.001 z"
           style="fill:#000000;fill-opacity:1;fill-rule:nonzero;stroke:none;stroke-width:0.352778"
           id="path363" />
        <g
           id="g373"
           transform="matrix(0.35277777,0,0,-0.35277777,89.832774,137.86301)">
          <path
             d="m 0,0 -1.237,-2.633 c -0.391,-0.833 -0.362,-1.651 0.572,-1.653 1.366,-0.002 1.696,1.004 2.565,2.673 h 4.252 c -2.258,-4.566 -3.945,-5.699 -8.257,-5.731 -3.609,-0.022 -4.639,1.787 -2.947,5.718 l 2.361,4.999 C -0.869,7.246 1.811,8.462 5.171,8.472 8.401,8.477 9.448,5.903 8.214,3.21 L 6.774,0.002 Z M 3.877,2.729 4.5,4.058 C 4.839,4.721 5.083,5.856 4.024,5.875 2.803,5.892 2.181,4.671 1.792,3.822 l -0.51,-1.09 z"
             style="fill:#000000;fill-opacity:1;fill-rule:nonzero;stroke:none"
             id="path375" />
        </g>
        <g
           id="g377"
           transform="matrix(0.35277777,0,0,-0.35277777,107.3495,137.86301)">
          <path
             d="m 0,0 -1.236,-2.633 c -0.391,-0.833 -0.366,-1.651 0.572,-1.653 1.363,-0.002 1.692,1.004 2.561,2.673 H 6.153 C 3.889,-6.179 2.2,-7.312 -2.103,-7.344 c -3.616,-0.022 -4.643,1.787 -2.955,5.718 l 2.371,4.999 C -0.867,7.246 1.808,8.462 5.165,8.472 8.399,8.477 9.443,5.903 8.213,3.21 L 6.772,0.002 Z M 3.871,2.729 4.49,4.058 C 4.83,4.721 5.075,5.856 4.018,5.875 2.797,5.892 2.178,4.671 1.789,3.822 L 1.28,2.732 Z"
             style="fill:#000000;fill-opacity:1;fill-rule:nonzero;stroke:none"
             id="path379" />
        </g>
        <g
           id="g381"
           transform="matrix(0.35277777,0,0,-0.35277777,95.837016,140.11871)">
          <path
             d="m 0,0 c -1.995,0.024 -2.836,1.749 -0.841,6.198 l 1.956,4.157 c 2.109,3.97 4.412,4.555 6.199,4.545 1.123,-0.003 2.085,-0.341 2.112,-1.845 l 0.73,1.573 h 4.032 L 6.977,-0.727 C 5.328,-4.252 3.96,-5.996 -0.792,-6.032 c -3.264,-0.021 -4.748,1.976 -3.43,4.768 h 4.006 c -0.484,-1.391 -0.383,-1.794 0.589,-1.811 1.091,-0.02 1.691,0.654 2.17,1.618 L 3.942,1.445 C 2.708,0.48 1.307,-0.142 0,0 M 3.163,5.667 C 2.575,4.315 1.969,3.146 3.271,3.186 4.068,3.214 4.721,4.047 5.494,5.595 l 1.7,3.647 C 7.945,10.906 7.989,11.627 7.093,11.621 6.238,11.611 5.565,10.777 4.781,9.212 Z"
             style="fill:#000000;fill-opacity:1;fill-rule:nonzero;stroke:none"
             id="path383" />
        </g>
        <g
           id="g385"
           transform="matrix(0.35277777,0,0,-0.35277777,86.467062,135.47894)">
          <path
             d="M 0,0 C 0.949,1.152 2.435,1.781 3.796,1.773 6.27,1.76 6.865,-0.332 5.909,-2.379 L 0.724,-13.583 H -3.555 L 1.339,-2.999 C 1.609,-2.301 1.95,-1.3 0.86,-1.309 0.089,-1.314 -0.777,-2.234 -1.139,-3.014 l -4.963,-10.569 h -4.331 l 7.067,15.059 h 4.035 z"
             style="fill:#000000;fill-opacity:1;fill-rule:nonzero;stroke:none"
             id="path387" />
        </g>
        <g
           id="g389"
           transform="matrix(0.35277777,0,0,-0.35277777,112.68907,135.51333)">
          <path
             d="M 0,0 C 1.246,1.61 2.188,1.607 4.002,1.803 L 1.939,-2.535 C 1.508,-2.525 1.43,-2.536 1.001,-2.536 0.096,-2.542 -1.115,-3.258 -1.789,-4.493 l -4.228,-8.993 h -4.33 l 7.068,15.055 h 4.036 z"
             style="fill:#000000;fill-opacity:1;fill-rule:nonzero;stroke:none"
             id="path391" />
        </g>
        <g
           id="g393"
           transform="matrix(0.35277777,0,0,-0.35277777,111.83813,139.9964)">
          <path
             d="m 0,0 h 0.15 l 0.356,-0.677 0.386,0.003 -0.389,0.705 c 0.201,0.016 0.368,0.122 0.368,0.421 0,0.368 -0.234,0.486 -0.632,0.486 H -0.334 L -0.329,-0.678 0,-0.677 Z M -0.002,0.274 V 0.665 L 0.226,0.663 C 0.351,0.665 0.517,0.651 0.518,0.485 0.518,0.307 0.433,0.274 0.288,0.274 Z m 1.673,-0.14 c 0,0.946 -0.685,1.495 -1.439,1.495 -0.755,-0.001 -1.428,-0.552 -1.424,-1.504 0,-0.943 0.674,-1.498 1.429,-1.496 0.759,0 1.437,0.554 1.434,1.505 M 1.259,0.129 C 1.263,-0.559 0.786,-1.025 0.237,-1.025 v 0.005 c -0.564,-0.005 -1.02,0.458 -1.022,1.145 -0.002,0.689 0.451,1.153 1.021,1.155 0.545,0 1.023,-0.46 1.023,-1.151"
             style="fill:#000000;fill-opacity:1;fill-rule:nonzero;stroke:none"
             id="path395" />
        </g>
        <path
           d="m 93.239443,145.15288 h -0.446617 l 0.44697,-0.93804 h -0.903111 l -0.44697,0.93804 h -0.446616 l 1.068563,-2.23344 h 0.447323 l -0.409223,0.85514 h 0.902759 l 0.409222,-0.85514 h 0.446969 z"
           style="fill:#000000;fill-opacity:1;fill-rule:nonzero;stroke:none;stroke-width:0.352778"
           id="path399" />
        <g
           id="g409"
           transform="matrix(0.35277777,0,0,-0.35277777,94.615946,144.76341)">
          <path
             d="M 0,0 C 0.561,0 1.249,0.597 1.558,1.619 1.736,2.206 1.53,2.542 1.122,2.542 0.561,2.542 -0.125,1.944 -0.435,0.922 -0.613,0.334 -0.406,0 0,0 M 1.623,3.745 C 2.735,3.745 3.247,2.957 2.867,1.7 2.396,0.144 0.966,-1.203 -0.5,-1.203 c -1.112,0 -1.624,0.786 -1.244,2.044 0.471,1.555 1.902,2.904 3.367,2.904"
             style="fill:#000000;fill-opacity:1;fill-rule:nonzero;stroke:none"
             id="path411" />
        </g>
        <path
           d="m 95.966485,145.15288 h -0.440267 l 1.007886,-2.10573 0.545395,-0.22049 z"
           style="fill:#000000;fill-opacity:1;fill-rule:nonzero;stroke:none;stroke-width:0.352778"
           id="path415" />
        <g
           id="g425"
           transform="matrix(0.35277777,0,0,-0.35277777,97.253207,144.77315)">
          <path
             d="m 0,0 c 0.326,0 0.628,0.19 0.889,0.398 l 0.86,1.791 C 1.595,2.46 1.428,2.596 1.076,2.596 0.488,2.596 -0.115,1.799 -0.402,0.85 -0.573,0.289 -0.425,0 0,0 m 1.405,3.772 c 0.48,0 0.689,-0.145 0.922,-0.389 L 3.046,4.893 4.592,5.518 1.429,-1.077 H 0.18 l 0.146,0.299 c -0.334,-0.235 -0.682,-0.397 -1.063,-0.397 -1.003,0 -1.355,0.686 -1.013,1.817 0.491,1.62 1.735,3.13 3.155,3.13"
             style="fill:#000000;fill-opacity:1;fill-rule:nonzero;stroke:none"
             id="path427" />
        </g>
        <g
           id="g429"
           transform="matrix(0.35277777,0,0,-0.35277777,99.348178,143.34056)">
          <path
             d="M 0,0 C -0.389,0 -0.616,0.326 -0.498,0.715 -0.38,1.104 0.044,1.43 0.433,1.43 0.823,1.43 1.049,1.104 0.932,0.715 0.814,0.326 0.39,0 0,0 m -1.944,-5.137 h -1.249 l 2.271,4.749 h 1.248 z"
             style="fill:#000000;fill-opacity:1;fill-rule:nonzero;stroke:none"
             id="path431" />
        </g>
        <g
           id="g433"
           transform="matrix(0.35277777,0,0,-0.35277777,101.00976,144.20867)">
          <path
             d="m 0,0 -1.281,-2.677 h -1.248 l 1.229,2.569 c 0.077,0.163 0.128,0.299 0.163,0.416 0.14,0.462 -0.009,0.688 -0.452,0.688 -0.498,0 -0.911,-0.289 -1.285,-1.077 L -4.112,-2.677 H -5.36 l 2.271,4.749 h 1.248 L -1.992,1.756 c 0.313,0.225 0.715,0.416 1.202,0.416 1.022,0 1.352,-0.525 1.065,-1.474 C 0.214,0.498 0.108,0.236 0,0"
             style="fill:#000000;fill-opacity:1;fill-rule:nonzero;stroke:none"
             id="path435" />
        </g>
        <g
           id="g437"
           transform="matrix(0.35277777,0,0,-0.35277777,101.82722,144.77336)">
          <path
             d="m 0,0 c 0.326,0 0.627,0.191 0.889,0.399 l 0.86,1.79 C 1.596,2.461 1.428,2.596 1.075,2.596 0.487,2.596 -0.116,1.8 -0.403,0.85 -0.574,0.29 -0.426,0 0,0 m 1.826,-0.271 c -0.745,-1.564 -1.414,-2.46 -3.287,-2.55 l 0.004,0.968 c 1.048,0.054 1.443,0.343 1.769,1.031 l 0.024,0.054 c -0.306,-0.236 -0.701,-0.406 -1.072,-0.406 -1.004,0 -1.356,0.686 -1.015,1.816 0.492,1.62 1.736,3.13 3.156,3.13 0.48,0 0.688,-0.145 0.922,-0.388 L 2.46,3.673 h 1.247 z"
             style="fill:#000000;fill-opacity:1;fill-rule:nonzero;stroke:none"
             id="path439" />
        </g>
        <g
           id="g441"
           transform="matrix(0.35277777,0,0,-0.35277777,104.43985,143.9914)">
          <path
             d="m 0,0 c -0.298,0.244 -0.811,0.489 -1.344,0.489 -0.354,0 -0.537,-0.127 -0.589,-0.299 -0.046,-0.154 -0.003,-0.253 0.699,-0.588 0.695,-0.335 1.11,-0.696 0.891,-1.42 -0.335,-1.103 -1.318,-1.573 -2.376,-1.573 -0.95,0 -1.645,0.361 -1.964,0.713 l 0.863,0.905 c 0.352,-0.298 0.836,-0.551 1.559,-0.551 0.327,0 0.552,0.145 0.62,0.37 0.054,0.181 -0.036,0.299 -0.453,0.48 -0.946,0.425 -1.371,0.76 -1.149,1.492 0.298,0.986 1.136,1.538 2.311,1.538 0.86,0 1.433,-0.29 1.799,-0.57 z"
             style="fill:#000000;fill-opacity:1;fill-rule:nonzero;stroke:none"
             id="path443" />
        </g>
        <path
           d="m 104.55359,145.55473 h -0.29986 l 0.49883,-0.94121 h 0.51999 z"
           style="fill:#000000;fill-opacity:1;fill-rule:nonzero;stroke:none;stroke-width:0.352778"
           id="path447" />
        <path
           d="m 106.60612,145.15288 h -0.44732 l 1.07244,-2.23344 h 0.44662 z"
           style="fill:#000000;fill-opacity:1;fill-rule:nonzero;stroke:none;stroke-width:0.352778"
           id="path451" />
      </g>
      <path
         d="m 109.0206,144.20867 -0.45191,0.94439 h -0.44026 l 0.43391,-0.90629 c 0.0272,-0.0575 0.0448,-0.10548 0.0575,-0.14676 0.049,-0.16298 -0.004,-0.24271 -0.1598,-0.24271 -0.17569,0 -0.32103,0.10196 -0.45297,0.37994 l -0.43709,0.91582 h -0.44062 l 0.80151,-1.67535 h 0.44027 l -0.0529,0.11148 c 0.10971,-0.0794 0.25153,-0.14675 0.42404,-0.14675 0.36054,0 0.4766,0.18521 0.37535,0.51999 -0.0215,0.0706 -0.0593,0.16298 -0.097,0.24624"
         style="fill:#000000;fill-opacity:1;fill-rule:nonzero;stroke:none;stroke-width:0.352778"
         id="path463" />
      <path
         d="m 110.56023,144.13473 c -0.054,-0.16898 -0.12347,-0.26776 -0.28293,-0.26776 -0.24236,0 -0.48577,0.26459 -0.56868,0.5394 -0.0691,0.2293 0.0162,0.35701 0.19827,0.35701 0.121,0 0.26493,-0.0635 0.44732,-0.19121 l 0.16086,0.29034 c -0.31115,0.23636 -0.54821,0.32526 -0.79092,0.32526 -0.39547,0 -0.61666,-0.28046 -0.4759,-0.74683 0.15981,-0.52599 0.65969,-0.99836 1.20544,-0.99836 0.34784,0 0.48613,0.17568 0.54116,0.41451 z"
         style="fill:#000000;fill-opacity:1;fill-rule:nonzero;stroke:none;stroke-width:0.352778"
         id="path467" />
      <path
         d="m 111.00205,145.18766 c -0.16263,0 -0.25859,-0.13688 -0.2092,-0.29951 0.0494,-0.16298 0.22754,-0.30021 0.39088,-0.30021 0.16263,0 0.25823,0.13723 0.2092,0.30021 -0.049,0.16263 -0.22825,0.29951 -0.39088,0.29951"
         style="fill:#000000;fill-opacity:1;fill-rule:nonzero;stroke:none;stroke-width:0.352778"
         id="path471" />
    </g>
  </g>
</svg>
