<svg xmlns="http://www.w3.org/2000/svg" xmlns:xlink="http://www.w3.org/1999/xlink" viewBox="0 0 1600 1600" width="1600" height="1600" preserveAspectRatio="xMidYMid meet" style="width: 100%; height: 100%; transform: translate3d(0px, 0px, 0px); content-visibility: visible;"><defs><clipPath id="__lottie_element_2"><rect width="1600" height="1600" x="0" y="0"></rect></clipPath><clipPath id="__lottie_element_148"><path d="M0,0 L1600,0 L1600,1600 L0,1600z"></path></clipPath><g id="__lottie_element_292"><g transform="matrix(1,0,0,1,1204.0469970703125,1201.373046875)" opacity="1" style="display: block;"><g opacity="1" transform="matrix(1,0,0,1,0,0)"><path fill="rgb(255,255,255)" fill-opacity="1" d=" M79.46499633789062,0 C79.46499633789062,0 43.887001037597656,38.683998107910156 0,38.683998107910156 C-43.887001037597656,38.683998107910156 -79.46499633789062,0 -79.46499633789062,0 C-79.46499633789062,0 -43.887001037597656,-38.683998107910156 0,-38.683998107910156 C43.887001037597656,-38.683998107910156 79.46499633789062,0 79.46499633789062,0z"></path><path stroke-linecap="round" stroke-linejoin="round" fill-opacity="0" stroke="rgb(32,40,112)" stroke-opacity="1" stroke-width="2" d=" M79.46499633789062,0 C79.46499633789062,0 43.887001037597656,38.683998107910156 0,38.683998107910156 C-43.887001037597656,38.683998107910156 -79.46499633789062,0 -79.46499633789062,0 C-79.46499633789062,0 -43.887001037597656,-38.683998107910156 0,-38.683998107910156 C43.887001037597656,-38.683998107910156 79.46499633789062,0 79.46499633789062,0z"></path></g></g></g><mask id="__lottie_element_292_1" mask-type="alpha"><use xlink:href="#__lottie_element_292"></use></mask></defs><g clip-path="url(#__lottie_element_2)"><g transform="matrix(1,0,0,1,1109.9840087890625,637.8250122070312)" opacity="1" style="display: block;"><g opacity="1" transform="matrix(1,0,0,1,0,0)"><path fill="rgb(255,255,255)" fill-opacity="1" d=" M-218.78500366210938,-300.4049987792969 C-218.78500366210938,-300.4049987792969 218.78500366210938,-300.4049987792969 218.78500366210938,-300.4049987792969 C218.78500366210938,-300.4049987792969 218.78500366210938,300.4049987792969 218.78500366210938,300.4049987792969 C218.78500366210938,300.4049987792969 -218.78500366210938,300.4049987792969 -218.78500366210938,300.4049987792969 C-218.78500366210938,300.4049987792969 -218.78500366210938,-300.4049987792969 -218.78500366210938,-300.4049987792969z"></path><path stroke-linecap="round" stroke-linejoin="round" fill-opacity="0" stroke="rgb(32,40,112)" stroke-opacity="1" stroke-width="2" d=" M-218.78500366210938,-300.4049987792969 C-218.78500366210938,-300.4049987792969 218.78500366210938,-300.4049987792969 218.78500366210938,-300.4049987792969 C218.78500366210938,-300.4049987792969 218.78500366210938,300.4049987792969 218.78500366210938,300.4049987792969 C218.78500366210938,300.4049987792969 -218.78500366210938,300.4049987792969 -218.78500366210938,300.4049987792969 C-218.78500366210938,300.4049987792969 -218.78500366210938,-300.4049987792969 -218.78500366210938,-300.4049987792969z"></path></g></g><g transform="matrix(1,0,0,1,1109.9840087890625,450.23199462890625)" opacity="1" style="display: block;"><g opacity="1" transform="matrix(1,0,0,1,0,0)"><path fill="rgb(132,132,250)" fill-opacity="1" d=" M166.0659942626953,46.569000244140625 C166.0659942626953,46.569000244140625 -166.0659942626953,46.569000244140625 -166.0659942626953,46.569000244140625 C-166.0659942626953,46.569000244140625 -166.0659942626953,-46.569000244140625 -166.0659942626953,-46.569000244140625 C-166.0659942626953,-46.569000244140625 166.0659942626953,-46.569000244140625 166.0659942626953,-46.569000244140625 C166.0659942626953,-46.569000244140625 166.0659942626953,46.569000244140625 166.0659942626953,46.569000244140625z"></path><path stroke-linecap="round" stroke-linejoin="round" fill-opacity="0" stroke="rgb(32,40,112)" stroke-opacity="1" stroke-width="2" d=" M166.0659942626953,46.569000244140625 C166.0659942626953,46.569000244140625 -166.0659942626953,46.569000244140625 -166.0659942626953,46.569000244140625 C-166.0659942626953,46.569000244140625 -166.0659942626953,-46.569000244140625 -166.0659942626953,-46.569000244140625 C-166.0659942626953,-46.569000244140625 166.0659942626953,-46.569000244140625 166.0659942626953,-46.569000244140625 C166.0659942626953,-46.569000244140625 166.0659942626953,46.569000244140625 166.0659942626953,46.569000244140625z"></path></g></g><g transform="matrix(1,0,0,1,1080.2080078125,532.0679931640625)" opacity="1" style="display: block;"><g opacity="1" transform="matrix(1,0,0,1,0,0)"><path stroke-linecap="round" stroke-linejoin="round" fill-opacity="0" stroke="rgb(32,40,112)" stroke-opacity="1" stroke-width="2" d=" M-135.6510009765625,0 C-135.6510009765625,0 135.6510009765625,0 135.6510009765625,0"></path></g></g><g transform="matrix(1,0,0,1,1034.4200439453125,574.989990234375)" opacity="1" style="display: block;"><g opacity="1" transform="matrix(1,0,0,1,0,0)"><path stroke-linecap="round" stroke-linejoin="round" fill-opacity="0" stroke="rgb(32,40,112)" stroke-opacity="1" stroke-width="2" d=" M-89.86399841308594,0 C-89.86399841308594,0 37.0359992980957,0 77.572998046875,0"></path></g></g><g transform="matrix(1,0,0,1,1110.302978515625,617.9110107421875)" opacity="1" style="display: block;"><g opacity="1" transform="matrix(1,0,0,1,0,0)"><path stroke-linecap="round" stroke-linejoin="round" fill-opacity="0" stroke="rgb(32,40,112)" stroke-opacity="1" stroke-width="2" d=" M-165.7469940185547,0 C-165.7469940185547,0 11.128000259399414,0 106.47899627685547,0"></path></g></g><g transform="matrix(1,0,0,1,1169.9320068359375,779.6820068359375)" opacity="1" style="display: block;"><g opacity="1" transform="matrix(1,0,0,1,0,0)"><path fill="rgb(32,40,112)" fill-opacity="1" d=" M-57.62099838256836,-158.61199951171875 C-57.62099838256836,-158.61199951171875 -69.80699920654297,158.61199951171875 -69.80699920654297,158.61199951171875 C-69.80699920654297,158.61199951171875 69.80699920654297,158.61199951171875 69.80699920654297,158.61199951171875 C69.80699920654297,158.61199951171875 -57.62099838256836,-158.61199951171875 -57.62099838256836,-158.61199951171875z"></path><path stroke-linecap="round" stroke-linejoin="round" fill-opacity="0" stroke="rgb(32,40,112)" stroke-opacity="1" stroke-width="2" d=" M-57.62099838256836,-158.61199951171875 C-57.62099838256836,-158.61199951171875 -69.80699920654297,158.61199951171875 -69.80699920654297,158.61199951171875 C-69.80699920654297,158.61199951171875 69.80699920654297,158.61199951171875 69.80699920654297,158.61199951171875 C69.80699920654297,158.61199951171875 -57.62099838256836,-158.61199951171875 -57.62099838256836,-158.61199951171875z"></path></g></g><g transform="matrix(1,0,0,1,1001.7550048828125,1120.31201171875)" opacity="1" style="display: block;"><g opacity="1" transform="matrix(1,0,0,1,0,0)"><path stroke-linecap="round" stroke-linejoin="round" fill-opacity="0" stroke="rgb(32,40,112)" stroke-opacity="1" stroke-width="2" d=" M-110.55599975585938,-82.46499633789062 C-110.55599975585938,-82.46499633789062 -110.55599975585938,82.46499633789062 -110.55599975585938,82.46499633789062 C-110.55599975585938,82.46499633789062 110.55599975585938,82.46499633789062 110.55599975585938,82.46499633789062"></path></g></g><g transform="matrix(1,0,0,1,1204.0469970703125,1201.373046875)" opacity="1" style="display: block;"><g opacity="1" transform="matrix(1,0,0,1,0,0)"><path fill="rgb(132,132,250)" fill-opacity="1" d=" M112.40899658203125,0 C112.40899658203125,62.082000732421875 62.082000732421875,112.40899658203125 0,112.40899658203125 C-62.082000732421875,112.40899658203125 -112.40899658203125,62.082000732421875 -112.40899658203125,0 C-112.40899658203125,-62.082000732421875 -62.082000732421875,-112.40899658203125 0,-112.40899658203125 C62.082000732421875,-112.40899658203125 112.40899658203125,-62.082000732421875 112.40899658203125,0z"></path><path stroke-linecap="round" stroke-linejoin="round" fill-opacity="0" stroke="rgb(32,40,112)" stroke-opacity="1" stroke-width="2" d=" M112.40899658203125,0 C112.40899658203125,62.082000732421875 62.082000732421875,112.40899658203125 0,112.40899658203125 C-62.082000732421875,112.40899658203125 -112.40899658203125,62.082000732421875 -112.40899658203125,0 C-112.40899658203125,-62.082000732421875 -62.082000732421875,-112.40899658203125 0,-112.40899658203125 C62.082000732421875,-112.40899658203125 112.40899658203125,-62.082000732421875 112.40899658203125,0z"></path></g></g><g transform="matrix(1,0,0,1,1204.0469970703125,1201.373046875)" opacity="1" style="display: block;"><g opacity="1" transform="matrix(1,0,0,1,0,0)"><path fill="rgb(255,255,255)" fill-opacity="1" d=" M79.46499633789062,0 C79.46499633789062,0 43.887001037597656,38.683998107910156 0,38.683998107910156 C-43.887001037597656,38.683998107910156 -79.46499633789062,0 -79.46499633789062,0 C-79.46499633789062,0 -43.887001037597656,-38.683998107910156 0,-38.683998107910156 C43.887001037597656,-38.683998107910156 79.46499633789062,0 79.46499633789062,0z"></path><path stroke-linecap="round" stroke-linejoin="round" fill-opacity="0" stroke="rgb(32,40,112)" stroke-opacity="1" stroke-width="2" d=" M79.46499633789062,0 C79.46499633789062,0 43.887001037597656,38.683998107910156 0,38.683998107910156 C-43.887001037597656,38.683998107910156 -79.46499633789062,0 -79.46499633789062,0 C-79.46499633789062,0 -43.887001037597656,-38.683998107910156 0,-38.683998107910156 C43.887001037597656,-38.683998107910156 79.46499633789062,0 79.46499633789062,0z"></path></g></g><g mask="url(#__lottie_element_292_1)" style="display: block;"><g transform="matrix(1,0,0,1,0,0)" opacity="1"><g opacity="1" transform="matrix(1,0,0,1,1204.0469970703125,1201.373046875)"><path fill="rgb(32,40,112)" fill-opacity="1" d=" M38.683998107910156,0 C38.683998107910156,21.364999771118164 21.364999771118164,38.683998107910156 0,38.683998107910156 C-21.364999771118164,38.683998107910156 -38.683998107910156,21.364999771118164 -38.683998107910156,0 C-38.683998107910156,-21.364999771118164 -21.364999771118164,-38.683998107910156 0,-38.683998107910156 C21.364999771118164,-38.683998107910156 38.683998107910156,-21.364999771118164 38.683998107910156,0z"></path><path stroke-linecap="round" stroke-linejoin="round" fill-opacity="0" stroke="rgb(32,40,112)" stroke-opacity="1" stroke-width="2" d=" M38.683998107910156,0 C38.683998107910156,21.364999771118164 21.364999771118164,38.683998107910156 0,38.683998107910156 C-21.364999771118164,38.683998107910156 -38.683998107910156,21.364999771118164 -38.683998107910156,0 C-38.683998107910156,-21.364999771118164 -21.364999771118164,-38.683998107910156 0,-38.683998107910156 C21.364999771118164,-38.683998107910156 38.683998107910156,-21.364999771118164 38.683998107910156,0z"></path></g><g opacity="1" transform="matrix(1,0,0,1,1204.0469970703125,1201.373046875)"><path fill="rgb(255,255,255)" fill-opacity="1" d=" M18.273000717163086,0 C18.273000717163086,10.092000007629395 10.092000007629395,18.273000717163086 0,18.273000717163086 C-10.092000007629395,18.273000717163086 -18.273000717163086,10.092000007629395 -18.273000717163086,0 C-18.273000717163086,-10.092000007629395 -10.092000007629395,-18.273000717163086 0,-18.273000717163086 C10.092000007629395,-18.273000717163086 18.273000717163086,-10.092000007629395 18.273000717163086,0z"></path><path stroke-linecap="round" stroke-linejoin="round" fill-opacity="0" stroke="rgb(32,40,112)" stroke-opacity="1" stroke-width="2" d=" M18.273000717163086,0 C18.273000717163086,10.092000007629395 10.092000007629395,18.273000717163086 0,18.273000717163086 C-10.092000007629395,18.273000717163086 -18.273000717163086,10.092000007629395 -18.273000717163086,0 C-18.273000717163086,-10.092000007629395 -10.092000007629395,-18.273000717163086 0,-18.273000717163086 C10.092000007629395,-18.273000717163086 18.273000717163086,-10.092000007629395 18.273000717163086,0z"></path></g></g></g><g transform="matrix(1,0,0,1,609.0900268554688,554.72998046875)" opacity="1" style="display: block;"><g opacity="1" transform="matrix(1,0,0,1,0,0)"><path stroke-linecap="round" stroke-linejoin="round" fill-opacity="0" stroke="rgb(32,40,112)" stroke-opacity="1" stroke-width="2" d=" M110.24199676513672,66.33999633789062 C110.24199676513672,66.33999633789062 110.24199676513672,-66.33999633789062 110.24199676513672,-66.33999633789062 C110.24199676513672,-66.33999633789062 -110.24199676513672,-66.33999633789062 -110.24199676513672,-66.33999633789062"></path></g></g><g transform="matrix(1,0,0,1,396.3810119628906,488.3900146484375)" opacity="1" style="display: block;"><g opacity="1" transform="matrix(1,0,0,1,0,0)"><path fill="rgb(132,132,250)" fill-opacity="1" d=" M112.40899658203125,0 C112.40899658203125,62.082000732421875 62.082000732421875,112.40899658203125 0,112.40899658203125 C-62.082000732421875,112.40899658203125 -112.40899658203125,62.082000732421875 -112.40899658203125,0 C-112.40899658203125,-62.082000732421875 -62.082000732421875,-112.40899658203125 0,-112.40899658203125 C62.082000732421875,-112.40899658203125 112.40899658203125,-62.082000732421875 112.40899658203125,0z"></path><path stroke-linecap="round" stroke-linejoin="round" fill-opacity="0" stroke="rgb(32,40,112)" stroke-opacity="1" stroke-width="2" d=" M112.40899658203125,0 C112.40899658203125,62.082000732421875 62.082000732421875,112.40899658203125 0,112.40899658203125 C-62.082000732421875,112.40899658203125 -112.40899658203125,62.082000732421875 -112.40899658203125,0 C-112.40899658203125,-62.082000732421875 -62.082000732421875,-112.40899658203125 0,-112.40899658203125 C62.082000732421875,-112.40899658203125 112.40899658203125,-62.082000732421875 112.40899658203125,0z"></path></g></g><g transform="matrix(1.012006402015686,0,0,1.012006402015686,396.3810119628906,488.3900146484375)" opacity="1" style="display: block;"><g opacity="1" transform="matrix(1,0,0,1,0,0)"><path fill="rgb(255,255,255)" fill-opacity="1" d=" M63.33100128173828,-44.02899932861328 C63.33100128173828,-44.02899932861328 44.02899932861328,-63.33100128173828 44.02899932861328,-63.33100128173828 C44.02899932861328,-63.33100128173828 0,-19.302000045776367 0,-19.302000045776367 C0,-19.302000045776367 -44.02899932861328,-63.33100128173828 -44.02899932861328,-63.33100128173828 C-44.02899932861328,-63.33100128173828 -63.33100128173828,-44.02899932861328 -63.33100128173828,-44.02899932861328 C-63.33100128173828,-44.02899932861328 -19.302000045776367,0 -19.302000045776367,0 C-19.302000045776367,0 -63.33100128173828,44.02899932861328 -63.33100128173828,44.02899932861328 C-63.33100128173828,44.02899932861328 -44.02899932861328,63.33100128173828 -44.02899932861328,63.33100128173828 C-44.02899932861328,63.33100128173828 0,19.302000045776367 0,19.302000045776367 C0,19.302000045776367 44.02899932861328,63.33100128173828 44.02899932861328,63.33100128173828 C44.02899932861328,63.33100128173828 63.33100128173828,44.02899932861328 63.33100128173828,44.02899932861328 C63.33100128173828,44.02899932861328 19.302000045776367,0 19.302000045776367,0 C19.302000045776367,0 63.33100128173828,-44.02899932861328 63.33100128173828,-44.02899932861328z"></path><path stroke-linecap="round" stroke-linejoin="round" fill-opacity="0" stroke="rgb(32,40,112)" stroke-opacity="1" stroke-width="2" d=" M63.33100128173828,-44.02899932861328 C63.33100128173828,-44.02899932861328 44.02899932861328,-63.33100128173828 44.02899932861328,-63.33100128173828 C44.02899932861328,-63.33100128173828 0,-19.302000045776367 0,-19.302000045776367 C0,-19.302000045776367 -44.02899932861328,-63.33100128173828 -44.02899932861328,-63.33100128173828 C-44.02899932861328,-63.33100128173828 -63.33100128173828,-44.02899932861328 -63.33100128173828,-44.02899932861328 C-63.33100128173828,-44.02899932861328 -19.302000045776367,0 -19.302000045776367,0 C-19.302000045776367,0 -63.33100128173828,44.02899932861328 -63.33100128173828,44.02899932861328 C-63.33100128173828,44.02899932861328 -44.02899932861328,63.33100128173828 -44.02899932861328,63.33100128173828 C-44.02899932861328,63.33100128173828 0,19.302000045776367 0,19.302000045776367 C0,19.302000045776367 44.02899932861328,63.33100128173828 44.02899932861328,63.33100128173828 C44.02899932861328,63.33100128173828 63.33100128173828,44.02899932861328 63.33100128173828,44.02899932861328 C63.33100128173828,44.02899932861328 19.302000045776367,0 19.302000045776367,0 C19.302000045776367,0 63.33100128173828,-44.02899932861328 63.33100128173828,-44.02899932861328z"></path></g></g><g clip-path="url(#__lottie_element_148)" transform="matrix(1,0,0,1,0,0)" opacity="1" style="display: block;"><g transform="matrix(1,0,0,1,799.8090209960938,1193.1290283203125)" opacity="1" style="display: block;"><g opacity="1" transform="matrix(1,0,0,1,0,0)"><path fill="rgb(255,255,255)" fill-opacity="1" d=" M0,-147.13900756835938 C0,-147.13900756835938 0,147.13900756835938 0,147.13900756835938"></path><path stroke-linecap="round" stroke-linejoin="round" fill-opacity="0" stroke="rgb(32,40,112)" stroke-opacity="1" stroke-width="2" d=" M0,-147.13900756835938 C0,-147.13900756835938 0,147.13900756835938 0,147.13900756835938"></path></g></g><g transform="matrix(1,0,0,1,547.9829711914062,716.3779907226562)" opacity="1" style="display: block;"><g opacity="1" transform="matrix(1,0,0,1,0,0)"><path fill="rgb(255,255,255)" fill-opacity="1" d=" M147.13900756835938,0 C147.13900756835938,0 -147.13900756835938,0 -147.13900756835938,0"></path><path stroke-linecap="round" stroke-linejoin="round" fill-opacity="0" stroke="rgb(32,40,112)" stroke-opacity="1" stroke-width="2" d=" M147.13900756835938,0 C147.13900756835938,0 -147.13900756835938,0 -147.13900756835938,0"></path></g></g><g transform="matrix(1,0,0,1,798.4959716796875,440.489990234375)" opacity="1" style="display: block;"><g opacity="1" transform="matrix(1,0,0,1,0,0)"><path stroke-linecap="round" stroke-linejoin="round" fill-opacity="0" stroke="rgb(32,40,112)" stroke-opacity="1" stroke-width="2" d=" M33.12799835205078,-176.1929931640625 C33.12799835205078,-176.1929931640625 33.12799835205078,-35.5620002746582 33.12799835205078,-35.5620002746582 C33.12799835205078,-35.5620002746582 -33.12799835205078,-35.5620002746582 -33.12799835205078,-35.5620002746582 C-33.12799835205078,-35.5620002746582 -33.12799835205078,176.1929931640625 -33.12799835205078,176.1929931640625"></path></g></g><g transform="matrix(1,0,0,1,248.22799682617188,933.614013671875)" opacity="1" style="display: block;"><g opacity="1" transform="matrix(1,0,0,1,0,0)"><path stroke-linecap="round" stroke-linejoin="round" fill-opacity="0" stroke="rgb(32,40,112)" stroke-opacity="1" stroke-width="2" d=" M58.972999572753906,124.22699737548828 C58.972999572753906,124.22699737548828 -58.972999572753906,124.22699737548828 -58.972999572753906,124.22699737548828 C-58.972999572753906,124.22699737548828 -58.972999572753906,-124.22699737548828 -58.972999572753906,-124.22699737548828"></path></g></g><g transform="matrix(1,0,0,1,1261.5279541015625,913.9030151367188)" opacity="1" style="display: block;"><g opacity="1" transform="matrix(1,0,0,1,0,0)"><path stroke-linecap="round" stroke-linejoin="round" fill-opacity="0" stroke="rgb(32,40,112)" stroke-opacity="1" stroke-width="2" d=" M-149.2169952392578,-84.00499725341797 C-149.2169952392578,-84.00499725341797 149.2169952392578,-84.00499725341797 149.2169952392578,-84.00499725341797 C149.2169952392578,-84.00499725341797 149.2169952392578,84.00499725341797 149.2169952392578,84.00499725341797"></path></g></g><g transform="matrix(1,0,0,1,1155.1500244140625,829.8980102539062)" opacity="1" style="display: block;"><g opacity="1" transform="matrix(1,0,0,1,0,0)"><path fill="rgb(255,255,255)" fill-opacity="1" d=" M-42.8390007019043,0 C-42.8390007019043,0 42.8390007019043,0 42.8390007019043,0"></path><path stroke-linecap="round" stroke-linejoin="round" fill-opacity="0" stroke="rgb(255,255,255)" stroke-opacity="1" stroke-width="2" d=" M-42.8390007019043,0 C-42.8390007019043,0 42.8390007019043,0 42.8390007019043,0"></path></g></g><g transform="matrix(1,0,0,1,1188.510986328125,737.2160034179688)" opacity="1" style="display: block;"><g opacity="1" transform="matrix(1,0,0,1,0,0)"><path stroke-linecap="round" stroke-linejoin="round" fill-opacity="0" stroke="rgb(32,40,112)" stroke-opacity="1" stroke-width="2" d=" M-76.19999694824219,42.867000579833984 C-76.19999694824219,42.867000579833984 76.19999694824219,42.867000579833984 76.19999694824219,42.867000579833984 C76.19999694824219,42.867000579833984 76.19999694824219,-42.867000579833984 76.19999694824219,-42.867000579833984"></path></g></g><g transform="matrix(1,0,0,1,1145.06298828125,780.0819702148438)" opacity="1" style="display: block;"><g opacity="1" transform="matrix(1,0,0,1,0,0)"><path fill="rgb(255,255,255)" fill-opacity="1" d=" M-32.75199890136719,0 C-32.75199890136719,0 32.75199890136719,0 32.75199890136719,0"></path><path stroke-linecap="round" stroke-linejoin="round" fill-opacity="0" stroke="rgb(255,255,255)" stroke-opacity="1" stroke-width="2" d=" M-32.75199890136719,0 C-32.75199890136719,0 32.75199890136719,0 32.75199890136719,0"></path></g></g><g transform="matrix(1,0,0,1,799.572998046875,1132.5269775390625)" opacity="1" style="display: block;"><g opacity="1" transform="matrix(1,0,0,1,0,0)"><path fill="rgb(249,74,130)" fill-opacity="1" d=" M14.119999885559082,0 C14.119999885559082,7.797999858856201 7.797999858856201,14.119999885559082 0,14.119999885559082 C-7.797999858856201,14.119999885559082 -14.119999885559082,7.797999858856201 -14.119999885559082,0 C-14.119999885559082,-7.797999858856201 -7.797999858856201,-14.119999885559082 0,-14.119999885559082 C7.797999858856201,-14.119999885559082 14.119999885559082,-7.797999858856201 14.119999885559082,0z"></path><path stroke-linecap="round" stroke-linejoin="round" fill-opacity="0" stroke="rgb(32,40,112)" stroke-opacity="1" stroke-width="2" d=" M14.119999885559082,0 C14.119999885559082,7.797999858856201 7.797999858856201,14.119999885559082 0,14.119999885559082 C-7.797999858856201,14.119999885559082 -14.119999885559082,7.797999858856201 -14.119999885559082,0 C-14.119999885559082,-7.797999858856201 -7.797999858856201,-14.119999885559082 0,-14.119999885559082 C7.797999858856201,-14.119999885559082 14.119999885559082,-7.797999858856201 14.119999885559082,0z"></path></g></g><g style="display: none;"><g><path></path><path stroke-linecap="round" stroke-linejoin="round" fill-opacity="0"></path></g></g><g transform="matrix(1,0,0,1,604.7849731445312,717.6129760742188)" opacity="1" style="display: block;"><g opacity="1" transform="matrix(1,0,0,1,0,0)"><path fill="rgb(255,255,255)" fill-opacity="1" d=" M0,-14.119999885559082 C-7.797999858856201,-14.119999885559082 -14.119999885559082,-7.797999858856201 -14.119999885559082,0 C-14.119999885559082,7.797999858856201 -7.797999858856201,14.119999885559082 0,14.119999885559082 C7.797999858856201,14.119999885559082 14.119999885559082,7.797999858856201 14.119999885559082,0 C14.119999885559082,-7.797999858856201 7.797999858856201,-14.119999885559082 0,-14.119999885559082z"></path><path stroke-linecap="round" stroke-linejoin="round" fill-opacity="0" stroke="rgb(32,40,112)" stroke-opacity="1" stroke-width="2" d=" M0,-14.119999885559082 C-7.797999858856201,-14.119999885559082 -14.119999885559082,-7.797999858856201 -14.119999885559082,0 C-14.119999885559082,7.797999858856201 -7.797999858856201,14.119999885559082 0,14.119999885559082 C7.797999858856201,14.119999885559082 14.119999885559082,7.797999858856201 14.119999885559082,0 C14.119999885559082,-7.797999858856201 7.797999858856201,-14.119999885559082 0,-14.119999885559082z"></path></g></g><g style="display: none;"><g><path></path><path stroke-linecap="round" stroke-linejoin="round" fill-opacity="0"></path></g></g><g style="display: none;"><g><path></path><path stroke-linecap="round" stroke-linejoin="round" fill-opacity="0"></path></g></g><g style="display: none;"><g><path></path><path stroke-linecap="round" stroke-linejoin="round" fill-opacity="0"></path></g></g><g style="display: none;"><g><path></path><path stroke-linecap="round" stroke-linejoin="round" fill-opacity="0"></path></g></g><g style="display: none;"><g><path></path><path stroke-linecap="round" stroke-linejoin="round" fill-opacity="0"></path></g></g><g style="display: none;"><g><path></path><path stroke-linecap="round" stroke-linejoin="round" fill-opacity="0"></path></g></g><g style="display: none;"><g><path></path><path stroke-linecap="round" stroke-linejoin="round" fill-opacity="0"></path></g></g><g style="display: none;"><g><path></path><path stroke-linecap="round" stroke-linejoin="round" fill-opacity="0"></path></g></g><g style="display: none;"><g><path></path><path stroke-linecap="round" stroke-linejoin="round" fill-opacity="0"></path></g></g><g style="display: none;"><g><path></path><path stroke-linecap="round" stroke-linejoin="round" fill-opacity="0"></path></g></g><g style="display: none;"><g><path></path><path stroke-linecap="round" stroke-linejoin="round" fill-opacity="0"></path></g></g><g transform="matrix(1,0,0,1,831.5195922851562,316.37701416015625)" opacity="1" style="display: block;"><g opacity="1" transform="matrix(1,0,0,1,0,0)"><path fill="rgb(249,74,130)" fill-opacity="1" d=" M14.119999885559082,0 C14.119999885559082,-7.797999858856201 7.797999858856201,-14.119999885559082 0,-14.119999885559082 C-7.797999858856201,-14.119999885559082 -14.119999885559082,-7.797999858856201 -14.119999885559082,0 C-14.119999885559082,7.797999858856201 -7.797999858856201,14.119999885559082 0,14.119999885559082 C7.797999858856201,14.119999885559082 14.119999885559082,7.797999858856201 14.119999885559082,0z"></path><path stroke-linecap="round" stroke-linejoin="round" fill-opacity="0" stroke="rgb(32,40,112)" stroke-opacity="1" stroke-width="2" d=" M14.119999885559082,0 C14.119999885559082,-7.797999858856201 7.797999858856201,-14.119999885559082 0,-14.119999885559082 C-7.797999858856201,-14.119999885559082 -14.119999885559082,-7.797999858856201 -14.119999885559082,0 C-14.119999885559082,7.797999858856201 -7.797999858856201,14.119999885559082 0,14.119999885559082 C7.797999858856201,14.119999885559082 14.119999885559082,7.797999858856201 14.119999885559082,0z"></path></g></g><g transform="matrix(1,0,0,1,764.3406372070312,542.4893188476562)" opacity="1" style="display: block;"><g opacity="1" transform="matrix(1,0,0,1,0,0)"><path fill="rgb(249,74,130)" fill-opacity="1" d=" M14.119999885559082,0 C14.119999885559082,-7.797999858856201 7.797999858856201,-14.119999885559082 0,-14.119999885559082 C-7.797999858856201,-14.119999885559082 -14.119999885559082,-7.797999858856201 -14.119999885559082,0 C-14.119999885559082,7.797999858856201 -7.797999858856201,14.119999885559082 0,14.119999885559082 C7.797999858856201,14.119999885559082 14.119999885559082,7.797999858856201 14.119999885559082,0z"></path><path stroke-linecap="round" stroke-linejoin="round" fill-opacity="0" stroke="rgb(32,40,112)" stroke-opacity="1" stroke-width="2" d=" M14.119999885559082,0 C14.119999885559082,-7.797999858856201 7.797999858856201,-14.119999885559082 0,-14.119999885559082 C-7.797999858856201,-14.119999885559082 -14.119999885559082,-7.797999858856201 -14.119999885559082,0 C-14.119999885559082,7.797999858856201 -7.797999858856201,14.119999885559082 0,14.119999885559082 C7.797999858856201,14.119999885559082 14.119999885559082,7.797999858856201 14.119999885559082,0z"></path></g></g><g style="display: none;"><g><path></path><path stroke-linecap="round" stroke-linejoin="round" fill-opacity="0"></path></g></g><g style="display: none;"><g><path></path><path stroke-linecap="round" stroke-linejoin="round" fill-opacity="0"></path></g></g><g style="display: none;"><g><path></path><path stroke-linecap="round" stroke-linejoin="round" fill-opacity="0"></path></g></g><g transform="matrix(1,0,0,1,188.21055603027344,865.5186767578125)" opacity="1" style="display: block;"><g opacity="1" transform="matrix(1,0,0,1,0,0)"><path fill="rgb(132,132,250)" fill-opacity="1" d=" M14.119999885559082,0 C14.119999885559082,7.797999858856201 7.797999858856201,14.119999885559082 0,14.119999885559082 C-7.797999858856201,14.119999885559082 -14.119999885559082,7.797999858856201 -14.119999885559082,0 C-14.119999885559082,-7.797999858856201 -7.797999858856201,-14.119999885559082 0,-14.119999885559082 C7.797999858856201,-14.119999885559082 14.119999885559082,-7.797999858856201 14.119999885559082,0z"></path><path stroke-linecap="round" stroke-linejoin="round" fill-opacity="0" stroke="rgb(32,40,112)" stroke-opacity="1" stroke-width="2" d=" M14.119999885559082,0 C14.119999885559082,7.797999858856201 7.797999858856201,14.119999885559082 0,14.119999885559082 C-7.797999858856201,14.119999885559082 -14.119999885559082,7.797999858856201 -14.119999885559082,0 C-14.119999885559082,-7.797999858856201 -7.797999858856201,-14.119999885559082 0,-14.119999885559082 C7.797999858856201,-14.119999885559082 14.119999885559082,-7.797999858856201 14.119999885559082,0z"></path></g></g><g transform="matrix(1,0,0,1,250.62423706054688,1058.3834228515625)" opacity="1" style="display: block;"><g opacity="1" transform="matrix(1,0,0,1,0,0)"><path fill="rgb(132,132,250)" fill-opacity="1" d=" M14.119999885559082,0 C14.119999885559082,7.797999858856201 7.797999858856201,14.119999885559082 0,14.119999885559082 C-7.797999858856201,14.119999885559082 -14.119999885559082,7.797999858856201 -14.119999885559082,0 C-14.119999885559082,-7.797999858856201 -7.797999858856201,-14.119999885559082 0,-14.119999885559082 C7.797999858856201,-14.119999885559082 14.119999885559082,-7.797999858856201 14.119999885559082,0z"></path><path stroke-linecap="round" stroke-linejoin="round" fill-opacity="0" stroke="rgb(32,40,112)" stroke-opacity="1" stroke-width="2" d=" M14.119999885559082,0 C14.119999885559082,7.797999858856201 7.797999858856201,14.119999885559082 0,14.119999885559082 C-7.797999858856201,14.119999885559082 -14.119999885559082,7.797999858856201 -14.119999885559082,0 C-14.119999885559082,-7.797999858856201 -7.797999858856201,-14.119999885559082 0,-14.119999885559082 C7.797999858856201,-14.119999885559082 14.119999885559082,-7.797999858856201 14.119999885559082,0z"></path></g></g><g style="display: none;"><g><path></path><path stroke-linecap="round" stroke-linejoin="round" fill-opacity="0"></path></g></g><g style="display: none;"><g><path></path><path stroke-linecap="round" stroke-linejoin="round" fill-opacity="0"></path></g></g><g style="display: none;"><g><path></path><path stroke-linecap="round" stroke-linejoin="round" fill-opacity="0"></path></g></g><g transform="matrix(1,0,0,1,1410.9766845703125,941.3103637695312)" opacity="1" style="display: block;"><g opacity="1" transform="matrix(1,0,0,1,0,0)"><path fill="rgb(255,255,255)" fill-opacity="1" d=" M14.119999885559082,0 C14.119999885559082,7.797999858856201 7.797999858856201,14.119999885559082 0,14.119999885559082 C-7.797999858856201,14.119999885559082 -14.119999885559082,7.797999858856201 -14.119999885559082,0 C-14.119999885559082,-7.797999858856201 -7.797999858856201,-14.119999885559082 0,-14.119999885559082 C7.797999858856201,-14.119999885559082 14.119999885559082,-7.797999858856201 14.119999885559082,0z"></path><path stroke-linecap="round" stroke-linejoin="round" fill-opacity="0" stroke="rgb(32,40,112)" stroke-opacity="1" stroke-width="2" d=" M14.119999885559082,0 C14.119999885559082,7.797999858856201 7.797999858856201,14.119999885559082 0,14.119999885559082 C-7.797999858856201,14.119999885559082 -14.119999885559082,7.797999858856201 -14.119999885559082,0 C-14.119999885559082,-7.797999858856201 -7.797999858856201,-14.119999885559082 0,-14.119999885559082 C7.797999858856201,-14.119999885559082 14.119999885559082,-7.797999858856201 14.119999885559082,0z"></path></g></g><g transform="matrix(1,0,0,1,1197.1163330078125,829.9862670898438)" opacity="1" style="display: block;"><g opacity="1" transform="matrix(1,0,0,1,0,0)"><path fill="rgb(255,255,255)" fill-opacity="1" d=" M14.119999885559082,0 C14.119999885559082,7.797999858856201 7.797999858856201,14.119999885559082 0,14.119999885559082 C-7.797999858856201,14.119999885559082 -14.119999885559082,7.797999858856201 -14.119999885559082,0 C-14.119999885559082,-7.797999858856201 -7.797999858856201,-14.119999885559082 0,-14.119999885559082 C7.797999858856201,-14.119999885559082 14.119999885559082,-7.797999858856201 14.119999885559082,0z"></path><path stroke-linecap="round" stroke-linejoin="round" fill-opacity="0" stroke="rgb(32,40,112)" stroke-opacity="1" stroke-width="2" d=" M14.119999885559082,0 C14.119999885559082,7.797999858856201 7.797999858856201,14.119999885559082 0,14.119999885559082 C-7.797999858856201,14.119999885559082 -14.119999885559082,7.797999858856201 -14.119999885559082,0 C-14.119999885559082,-7.797999858856201 -7.797999858856201,-14.119999885559082 0,-14.119999885559082 C7.797999858856201,-14.119999885559082 14.119999885559082,-7.797999858856201 14.119999885559082,0z"></path></g></g><g style="display: none;"><g><path></path><path stroke-linecap="round" stroke-linejoin="round" fill-opacity="0"></path></g></g><g style="display: none;"><g><path></path><path stroke-linecap="round" stroke-linejoin="round" fill-opacity="0"></path></g></g><g style="display: none;"><g><path></path><path stroke-linecap="round" stroke-linejoin="round" fill-opacity="0"></path></g></g><g transform="matrix(1,0,0,1,1192.2314453125,779.6405029296875)" opacity="1" style="display: block;"><g opacity="1" transform="matrix(1,0,0,1,0,0)"><path fill="rgb(132,132,250)" fill-opacity="1" d=" M14.119999885559082,0 C14.119999885559082,7.797999858856201 7.797999858856201,14.119999885559082 0,14.119999885559082 C-7.797999858856201,14.119999885559082 -14.119999885559082,7.797999858856201 -14.119999885559082,0 C-14.119999885559082,-7.797999858856201 -7.797999858856201,-14.119999885559082 0,-14.119999885559082 C7.797999858856201,-14.119999885559082 14.119999885559082,-7.797999858856201 14.119999885559082,0z"></path><path stroke-linecap="round" stroke-linejoin="round" fill-opacity="0" stroke="rgb(32,40,112)" stroke-opacity="1" stroke-width="2" d=" M14.119999885559082,0 C14.119999885559082,7.797999858856201 7.797999858856201,14.119999885559082 0,14.119999885559082 C-7.797999858856201,14.119999885559082 -14.119999885559082,7.797999858856201 -14.119999885559082,0 C-14.119999885559082,-7.797999858856201 -7.797999858856201,-14.119999885559082 0,-14.119999885559082 C7.797999858856201,-14.119999885559082 14.119999885559082,-7.797999858856201 14.119999885559082,0z"></path></g></g><g style="display: none;"><g><path></path><path stroke-linecap="round" stroke-linejoin="round" fill-opacity="0"></path></g></g><g style="display: none;"><g><path></path><path stroke-linecap="round" stroke-linejoin="round" fill-opacity="0"></path></g></g><g style="display: none;"><g><path></path><path stroke-linecap="round" stroke-linejoin="round" fill-opacity="0"></path></g></g><g style="display: none;"><g><path></path><path stroke-linecap="round" stroke-linejoin="round" fill-opacity="0"></path></g></g><g style="display: none;"><g><path></path><path stroke-linecap="round" stroke-linejoin="round" fill-opacity="0"></path></g></g><g style="display: none;"><g><path></path><path stroke-linecap="round" stroke-linejoin="round" fill-opacity="0"></path></g></g></g><g transform="matrix(1,0,0,1,488.6369934082031,1057.8409423828125)" opacity="1" style="display: block;"><g opacity="1" transform="matrix(1,0,0,1,0,0)"><path fill="rgb(32,40,112)" fill-opacity="1" d=" M215.84300231933594,-32.893001556396484 C215.84300231933594,-32.893001556396484 253.52200317382812,-83.77100372314453 253.52200317382812,-83.77100372314453 C253.52200317382812,-83.77100372314453 201.24200439453125,-175.4810028076172 201.24200439453125,-175.4810028076172 C201.24200439453125,-175.4810028076172 138.25999450683594,-168.9759979248047 138.25999450683594,-168.9759979248047 C138.25999450683594,-168.9759979248047 79.43299865722656,-203.36599731445312 79.43299865722656,-203.36599731445312 C79.43299865722656,-203.36599731445312 54.20500183105469,-261.44500732421875 54.20500183105469,-261.44500732421875 C54.20500183105469,-261.44500732421875 -51.347999572753906,-262.0249938964844 -51.347999572753906,-262.0249938964844 C-51.347999572753906,-262.0249938964844 -77.20800018310547,-204.2310028076172 -77.20800018310547,-204.2310028076172 C-77.20800018310547,-204.2310028076172 -136.40499877929688,-170.47300720214844 -136.40499877929688,-170.47300720214844 C-136.40499877929688,-170.47300720214844 -199.31199645996094,-177.66299438476562 -199.31199645996094,-177.66299438476562 C-199.31199645996094,-177.66299438476562 -252.59500122070312,-86.54399871826172 -252.59500122070312,-86.54399871826172 C-252.59500122070312,-86.54399871826172 -215.4739990234375,-35.24399948120117 -215.4739990234375,-35.24399948120117 C-215.4739990234375,-35.24399948120117 -215.84300231933594,32.893001556396484 -215.84300231933594,32.893001556396484 C-215.84300231933594,32.893001556396484 -253.52200317382812,83.78199768066406 -253.52200317382812,83.78199768066406 C-253.52200317382812,83.78199768066406 -201.2519989013672,175.4810028076172 -201.2519989013672,175.4810028076172 C-201.2519989013672,175.4810028076172 -138.25999450683594,168.9759979248047 -138.25999450683594,168.9759979248047 C-138.25999450683594,168.9759979248047 -79.44300079345703,203.3769989013672 -79.44300079345703,203.3769989013672 C-79.44300079345703,203.3769989013672 -54.21500015258789,261.44500732421875 -54.21500015258789,261.44500732421875 C-54.21500015258789,261.44500732421875 51.347999572753906,262.0249938964844 51.347999572753906,262.0249938964844 C51.347999572753906,262.0249938964844 77.20800018310547,204.2310028076172 77.20800018310547,204.2310028076172 C77.20800018310547,204.2310028076172 136.40499877929688,170.48399353027344 136.40499877929688,170.48399353027344 C136.40499877929688,170.48399353027344 199.31199645996094,177.6739959716797 199.31199645996094,177.6739959716797 C199.31199645996094,177.6739959716797 252.593994140625,86.54399871826172 252.593994140625,86.54399871826172 C252.593994140625,86.54399871826172 215.4739990234375,35.25400161743164 215.4739990234375,35.25400161743164 C215.4739990234375,35.25400161743164 215.84300231933594,-32.893001556396484 215.84300231933594,-32.893001556396484z M45.89699935913086,80.51399993896484 C1.4279999732971191,105.85800170898438 -55.16400146484375,90.36000061035156 -80.50800323486328,45.902000427246094 C-105.86299896240234,1.4329999685287476 -90.36599731445312,-55.159000396728516 -45.89699935913086,-80.51399993896484 C-1.4390000104904175,-105.85800170898438 55.16400146484375,-90.36100006103516 80.50800323486328,-45.891998291015625 C105.86299896240234,-1.434000015258789 90.36599731445312,55.16999816894531 45.89699935913086,80.51399993896484z"></path><path stroke-linecap="round" stroke-linejoin="round" fill-opacity="0" stroke="rgb(32,40,112)" stroke-opacity="1" stroke-width="2" d=" M215.84300231933594,-32.893001556396484 C215.84300231933594,-32.893001556396484 253.52200317382812,-83.77100372314453 253.52200317382812,-83.77100372314453 C253.52200317382812,-83.77100372314453 201.24200439453125,-175.4810028076172 201.24200439453125,-175.4810028076172 C201.24200439453125,-175.4810028076172 138.25999450683594,-168.9759979248047 138.25999450683594,-168.9759979248047 C138.25999450683594,-168.9759979248047 79.43299865722656,-203.36599731445312 79.43299865722656,-203.36599731445312 C79.43299865722656,-203.36599731445312 54.20500183105469,-261.44500732421875 54.20500183105469,-261.44500732421875 C54.20500183105469,-261.44500732421875 -51.347999572753906,-262.0249938964844 -51.347999572753906,-262.0249938964844 C-51.347999572753906,-262.0249938964844 -77.20800018310547,-204.2310028076172 -77.20800018310547,-204.2310028076172 C-77.20800018310547,-204.2310028076172 -136.40499877929688,-170.47300720214844 -136.40499877929688,-170.47300720214844 C-136.40499877929688,-170.47300720214844 -199.31199645996094,-177.66299438476562 -199.31199645996094,-177.66299438476562 C-199.31199645996094,-177.66299438476562 -252.59500122070312,-86.54399871826172 -252.59500122070312,-86.54399871826172 C-252.59500122070312,-86.54399871826172 -215.4739990234375,-35.24399948120117 -215.4739990234375,-35.24399948120117 C-215.4739990234375,-35.24399948120117 -215.84300231933594,32.893001556396484 -215.84300231933594,32.893001556396484 C-215.84300231933594,32.893001556396484 -253.52200317382812,83.78199768066406 -253.52200317382812,83.78199768066406 C-253.52200317382812,83.78199768066406 -201.2519989013672,175.4810028076172 -201.2519989013672,175.4810028076172 C-201.2519989013672,175.4810028076172 -138.25999450683594,168.9759979248047 -138.25999450683594,168.9759979248047 C-138.25999450683594,168.9759979248047 -79.44300079345703,203.3769989013672 -79.44300079345703,203.3769989013672 C-79.44300079345703,203.3769989013672 -54.21500015258789,261.44500732421875 -54.21500015258789,261.44500732421875 C-54.21500015258789,261.44500732421875 51.347999572753906,262.0249938964844 51.347999572753906,262.0249938964844 C51.347999572753906,262.0249938964844 77.20800018310547,204.2310028076172 77.20800018310547,204.2310028076172 C77.20800018310547,204.2310028076172 136.40499877929688,170.48399353027344 136.40499877929688,170.48399353027344 C136.40499877929688,170.48399353027344 199.31199645996094,177.6739959716797 199.31199645996094,177.6739959716797 C199.31199645996094,177.6739959716797 252.593994140625,86.54399871826172 252.593994140625,86.54399871826172 C252.593994140625,86.54399871826172 215.4739990234375,35.25400161743164 215.4739990234375,35.25400161743164 C215.4739990234375,35.25400161743164 215.84300231933594,-32.893001556396484 215.84300231933594,-32.893001556396484z M45.89699935913086,80.51399993896484 C1.4279999732971191,105.85800170898438 -55.16400146484375,90.36000061035156 -80.50800323486328,45.902000427246094 C-105.86299896240234,1.4329999685287476 -90.36599731445312,-55.159000396728516 -45.89699935913086,-80.51399993896484 C-1.4390000104904175,-105.85800170898438 55.16400146484375,-90.36100006103516 80.50800323486328,-45.891998291015625 C105.86299896240234,-1.434000015258789 90.36599731445312,55.16999816894531 45.89699935913086,80.51399993896484z"></path></g></g><g transform="matrix(1,0,0,1,0,0)" opacity="1" style="display: block;"><g opacity="1" transform="matrix(1,0,0,1,0,0)"><g opacity="1" transform="matrix(1,0,0,1,809.9990234375,813.2860107421875)"><path fill="rgb(132,132,250)" fill-opacity="1" d=" M-302.31201171875,206.3990020751953 C-302.31201171875,206.3990020751953 302.31201171875,206.3990020751953 302.31201171875,206.3990020751953 C302.31201171875,206.3990020751953 302.31201171875,-192.21600341796875 302.31201171875,-192.21600341796875 C302.31201171875,-200.0489959716797 295.9620056152344,-206.3990020751953 288.1289978027344,-206.3990020751953 C288.1289978027344,-206.3990020751953 -288.1289978027344,-206.3990020751953 -288.1289978027344,-206.3990020751953 C-295.9620056152344,-206.3990020751953 -302.31201171875,-200.0489959716797 -302.31201171875,-192.21600341796875 C-302.31201171875,-192.21600341796875 -302.31201171875,206.3990020751953 -302.31201171875,206.3990020751953z"></path><path stroke-linecap="round" stroke-linejoin="round" fill-opacity="0" stroke="rgb(32,40,112)" stroke-opacity="1" stroke-width="2" d=" M-302.31201171875,206.3990020751953 C-302.31201171875,206.3990020751953 302.31201171875,206.3990020751953 302.31201171875,206.3990020751953 C302.31201171875,206.3990020751953 302.31201171875,-192.21600341796875 302.31201171875,-192.21600341796875 C302.31201171875,-200.0489959716797 295.9620056152344,-206.3990020751953 288.1289978027344,-206.3990020751953 C288.1289978027344,-206.3990020751953 -288.1289978027344,-206.3990020751953 -288.1289978027344,-206.3990020751953 C-295.9620056152344,-206.3990020751953 -302.31201171875,-200.0489959716797 -302.31201171875,-192.21600341796875 C-302.31201171875,-192.21600341796875 -302.31201171875,206.3990020751953 -302.31201171875,206.3990020751953z"></path></g><g opacity="1" transform="matrix(1,0,0,1,809.9990234375,815.7230224609375)"><path fill="rgb(255,255,255)" fill-opacity="1" d=" M-278.83099365234375,178.15899658203125 C-278.83099365234375,178.15899658203125 278.83099365234375,178.15899658203125 278.83099365234375,178.15899658203125 C278.83099365234375,178.15899658203125 278.83099365234375,-178.15899658203125 278.83099365234375,-178.15899658203125 C278.83099365234375,-178.15899658203125 -278.83099365234375,-178.15899658203125 -278.83099365234375,-178.15899658203125 C-278.83099365234375,-178.15899658203125 -278.83099365234375,178.15899658203125 -278.83099365234375,178.15899658203125z"></path><path stroke-linecap="round" stroke-linejoin="round" fill-opacity="0" stroke="rgb(32,40,112)" stroke-opacity="1" stroke-width="2" d=" M-278.83099365234375,178.15899658203125 C-278.83099365234375,178.15899658203125 278.83099365234375,178.15899658203125 278.83099365234375,178.15899658203125 C278.83099365234375,178.15899658203125 278.83099365234375,-178.15899658203125 278.83099365234375,-178.15899658203125 C278.83099365234375,-178.15899658203125 -278.83099365234375,-178.15899658203125 -278.83099365234375,-178.15899658203125 C-278.83099365234375,-178.15899658203125 -278.83099365234375,178.15899658203125 -278.83099365234375,178.15899658203125z"></path></g></g></g><g transform="matrix(1,0,0,1,809.9990234375,809.385986328125)" opacity="1" style="display: block;"><g opacity="1" transform="matrix(1,0,0,1,0,0)"><path fill="rgb(249,74,130)" fill-opacity="1" d=" M-125.87999725341797,93.00800323486328 C-125.87999725341797,93.00800323486328 0,-93.00800323486328 0,-93.00800323486328 C0,-93.00800323486328 125.87999725341797,93.00800323486328 125.87999725341797,93.00800323486328 C125.87999725341797,93.00800323486328 -125.87999725341797,93.00800323486328 -125.87999725341797,93.00800323486328z"></path><path stroke-linecap="round" stroke-linejoin="round" fill-opacity="0" stroke="rgb(32,40,112)" stroke-opacity="1" stroke-width="2" d=" M-125.87999725341797,93.00800323486328 C-125.87999725341797,93.00800323486328 0,-93.00800323486328 0,-93.00800323486328 C0,-93.00800323486328 125.87999725341797,93.00800323486328 125.87999725341797,93.00800323486328 C125.87999725341797,93.00800323486328 -125.87999725341797,93.00800323486328 -125.87999725341797,93.00800323486328z"></path></g></g><g transform="matrix(1,0,0,1,809.9990234375,809.7689819335938)" opacity="1" style="display: block;"><g opacity="1" transform="matrix(1,0,0,1,0,0)"><path fill="rgb(255,255,255)" fill-opacity="1" d=" M5.0370001792907715,32.29199981689453 C5.0370001792907715,32.29199981689453 -5.0370001792907715,32.29199981689453 -5.0370001792907715,32.29199981689453 C-5.0370001792907715,32.29199981689453 -10.190999984741211,-32.29199981689453 -10.190999984741211,-32.29199981689453 C-10.190999984741211,-32.29199981689453 10.190999984741211,-32.29199981689453 10.190999984741211,-32.29199981689453 C10.190999984741211,-32.29199981689453 5.0370001792907715,32.29199981689453 5.0370001792907715,32.29199981689453z"></path></g></g><g transform="matrix(1,0,0,1,809.9990234375,864.9959716796875)" opacity="1" style="display: block;"><g opacity="1" transform="matrix(1,0,0,1,0,0)"><path fill="rgb(255,255,255)" fill-opacity="1" d=" M11.425999641418457,0 C11.425999641418457,6.309999942779541 6.309999942779541,11.425999641418457 0,11.425999641418457 C-6.309999942779541,11.425999641418457 -11.425999641418457,6.309999942779541 -11.425999641418457,0 C-11.425999641418457,-6.309999942779541 -6.309999942779541,-11.425999641418457 0,-11.425999641418457 C6.309999942779541,-11.425999641418457 11.425999641418457,-6.309999942779541 11.425999641418457,0z"></path></g></g><g transform="matrix(1,0,0,1,649.9349975585938,751.8759765625)" opacity="1" style="display: block;"><g opacity="1" transform="matrix(1,0,0,1,0,0)"><path stroke-linecap="round" stroke-linejoin="round" fill-opacity="0" stroke="rgb(32,40,112)" stroke-opacity="1" stroke-width="2" d="M0 0"></path></g></g><g transform="matrix(1,0,0,1,725.5430297851562,708.4340209960938)" opacity="1" style="display: block;"><g opacity="1" transform="matrix(1,0,0,1,0,0)"><path stroke-linecap="round" stroke-linejoin="round" fill-opacity="0" stroke="rgb(32,40,112)" stroke-opacity="1" stroke-width="2" d="M0 0"></path></g></g><g transform="matrix(1,0,0,1,648.1890258789062,836.64697265625)" opacity="1" style="display: block;"><g opacity="1" transform="matrix(1,0,0,1,0,0)"><path stroke-linecap="round" stroke-linejoin="round" fill-opacity="0" stroke="rgb(32,40,112)" stroke-opacity="1" stroke-width="2" d="M0 0"></path></g></g><g transform="matrix(1,0,0,1,972.3610229492188,751.8759765625)" opacity="1" style="display: block;"><g opacity="1" transform="matrix(1,0,0,1,0,0)"><path stroke-linecap="round" stroke-linejoin="round" fill-opacity="0" stroke="rgb(32,40,112)" stroke-opacity="1" stroke-width="2" d="M0 0"></path></g></g><g transform="matrix(1,0,0,1,896.7529907226562,708.4340209960938)" opacity="1" style="display: block;"><g opacity="1" transform="matrix(1,0,0,1,0,0)"><path stroke-linecap="round" stroke-linejoin="round" fill-opacity="0" stroke="rgb(32,40,112)" stroke-opacity="1" stroke-width="2" d="M0 0"></path></g></g><g transform="matrix(1,0,0,1,974.1069946289062,836.64697265625)" opacity="1" style="display: block;"><g opacity="1" transform="matrix(1,0,0,1,0,0)"><path stroke-linecap="round" stroke-linejoin="round" fill-opacity="0" stroke="rgb(32,40,112)" stroke-opacity="1" stroke-width="2" d="M0 0"></path></g></g><g style="display: none;"><g><path stroke-linecap="round" stroke-linejoin="round" fill-opacity="0"></path></g></g><g style="display: none;"><g><path stroke-linecap="round" stroke-linejoin="round" fill-opacity="0"></path></g></g><g style="display: none;"><g><path stroke-linecap="round" stroke-linejoin="round" fill-opacity="0"></path></g></g><g style="display: none;"><g><path stroke-linecap="round" stroke-linejoin="round" fill-opacity="0"></path></g></g><g style="display: none;"><g><path stroke-linecap="round" stroke-linejoin="round" fill-opacity="0"></path></g></g><g style="display: none;"><g><path stroke-linecap="round" stroke-linejoin="round" fill-opacity="0"></path></g></g><g style="display: none;"><g><path stroke-linecap="round" stroke-linejoin="round" fill-opacity="0"></path></g></g><g style="display: none;"><g><path stroke-linecap="round" stroke-linejoin="round" fill-opacity="0"></path></g></g><g style="display: none;"><g><path stroke-linecap="round" stroke-linejoin="round" fill-opacity="0"></path></g></g><g style="display: none;"><g><path stroke-linecap="round" stroke-linejoin="round" fill-opacity="0"></path></g></g><g style="display: none;"><g><path stroke-linecap="round" stroke-linejoin="round" fill-opacity="0"></path></g></g><g style="display: none;"><g><path stroke-linecap="round" stroke-linejoin="round" fill-opacity="0"></path></g></g><g style="display: none;"><g><path stroke-linecap="round" stroke-linejoin="round" fill-opacity="0"></path></g></g><g style="display: none;"><g><path stroke-linecap="round" stroke-linejoin="round" fill-opacity="0"></path></g></g><g style="display: none;"><g><path stroke-linecap="round" stroke-linejoin="round" fill-opacity="0"></path></g></g><g style="display: none;"><g><path stroke-linecap="round" stroke-linejoin="round" fill-opacity="0"></path></g></g><g style="display: none;"><g><path stroke-linecap="round" stroke-linejoin="round" fill-opacity="0"></path></g></g><g style="display: none;"><g><path stroke-linecap="round" stroke-linejoin="round" fill-opacity="0"></path></g></g><g style="display: none;"><g><path stroke-linecap="round" stroke-linejoin="round" fill-opacity="0"></path></g></g><g style="display: none;"><g><path stroke-linecap="round" stroke-linejoin="round" fill-opacity="0"></path></g></g><g style="display: none;"><g><path stroke-linecap="round" stroke-linejoin="round" fill-opacity="0"></path></g></g><g style="display: none;"><g><path stroke-linecap="round" stroke-linejoin="round" fill-opacity="0"></path></g></g><g style="display: none;"><g><path stroke-linecap="round" stroke-linejoin="round" fill-opacity="0"></path></g></g><g style="display: none;"><g><path stroke-linecap="round" stroke-linejoin="round" fill-opacity="0"></path></g></g><g style="display: none;"><g><path stroke-linecap="round" stroke-linejoin="round" fill-opacity="0"></path></g></g><g style="display: none;"><g><path stroke-linecap="round" stroke-linejoin="round" fill-opacity="0"></path></g></g><g style="display: none;"><g><path stroke-linecap="round" stroke-linejoin="round" fill-opacity="0"></path></g></g><g style="display: none;"><g><path stroke-linecap="round" stroke-linejoin="round" fill-opacity="0"></path></g></g><g style="display: none;"><g><path stroke-linecap="round" stroke-linejoin="round" fill-opacity="0"></path></g></g><g style="display: none;"><g><path stroke-linecap="round" stroke-linejoin="round" fill-opacity="0"></path></g></g><g style="display: none;"><g><path stroke-linecap="round" stroke-linejoin="round" fill-opacity="0"></path></g></g><g style="display: none;"><g><path stroke-linecap="round" stroke-linejoin="round" fill-opacity="0"></path></g></g><g style="display: none;"><g><path stroke-linecap="round" stroke-linejoin="round" fill-opacity="0"></path></g></g><g style="display: none;"><g><path stroke-linecap="round" stroke-linejoin="round" fill-opacity="0"></path></g></g><g style="display: none;"><g><path stroke-linecap="round" stroke-linejoin="round" fill-opacity="0"></path></g></g><g style="display: none;"><g><path stroke-linecap="round" stroke-linejoin="round" fill-opacity="0"></path></g></g><g transform="matrix(1,0,0,1,-0.0009765625,0)" opacity="1" style="display: block;"><g opacity="1" transform="matrix(1,0,0,1,809.9990234375,1038.095947265625)"><path fill="rgb(132,132,250)" fill-opacity="1" d=" M-324.677001953125,23.163000106811523 C-324.677001953125,23.163000106811523 324.677001953125,23.163000106811523 324.677001953125,23.163000106811523 C343.48699951171875,23.163000106811523 358.7349853515625,7.914999961853027 358.7349853515625,-10.895000457763672 C358.7349853515625,-10.895000457763672 358.7349853515625,-23.163000106811523 358.7349853515625,-23.163000106811523 C358.7349853515625,-23.163000106811523 -358.7349853515625,-23.163000106811523 -358.7349853515625,-23.163000106811523 C-358.7349853515625,-23.163000106811523 -358.7349853515625,-10.895000457763672 -358.7349853515625,-10.895000457763672 C-358.7349853515625,7.914999961853027 -343.48699951171875,23.163000106811523 -324.677001953125,23.163000106811523z"></path><path stroke-linecap="round" stroke-linejoin="round" fill-opacity="0" stroke="rgb(32,40,112)" stroke-opacity="1" stroke-width="2" d=" M-324.677001953125,23.163000106811523 C-324.677001953125,23.163000106811523 324.677001953125,23.163000106811523 324.677001953125,23.163000106811523 C343.48699951171875,23.163000106811523 358.7349853515625,7.914999961853027 358.7349853515625,-10.895000457763672 C358.7349853515625,-10.895000457763672 358.7349853515625,-23.163000106811523 358.7349853515625,-23.163000106811523 C358.7349853515625,-23.163000106811523 -358.7349853515625,-23.163000106811523 -358.7349853515625,-23.163000106811523 C-358.7349853515625,-23.163000106811523 -358.7349853515625,-10.895000457763672 -358.7349853515625,-10.895000457763672 C-358.7349853515625,7.914999961853027 -343.48699951171875,23.163000106811523 -324.677001953125,23.163000106811523z"></path></g><g opacity="1" transform="matrix(1,0,0,1,809.9990234375,1023.0499877929688)"><path fill="rgb(32,40,112)" fill-opacity="1" d=" M49.165000915527344,8.116999626159668 C49.165000915527344,8.116999626159668 -49.165000915527344,8.116999626159668 -49.165000915527344,8.116999626159668 C-58.13100051879883,8.116999626159668 -65.39900207519531,0.8489999771118164 -65.39900207519531,-8.116999626159668 C-65.39900207519531,-8.116999626159668 -65.39900207519531,-8.116999626159668 -65.39900207519531,-8.116999626159668 C-65.39900207519531,-8.116999626159668 65.39900207519531,-8.116999626159668 65.39900207519531,-8.116999626159668 C65.39900207519531,-8.116999626159668 65.39900207519531,-8.116999626159668 65.39900207519531,-8.116999626159668 C65.39900207519531,0.8489999771118164 58.13100051879883,8.116999626159668 49.165000915527344,8.116999626159668z"></path><path stroke-linecap="round" stroke-linejoin="round" fill-opacity="0" stroke="rgb(32,40,112)" stroke-opacity="1" stroke-width="2" d=" M49.165000915527344,8.116999626159668 C49.165000915527344,8.116999626159668 -49.165000915527344,8.116999626159668 -49.165000915527344,8.116999626159668 C-58.13100051879883,8.116999626159668 -65.39900207519531,0.8489999771118164 -65.39900207519531,-8.116999626159668 C-65.39900207519531,-8.116999626159668 -65.39900207519531,-8.116999626159668 -65.39900207519531,-8.116999626159668 C-65.39900207519531,-8.116999626159668 65.39900207519531,-8.116999626159668 65.39900207519531,-8.116999626159668 C65.39900207519531,-8.116999626159668 65.39900207519531,-8.116999626159668 65.39900207519531,-8.116999626159668 C65.39900207519531,0.8489999771118164 58.13100051879883,8.116999626159668 49.165000915527344,8.116999626159668z"></path></g></g></g></svg>