<svg xmlns="http://www.w3.org/2000/svg" xmlns:xlink="http://www.w3.org/1999/xlink" viewBox="0 0 1600 1600" width="1600" height="1600" preserveAspectRatio="xMidYMid meet" style="width: 100%; height: 100%; transform: translate3d(0px, 0px, 0px); content-visibility: visible;"><defs><clipPath id="__lottie_element_2"><rect width="1600" height="1600" x="0" y="0"></rect></clipPath><g id="__lottie_element_91"><g style="display: none;"><g><path></path><path stroke-linecap="round" stroke-linejoin="round" fill-opacity="0"></path></g></g></g><mask id="__lottie_element_91_1" mask-type="alpha"><use xlink:href="#__lottie_element_91"></use></mask><g id="__lottie_element_97"><g style="display: none;"><g><path></path><path stroke-linecap="round" stroke-linejoin="round" fill-opacity="0"></path></g></g></g><mask id="__lottie_element_97_1" mask-type="alpha"><use xlink:href="#__lottie_element_97"></use></mask><g id="__lottie_element_103"><g style="display: none;"><g><path></path><path stroke-linecap="round" stroke-linejoin="round" fill-opacity="0"></path></g></g></g><mask id="__lottie_element_103_1" mask-type="alpha"><use xlink:href="#__lottie_element_103"></use></mask><g id="__lottie_element_109"><g style="display: none;"><g><path></path><path stroke-linecap="round" stroke-linejoin="round" fill-opacity="0"></path></g></g></g><mask id="__lottie_element_109_1" mask-type="alpha"><use xlink:href="#__lottie_element_109"></use></mask><g id="__lottie_element_115"><g style="display: none;"><g><path></path><path stroke-linecap="round" stroke-linejoin="round" fill-opacity="0"></path></g></g></g><mask id="__lottie_element_115_1" mask-type="alpha"><use xlink:href="#__lottie_element_115"></use></mask><g id="__lottie_element_121"><g transform="matrix(0.949999988079071,0,0,0.949999988079071,840.6749877929688,451.04296875)" opacity="1" style="display: block;"><g opacity="1" transform="matrix(1,0,0,1,0,0)"><path fill="rgb(132,132,250)" fill-opacity="1" d=" M-30.19099998474121,85.79199981689453 C-30.19099998474121,85.79199981689453 -91.55000305175781,16.839000701904297 -91.55000305175781,16.839000701904297 C-91.55000305175781,16.839000701904297 31.489999771118164,-101.01899719238281 91.25499725341797,-84.13700103759766 C91.25499725341797,-84.13700103759766 91.18000030517578,-84.22200012207031 91.18000030517578,-84.22200012207031 C91.18000030517578,-84.22200012207031 91.25499725341797,-84.13700103759766 91.25499725341797,-84.13700103759766 C91.25499725341797,-84.13700103759766 91.18000030517578,-84.22200012207031 91.18000030517578,-84.22200012207031 C101.00599670410156,-22.899999618530273 -30.34600067138672,85.61799621582031 -30.34600067138672,85.61799621582031 C-30.34600067138672,85.61799621582031 -91.70500183105469,16.665000915527344 -91.70500183105469,16.665000915527344"></path><path stroke-linecap="round" stroke-linejoin="round" fill-opacity="0" stroke="rgb(32,40,112)" stroke-opacity="1" stroke-width="2" d=" M-30.19099998474121,85.79199981689453 C-30.19099998474121,85.79199981689453 -91.55000305175781,16.839000701904297 -91.55000305175781,16.839000701904297 C-91.55000305175781,16.839000701904297 31.489999771118164,-101.01899719238281 91.25499725341797,-84.13700103759766 C91.25499725341797,-84.13700103759766 91.18000030517578,-84.22200012207031 91.18000030517578,-84.22200012207031 C91.18000030517578,-84.22200012207031 91.25499725341797,-84.13700103759766 91.25499725341797,-84.13700103759766 C91.25499725341797,-84.13700103759766 91.18000030517578,-84.22200012207031 91.18000030517578,-84.22200012207031 C101.00599670410156,-22.899999618530273 -30.34600067138672,85.61799621582031 -30.34600067138672,85.61799621582031 C-30.34600067138672,85.61799621582031 -91.70500183105469,16.665000915527344 -91.70500183105469,16.665000915527344"></path></g></g></g><mask id="__lottie_element_121_1" mask-type="alpha"><use xlink:href="#__lottie_element_121"></use></mask></defs><g clip-path="url(#__lottie_element_2)"><g transform="matrix(1,0,0,1,730.9359741210938,797.3079833984375)" opacity="1" style="display: block;"><g opacity="1" transform="matrix(1,0,0,1,0,0)"><path fill="rgb(32,40,112)" fill-opacity="1" d=" M-434.7019958496094,426.4110107421875 C-434.7019958496094,426.4110107421875 -509.9540100097656,360.55499267578125 -509.9540100097656,360.55499267578125 C-509.9540100097656,360.55499267578125 -121.54100036621094,-83.27899932861328 -121.54100036621094,-83.27899932861328 C-121.54100036621094,-83.27899932861328 23.406999588012695,43.56999969482422 23.406999588012695,43.56999969482422 C23.406999588012695,43.56999969482422 434.7019958496094,-426.4110107421875 434.7019958496094,-426.4110107421875 C434.7019958496094,-426.4110107421875 509.9540100097656,-360.55499267578125 509.9540100097656,-360.55499267578125 C509.9540100097656,-360.55499267578125 32.803001403808594,184.67799377441406 32.803001403808594,184.67799377441406 C32.803001403808594,184.67799377441406 -112.1449966430664,57.83000183105469 -112.1449966430664,57.83000183105469 C-112.1449966430664,57.83000183105469 -434.7019958496094,426.4110107421875 -434.7019958496094,426.4110107421875z"></path><path stroke-linecap="round" stroke-linejoin="round" fill-opacity="0" stroke="rgb(32,40,112)" stroke-opacity="1" stroke-width="2" d=" M-434.7019958496094,426.4110107421875 C-434.7019958496094,426.4110107421875 -509.9540100097656,360.55499267578125 -509.9540100097656,360.55499267578125 C-509.9540100097656,360.55499267578125 -121.54100036621094,-83.27899932861328 -121.54100036621094,-83.27899932861328 C-121.54100036621094,-83.27899932861328 23.406999588012695,43.56999969482422 23.406999588012695,43.56999969482422 C23.406999588012695,43.56999969482422 434.7019958496094,-426.4110107421875 434.7019958496094,-426.4110107421875 C434.7019958496094,-426.4110107421875 509.9540100097656,-360.55499267578125 509.9540100097656,-360.55499267578125 C509.9540100097656,-360.55499267578125 32.803001403808594,184.67799377441406 32.803001403808594,184.67799377441406 C32.803001403808594,184.67799377441406 -112.1449966430664,57.83000183105469 -112.1449966430664,57.83000183105469 C-112.1449966430664,57.83000183105469 -434.7019958496094,426.4110107421875 -434.7019958496094,426.4110107421875z"></path></g></g><g transform="matrix(1,0,0,1,1214.5,382.6510009765625)" opacity="1" style="display: block;"><g opacity="1" transform="matrix(1,0,0,1,0,0)"><path fill="rgb(32,40,112)" fill-opacity="1" d=" M83.9010009765625,-86.18699645996094 C83.9010009765625,-86.18699645996094 -83.9010009765625,-41.73099899291992 -83.9010009765625,-41.73099899291992 C-83.9010009765625,-41.73099899291992 63.387001037597656,86.18699645996094 63.387001037597656,86.18699645996094 C63.387001037597656,86.18699645996094 83.9010009765625,-86.18699645996094 83.9010009765625,-86.18699645996094z"></path><path stroke-linecap="round" stroke-linejoin="round" fill-opacity="0" stroke="rgb(32,40,112)" stroke-opacity="1" stroke-width="2" d=" M83.9010009765625,-86.18699645996094 C83.9010009765625,-86.18699645996094 -83.9010009765625,-41.73099899291992 -83.9010009765625,-41.73099899291992 C-83.9010009765625,-41.73099899291992 63.387001037597656,86.18699645996094 63.387001037597656,86.18699645996094 C63.387001037597656,86.18699645996094 83.9010009765625,-86.18699645996094 83.9010009765625,-86.18699645996094z"></path></g></g><g transform="matrix(1,0,0,0.9900599718093872,1212.3399658203125,965.403564453125)" opacity="1" style="display: block;"><g opacity="1" transform="matrix(1,0,0,1,0,0)"><path fill="rgb(132,132,250)" fill-opacity="1" d=" M-74.37699890136719,403.47198486328125 C-74.37699890136719,403.47198486328125 74.37699890136719,403.47198486328125 74.37699890136719,403.47198486328125 C74.37699890136719,403.47198486328125 74.37699890136719,-403.47198486328125 74.37699890136719,-403.47198486328125 C74.37699890136719,-403.47198486328125 -74.37699890136719,-403.47198486328125 -74.37699890136719,-403.47198486328125 C-74.37699890136719,-403.47198486328125 -74.37699890136719,403.47198486328125 -74.37699890136719,403.47198486328125z"></path><path stroke-linecap="round" stroke-linejoin="round" fill-opacity="0" stroke="rgb(32,40,112)" stroke-opacity="1" stroke-width="2" d=" M-74.37699890136719,403.47198486328125 C-74.37699890136719,403.47198486328125 74.37699890136719,403.47198486328125 74.37699890136719,403.47198486328125 C74.37699890136719,403.47198486328125 74.37699890136719,-403.47198486328125 74.37699890136719,-403.47198486328125 C74.37699890136719,-403.47198486328125 -74.37699890136719,-403.47198486328125 -74.37699890136719,-403.47198486328125 C-74.37699890136719,-403.47198486328125 -74.37699890136719,403.47198486328125 -74.37699890136719,403.47198486328125z"></path></g></g><g transform="matrix(1,0,0,0.9637100100517273,1028.9429931640625,1033.857666015625)" opacity="1" style="display: block;"><g opacity="1" transform="matrix(1,0,0,1,0,0)"><path fill="rgb(132,132,250)" fill-opacity="1" d=" M-74.37699890136719,343.47198486328125 C-74.37699890136719,343.47198486328125 74.37699890136719,343.47198486328125 74.37699890136719,343.47198486328125 C74.37699890136719,343.47198486328125 74.37699890136719,-343.47198486328125 74.37699890136719,-343.47198486328125 C74.37699890136719,-343.47198486328125 -74.37699890136719,-343.47198486328125 -74.37699890136719,-343.47198486328125 C-74.37699890136719,-343.47198486328125 -74.37699890136719,343.47198486328125 -74.37699890136719,343.47198486328125z"></path><path stroke-linecap="round" stroke-linejoin="round" fill-opacity="0" stroke="rgb(32,40,112)" stroke-opacity="1" stroke-width="2" d=" M-74.37699890136719,343.47198486328125 C-74.37699890136719,343.47198486328125 74.37699890136719,343.47198486328125 74.37699890136719,343.47198486328125 C74.37699890136719,343.47198486328125 74.37699890136719,-343.47198486328125 74.37699890136719,-343.47198486328125 C74.37699890136719,-343.47198486328125 -74.37699890136719,-343.47198486328125 -74.37699890136719,-343.47198486328125 C-74.37699890136719,-343.47198486328125 -74.37699890136719,343.47198486328125 -74.37699890136719,343.47198486328125z"></path></g></g><g transform="matrix(1,0,0,0.9261299967765808,845.5469970703125,1102.3330078125)" opacity="1" style="display: block;"><g opacity="1" transform="matrix(1,0,0,1,0,0)"><path fill="rgb(132,132,250)" fill-opacity="1" d=" M-74.37699890136719,283.47198486328125 C-74.37699890136719,283.47198486328125 74.37699890136719,283.47198486328125 74.37699890136719,283.47198486328125 C74.37699890136719,283.47198486328125 74.37699890136719,-283.47198486328125 74.37699890136719,-283.47198486328125 C74.37699890136719,-283.47198486328125 -74.37699890136719,-283.47198486328125 -74.37699890136719,-283.47198486328125 C-74.37699890136719,-283.47198486328125 -74.37699890136719,283.47198486328125 -74.37699890136719,283.47198486328125z"></path><path stroke-linecap="round" stroke-linejoin="round" fill-opacity="0" stroke="rgb(32,40,112)" stroke-opacity="1" stroke-width="2" d=" M-74.37699890136719,283.47198486328125 C-74.37699890136719,283.47198486328125 74.37699890136719,283.47198486328125 74.37699890136719,283.47198486328125 C74.37699890136719,283.47198486328125 74.37699890136719,-283.47198486328125 74.37699890136719,-283.47198486328125 C74.37699890136719,-283.47198486328125 -74.37699890136719,-283.47198486328125 -74.37699890136719,-283.47198486328125 C-74.37699890136719,-283.47198486328125 -74.37699890136719,283.47198486328125 -74.37699890136719,283.47198486328125z"></path></g></g><g transform="matrix(1,0,0,0.8824999928474426,662.1510009765625,1167.6510009765625)" opacity="1" style="display: block;"><g opacity="1" transform="matrix(1,0,0,1,0,0)"><path fill="rgb(132,132,250)" fill-opacity="1" d=" M-74.37699890136719,223.4720001220703 C-74.37699890136719,223.4720001220703 74.37699890136719,223.4720001220703 74.37699890136719,223.4720001220703 C74.37699890136719,223.4720001220703 74.37699890136719,-223.4720001220703 74.37699890136719,-223.4720001220703 C74.37699890136719,-223.4720001220703 -74.37699890136719,-223.4720001220703 -74.37699890136719,-223.4720001220703 C-74.37699890136719,-223.4720001220703 -74.37699890136719,223.4720001220703 -74.37699890136719,223.4720001220703z"></path><path stroke-linecap="round" stroke-linejoin="round" fill-opacity="0" stroke="rgb(32,40,112)" stroke-opacity="1" stroke-width="2" d=" M-74.37699890136719,223.4720001220703 C-74.37699890136719,223.4720001220703 74.37699890136719,223.4720001220703 74.37699890136719,223.4720001220703 C74.37699890136719,223.4720001220703 74.37699890136719,-223.4720001220703 74.37699890136719,-223.4720001220703 C74.37699890136719,-223.4720001220703 -74.37699890136719,-223.4720001220703 -74.37699890136719,-223.4720001220703 C-74.37699890136719,-223.4720001220703 -74.37699890136719,223.4720001220703 -74.37699890136719,223.4720001220703z"></path></g></g><g transform="matrix(1,0,0,0.8380000591278076,478.7550048828125,1227.87548828125)" opacity="1" style="display: block;"><g opacity="1" transform="matrix(1,0,0,1,0,0)"><path fill="rgb(132,132,250)" fill-opacity="1" d=" M-74.37699890136719,163.4720001220703 C-74.37699890136719,163.4720001220703 74.37699890136719,163.4720001220703 74.37699890136719,163.4720001220703 C74.37699890136719,163.4720001220703 74.37699890136719,-163.4720001220703 74.37699890136719,-163.4720001220703 C74.37699890136719,-163.4720001220703 -74.37699890136719,-163.4720001220703 -74.37699890136719,-163.4720001220703 C-74.37699890136719,-163.4720001220703 -74.37699890136719,163.4720001220703 -74.37699890136719,163.4720001220703z"></path><path stroke-linecap="round" stroke-linejoin="round" fill-opacity="0" stroke="rgb(32,40,112)" stroke-opacity="1" stroke-width="2" d=" M-74.37699890136719,163.4720001220703 C-74.37699890136719,163.4720001220703 74.37699890136719,163.4720001220703 74.37699890136719,163.4720001220703 C74.37699890136719,163.4720001220703 74.37699890136719,-163.4720001220703 74.37699890136719,-163.4720001220703 C74.37699890136719,-163.4720001220703 -74.37699890136719,-163.4720001220703 -74.37699890136719,-163.4720001220703 C-74.37699890136719,-163.4720001220703 -74.37699890136719,163.4720001220703 -74.37699890136719,163.4720001220703z"></path></g></g><g transform="matrix(1,0,0,0.797819972038269,295.3580017089844,1282.31298828125)" opacity="1" style="display: block;"><g opacity="1" transform="matrix(1,0,0,1,0,0)"><path fill="rgb(132,132,250)" fill-opacity="1" d=" M-74.37699890136719,103.47200012207031 C-74.37699890136719,103.47200012207031 74.37699890136719,103.47200012207031 74.37699890136719,103.47200012207031 C74.37699890136719,103.47200012207031 74.37699890136719,-103.47200012207031 74.37699890136719,-103.47200012207031 C74.37699890136719,-103.47200012207031 -74.37699890136719,-103.47200012207031 -74.37699890136719,-103.47200012207031 C-74.37699890136719,-103.47200012207031 -74.37699890136719,103.47200012207031 -74.37699890136719,103.47200012207031z"></path><path stroke-linecap="round" stroke-linejoin="round" fill-opacity="0" stroke="rgb(32,40,112)" stroke-opacity="1" stroke-width="2" d=" M-74.37699890136719,103.47200012207031 C-74.37699890136719,103.47200012207031 74.37699890136719,103.47200012207031 74.37699890136719,103.47200012207031 C74.37699890136719,103.47200012207031 74.37699890136719,-103.47200012207031 74.37699890136719,-103.47200012207031 C74.37699890136719,-103.47200012207031 -74.37699890136719,-103.47200012207031 -74.37699890136719,-103.47200012207031 C-74.37699890136719,-103.47200012207031 -74.37699890136719,103.47200012207031 -74.37699890136719,103.47200012207031z"></path></g></g><g transform="matrix(1,0,0,1,822.8809814453125,458.8869934082031)" opacity="1" style="display: block;"><g opacity="1" transform="matrix(1,0,0,1,0,0)"><path fill="rgb(249,74,130)" fill-opacity="1" d=" M223.7519989013672,0 C223.7519989013672,123.57499694824219 123.57499694824219,223.7519989013672 0,223.7519989013672 C-123.57499694824219,223.7519989013672 -223.7519989013672,123.57499694824219 -223.7519989013672,0 C-223.7519989013672,-123.57499694824219 -123.57499694824219,-223.7519989013672 0,-223.7519989013672 C123.57499694824219,-223.7519989013672 223.7519989013672,-123.57499694824219 223.7519989013672,0z"></path><path stroke-linecap="round" stroke-linejoin="round" fill-opacity="0" stroke="rgb(32,40,112)" stroke-opacity="1" stroke-width="2" d=" M223.7519989013672,0 C223.7519989013672,123.57499694824219 123.57499694824219,223.7519989013672 0,223.7519989013672 C-123.57499694824219,223.7519989013672 -223.7519989013672,123.57499694824219 -223.7519989013672,0 C-223.7519989013672,-123.57499694824219 -123.57499694824219,-223.7519989013672 0,-223.7519989013672 C123.57499694824219,-223.7519989013672 223.7519989013672,-123.57499694824219 223.7519989013672,0z"></path></g></g><g transform="matrix(1,0,0,1,822.8809814453125,458.8869934082031)" opacity="1" style="display: block;"><g opacity="1" transform="matrix(1,0,0,1,0,0)"><path fill="rgb(255,255,255)" fill-opacity="1" d=" M163.53900146484375,0 C163.53900146484375,90.31999969482422 90.31999969482422,163.53900146484375 0,163.53900146484375 C-90.31999969482422,163.53900146484375 -163.53900146484375,90.31999969482422 -163.53900146484375,0 C-163.53900146484375,-90.31999969482422 -90.31999969482422,-163.53900146484375 0,-163.53900146484375 C90.31999969482422,-163.53900146484375 163.53900146484375,-90.31999969482422 163.53900146484375,0z"></path></g></g><g transform="matrix(0.12001554667949677,-0.9927719831466675,-0.9927719831466675,-0.12001554667949677,744.89501953125,446.34197998046875)" opacity="1" style="display: block;"><g opacity="1" transform="matrix(1,0,0,1,0,0)"><path fill="rgb(132,132,250)" fill-opacity="1" d=" M19.930999755859375,-42.766998291015625 C19.930999755859375,-42.766998291015625 19.93600082397461,-42.70899963378906 19.93600082397461,-42.70899963378906 C22.257999420166016,-11.390000343322754 9.859000205993652,19.222999572753906 -13.60200023651123,40.099998474121094 C-13.60200023651123,40.099998474121094 -16.597999572753906,42.766998291015625 -16.597999572753906,42.766998291015625 C-16.597999572753906,42.766998291015625 -20.211999893188477,-5.88700008392334 -20.211999893188477,-5.88700008392334"></path><path stroke-linecap="round" stroke-linejoin="round" fill-opacity="0" stroke="rgb(32,40,112)" stroke-opacity="1" stroke-width="2" d=" M19.930999755859375,-42.766998291015625 C19.930999755859375,-42.766998291015625 19.93600082397461,-42.70899963378906 19.93600082397461,-42.70899963378906 C22.257999420166016,-11.390000343322754 9.859000205993652,19.222999572753906 -13.60200023651123,40.099998474121094 C-13.60200023651123,40.099998474121094 -16.597999572753906,42.766998291015625 -16.597999572753906,42.766998291015625 C-16.597999572753906,42.766998291015625 -20.211999893188477,-5.88700008392334 -20.211999893188477,-5.88700008392334"></path></g></g><g style="display: none;"><g><path></path><path stroke-linecap="round" stroke-linejoin="round" fill-opacity="0"></path></g></g><g style="display: none;"><g><path></path><path stroke-linecap="round" stroke-linejoin="round" fill-opacity="0"></path></g></g><g transform="matrix(1,0,0,1,732.2750244140625,544.9039916992188)" opacity="1" style="display: block;"><g opacity="1" transform="matrix(1,0,0,1,0,0)"><path fill="rgb(132,132,250)" fill-opacity="1" d="M0 0"></path><path stroke-linecap="round" stroke-linejoin="round" fill-opacity="0" stroke="rgb(32,40,112)" stroke-opacity="1" stroke-width="2" d="M0 0"></path></g></g><g transform="matrix(1,0,0,1,721.6110229492188,516.6019897460938)" opacity="1" style="display: block;"><g opacity="1" transform="matrix(1,0,0,1,0,0)"><path fill="rgb(132,132,250)" fill-opacity="1" d="M0 0"></path><path stroke-linecap="round" stroke-linejoin="round" fill-opacity="0" stroke="rgb(32,40,112)" stroke-opacity="1" stroke-width="2" d="M0 0"></path></g></g><g transform="matrix(1,0,0,1,759.1470336914062,558.782958984375)" opacity="1" style="display: block;"><g opacity="1" transform="matrix(1,0,0,1,0,0)"><path fill="rgb(132,132,250)" fill-opacity="1" d="M0 0"></path><path stroke-linecap="round" stroke-linejoin="round" fill-opacity="0" stroke="rgb(32,40,112)" stroke-opacity="1" stroke-width="2" d="M0 0"></path></g></g><g style="display: none;"><g><path></path><path stroke-linecap="round" stroke-linejoin="round" fill-opacity="0"></path></g></g><g style="display: none;"><g><path></path><path stroke-linecap="round" stroke-linejoin="round" fill-opacity="0"></path></g></g><g style="display: none;"><g><path></path><path stroke-linecap="round" stroke-linejoin="round" fill-opacity="0"></path></g></g><g style="display: none;"><g><path></path><path stroke-linecap="round" stroke-linejoin="round" fill-opacity="0"></path></g></g><g style="display: none;"><g><path></path><path stroke-linecap="round" stroke-linejoin="round" fill-opacity="0"></path></g></g><g style="display: none;"><g><path></path><path stroke-linecap="round" stroke-linejoin="round" fill-opacity="0"></path></g></g><g style="display: none;"><g><path></path><path stroke-linecap="round" stroke-linejoin="round" fill-opacity="0"></path></g></g><g style="display: none;"><g><path></path><path stroke-linecap="round" stroke-linejoin="round" fill-opacity="0"></path></g></g><g style="display: none;"><g><path></path><path stroke-linecap="round" stroke-linejoin="round" fill-opacity="0"></path></g></g><g transform="matrix(1,0,0,1,840.6749877929688,451.04296875)" opacity="1" style="display: block;"><g opacity="1" transform="matrix(1,0,0,1,0,0)"><path fill="rgb(132,132,250)" fill-opacity="1" d=" M-30.19099998474121,85.79199981689453 C-30.19099998474121,85.79199981689453 -91.55000305175781,16.839000701904297 -91.55000305175781,16.839000701904297 C-91.55000305175781,16.839000701904297 31.489999771118164,-101.01899719238281 91.25499725341797,-84.13700103759766 C91.25499725341797,-84.13700103759766 91.18000030517578,-84.22200012207031 91.18000030517578,-84.22200012207031 C91.18000030517578,-84.22200012207031 91.25499725341797,-84.13700103759766 91.25499725341797,-84.13700103759766 C91.25499725341797,-84.13700103759766 91.18000030517578,-84.22200012207031 91.18000030517578,-84.22200012207031 C101.00599670410156,-22.899999618530273 -30.34600067138672,85.61799621582031 -30.34600067138672,85.61799621582031 C-30.34600067138672,85.61799621582031 -91.70500183105469,16.665000915527344 -91.70500183105469,16.665000915527344"></path><path stroke-linecap="round" stroke-linejoin="round" fill-opacity="0" stroke="rgb(32,40,112)" stroke-opacity="1" stroke-width="2" d=" M-30.19099998474121,85.79199981689453 C-30.19099998474121,85.79199981689453 -91.55000305175781,16.839000701904297 -91.55000305175781,16.839000701904297 C-91.55000305175781,16.839000701904297 31.489999771118164,-101.01899719238281 91.25499725341797,-84.13700103759766 C91.25499725341797,-84.13700103759766 91.18000030517578,-84.22200012207031 91.18000030517578,-84.22200012207031 C91.18000030517578,-84.22200012207031 91.25499725341797,-84.13700103759766 91.25499725341797,-84.13700103759766 C91.25499725341797,-84.13700103759766 91.18000030517578,-84.22200012207031 91.18000030517578,-84.22200012207031 C101.00599670410156,-22.899999618530273 -30.34600067138672,85.61799621582031 -30.34600067138672,85.61799621582031 C-30.34600067138672,85.61799621582031 -91.70500183105469,16.665000915527344 -91.70500183105469,16.665000915527344"></path></g></g><g mask="url(#__lottie_element_121_1)" style="display: block;"><g transform="matrix(1,0,0,1,831.2630004882812,456.4109802246094)" opacity="1"><g opacity="1" transform="matrix(1,0,0,1,0,0)"><path fill="rgb(255,255,255)" fill-opacity="1" d=" M12.381999969482422,13.913999557495117 C4.697000026702881,20.75200080871582 -7.076000213623047,20.066999435424805 -13.913999557495117,12.381999969482422 C-20.75200080871582,4.697000026702881 -20.066999435424805,-7.076000213623047 -12.381999969482422,-13.913999557495117 C-4.697000026702881,-20.75200080871582 7.076000213623047,-20.066999435424805 13.913999557495117,-12.381999969482422 C20.75200080871582,-4.697000026702881 20.066999435424805,7.076000213623047 12.381999969482422,13.913999557495117z"></path><path stroke-linecap="round" stroke-linejoin="round" fill-opacity="0" stroke="rgb(32,40,112)" stroke-opacity="1" stroke-width="2" d=" M12.381999969482422,13.913999557495117 C4.697000026702881,20.75200080871582 -7.076000213623047,20.066999435424805 -13.913999557495117,12.381999969482422 C-20.75200080871582,4.697000026702881 -20.066999435424805,-7.076000213623047 -12.381999969482422,-13.913999557495117 C-4.697000026702881,-20.75200080871582 7.076000213623047,-20.066999435424805 13.913999557495117,-12.381999969482422 C20.75200080871582,-4.697000026702881 20.066999435424805,7.076000213623047 12.381999969482422,13.913999557495117z"></path></g></g></g><g mask="url(#__lottie_element_115_1)" style="display: none;"><g><g><path></path><path stroke-linecap="round" stroke-linejoin="round" fill-opacity="0"></path></g></g></g><g mask="url(#__lottie_element_109_1)" style="display: none;"><g><g><path></path><path stroke-linecap="round" stroke-linejoin="round" fill-opacity="0"></path></g></g></g><g mask="url(#__lottie_element_103_1)" style="display: none;"><g><g><path></path><path stroke-linecap="round" stroke-linejoin="round" fill-opacity="0"></path></g></g></g><g mask="url(#__lottie_element_97_1)" style="display: none;"><g><g><path></path><path stroke-linecap="round" stroke-linejoin="round" fill-opacity="0"></path></g></g></g><g mask="url(#__lottie_element_91_1)" style="display: none;"><g><g><path></path><path stroke-linecap="round" stroke-linejoin="round" fill-opacity="0"></path></g></g></g><g transform="matrix(1,0,0,1,831.4979858398438,543.5269775390625)" opacity="1" style="display: block;"><g opacity="1" transform="matrix(1,0,0,1,0,0)"><path fill="rgb(132,132,250)" fill-opacity="1" d=" M19.930999755859375,-42.766998291015625 C19.930999755859375,-42.766998291015625 19.93600082397461,-42.70899963378906 19.93600082397461,-42.70899963378906 C22.257999420166016,-11.390000343322754 9.859000205993652,19.222999572753906 -13.60200023651123,40.099998474121094 C-13.60200023651123,40.099998474121094 -16.597999572753906,42.766998291015625 -16.597999572753906,42.766998291015625 C-16.597999572753906,42.766998291015625 -20.211999893188477,-5.88700008392334 -20.211999893188477,-5.88700008392334"></path><path stroke-linecap="round" stroke-linejoin="round" fill-opacity="0" stroke="rgb(32,40,112)" stroke-opacity="1" stroke-width="2" d=" M19.930999755859375,-42.766998291015625 C19.930999755859375,-42.766998291015625 19.93600082397461,-42.70899963378906 19.93600082397461,-42.70899963378906 C22.257999420166016,-11.390000343322754 9.859000205993652,19.222999572753906 -13.60200023651123,40.099998474121094 C-13.60200023651123,40.099998474121094 -16.597999572753906,42.766998291015625 -16.597999572753906,42.766998291015625 C-16.597999572753906,42.766998291015625 -20.211999893188477,-5.88700008392334 -20.211999893188477,-5.88700008392334"></path></g></g><g style="display: none;"><g><path></path><path stroke-linecap="round" stroke-linejoin="round" fill-opacity="0"></path></g></g><g style="display: none;"><g><path></path><path stroke-linecap="round" stroke-linejoin="round" fill-opacity="0"></path></g></g><g transform="matrix(1,0,0,1,0,0)" opacity="1" style="display: block;"><g opacity="1" transform="matrix(1,0,0,1,0,0)"><g opacity="1" transform="matrix(1,0,0,1,0,0)"><g opacity="1" transform="matrix(1,0,0,1,525.2830200195312,1305.4310302734375)"><path fill="rgb(255,255,255)" fill-opacity="1" d=" M85.58499908447266,59.433998107910156 C85.58499908447266,59.433998107910156 -85.58499908447266,59.433998107910156 -85.58499908447266,59.433998107910156 C-85.58499908447266,59.433998107910156 -85.58499908447266,-59.433998107910156 -85.58499908447266,-59.433998107910156 C-85.58499908447266,-59.433998107910156 85.58499908447266,-59.433998107910156 85.58499908447266,-59.433998107910156 C85.58499908447266,-59.433998107910156 85.58499908447266,59.433998107910156 85.58499908447266,59.433998107910156z"></path><path stroke-linecap="round" stroke-linejoin="round" fill-opacity="0" stroke="rgb(32,40,112)" stroke-opacity="1" stroke-width="2" d=" M85.58499908447266,59.433998107910156 C85.58499908447266,59.433998107910156 -85.58499908447266,59.433998107910156 -85.58499908447266,59.433998107910156 C-85.58499908447266,59.433998107910156 -85.58499908447266,-59.433998107910156 -85.58499908447266,-59.433998107910156 C-85.58499908447266,-59.433998107910156 85.58499908447266,-59.433998107910156 85.58499908447266,-59.433998107910156 C85.58499908447266,-59.433998107910156 85.58499908447266,59.433998107910156 85.58499908447266,59.433998107910156z"></path></g><g opacity="1" transform="matrix(1,0,0,1,361.2449951171875,1305.4310302734375)"><path fill="rgb(255,255,255)" fill-opacity="1" d=" M149.093994140625,59.433998107910156 C149.093994140625,59.433998107910156 -149.093994140625,59.433998107910156 -149.093994140625,59.433998107910156 C-149.093994140625,59.433998107910156 -89.09400177001953,-59.433998107910156 -89.09400177001953,-59.433998107910156 C-89.09400177001953,-59.433998107910156 89.09400177001953,-59.433998107910156 89.09400177001953,-59.433998107910156 C89.09400177001953,-59.433998107910156 149.093994140625,59.433998107910156 149.093994140625,59.433998107910156z"></path><path stroke-linecap="round" stroke-linejoin="round" fill-opacity="0" stroke="rgb(32,40,112)" stroke-opacity="1" stroke-width="2" d=" M149.093994140625,59.433998107910156 C149.093994140625,59.433998107910156 -149.093994140625,59.433998107910156 -149.093994140625,59.433998107910156 C-149.093994140625,59.433998107910156 -89.09400177001953,-59.433998107910156 -89.09400177001953,-59.433998107910156 C-89.09400177001953,-59.433998107910156 89.09400177001953,-59.433998107910156 89.09400177001953,-59.433998107910156 C89.09400177001953,-59.433998107910156 149.093994140625,59.433998107910156 149.093994140625,59.433998107910156z"></path></g></g><g opacity="1" transform="matrix(1,0,0,1,0,0)"><g opacity="1" transform="matrix(1,0,0,1,823.4719848632812,1305.4310302734375)"><path fill="rgb(255,255,255)" fill-opacity="1" d=" M85.58499908447266,59.433998107910156 C85.58499908447266,59.433998107910156 -85.58499908447266,59.433998107910156 -85.58499908447266,59.433998107910156 C-85.58499908447266,59.433998107910156 -85.58499908447266,-59.433998107910156 -85.58499908447266,-59.433998107910156 C-85.58499908447266,-59.433998107910156 85.58499908447266,-59.433998107910156 85.58499908447266,-59.433998107910156 C85.58499908447266,-59.433998107910156 85.58499908447266,59.433998107910156 85.58499908447266,59.433998107910156z"></path><path stroke-linecap="round" stroke-linejoin="round" fill-opacity="0" stroke="rgb(32,40,112)" stroke-opacity="1" stroke-width="2" d=" M85.58499908447266,59.433998107910156 C85.58499908447266,59.433998107910156 -85.58499908447266,59.433998107910156 -85.58499908447266,59.433998107910156 C-85.58499908447266,59.433998107910156 -85.58499908447266,-59.433998107910156 -85.58499908447266,-59.433998107910156 C-85.58499908447266,-59.433998107910156 85.58499908447266,-59.433998107910156 85.58499908447266,-59.433998107910156 C85.58499908447266,-59.433998107910156 85.58499908447266,59.433998107910156 85.58499908447266,59.433998107910156z"></path></g><g opacity="1" transform="matrix(1,0,0,1,659.4340209960938,1305.4310302734375)"><path fill="rgb(255,255,255)" fill-opacity="1" d=" M149.093994140625,59.433998107910156 C149.093994140625,59.433998107910156 -149.093994140625,59.433998107910156 -149.093994140625,59.433998107910156 C-149.093994140625,59.433998107910156 -89.09400177001953,-59.433998107910156 -89.09400177001953,-59.433998107910156 C-89.09400177001953,-59.433998107910156 89.09400177001953,-59.433998107910156 89.09400177001953,-59.433998107910156 C89.09400177001953,-59.433998107910156 149.093994140625,59.433998107910156 149.093994140625,59.433998107910156z"></path><path stroke-linecap="round" stroke-linejoin="round" fill-opacity="0" stroke="rgb(32,40,112)" stroke-opacity="1" stroke-width="2" d=" M149.093994140625,59.433998107910156 C149.093994140625,59.433998107910156 -149.093994140625,59.433998107910156 -149.093994140625,59.433998107910156 C-149.093994140625,59.433998107910156 -89.09400177001953,-59.433998107910156 -89.09400177001953,-59.433998107910156 C-89.09400177001953,-59.433998107910156 89.09400177001953,-59.433998107910156 89.09400177001953,-59.433998107910156 C89.09400177001953,-59.433998107910156 149.093994140625,59.433998107910156 149.093994140625,59.433998107910156z"></path></g></g><g opacity="1" transform="matrix(1,0,0,1,0,0)"><g opacity="1" transform="matrix(1,0,0,1,748.9240112304688,1186.56298828125)"><path fill="rgb(255,255,255)" fill-opacity="1" d=" M160.1320037841797,59.433998107910156 C160.1320037841797,59.433998107910156 -160.1320037841797,59.433998107910156 -160.1320037841797,59.433998107910156 C-160.1320037841797,59.433998107910156 -160.1320037841797,-59.433998107910156 -160.1320037841797,-59.433998107910156 C-160.1320037841797,-59.433998107910156 160.1320037841797,-59.433998107910156 160.1320037841797,-59.433998107910156 C160.1320037841797,-59.433998107910156 160.1320037841797,59.433998107910156 160.1320037841797,59.433998107910156z"></path><path stroke-linecap="round" stroke-linejoin="round" fill-opacity="0" stroke="rgb(32,40,112)" stroke-opacity="1" stroke-width="2" d=" M160.1320037841797,59.433998107910156 C160.1320037841797,59.433998107910156 -160.1320037841797,59.433998107910156 -160.1320037841797,59.433998107910156 C-160.1320037841797,59.433998107910156 -160.1320037841797,-59.433998107910156 -160.1320037841797,-59.433998107910156 C-160.1320037841797,-59.433998107910156 160.1320037841797,-59.433998107910156 160.1320037841797,-59.433998107910156 C160.1320037841797,-59.433998107910156 160.1320037841797,59.433998107910156 160.1320037841797,59.433998107910156z"></path></g><g opacity="1" transform="matrix(1,0,0,1,510.3399963378906,1186.56298828125)"><path fill="rgb(255,255,255)" fill-opacity="1" d=" M149.093994140625,59.433998107910156 C149.093994140625,59.433998107910156 -149.093994140625,59.433998107910156 -149.093994140625,59.433998107910156 C-149.093994140625,59.433998107910156 -89.09400177001953,-59.433998107910156 -89.09400177001953,-59.433998107910156 C-89.09400177001953,-59.433998107910156 89.09400177001953,-59.433998107910156 89.09400177001953,-59.433998107910156 C89.09400177001953,-59.433998107910156 149.093994140625,59.433998107910156 149.093994140625,59.433998107910156z"></path><path stroke-linecap="round" stroke-linejoin="round" fill-opacity="0" stroke="rgb(32,40,112)" stroke-opacity="1" stroke-width="2" d=" M149.093994140625,59.433998107910156 C149.093994140625,59.433998107910156 -149.093994140625,59.433998107910156 -149.093994140625,59.433998107910156 C-149.093994140625,59.433998107910156 -89.09400177001953,-59.433998107910156 -89.09400177001953,-59.433998107910156 C-89.09400177001953,-59.433998107910156 89.09400177001953,-59.433998107910156 89.09400177001953,-59.433998107910156 C89.09400177001953,-59.433998107910156 149.093994140625,59.433998107910156 149.093994140625,59.433998107910156z"></path></g></g></g><g opacity="1" transform="matrix(1,0,0,1,799.697998046875,1364.864990234375)"><path stroke-linecap="round" stroke-linejoin="round" fill-opacity="0" stroke="rgb(32,40,112)" stroke-opacity="1" stroke-width="2" d=" M-676.5280151367188,0 C-676.5280151367188,0 676.5280151367188,0 676.5280151367188,0"></path></g></g><g transform="matrix(1,0,0,1,826.1890258789062,1245.9969482421875)" opacity="1" style="display: block;"><g opacity="1" transform="matrix(1,0,0,1,0,0)"><path fill="rgb(32,40,112)" fill-opacity="1" d=" M26.490999221801758,118.86799621582031 C26.490999221801758,118.86799621582031 26.490999221801758,-118.86799621582031 26.490999221801758,-118.86799621582031 C26.490999221801758,-118.86799621582031 -26.490999221801758,118.86799621582031 -26.490999221801758,118.86799621582031 C-26.490999221801758,118.86799621582031 26.490999221801758,118.86799621582031 26.490999221801758,118.86799621582031z"></path><path stroke-linecap="round" stroke-linejoin="round" fill-opacity="0" stroke="rgb(32,40,112)" stroke-opacity="1" stroke-width="2" d=" M26.490999221801758,118.86799621582031 C26.490999221801758,118.86799621582031 26.490999221801758,-118.86799621582031 26.490999221801758,-118.86799621582031 C26.490999221801758,-118.86799621582031 -26.490999221801758,118.86799621582031 -26.490999221801758,118.86799621582031 C-26.490999221801758,118.86799621582031 26.490999221801758,118.86799621582031 26.490999221801758,118.86799621582031z"></path></g></g><g transform="matrix(1,0,0,1,0,0)" opacity="1" style="display: block;"><g opacity="1" transform="matrix(1,0,0,1,1106.886962890625,1219.676025390625)"><path fill="rgb(249,74,130)" fill-opacity="1" d=" M254.20799255371094,145.18899536132812 C254.20799255371094,145.18899536132812 -254.20799255371094,145.18899536132812 -254.20799255371094,145.18899536132812 C-254.20799255371094,145.18899536132812 -254.20799255371094,-145.18899536132812 -254.20799255371094,-145.18899536132812 C-254.20799255371094,-145.18899536132812 254.20799255371094,-145.18899536132812 254.20799255371094,-145.18899536132812 C254.20799255371094,-145.18899536132812 254.20799255371094,145.18899536132812 254.20799255371094,145.18899536132812z"></path><path stroke-linecap="round" stroke-linejoin="round" fill-opacity="0" stroke="rgb(32,40,112)" stroke-opacity="1" stroke-width="2" d=" M254.20799255371094,145.18899536132812 C254.20799255371094,145.18899536132812 -254.20799255371094,145.18899536132812 -254.20799255371094,145.18899536132812 C-254.20799255371094,145.18899536132812 -254.20799255371094,-145.18899536132812 -254.20799255371094,-145.18899536132812 C-254.20799255371094,-145.18899536132812 254.20799255371094,-145.18899536132812 254.20799255371094,-145.18899536132812 C254.20799255371094,-145.18899536132812 254.20799255371094,145.18899536132812 254.20799255371094,145.18899536132812z"></path></g><g opacity="1" transform="matrix(1,0,0,1,1106.886962890625,1219.676025390625)"><path fill="rgb(255,255,255)" fill-opacity="1" d=" M209.3769989013672,49.301998138427734 C209.3769989013672,49.301998138427734 209.3769989013672,-49.301998138427734 209.3769989013672,-49.301998138427734 C181.74200439453125,-49.301998138427734 159.33999633789062,-71.70500183105469 159.33999633789062,-99.33999633789062 C159.33999633789062,-99.33999633789062 -159.33999633789062,-99.33999633789062 -159.33999633789062,-99.33999633789062 C-159.33999633789062,-71.70500183105469 -181.74200439453125,-49.301998138427734 -209.3769989013672,-49.301998138427734 C-209.3769989013672,-49.301998138427734 -209.3769989013672,49.301998138427734 -209.3769989013672,49.301998138427734 C-181.74200439453125,49.301998138427734 -159.33999633789062,71.70500183105469 -159.33999633789062,99.33999633789062 C-159.33999633789062,99.33999633789062 159.33999633789062,99.33999633789062 159.33999633789062,99.33999633789062 C159.33999633789062,71.70500183105469 181.74200439453125,49.301998138427734 209.3769989013672,49.301998138427734z"></path></g></g><g transform="matrix(1,0,0,1,0,0)" opacity="1" style="display: block;"><g opacity="1" transform="matrix(1,0,0,1,1106.886962890625,1219.676025390625)"><path fill="rgb(32,40,112)" fill-opacity="1" d=" M73.76799774169922,0 C73.76799774169922,40.74100112915039 40.74100112915039,73.76799774169922 0,73.76799774169922 C-40.74100112915039,73.76799774169922 -73.76799774169922,40.74100112915039 -73.76799774169922,0 C-73.76799774169922,-40.74100112915039 -40.74100112915039,-73.76799774169922 0,-73.76799774169922 C40.74100112915039,-73.76799774169922 73.76799774169922,-40.74100112915039 73.76799774169922,0z"></path><path stroke-linecap="round" stroke-linejoin="round" fill-opacity="0" stroke="rgb(32,40,112)" stroke-opacity="1" stroke-width="2" d=" M73.76799774169922,0 C73.76799774169922,40.74100112915039 40.74100112915039,73.76799774169922 0,73.76799774169922 C-40.74100112915039,73.76799774169922 -73.76799774169922,40.74100112915039 -73.76799774169922,0 C-73.76799774169922,-40.74100112915039 -40.74100112915039,-73.76799774169922 0,-73.76799774169922 C40.74100112915039,-73.76799774169922 73.76799774169922,-40.74100112915039 73.76799774169922,0z"></path></g><g opacity="1" transform="matrix(1,0,0,1,1106.886962890625,1219.676025390625)"><path fill="rgb(255,255,255)" fill-opacity="1" d=" M56.9010009765625,0 C56.9010009765625,31.426000595092773 31.426000595092773,56.9010009765625 0,56.9010009765625 C-31.426000595092773,56.9010009765625 -56.9010009765625,31.426000595092773 -56.9010009765625,0 C-56.9010009765625,-31.426000595092773 -31.426000595092773,-56.9010009765625 0,-56.9010009765625 C31.426000595092773,-56.9010009765625 56.9010009765625,-31.426000595092773 56.9010009765625,0z"></path></g></g><g transform="matrix(0.9992344975471497,-0.03912029787898064,0.03912029787898064,0.9992344975471497,-47.655029296875,43.5960693359375)" opacity="1" style="display: block;"><g opacity="1" transform="matrix(1,0,0,1,1090.1590576171875,1242.9129638671875)"><path fill="rgb(32,40,112)" fill-opacity="1" d=" M2.1549999713897705,13.536999702453613 C2.1549999713897705,13.536999702453613 2.1549999713897705,13.536999702453613 2.1549999713897705,13.536999702453613 C4.7769999504089355,13.137999534606934 6.578999996185303,10.689000129699707 6.179999828338623,8.067000389099121 C6.179999828338623,8.067000389099121 2.882999897003174,-13.588000297546387 2.882999897003174,-13.588000297546387 C2.882999897003174,-13.588000297546387 -6.236000061035156,-12.199999809265137 -6.236000061035156,-12.199999809265137 C-6.236000061035156,-12.199999809265137 -2.88100004196167,9.831999778747559 -2.88100004196167,9.831999778747559 C-2.513000011444092,12.246000289916992 -0.2590000033378601,13.904999732971191 2.1549999713897705,13.536999702453613z"></path><path stroke-linecap="round" stroke-linejoin="round" fill-opacity="0" stroke="rgb(32,40,112)" stroke-opacity="1" stroke-width="2" d=" M2.1549999713897705,13.536999702453613 C2.1549999713897705,13.536999702453613 2.1549999713897705,13.536999702453613 2.1549999713897705,13.536999702453613 C4.7769999504089355,13.137999534606934 6.578999996185303,10.689000129699707 6.179999828338623,8.067000389099121 C6.179999828338623,8.067000389099121 2.882999897003174,-13.588000297546387 2.882999897003174,-13.588000297546387 C2.882999897003174,-13.588000297546387 -6.236000061035156,-12.199999809265137 -6.236000061035156,-12.199999809265137 C-6.236000061035156,-12.199999809265137 -2.88100004196167,9.831999778747559 -2.88100004196167,9.831999778747559 C-2.513000011444092,12.246000289916992 -0.2590000033378601,13.904999732971191 2.1549999713897705,13.536999702453613z"></path></g><g opacity="1" transform="matrix(1,0,0,1,1098.905029296875,1214.9449462890625)"><path fill="rgb(32,40,112)" fill-opacity="1" d=" M14.189000129699707,-16.132999420166016 C14.26099967956543,-16.183000564575195 14.456000328063965,-16.319000244140625 14.527000427246094,-16.374000549316406 C17.683000564575195,-18.851999282836914 19.861000061035156,-20.952999114990234 19.861000061035156,-20.952999114990234 C19.861000061035156,-20.952999114990234 26.240999221801758,20.952999114990234 26.240999221801758,20.952999114990234 C26.240999221801758,20.952999114990234 19.035999298095703,17.33799934387207 11.824999809265137,15.692999839782715 C10.463000297546387,15.383999824523926 9.02400016784668,15.130000114440918 7.578000068664551,14.925999641418457 C3.2100000381469727,14.300000190734863 -1.4359999895095825,14.109999656677246 -5.86299991607666,14.380000114440918 C-5.86299991607666,14.380000114440918 -5.86899995803833,14.36299991607666 -5.86899995803833,14.36299991607666 C-5.86899995803833,14.36299991607666 -14.970999717712402,15.74899959564209 -14.970999717712402,15.74899959564209 C-20.319000244140625,16.562999725341797 -25.31399917602539,12.887999534606934 -26.128000259399414,7.539999961853027 C-26.128000259399414,7.539999961853027 -26.128000259399414,7.539999961853027 -26.128000259399414,7.539999961853027 C-26.941999435424805,2.191999912261963 -23.26799964904785,-2.802999973297119 -17.920000076293945,-3.617000102996826 C-17.920000076293945,-3.617000102996826 -8.817000389099121,-5.026000022888184 -8.817000389099121,-5.026000022888184 C-4.394000053405762,-6.122000217437744 0.11699999868869781,-7.616000175476074 4.196000099182129,-9.616000175476074 C4.196000099182129,-9.616000175476074 4.60099983215332,-9.833000183105469 5.044000148773193,-10.085000038146973 C5.044000148773193,-10.085000038146973 6.306000232696533,-10.836000442504883 6.306000232696533,-10.836000442504883 C8.883000373840332,-12.369000434875488 11.378000259399414,-14.03600025177002 13.781999588012695,-15.829000473022461 C13.781999588012695,-15.829000473022461 14.189000129699707,-16.132999420166016 14.189000129699707,-16.132999420166016z"></path><path stroke-linecap="round" stroke-linejoin="round" fill-opacity="0" stroke="rgb(32,40,112)" stroke-opacity="1" stroke-width="2" d=" M14.189000129699707,-16.132999420166016 C14.26099967956543,-16.183000564575195 14.456000328063965,-16.319000244140625 14.527000427246094,-16.374000549316406 C17.683000564575195,-18.851999282836914 19.861000061035156,-20.952999114990234 19.861000061035156,-20.952999114990234 C19.861000061035156,-20.952999114990234 26.240999221801758,20.952999114990234 26.240999221801758,20.952999114990234 C26.240999221801758,20.952999114990234 19.035999298095703,17.33799934387207 11.824999809265137,15.692999839782715 C10.463000297546387,15.383999824523926 9.02400016784668,15.130000114440918 7.578000068664551,14.925999641418457 C3.2100000381469727,14.300000190734863 -1.4359999895095825,14.109999656677246 -5.86299991607666,14.380000114440918 C-5.86299991607666,14.380000114440918 -5.86899995803833,14.36299991607666 -5.86899995803833,14.36299991607666 C-5.86899995803833,14.36299991607666 -14.970999717712402,15.74899959564209 -14.970999717712402,15.74899959564209 C-20.319000244140625,16.562999725341797 -25.31399917602539,12.887999534606934 -26.128000259399414,7.539999961853027 C-26.128000259399414,7.539999961853027 -26.128000259399414,7.539999961853027 -26.128000259399414,7.539999961853027 C-26.941999435424805,2.191999912261963 -23.26799964904785,-2.802999973297119 -17.920000076293945,-3.617000102996826 C-17.920000076293945,-3.617000102996826 -8.817000389099121,-5.026000022888184 -8.817000389099121,-5.026000022888184 C-4.394000053405762,-6.122000217437744 0.11699999868869781,-7.616000175476074 4.196000099182129,-9.616000175476074 C4.196000099182129,-9.616000175476074 4.60099983215332,-9.833000183105469 5.044000148773193,-10.085000038146973 C5.044000148773193,-10.085000038146973 6.306000232696533,-10.836000442504883 6.306000232696533,-10.836000442504883 C8.883000373840332,-12.369000434875488 11.378000259399414,-14.03600025177002 13.781999588012695,-15.829000473022461 C13.781999588012695,-15.829000473022461 14.189000129699707,-16.132999420166016 14.189000129699707,-16.132999420166016z"></path></g></g><g transform="matrix(0.9992344975471497,-0.03912029787898064,0.03912029787898064,0.9992344975471497,1136.7603759765625,1210.4766845703125)" opacity="1" style="display: block;"><g opacity="1" transform="matrix(1,0,0,1,0,0)"><path fill="rgb(132,132,250)" fill-opacity="1" d="M0 0"></path><path stroke-linecap="round" stroke-linejoin="round" fill-opacity="0" stroke="rgb(32,40,112)" stroke-opacity="1" stroke-width="2" d="M0 0"></path></g></g><g transform="matrix(0.9992344975471497,-0.03912029787898064,0.03912029787898064,0.9992344975471497,1133.48486328125,1198.2314453125)" opacity="1" style="display: block;"><g opacity="1" transform="matrix(1,0,0,1,0,0)"><path fill="rgb(132,132,250)" fill-opacity="1" d="M0 0"></path><path stroke-linecap="round" stroke-linejoin="round" fill-opacity="0" stroke="rgb(32,40,112)" stroke-opacity="1" stroke-width="2" d="M0 0"></path></g></g><g transform="matrix(0.9992344975471497,-0.03912029787898064,0.03912029787898064,0.9992344975471497,1138.24560546875,1222.955078125)" opacity="1" style="display: block;"><g opacity="1" transform="matrix(1,0,0,1,0,0)"><path fill="rgb(132,132,250)" fill-opacity="1" d="M0 0"></path><path stroke-linecap="round" stroke-linejoin="round" fill-opacity="0" stroke="rgb(32,40,112)" stroke-opacity="1" stroke-width="2" d="M0 0"></path></g></g><g style="display: none;"><g><path></path><path stroke-linecap="round" stroke-linejoin="round" fill-opacity="0"></path></g></g><g style="display: none;"><g><path></path><path stroke-linecap="round" stroke-linejoin="round" fill-opacity="0"></path></g></g><g style="display: none;"><g><path></path><path stroke-linecap="round" stroke-linejoin="round" fill-opacity="0"></path></g></g><g style="display: none;"><g><path></path><path stroke-linecap="round" stroke-linejoin="round" fill-opacity="0"></path></g></g><g style="display: none;"><g><path></path><path stroke-linecap="round" stroke-linejoin="round" fill-opacity="0"></path></g></g><g style="display: none;"><g><path></path><path stroke-linecap="round" stroke-linejoin="round" fill-opacity="0"></path></g></g><g style="display: none;"><g><path></path><path stroke-linecap="round" stroke-linejoin="round" fill-opacity="0"></path></g></g><g style="display: none;"><g><path></path><path stroke-linecap="round" stroke-linejoin="round" fill-opacity="0"></path></g></g><g style="display: none;"><g><path></path><path stroke-linecap="round" stroke-linejoin="round" fill-opacity="0"></path></g></g><g transform="matrix(1,0,0,1,255.87100219726562,773.5469970703125)" opacity="1" style="display: block;"><g opacity="1" transform="matrix(1,0,0,1,0,0)"><path fill="rgb(255,255,255)" fill-opacity="1" d=" M13.697999954223633,0 C13.697999954223633,7.565000057220459 7.565000057220459,13.697999954223633 0,13.697999954223633 C-7.565000057220459,13.697999954223633 -13.697999954223633,7.565000057220459 -13.697999954223633,0 C-13.697999954223633,-7.565000057220459 -7.565000057220459,-13.697999954223633 0,-13.697999954223633 C7.565000057220459,-13.697999954223633 13.697999954223633,-7.565000057220459 13.697999954223633,0z"></path><path stroke-linecap="round" stroke-linejoin="round" fill-opacity="0" stroke="rgb(32,40,112)" stroke-opacity="1" stroke-width="2" d=" M13.697999954223633,0 C13.697999954223633,7.565000057220459 7.565000057220459,13.697999954223633 0,13.697999954223633 C-7.565000057220459,13.697999954223633 -13.697999954223633,7.565000057220459 -13.697999954223633,0 C-13.697999954223633,-7.565000057220459 -7.565000057220459,-13.697999954223633 0,-13.697999954223633 C7.565000057220459,-13.697999954223633 13.697999954223633,-7.565000057220459 13.697999954223633,0z"></path></g></g><g transform="matrix(1,0,0,1,301.4259948730469,888.5709838867188)" opacity="1" style="display: block;"><g opacity="1" transform="matrix(1,0,0,1,0,0)"><path fill="rgb(32,40,112)" fill-opacity="1" d=" M7.260000228881836,0 C7.260000228881836,4.010000228881836 4.010000228881836,7.260000228881836 0,7.260000228881836 C-4.010000228881836,7.260000228881836 -7.260000228881836,4.010000228881836 -7.260000228881836,0 C-7.260000228881836,-4.010000228881836 -4.010000228881836,-7.260000228881836 0,-7.260000228881836 C4.010000228881836,-7.260000228881836 7.260000228881836,-4.010000228881836 7.260000228881836,0z"></path><path stroke-linecap="round" stroke-linejoin="round" fill-opacity="0" stroke="rgb(32,40,112)" stroke-opacity="1" stroke-width="2" d=" M7.260000228881836,0 C7.260000228881836,4.010000228881836 4.010000228881836,7.260000228881836 0,7.260000228881836 C-4.010000228881836,7.260000228881836 -7.260000228881836,4.010000228881836 -7.260000228881836,0 C-7.260000228881836,-4.010000228881836 -4.010000228881836,-7.260000228881836 0,-7.260000228881836 C4.010000228881836,-7.260000228881836 7.260000228881836,-4.010000228881836 7.260000228881836,0z"></path></g></g><g transform="matrix(1,0,0,1,426.9129943847656,703.5419921875)" opacity="1" style="display: block;"><g opacity="1" transform="matrix(1,0,0,1,0,0)"><path fill="rgb(132,132,250)" fill-opacity="1" d=" M14.031999588012695,0 C14.031999588012695,7.75 7.75,14.031999588012695 0,14.031999588012695 C-7.75,14.031999588012695 -14.031999588012695,7.75 -14.031999588012695,0 C-14.031999588012695,-7.75 -7.75,-14.031999588012695 0,-14.031999588012695 C7.75,-14.031999588012695 14.031999588012695,-7.75 14.031999588012695,0z"></path><path stroke-linecap="round" stroke-linejoin="round" fill-opacity="0" stroke="rgb(32,40,112)" stroke-opacity="1" stroke-width="2" d=" M14.031999588012695,0 C14.031999588012695,7.75 7.75,14.031999588012695 0,14.031999588012695 C-7.75,14.031999588012695 -14.031999588012695,7.75 -14.031999588012695,0 C-14.031999588012695,-7.75 -7.75,-14.031999588012695 0,-14.031999588012695 C7.75,-14.031999588012695 14.031999588012695,-7.75 14.031999588012695,0z"></path></g></g><g transform="matrix(1,0,0,1,203.43299865722656,1053.2559814453125)" opacity="1" style="display: block;"><g opacity="1" transform="matrix(1,0,0,1,0,0)"><path fill="rgb(255,255,255)" fill-opacity="1" d=" M6.565999984741211,0 C6.565999984741211,3.625999927520752 3.625999927520752,6.565999984741211 0,6.565999984741211 C-3.625999927520752,6.565999984741211 -6.565999984741211,3.625999927520752 -6.565999984741211,0 C-6.565999984741211,-3.625999927520752 -3.625999927520752,-6.565999984741211 0,-6.565999984741211 C3.625999927520752,-6.565999984741211 6.565999984741211,-3.625999927520752 6.565999984741211,0z"></path><path stroke-linecap="round" stroke-linejoin="round" fill-opacity="0" stroke="rgb(32,40,112)" stroke-opacity="1" stroke-width="2" d=" M6.565999984741211,0 C6.565999984741211,3.625999927520752 3.625999927520752,6.565999984741211 0,6.565999984741211 C-3.625999927520752,6.565999984741211 -6.565999984741211,3.625999927520752 -6.565999984741211,0 C-6.565999984741211,-3.625999927520752 -3.625999927520752,-6.565999984741211 0,-6.565999984741211 C3.625999927520752,-6.565999984741211 6.565999984741211,-3.625999927520752 6.565999984741211,0z"></path></g></g><g transform="matrix(1,0,0,1,1227.404052734375,860.051025390625)" opacity="1" style="display: block;"><g opacity="1" transform="matrix(1,0,0,1,0,0)"><path fill="rgb(255,255,255)" fill-opacity="1" d=" M17.29400062561035,0 C17.29400062561035,9.550999641418457 9.550999641418457,17.29400062561035 0,17.29400062561035 C-9.550999641418457,17.29400062561035 -17.29400062561035,9.550999641418457 -17.29400062561035,0 C-17.29400062561035,-9.550999641418457 -9.550999641418457,-17.29400062561035 0,-17.29400062561035 C9.550999641418457,-17.29400062561035 17.29400062561035,-9.550999641418457 17.29400062561035,0z"></path><path stroke-linecap="round" stroke-linejoin="round" fill-opacity="0" stroke="rgb(32,40,112)" stroke-opacity="1" stroke-width="2" d=" M17.29400062561035,0 C17.29400062561035,9.550999641418457 9.550999641418457,17.29400062561035 0,17.29400062561035 C-9.550999641418457,17.29400062561035 -17.29400062561035,9.550999641418457 -17.29400062561035,0 C-17.29400062561035,-9.550999641418457 -9.550999641418457,-17.29400062561035 0,-17.29400062561035 C9.550999641418457,-17.29400062561035 17.29400062561035,-9.550999641418457 17.29400062561035,0z"></path></g></g><g transform="matrix(1,0,0,1,1385.333984375,891.5969848632812)" opacity="1" style="display: block;"><g opacity="1" transform="matrix(1,0,0,1,0,0)"><path fill="rgb(32,40,112)" fill-opacity="1" d=" M9.244999885559082,0 C9.244999885559082,5.105999946594238 5.105999946594238,9.244999885559082 0,9.244999885559082 C-5.105999946594238,9.244999885559082 -9.244999885559082,5.105999946594238 -9.244999885559082,0 C-9.244999885559082,-5.105999946594238 -5.105999946594238,-9.244999885559082 0,-9.244999885559082 C5.105999946594238,-9.244999885559082 9.244999885559082,-5.105999946594238 9.244999885559082,0z"></path><path stroke-linecap="round" stroke-linejoin="round" fill-opacity="0" stroke="rgb(32,40,112)" stroke-opacity="1" stroke-width="2" d=" M9.244999885559082,0 C9.244999885559082,5.105999946594238 5.105999946594238,9.244999885559082 0,9.244999885559082 C-5.105999946594238,9.244999885559082 -9.244999885559082,5.105999946594238 -9.244999885559082,0 C-9.244999885559082,-5.105999946594238 -5.105999946594238,-9.244999885559082 0,-9.244999885559082 C5.105999946594238,-9.244999885559082 9.244999885559082,-5.105999946594238 9.244999885559082,0z"></path></g></g><g transform="matrix(1,0,0,1,1314.7139892578125,745.5560302734375)" opacity="1" style="display: block;"><g opacity="1" transform="matrix(1,0,0,1,0,0)"><path fill="rgb(255,255,255)" fill-opacity="1" d=" M9.895000457763672,0 C9.895000457763672,5.465000152587891 5.465000152587891,9.895000457763672 0,9.895000457763672 C-5.465000152587891,9.895000457763672 -9.895000457763672,5.465000152587891 -9.895000457763672,0 C-9.895000457763672,-5.465000152587891 -5.465000152587891,-9.895000457763672 0,-9.895000457763672 C5.465000152587891,-9.895000457763672 9.895000457763672,-5.465000152587891 9.895000457763672,0z"></path><path stroke-linecap="round" stroke-linejoin="round" fill-opacity="0" stroke="rgb(32,40,112)" stroke-opacity="1" stroke-width="2" d=" M9.895000457763672,0 C9.895000457763672,5.465000152587891 5.465000152587891,9.895000457763672 0,9.895000457763672 C-5.465000152587891,9.895000457763672 -9.895000457763672,5.465000152587891 -9.895000457763672,0 C-9.895000457763672,-5.465000152587891 -5.465000152587891,-9.895000457763672 0,-9.895000457763672 C5.465000152587891,-9.895000457763672 9.895000457763672,-5.465000152587891 9.895000457763672,0z"></path></g></g><g transform="matrix(1,0,0,1,1340.406982421875,499.7279968261719)" opacity="1" style="display: block;"><g opacity="1" transform="matrix(1,0,0,1,0,0)"><path fill="rgb(255,255,255)" fill-opacity="1" d=" M11.456000328063965,0 C11.456000328063965,6.327000141143799 6.327000141143799,11.456000328063965 0,11.456000328063965 C-6.327000141143799,11.456000328063965 -11.456000328063965,6.327000141143799 -11.456000328063965,0 C-11.456000328063965,-6.327000141143799 -6.327000141143799,-11.456000328063965 0,-11.456000328063965 C6.327000141143799,-11.456000328063965 11.456000328063965,-6.327000141143799 11.456000328063965,0z"></path><path stroke-linecap="round" stroke-linejoin="round" fill-opacity="0" stroke="rgb(32,40,112)" stroke-opacity="1" stroke-width="2" d=" M11.456000328063965,0 C11.456000328063965,6.327000141143799 6.327000141143799,11.456000328063965 0,11.456000328063965 C-6.327000141143799,11.456000328063965 -11.456000328063965,6.327000141143799 -11.456000328063965,0 C-11.456000328063965,-6.327000141143799 -6.327000141143799,-11.456000328063965 0,-11.456000328063965 C6.327000141143799,-11.456000328063965 11.456000328063965,-6.327000141143799 11.456000328063965,0z"></path></g></g><g transform="matrix(1,0,0,1,1437.4439697265625,1153.8800048828125)" opacity="1" style="display: block;"><g opacity="1" transform="matrix(1,0,0,1,0,0)"><path fill="rgb(132,132,250)" fill-opacity="1" d=" M20.461000442504883,0 C20.461000442504883,11.300000190734863 11.300000190734863,20.461000442504883 0,20.461000442504883 C-11.300000190734863,20.461000442504883 -20.461000442504883,11.300000190734863 -20.461000442504883,0 C-20.461000442504883,-11.300000190734863 -11.300000190734863,-20.461000442504883 0,-20.461000442504883 C11.300000190734863,-20.461000442504883 20.461000442504883,-11.300000190734863 20.461000442504883,0z"></path><path stroke-linecap="round" stroke-linejoin="round" fill-opacity="0" stroke="rgb(32,40,112)" stroke-opacity="1" stroke-width="2" d=" M20.461000442504883,0 C20.461000442504883,11.300000190734863 11.300000190734863,20.461000442504883 0,20.461000442504883 C-11.300000190734863,20.461000442504883 -20.461000442504883,11.300000190734863 -20.461000442504883,0 C-20.461000442504883,-11.300000190734863 -11.300000190734863,-20.461000442504883 0,-20.461000442504883 C11.300000190734863,-20.461000442504883 20.461000442504883,-11.300000190734863 20.461000442504883,0z"></path></g></g></g></svg>