<svg width="1600" height="1600" viewBox="0 0 1600 1600" fill="none" xmlns="http://www.w3.org/2000/svg">
<g clip-path="url(#clip0_25_43519)">
<mask id="mask0_25_43519" style="mask-type:luminance" maskUnits="userSpaceOnUse" x="0" y="0" width="1600" height="1600">
<path d="M1600 0H0V1600H1600V0Z" fill="white"/>
</mask>
<g mask="url(#mask0_25_43519)">
<path d="M296.233 1223.72L220.981 1157.86L609.394 714.029L754.342 840.878L1165.64 370.897L1240.89 436.753L763.738 981.986L618.79 855.138L296.233 1223.72Z" fill="#0626A9"/>
<path d="M296.233 1223.72L220.981 1157.86L609.394 714.029L754.342 840.878L1165.64 370.897L1240.89 436.753L763.738 981.986L618.79 855.138L296.233 1223.72Z" stroke="#0626A9" stroke-width="2" stroke-linecap="round" stroke-linejoin="round"/>
<path d="M1298.4 296.464L1130.6 340.92L1277.89 468.838L1298.4 296.464Z" fill="#0626A9"/>
<path d="M1298.4 296.464L1130.6 340.92L1277.89 468.838L1298.4 296.464Z" stroke="#0626A9" stroke-width="2" stroke-linecap="round" stroke-linejoin="round"/>
<path d="M1137.96 1364.87H1286.72V565.942H1137.96V1364.87Z" fill="#84AAE4"/>
<path d="M1137.96 1364.87H1286.72V565.942H1137.96V1364.87Z" stroke="#0626A9" stroke-width="1.99004" stroke-linecap="round" stroke-linejoin="round"/>
<path d="M954.566 1364.87H1103.32V702.85H954.566V1364.87Z" fill="#84AAE4"/>
<path d="M954.566 1364.87H1103.32V702.85H954.566V1364.87Z" stroke="#0626A9" stroke-width="1.96337" stroke-linecap="round" stroke-linejoin="round"/>
<path d="M771.17 1364.86H919.924V839.801H771.17V1364.86Z" fill="#84AAE4"/>
<path d="M771.17 1364.86H919.924V839.801H771.17V1364.86Z" stroke="#0626A9" stroke-width="1.92471" stroke-linecap="round" stroke-linejoin="round"/>
<path d="M587.773 1364.87H736.527V970.437H587.773V1364.87Z" fill="#84AAE4"/>
<path d="M587.773 1364.87H736.527V970.437H587.773V1364.87Z" stroke="#0626A9" stroke-width="1.87883" stroke-linecap="round" stroke-linejoin="round"/>
<path d="M404.378 1364.87H553.132V1090.89H404.378V1364.87Z" fill="#84AAE4"/>
<path d="M404.378 1364.87H553.132V1090.89H404.378V1364.87Z" stroke="#0626A9" stroke-width="1.83085" stroke-linecap="round" stroke-linejoin="round"/>
<path d="M220.98 1364.87H369.734V1199.76H220.98V1364.87Z" fill="#84AAE4"/>
<path d="M220.98 1364.87H369.734V1199.76H220.98V1364.87Z" stroke="#0626A9" stroke-width="1.78642" stroke-linecap="round" stroke-linejoin="round"/>
<path d="M1046.63 458.887C1046.63 582.462 946.456 682.639 822.881 682.639C699.306 682.639 599.129 582.462 599.129 458.887C599.129 335.312 699.306 235.135 822.881 235.135C946.456 235.135 1046.63 335.312 1046.63 458.887Z" fill="#8869D5"/>
<path d="M1046.63 458.887C1046.63 582.462 946.456 682.639 822.881 682.639C699.306 682.639 599.129 582.462 599.129 458.887C599.129 335.312 699.306 235.135 822.881 235.135C946.456 235.135 1046.63 335.312 1046.63 458.887Z" stroke="#0626A9" stroke-width="2" stroke-linecap="round" stroke-linejoin="round"/>
<path d="M986.42 458.887C986.42 549.207 913.201 622.426 822.881 622.426C732.561 622.426 659.342 549.207 659.342 458.887C659.342 368.567 732.561 295.348 822.881 295.348C913.201 295.348 986.42 368.567 986.42 458.887Z" fill="white"/>
<path d="M789.745 431.688L789.688 431.676C758.874 425.612 726.994 434.247 703.452 455.033L700.445 457.687L748.313 467.114" fill="#84AAE4"/>
<path d="M789.745 431.688L789.688 431.676C758.874 425.612 726.994 434.247 703.452 455.033L700.445 457.687L748.313 467.114" stroke="#0626A9" stroke-width="2" stroke-linecap="round" stroke-linejoin="round"/>
<path d="M810.484 536.835L749.125 467.882C749.125 467.882 872.165 350.024 931.93 366.906L931.855 366.821C941.681 428.143 810.329 536.661 810.329 536.661L748.97 467.708" fill="#84AAE4"/>
<path d="M810.484 536.835L749.125 467.882C749.125 467.882 872.165 350.024 931.93 366.906L931.855 366.821C941.681 428.143 810.329 536.661 810.329 536.661L748.97 467.708" stroke="#0626A9" stroke-width="2" stroke-linecap="round" stroke-linejoin="round"/>
<mask id="mask1_25_43519" style="mask-type:alpha" maskUnits="userSpaceOnUse" x="752" y="368" width="177" height="166">
<path d="M811.993 532.545L753.702 467.04C753.702 467.04 870.59 355.075 927.367 371.113L927.295 371.032C936.63 429.288 811.846 532.38 811.846 532.38L753.555 466.875" fill="#8484FA"/>
<path d="M811.993 532.545L753.702 467.04C753.702 467.04 870.59 355.075 927.367 371.113L927.295 371.032C936.63 429.288 811.846 532.38 811.846 532.38L753.555 466.875" stroke="#202870" stroke-width="1.9" stroke-linecap="round" stroke-linejoin="round"/>
</mask>
<g mask="url(#mask1_25_43519)">
<path d="M843.645 470.325C835.96 477.163 824.187 476.478 817.349 468.793C810.511 461.108 811.196 449.335 818.881 442.497C826.566 435.659 838.339 436.344 845.177 444.029C852.015 451.714 851.33 463.487 843.645 470.325Z" fill="white"/>
<path d="M843.645 470.325C835.96 477.163 824.187 476.478 817.349 468.793C810.511 461.108 811.196 449.335 818.881 442.497C826.566 435.659 838.339 436.344 845.177 444.029C852.015 451.714 851.33 463.487 843.645 470.325Z" stroke="#0626A9" stroke-width="2" stroke-linecap="round" stroke-linejoin="round"/>
</g>
<path d="M851.429 500.76L851.434 500.818C853.756 532.137 841.357 562.75 817.896 583.627L814.9 586.294L811.286 537.64" fill="#84AAE4"/>
<path d="M851.429 500.76L851.434 500.818C853.756 532.137 841.357 562.75 817.896 583.627L814.9 586.294L811.286 537.64" stroke="#0626A9" stroke-width="2" stroke-linecap="round" stroke-linejoin="round"/>
<path d="M610.868 1364.87H439.698V1246H610.868V1364.87Z" fill="white"/>
<path d="M610.868 1364.87H439.698V1246H610.868V1364.87Z" stroke="#0626A9" stroke-width="2" stroke-linecap="round" stroke-linejoin="round"/>
<path d="M510.339 1364.87H212.151L272.151 1246H450.339L510.339 1364.87Z" fill="white"/>
<path d="M510.339 1364.87H212.151L272.151 1246H450.339L510.339 1364.87Z" stroke="#0626A9" stroke-width="2" stroke-linecap="round" stroke-linejoin="round"/>
<path d="M909.058 1364.87H737.888V1246H909.058V1364.87Z" fill="white"/>
<path d="M909.058 1364.87H737.888V1246H909.058V1364.87Z" stroke="#0626A9" stroke-width="2" stroke-linecap="round" stroke-linejoin="round"/>
<path d="M808.529 1364.87H510.341L570.341 1246H748.529L808.529 1364.87Z" fill="white"/>
<path d="M808.529 1364.87H510.341L570.341 1246H748.529L808.529 1364.87Z" stroke="#0626A9" stroke-width="2" stroke-linecap="round" stroke-linejoin="round"/>
<path d="M909.056 1246H588.792V1127.13H909.056V1246Z" fill="white"/>
<path d="M909.056 1246H588.792V1127.13H909.056V1246Z" stroke="#0626A9" stroke-width="2" stroke-linecap="round" stroke-linejoin="round"/>
<path d="M659.434 1246H361.246L421.246 1127.13H599.434L659.434 1246Z" fill="white"/>
<path d="M659.434 1246H361.246L421.246 1127.13H599.434L659.434 1246Z" stroke="#0626A9" stroke-width="2" stroke-linecap="round" stroke-linejoin="round"/>
<path d="M123.17 1364.86H1476.23" stroke="#0626A9" stroke-width="2" stroke-linecap="round" stroke-linejoin="round"/>
<path d="M852.68 1364.86V1127.13L799.698 1364.86H852.68Z" fill="#0626A9"/>
<path d="M852.68 1364.86V1127.13L799.698 1364.86H852.68Z" stroke="#0626A9" stroke-width="2" stroke-linecap="round" stroke-linejoin="round"/>
<path d="M269.569 773.547C269.569 781.112 263.436 787.245 255.871 787.245C248.306 787.245 242.173 781.112 242.173 773.547C242.173 765.982 248.306 759.849 255.871 759.849C263.436 759.849 269.569 765.982 269.569 773.547Z" fill="white"/>
<path d="M269.569 773.547C269.569 781.112 263.436 787.245 255.871 787.245C248.306 787.245 242.173 781.112 242.173 773.547C242.173 765.982 248.306 759.849 255.871 759.849C263.436 759.849 269.569 765.982 269.569 773.547Z" stroke="#0626A9" stroke-width="2" stroke-linecap="round" stroke-linejoin="round"/>
<path d="M308.686 888.571C308.686 892.581 305.436 895.831 301.426 895.831C297.416 895.831 294.166 892.581 294.166 888.571C294.166 884.561 297.416 881.311 301.426 881.311C305.436 881.311 308.686 884.561 308.686 888.571Z" fill="#0626A9"/>
<path d="M308.686 888.571C308.686 892.581 305.436 895.831 301.426 895.831C297.416 895.831 294.166 892.581 294.166 888.571C294.166 884.561 297.416 881.311 301.426 881.311C305.436 881.311 308.686 884.561 308.686 888.571Z" stroke="#0626A9" stroke-width="2" stroke-linecap="round" stroke-linejoin="round"/>
<path d="M440.945 703.542C440.945 711.292 434.663 717.574 426.913 717.574C419.163 717.574 412.881 711.292 412.881 703.542C412.881 695.792 419.163 689.51 426.913 689.51C434.663 689.51 440.945 695.792 440.945 703.542Z" fill="#84AAE4"/>
<path d="M440.945 703.542C440.945 711.292 434.663 717.574 426.913 717.574C419.163 717.574 412.881 711.292 412.881 703.542C412.881 695.792 419.163 689.51 426.913 689.51C434.663 689.51 440.945 695.792 440.945 703.542Z" stroke="#0626A9" stroke-width="2" stroke-linecap="round" stroke-linejoin="round"/>
<path d="M209.999 1053.26C209.999 1056.88 207.059 1059.82 203.433 1059.82C199.807 1059.82 196.867 1056.88 196.867 1053.26C196.867 1049.63 199.807 1046.69 203.433 1046.69C207.059 1046.69 209.999 1049.63 209.999 1053.26Z" fill="white"/>
<path d="M209.999 1053.26C209.999 1056.88 207.059 1059.82 203.433 1059.82C199.807 1059.82 196.867 1056.88 196.867 1053.26C196.867 1049.63 199.807 1046.69 203.433 1046.69C207.059 1046.69 209.999 1049.63 209.999 1053.26Z" stroke="#0626A9" stroke-width="2" stroke-linecap="round" stroke-linejoin="round"/>
<path d="M1244.7 860.051C1244.7 869.602 1236.96 877.345 1227.4 877.345C1217.85 877.345 1210.11 869.602 1210.11 860.051C1210.11 850.5 1217.85 842.757 1227.4 842.757C1236.96 842.757 1244.7 850.5 1244.7 860.051Z" fill="white"/>
<path d="M1244.7 860.051C1244.7 869.602 1236.96 877.345 1227.4 877.345C1217.85 877.345 1210.11 869.602 1210.11 860.051C1210.11 850.5 1217.85 842.757 1227.4 842.757C1236.96 842.757 1244.7 850.5 1244.7 860.051Z" stroke="#0626A9" stroke-width="2" stroke-linecap="round" stroke-linejoin="round"/>
<path d="M1394.58 891.597C1394.58 896.703 1390.44 900.842 1385.33 900.842C1380.23 900.842 1376.09 896.703 1376.09 891.597C1376.09 886.491 1380.23 882.352 1385.33 882.352C1390.44 882.352 1394.58 886.491 1394.58 891.597Z" fill="#0626A9"/>
<path d="M1394.58 891.597C1394.58 896.703 1390.44 900.842 1385.33 900.842C1380.23 900.842 1376.09 896.703 1376.09 891.597C1376.09 886.491 1380.23 882.352 1385.33 882.352C1390.44 882.352 1394.58 886.491 1394.58 891.597Z" stroke="#0626A9" stroke-width="2" stroke-linecap="round" stroke-linejoin="round"/>
<path d="M1324.61 745.556C1324.61 751.021 1320.18 755.451 1314.71 755.451C1309.25 755.451 1304.82 751.021 1304.82 745.556C1304.82 740.091 1309.25 735.661 1314.71 735.661C1320.18 735.661 1324.61 740.091 1324.61 745.556Z" fill="white"/>
<path d="M1324.61 745.556C1324.61 751.021 1320.18 755.451 1314.71 755.451C1309.25 755.451 1304.82 751.021 1304.82 745.556C1304.82 740.091 1309.25 735.661 1314.71 735.661C1320.18 735.661 1324.61 740.091 1324.61 745.556Z" stroke="#0626A9" stroke-width="2" stroke-linecap="round" stroke-linejoin="round"/>
<path d="M1351.86 499.728C1351.86 506.055 1346.73 511.184 1340.41 511.184C1334.08 511.184 1328.95 506.055 1328.95 499.728C1328.95 493.401 1334.08 488.272 1340.41 488.272C1346.73 488.272 1351.86 493.401 1351.86 499.728Z" fill="white"/>
<path d="M1351.86 499.728C1351.86 506.055 1346.73 511.184 1340.41 511.184C1334.08 511.184 1328.95 506.055 1328.95 499.728C1328.95 493.401 1334.08 488.272 1340.41 488.272C1346.73 488.272 1351.86 493.401 1351.86 499.728Z" stroke="#0626A9" stroke-width="2" stroke-linecap="round" stroke-linejoin="round"/>
<path d="M1457.9 1153.88C1457.9 1165.18 1448.74 1174.34 1437.44 1174.34C1426.14 1174.34 1416.98 1165.18 1416.98 1153.88C1416.98 1142.58 1426.14 1133.42 1437.44 1133.42C1448.74 1133.42 1457.9 1142.58 1457.9 1153.88Z" fill="#84AAE4"/>
<path d="M1457.9 1153.88C1457.9 1165.18 1448.74 1174.34 1437.44 1174.34C1426.14 1174.34 1416.98 1165.18 1416.98 1153.88C1416.98 1142.58 1426.14 1133.42 1437.44 1133.42C1448.74 1133.42 1457.9 1142.58 1457.9 1153.88Z" stroke="#0626A9" stroke-width="2" stroke-linecap="round" stroke-linejoin="round"/>
</g>
</g>
<defs>
<clipPath id="clip0_25_43519">
<rect width="1600" height="1600" fill="white"/>
</clipPath>
</defs>
</svg>
