<svg xmlns="http://www.w3.org/2000/svg" xmlns:xlink="http://www.w3.org/1999/xlink" viewBox="0 0 1600 1600" width="1600" height="1600" preserveAspectRatio="xMidYMid meet" style="width: 100%; height: 100%; transform: translate3d(0px, 0px, 0px); content-visibility: visible;"><defs><clipPath id="__lottie_element_2"><rect width="1600" height="1600" x="0" y="0"></rect></clipPath><clipPath id="__lottie_element_32"><path d="M0,0 L1600,0 L1600,1600 L0,1600z"></path></clipPath><g id="__lottie_element_30"><g clip-path="url(#__lottie_element_50)" transform="matrix(1,0,0,1,0,0)" opacity="1" style="display: block;"><g transform="matrix(0.9995082020759583,-0.031358424574136734,0.031358424574136734,0.9995082020759583,-31.14990234375,4.79779052734375)" opacity="1" style="display: block;"><g opacity="1" transform="matrix(1,0,0,1,788.5540161132812,799.4190063476562)"><path fill="rgb(255,255,255)" fill-opacity="1" d=" M363.2149963378906,200.6009979248047 C363.2149963378906,200.6009979248047 -363.2149963378906,200.6009979248047 -363.2149963378906,200.6009979248047 C-363.2149963378906,200.6009979248047 -363.2149963378906,-200.6009979248047 -363.2149963378906,-200.6009979248047 C-363.2149963378906,-200.6009979248047 363.2149963378906,-200.6009979248047 363.2149963378906,-200.6009979248047 C363.2149963378906,-200.6009979248047 363.2149963378906,200.6009979248047 363.2149963378906,200.6009979248047z"></path><path stroke-linecap="round" stroke-linejoin="round" fill-opacity="0" stroke="rgb(32,40,112)" stroke-opacity="1" stroke-width="2" d=" M363.2149963378906,200.6009979248047 C363.2149963378906,200.6009979248047 -363.2149963378906,200.6009979248047 -363.2149963378906,200.6009979248047 C-363.2149963378906,200.6009979248047 -363.2149963378906,-200.6009979248047 -363.2149963378906,-200.6009979248047 C-363.2149963378906,-200.6009979248047 363.2149963378906,-200.6009979248047 363.2149963378906,-200.6009979248047 C363.2149963378906,-200.6009979248047 363.2149963378906,200.6009979248047 363.2149963378906,200.6009979248047z"></path></g></g><g transform="matrix(0.9995082020759583,-0.031358424574136734,0.031358424574136734,0.9995082020759583,-31.14990234375,4.79779052734375)" opacity="1" style="display: block;"><g opacity="1" transform="matrix(1,0,0,1,0,0)"><g opacity="1" transform="matrix(1,0,0,1,478.4469909667969,664.083984375)"><path stroke-linecap="round" stroke-linejoin="round" fill-opacity="0" stroke="rgb(32,40,112)" stroke-opacity="1" stroke-width="2" d=" M16.82900047302246,19.802000045776367 C16.82900047302246,19.802000045776367 -16.82900047302246,0 -16.82900047302246,0 C-16.82900047302246,0 16.82900047302246,-19.802000045776367 16.82900047302246,-19.802000045776367"></path></g><g opacity="1" transform="matrix(1,0,0,1,543.8369750976562,664.083984375)"><path stroke-linecap="round" stroke-linejoin="round" fill-opacity="0" stroke="rgb(32,40,112)" stroke-opacity="1" stroke-width="2" d=" M-16.82900047302246,19.802000045776367 C-16.82900047302246,19.802000045776367 16.82900047302246,0 16.82900047302246,0 C16.82900047302246,0 -16.82900047302246,-19.802000045776367 -16.82900047302246,-19.802000045776367"></path></g></g></g><g transform="matrix(0.9995082020759583,-0.031358424574136734,0.031358424574136734,0.9995082020759583,785.876220703125,899.9413452148438)" opacity="1" style="display: block;"><g opacity="1" transform="matrix(1,0,0,1,0,0)"><path fill="rgb(132,132,250)" fill-opacity="1" d=" M91.14810943603516,12.69670581817627 C91.14810943603516,12.69670581817627 -326.9360046386719,13.180999755859375 -326.9360046386719,13.180999755859375 C-326.9360046386719,13.180999755859375 -326.9360046386719,-13.180999755859375 -326.9360046386719,-13.180999755859375 C-326.9360046386719,-13.180999755859375 91.14810943603516,-13.665294647216797 91.14810943603516,-13.665294647216797 C91.14810943603516,-13.665294647216797 91.14810943603516,12.69670581817627 91.14810943603516,12.69670581817627z"></path><path stroke-linecap="round" stroke-linejoin="round" fill-opacity="0" stroke="rgb(32,40,112)" stroke-opacity="1" stroke-width="2" d=" M91.14810943603516,12.69670581817627 C91.14810943603516,12.69670581817627 -326.9360046386719,13.180999755859375 -326.9360046386719,13.180999755859375 C-326.9360046386719,13.180999755859375 -326.9360046386719,-13.180999755859375 -326.9360046386719,-13.180999755859375 C-326.9360046386719,-13.180999755859375 91.14810943603516,-13.665294647216797 91.14810943603516,-13.665294647216797 C91.14810943603516,-13.665294647216797 91.14810943603516,12.69670581817627 91.14810943603516,12.69670581817627z"></path></g></g><g transform="matrix(0.9995082020759583,-0.031358424574136734,0.031358424574136734,0.9995082020759583,783.1133422851562,811.877685546875)" opacity="1" style="display: block;"><g opacity="1" transform="matrix(1,0,0,1,0,0)"><path fill="rgb(132,132,250)" fill-opacity="1" d=" M119.0542221069336,13.388359069824219 C119.0542221069336,13.388359069824219 -326.9360046386719,13.180999755859375 -326.9360046386719,13.180999755859375 C-326.9360046386719,13.180999755859375 -326.9360046386719,-13.180999755859375 -326.9360046386719,-13.180999755859375 C-326.9360046386719,-13.180999755859375 119.0542221069336,-12.97311782836914 119.0542221069336,-12.97311782836914 C119.0542221069336,-12.97311782836914 119.0542221069336,13.388359069824219 119.0542221069336,13.388359069824219z"></path><path stroke-linecap="round" stroke-linejoin="round" fill-opacity="0" stroke="rgb(32,40,112)" stroke-opacity="1" stroke-width="2" d=" M119.0542221069336,13.388359069824219 C119.0542221069336,13.388359069824219 -326.9360046386719,13.180999755859375 -326.9360046386719,13.180999755859375 C-326.9360046386719,13.180999755859375 -326.9360046386719,-13.180999755859375 -326.9360046386719,-13.180999755859375 C-326.9360046386719,-13.180999755859375 119.0542221069336,-12.97311782836914 119.0542221069336,-12.97311782836914 C119.0542221069336,-12.97311782836914 119.0542221069336,13.388359069824219 119.0542221069336,13.388359069824219z"></path></g></g><g transform="matrix(0.9995082020759583,-0.031358424574136734,0.031358424574136734,0.9995082020759583,780.3504028320312,723.8130493164062)" opacity="1" style="display: block;"><g opacity="1" transform="matrix(1,0,0,1,0,0)"><path fill="rgb(132,132,250)" fill-opacity="1" d=" M326.9360046386719,13.180999755859375 C326.9360046386719,13.180999755859375 -326.9360046386719,13.180999755859375 -326.9360046386719,13.180999755859375 C-326.9360046386719,13.180999755859375 -326.9360046386719,-13.180999755859375 -326.9360046386719,-13.180999755859375 C-326.9360046386719,-13.180999755859375 326.9360046386719,-13.180999755859375 326.9360046386719,-13.180999755859375 C326.9360046386719,-13.180999755859375 326.9360046386719,13.180999755859375 326.9360046386719,13.180999755859375z"></path><path stroke-linecap="round" stroke-linejoin="round" fill-opacity="0" stroke="rgb(32,40,112)" stroke-opacity="1" stroke-width="2" d=" M326.9360046386719,13.180999755859375 C326.9360046386719,13.180999755859375 -326.9360046386719,13.180999755859375 -326.9360046386719,13.180999755859375 C-326.9360046386719,13.180999755859375 -326.9360046386719,-13.180999755859375 -326.9360046386719,-13.180999755859375 C-326.9360046386719,-13.180999755859375 326.9360046386719,-13.180999755859375 326.9360046386719,-13.180999755859375 C326.9360046386719,-13.180999755859375 326.9360046386719,13.180999755859375 326.9360046386719,13.180999755859375z"></path></g></g></g></g><clipPath id="__lottie_element_50"><path d="M0,0 L1600,0 L1600,1600 L0,1600z"></path></clipPath><mask id="__lottie_element_30_1" mask-type="alpha"><use xlink:href="#__lottie_element_30"></use></mask><clipPath id="__lottie_element_72"><path d="M0,0 L1600,0 L1600,1600 L0,1600z"></path></clipPath><clipPath id="__lottie_element_82"><path d="M0,0 L1600,0 L1600,1600 L0,1600z"></path></clipPath><clipPath id="__lottie_element_104"><path d="M0,0 L1600,0 L1600,1600 L0,1600z"></path></clipPath><clipPath id="__lottie_element_120"><path d="M0,0 L1600,0 L1600,1600 L0,1600z"></path></clipPath><clipPath id="__lottie_element_145"><path d="M0,0 L1600,0 L1600,1600 L0,1600z"></path></clipPath></defs><g clip-path="url(#__lottie_element_2)"><g transform="matrix(1,0,0,1,419.1929931640625,754.4530029296875)" opacity="1" style="display: block;"><g opacity="1" transform="matrix(1,0,0,1,0,0)"><path stroke-linecap="round" stroke-linejoin="round" fill-opacity="0" stroke-dasharray=" 100" stroke-dashoffset="0" stroke="rgb(32,40,112)" stroke-opacity="1" stroke-width="2" d=" M-73.0510025024414,-116.2979965209961 C-73.0510025024414,-116.2979965209961 -74.0510025024414,36.79800033569336 -74.0510025024414,36.79800033569336 C-74.0510025024414,36.79800033569336 74.0510025024414,36.79800033569336 74.0510025024414,36.79800033569336"></path></g></g><g clip-path="url(#__lottie_element_145)" transform="matrix(1,0,0,1,0,0)" opacity="1" style="display: block;"><g transform="matrix(1,0,0,1,800,800)" opacity="1" style="display: block;"><g opacity="1" transform="matrix(1,0,0,1,0,0)"><path fill="rgb(132,132,250)" fill-opacity="1" d=" M133.5,-538.0599975585938 C127.86000061035156,-546.1199951171875 121.4000015258789,-553.75 114.1500015258789,-560.8599853515625 C102.23999786376953,-572.5499877929688 89.0199966430664,-582.0399780273438 74.94000244140625,-589.3699951171875 C56.81999969482422,-598.8099975585938 37.27000045776367,-604.6500244140625 17.43000030517578,-606.8800048828125 C-31.059999465942383,-612.2999877929688 -81.44999694824219,-596.2100219726562 -118.26000213623047,-558.7000122070312 C-148.75999450683594,-527.6199951171875 -164.41000366210938,-487.489990234375 -165.24000549316406,-447.1400146484375 C-166.22000122070312,-403.3800048828125 -149.77999877929688,-359.3399963378906 -116.06999969482422,-326.260009765625 C-102.12000274658203,-312.57000732421875 -86.33999633789062,-301.8599853515625 -69.52999877929688,-294.19000244140625 C-62.150001525878906,-290.7900085449219 -54.61000061035156,-287.9700012207031 -46.88999938964844,-285.7799987792969 C9.300000190734863,-269.42999267578125 72.43000030517578,-283.739990234375 116.33999633789062,-328.4800109863281 C172.77000427246094,-385.9800109863281 178.3300018310547,-474.4700012207031 133.5,-538.0599975585938z M72.33999633789062,-371.6600036621094 C46.36000061035156,-345.17999267578125 9.510000228881836,-335.7300109863281 -24.170000076293945,-343.510009765625 C-30.399999618530273,-344.92999267578125 -36.52000045776367,-346.9599914550781 -42.40999984741211,-349.5899963378906 C-53.45000076293945,-354.3999938964844 -63.83000183105469,-361.32000732421875 -72.91999816894531,-370.239990234375 C-93.58000183105469,-390.5199890136719 -103.83999633789062,-417.3900146484375 -103.6500015258789,-444.2300109863281 C-103.51000213623047,-469.989990234375 -93.69999694824219,-495.7099914550781 -74.26000213623047,-515.52001953125 C-51.560001373291016,-538.6500244140625 -20.579999923706055,-548.760009765625 9.300000190734863,-545.780029296875 C21,-544.5999755859375 32.540000915527344,-541.4400024414062 43.349998474121094,-536.260009765625 C44.869998931884766,-535.5399780273438 46.369998931884766,-534.780029296875 47.86000061035156,-533.97998046875 C55.900001525878906,-529.6500244140625 63.43000030517578,-524.1799926757812 70.31999969482422,-517.530029296875 C70.55000305175781,-517.3300170898438 70.77999877929688,-517.1099853515625 71,-516.8900146484375 C82.87999725341797,-505.2300109863281 91.29000091552734,-491.4100036621094 96.30000305175781,-476.6600036621094 C108.3499984741211,-441.1499938964844 100.4000015258789,-400.260009765625 72.33999633789062,-371.6600036621094z"></path><path stroke-linecap="round" stroke-linejoin="round" fill-opacity="0" stroke="rgb(32,40,112)" stroke-opacity="1" stroke-width="2" d=" M133.5,-538.0599975585938 C127.86000061035156,-546.1199951171875 121.4000015258789,-553.75 114.1500015258789,-560.8599853515625 C102.23999786376953,-572.5499877929688 89.0199966430664,-582.0399780273438 74.94000244140625,-589.3699951171875 C56.81999969482422,-598.8099975585938 37.27000045776367,-604.6500244140625 17.43000030517578,-606.8800048828125 C-31.059999465942383,-612.2999877929688 -81.44999694824219,-596.2100219726562 -118.26000213623047,-558.7000122070312 C-148.75999450683594,-527.6199951171875 -164.41000366210938,-487.489990234375 -165.24000549316406,-447.1400146484375 C-166.22000122070312,-403.3800048828125 -149.77999877929688,-359.3399963378906 -116.06999969482422,-326.260009765625 C-102.12000274658203,-312.57000732421875 -86.33999633789062,-301.8599853515625 -69.52999877929688,-294.19000244140625 C-62.150001525878906,-290.7900085449219 -54.61000061035156,-287.9700012207031 -46.88999938964844,-285.7799987792969 C9.300000190734863,-269.42999267578125 72.43000030517578,-283.739990234375 116.33999633789062,-328.4800109863281 C172.77000427246094,-385.9800109863281 178.3300018310547,-474.4700012207031 133.5,-538.0599975585938z M72.33999633789062,-371.6600036621094 C46.36000061035156,-345.17999267578125 9.510000228881836,-335.7300109863281 -24.170000076293945,-343.510009765625 C-30.399999618530273,-344.92999267578125 -36.52000045776367,-346.9599914550781 -42.40999984741211,-349.5899963378906 C-53.45000076293945,-354.3999938964844 -63.83000183105469,-361.32000732421875 -72.91999816894531,-370.239990234375 C-93.58000183105469,-390.5199890136719 -103.83999633789062,-417.3900146484375 -103.6500015258789,-444.2300109863281 C-103.51000213623047,-469.989990234375 -93.69999694824219,-495.7099914550781 -74.26000213623047,-515.52001953125 C-51.560001373291016,-538.6500244140625 -20.579999923706055,-548.760009765625 9.300000190734863,-545.780029296875 C21,-544.5999755859375 32.540000915527344,-541.4400024414062 43.349998474121094,-536.260009765625 C44.869998931884766,-535.5399780273438 46.369998931884766,-534.780029296875 47.86000061035156,-533.97998046875 C55.900001525878906,-529.6500244140625 63.43000030517578,-524.1799926757812 70.31999969482422,-517.530029296875 C70.55000305175781,-517.3300170898438 70.77999877929688,-517.1099853515625 71,-516.8900146484375 C82.87999725341797,-505.2300109863281 91.29000091552734,-491.4100036621094 96.30000305175781,-476.6600036621094 C108.3499984741211,-441.1499938964844 100.4000015258789,-400.260009765625 72.33999633789062,-371.6600036621094z"></path></g></g><g transform="matrix(1,0,0,1,705.2650146484375,433.54400634765625)" opacity="1" style="display: block;"><g opacity="1" transform="matrix(1,0,0,1,0,0)"><path fill="rgb(255,255,255)" fill-opacity="1" d=" M47.8390007019043,80.6760025024414 C40.11899948120117,78.47899627685547 32.582000732421875,75.6719970703125 25.202999114990234,72.27799987792969 C8.39900016784668,64.59700012207031 -7.380000114440918,53.88800048828125 -21.33799934387207,40.189998626708984 C-55.04100036621094,7.114999771118164 -71.48400115966797,-36.93199920654297 -70.51499938964844,-80.6760025024414 C-70.51499938964844,-80.6760025024414 -8.92300033569336,-77.76899719238281 -8.92300033569336,-77.76899719238281 C-9.114999771118164,-50.928001403808594 1.152999997138977,-24.066999435424805 21.819000244140625,-3.7869999408721924 C30.91200065612793,5.136000156402588 41.27299880981445,12.059000015258789 52.316001892089844,16.868999481201172 C58.2140007019043,19.5049991607666 64.34100341796875,21.52899932861328 70.55500030517578,22.94499969482422 C62.92300033569336,42.486000061035156 55.01599884033203,62.590999603271484 47.8390007019043,80.6760025024414z"></path><path stroke-linecap="round" stroke-linejoin="round" fill-opacity="0" stroke="rgb(32,40,112)" stroke-opacity="1" stroke-width="2" d=" M47.8390007019043,80.6760025024414 C40.11899948120117,78.47899627685547 32.582000732421875,75.6719970703125 25.202999114990234,72.27799987792969 C8.39900016784668,64.59700012207031 -7.380000114440918,53.88800048828125 -21.33799934387207,40.189998626708984 C-55.04100036621094,7.114999771118164 -71.48400115966797,-36.93199920654297 -70.51499938964844,-80.6760025024414 C-70.51499938964844,-80.6760025024414 -8.92300033569336,-77.76899719238281 -8.92300033569336,-77.76899719238281 C-9.114999771118164,-50.928001403808594 1.152999997138977,-24.066999435424805 21.819000244140625,-3.7869999408721924 C30.91200065612793,5.136000156402588 41.27299880981445,12.059000015258789 52.316001892089844,16.868999481201172 C58.2140007019043,19.5049991607666 64.34100341796875,21.52899932861328 70.55500030517578,22.94499969482422 C62.92300033569336,42.486000061035156 55.01599884033203,62.590999603271484 47.8390007019043,80.6760025024414z"></path></g></g><g transform="matrix(1,0,0,1,871.4010009765625,258.23101806640625)" opacity="1" style="display: block;"><g opacity="1" transform="matrix(1,0,0,1,0,0)"><path fill="rgb(32,40,112)" fill-opacity="1" d=" M24.895000457763672,65.11100006103516 C19.88599967956543,50.35499954223633 11.482000350952148,36.542999267578125 -0.4009999930858612,24.881000518798828 C-0.6240000128746033,24.66200065612793 -0.8479999899864197,24.441999435424805 -1.0850000381469727,24.23699951171875 C-7.9679999351501465,17.591999053955078 -15.505000114440918,12.114999771118164 -23.54199981689453,7.790999889373779 C-25.030000686645508,6.988999843597412 -26.5310001373291,6.228000164031982 -28.04599952697754,5.508999824523926 C-38.85900115966797,0.32600000500679016 -50.39899826049805,-2.8299999237060547 -62.10100173950195,-4.006999969482422 C-62.10100173950195,-4.006999969482422 -53.972999572753906,-65.11100006103516 -53.972999572753906,-65.11100006103516 C-34.125999450683594,-62.875999450683594 -14.57800006866455,-57.04199981689453 3.5380001068115234,-47.59700012207031 C17.621999740600586,-40.27199935913086 30.840999603271484,-30.7810001373291 42.75199890136719,-19.091999053955078 C49.999000549316406,-11.979999542236328 56.4640007019043,-4.3480000495910645 62.10100173950195,3.7060000896453857 C62.10100173950195,3.7060000896453857 24.895000457763672,65.11100006103516 24.895000457763672,65.11100006103516z"></path><path stroke-linecap="round" stroke-linejoin="round" fill-opacity="0" stroke="rgb(32,40,112)" stroke-opacity="1" stroke-width="2" d=" M24.895000457763672,65.11100006103516 C19.88599967956543,50.35499954223633 11.482000350952148,36.542999267578125 -0.4009999930858612,24.881000518798828 C-0.6240000128746033,24.66200065612793 -0.8479999899864197,24.441999435424805 -1.0850000381469727,24.23699951171875 C-7.9679999351501465,17.591999053955078 -15.505000114440918,12.114999771118164 -23.54199981689453,7.790999889373779 C-25.030000686645508,6.988999843597412 -26.5310001373291,6.228000164031982 -28.04599952697754,5.508999824523926 C-38.85900115966797,0.32600000500679016 -50.39899826049805,-2.8299999237060547 -62.10100173950195,-4.006999969482422 C-62.10100173950195,-4.006999969482422 -53.972999572753906,-65.11100006103516 -53.972999572753906,-65.11100006103516 C-34.125999450683594,-62.875999450683594 -14.57800006866455,-57.04199981689453 3.5380001068115234,-47.59700012207031 C17.621999740600586,-40.27199935913086 30.840999603271484,-30.7810001373291 42.75199890136719,-19.091999053955078 C49.999000549316406,-11.979999542236328 56.4640007019043,-4.3480000495910645 62.10100173950195,3.7060000896453857 C62.10100173950195,3.7060000896453857 24.895000457763672,65.11100006103516 24.895000457763672,65.11100006103516z"></path></g></g><g transform="matrix(1,0,0,1,846.9199829101562,365.697998046875)" opacity="1" style="display: block;"><g opacity="1" transform="matrix(1,0,0,1,0,0)"><path fill="rgb(249,74,130)" fill-opacity="1" d=" M69.41999816894531,105.8239974975586 C25.51300048828125,150.56500244140625 -37.619998931884766,164.86900329589844 -93.80699920654297,148.5189971923828 C-101.53399658203125,146.33700561523438 -109.072998046875,143.51600646972656 -116.4520034790039,140.11300659179688 C-116.4520034790039,140.11300659179688 -89.33000183105469,84.71099853515625 -89.33000183105469,84.71099853515625 C-83.43900299072266,87.33999633789062 -77.31900024414062,89.37100219726562 -71.09400177001953,90.79299926757812 C-37.415000915527344,98.56900024414062 -0.5630000233650208,89.11900329589844 25.41900062561035,62.643001556396484 C53.48400115966797,34.04399871826172 61.42900085449219,-6.843999862670898 49.375999450683594,-42.35599899291992 C44.367000579833984,-57.11199951171875 35.9630012512207,-70.92400360107422 24.079999923706055,-82.58599853515625 C23.85700035095215,-82.80500030517578 23.632999420166016,-83.0250015258789 23.395999908447266,-83.2300033569336 C16.51300048828125,-89.875 8.97599983215332,-95.35199737548828 0.9390000104904175,-99.6760025024414 C-0.5490000247955322,-100.47799682617188 -2.049999952316284,-101.23899841308594 -3.565000057220459,-101.95800018310547 C-3.565000057220459,-101.95800018310547 28.018999099731445,-155.06399536132812 28.018999099731445,-155.06399536132812 C42.10300064086914,-147.73899841308594 55.321998596191406,-138.2480010986328 67.23300170898438,-126.55899810791016 C74.4800033569336,-119.4469985961914 80.94499969482422,-111.81500244140625 86.58200073242188,-103.76100158691406 C131.41099548339844,-40.16699981689453 125.85199737548828,48.31999969482422 69.41999816894531,105.8239974975586z"></path><path stroke-linecap="round" stroke-linejoin="round" fill-opacity="0" stroke="rgb(249,74,130)" stroke-opacity="1" stroke-width="2" d=" M69.41999816894531,105.8239974975586 C25.51300048828125,150.56500244140625 -37.619998931884766,164.86900329589844 -93.80699920654297,148.5189971923828 C-101.53399658203125,146.33700561523438 -109.072998046875,143.51600646972656 -116.4520034790039,140.11300659179688 C-116.4520034790039,140.11300659179688 -89.33000183105469,84.71099853515625 -89.33000183105469,84.71099853515625 C-83.43900299072266,87.33999633789062 -77.31900024414062,89.37100219726562 -71.09400177001953,90.79299926757812 C-37.415000915527344,98.56900024414062 -0.5630000233650208,89.11900329589844 25.41900062561035,62.643001556396484 C53.48400115966797,34.04399871826172 61.42900085449219,-6.843999862670898 49.375999450683594,-42.35599899291992 C44.367000579833984,-57.11199951171875 35.9630012512207,-70.92400360107422 24.079999923706055,-82.58599853515625 C23.85700035095215,-82.80500030517578 23.632999420166016,-83.0250015258789 23.395999908447266,-83.2300033569336 C16.51300048828125,-89.875 8.97599983215332,-95.35199737548828 0.9390000104904175,-99.6760025024414 C-0.5490000247955322,-100.47799682617188 -2.049999952316284,-101.23899841308594 -3.565000057220459,-101.95800018310547 C-3.565000057220459,-101.95800018310547 28.018999099731445,-155.06399536132812 28.018999099731445,-155.06399536132812 C42.10300064086914,-147.73899841308594 55.321998596191406,-138.2480010986328 67.23300170898438,-126.55899810791016 C74.4800033569336,-119.4469985961914 80.94499969482422,-111.81500244140625 86.58200073242188,-103.76100158691406 C131.41099548339844,-40.16699981689453 125.85199737548828,48.31999969482422 69.41999816894531,105.8239974975586z"></path></g></g></g><g clip-path="url(#__lottie_element_120)" transform="matrix(1,0,0,1,0,0)" opacity="1" style="display: block;"><g transform="matrix(1,0,0,1,0.0000019531250927684596,-0.00004003906360594556)" opacity="1" style="display: block;"><g opacity="1" transform="matrix(1,0,0,1,1074.447998046875,1179.6910400390625)"><path fill="rgb(255,255,255)" fill-opacity="1" d=" M211.0780029296875,129.69500732421875 C211.0780029296875,129.69500732421875 -211.0780029296875,129.69500732421875 -211.0780029296875,129.69500732421875 C-211.0780029296875,129.69500732421875 -211.0780029296875,-129.69500732421875 -211.0780029296875,-129.69500732421875 C-211.0780029296875,-129.69500732421875 211.0780029296875,-129.69500732421875 211.0780029296875,-129.69500732421875 C211.0780029296875,-129.69500732421875 211.0780029296875,129.69500732421875 211.0780029296875,129.69500732421875z"></path><path stroke-linecap="round" stroke-linejoin="round" fill-opacity="0" stroke="rgb(32,40,112)" stroke-opacity="1" stroke-width="2" d=" M211.0780029296875,129.69500732421875 C211.0780029296875,129.69500732421875 -211.0780029296875,129.69500732421875 -211.0780029296875,129.69500732421875 C-211.0780029296875,129.69500732421875 -211.0780029296875,-129.69500732421875 -211.0780029296875,-129.69500732421875 C-211.0780029296875,-129.69500732421875 211.0780029296875,-129.69500732421875 211.0780029296875,-129.69500732421875 C211.0780029296875,-129.69500732421875 211.0780029296875,129.69500732421875 211.0780029296875,129.69500732421875z"></path></g><g opacity="1" transform="matrix(1,0,0,1,1148.738037109375,1204.6820068359375)"><path fill="rgb(255,255,255)" fill-opacity="1" d=" M136.78799438476562,104.7040023803711 C136.78799438476562,104.7040023803711 -136.78799438476562,104.7040023803711 -136.78799438476562,104.7040023803711 C-136.78799438476562,104.7040023803711 -136.78799438476562,-104.7040023803711 -136.78799438476562,-104.7040023803711 C-136.78799438476562,-104.7040023803711 136.78799438476562,-104.7040023803711 136.78799438476562,-104.7040023803711 C136.78799438476562,-104.7040023803711 136.78799438476562,104.7040023803711 136.78799438476562,104.7040023803711z"></path><path stroke-linecap="round" stroke-linejoin="round" fill-opacity="0" stroke="rgb(32,40,112)" stroke-opacity="1" stroke-width="2" d=" M136.78799438476562,104.7040023803711 C136.78799438476562,104.7040023803711 -136.78799438476562,104.7040023803711 -136.78799438476562,104.7040023803711 C-136.78799438476562,104.7040023803711 -136.78799438476562,-104.7040023803711 -136.78799438476562,-104.7040023803711 C-136.78799438476562,-104.7040023803711 136.78799438476562,-104.7040023803711 136.78799438476562,-104.7040023803711 C136.78799438476562,-104.7040023803711 136.78799438476562,104.7040023803711 136.78799438476562,104.7040023803711z"></path></g><g opacity="1" transform="matrix(1,0,0,1,937.6599731445312,1204.6820068359375)"><path fill="rgb(255,255,255)" fill-opacity="1" d=" M74.29000091552734,104.7040023803711 C74.29000091552734,104.7040023803711 -74.29000091552734,104.7040023803711 -74.29000091552734,104.7040023803711 C-74.29000091552734,104.7040023803711 -74.29000091552734,-104.7040023803711 -74.29000091552734,-104.7040023803711 C-74.29000091552734,-104.7040023803711 74.29000091552734,-104.7040023803711 74.29000091552734,-104.7040023803711 C74.29000091552734,-104.7040023803711 74.29000091552734,104.7040023803711 74.29000091552734,104.7040023803711z"></path><path stroke-linecap="round" stroke-linejoin="round" fill-opacity="0" stroke="rgb(32,40,112)" stroke-opacity="1" stroke-width="2" d=" M74.29000091552734,104.7040023803711 C74.29000091552734,104.7040023803711 -74.29000091552734,104.7040023803711 -74.29000091552734,104.7040023803711 C-74.29000091552734,104.7040023803711 -74.29000091552734,-104.7040023803711 -74.29000091552734,-104.7040023803711 C-74.29000091552734,-104.7040023803711 74.29000091552734,-104.7040023803711 74.29000091552734,-104.7040023803711 C74.29000091552734,-104.7040023803711 74.29000091552734,104.7040023803711 74.29000091552734,104.7040023803711z"></path></g><g opacity="1" transform="matrix(1,0,0,1,1074.447998046875,1074.987060546875)"><path fill="rgb(132,132,250)" fill-opacity="1" d=" M211.0780029296875,24.990999221801758 C211.0780029296875,24.990999221801758 -211.0780029296875,24.990999221801758 -211.0780029296875,24.990999221801758 C-211.0780029296875,24.990999221801758 -211.0780029296875,-24.990999221801758 -211.0780029296875,-24.990999221801758 C-211.0780029296875,-24.990999221801758 211.0780029296875,-24.990999221801758 211.0780029296875,-24.990999221801758 C211.0780029296875,-24.990999221801758 211.0780029296875,24.990999221801758 211.0780029296875,24.990999221801758z"></path><path stroke-linecap="round" stroke-linejoin="round" fill-opacity="0" stroke="rgb(32,40,112)" stroke-opacity="1" stroke-width="2" d=" M211.0780029296875,24.990999221801758 C211.0780029296875,24.990999221801758 -211.0780029296875,24.990999221801758 -211.0780029296875,24.990999221801758 C-211.0780029296875,24.990999221801758 -211.0780029296875,-24.990999221801758 -211.0780029296875,-24.990999221801758 C-211.0780029296875,-24.990999221801758 211.0780029296875,-24.990999221801758 211.0780029296875,-24.990999221801758 C211.0780029296875,-24.990999221801758 211.0780029296875,24.990999221801758 211.0780029296875,24.990999221801758z"></path></g><g opacity="1" transform="matrix(1,0,0,1,1260.5350341796875,1074.987060546875)"><path fill="rgb(132,132,250)" fill-opacity="1" d=" M24.990999221801758,24.990999221801758 C24.990999221801758,24.990999221801758 -24.990999221801758,24.990999221801758 -24.990999221801758,24.990999221801758 C-24.990999221801758,24.990999221801758 -24.990999221801758,-24.990999221801758 -24.990999221801758,-24.990999221801758 C-24.990999221801758,-24.990999221801758 24.990999221801758,-24.990999221801758 24.990999221801758,-24.990999221801758 C24.990999221801758,-24.990999221801758 24.990999221801758,24.990999221801758 24.990999221801758,24.990999221801758z"></path><path stroke-linecap="round" stroke-linejoin="round" fill-opacity="0" stroke="rgb(32,40,112)" stroke-opacity="1" stroke-width="2" d=" M24.990999221801758,24.990999221801758 C24.990999221801758,24.990999221801758 -24.990999221801758,24.990999221801758 -24.990999221801758,24.990999221801758 C-24.990999221801758,24.990999221801758 -24.990999221801758,-24.990999221801758 -24.990999221801758,-24.990999221801758 C-24.990999221801758,-24.990999221801758 24.990999221801758,-24.990999221801758 24.990999221801758,-24.990999221801758 C24.990999221801758,-24.990999221801758 24.990999221801758,24.990999221801758 24.990999221801758,24.990999221801758z"></path></g><g opacity="1" transform="matrix(1,0,0,1,1260.5350341796875,1074.987060546875)"><path fill="rgb(255,255,255)" fill-opacity="1" d=" M-24.990999221801758,-24.990999221801758 C-24.990999221801758,-24.990999221801758 24.990999221801758,24.990999221801758 24.990999221801758,24.990999221801758"></path><path stroke-linecap="round" stroke-linejoin="round" fill-opacity="0" stroke="rgb(32,40,112)" stroke-opacity="1" stroke-width="2" d=" M-24.990999221801758,-24.990999221801758 C-24.990999221801758,-24.990999221801758 24.990999221801758,24.990999221801758 24.990999221801758,24.990999221801758"></path></g><g opacity="1" transform="matrix(1,0,0,1,1260.5350341796875,1074.987060546875)"><path fill="rgb(255,255,255)" fill-opacity="1" d=" M24.990999221801758,-24.990999221801758 C24.990999221801758,-24.990999221801758 -24.990999221801758,24.990999221801758 -24.990999221801758,24.990999221801758"></path><path stroke-linecap="round" stroke-linejoin="round" fill-opacity="0" stroke="rgb(32,40,112)" stroke-opacity="1" stroke-width="2" d=" M24.990999221801758,-24.990999221801758 C24.990999221801758,-24.990999221801758 -24.990999221801758,24.990999221801758 -24.990999221801758,24.990999221801758"></path></g></g><g transform="matrix(1,0,0,1,1.0000019073486328,-0.00004003906360594556)" opacity="1" style="display: block;"><g opacity="1" transform="matrix(1,0,0,1,1148.738037109375,1259.0889892578125)"><path fill="rgb(255,255,255)" fill-opacity="1" d=" M-95.99299621582031,0 C-95.99299621582031,0 95.99299621582031,0 95.99299621582031,0"></path><path stroke-linecap="round" stroke-linejoin="round" fill-opacity="0" stroke="rgb(32,40,112)" stroke-opacity="1" stroke-width="2" d=" M-95.99299621582031,0 C-95.99299621582031,0 95.99299621582031,0 95.99299621582031,0"></path></g></g><g transform="matrix(1,0,0,1,1.0000019073486328,-0.00004003906360594556)" opacity="1" style="display: block;"><g opacity="1" transform="matrix(1,0,0,1,1148.738037109375,1204.6820068359375)"><path fill="rgb(255,255,255)" fill-opacity="1" d=" M-95.99299621582031,0 C-95.99299621582031,0 95.99299621582031,0 95.99299621582031,0"></path><path stroke-linecap="round" stroke-linejoin="round" fill-opacity="0" stroke="rgb(32,40,112)" stroke-opacity="1" stroke-width="2" d=" M-95.99299621582031,0 C-95.99299621582031,0 95.99299621582031,0 95.99299621582031,0"></path></g></g><g transform="matrix(1,0,0,1,1.0000019073486328,0.9999599456787109)" opacity="1" style="display: block;"><g opacity="1" transform="matrix(1,0,0,1,1148.738037109375,1150.2750244140625)"><path fill="rgb(255,255,255)" fill-opacity="1" d=" M-95.99299621582031,0 C-95.99299621582031,0 95.99299621582031,0 95.99299621582031,0"></path><path stroke-linecap="round" stroke-linejoin="round" fill-opacity="0" stroke="rgb(32,40,112)" stroke-opacity="1" stroke-width="2" d=" M-95.99299621582031,0 C-95.99299621582031,0 95.99299621582031,0 95.99299621582031,0"></path></g></g><g transform="matrix(1,0,0,1,0.0000019531250927684596,-0.00004003906360594556)" opacity="1" style="display: block;"><g opacity="1" transform="matrix(1,0,0,1,937.6599731445312,1259.0889892578125)"><path fill="rgb(249,74,130)" fill-opacity="1" d=" M50.4630012512207,11.187000274658203 C50.4630012512207,11.187000274658203 -50.4630012512207,11.187000274658203 -50.4630012512207,11.187000274658203 C-50.4630012512207,11.187000274658203 -50.4630012512207,-11.187000274658203 -50.4630012512207,-11.187000274658203 C-50.4630012512207,-11.187000274658203 50.4630012512207,-11.187000274658203 50.4630012512207,-11.187000274658203 C50.4630012512207,-11.187000274658203 50.4630012512207,11.187000274658203 50.4630012512207,11.187000274658203z"></path></g></g><g transform="matrix(1,0,0,1,0.0000019531250927684596,-0.00004003906360594556)" opacity="1" style="display: block;"><g opacity="1" transform="matrix(1,0,0,1,937.6599731445312,1204.6820068359375)"><path fill="rgb(249,74,130)" fill-opacity="1" d=" M50.4630012512207,11.187000274658203 C50.4630012512207,11.187000274658203 -50.4630012512207,11.187000274658203 -50.4630012512207,11.187000274658203 C-50.4630012512207,11.187000274658203 -50.4630012512207,-11.187000274658203 -50.4630012512207,-11.187000274658203 C-50.4630012512207,-11.187000274658203 50.4630012512207,-11.187000274658203 50.4630012512207,-11.187000274658203 C50.4630012512207,-11.187000274658203 50.4630012512207,11.187000274658203 50.4630012512207,11.187000274658203z"></path></g></g><g transform="matrix(1,0,0,1,0.0000019531250927684596,0.4999599754810333)" opacity="1" style="display: block;"><g opacity="1" transform="matrix(1,0,0,1,937.6599731445312,1150.2750244140625)"><path fill="rgb(249,74,130)" fill-opacity="1" d=" M50.4630012512207,11.187000274658203 C50.4630012512207,11.187000274658203 -50.4630012512207,11.187000274658203 -50.4630012512207,11.187000274658203 C-50.4630012512207,11.187000274658203 -50.4630012512207,-11.187000274658203 -50.4630012512207,-11.187000274658203 C-50.4630012512207,-11.187000274658203 50.4630012512207,-11.187000274658203 50.4630012512207,-11.187000274658203 C50.4630012512207,-11.187000274658203 50.4630012512207,11.187000274658203 50.4630012512207,11.187000274658203z"></path></g></g></g><g clip-path="url(#__lottie_element_104)" transform="matrix(1,0,0,1,0,0)" opacity="1" style="display: block;"><g transform="matrix(0.9997087121009827,0.024135559797286987,-0.024135559797286987,0.9997087121009827,17.394485473632812,-6.9940185546875)" opacity="1" style="display: block;"><g opacity="1" transform="matrix(1,0,0,1,389.3240051269531,548.2020263671875)"><path fill="rgb(32,40,112)" fill-opacity="1" d=" M137.08299255371094,169.4530029296875 C137.08299255371094,169.4530029296875 -137.08299255371094,169.4530029296875 -137.08299255371094,169.4530029296875 C-137.08299255371094,169.4530029296875 -137.08299255371094,-169.4530029296875 -137.08299255371094,-169.4530029296875 C-137.08299255371094,-169.4530029296875 137.08299255371094,-169.4530029296875 137.08299255371094,-169.4530029296875 C137.08299255371094,-169.4530029296875 137.08299255371094,169.4530029296875 137.08299255371094,169.4530029296875z"></path></g><g opacity="1" transform="matrix(1,0,0,1,389.3240051269531,576.6099853515625)"><path fill="rgb(132,132,250)" fill-opacity="1" d=" M137.08299255371094,141.0449981689453 C137.08299255371094,141.0449981689453 -137.08299255371094,141.0449981689453 -137.08299255371094,141.0449981689453 C-137.08299255371094,141.0449981689453 -137.08299255371094,-141.0449981689453 -137.08299255371094,-141.0449981689453 C-137.08299255371094,-141.0449981689453 137.08299255371094,-141.0449981689453 137.08299255371094,-141.0449981689453 C137.08299255371094,-141.0449981689453 137.08299255371094,141.0449981689453 137.08299255371094,141.0449981689453z"></path><path stroke-linecap="round" stroke-linejoin="round" fill-opacity="0" stroke="rgb(32,40,112)" stroke-opacity="1" stroke-width="2" d=" M137.08299255371094,141.0449981689453 C137.08299255371094,141.0449981689453 -137.08299255371094,141.0449981689453 -137.08299255371094,141.0449981689453 C-137.08299255371094,141.0449981689453 -137.08299255371094,-141.0449981689453 -137.08299255371094,-141.0449981689453 C-137.08299255371094,-141.0449981689453 137.08299255371094,-141.0449981689453 137.08299255371094,-141.0449981689453 C137.08299255371094,-141.0449981689453 137.08299255371094,141.0449981689453 137.08299255371094,141.0449981689453z"></path></g></g><g transform="matrix(0.9997087121009827,0.024135559797286987,-0.024135559797286987,0.9997087121009827,17.394485473632812,-6.9940185546875)" opacity="1" style="display: block;"><g opacity="1" transform="matrix(1,0,0,1,0,0)"><g opacity="1" transform="matrix(1,0,0,1,309.8070068359375,653.2750244140625)"><path fill="rgb(255,255,255)" fill-opacity="1" d=" M20.65999984741211,0 C20.65999984741211,11.40999984741211 11.40999984741211,20.65999984741211 0,20.65999984741211 C-11.40999984741211,20.65999984741211 -20.65999984741211,11.40999984741211 -20.65999984741211,0 C-20.65999984741211,-11.40999984741211 -11.40999984741211,-20.65999984741211 0,-20.65999984741211 C11.40999984741211,-20.65999984741211 20.65999984741211,-11.40999984741211 20.65999984741211,0z"></path><path stroke-linecap="round" stroke-linejoin="round" fill-opacity="0" stroke="rgb(32,40,112)" stroke-opacity="1" stroke-width="2" d=" M20.65999984741211,0 C20.65999984741211,11.40999984741211 11.40999984741211,20.65999984741211 0,20.65999984741211 C-11.40999984741211,20.65999984741211 -20.65999984741211,11.40999984741211 -20.65999984741211,0 C-20.65999984741211,-11.40999984741211 -11.40999984741211,-20.65999984741211 0,-20.65999984741211 C11.40999984741211,-20.65999984741211 20.65999984741211,-11.40999984741211 20.65999984741211,0z"></path></g><g opacity="1" transform="matrix(1,0,0,1,422.2179870605469,653.2750244140625)"><path stroke-linecap="round" stroke-linejoin="round" fill-opacity="0" stroke="rgb(32,40,112)" stroke-opacity="1" stroke-width="2" d=" M-67.28299713134766,0 C-67.28299713134766,0 -64.34300231933594,0 -64.34300231933594,0 C-64.34300231933594,0 -58.34299850463867,0 -58.34299850463867,0 C-58.34299850463867,0 -53.71799850463867,0 -53.71799850463867,0 C-53.71799850463867,0 -46.96799850463867,0 -46.96799850463867,0 C-46.96799850463867,0 67.28299713134766,0 67.28299713134766,0"></path></g></g></g><g transform="matrix(0.9997087121009827,0.024135559797286987,-0.024135559797286987,0.9997087121009827,17.394485473632812,-6.9940185546875)" opacity="1" style="display: block;"><g opacity="1" transform="matrix(1,0,0,1,0,0)"><g opacity="1" transform="matrix(1,0,0,1,309.8070068359375,576.6099853515625)"><path fill="rgb(255,255,255)" fill-opacity="1" d=" M20.65999984741211,0 C20.65999984741211,11.40999984741211 11.40999984741211,20.65999984741211 0,20.65999984741211 C-11.40999984741211,20.65999984741211 -20.65999984741211,11.40999984741211 -20.65999984741211,0 C-20.65999984741211,-11.40999984741211 -11.40999984741211,-20.65999984741211 0,-20.65999984741211 C11.40999984741211,-20.65999984741211 20.65999984741211,-11.40999984741211 20.65999984741211,0z"></path><path stroke-linecap="round" stroke-linejoin="round" fill-opacity="0" stroke="rgb(32,40,112)" stroke-opacity="1" stroke-width="2" d=" M20.65999984741211,0 C20.65999984741211,11.40999984741211 11.40999984741211,20.65999984741211 0,20.65999984741211 C-11.40999984741211,20.65999984741211 -20.65999984741211,11.40999984741211 -20.65999984741211,0 C-20.65999984741211,-11.40999984741211 -11.40999984741211,-20.65999984741211 0,-20.65999984741211 C11.40999984741211,-20.65999984741211 20.65999984741211,-11.40999984741211 20.65999984741211,0z"></path></g><g opacity="1" transform="matrix(1,0,0,1,422.2179870605469,576.6099853515625)"><path stroke-linecap="round" stroke-linejoin="round" fill-opacity="0" stroke="rgb(32,40,112)" stroke-opacity="1" stroke-width="2" d=" M-67.28299713134766,0 C-67.28299713134766,0 -59.46799850463867,0 -59.46799850463867,0 C-59.46799850463867,0 -57.46799850463867,0 -57.46799850463867,0 C-57.46799850463867,0 -54.59299850463867,0 -54.59299850463867,0 C-54.59299850463867,0 -52.46799850463867,0 -52.46799850463867,0 C-52.46799850463867,0 -49.21799850463867,0 -49.21799850463867,0 C-49.21799850463867,0 67.28299713134766,0 67.28299713134766,0"></path></g></g></g><g transform="matrix(0.9997087121009827,0.024135559797286987,-0.024135559797286987,0.9997087121009827,17.394485473632812,-6.9940185546875)" opacity="1" style="display: block;"><g opacity="1" transform="matrix(1,0,0,1,0,0)"><g opacity="1" transform="matrix(1,0,0,1,309.8070068359375,499.94500732421875)"><path fill="rgb(255,255,255)" fill-opacity="1" d=" M20.65999984741211,0 C20.65999984741211,11.40999984741211 11.40999984741211,20.65999984741211 0,20.65999984741211 C-11.40999984741211,20.65999984741211 -20.65999984741211,11.40999984741211 -20.65999984741211,0 C-20.65999984741211,-11.40999984741211 -11.40999984741211,-20.65999984741211 0,-20.65999984741211 C11.40999984741211,-20.65999984741211 20.65999984741211,-11.40999984741211 20.65999984741211,0z"></path><path stroke-linecap="round" stroke-linejoin="round" fill-opacity="0" stroke="rgb(32,40,112)" stroke-opacity="1" stroke-width="2" d=" M20.65999984741211,0 C20.65999984741211,11.40999984741211 11.40999984741211,20.65999984741211 0,20.65999984741211 C-11.40999984741211,20.65999984741211 -20.65999984741211,11.40999984741211 -20.65999984741211,0 C-20.65999984741211,-11.40999984741211 -11.40999984741211,-20.65999984741211 0,-20.65999984741211 C11.40999984741211,-20.65999984741211 20.65999984741211,-11.40999984741211 20.65999984741211,0z"></path></g><g opacity="1" transform="matrix(1,0,0,1,422.2179870605469,499.94500732421875)"><path stroke-linecap="round" stroke-linejoin="round" fill-opacity="0" stroke="rgb(32,40,112)" stroke-opacity="1" stroke-width="2" d=" M-67.28299713134766,0 C-67.28299713134766,0 -64.21800231933594,0 -64.21800231933594,0 C-64.21800231933594,0 -57.43600082397461,-0.007000000216066837 -57.43600082397461,-0.007000000216066837 C-57.43600082397461,-0.007000000216066837 -51.46799850463867,0 -51.46799850463867,0 C-51.46799850463867,0 67.28299713134766,0 67.28299713134766,0"></path></g></g></g></g><g clip-path="url(#__lottie_element_82)" transform="matrix(1,0,0,1,0,0)" opacity="1" style="display: block;"><g transform="matrix(1,0,0,1,296.218994140625,1100.6400146484375)" opacity="1" style="display: block;"><g opacity="1" transform="matrix(1,0,0,1,0,0)"><path fill="rgb(132,132,250)" fill-opacity="1" d=" M11.6899995803833,0 C11.6899995803833,6.455999851226807 6.455999851226807,11.6899995803833 0,11.6899995803833 C-6.455999851226807,11.6899995803833 -11.6899995803833,6.455999851226807 -11.6899995803833,0 C-11.6899995803833,-6.455999851226807 -6.455999851226807,-11.6899995803833 0,-11.6899995803833 C6.455999851226807,-11.6899995803833 11.6899995803833,-6.455999851226807 11.6899995803833,0z"></path><path stroke-linecap="round" stroke-linejoin="round" fill-opacity="0" stroke="rgb(32,40,112)" stroke-opacity="1" stroke-width="2" d=" M11.6899995803833,0 C11.6899995803833,6.455999851226807 6.455999851226807,11.6899995803833 0,11.6899995803833 C-6.455999851226807,11.6899995803833 -11.6899995803833,6.455999851226807 -11.6899995803833,0 C-11.6899995803833,-6.455999851226807 -6.455999851226807,-11.6899995803833 0,-11.6899995803833 C6.455999851226807,-11.6899995803833 11.6899995803833,-6.455999851226807 11.6899995803833,0z"></path></g></g><g transform="matrix(1,0,0,1,378.4580078125,1068.5460205078125)" opacity="1" style="display: block;"><g opacity="1" transform="matrix(1,0,0,1,0,0)"><path fill="rgb(255,255,255)" fill-opacity="1" d=" M19.047000885009766,0 C19.047000885009766,10.519000053405762 10.519000053405762,19.047000885009766 0,19.047000885009766 C-10.519000053405762,19.047000885009766 -19.047000885009766,10.519000053405762 -19.047000885009766,0 C-19.047000885009766,-10.519000053405762 -10.519000053405762,-19.047000885009766 0,-19.047000885009766 C10.519000053405762,-19.047000885009766 19.047000885009766,-10.519000053405762 19.047000885009766,0z"></path><path stroke-linecap="round" stroke-linejoin="round" fill-opacity="0" stroke="rgb(32,40,112)" stroke-opacity="1" stroke-width="2" d=" M19.047000885009766,0 C19.047000885009766,10.519000053405762 10.519000053405762,19.047000885009766 0,19.047000885009766 C-10.519000053405762,19.047000885009766 -19.047000885009766,10.519000053405762 -19.047000885009766,0 C-19.047000885009766,-10.519000053405762 -10.519000053405762,-19.047000885009766 0,-19.047000885009766 C10.519000053405762,-19.047000885009766 19.047000885009766,-10.519000053405762 19.047000885009766,0z"></path></g></g><g transform="matrix(1,0,0,1,318.0159912109375,987.0390014648438)" opacity="1" style="display: block;"><g opacity="1" transform="matrix(1,0,0,1,0,0)"><path fill="rgb(249,74,130)" fill-opacity="1" d=" M12.505000114440918,0 C12.505000114440918,6.906000137329102 6.906000137329102,12.505000114440918 0,12.505000114440918 C-6.906000137329102,12.505000114440918 -12.505000114440918,6.906000137329102 -12.505000114440918,0 C-12.505000114440918,-6.906000137329102 -6.906000137329102,-12.505000114440918 0,-12.505000114440918 C6.906000137329102,-12.505000114440918 12.505000114440918,-6.906000137329102 12.505000114440918,0z"></path><path stroke-linecap="round" stroke-linejoin="round" fill-opacity="0" stroke="rgb(249,74,130)" stroke-opacity="1" stroke-width="2" d=" M12.505000114440918,0 C12.505000114440918,6.906000137329102 6.906000137329102,12.505000114440918 0,12.505000114440918 C-6.906000137329102,12.505000114440918 -12.505000114440918,6.906000137329102 -12.505000114440918,0 C-12.505000114440918,-6.906000137329102 -6.906000137329102,-12.505000114440918 0,-12.505000114440918 C6.906000137329102,-12.505000114440918 12.505000114440918,-6.906000137329102 12.505000114440918,0z"></path></g></g><g transform="matrix(1,0,0,1,1304.926025390625,902.6829833984375)" opacity="1" style="display: block;"><g opacity="1" transform="matrix(1,0,0,1,0,0)"><path fill="rgb(249,74,130)" fill-opacity="1" d=" M14.071000099182129,0 C14.071000099182129,7.770999908447266 7.770999908447266,14.071000099182129 0,14.071000099182129 C-7.770999908447266,14.071000099182129 -14.071000099182129,7.770999908447266 -14.071000099182129,0 C-14.071000099182129,-7.770999908447266 -7.770999908447266,-14.071000099182129 0,-14.071000099182129 C7.770999908447266,-14.071000099182129 14.071000099182129,-7.770999908447266 14.071000099182129,0z"></path><path stroke-linecap="round" stroke-linejoin="round" fill-opacity="0" stroke="rgb(249,74,130)" stroke-opacity="1" stroke-width="2" d=" M14.071000099182129,0 C14.071000099182129,7.770999908447266 7.770999908447266,14.071000099182129 0,14.071000099182129 C-7.770999908447266,14.071000099182129 -14.071000099182129,7.770999908447266 -14.071000099182129,0 C-14.071000099182129,-7.770999908447266 -7.770999908447266,-14.071000099182129 0,-14.071000099182129 C7.770999908447266,-14.071000099182129 14.071000099182129,-7.770999908447266 14.071000099182129,0z"></path></g></g><g transform="matrix(1,0,0,1,1263.237060546875,850.0479736328125)" opacity="1" style="display: block;"><g opacity="1" transform="matrix(1,0,0,1,0,0)"><path fill="rgb(255,255,255)" fill-opacity="1" d=" M7.935999870300293,0 C7.935999870300293,4.382999897003174 4.382999897003174,7.935999870300293 0,7.935999870300293 C-4.382999897003174,7.935999870300293 -7.935999870300293,4.382999897003174 -7.935999870300293,0 C-7.935999870300293,-4.382999897003174 -4.382999897003174,-7.935999870300293 0,-7.935999870300293 C4.382999897003174,-7.935999870300293 7.935999870300293,-4.382999897003174 7.935999870300293,0z"></path><path stroke-linecap="round" stroke-linejoin="round" fill-opacity="0" stroke="rgb(32,40,112)" stroke-opacity="1" stroke-width="2" d=" M7.935999870300293,0 C7.935999870300293,4.382999897003174 4.382999897003174,7.935999870300293 0,7.935999870300293 C-4.382999897003174,7.935999870300293 -7.935999870300293,4.382999897003174 -7.935999870300293,0 C-7.935999870300293,-4.382999897003174 -4.382999897003174,-7.935999870300293 0,-7.935999870300293 C4.382999897003174,-7.935999870300293 7.935999870300293,-4.382999897003174 7.935999870300293,0z"></path></g></g><g transform="matrix(1,0,0,1,1295.02197265625,800.6950073242188)" opacity="1" style="display: block;"><g opacity="1" transform="matrix(1,0,0,1,0,0)"><path fill="rgb(132,132,250)" fill-opacity="1" d=" M7.9019999504089355,0 C7.9019999504089355,4.363999843597412 4.363999843597412,7.9019999504089355 0,7.9019999504089355 C-4.363999843597412,7.9019999504089355 -7.9019999504089355,4.363999843597412 -7.9019999504089355,0 C-7.9019999504089355,-4.363999843597412 -4.363999843597412,-7.9019999504089355 0,-7.9019999504089355 C4.363999843597412,-7.9019999504089355 7.9019999504089355,-4.363999843597412 7.9019999504089355,0z"></path><path stroke-linecap="round" stroke-linejoin="round" fill-opacity="0" stroke="rgb(32,40,112)" stroke-opacity="1" stroke-width="2" d=" M7.9019999504089355,0 C7.9019999504089355,4.363999843597412 4.363999843597412,7.9019999504089355 0,7.9019999504089355 C-4.363999843597412,7.9019999504089355 -7.9019999504089355,4.363999843597412 -7.9019999504089355,0 C-7.9019999504089355,-4.363999843597412 -4.363999843597412,-7.9019999504089355 0,-7.9019999504089355 C4.363999843597412,-7.9019999504089355 7.9019999504089355,-4.363999843597412 7.9019999504089355,0z"></path></g></g></g><g clip-path="url(#__lottie_element_32)" transform="matrix(1,0,0,1,0,0)" opacity="1" style="display: block;"><g transform="matrix(0.9995082020759583,-0.031358424574136734,0.031358424574136734,0.9995082020759583,-31.14990234375,4.79779052734375)" opacity="1" style="display: block;"><g opacity="1" transform="matrix(1,0,0,1,788.5540161132812,799.4190063476562)"><path fill="rgb(255,255,255)" fill-opacity="1" d=" M363.2149963378906,200.6009979248047 C363.2149963378906,200.6009979248047 -363.2149963378906,200.6009979248047 -363.2149963378906,200.6009979248047 C-363.2149963378906,200.6009979248047 -363.2149963378906,-200.6009979248047 -363.2149963378906,-200.6009979248047 C-363.2149963378906,-200.6009979248047 363.2149963378906,-200.6009979248047 363.2149963378906,-200.6009979248047 C363.2149963378906,-200.6009979248047 363.2149963378906,200.6009979248047 363.2149963378906,200.6009979248047z"></path><path stroke-linecap="round" stroke-linejoin="round" fill-opacity="0" stroke="rgb(32,40,112)" stroke-opacity="1" stroke-width="2" d=" M363.2149963378906,200.6009979248047 C363.2149963378906,200.6009979248047 -363.2149963378906,200.6009979248047 -363.2149963378906,200.6009979248047 C-363.2149963378906,200.6009979248047 -363.2149963378906,-200.6009979248047 -363.2149963378906,-200.6009979248047 C-363.2149963378906,-200.6009979248047 363.2149963378906,-200.6009979248047 363.2149963378906,-200.6009979248047 C363.2149963378906,-200.6009979248047 363.2149963378906,200.6009979248047 363.2149963378906,200.6009979248047z"></path></g></g><g transform="matrix(0.9995082020759583,-0.031358424574136734,0.031358424574136734,0.9995082020759583,-31.14990234375,4.79779052734375)" opacity="1" style="display: block;"><g opacity="1" transform="matrix(1,0,0,1,0,0)"><g opacity="1" transform="matrix(1,0,0,1,478.4469909667969,664.083984375)"><path stroke-linecap="round" stroke-linejoin="round" fill-opacity="0" stroke="rgb(32,40,112)" stroke-opacity="1" stroke-width="2" d=" M16.82900047302246,19.802000045776367 C16.82900047302246,19.802000045776367 -16.82900047302246,0 -16.82900047302246,0 C-16.82900047302246,0 16.82900047302246,-19.802000045776367 16.82900047302246,-19.802000045776367"></path></g><g opacity="1" transform="matrix(1,0,0,1,543.8369750976562,664.083984375)"><path stroke-linecap="round" stroke-linejoin="round" fill-opacity="0" stroke="rgb(32,40,112)" stroke-opacity="1" stroke-width="2" d=" M-16.82900047302246,19.802000045776367 C-16.82900047302246,19.802000045776367 16.82900047302246,0 16.82900047302246,0 C16.82900047302246,0 -16.82900047302246,-19.802000045776367 -16.82900047302246,-19.802000045776367"></path></g></g></g><g transform="matrix(0.9995082020759583,-0.031358424574136734,0.031358424574136734,0.9995082020759583,785.876220703125,899.9413452148438)" opacity="1" style="display: block;"><g opacity="1" transform="matrix(1,0,0,1,0,0)"><path fill="rgb(132,132,250)" fill-opacity="1" d=" M91.14810943603516,12.69670581817627 C91.14810943603516,12.69670581817627 -326.9360046386719,13.180999755859375 -326.9360046386719,13.180999755859375 C-326.9360046386719,13.180999755859375 -326.9360046386719,-13.180999755859375 -326.9360046386719,-13.180999755859375 C-326.9360046386719,-13.180999755859375 91.14810943603516,-13.665294647216797 91.14810943603516,-13.665294647216797 C91.14810943603516,-13.665294647216797 91.14810943603516,12.69670581817627 91.14810943603516,12.69670581817627z"></path><path stroke-linecap="round" stroke-linejoin="round" fill-opacity="0" stroke="rgb(32,40,112)" stroke-opacity="1" stroke-width="2" d=" M91.14810943603516,12.69670581817627 C91.14810943603516,12.69670581817627 -326.9360046386719,13.180999755859375 -326.9360046386719,13.180999755859375 C-326.9360046386719,13.180999755859375 -326.9360046386719,-13.180999755859375 -326.9360046386719,-13.180999755859375 C-326.9360046386719,-13.180999755859375 91.14810943603516,-13.665294647216797 91.14810943603516,-13.665294647216797 C91.14810943603516,-13.665294647216797 91.14810943603516,12.69670581817627 91.14810943603516,12.69670581817627z"></path></g></g><g transform="matrix(0.9995082020759583,-0.031358424574136734,0.031358424574136734,0.9995082020759583,783.1133422851562,811.877685546875)" opacity="1" style="display: block;"><g opacity="1" transform="matrix(1,0,0,1,0,0)"><path fill="rgb(132,132,250)" fill-opacity="1" d=" M119.0542221069336,13.388359069824219 C119.0542221069336,13.388359069824219 -326.9360046386719,13.180999755859375 -326.9360046386719,13.180999755859375 C-326.9360046386719,13.180999755859375 -326.9360046386719,-13.180999755859375 -326.9360046386719,-13.180999755859375 C-326.9360046386719,-13.180999755859375 119.0542221069336,-12.97311782836914 119.0542221069336,-12.97311782836914 C119.0542221069336,-12.97311782836914 119.0542221069336,13.388359069824219 119.0542221069336,13.388359069824219z"></path><path stroke-linecap="round" stroke-linejoin="round" fill-opacity="0" stroke="rgb(32,40,112)" stroke-opacity="1" stroke-width="2" d=" M119.0542221069336,13.388359069824219 C119.0542221069336,13.388359069824219 -326.9360046386719,13.180999755859375 -326.9360046386719,13.180999755859375 C-326.9360046386719,13.180999755859375 -326.9360046386719,-13.180999755859375 -326.9360046386719,-13.180999755859375 C-326.9360046386719,-13.180999755859375 119.0542221069336,-12.97311782836914 119.0542221069336,-12.97311782836914 C119.0542221069336,-12.97311782836914 119.0542221069336,13.388359069824219 119.0542221069336,13.388359069824219z"></path></g></g><g transform="matrix(0.9995082020759583,-0.031358424574136734,0.031358424574136734,0.9995082020759583,780.3504028320312,723.8130493164062)" opacity="1" style="display: block;"><g opacity="1" transform="matrix(1,0,0,1,0,0)"><path fill="rgb(132,132,250)" fill-opacity="1" d=" M326.9360046386719,13.180999755859375 C326.9360046386719,13.180999755859375 -326.9360046386719,13.180999755859375 -326.9360046386719,13.180999755859375 C-326.9360046386719,13.180999755859375 -326.9360046386719,-13.180999755859375 -326.9360046386719,-13.180999755859375 C-326.9360046386719,-13.180999755859375 326.9360046386719,-13.180999755859375 326.9360046386719,-13.180999755859375 C326.9360046386719,-13.180999755859375 326.9360046386719,13.180999755859375 326.9360046386719,13.180999755859375z"></path><path stroke-linecap="round" stroke-linejoin="round" fill-opacity="0" stroke="rgb(32,40,112)" stroke-opacity="1" stroke-width="2" d=" M326.9360046386719,13.180999755859375 C326.9360046386719,13.180999755859375 -326.9360046386719,13.180999755859375 -326.9360046386719,13.180999755859375 C-326.9360046386719,13.180999755859375 -326.9360046386719,-13.180999755859375 -326.9360046386719,-13.180999755859375 C-326.9360046386719,-13.180999755859375 326.9360046386719,-13.180999755859375 326.9360046386719,-13.180999755859375 C326.9360046386719,-13.180999755859375 326.9360046386719,13.180999755859375 326.9360046386719,13.180999755859375z"></path></g></g></g><g clip-path="url(#__lottie_element_72)" transform="matrix(1,0,0,1,0,0)" opacity="1" style="display: block;"><g transform="matrix(1,0,0,1,1158.425048828125,740.5549926757812)" opacity="1" style="display: block;"><g opacity="1" transform="matrix(1,0,0,1,0,0)"><path fill="rgb(32,40,112)" fill-opacity="1" d=" M41.98500061035156,-16.135000228881836 C41.98500061035156,-16.135000228881836 34.96500015258789,-28.28499984741211 34.96500015258789,-28.28499984741211 C34.96500015258789,-28.28499984741211 36.375,-41.255001068115234 36.375,-41.255001068115234 C36.375,-41.255001068115234 17.545000076293945,-52.1349983215332 17.545000076293945,-52.1349983215332 C17.545000076293945,-52.1349983215332 7.014999866485596,-44.42499923706055 7.014999866485596,-44.42499923706055 C7.014999866485596,-44.42499923706055 -7.014999866485596,-44.42499923706055 -7.014999866485596,-44.42499923706055 C-7.014999866485596,-44.42499923706055 -17.545000076293945,-52.1349983215332 -17.545000076293945,-52.1349983215332 C-17.545000076293945,-52.1349983215332 -36.375,-41.255001068115234 -36.375,-41.255001068115234 C-36.375,-41.255001068115234 -34.96500015258789,-28.28499984741211 -34.96500015258789,-28.28499984741211 C-34.96500015258789,-28.28499984741211 -41.98500061035156,-16.135000228881836 -41.98500061035156,-16.135000228881836 C-41.98500061035156,-16.135000228881836 -53.92499923706055,-10.864999771118164 -53.92499923706055,-10.864999771118164 C-53.92499923706055,-10.864999771118164 -53.92499923706055,10.875 -53.92499923706055,10.875 C-53.92499923706055,10.875 -41.98500061035156,16.135000228881836 -41.98500061035156,16.135000228881836 C-41.98500061035156,16.135000228881836 -34.96500015258789,28.295000076293945 -34.96500015258789,28.295000076293945 C-34.96500015258789,28.295000076293945 -36.375,41.26499938964844 -36.375,41.26499938964844 C-36.375,41.26499938964844 -17.545000076293945,52.1349983215332 -17.545000076293945,52.1349983215332 C-17.545000076293945,52.1349983215332 -7.014999866485596,44.435001373291016 -7.014999866485596,44.435001373291016 C-7.014999866485596,44.435001373291016 7.014999866485596,44.435001373291016 7.014999866485596,44.435001373291016 C7.014999866485596,44.435001373291016 17.545000076293945,52.1349983215332 17.545000076293945,52.1349983215332 C17.545000076293945,52.1349983215332 36.375,41.26499938964844 36.375,41.26499938964844 C36.375,41.26499938964844 34.96500015258789,28.295000076293945 34.96500015258789,28.295000076293945 C34.96500015258789,28.295000076293945 41.98500061035156,16.135000228881836 41.98500061035156,16.135000228881836 C41.98500061035156,16.135000228881836 53.92499923706055,10.875 53.92499923706055,10.875 C53.92499923706055,10.875 53.92499923706055,-10.864999771118164 53.92499923706055,-10.864999771118164 C53.92499923706055,-10.864999771118164 41.98500061035156,-16.135000228881836 41.98500061035156,-16.135000228881836z M-0.004999999888241291,19.094999313354492 C-10.545000076293945,19.094999313354492 -19.094999313354492,10.545000076293945 -19.094999313354492,0.004999999888241291 C-19.094999313354492,-10.545000076293945 -10.545000076293945,-19.084999084472656 -0.004999999888241291,-19.084999084472656 C10.545000076293945,-19.084999084472656 19.094999313354492,-10.545000076293945 19.094999313354492,0.004999999888241291 C19.094999313354492,10.545000076293945 10.545000076293945,19.094999313354492 -0.004999999888241291,19.094999313354492z"></path></g></g><g transform="matrix(1,0,0,1,634.5800170898438,598.8150024414062)" opacity="1" style="display: block;"><g opacity="1" transform="matrix(1,0,0,1,0,0)"><path fill="rgb(32,40,112)" fill-opacity="1" d=" M48.720001220703125,-18.725000381469727 C48.720001220703125,-18.725000381469727 40.58000183105469,-32.82500076293945 40.58000183105469,-32.82500076293945 C40.58000183105469,-32.82500076293945 42.209999084472656,-47.875 42.209999084472656,-47.875 C42.209999084472656,-47.875 20.360000610351562,-60.494998931884766 20.360000610351562,-60.494998931884766 C20.360000610351562,-60.494998931884766 8.149999618530273,-51.55500030517578 8.149999618530273,-51.55500030517578 C8.149999618530273,-51.55500030517578 -8.140000343322754,-51.55500030517578 -8.140000343322754,-51.55500030517578 C-8.140000343322754,-51.55500030517578 -20.360000610351562,-60.494998931884766 -20.360000610351562,-60.494998931884766 C-20.360000610351562,-60.494998931884766 -42.209999084472656,-47.875 -42.209999084472656,-47.875 C-42.209999084472656,-47.875 -40.56999969482422,-32.82500076293945 -40.56999969482422,-32.82500076293945 C-40.56999969482422,-32.82500076293945 -48.720001220703125,-18.725000381469727 -48.720001220703125,-18.725000381469727 C-48.720001220703125,-18.725000381469727 -62.56999969482422,-12.614999771118164 -62.56999969482422,-12.614999771118164 C-62.56999969482422,-12.614999771118164 -62.56999969482422,12.614999771118164 -62.56999969482422,12.614999771118164 C-62.56999969482422,12.614999771118164 -48.720001220703125,18.725000381469727 -48.720001220703125,18.725000381469727 C-48.720001220703125,18.725000381469727 -40.56999969482422,32.834999084472656 -40.56999969482422,32.834999084472656 C-40.56999969482422,32.834999084472656 -42.209999084472656,47.8849983215332 -42.209999084472656,47.8849983215332 C-42.209999084472656,47.8849983215332 -20.360000610351562,60.494998931884766 -20.360000610351562,60.494998931884766 C-20.360000610351562,60.494998931884766 -8.140000343322754,51.55500030517578 -8.140000343322754,51.55500030517578 C-8.140000343322754,51.55500030517578 8.149999618530273,51.55500030517578 8.149999618530273,51.55500030517578 C8.149999618530273,51.55500030517578 20.360000610351562,60.494998931884766 20.360000610351562,60.494998931884766 C20.360000610351562,60.494998931884766 42.209999084472656,47.8849983215332 42.209999084472656,47.8849983215332 C42.209999084472656,47.8849983215332 40.58000183105469,32.834999084472656 40.58000183105469,32.834999084472656 C40.58000183105469,32.834999084472656 48.720001220703125,18.725000381469727 48.720001220703125,18.725000381469727 C48.720001220703125,18.725000381469727 62.56999969482422,12.614999771118164 62.56999969482422,12.614999771118164 C62.56999969482422,12.614999771118164 62.56999969482422,-12.614999771118164 62.56999969482422,-12.614999771118164 C62.56999969482422,-12.614999771118164 48.720001220703125,-18.725000381469727 48.720001220703125,-18.725000381469727z M0,22.155000686645508 C-12.229999542236328,22.155000686645508 -22.149999618530273,12.234999656677246 -22.149999618530273,0.004999999888241291 C-22.149999618530273,-12.234999656677246 -12.229999542236328,-22.155000686645508 0,-22.155000686645508 C12.239999771118164,-22.155000686645508 22.149999618530273,-12.234999656677246 22.149999618530273,0.004999999888241291 C22.149999618530273,12.234999656677246 12.239999771118164,22.155000686645508 0,22.155000686645508z"></path></g></g></g><g mask="url(#__lottie_element_30_1)" style="display: block;"><g transform="matrix(1,0,0,1,1018.9769897460938,625.302001953125)" opacity="1"><g opacity="1" transform="matrix(1,0,0,1,0,0)"><path fill="rgb(32,40,112)" fill-opacity="1" d=" M-33.847999572753906,26.378999710083008 C-0.6019999980926514,23.607999801635742 25.506999969482422,3.5169999599456787 44.75899887084961,-20.361000061035156 C46.3849983215332,-22.378000259399414 79.52400207519531,-74.302001953125 82.24099731445312,-86.73400115966797 C82.24099731445312,-86.73400115966797 5.866000175476074,-86.73400115966797 5.866000175476074,-86.73400115966797 C4.25,-84.28700256347656 -30.128000259399414,-21.59600067138672 -31.73699951171875,-19.143999099731445 C-35.51599884033203,-13.381999969482422 -39.1870002746582,-7.552000045776367 -42.34299850463867,-1.4019999504089355 C-45.566001892089844,4.877999782562256 -48.505001068115234,11.664999961853027 -49.44900131225586,18.722999572753906 C-50.09199905395508,23.527000427246094 -43.13800048828125,27.152999877929688 -33.847999572753906,26.378999710083008z"></path></g></g></g><g transform="matrix(1,0,0,1,1026.04296875,448.9739990234375)" opacity="1" style="display: block;"><g opacity="1" transform="matrix(1,0,0,1,0,0)"><path fill="rgb(255,255,255)" fill-opacity="1" d=" M9.97700023651123,45.92900085449219 C9.97700023651123,45.92900085449219 -20.7189998626709,54.797000885009766 -33.68000030517578,41.83599853515625 C-46.64099884033203,28.875 -12.486000061035156,0.28200000524520874 -3.6659998893737793,-7.2779998779296875 C5.883999824523926,-15.46399974822998 36.58100128173828,-48.888999938964844 36.58100128173828,-48.888999938964844"></path><path stroke-linecap="round" stroke-linejoin="round" fill-opacity="0" stroke="rgb(32,40,112)" stroke-opacity="1" stroke-width="2" d=" M9.97700023651123,45.92900085449219 C9.97700023651123,45.92900085449219 -20.7189998626709,54.797000885009766 -33.68000030517578,41.83599853515625 C-46.64099884033203,28.875 -12.486000061035156,0.28200000524520874 -3.6659998893737793,-7.2779998779296875 C5.883999824523926,-15.46399974822998 36.58100128173828,-48.888999938964844 36.58100128173828,-48.888999938964844"></path></g></g><g transform="matrix(1,0,0,1,0,0)" opacity="1" style="display: block;"><g opacity="1" transform="matrix(1,0,0,1,1005.43798828125,605.75)"><path fill="rgb(255,255,255)" fill-opacity="1" d=" M0,-23.76099967956543 C13.123000144958496,-23.76099967956543 23.76099967956543,-13.123000144958496 23.76099967956543,0 C23.76099967956543,13.123000144958496 13.123000144958496,23.76099967956543 0,23.76099967956543 C-13.123000144958496,23.76099967956543 -23.76099967956543,13.123000144958496 -23.76099967956543,0 C-23.76099967956543,-13.123000144958496 -13.123000144958496,-23.76099967956543 0,-23.76099967956543z"></path><path stroke-linecap="round" stroke-linejoin="round" fill-opacity="0" stroke="rgb(32,40,112)" stroke-opacity="1" stroke-width="2" d=" M0,-23.76099967956543 C13.123000144958496,-23.76099967956543 23.76099967956543,-13.123000144958496 23.76099967956543,0 C23.76099967956543,13.123000144958496 13.123000144958496,23.76099967956543 0,23.76099967956543 C-13.123000144958496,23.76099967956543 -23.76099967956543,13.123000144958496 -23.76099967956543,0 C-23.76099967956543,-13.123000144958496 -13.123000144958496,-23.76099967956543 0,-23.76099967956543z"></path></g><g opacity="1" transform="matrix(1,0,0,1,993.1710205078125,623.2410278320312)"><path fill="rgb(255,255,255)" fill-opacity="1" d=" M-7.767000198364258,-29.243999481201172 C-7.767000198364258,-29.243999481201172 -28.878999710083008,2.0510001182556152 -31.607999801635742,16.60300064086914 C-34.33700180053711,31.155000686645508 -12.859999656677246,31.329999923706055 -0.2290000021457672,26.152999877929688 C16.80699920654297,19.17099952697754 31.844999313354492,-3.569999933242798 31.844999313354492,-3.569999933242798"></path><path stroke-linecap="round" stroke-linejoin="round" fill-opacity="0" stroke="rgb(32,40,112)" stroke-opacity="1" stroke-width="2" d=" M-7.767000198364258,-29.243999481201172 C-7.767000198364258,-29.243999481201172 -28.878999710083008,2.0510001182556152 -31.607999801635742,16.60300064086914 C-34.33700180053711,31.155000686645508 -12.859999656677246,31.329999923706055 -0.2290000021457672,26.152999877929688 C16.80699920654297,19.17099952697754 31.844999313354492,-3.569999933242798 31.844999313354492,-3.569999933242798"></path></g></g><g transform="matrix(1,0,0,1,0,0)" opacity="1" style="display: block;"><g opacity="1" transform="matrix(1,0,0,1,1043.5240478515625,531.9650268554688)"><path fill="rgb(255,255,255)" fill-opacity="1" d=" M0,-30.923999786376953 C17.07900047302246,-30.923999786376953 30.923999786376953,-17.07900047302246 30.923999786376953,0 C30.923999786376953,17.07900047302246 17.07900047302246,30.923999786376953 0,30.923999786376953 C-17.07900047302246,30.923999786376953 -30.923999786376953,17.07900047302246 -30.923999786376953,0 C-30.923999786376953,-17.07900047302246 -17.07900047302246,-30.923999786376953 0,-30.923999786376953z"></path><path stroke-linecap="round" stroke-linejoin="round" fill-opacity="0" stroke="rgb(32,40,112)" stroke-opacity="1" stroke-width="2" d=" M0,-30.923999786376953 C17.07900047302246,-30.923999786376953 30.923999786376953,-17.07900047302246 30.923999786376953,0 C30.923999786376953,17.07900047302246 17.07900047302246,30.923999786376953 0,30.923999786376953 C-17.07900047302246,30.923999786376953 -30.923999786376953,17.07900047302246 -30.923999786376953,0 C-30.923999786376953,-17.07900047302246 -17.07900047302246,-30.923999786376953 0,-30.923999786376953z"></path></g><g opacity="1" transform="matrix(1,0,0,1,1028.6510009765625,566.697998046875)"><path fill="rgb(255,255,255)" fill-opacity="1" d=" M-43.52299880981445,27.299999237060547 C-43.52299880981445,27.299999237060547 -13.095000267028809,-50.30799865722656 -13.095000267028809,-50.30799865722656 C-13.095000267028809,-50.30799865722656 43.52299880981445,-21.999000549316406 43.52299880981445,-21.999000549316406 C28.516000747680664,6.992000102996826 -2.86299991607666,50.30799865722656 -2.86299991607666,50.30799865722656"></path><path stroke-linecap="round" stroke-linejoin="round" fill-opacity="0" stroke="rgb(32,40,112)" stroke-opacity="1" stroke-width="2" d=" M-43.52299880981445,27.299999237060547 C-43.52299880981445,27.299999237060547 -13.095000267028809,-50.30799865722656 -13.095000267028809,-50.30799865722656 C-13.095000267028809,-50.30799865722656 43.52299880981445,-21.999000549316406 43.52299880981445,-21.999000549316406 C28.516000747680664,6.992000102996826 -2.86299991607666,50.30799865722656 -2.86299991607666,50.30799865722656"></path></g></g><g transform="matrix(1,0,0,1,0,0)" opacity="1" style="display: block;"><g opacity="1" transform="matrix(1,0,0,1,1253.623046875,356.4280090332031)"><path fill="rgb(255,255,255)" fill-opacity="1" d=" M0,-94.13500213623047 C51.98899841308594,-94.13500213623047 94.13500213623047,-51.98899841308594 94.13500213623047,0 C94.13500213623047,51.98899841308594 51.98899841308594,94.13500213623047 0,94.13500213623047 C-51.98899841308594,94.13500213623047 -94.13500213623047,51.98899841308594 -94.13500213623047,0 C-94.13500213623047,-51.98899841308594 -51.98899841308594,-94.13500213623047 0,-94.13500213623047z"></path></g><g opacity="1" transform="matrix(1,0,0,1,1169.531982421875,424.4859924316406)"><path fill="rgb(255,255,255)" fill-opacity="1" d=" M32.93000030517578,-147.18600463867188 C32.93000030517578,-147.18600463867188 -56.8849983215332,-94.88899993896484 -94.17500305175781,-43.04600143432617 C-131.46499633789062,8.79699993133545 -154.99899291992188,96.33799743652344 -154.99899291992188,96.33799743652344 C-154.99899291992188,96.33799743652344 -97.35800170898438,123.6240005493164 -97.35800170898438,123.6240005493164 C-97.35800170898438,123.6240005493164 -77.8030014038086,148.86300659179688 -47.78900146484375,136.1300048828125 C-47.78900146484375,136.1300048828125 -14.13700008392334,157.95799255371094 8.60099983215332,139.76800537109375 C8.60099983215332,139.76800537109375 85,157.04800415039062 91.36699676513672,138.85800170898438 C97.73400115966797,120.66799926757812 65.9010009765625,103.38700103759766 40.433998107910156,100.65799713134766 C40.433998107910156,100.65799713134766 50.43899917602539,66.09700012207031 50.43899917602539,66.09700012207031 C50.43899917602539,66.09700012207031 141.3560028076172,20.229999542236328 154.99899291992188,-6.145999908447266"></path></g><g opacity="1" transform="matrix(1,0,0,1,1198.35302734375,495.0050048828125)"><path stroke-linecap="round" stroke-linejoin="round" fill-opacity="0" stroke="rgb(32,40,112)" stroke-opacity="1" stroke-width="2" d=" M-126.17900085449219,53.104000091552734 C-126.17900085449219,53.104000091552734 -106.6240005493164,78.34300231933594 -76.61000061035156,65.61000061035156 C-76.61000061035156,65.61000061035156 -42.95800018310547,87.43800354003906 -20.219999313354492,69.24800109863281 C-20.219999313354492,69.24800109863281 56.18000030517578,86.52799987792969 62.547000885009766,68.33799743652344 C68.91400146484375,50.14799880981445 37.08000183105469,32.86800003051758 11.61299991607666,30.138999938964844 C11.61299991607666,30.138999938964844 21.618000030517578,-4.422999858856201 21.618000030517578,-4.422999858856201 C21.618000030517578,-4.422999858856201 112.53600311279297,-50.290000915527344 126.17900085449219,-76.66600036621094"></path></g><g opacity="1" transform="matrix(1,0,0,1,1108.498046875,399.06201171875)"><path stroke-linecap="round" stroke-linejoin="round" fill-opacity="0" stroke="rgb(32,40,112)" stroke-opacity="1" stroke-width="2" d=" M93.96499633789062,-121.76200103759766 C93.96499633789062,-121.76200103759766 4.14900016784668,-69.46499633789062 -33.14099884033203,-17.621999740600586 C-70.43099975585938,34.22100067138672 -93.96499633789062,121.76200103759766 -93.96499633789062,121.76200103759766"></path></g><g opacity="1" transform="matrix(1,0,0,1,1072.7080078125,514.0020141601562)"><path fill="rgb(255,255,255)" fill-opacity="1" d=" M2.877000093460083,37.85900115966797 C2.877000093460083,37.85900115966797 -5.948999881744385,29.201000213623047 -3.944999933242798,7.1620001792907715 C-1.8990000486373901,-15.348999977111816 4.241000175476074,-37.85900115966797 4.241000175476074,-37.85900115966797"></path><path stroke-linecap="round" stroke-linejoin="round" fill-opacity="0" stroke="rgb(32,40,112)" stroke-opacity="1" stroke-width="2" d=" M2.877000093460083,37.85900115966797 C2.877000093460083,37.85900115966797 -5.948999881744385,29.201000213623047 -3.944999933242798,7.1620001792907715 C-1.8990000486373901,-15.348999977111816 4.241000175476074,-37.85900115966797 4.241000175476074,-37.85900115966797"></path></g><g opacity="1" transform="matrix(1,0,0,1,1116.2860107421875,523.3250122070312)"><path fill="rgb(255,255,255)" fill-opacity="1" d=" M5.456999778747559,37.290000915527344 C5.456999778747559,37.290000915527344 -5.456999778747559,30.4689998626709 -5.456999778747559,12.279000282287598 C-5.456999778747559,-5.910999774932861 0,-37.290000915527344 0,-37.290000915527344"></path><path stroke-linecap="round" stroke-linejoin="round" fill-opacity="0" stroke="rgb(32,40,112)" stroke-opacity="1" stroke-width="2" d=" M5.456999778747559,37.290000915527344 C5.456999778747559,37.290000915527344 -5.456999778747559,30.4689998626709 -5.456999778747559,12.279000282287598 C-5.456999778747559,-5.910999774932861 0,-37.290000915527344 0,-37.290000915527344"></path></g><g opacity="1" transform="matrix(1,0,0,1,1165.927001953125,528.781982421875)"><path fill="rgb(255,255,255)" fill-opacity="1" d=" M12.206000328063965,35.47100067138672 C12.206000328063965,35.47100067138672 -8.713000297546387,30.923999786376953 -11.442000389099121,20.91900062561035 C-14.170999526977539,10.913999557495117 -8.713000297546387,-35.47100067138672 -8.713000297546387,-35.47100067138672"></path><path stroke-linecap="round" stroke-linejoin="round" fill-opacity="0" stroke="rgb(32,40,112)" stroke-opacity="1" stroke-width="2" d=" M12.206000328063965,35.47100067138672 C12.206000328063965,35.47100067138672 -8.713000297546387,30.923999786376953 -11.442000389099121,20.91900062561035 C-14.170999526977539,10.913999557495117 -8.713000297546387,-35.47100067138672 -8.713000297546387,-35.47100067138672"></path></g></g><g transform="matrix(1,0,0,1,1,0)" opacity="1" style="display: block;"><g opacity="1" transform="matrix(1,0,0,1,460.93701171875,1088.31005859375)"><path fill="rgb(255,255,255)" fill-opacity="1" d=" M33.986000061035156,5.006999969482422 C31.22100067138672,23.777000427246094 13.762999534606934,36.750999450683594 -5.006999969482422,33.986000061035156 C-23.777000427246094,31.22100067138672 -36.750999450683594,13.762999534606934 -33.986000061035156,-5.006999969482422 C-31.22100067138672,-23.777000427246094 -13.762999534606934,-36.750999450683594 5.006999969482422,-33.986000061035156 C23.777000427246094,-31.22100067138672 36.750999450683594,-13.762999534606934 33.986000061035156,5.006999969482422z"></path><path stroke-linecap="round" stroke-linejoin="round" fill-opacity="0" stroke="rgb(32,40,112)" stroke-opacity="1" stroke-width="2" d=" M33.986000061035156,5.006999969482422 C31.22100067138672,23.777000427246094 13.762999534606934,36.750999450683594 -5.006999969482422,33.986000061035156 C-23.777000427246094,31.22100067138672 -36.750999450683594,13.762999534606934 -33.986000061035156,-5.006999969482422 C-31.22100067138672,-23.777000427246094 -13.762999534606934,-36.750999450683594 5.006999969482422,-33.986000061035156 C23.777000427246094,-31.22100067138672 36.750999450683594,-13.762999534606934 33.986000061035156,5.006999969482422z"></path></g><g opacity="1" transform="matrix(1,0,0,1,472.3320007324219,1027.93505859375)"><path fill="rgb(255,255,255)" fill-opacity="1" d=" M-41.72600173950195,44.87300109863281 C-41.72600173950195,44.87300109863281 -16.367000579833984,-7.206999778747559 -11.645999908447266,-17.22100067138672 C-6.925000190734863,-27.235000610351562 8.369000434875488,-67.16799926757812 19.542999267578125,-68.11799621582031 C30.716999053955078,-69.06800079345703 45.09299850463867,-65.3270034790039 41.01900100708008,-26.660999298095703 C36.94499969482422,12.005000114440918 22.167999267578125,68.24099731445312 22.167999267578125,68.24099731445312"></path><path stroke-linecap="round" stroke-linejoin="round" fill-opacity="0" stroke="rgb(32,40,112)" stroke-opacity="1" stroke-width="2" d=" M-41.72600173950195,44.87300109863281 C-41.72600173950195,44.87300109863281 -16.367000579833984,-7.206999778747559 -11.645999908447266,-17.22100067138672 C-6.925000190734863,-27.235000610351562 8.369000434875488,-67.16799926757812 19.542999267578125,-68.11799621582031 C30.716999053955078,-69.06800079345703 45.09299850463867,-65.3270034790039 41.01900100708008,-26.660999298095703 C36.94499969482422,12.005000114440918 22.167999267578125,68.24099731445312 22.167999267578125,68.24099731445312"></path></g></g><g transform="matrix(1,0,0,1,0,0)" opacity="1" style="display: block;"><g opacity="1" transform="matrix(1,0,0,1,554.802978515625,1066.2469482421875)"><path fill="rgb(255,255,255)" fill-opacity="1" d=" M-29.06800079345703,16.89900016784668 C-29.06800079345703,16.89900016784668 -39.0359992980957,5.26200008392334 -27.39900016784668,-4.705999851226807 C-15.76200008392334,-14.673999786376953 33.04199981689453,-17.003000259399414 33.04199981689453,-17.003000259399414 C33.04199981689453,-17.003000259399414 1.100000023841858,19.18000030517578 -29.06800079345703,16.89900016784668z"></path><path stroke-linecap="round" stroke-linejoin="round" fill-opacity="0" stroke="rgb(32,40,112)" stroke-opacity="1" stroke-width="2" d=" M-29.06800079345703,16.89900016784668 C-29.06800079345703,16.89900016784668 -39.0359992980957,5.26200008392334 -27.39900016784668,-4.705999851226807 C-15.76200008392334,-14.673999786376953 33.04199981689453,-17.003000259399414 33.04199981689453,-17.003000259399414 C33.04199981689453,-17.003000259399414 1.100000023841858,19.18000030517578 -29.06800079345703,16.89900016784668z"></path></g><g opacity="1" transform="matrix(1,0,0,1,567.4660034179688,1037.666015625)"><path fill="rgb(255,255,255)" fill-opacity="1" d=" M49.19599914550781,-29.825000762939453 C49.19599914550781,-29.825000762939453 -33.69300079345703,-13.479999542236328 -43.32400131225586,-5.380000114440918 C-50.277000427246094,0.46799999475479126 -52.04899978637695,17.132999420166016 -43.14400100708008,22.77199935913086 C-36.1870002746582,27.177000045776367 -8.487000465393066,29.825000762939453 -8.487000465393066,29.825000762939453"></path><path stroke-linecap="round" stroke-linejoin="round" fill-opacity="0" stroke="rgb(32,40,112)" stroke-opacity="1" stroke-width="2" d=" M49.19599914550781,-29.825000762939453 C49.19599914550781,-29.825000762939453 -33.69300079345703,-13.479999542236328 -43.32400131225586,-5.380000114440918 C-50.277000427246094,0.46799999475479126 -52.04899978637695,17.132999420166016 -43.14400100708008,22.77199935913086 C-36.1870002746582,27.177000045776367 -8.487000465393066,29.825000762939453 -8.487000465393066,29.825000762939453"></path></g><g opacity="1" transform="matrix(1,0,0,1,583.8359985351562,1043.7860107421875)"><path fill="rgb(32,40,112)" fill-opacity="1" d=" M-41.86800003051758,37.479000091552734 C-41.86800003051758,37.479000091552734 -40.685001373291016,31.649999618530273 -34.652000427246094,22.641000747680664 C-34.652000427246094,22.641000747680664 -4.315000057220459,-4.854000091552734 -3.440000057220459,-28.415000915527344 C-3.4130001068115234,-29.131999969482422 41.86800003051758,-37.479000091552734 41.86800003051758,-37.479000091552734 C41.86800003051758,-37.479000091552734 -9.234000205993652,29.631000518798828 -41.86800003051758,37.479000091552734z"></path></g></g><g transform="matrix(1,0,0,1,0,0)" opacity="1" style="display: block;"><g opacity="1" transform="matrix(1,0,0,1,589.1929931640625,1087.0870361328125)"><path fill="rgb(255,255,255)" fill-opacity="1" d=" M33.45600128173828,4.928999900817871 C30.733999252319336,23.4060001373291 13.54800033569336,36.178001403808594 -4.928999900817871,33.45600128173828 C-23.4060001373291,30.733999252319336 -36.178001403808594,13.54800033569336 -33.45600128173828,-4.928999900817871 C-30.733999252319336,-23.4060001373291 -13.54800033569336,-36.178001403808594 4.928999900817871,-33.45600128173828 C23.4060001373291,-30.733999252319336 36.178001403808594,-13.54800033569336 33.45600128173828,4.928999900817871z"></path><path stroke-linecap="round" stroke-linejoin="round" fill-opacity="0" stroke="rgb(32,40,112)" stroke-opacity="1" stroke-width="2" d=" M33.45600128173828,4.928999900817871 C30.733999252319336,23.4060001373291 13.54800033569336,36.178001403808594 -4.928999900817871,33.45600128173828 C-23.4060001373291,30.733999252319336 -36.178001403808594,13.54800033569336 -33.45600128173828,-4.928999900817871 C-30.733999252319336,-23.4060001373291 -13.54800033569336,-36.178001403808594 4.928999900817871,-33.45600128173828 C23.4060001373291,-30.733999252319336 36.178001403808594,-13.54800033569336 33.45600128173828,4.928999900817871z"></path></g><g opacity="1" transform="matrix(1,0,0,1,475.6180114746094,1276.0970458984375)"><path fill="rgb(255,255,255)" fill-opacity="1" d=" M130.38400268554688,19.209999084472656 C119.7750015258789,91.21900177001953 52.79899978637695,140.9929962158203 -19.209999084472656,130.38400268554688 C-91.21900177001953,119.7750015258789 -140.9929962158203,52.79899978637695 -130.38400268554688,-19.209999084472656 C-119.7750015258789,-91.21900177001953 -52.79899978637695,-140.9929962158203 19.209999084472656,-130.38400268554688 C91.21900177001953,-119.7750015258789 140.9929962158203,-52.79899978637695 130.38400268554688,19.209999084472656z"></path></g><g opacity="1" transform="matrix(1,0,0,1,532.0819702148438,1190.7049560546875)"><path fill="rgb(255,255,255)" fill-opacity="1" d=" M-181.5030059814453,41.65700149536133 C-180.76800537109375,39.60200119018555 -103.84100341796875,-111.75499725341797 -103.84100341796875,-111.75499725341797 C-103.84100341796875,-111.75499725341797 -39.35200119018555,-97.9280014038086 -35.29100036621094,-99.05999755859375 C-31.229999542236328,-100.19200134277344 12.914999961853027,-111.3489990234375 29.989999771118164,-125.92400360107422 C29.989999771118164,-125.92400360107422 84.08899688720703,-119.33100128173828 84.08899688720703,-119.33100128173828 C84.08899688720703,-119.33100128173828 123.55400085449219,-152.2429962158203 132.98199462890625,-148.69000244140625 C142.41000366210938,-145.13699340820312 146.43099975585938,-137.18899536132812 146.64100646972656,-129.802001953125 C146.64100646972656,-129.802001953125 164.83799743652344,-124.09200286865234 163.9739990234375,-106.47899627685547 C163.9739990234375,-106.47899627685547 191.58599853515625,-94.19000244140625 177.5,-57.323001861572266 C163.41400146484375,-20.45599937438965 59.27199935913086,148.95799255371094 59.27199935913086,148.95799255371094"></path></g><g opacity="1" transform="matrix(1,0,0,1,597.0230102539062,1190.7049560546875)"><path stroke-linecap="round" stroke-linejoin="round" fill-opacity="0" stroke="rgb(32,40,112)" stroke-opacity="1" stroke-width="2" d=" M-5.669000148773193,148.95799255371094 C-5.669000148773193,148.95799255371094 98.4739990234375,-20.45599937438965 112.55999755859375,-57.323001861572266 C126.64600372314453,-94.19000244140625 99.03299713134766,-106.47899627685547 99.03299713134766,-106.47899627685547 C99.89700317382812,-124.09200286865234 81.69999694824219,-129.802001953125 81.69999694824219,-129.802001953125 C81.48999786376953,-137.18899536132812 77.46900177001953,-145.13699340820312 68.04100036621094,-148.69000244140625 C58.612998962402344,-152.2429962158203 19.148000717163086,-119.33100128173828 19.148000717163086,-119.33100128173828 C19.148000717163086,-119.33100128173828 -34.768001556396484,-126.05999755859375 -34.768001556396484,-126.05999755859375 C-51.84299850463867,-111.48500061035156 -96.1709976196289,-100.19200134277344 -100.23200225830078,-99.05999755859375 C-100.23200225830078,-99.05999755859375 -109.84100341796875,-97.71700286865234 -116.56300354003906,-97.24700164794922"></path></g><g opacity="1" transform="matrix(1,0,0,1,389.4100036621094,1155.656005859375)"><path stroke-linecap="round" stroke-linejoin="round" fill-opacity="0" stroke="rgb(32,40,112)" stroke-opacity="1" stroke-width="2" d=" M-38.83100128173828,76.70600128173828 C-38.09600067138672,74.6510009765625 38.83100128173828,-76.70600128173828 38.83100128173828,-76.70600128173828"></path></g><g opacity="1" transform="matrix(1,0,0,1,666.4439697265625,1086.2449951171875)"><path fill="rgb(255,255,255)" fill-opacity="1" d=" M12.279000282287598,-25.341999053955078 C12.279000282287598,-25.341999053955078 11.664999961853027,-9.42300033569336 -12.279000282287598,25.341999053955078"></path><path stroke-linecap="round" stroke-linejoin="round" fill-opacity="0" stroke="rgb(32,40,112)" stroke-opacity="1" stroke-width="2" d=" M12.279000282287598,-25.341999053955078 C12.279000282287598,-25.341999053955078 11.664999961853027,-9.42300033569336 -12.279000282287598,25.341999053955078"></path></g><g opacity="1" transform="matrix(1,0,0,1,686.0469970703125,1109.5780029296875)"><path fill="rgb(255,255,255)" fill-opacity="1" d=" M10.008999824523926,-25.351999282836914 C10.008999824523926,-25.351999282836914 7.636000156402588,-1.9040000438690186 -10.008999824523926,25.351999282836914"></path><path stroke-linecap="round" stroke-linejoin="round" fill-opacity="0" stroke="rgb(32,40,112)" stroke-opacity="1" stroke-width="2" d=" M10.008999824523926,-25.351999282836914 C10.008999824523926,-25.351999282836914 7.636000156402588,-1.9040000438690186 -10.008999824523926,25.351999282836914"></path></g></g><g transform="matrix(1,0,0,1,0,0)" opacity="1" style="display: block;"><g opacity="1" transform="matrix(1,0,0,1,648.2860107421875,1012.9539794921875)"><path fill="rgb(255,255,255)" fill-opacity="1" d=" M30.20800018310547,4.451000213623047 C27.75,21.134000778198242 12.232000350952148,32.66600036621094 -4.451000213623047,30.20800018310547 C-21.134000778198242,27.75 -32.66600036621094,12.232000350952148 -30.20800018310547,-4.451000213623047 C-27.75,-21.134000778198242 -12.232000350952148,-32.66600036621094 4.451000213623047,-30.20800018310547 C21.134000778198242,-27.75 32.66600036621094,-12.232000350952148 30.20800018310547,4.451000213623047z"></path><path stroke-linecap="round" stroke-linejoin="round" fill-opacity="0" stroke="rgb(32,40,112)" stroke-opacity="1" stroke-width="2" d=" M30.20800018310547,4.451000213623047 C27.75,21.134000778198242 12.232000350952148,32.66600036621094 -4.451000213623047,30.20800018310547 C-21.134000778198242,27.75 -32.66600036621094,12.232000350952148 -30.20800018310547,-4.451000213623047 C-27.75,-21.134000778198242 -12.232000350952148,-32.66600036621094 4.451000213623047,-30.20800018310547 C21.134000778198242,-27.75 32.66600036621094,-12.232000350952148 30.20800018310547,4.451000213623047z"></path></g><g opacity="1" transform="matrix(1,0,0,1,671.3759765625,973.1710205078125)"><path fill="rgb(255,255,255)" fill-opacity="1" d=" M-46.922000885009766,20.94700050354004 C-46.922000885009766,20.94700050354004 -5.633999824523926,-27.166000366210938 10.597000122070312,-42.946998596191406 C26.19700050354004,-58.11399841308594 38.95899963378906,-59.20199966430664 44.520999908447266,-50.720001220703125 C50.08300018310547,-42.237998962402344 46.5629997253418,-19.854000091552734 27.801000595092773,13.51099967956543 C14.803000450134277,36.625999450683594 2.066999912261963,56.016998291015625 2.066999912261963,56.016998291015625"></path><path stroke-linecap="round" stroke-linejoin="round" fill-opacity="0" stroke="rgb(32,40,112)" stroke-opacity="1" stroke-width="2" d=" M-46.922000885009766,20.94700050354004 C-46.922000885009766,20.94700050354004 -5.633999824523926,-27.166000366210938 10.597000122070312,-42.946998596191406 C26.19700050354004,-58.11399841308594 38.95899963378906,-59.20199966430664 44.520999908447266,-50.720001220703125 C50.08300018310547,-42.237998962402344 46.5629997253418,-19.854000091552734 27.801000595092773,13.51099967956543 C14.803000450134277,36.625999450683594 2.066999912261963,56.016998291015625 2.066999912261963,56.016998291015625"></path></g></g><g transform="matrix(1,0,0,1,0,0)" opacity="1" style="display: block;"><g opacity="1" transform="matrix(1,0,0,1,589.1929931640625,1087.0870361328125)"><path fill="rgb(255,255,255)" fill-opacity="1" d=" M21.70400047302246,3.197999954223633 C19.937999725341797,15.1850004196167 8.788999557495117,23.469999313354492 -3.197999954223633,21.70400047302246 C-15.1850004196167,19.937999725341797 -23.469999313354492,8.788999557495117 -21.70400047302246,-3.197999954223633 C-19.937999725341797,-15.1850004196167 -8.788999557495117,-23.469999313354492 3.197999954223633,-21.70400047302246 C15.1850004196167,-19.937999725341797 23.469999313354492,-8.788999557495117 21.70400047302246,3.197999954223633z"></path></g><g opacity="1" transform="matrix(1,0,0,1,0,0)"><g opacity="1" transform="matrix(1,0,0,1,617.8930053710938,1051.0059814453125)"><path fill="rgb(255,255,255)" fill-opacity="1" d=" M5.267000198364258,-54.97200012207031 C5.267000198364258,-54.97200012207031 -55.244998931884766,15.07800006866455 -55.244998931884766,15.07800006866455 C-55.244998931884766,15.07800006866455 -0.33000001311302185,54.97200012207031 -0.33000001311302185,54.97200012207031 C-0.33000001311302185,54.97200012207031 50.11000061035156,-9.854999542236328 55.244998931884766,-21.214000701904297"></path></g><g opacity="1" transform="matrix(1,0,0,1,645.3510131835938,1067.885009765625)"><path stroke-linecap="round" stroke-linejoin="round" fill-opacity="0" stroke="rgb(32,40,112)" stroke-opacity="1" stroke-width="2" d=" M-27.788000106811523,38.09299850463867 C-27.788000106811523,38.09299850463867 22.652999877929688,-26.733999252319336 27.788000106811523,-38.09299850463867"></path></g><g opacity="1" transform="matrix(1,0,0,1,592.9039916992188,1031.0589599609375)"><path stroke-linecap="round" stroke-linejoin="round" fill-opacity="0" stroke="rgb(32,40,112)" stroke-opacity="1" stroke-width="2" d=" M30.256000518798828,-35.025001525878906 C30.256000518798828,-35.025001525878906 -31.547000885009766,32.972999572753906 -31.547000885009766,32.972999572753906"></path></g></g></g></g></svg>