<svg width="1600" height="1600" viewBox="0 0 1600 1600" fill="none" xmlns="http://www.w3.org/2000/svg">
<g clip-path="url(#clip0_25_43752)">
<mask id="mask0_25_43752" style="mask-type:luminance" maskUnits="userSpaceOnUse" x="0" y="0" width="1600" height="1600">
<path d="M1600 0H0V1600H1600V0Z" fill="white"/>
</mask>
<g mask="url(#mask0_25_43752)">
<path d="M346.142 638.155L345.142 791.251H493.244" stroke="#0626A9" stroke-width="2" stroke-linecap="round" stroke-linejoin="round" stroke-dasharray="100 100"/>
<mask id="mask1_25_43752" style="mask-type:luminance" maskUnits="userSpaceOnUse" x="0" y="0" width="1600" height="1600">
<path d="M0 0H1600V1600H0V0Z" fill="white"/>
</mask>
<g mask="url(#mask1_25_43752)">
<path d="M933.5 261.94C927.86 253.88 921.4 246.25 914.15 239.14C902.24 227.45 889.02 217.96 874.94 210.63C856.82 201.19 837.27 195.35 817.43 193.12C768.94 187.7 718.55 203.79 681.74 241.3C651.24 272.38 635.59 312.51 634.76 352.86C633.78 396.62 650.22 440.66 683.93 473.74C697.88 487.43 713.66 498.14 730.47 505.81C737.85 509.21 745.39 512.03 753.11 514.22C809.3 530.57 872.43 516.26 916.34 471.52C972.77 414.02 978.33 325.53 933.5 261.94ZM872.34 428.34C846.36 454.82 809.51 464.27 775.83 456.49C769.6 455.07 763.48 453.04 757.59 450.41C746.55 445.6 736.17 438.68 727.08 429.76C706.42 409.48 696.16 382.61 696.35 355.77C696.49 330.01 706.3 304.29 725.74 284.48C748.44 261.35 779.42 251.24 809.3 254.22C821 255.4 832.54 258.56 843.35 263.74C844.87 264.46 846.37 265.22 847.86 266.02C855.9 270.35 863.43 275.82 870.32 282.47C870.55 282.67 870.78 282.89 871 283.11C882.88 294.77 891.29 308.59 896.3 323.34C908.35 358.85 900.4 399.74 872.34 428.34Z" fill="#84AAE4"/>
<path d="M933.5 261.94C927.86 253.88 921.4 246.25 914.15 239.14C902.24 227.45 889.02 217.96 874.94 210.63C856.82 201.19 837.27 195.35 817.43 193.12C768.94 187.7 718.55 203.79 681.74 241.3C651.24 272.38 635.59 312.51 634.76 352.86C633.78 396.62 650.22 440.66 683.93 473.74C697.88 487.43 713.66 498.14 730.47 505.81C737.85 509.21 745.39 512.03 753.11 514.22C809.3 530.57 872.43 516.26 916.34 471.52C972.77 414.02 978.33 325.53 933.5 261.94ZM872.34 428.34C846.36 454.82 809.51 464.27 775.83 456.49C769.6 455.07 763.48 453.04 757.59 450.41C746.55 445.6 736.17 438.68 727.08 429.76C706.42 409.48 696.16 382.61 696.35 355.77C696.49 330.01 706.3 304.29 725.74 284.48C748.44 261.35 779.42 251.24 809.3 254.22C821 255.4 832.54 258.56 843.35 263.74C844.87 264.46 846.37 265.22 847.86 266.02C855.9 270.35 863.43 275.82 870.32 282.47C870.55 282.67 870.78 282.89 871 283.11C882.88 294.77 891.29 308.59 896.3 323.34C908.35 358.85 900.4 399.74 872.34 428.34Z" stroke="#0626A9" stroke-width="2" stroke-linecap="round" stroke-linejoin="round"/>
<path d="M753.104 514.22C745.384 512.023 737.847 509.216 730.468 505.822C713.664 498.141 697.885 487.432 683.927 473.734C650.224 440.659 633.781 396.612 634.75 352.868L696.342 355.775C696.15 382.616 706.418 409.477 727.084 429.757C736.177 438.68 746.538 445.603 757.581 450.413C763.479 453.049 769.606 455.073 775.82 456.489C768.188 476.03 760.281 496.135 753.104 514.22Z" fill="white"/>
<path d="M753.104 514.22C745.384 512.023 737.847 509.216 730.468 505.822C713.664 498.141 697.885 487.432 683.927 473.734C650.224 440.659 633.781 396.612 634.75 352.868L696.342 355.775C696.15 382.616 706.418 409.477 727.084 429.757C736.177 438.68 746.538 445.603 757.581 450.413C763.479 453.049 769.606 455.073 775.82 456.489C768.188 476.03 760.281 496.135 753.104 514.22Z" stroke="#0626A9" stroke-width="2" stroke-linecap="round" stroke-linejoin="round"/>
<path d="M896.297 323.342C891.288 308.586 882.884 294.774 871.001 283.112C870.778 282.893 870.554 282.673 870.317 282.468C863.434 275.823 855.897 270.346 847.86 266.022C846.372 265.22 844.871 264.459 843.356 263.74C832.543 258.557 821.003 255.401 809.301 254.224L817.429 193.12C837.276 195.355 856.824 201.189 874.94 210.634C889.024 217.959 902.243 227.45 914.154 239.139C921.401 246.251 927.866 253.883 933.503 261.937L896.297 323.342Z" fill="#0626A9"/>
<path d="M896.297 323.342C891.288 308.586 882.884 294.774 871.001 283.112C870.778 282.893 870.554 282.673 870.317 282.468C863.434 275.823 855.897 270.346 847.86 266.022C846.372 265.22 844.871 264.459 843.356 263.74C832.543 258.557 821.003 255.401 809.301 254.224L817.429 193.12C837.276 195.355 856.824 201.189 874.94 210.634C889.024 217.959 902.243 227.45 914.154 239.139C921.401 246.251 927.866 253.883 933.503 261.937L896.297 323.342Z" stroke="#0626A9" stroke-width="2" stroke-linecap="round" stroke-linejoin="round"/>
<path d="M916.341 471.522C872.434 516.263 809.301 530.567 753.114 514.217C745.387 512.035 737.848 509.214 730.469 505.811L757.591 450.409C763.482 453.038 769.602 455.069 775.827 456.491C809.506 464.267 846.358 454.817 872.34 428.341C900.405 399.742 908.35 358.854 896.297 323.342C891.288 308.586 882.884 294.774 871.001 283.112C870.778 282.893 870.554 282.673 870.317 282.468C863.434 275.823 855.897 270.346 847.86 266.022C846.372 265.22 844.871 264.459 843.356 263.74L874.94 210.634C889.024 217.959 902.243 227.45 914.154 239.139C921.401 246.251 927.866 253.883 933.503 261.937C978.332 325.531 972.773 414.018 916.341 471.522Z" fill="#8869D5"/>
<path d="M916.341 471.522C872.434 516.263 809.301 530.567 753.114 514.217C745.387 512.035 737.848 509.214 730.469 505.811L757.591 450.409C763.482 453.038 769.602 455.069 775.827 456.491C809.506 464.267 846.358 454.817 872.34 428.341C900.405 399.742 908.35 358.854 896.297 323.342C891.288 308.586 882.884 294.774 871.001 283.112C870.778 282.893 870.554 282.673 870.317 282.468C863.434 275.823 855.897 270.346 847.86 266.022C846.372 265.22 844.871 264.459 843.356 263.74L874.94 210.634C889.024 217.959 902.243 227.45 914.154 239.139C921.401 246.251 927.866 253.883 933.503 261.937C978.332 325.531 972.773 414.018 916.341 471.522Z" stroke="#8869D5" stroke-width="2" stroke-linecap="round" stroke-linejoin="round"/>
</g>
<mask id="mask2_25_43752" style="mask-type:luminance" maskUnits="userSpaceOnUse" x="0" y="0" width="1600" height="1600">
<path d="M0 0H1600V1600H0V0Z" fill="white"/>
</mask>
<g mask="url(#mask2_25_43752)">
<path d="M1285.53 1309.39H863.37V1050H1285.53V1309.39Z" fill="white"/>
<path d="M1285.53 1309.39H863.37V1050H1285.53V1309.39Z" stroke="#0626A9" stroke-width="2" stroke-linecap="round" stroke-linejoin="round"/>
<path d="M1285.53 1309.39H1011.95V1099.98H1285.53V1309.39Z" fill="white"/>
<path d="M1285.53 1309.39H1011.95V1099.98H1285.53V1309.39Z" stroke="#0626A9" stroke-width="2" stroke-linecap="round" stroke-linejoin="round"/>
<path d="M1011.95 1309.39H863.37V1099.98H1011.95V1309.39Z" fill="white"/>
<path d="M1011.95 1309.39H863.37V1099.98H1011.95V1309.39Z" stroke="#0626A9" stroke-width="2" stroke-linecap="round" stroke-linejoin="round"/>
<path d="M1285.53 1099.98H863.37V1050H1285.53V1099.98Z" fill="#84AAE4"/>
<path d="M1285.53 1099.98H863.37V1050H1285.53V1099.98Z" stroke="#0626A9" stroke-width="2" stroke-linecap="round" stroke-linejoin="round"/>
<path d="M1285.53 1099.98H1235.54V1050H1285.53V1099.98Z" fill="#84AAE4"/>
<path d="M1285.53 1099.98H1235.54V1050H1285.53V1099.98Z" stroke="#0626A9" stroke-width="2" stroke-linecap="round" stroke-linejoin="round"/>
<path d="M1235.54 1050L1285.53 1099.98Z" fill="white"/>
<path d="M1235.54 1050L1285.53 1099.98" stroke="#0626A9" stroke-width="2" stroke-linecap="round" stroke-linejoin="round"/>
<path d="M1285.53 1050L1235.54 1099.98Z" fill="white"/>
<path d="M1285.53 1050L1235.54 1099.98" stroke="#0626A9" stroke-width="2" stroke-linecap="round" stroke-linejoin="round"/>
<path d="M1053.75 1259.09H1245.73" stroke="#0626A9" stroke-width="2" stroke-linecap="round" stroke-linejoin="round"/>
<path d="M1053.75 1204.68H1245.73" stroke="#0626A9" stroke-width="2" stroke-linecap="round" stroke-linejoin="round"/>
<path d="M1053.75 1151.27H1245.73" stroke="#0626A9" stroke-width="2" stroke-linecap="round" stroke-linejoin="round"/>
<path d="M988.123 1270.28H887.197V1247.9H988.123V1270.28Z" fill="#8869D5"/>
<path d="M988.123 1215.87H887.197V1193.49H988.123V1215.87Z" fill="#8869D5"/>
<path d="M988.123 1161.96H887.197V1139.59H988.123V1161.96Z" fill="#8869D5"/>
</g>
<mask id="mask3_25_43752" style="mask-type:luminance" maskUnits="userSpaceOnUse" x="0" y="0" width="1600" height="1600">
<path d="M0 0H1600V1600H0V0Z" fill="white"/>
</mask>
<g mask="url(#mask3_25_43752)">
<path d="M526.327 723.157L252.241 716.54L260.421 377.733L534.507 384.35L526.327 723.157Z" fill="#0626A9"/>
<path d="M526.328 723.157L252.241 716.54L259.05 434.532L533.136 441.149L526.328 723.157Z" fill="#84AAE4"/>
<path d="M526.328 723.157L252.241 716.54L259.05 434.532L533.136 441.149L526.328 723.157Z" stroke="#0626A9" stroke-width="2" stroke-linecap="round" stroke-linejoin="round"/>
<path d="M331.999 654.067C331.723 665.473 322.253 674.497 310.846 674.222C299.439 673.947 290.415 664.476 290.691 653.069C290.966 641.663 300.437 632.639 311.843 632.914C323.25 633.19 332.274 642.66 331.999 654.067Z" fill="white"/>
<path d="M331.999 654.067C331.723 665.473 322.253 674.497 310.846 674.222C299.439 673.947 290.415 664.476 290.691 653.069C290.966 641.663 300.437 632.639 311.843 632.914C323.25 633.19 332.274 642.66 331.999 654.067Z" stroke="#0626A9" stroke-width="2" stroke-linecap="round" stroke-linejoin="round"/>
<path d="M356.46 654.657L359.399 654.728L365.397 654.873L370.021 654.985L376.769 655.148L490.987 657.905" stroke="#0626A9" stroke-width="2" stroke-linecap="round" stroke-linejoin="round"/>
<path d="M333.848 577.424C333.573 588.831 324.102 597.855 312.696 597.579C301.289 597.304 292.265 587.833 292.54 576.427C292.816 565.02 302.286 555.996 313.693 556.271C325.1 556.547 334.124 566.017 333.848 577.424Z" fill="white"/>
<path d="M333.848 577.424C333.573 588.831 324.102 597.855 312.696 597.579C301.289 597.304 292.265 587.833 292.54 576.427C292.816 565.02 302.286 555.996 313.693 556.271C325.1 556.547 334.124 566.017 333.848 577.424Z" stroke="#0626A9" stroke-width="2" stroke-linecap="round" stroke-linejoin="round"/>
<path d="M358.31 578.015L366.122 578.203L368.122 578.251L370.996 578.321L373.12 578.372L376.369 578.451L492.836 581.262" stroke="#0626A9" stroke-width="2" stroke-linecap="round" stroke-linejoin="round"/>
<path d="M335.699 500.781C335.424 512.188 325.953 521.212 314.546 520.937C303.14 520.661 294.116 511.191 294.391 499.784C294.666 488.377 304.137 479.353 315.544 479.629C326.95 479.904 335.974 489.375 335.699 500.781Z" fill="white"/>
<path d="M335.699 500.781C335.424 512.188 325.953 521.212 314.546 520.937C303.14 520.661 294.116 511.191 294.391 499.784C294.666 488.377 304.137 479.353 315.544 479.629C326.95 479.904 335.974 489.375 335.699 500.781Z" stroke="#0626A9" stroke-width="2" stroke-linecap="round" stroke-linejoin="round"/>
<path d="M360.16 501.372L363.224 501.446L370.004 501.603L375.97 501.754L494.687 504.62" stroke="#0626A9" stroke-width="2" stroke-linecap="round" stroke-linejoin="round"/>
</g>
<mask id="mask4_25_43752" style="mask-type:luminance" maskUnits="userSpaceOnUse" x="0" y="0" width="1600" height="1600">
<path d="M0 0H1600V1600H0V0Z" fill="white"/>
</mask>
<g mask="url(#mask4_25_43752)">
<path d="M307.909 1100.64C307.909 1107.1 302.675 1112.33 296.219 1112.33C289.763 1112.33 284.529 1107.1 284.529 1100.64C284.529 1094.18 289.763 1088.95 296.219 1088.95C302.675 1088.95 307.909 1094.18 307.909 1100.64Z" fill="#84AAE4"/>
<path d="M307.909 1100.64C307.909 1107.1 302.675 1112.33 296.219 1112.33C289.763 1112.33 284.529 1107.1 284.529 1100.64C284.529 1094.18 289.763 1088.95 296.219 1088.95C302.675 1088.95 307.909 1094.18 307.909 1100.64Z" stroke="#0626A9" stroke-width="2" stroke-linecap="round" stroke-linejoin="round"/>
<path d="M397.505 1068.55C397.505 1079.07 388.977 1087.59 378.458 1087.59C367.939 1087.59 359.411 1079.07 359.411 1068.55C359.411 1058.03 367.939 1049.5 378.458 1049.5C388.977 1049.5 397.505 1058.03 397.505 1068.55Z" fill="white"/>
<path d="M397.505 1068.55C397.505 1079.07 388.977 1087.59 378.458 1087.59C367.939 1087.59 359.411 1079.07 359.411 1068.55C359.411 1058.03 367.939 1049.5 378.458 1049.5C388.977 1049.5 397.505 1058.03 397.505 1068.55Z" stroke="#0626A9" stroke-width="2" stroke-linecap="round" stroke-linejoin="round"/>
<path d="M330.522 987.039C330.522 993.945 324.923 999.544 318.017 999.544C311.111 999.544 305.512 993.945 305.512 987.039C305.512 980.133 311.111 974.534 318.017 974.534C324.923 974.534 330.522 980.133 330.522 987.039Z" fill="#8869D5"/>
<path d="M330.522 987.039C330.522 993.945 324.923 999.544 318.017 999.544C311.111 999.544 305.512 993.945 305.512 987.039C305.512 980.133 311.111 974.534 318.017 974.534C324.923 974.534 330.522 980.133 330.522 987.039Z" stroke="#8869D5" stroke-width="2" stroke-linecap="round" stroke-linejoin="round"/>
<path d="M1319 902.683C1319 910.454 1312.7 916.754 1304.93 916.754C1297.16 916.754 1290.86 910.454 1290.86 902.683C1290.86 894.912 1297.16 888.612 1304.93 888.612C1312.7 888.612 1319 894.912 1319 902.683Z" fill="#8869D5"/>
<path d="M1319 902.683C1319 910.454 1312.7 916.754 1304.93 916.754C1297.16 916.754 1290.86 910.454 1290.86 902.683C1290.86 894.912 1297.16 888.612 1304.93 888.612C1312.7 888.612 1319 894.912 1319 902.683Z" stroke="#8869D5" stroke-width="2" stroke-linecap="round" stroke-linejoin="round"/>
<path d="M1271.17 850.048C1271.17 854.431 1267.62 857.984 1263.24 857.984C1258.85 857.984 1255.3 854.431 1255.3 850.048C1255.3 845.665 1258.85 842.112 1263.24 842.112C1267.62 842.112 1271.17 845.665 1271.17 850.048Z" fill="white"/>
<path d="M1271.17 850.048C1271.17 854.431 1267.62 857.984 1263.24 857.984C1258.85 857.984 1255.3 854.431 1255.3 850.048C1255.3 845.665 1258.85 842.112 1263.24 842.112C1267.62 842.112 1271.17 845.665 1271.17 850.048Z" stroke="#0626A9" stroke-width="2" stroke-linecap="round" stroke-linejoin="round"/>
<path d="M1302.92 800.695C1302.92 805.059 1299.39 808.597 1295.02 808.597C1290.66 808.597 1287.12 805.059 1287.12 800.695C1287.12 796.331 1290.66 792.793 1295.02 792.793C1299.39 792.793 1302.92 796.331 1302.92 800.695Z" fill="#84AAE4"/>
<path d="M1302.92 800.695C1302.92 805.059 1299.39 808.597 1295.02 808.597C1290.66 808.597 1287.12 805.059 1287.12 800.695C1287.12 796.331 1290.66 792.793 1295.02 792.793C1299.39 792.793 1302.92 796.331 1302.92 800.695Z" stroke="#0626A9" stroke-width="2" stroke-linecap="round" stroke-linejoin="round"/>
</g>
<mask id="mask5_25_43752" style="mask-type:luminance" maskUnits="userSpaceOnUse" x="0" y="0" width="1600" height="1600">
<path d="M0 0H1600V1600H0V0Z" fill="white"/>
</mask>
<g mask="url(#mask5_25_43752)">
<path d="M1151.41 968.208L425.339 990.988L412.758 589.983L1138.83 567.204L1151.41 968.208Z" fill="white"/>
<path d="M1151.41 968.208L425.339 990.988L412.758 589.983L1138.83 567.204L1151.41 968.208Z" stroke="#0626A9" stroke-width="2" stroke-linecap="round" stroke-linejoin="round"/>
<path d="M485.328 672.816L451.065 654.08L484.086 633.232" stroke="#0626A9" stroke-width="2" stroke-linecap="round" stroke-linejoin="round"/>
<path d="M517.044 671.821L550.064 650.974L515.802 632.237" stroke="#0626A9" stroke-width="2" stroke-linecap="round" stroke-linejoin="round"/>
<path d="M877.377 909.773L459.514 923.368L458.687 897.019L876.55 883.424L877.377 909.773Z" fill="#84AAE4"/>
<path d="M877.377 909.773L459.514 923.368L458.687 897.019L876.55 883.424L877.377 909.773Z" stroke="#0626A9" stroke-width="2" stroke-linecap="round" stroke-linejoin="round"/>
<path d="M902.529 821.526L456.751 835.304L455.925 808.955L901.702 795.178L902.529 821.526Z" fill="#84AAE4"/>
<path d="M902.529 821.526L456.751 835.304L455.925 808.955L901.702 795.178L902.529 821.526Z" stroke="#0626A9" stroke-width="2" stroke-linecap="round" stroke-linejoin="round"/>
<path d="M1107.54 726.735L453.989 747.24L453.162 720.891L1106.71 700.386L1107.54 726.735Z" fill="#84AAE4"/>
<path d="M1107.54 726.735L453.989 747.24L453.162 720.891L1106.71 700.386L1107.54 726.735Z" stroke="#0626A9" stroke-width="2" stroke-linecap="round" stroke-linejoin="round"/>
</g>
<mask id="mask6_25_43752" style="mask-type:luminance" maskUnits="userSpaceOnUse" x="0" y="0" width="1600" height="1600">
<path d="M0 0H1600V1600H0V0Z" fill="white"/>
</mask>
<g mask="url(#mask6_25_43752)">
<path d="M1200.41 724.42L1193.39 712.27L1194.8 699.3L1175.97 688.42L1165.44 696.13H1151.41L1140.88 688.42L1122.05 699.3L1123.46 712.27L1116.44 724.42L1104.5 729.69V751.43L1116.44 756.69L1123.46 768.85L1122.05 781.82L1140.88 792.69L1151.41 784.99H1165.44L1175.97 792.69L1194.8 781.82L1193.39 768.85L1200.41 756.69L1212.35 751.43V729.69L1200.41 724.42ZM1158.42 759.65C1147.88 759.65 1139.33 751.1 1139.33 740.56C1139.33 730.01 1147.88 721.47 1158.42 721.47C1168.97 721.47 1177.52 730.01 1177.52 740.56C1177.52 751.1 1168.97 759.65 1158.42 759.65Z" fill="#0626A9"/>
<path d="M683.3 580.09L675.16 565.99L676.79 550.94L654.94 538.32L642.73 547.26H626.44L614.22 538.32L592.37 550.94L594.01 565.99L585.86 580.09L572.01 586.2V611.43L585.86 617.54L594.01 631.65L592.37 646.7L614.22 659.31L626.44 650.37H642.73L654.94 659.31L676.79 646.7L675.16 631.65L683.3 617.54L697.15 611.43V586.2L683.3 580.09ZM634.58 620.97C622.35 620.97 612.43 611.05 612.43 598.82C612.43 586.58 622.35 576.66 634.58 576.66C646.82 576.66 656.73 586.58 656.73 598.82C656.73 611.05 646.82 620.97 634.58 620.97Z" fill="#0626A9"/>
</g>
</g>
</g>
<defs>
<clipPath id="clip0_25_43752">
<rect width="1600" height="1600" fill="white"/>
</clipPath>
</defs>
</svg>
