<svg width="1600" height="1600" viewBox="0 0 1600 1600" fill="none" xmlns="http://www.w3.org/2000/svg">
<g clip-path="url(#clip0_24_23905)">
<mask id="mask0_24_23905" style="mask-type:luminance" maskUnits="userSpaceOnUse" x="0" y="0" width="1600" height="1600">
<path d="M1600 0H0V1600H1600V0Z" fill="white"/>
</mask>
<g mask="url(#mask0_24_23905)">
<mask id="mask1_24_23905" style="mask-type:luminance" maskUnits="userSpaceOnUse" x="0" y="0" width="1600" height="1600">
<path d="M1600 0H0V1600H1600V0Z" fill="white"/>
</mask>
<g mask="url(#mask1_24_23905)">
<mask id="mask2_24_23905" style="mask-type:luminance" maskUnits="userSpaceOnUse" x="0" y="0" width="1600" height="1600">
<path d="M0 0H1600V1600H0V0Z" fill="white"/>
</mask>
<g mask="url(#mask2_24_23905)">
<path d="M593.95 621.478H319.66V369.696" stroke="#0626A9" stroke-width="2" stroke-linecap="round" stroke-linejoin="round"/>
<path d="M958.311 419.238V820.9" stroke="#0626A9" stroke-width="2" stroke-linecap="round" stroke-linejoin="round"/>
<path d="M618.286 774.952H249.116V894.596" stroke="#0626A9" stroke-width="2" stroke-linecap="round" stroke-linejoin="round"/>
<path d="M1066.95 739.814H1272.51V883.034" stroke="#0626A9" stroke-width="2" stroke-linecap="round" stroke-linejoin="round"/>
<path d="M809.279 1236.34V834.676" stroke="#0626A9" stroke-width="2" stroke-linecap="round" stroke-linejoin="round"/>
<path d="M1058.13 600.434H1361.29" stroke="#0626A9" stroke-width="2" stroke-linecap="round" stroke-linejoin="round"/>
<path d="M159.476 698.436H561.138" stroke="#0626A9" stroke-width="2" stroke-linecap="round" stroke-linejoin="round"/>
<path d="M1002.26 662.834H1212.26" stroke="#0626A9" stroke-width="2" stroke-linecap="round" stroke-linejoin="round"/>
<path d="M602.705 619.242C602.705 625.895 597.312 631.288 590.659 631.288C584.006 631.288 578.613 625.895 578.613 619.242C578.613 612.589 584.006 607.196 590.659 607.196C597.312 607.196 602.705 612.589 602.705 619.242Z" fill="#84AAE4"/>
<path d="M602.705 619.242C602.705 625.895 597.312 631.288 590.659 631.288C584.006 631.288 578.613 625.895 578.613 619.242C578.613 612.589 584.006 607.196 590.659 607.196C597.312 607.196 602.705 612.589 602.705 619.242Z" stroke="#0626A9" stroke-width="2" stroke-linecap="round" stroke-linejoin="round"/>
<path d="M329.707 620.244C329.707 626.897 324.314 632.29 317.661 632.29C311.008 632.29 305.615 626.897 305.615 620.244C305.615 613.591 311.008 608.198 317.661 608.198C324.314 608.198 329.707 613.591 329.707 620.244Z" fill="#84AAE4"/>
<path d="M329.707 620.244C329.707 626.897 324.314 632.29 317.661 632.29C311.008 632.29 305.615 626.897 305.615 620.244C305.615 613.591 311.008 608.198 317.661 608.198C324.314 608.198 329.707 613.591 329.707 620.244Z" stroke="#0626A9" stroke-width="2" stroke-linecap="round" stroke-linejoin="round"/>
<path d="M958.311 630.365C964.964 630.365 970.357 624.972 970.357 618.319C970.357 611.666 964.964 606.273 958.311 606.273C951.658 606.273 946.265 611.666 946.265 618.319C946.265 624.972 951.658 630.365 958.311 630.365Z" fill="#8869D5"/>
<path d="M958.311 630.365C964.964 630.365 970.357 624.972 970.357 618.319C970.357 611.666 964.964 606.273 958.311 606.273C951.658 606.273 946.265 611.666 946.265 618.319C946.265 624.972 951.658 630.365 958.311 630.365Z" stroke="#0626A9" stroke-width="2" stroke-linecap="round" stroke-linejoin="round"/>
<path d="M958.311 826.865C964.964 826.865 970.357 821.472 970.357 814.819C970.357 808.166 964.964 802.773 958.311 802.773C951.658 802.773 946.265 808.166 946.265 814.819C946.265 821.472 951.658 826.865 958.311 826.865Z" fill="#8869D5"/>
<path d="M958.311 826.865C964.964 826.865 970.357 821.472 970.357 814.819C970.357 808.166 964.964 802.773 958.311 802.773C951.658 802.773 946.265 808.166 946.265 814.819C946.265 821.472 951.658 826.865 958.311 826.865Z" stroke="#0626A9" stroke-width="2" stroke-linecap="round" stroke-linejoin="round"/>
<path d="M258.665 775.608C258.665 782.261 253.272 787.654 246.619 787.654C239.966 787.654 234.573 782.261 234.573 775.608C234.573 768.955 239.966 763.562 246.619 763.562C253.272 763.562 258.665 768.955 258.665 775.608Z" fill="white"/>
<path d="M258.665 775.608C258.665 782.261 253.272 787.654 246.619 787.654C239.966 787.654 234.573 782.261 234.573 775.608C234.573 768.955 239.966 763.562 246.619 763.562C253.272 763.562 258.665 768.955 258.665 775.608Z" stroke="#0626A9" stroke-width="2" stroke-linecap="round" stroke-linejoin="round"/>
<path d="M629.162 773.609C629.162 780.262 623.769 785.655 617.116 785.655C610.463 785.655 605.07 780.262 605.07 773.609C605.07 766.956 610.463 761.563 617.116 761.563C623.769 761.563 629.162 766.956 629.162 773.609Z" fill="white"/>
<path d="M629.162 773.609C629.162 780.262 623.769 785.655 617.116 785.655C610.463 785.655 605.07 780.262 605.07 773.609C605.07 766.956 610.463 761.563 617.116 761.563C623.769 761.563 629.162 766.956 629.162 773.609Z" stroke="#0626A9" stroke-width="2" stroke-linecap="round" stroke-linejoin="round"/>
<path d="M1085.56 738.425C1085.56 745.078 1080.17 750.471 1073.51 750.471C1066.86 750.471 1061.47 745.078 1061.47 738.425C1061.47 731.772 1066.86 726.379 1073.51 726.379C1080.17 726.379 1085.56 731.772 1085.56 738.425Z" fill="#0626A9"/>
<path d="M1085.56 738.425C1085.56 745.078 1080.17 750.471 1073.51 750.471C1066.86 750.471 1061.47 745.078 1061.47 738.425C1061.47 731.772 1066.86 726.379 1073.51 726.379C1080.17 726.379 1085.56 731.772 1085.56 738.425Z" stroke="#0626A9" stroke-width="2" stroke-linecap="round" stroke-linejoin="round"/>
<path d="M809.279 1021.71C815.932 1021.71 821.325 1027.11 821.325 1033.76C821.325 1040.41 815.932 1045.8 809.279 1045.8C802.626 1045.8 797.233 1040.41 797.233 1033.76C797.233 1027.11 802.626 1021.71 809.279 1021.71Z" fill="#8869D5"/>
<path d="M809.279 1021.71C815.932 1021.71 821.325 1027.11 821.325 1033.76C821.325 1040.41 815.932 1045.8 809.279 1045.8C802.626 1045.8 797.233 1040.41 797.233 1033.76C797.233 1027.11 802.626 1021.71 809.279 1021.71Z" stroke="#0626A9" stroke-width="2" stroke-linecap="round" stroke-linejoin="round"/>
<path d="M809.279 823.712C815.932 823.712 821.325 829.105 821.325 835.758C821.325 842.411 815.932 847.804 809.279 847.804C802.626 847.804 797.233 842.411 797.233 835.758C797.233 829.105 802.626 823.712 809.279 823.712Z" fill="#8869D5"/>
<path d="M809.279 823.712C815.932 823.712 821.325 829.105 821.325 835.758C821.325 842.411 815.932 847.804 809.279 847.804C802.626 847.804 797.233 842.411 797.233 835.758C797.233 829.105 802.626 823.712 809.279 823.712Z" stroke="#0626A9" stroke-width="2" stroke-linecap="round" stroke-linejoin="round"/>
<path d="M1224 600.434C1224 607.087 1218.61 612.48 1211.96 612.48C1205.3 612.48 1199.91 607.087 1199.91 600.434C1199.91 593.781 1205.3 588.388 1211.96 588.388C1218.61 588.388 1224 593.781 1224 600.434Z" fill="white"/>
<path d="M1224 600.434C1224 607.087 1218.61 612.48 1211.96 612.48C1205.3 612.48 1199.91 607.087 1199.91 600.434C1199.91 593.781 1205.3 588.388 1211.96 588.388C1218.61 588.388 1224 593.781 1224 600.434Z" stroke="#0626A9" stroke-width="2" stroke-linecap="round" stroke-linejoin="round"/>
<path d="M1071.5 600.434C1071.5 607.087 1066.11 612.48 1059.46 612.48C1052.8 612.48 1047.41 607.087 1047.41 600.434C1047.41 593.781 1052.8 588.388 1059.46 588.388C1066.11 588.388 1071.5 593.781 1071.5 600.434Z" fill="white"/>
<path d="M1071.5 600.434C1071.5 607.087 1066.11 612.48 1059.46 612.48C1052.8 612.48 1047.41 607.087 1047.41 600.434C1047.41 593.781 1052.8 588.388 1059.46 588.388C1066.11 588.388 1071.5 593.781 1071.5 600.434Z" stroke="#0626A9" stroke-width="2" stroke-linecap="round" stroke-linejoin="round"/>
<path d="M374.603 698.436C374.603 705.089 369.21 710.482 362.557 710.482C355.904 710.482 350.511 705.089 350.511 698.436C350.511 691.783 355.904 686.39 362.557 686.39C369.21 686.39 374.603 691.783 374.603 698.436Z" fill="#8869D5"/>
<path d="M374.603 698.436C374.603 705.089 369.21 710.482 362.557 710.482C355.904 710.482 350.511 705.089 350.511 698.436C350.511 691.783 355.904 686.39 362.557 686.39C369.21 686.39 374.603 691.783 374.603 698.436Z" stroke="#0626A9" stroke-width="2" stroke-linecap="round" stroke-linejoin="round"/>
<path d="M570.103 698.436C570.103 705.089 564.71 710.482 558.057 710.482C551.404 710.482 546.011 705.089 546.011 698.436C546.011 691.783 551.404 686.39 558.057 686.39C564.71 686.39 570.103 691.783 570.103 698.436Z" fill="#8869D5"/>
<path d="M570.103 698.436C570.103 705.089 564.71 710.482 558.057 710.482C551.404 710.482 546.011 705.089 546.011 698.436C546.011 691.783 551.404 686.39 558.057 686.39C564.71 686.39 570.103 691.783 570.103 698.436Z" stroke="#0626A9" stroke-width="2" stroke-linecap="round" stroke-linejoin="round"/>
<path d="M1021.47 662.834C1021.47 669.487 1016.08 674.88 1009.42 674.88C1002.77 674.88 997.378 669.487 997.378 662.834C997.378 656.181 1002.77 650.788 1009.42 650.788C1016.08 650.788 1021.47 656.181 1021.47 662.834Z" fill="#8869D5"/>
<path d="M1021.47 662.834C1021.47 669.487 1016.08 674.88 1009.42 674.88C1002.77 674.88 997.378 669.487 997.378 662.834C997.378 656.181 1002.77 650.788 1009.42 650.788C1016.08 650.788 1021.47 656.181 1021.47 662.834Z" stroke="#0626A9" stroke-width="2" stroke-linecap="round" stroke-linejoin="round"/>
</g>
<mask id="mask3_24_23905" style="mask-type:luminance" maskUnits="userSpaceOnUse" x="0" y="0" width="1600" height="1600">
<path d="M0 0H1600V1600H0V0Z" fill="white"/>
</mask>
<g mask="url(#mask3_24_23905)">
<path d="M492.772 439.155V698.393H784.314V365.113H566.726" fill="white"/>
<path d="M492.772 439.155V698.393H784.314V365.113H566.726" stroke="#0626A9" stroke-width="2" stroke-linecap="round" stroke-linejoin="round"/>
<path d="M593.813 408.805H757.411" stroke="#0626A9" stroke-width="2" stroke-linecap="round" stroke-linejoin="round"/>
<path d="M593.813 452.344C593.813 452.344 685.032 452.344 698.433 452.344" stroke="#0626A9" stroke-width="2" stroke-linecap="round" stroke-linejoin="round"/>
<path d="M593.813 495.882C593.813 495.882 685.343 495.882 711.935 495.882" stroke="#0626A9" stroke-width="2" stroke-linecap="round" stroke-linejoin="round"/>
<path d="M620.194 645.24H556.744" stroke="#0626A9" stroke-width="2" stroke-linecap="round" stroke-linejoin="round"/>
<path d="M566.815 439.156H492.772L566.815 365.113V439.156Z" fill="#84AAE4"/>
<path d="M566.815 439.156H492.772L566.815 365.113V439.156Z" stroke="#0626A9" stroke-width="2" stroke-linecap="round" stroke-linejoin="round"/>
<path d="M1456.99 871.565V1130.93H1165.45V797.65H1383.16" fill="white"/>
<path d="M1456.99 871.565V1130.93H1165.45V797.65H1383.16" stroke="#0626A9" stroke-width="2" stroke-linecap="round" stroke-linejoin="round"/>
<path d="M1229.42 898.994H1393.02" stroke="#0626A9" stroke-width="2" stroke-linecap="round" stroke-linejoin="round"/>
<path d="M1229.42 942.533C1229.42 942.533 1369.87 942.533 1390.5 942.533" stroke="#0626A9" stroke-width="2" stroke-linecap="round" stroke-linejoin="round"/>
<path d="M1229.42 986.071C1229.42 986.071 1348.94 986.071 1383.66 986.071" stroke="#0626A9" stroke-width="2" stroke-linecap="round" stroke-linejoin="round"/>
<path d="M1329.57 1077.78H1393.02" stroke="#0626A9" stroke-width="2" stroke-linecap="round" stroke-linejoin="round"/>
<path d="M1383.07 871.565H1456.99L1383.07 797.65V871.565Z" fill="#8869D5"/>
<path d="M1383.07 871.565H1456.99L1383.07 797.65V871.565Z" stroke="#0626A9" stroke-width="2" stroke-linecap="round" stroke-linejoin="round"/>
</g>
<path d="M740.281 932.495L771.745 890.011L728.089 813.43L675.498 818.862L626.375 790.146L605.309 741.648L517.17 741.164L495.576 789.424L446.145 817.612L393.615 811.608L349.124 887.695L380.12 930.532L379.812 987.428L348.349 1029.92L391.996 1106.49L444.596 1101.06L493.709 1129.79L514.776 1178.27L602.923 1178.76L624.518 1130.5L673.948 1102.32L726.478 1108.32L770.97 1032.23L739.973 989.4L740.281 932.495ZM598.372 1027.19C561.24 1048.36 513.983 1035.42 492.82 998.291C471.648 961.159 484.589 913.903 521.721 892.731C558.845 871.568 606.11 884.509 627.273 921.641C648.445 958.765 635.504 1006.03 598.372 1027.19Z" fill="#0626A9"/>
<path d="M740.281 932.495L771.745 890.011L728.089 813.43L675.498 818.862L626.375 790.146L605.309 741.648L517.17 741.164L495.576 789.424L446.145 817.612L393.615 811.608L349.124 887.695L380.12 930.532L379.812 987.428L348.349 1029.92L391.996 1106.49L444.596 1101.06L493.709 1129.79L514.776 1178.27L602.923 1178.76L624.518 1130.5L673.948 1102.32L726.478 1108.32L770.97 1032.23L739.973 989.4L740.281 932.495ZM598.372 1027.19C561.24 1048.36 513.983 1035.42 492.82 998.291C471.648 961.159 484.589 913.903 521.721 892.731C558.845 871.568 606.11 884.509 627.273 921.641C648.445 958.765 635.504 1006.03 598.372 1027.19Z" stroke="#0626A9" stroke-width="2" stroke-linecap="round" stroke-linejoin="round"/>
<path d="M1099.1 964.463L1115.32 942.571L1092.82 903.112L1065.72 905.91L1040.41 891.113L1029.56 866.124L984.14 865.874L973.013 890.741L947.542 905.266L920.475 902.173L897.55 941.378L913.521 963.451L913.363 992.768L897.15 1014.66L919.641 1054.12L946.744 1051.32L972.051 1066.12L982.906 1091.11L1028.33 1091.36L1039.45 1066.49L1064.92 1051.97L1091.99 1055.06L1114.92 1015.85L1098.95 993.785L1099.1 964.463ZM1025.98 1013.26C1006.85 1024.16 982.498 1017.49 971.593 998.366C960.684 979.233 967.352 954.882 986.485 943.973C1005.61 933.068 1029.97 939.737 1040.87 958.87C1051.78 977.999 1045.11 1002.35 1025.98 1013.26Z" fill="#84AAE4"/>
<path d="M1099.1 964.463L1115.32 942.571L1092.82 903.112L1065.72 905.91L1040.41 891.113L1029.56 866.124L984.14 865.874L973.013 890.741L947.542 905.266L920.475 902.173L897.55 941.378L913.521 963.451L913.363 992.768L897.15 1014.66L919.641 1054.12L946.744 1051.32L972.051 1066.12L982.906 1091.11L1028.33 1091.36L1039.45 1066.49L1064.92 1051.97L1091.99 1055.06L1114.92 1015.85L1098.95 993.785L1099.1 964.463ZM1025.98 1013.26C1006.85 1024.16 982.498 1017.49 971.593 998.366C960.684 979.233 967.352 954.882 986.485 943.973C1005.61 933.068 1029.97 939.737 1040.87 958.87C1051.78 977.999 1045.11 1002.35 1025.98 1013.26Z" stroke="#0626A9" stroke-width="2" stroke-linecap="round" stroke-linejoin="round"/>
<path d="M1170.06 434.838L1179.12 422.614L1166.56 400.58L1151.42 402.143L1137.29 393.88L1131.23 379.926L1105.87 379.787L1099.66 393.673L1085.43 401.783L1070.32 400.056L1057.52 421.948L1066.44 434.273L1066.35 450.644L1057.29 462.87L1069.85 484.902L1084.99 483.339L1099.12 491.604L1105.18 505.556L1130.54 505.695L1136.76 491.809L1150.98 483.701L1166.09 485.429L1178.89 463.534L1169.98 451.211L1170.06 434.838ZM1129.23 462.085C1118.55 468.174 1104.95 464.45 1098.86 453.769C1092.77 443.085 1096.49 429.489 1107.18 423.397C1117.86 417.308 1131.46 421.031 1137.55 431.715C1143.64 442.396 1139.92 455.996 1129.23 462.085Z" fill="#84AAE4"/>
<path d="M1170.06 434.838L1179.12 422.614L1166.56 400.58L1151.42 402.143L1137.29 393.88L1131.23 379.926L1105.87 379.787L1099.66 393.673L1085.43 401.783L1070.32 400.056L1057.52 421.948L1066.44 434.273L1066.35 450.644L1057.29 462.87L1069.85 484.902L1084.99 483.339L1099.12 491.604L1105.18 505.556L1130.54 505.695L1136.76 491.809L1150.98 483.701L1166.09 485.429L1178.89 463.534L1169.98 451.211L1170.06 434.838ZM1129.23 462.085C1118.55 468.174 1104.95 464.45 1098.86 453.769C1092.77 443.085 1096.49 429.489 1107.18 423.397C1117.86 417.308 1131.46 421.031 1137.55 431.715C1143.64 442.396 1139.92 455.996 1129.23 462.085Z" stroke="#0626A9" stroke-width="2" stroke-linecap="round" stroke-linejoin="round"/>
<path d="M1105.34 758.885C1105.34 759.842 1105.34 760.809 1105.32 761.766C1104.06 892.989 1016.84 1003.66 897.251 1040.14C870.066 1048.45 841.202 1052.92 811.305 1052.92C648.909 1052.92 517.273 921.272 517.273 758.885C517.273 596.489 648.909 464.853 811.305 464.853C973.692 464.853 1105.34 596.489 1105.34 758.885Z" fill="#84AAE4"/>
<path d="M1105.34 758.885C1105.34 759.842 1105.34 760.809 1105.32 761.766C1104.06 892.989 1016.84 1003.66 897.251 1040.14C870.066 1048.45 841.202 1052.92 811.305 1052.92C648.909 1052.92 517.273 921.272 517.273 758.885C517.273 596.489 648.909 464.853 811.305 464.853C973.692 464.853 1105.34 596.489 1105.34 758.885Z" stroke="#0626A9" stroke-width="2" stroke-linecap="round" stroke-linejoin="round"/>
<mask id="mask4_24_23905" style="mask-type:alpha" maskUnits="userSpaceOnUse" x="516" y="463" width="591" height="591">
<path d="M1105.34 758.885C1105.34 759.842 1105.34 760.809 1105.32 761.766C1104.06 892.989 1016.84 1003.66 897.251 1040.14C870.066 1048.45 841.202 1052.92 811.305 1052.92C648.909 1052.92 517.273 921.272 517.273 758.885C517.273 596.489 648.909 464.853 811.305 464.853C973.692 464.853 1105.34 596.489 1105.34 758.885Z" fill="#8484FA"/>
<path d="M1105.34 758.885C1105.34 759.842 1105.34 760.809 1105.32 761.766C1104.06 892.989 1016.84 1003.66 897.251 1040.14C870.066 1048.45 841.202 1052.92 811.305 1052.92C648.909 1052.92 517.273 921.272 517.273 758.885C517.273 596.489 648.909 464.853 811.305 464.853C973.692 464.853 1105.34 596.489 1105.34 758.885Z" stroke="#202870" stroke-width="2" stroke-linecap="round" stroke-linejoin="round"/>
</mask>
<g mask="url(#mask4_24_23905)">
<path d="M1112.39 767.282C1111.13 898.756 1023.74 1009.64 903.929 1046.19L811.306 953.745L966.068 621.216L1112.39 767.282Z" fill="#0626A9"/>
<path d="M1112.39 767.282C1111.13 898.756 1023.74 1009.64 903.929 1046.19L811.306 953.745L966.068 621.216L1112.39 767.282Z" stroke="#0626A9" stroke-width="2.00382" stroke-linecap="round" stroke-linejoin="round"/>
</g>
<path d="M864.903 916.986L811.302 953.741L757.701 916.986C694.381 873.568 656.535 801.726 656.535 724.949V621.213L811.302 564.023L966.069 621.213V724.949C966.069 801.726 928.223 873.568 864.903 916.986Z" fill="#8869D5"/>
<path d="M864.903 916.986L811.302 953.741L757.701 916.986C694.381 873.568 656.535 801.726 656.535 724.949V621.213L811.302 564.023L966.069 621.213V724.949C966.069 801.726 928.223 873.568 864.903 916.986Z" stroke="#0626A9" stroke-width="2.00382" stroke-linecap="round" stroke-linejoin="round"/>
<path d="M853.586 883.607L811.302 912.601L769.017 883.607C719.066 849.354 689.21 792.681 689.21 732.113V650.279L811.302 605.163L933.393 650.279V732.113C933.393 792.681 903.537 849.354 853.586 883.607Z" fill="white"/>
<path d="M770.75 720.5L808.25 758" stroke="#8869D5" stroke-width="6" stroke-linecap="round" stroke-linejoin="round"/>
<path d="M764.5 758L802 720.5L814.5 701.75" stroke="#8869D5" stroke-width="6" stroke-linecap="round" stroke-linejoin="round"/>
<path d="M752 701.75H827" stroke="#8869D5" stroke-width="6" stroke-linecap="round" stroke-linejoin="round"/>
<path d="M783.25 683H789.5" stroke="#8869D5" stroke-width="6" stroke-linecap="round" stroke-linejoin="round"/>
<path d="M877 808L845.75 745.5L814.5 808" stroke="#8869D5" stroke-width="6" stroke-linecap="round" stroke-linejoin="round"/>
<path d="M827 783H864.5" stroke="#8869D5" stroke-width="6" stroke-linecap="round" stroke-linejoin="round"/>
<path d="M853.586 883.607L811.302 912.601L769.017 883.607C719.066 849.354 689.21 792.681 689.21 732.113V650.279L811.302 605.163L933.393 650.279V732.113C933.393 792.681 903.537 849.354 853.586 883.607Z" stroke="#0626A9" stroke-width="2.01063" stroke-linecap="round" stroke-linejoin="round"/>
</g>
</g>
</g>
<defs>
<clipPath id="clip0_24_23905">
<rect width="1600" height="1600" fill="white"/>
</clipPath>
</defs>
</svg>
