<svg width="1600" height="1600" viewBox="0 0 1600 1600" fill="none" xmlns="http://www.w3.org/2000/svg">
<g clip-path="url(#clip0_25_42848)">
<mask id="mask0_25_42848" style="mask-type:luminance" maskUnits="userSpaceOnUse" x="0" y="0" width="1600" height="1600">
<path d="M1600 0H0V1600H1600V0Z" fill="white"/>
</mask>
<g mask="url(#mask0_25_42848)">
<path d="M1260.43 576.89H353.769C334.991 576.89 319.769 592.112 319.769 610.89V1170.07H1294.43V610.89C1294.43 592.112 1279.21 576.89 1260.43 576.89Z" fill="#84AAE4"/>
<path d="M1260.43 576.89H353.769C334.991 576.89 319.769 592.112 319.769 610.89V1170.07H1294.43V610.89C1294.43 592.112 1279.21 576.89 1260.43 576.89Z" stroke="#0626A9" stroke-width="2" stroke-miterlimit="10"/>
<path d="M1268.59 1144.3H347.769V610.225H1268.59V1144.3Z" fill="white"/>
<path d="M1268.59 1144.3H347.769V610.225H1268.59V1144.3Z" stroke="#0626A9" stroke-width="2" stroke-linecap="round" stroke-linejoin="round"/>
<path d="M1358.77 1220.45H260.658C232.185 1220.45 209.103 1197.36 209.103 1168.89H1410.32C1410.32 1197.36 1387.24 1220.45 1358.77 1220.45Z" fill="#84AAE4"/>
<path d="M1358.77 1220.45H260.658C232.185 1220.45 209.103 1197.36 209.103 1168.89H1410.32C1410.32 1197.36 1387.24 1220.45 1358.77 1220.45Z" stroke="#0626A9" stroke-width="2" stroke-miterlimit="10"/>
<path d="M860.658 1194.67H693.546C679.309 1194.67 667.769 1183.13 667.769 1168.89H886.435C886.435 1183.13 874.895 1194.67 860.658 1194.67Z" fill="#0626A9"/>
<mask id="mask1_25_42848" style="mask-type:luminance" maskUnits="userSpaceOnUse" x="0" y="0" width="1600" height="1600">
<path d="M0 0H1600V1600H0V0Z" fill="white"/>
</mask>
<g mask="url(#mask1_25_42848)">
<path d="M319.488 794.44L320.73 831.752L488.356 804.381L486.086 736.197" fill="#0626A9"/>
<path d="M259.5 665V494H495.5L562.5 548.5" stroke="#0626A9" stroke-width="2" stroke-dasharray="71 34"/>
<path d="M514.259 794.357L195.769 804.961L190.696 652.601L509.186 641.997L514.259 794.357Z" fill="#84AAE4"/>
<path d="M514.259 794.357L195.769 804.961L190.696 652.601L509.186 641.997L514.259 794.357Z" stroke="#0626A9" stroke-width="2" stroke-miterlimit="10"/>
<path d="M225.481 735.712L304.549 733.079L324.062 771.562L366.679 675.869L382.061 737.169L410.045 736.237L417.923 719.077L433.113 761.261L457.28 685.749L485.67 723.714" stroke="#0626A9" stroke-width="2" stroke-linecap="round" stroke-linejoin="round"/>
</g>
<mask id="mask2_25_42848" style="mask-type:alpha" maskUnits="userSpaceOnUse" x="189" y="493" width="375" height="339">
<mask id="mask3_25_42848" style="mask-type:luminance" maskUnits="userSpaceOnUse" x="0" y="0" width="1600" height="1600">
<path d="M0 0H1600V1600H0V0Z" fill="white"/>
</mask>
<g mask="url(#mask3_25_42848)">
<path d="M319.488 794.44L320.73 831.752L488.356 804.381L486.086 736.197" fill="#202870"/>
<path d="M259.5 665V494H495.5L562.5 548.5" stroke="#202870" stroke-width="2" stroke-dasharray="71 34"/>
<path d="M514.259 794.357L195.769 804.961L190.696 652.601L509.186 641.997L514.259 794.357Z" fill="#8484FA"/>
<path d="M514.259 794.357L195.769 804.961L190.696 652.601L509.186 641.997L514.259 794.357Z" stroke="#202870" stroke-width="2" stroke-miterlimit="10"/>
<path d="M225.481 735.712L304.549 733.079L324.062 771.562L366.679 675.869L382.061 737.169L410.045 736.237L417.923 719.077L433.113 761.261L457.28 685.749L485.67 723.714" stroke="#202870" stroke-width="2" stroke-linecap="round" stroke-linejoin="round"/>
</g>
</mask>
<g mask="url(#mask2_25_42848)">
<path d="M468.485 847.129C462.5 823.488 462.09 790.802 462.09 783.809C462.09 601.295 610.046 453.339 792.56 453.339C975.074 453.339 1123.03 601.295 1123.03 783.809L527.028 792.002L499.948 840.727L468.485 847.129Z" fill="#0626A9"/>
</g>
<mask id="mask4_25_42848" style="mask-type:luminance" maskUnits="userSpaceOnUse" x="0" y="0" width="1600" height="1600">
<path d="M0 0H1600V1600H0V0Z" fill="white"/>
</mask>
<g mask="url(#mask4_25_42848)">
<path d="M279.092 877.955V1048.96L483.092 1048.91L555.717 979.285" stroke="#0626A9" stroke-width="2" stroke-dasharray="71 34"/>
<path d="M319.554 944.674L320.207 997.836L441.797 961.446" fill="#0626A9"/>
<path d="M441.797 961.447L155.545 964.964L154.058 843.922L440.31 840.404L441.797 961.447Z" fill="#84AAE4"/>
<path d="M441.797 961.447L155.545 964.964L154.058 843.922L440.31 840.404L441.797 961.447Z" stroke="#0626A9" stroke-width="2" stroke-miterlimit="10"/>
<path d="M401.674 887.593L273.424 889.169" stroke="#0626A9" stroke-width="2" stroke-linecap="round" stroke-linejoin="round" stroke-dasharray="116 10"/>
<path d="M360.832 915.726L273.765 916.796" stroke="#0626A9" stroke-width="2" stroke-linecap="round" stroke-linejoin="round" stroke-dasharray="65 10"/>
<path d="M257.859 903.177C258.111 923.733 241.651 940.603 221.095 940.855C200.538 941.108 183.669 924.648 183.416 904.091C183.164 883.535 199.624 866.665 220.18 866.413C240.737 866.16 257.606 882.62 257.859 903.177Z" fill="white"/>
<path d="M257.859 903.177C258.111 923.733 241.651 940.603 221.095 940.855C200.538 941.108 183.669 924.648 183.416 904.091C183.164 883.535 199.624 866.665 220.18 866.413C240.737 866.16 257.606 882.62 257.859 903.177Z" stroke="#0626A9" stroke-width="2" stroke-miterlimit="10"/>
</g>
<mask id="mask5_25_42848" style="mask-type:luminance" maskUnits="userSpaceOnUse" x="0" y="0" width="1600" height="1600">
<path d="M0 0H1600V1600H0V0Z" fill="white"/>
</mask>
<g mask="url(#mask5_25_42848)">
<path d="M1211.18 682.069L1294.44 758.373V707.78" fill="#0626A9"/>
<path d="M1282.34 612.205V441.205L1116.37 441.229L1024.4 517.5" stroke="#0626A9" stroke-width="2" stroke-dasharray="71 34"/>
<path d="M1388.88 609.78C1388.88 666.972 1342.52 713.336 1285.32 713.336C1228.13 713.336 1181.77 666.972 1181.77 609.78C1181.77 552.588 1228.13 506.224 1285.32 506.224C1342.52 506.224 1388.88 552.588 1388.88 609.78Z" fill="#84AAE4"/>
<path d="M1388.88 609.78C1388.88 666.972 1342.52 713.336 1285.32 713.336C1228.13 713.336 1181.77 666.972 1181.77 609.78C1181.77 552.588 1228.13 506.224 1285.32 506.224C1342.52 506.224 1388.88 552.588 1388.88 609.78Z" stroke="#0626A9" stroke-width="2" stroke-miterlimit="10"/>
<path d="M1310.93 553.501L1313.48 662.567" stroke="#0626A9" stroke-width="2" stroke-linecap="round" stroke-linejoin="round"/>
<path d="M1317.66 546.439C1317.75 550.249 1314.74 553.411 1310.93 553.5C1307.12 553.59 1303.96 550.573 1303.87 546.763C1303.78 542.953 1306.79 539.791 1310.6 539.702C1314.41 539.613 1317.57 542.629 1317.66 546.439Z" fill="#0626A9"/>
<path d="M1320.55 669.492C1320.64 673.302 1317.62 676.464 1313.81 676.553C1310 676.643 1306.84 673.626 1306.75 669.816C1306.66 666.006 1309.68 662.844 1313.49 662.755C1317.3 662.666 1320.46 665.683 1320.55 669.492Z" fill="#0626A9"/>
<path d="M1283.01 554.156L1285.57 663.222" stroke="#0626A9" stroke-width="2" stroke-linecap="round" stroke-linejoin="round"/>
<path d="M1289.75 547.094C1289.84 550.904 1286.82 554.065 1283.01 554.155C1279.2 554.244 1276.04 551.227 1275.95 547.417C1275.86 543.607 1278.88 540.446 1282.69 540.356C1286.5 540.267 1289.66 543.284 1289.75 547.094Z" fill="#0626A9"/>
<path d="M1292.63 670.147C1292.72 673.957 1289.71 677.118 1285.9 677.208C1282.09 677.297 1278.92 674.28 1278.83 670.47C1278.75 666.661 1281.76 663.499 1285.57 663.41C1289.38 663.32 1292.54 666.337 1292.63 670.147Z" fill="#0626A9"/>
<path d="M1255.09 554.81L1257.65 663.876" stroke="#0626A9" stroke-width="2" stroke-linecap="round" stroke-linejoin="round"/>
<path d="M1261.83 547.748C1261.92 551.558 1258.9 554.72 1255.09 554.809C1251.28 554.898 1248.12 551.882 1248.03 548.072C1247.94 544.262 1250.96 541.1 1254.77 541.011C1258.58 540.922 1261.74 543.938 1261.83 547.748Z" fill="#0626A9"/>
<path d="M1264.72 670.801C1264.81 674.611 1261.79 677.773 1257.98 677.862C1254.17 677.952 1251.01 674.935 1250.92 671.125C1250.83 667.315 1253.85 664.153 1257.66 664.064C1261.47 663.975 1264.63 666.991 1264.72 670.801Z" fill="#0626A9"/>
<path d="M1229.01 582.147L1338.08 579.59" stroke="#0626A9" stroke-width="2" stroke-linecap="round" stroke-linejoin="round"/>
<path d="M1221.95 575.41C1225.76 575.32 1228.92 578.337 1229.01 582.147C1229.1 585.957 1226.08 589.119 1222.27 589.208C1218.46 589.297 1215.3 586.281 1215.21 582.471C1215.12 578.661 1218.14 575.499 1221.95 575.41Z" fill="#0626A9"/>
<path d="M1345 572.525C1348.81 572.436 1351.97 575.452 1352.06 579.262C1352.15 583.072 1349.14 586.234 1345.33 586.323C1341.52 586.412 1338.35 583.396 1338.27 579.586C1338.18 575.776 1341.19 572.614 1345 572.525Z" fill="#0626A9"/>
<path d="M1229.67 610.063L1338.73 607.506" stroke="#0626A9" stroke-width="2" stroke-linecap="round" stroke-linejoin="round"/>
<path d="M1222.6 603.326C1226.41 603.237 1229.58 606.253 1229.67 610.063C1229.75 613.873 1226.74 617.035 1222.93 617.124C1219.12 617.214 1215.96 614.197 1215.87 610.387C1215.78 606.577 1218.79 603.415 1222.6 603.326Z" fill="#0626A9"/>
<path d="M1345.66 600.441C1349.47 600.352 1352.63 603.369 1352.72 607.179C1352.81 610.989 1349.79 614.15 1345.98 614.239C1342.17 614.329 1339.01 611.312 1338.92 607.502C1338.83 603.692 1341.85 600.531 1345.66 600.441Z" fill="#0626A9"/>
<path d="M1230.32 637.979L1339.39 635.422" stroke="#0626A9" stroke-width="2" stroke-linecap="round" stroke-linejoin="round"/>
<path d="M1223.26 631.242C1227.07 631.153 1230.23 634.17 1230.32 637.98C1230.41 641.79 1227.39 644.951 1223.58 645.041C1219.77 645.13 1216.61 642.113 1216.52 638.303C1216.43 634.493 1219.45 631.332 1223.26 631.242Z" fill="#0626A9"/>
<path d="M1346.31 628.356C1350.12 628.267 1353.28 631.284 1353.37 635.094C1353.46 638.904 1350.45 642.065 1346.64 642.155C1342.83 642.244 1339.66 639.227 1339.57 635.417C1339.49 631.607 1342.5 628.446 1346.31 628.356Z" fill="#0626A9"/>
<path d="M1329.3 651.243L1242.31 653.282L1240.28 566.3L1327.26 564.26L1329.3 651.243Z" fill="white"/>
<path d="M1329.3 651.243L1242.31 653.282L1240.28 566.3L1327.26 564.26L1329.3 651.243Z" stroke="#0626A9" stroke-width="2" stroke-linecap="round" stroke-linejoin="round"/>
<path d="M1308.56 631.456L1262.1 632.545L1261.01 586.086L1307.47 584.997L1308.56 631.456Z" fill="#0626A9"/>
<mask id="mask6_25_42848" style="mask-type:alpha" maskUnits="userSpaceOnUse" x="1215" y="539" width="139" height="139">
<path d="M1310.93 553.501L1313.48 662.567" stroke="#202870" stroke-width="2" stroke-linecap="round" stroke-linejoin="round"/>
<path d="M1317.66 546.439C1317.75 550.249 1314.74 553.411 1310.93 553.5C1307.12 553.589 1303.96 550.573 1303.87 546.763C1303.78 542.953 1306.79 539.791 1310.6 539.702C1314.41 539.613 1317.57 542.629 1317.66 546.439Z" fill="#202870"/>
<path d="M1320.55 669.492C1320.64 673.302 1317.62 676.464 1313.81 676.553C1310 676.643 1306.84 673.626 1306.75 669.816C1306.66 666.006 1309.68 662.844 1313.49 662.755C1317.3 662.666 1320.46 665.683 1320.55 669.492Z" fill="#202870"/>
<path d="M1283.01 554.156L1285.57 663.222" stroke="#202870" stroke-width="2" stroke-linecap="round" stroke-linejoin="round"/>
<path d="M1289.75 547.094C1289.84 550.904 1286.82 554.065 1283.01 554.155C1279.2 554.244 1276.04 551.227 1275.95 547.417C1275.86 543.607 1278.88 540.446 1282.69 540.356C1286.5 540.267 1289.66 543.284 1289.75 547.094Z" fill="#202870"/>
<path d="M1292.63 670.147C1292.72 673.957 1289.71 677.118 1285.9 677.208C1282.09 677.297 1278.92 674.28 1278.83 670.47C1278.75 666.661 1281.76 663.499 1285.57 663.41C1289.38 663.32 1292.54 666.337 1292.63 670.147Z" fill="#202870"/>
<path d="M1255.09 554.81L1257.65 663.876" stroke="#202870" stroke-width="2" stroke-linecap="round" stroke-linejoin="round"/>
<path d="M1261.83 547.748C1261.92 551.558 1258.9 554.72 1255.09 554.809C1251.28 554.898 1248.12 551.882 1248.03 548.072C1247.94 544.262 1250.96 541.1 1254.77 541.011C1258.58 540.922 1261.74 543.938 1261.83 547.748Z" fill="#202870"/>
<path d="M1264.72 670.801C1264.81 674.611 1261.79 677.773 1257.98 677.862C1254.17 677.952 1251.01 674.935 1250.92 671.125C1250.83 667.315 1253.85 664.153 1257.66 664.064C1261.47 663.975 1264.63 666.991 1264.72 670.801Z" fill="#202870"/>
<path d="M1229.01 582.147L1338.08 579.59" stroke="#202870" stroke-width="2" stroke-linecap="round" stroke-linejoin="round"/>
<path d="M1221.95 575.41C1225.76 575.32 1228.92 578.337 1229.01 582.147C1229.1 585.957 1226.08 589.119 1222.27 589.208C1218.46 589.297 1215.3 586.28 1215.21 582.471C1215.12 578.661 1218.14 575.499 1221.95 575.41Z" fill="#202870"/>
<path d="M1345 572.525C1348.81 572.435 1351.97 575.452 1352.06 579.262C1352.15 583.072 1349.14 586.234 1345.33 586.323C1341.52 586.412 1338.35 583.396 1338.27 579.586C1338.18 575.776 1341.19 572.614 1345 572.525Z" fill="#202870"/>
<path d="M1229.67 610.063L1338.73 607.506" stroke="#202870" stroke-width="2" stroke-linecap="round" stroke-linejoin="round"/>
<path d="M1222.6 603.326C1226.41 603.237 1229.58 606.253 1229.67 610.063C1229.75 613.873 1226.74 617.035 1222.93 617.124C1219.12 617.214 1215.96 614.197 1215.87 610.387C1215.78 606.577 1218.79 603.415 1222.6 603.326Z" fill="#202870"/>
<path d="M1345.66 600.441C1349.47 600.352 1352.63 603.369 1352.72 607.179C1352.81 610.988 1349.79 614.15 1345.98 614.239C1342.17 614.329 1339.01 611.312 1338.92 607.502C1338.83 603.692 1341.85 600.53 1345.66 600.441Z" fill="#202870"/>
<path d="M1230.32 637.979L1339.39 635.422" stroke="#202870" stroke-width="2" stroke-linecap="round" stroke-linejoin="round"/>
<path d="M1223.26 631.242C1227.07 631.153 1230.23 634.17 1230.32 637.98C1230.41 641.79 1227.39 644.951 1223.58 645.04C1219.77 645.13 1216.61 642.113 1216.52 638.303C1216.43 634.493 1219.45 631.332 1223.26 631.242Z" fill="#202870"/>
<path d="M1346.31 628.356C1350.12 628.267 1353.28 631.284 1353.37 635.094C1353.46 638.904 1350.45 642.065 1346.64 642.155C1342.83 642.244 1339.66 639.227 1339.57 635.417C1339.49 631.607 1342.5 628.446 1346.31 628.356Z" fill="#202870"/>
<path d="M1329.3 651.243L1242.31 653.282L1240.28 566.3L1327.26 564.26L1329.3 651.243Z" fill="white"/>
<path d="M1329.3 651.243L1242.31 653.282L1240.28 566.3L1327.26 564.26L1329.3 651.243Z" stroke="#202870" stroke-width="2" stroke-linecap="round" stroke-linejoin="round"/>
<path d="M1308.56 631.456L1262.1 632.545L1261.01 586.086L1307.47 584.997L1308.56 631.456Z" fill="#202870"/>
</mask>
<g mask="url(#mask6_25_42848)">
<path d="M1308 405.5L1043 651.5L1094 687L1351 443L1308 405.5Z" fill="white"/>
</g>
</g>
<mask id="mask7_25_42848" style="mask-type:luminance" maskUnits="userSpaceOnUse" x="0" y="0" width="1600" height="1600">
<path d="M0 0H1600V1600H0V0Z" fill="white"/>
</mask>
<g mask="url(#mask7_25_42848)">
<path d="M1294.7 1064.42L1293.27 1117.05L1150.44 1072.26" fill="#0626A9"/>
<path d="M1358.34 965.705V794.705L1141.09 794.75" stroke="#0626A9" stroke-width="2" stroke-dasharray="71 34"/>
<path d="M1519.63 1082.34L1150.44 1072.26L1155.57 884.334L1524.76 894.415L1519.63 1082.34Z" fill="#84AAE4"/>
<path d="M1519.63 1082.34L1150.44 1072.26L1155.57 884.334L1524.76 894.415L1519.63 1082.34Z" stroke="#0626A9" stroke-width="2" stroke-miterlimit="10"/>
<path d="M1309.96 941.124L1194.89 937.982" stroke="#0626A9" stroke-width="2" stroke-linecap="round" stroke-linejoin="round" stroke-dasharray="245 14"/>
<path d="M1356.97 970.048L1194.14 965.602" stroke="#0626A9" stroke-width="2" stroke-linecap="round" stroke-linejoin="round" stroke-dasharray="220 5"/>
<path d="M1356.21 997.668L1193.39 993.222" stroke="#0626A9" stroke-width="2" stroke-linecap="round" stroke-linejoin="round" stroke-dasharray="150 15"/>
<path d="M1285.04 1023.36L1192.63 1020.84" stroke="#0626A9" stroke-width="2" stroke-linecap="round" stroke-linejoin="round" stroke-dasharray="77 10"/>
<path d="M1481.44 987.267C1480.75 1012.42 1459.8 1032.25 1434.65 1031.56C1409.5 1030.88 1389.67 1009.93 1390.36 984.78C1391.04 959.629 1411.99 939.797 1437.14 940.484C1462.29 941.171 1482.12 962.116 1481.44 987.267Z" fill="white"/>
<path d="M1481.44 987.267C1480.75 1012.42 1459.8 1032.25 1434.65 1031.56C1409.5 1030.88 1389.67 1009.93 1390.36 984.78C1391.04 959.629 1411.99 939.797 1437.14 940.484C1462.29 941.171 1482.12 962.116 1481.44 987.267Z" stroke="#0626A9" stroke-width="2" stroke-linecap="round" stroke-linejoin="round"/>
<path d="M1481.44 987.267C1480.75 1012.42 1459.8 1032.25 1434.65 1031.56C1409.5 1030.88 1389.67 1009.93 1390.36 984.78C1391.04 959.629 1411.99 939.797 1437.14 940.484C1462.29 941.171 1482.12 962.116 1481.44 987.267Z" stroke="#0626A9" stroke-width="2" stroke-linecap="round" stroke-linejoin="round"/>
</g>
</g>
</g>
<defs>
<clipPath id="clip0_25_42848">
<rect width="1600" height="1600" fill="white"/>
</clipPath>
</defs>
</svg>
