<svg width="1600" height="1600" viewBox="0 0 1600 1600" fill="none" xmlns="http://www.w3.org/2000/svg">
<g clip-path="url(#clip0_25_44573)">
<mask id="mask0_25_44573" style="mask-type:luminance" maskUnits="userSpaceOnUse" x="0" y="0" width="1600" height="1600">
<path d="M1600 0H0V1600H1600V0Z" fill="white"/>
</mask>
<g mask="url(#mask0_25_44573)">
<path d="M714.628 900.027H81.7393V103.582H714.628V900.027Z" stroke="#0626A9" stroke-width="1.779" stroke-linecap="round" stroke-linejoin="round"/>
<path d="M1518.18 754.249H1180.41V103.582" stroke="#0626A9" stroke-width="1.934" stroke-linecap="round" stroke-linejoin="round"/>
<path d="M917.404 1243.84H637.854V779.088H917.404V1243.84Z" fill="#84AAE4"/>
<path d="M917.404 1243.84H637.854V779.088H917.404V1243.84Z" stroke="#0626A9" stroke-width="2.09" stroke-linecap="round" stroke-linejoin="round"/>
<path d="M1005.93 1264.8H549.329V1261.01C549.329 1239.95 566.402 1222.87 587.462 1222.87H967.793C988.853 1222.87 1005.93 1239.95 1005.93 1261.01V1264.8Z" fill="#84AAE4"/>
<path d="M1005.93 1264.8H549.329V1261.01C549.329 1239.95 566.402 1222.87 587.462 1222.87H967.793C988.853 1222.87 1005.93 1239.95 1005.93 1261.01V1264.8Z" stroke="#0626A9" stroke-width="2.09" stroke-linecap="round" stroke-linejoin="round"/>
<path d="M636.98 1090.09L918.276 1020.2L916.529 932.84L636.98 1006.22V1090.09Z" fill="#0626A9"/>
<path d="M1368.18 1010.59H187.08C171.641 1010.59 159.125 998.074 159.125 982.635V270.657C159.125 255.218 171.641 242.702 187.08 242.702H1368.18C1383.61 242.702 1396.13 255.218 1396.13 270.657V982.635C1396.13 998.074 1383.61 1010.59 1368.18 1010.59Z" fill="#84AAE4"/>
<path d="M1368.18 1010.59H187.08C171.641 1010.59 159.125 998.074 159.125 982.635V270.657C159.125 255.218 171.641 242.702 187.08 242.702H1368.18C1383.61 242.702 1396.13 255.218 1396.13 270.657V982.635C1396.13 998.074 1383.61 1010.59 1368.18 1010.59Z" stroke="#0626A9" stroke-width="2.09" stroke-linecap="round" stroke-linejoin="round"/>
<path d="M1377.79 948.214H177.471V305.078H1377.79V948.214Z" fill="white"/>
<path d="M1377.79 948.214H177.471V305.078H1377.79V948.214Z" stroke="#0626A9" stroke-width="2.09" stroke-linecap="round" stroke-linejoin="round"/>
<path d="M91.8506 1325.19H1463.41" stroke="#0626A9" stroke-width="2" stroke-linecap="round" stroke-linejoin="round"/>
<path d="M139.406 1496.39H1434.07" stroke="#0626A9" stroke-width="2" stroke-linecap="round" stroke-linejoin="round"/>
<path d="M484.887 1429.82H436.887C429.769 1429.82 423.998 1424.05 423.998 1416.93C423.998 1409.81 429.769 1404.04 436.887 1404.04H484.887C492.005 1404.04 497.776 1409.81 497.776 1416.93C497.776 1424.05 492.005 1429.82 484.887 1429.82Z" fill="white"/>
<path d="M484.887 1429.82H436.887C429.769 1429.82 423.998 1424.05 423.998 1416.93C423.998 1409.81 429.769 1404.04 436.887 1404.04H484.887C492.005 1404.04 497.776 1409.81 497.776 1416.93C497.776 1424.05 492.005 1429.82 484.887 1429.82Z" stroke="#0626A9" stroke-width="1.934" stroke-linecap="round" stroke-linejoin="round"/>
<path d="M577.332 1429.82H529.332C522.214 1429.82 516.443 1424.05 516.443 1416.93C516.443 1409.81 522.214 1404.04 529.332 1404.04H577.332C584.45 1404.04 590.22 1409.81 590.22 1416.93C590.22 1424.05 584.45 1429.82 577.332 1429.82Z" fill="white"/>
<path d="M577.332 1429.82H529.332C522.214 1429.82 516.443 1424.05 516.443 1416.93C516.443 1409.81 522.214 1404.04 529.332 1404.04H577.332C584.45 1404.04 590.22 1409.81 590.22 1416.93C590.22 1424.05 584.45 1429.82 577.332 1429.82Z" stroke="#0626A9" stroke-width="1.934" stroke-linecap="round" stroke-linejoin="round"/>
<path d="M1016.44 1429.82H968.444C961.326 1429.82 955.555 1424.05 955.555 1416.93C955.555 1409.81 961.326 1404.04 968.444 1404.04H1016.44C1023.56 1404.04 1029.33 1409.81 1029.33 1416.93C1029.33 1424.05 1023.56 1429.82 1016.44 1429.82Z" fill="white"/>
<path d="M1016.44 1429.82H968.444C961.326 1429.82 955.555 1424.05 955.555 1416.93C955.555 1409.81 961.326 1404.04 968.444 1404.04H1016.44C1023.56 1404.04 1029.33 1409.81 1029.33 1416.93C1029.33 1424.05 1023.56 1429.82 1016.44 1429.82Z" stroke="#0626A9" stroke-width="1.934" stroke-linecap="round" stroke-linejoin="round"/>
<path d="M1109.78 1429.82H1061.78C1054.66 1429.82 1048.89 1424.05 1048.89 1416.93C1048.89 1409.81 1054.66 1404.04 1061.78 1404.04H1109.78C1116.89 1404.04 1122.66 1409.81 1122.66 1416.93C1122.66 1424.05 1116.89 1429.82 1109.78 1429.82Z" fill="white"/>
<path d="M1109.78 1429.82H1061.78C1054.66 1429.82 1048.89 1424.05 1048.89 1416.93C1048.89 1409.81 1054.66 1404.04 1061.78 1404.04H1109.78C1116.89 1404.04 1122.66 1409.81 1122.66 1416.93C1122.66 1424.05 1116.89 1429.82 1109.78 1429.82Z" stroke="#0626A9" stroke-width="1.934" stroke-linecap="round" stroke-linejoin="round"/>
<path d="M922.665 1429.82H619.998C612.88 1429.82 607.109 1424.05 607.109 1416.93C607.109 1409.81 612.88 1404.04 619.998 1404.04H922.665C929.783 1404.04 935.554 1409.81 935.554 1416.93C935.554 1424.05 929.783 1429.82 922.665 1429.82Z" fill="white"/>
<path d="M922.665 1429.82H619.998C612.88 1429.82 607.109 1424.05 607.109 1416.93C607.109 1409.81 612.88 1404.04 619.998 1404.04H922.665C929.783 1404.04 935.554 1409.81 935.554 1416.93C935.554 1424.05 929.783 1429.82 922.665 1429.82Z" stroke="#0626A9" stroke-width="1.934" stroke-linecap="round" stroke-linejoin="round"/>
<path d="M1178.22 1450.21H377.035C377.035 1431.09 392.534 1415.59 411.653 1415.59H1143.6C1162.72 1415.59 1178.22 1431.09 1178.22 1450.21Z" fill="white"/>
<path d="M1178.22 1450.21H377.035C377.035 1431.09 392.534 1415.59 411.653 1415.59H1143.6C1162.72 1415.59 1178.22 1431.09 1178.22 1450.21Z" stroke="#0626A9" stroke-width="1.934" stroke-linecap="round" stroke-linejoin="round"/>
<path d="M177.471 363.662H1377.79" stroke="#0626A9" stroke-width="2" stroke-miterlimit="10"/>
<path d="M250.838 353.912C250.348 354.402 249.708 354.642 249.068 354.642C248.428 354.642 247.788 354.402 247.298 353.912L235.878 342.492C235.828 342.442 235.778 342.392 235.738 342.332C233.398 343.982 230.548 344.942 227.468 344.942C219.518 344.942 213.068 338.492 213.068 330.542C213.068 322.592 219.518 316.142 227.468 316.142C235.418 316.142 241.868 322.592 241.868 330.542C241.868 333.622 240.908 336.472 239.258 338.812C239.318 338.852 239.368 338.902 239.418 338.952L250.838 350.372C251.808 351.352 251.808 352.932 250.838 353.912Z" fill="#84AAE4"/>
<path d="M250.838 353.912C250.348 354.402 249.708 354.642 249.068 354.642C248.428 354.642 247.788 354.402 247.298 353.912L235.878 342.492C235.828 342.442 235.778 342.392 235.738 342.332C233.398 343.982 230.548 344.942 227.468 344.942C219.518 344.942 213.068 338.492 213.068 330.542C213.068 322.592 219.518 316.142 227.468 316.142C235.418 316.142 241.868 322.592 241.868 330.542C241.868 333.622 240.908 336.472 239.258 338.812C239.318 338.852 239.368 338.902 239.418 338.952L250.838 350.372C251.808 351.352 251.808 352.932 250.838 353.912Z" stroke="#0626A9" stroke-width="2.09" stroke-linecap="round" stroke-linejoin="round"/>
<path d="M255.909 335.392H729.669" stroke="#0626A9" stroke-width="2.09" stroke-linecap="round" stroke-linejoin="round"/>
<path d="M1290.27 336.437H1243.18C1242.61 336.437 1242.14 335.969 1242.14 335.392C1242.14 334.815 1242.61 334.347 1243.18 334.347H1290.27C1290.85 334.347 1291.31 334.815 1291.31 335.392C1291.31 335.969 1290.85 336.437 1290.27 336.437ZM1196.1 336.437H1149.02C1148.44 336.437 1147.97 335.969 1147.97 335.392C1147.97 334.815 1148.44 334.347 1149.02 334.347H1196.1C1196.68 334.347 1197.14 334.815 1197.14 335.392C1197.14 335.969 1196.68 336.437 1196.1 336.437ZM1101.93 336.437H1054.85C1054.27 336.437 1053.8 335.969 1053.8 335.392C1053.8 334.815 1054.27 334.347 1054.85 334.347H1101.93C1102.51 334.347 1102.98 334.815 1102.98 335.392C1102.98 335.969 1102.51 336.437 1101.93 336.437ZM1007.76 336.437H960.678C960.101 336.437 959.633 335.969 959.633 335.392C959.633 334.815 960.101 334.347 960.678 334.347H1007.76C1008.34 334.347 1008.81 334.815 1008.81 335.392C1008.81 335.969 1008.34 336.437 1007.76 336.437Z" fill="#0626A9"/>
<mask id="mask1_25_44573" style="mask-type:alpha" maskUnits="userSpaceOnUse" x="176" y="362" width="1203" height="585">
<path d="M1377.79 945.714H177.471V363.078H1377.79V945.714Z" fill="white"/>
<path d="M1377.79 945.714H177.471V363.078H1377.79V945.714Z" stroke="#202870" stroke-width="1.98927" stroke-linecap="round" stroke-linejoin="round"/>
</mask>
<g mask="url(#mask1_25_44573)">
<mask id="mask2_25_44573" style="mask-type:luminance" maskUnits="userSpaceOnUse" x="0" y="0" width="1601" height="1600">
<path d="M0.000976562 0H1600V1600H0.000976562V0Z" fill="white"/>
</mask>
<g mask="url(#mask2_25_44573)">
<path d="M1296.64 764.383V1080.75H980.271V764.383H1296.64Z" fill="#84AAE4"/>
<path d="M1296.64 764.383V1080.75H980.271V764.383H1296.64Z" stroke="#0626A9" stroke-width="2.09" stroke-linecap="round" stroke-linejoin="round"/>
<path d="M1193.54 1080.75L1220.02 1051.59L1147.42 971.598L1220.02 891.611L1147.42 811.624L1190.29 764.383H1099.77L1056.89 811.624L1129.49 891.611L1056.89 971.598L1129.49 1051.59L1103.02 1080.75" fill="#8869D5"/>
<path d="M1193.54 1080.75L1220.02 1051.59L1147.42 971.598L1220.02 891.611L1147.42 811.624L1190.29 764.383H1099.77L1056.89 811.624L1129.49 891.611L1056.89 971.598L1129.49 1051.59L1103.02 1080.75" stroke="#0626A9" stroke-width="2" stroke-miterlimit="10"/>
<path d="M929.517 764.383V1080.75H613.148V764.383H929.517Z" fill="#8869D5"/>
<path d="M929.517 764.383V1080.75H613.148V764.383H929.517Z" stroke="#0626A9" stroke-width="2" stroke-miterlimit="10"/>
<path d="M866.887 764.383C855.001 805.959 816.717 836.384 771.333 836.384C725.949 836.384 687.665 805.959 675.779 764.383H866.887Z" fill="#84AAE4"/>
<path d="M866.887 764.383C855.001 805.959 816.717 836.384 771.333 836.384C725.949 836.384 687.665 805.959 675.779 764.383H866.887Z" stroke="#0626A9" stroke-width="2.09" stroke-linecap="round" stroke-linejoin="round"/>
<path d="M562.395 764.383V1080.75H246.026V764.383H562.395Z" fill="#84AAE4"/>
<path d="M562.395 764.383V1080.75H246.026V764.383H562.395Z" stroke="#0626A9" stroke-width="2.09" stroke-linecap="round" stroke-linejoin="round"/>
<path d="M509.603 1080.75C510.515 1078.81 510.89 1076.72 510.89 1074.45C510.89 1045.87 433.224 1045.87 433.224 1017.3C433.224 988.734 510.89 988.734 510.89 960.167C510.89 931.6 433.224 931.599 433.224 903.032C433.224 874.465 510.89 874.464 510.89 845.905C510.89 817.338 433.224 817.337 433.224 788.77C433.224 777.238 445.879 770.359 460.973 764.382L320.906 764.383C305.812 770.36 293.158 777.24 293.158 788.772C293.158 817.339 370.823 817.34 370.823 845.907C370.823 874.466 293.158 874.466 293.158 903.033C293.158 931.6 370.823 931.601 370.823 960.168C370.823 988.735 293.158 988.736 293.158 1017.3C293.158 1045.87 370.823 1045.87 370.823 1074.45C370.823 1076.72 370.072 1078.81 369.16 1080.75L509.603 1080.75Z" fill="#0626A9"/>
<path d="M1296.64 705.805H980.271V389.435H1296.64V705.805Z" stroke="#0626A9" stroke-width="1.831" stroke-linecap="round" stroke-linejoin="round"/>
<path d="M1296.64 705.805H980.271V389.435H1296.64V705.805Z" fill="#84AAE4"/>
<path d="M1296.64 705.805H980.271V389.435H1296.64V705.805Z" stroke="#0626A9" stroke-width="2.09" stroke-linecap="round" stroke-linejoin="round"/>
<path d="M1296.64 705.805H980.271V540.782H1296.64V705.805Z" stroke="#0626A9" stroke-width="1.323" stroke-linecap="round" stroke-linejoin="round"/>
<path d="M1296.64 540.782H1050.69L1053.2 536.726C1095.85 467.829 1171.12 425.904 1252.15 425.904H1296.64V540.782Z" fill="white"/>
<path d="M1296.64 540.782H1050.69L1053.2 536.726C1095.85 467.829 1171.12 425.904 1252.15 425.904H1296.64V540.782Z" stroke="#0626A9" stroke-width="2.636" stroke-linecap="round" stroke-linejoin="round"/>
<path d="M1148.75 540.782H980.271V389.435H1034.48C1097.59 389.435 1148.75 440.596 1148.75 503.705V540.782Z" fill="#8869D5"/>
<path d="M1148.75 540.782H980.271V389.435H1034.48C1097.59 389.435 1148.75 440.596 1148.75 503.705V540.782Z" stroke="#0626A9" stroke-width="2" stroke-miterlimit="10"/>
<path d="M1163.83 540.782C1163.83 554.796 1152.47 566.156 1138.46 566.156C1124.44 566.156 1113.08 554.796 1113.08 540.782C1113.08 526.768 1124.44 515.408 1138.46 515.408C1152.47 515.408 1163.83 526.768 1163.83 540.782Z" fill="white"/>
<path d="M1163.83 540.782C1163.83 554.796 1152.47 566.156 1138.46 566.156C1124.44 566.156 1113.08 554.796 1113.08 540.782C1113.08 526.768 1124.44 515.408 1138.46 515.408C1152.47 515.408 1163.83 526.768 1163.83 540.782Z" stroke="#0626A9" stroke-width="2.636" stroke-linecap="round" stroke-linejoin="round"/>
<path d="M1109.13 576.035H1188.14" stroke="#0626A9" stroke-width="1.056" stroke-linecap="round" stroke-linejoin="round"/>
<path d="M1050.78 623.293H1237.99" stroke="#0626A9" stroke-width="1.65" stroke-linecap="round" stroke-linejoin="round"/>
<path d="M1112.17 643.503H1176.6" stroke="#0626A9" stroke-width="1.65" stroke-linecap="round" stroke-linejoin="round"/>
<path d="M929.517 705.805H613.148V389.435H929.517V705.805Z" stroke="#0626A9" stroke-width="1.831" stroke-linecap="round" stroke-linejoin="round"/>
<path d="M929.517 705.805H613.148V389.435H929.517V705.805Z" fill="#84AAE4"/>
<path d="M929.517 705.805H613.148V389.435H929.517V705.805Z" stroke="#0626A9" stroke-width="2.09" stroke-linecap="round" stroke-linejoin="round"/>
<path d="M929.517 705.805H613.148V540.782H929.517V705.805Z" fill="white"/>
<path d="M929.517 705.805H613.148V540.782H929.517V705.805Z" stroke="#0626A9" stroke-width="2.636" stroke-linecap="round" stroke-linejoin="round"/>
<path d="M613.148 540.782V389.435H728.949C728.949 389.435 670.054 468.891 687.302 488.206C706.26 509.436 777.12 435.629 833.786 435.629C912.498 435.629 821.022 540.782 821.022 540.782H613.148Z" fill="#8869D5"/>
<path d="M613.148 540.782V389.435H728.949C728.949 389.435 670.054 468.891 687.302 488.206C706.26 509.436 777.12 435.629 833.786 435.629C912.498 435.629 821.022 540.782 821.022 540.782H613.148Z" stroke="#0626A9" stroke-width="2" stroke-miterlimit="10"/>
<path d="M742.006 588.035H821.023" stroke="#0626A9" stroke-width="1.056" stroke-linecap="round" stroke-linejoin="round"/>
<path d="M683.655 635.293H870.863" stroke="#0626A9" stroke-width="1.65" stroke-linecap="round" stroke-linejoin="round"/>
<path d="M794.383 540.782C794.383 555.694 782.295 567.782 767.383 567.782C752.471 567.782 740.383 555.694 740.383 540.782C740.383 525.87 752.471 513.782 767.383 513.782C782.295 513.782 794.383 525.87 794.383 540.782Z" fill="#0626A9"/>
<path d="M794.383 540.782C794.383 555.694 782.295 567.782 767.383 567.782C752.471 567.782 740.383 555.694 740.383 540.782C740.383 525.87 752.471 513.782 767.383 513.782C782.295 513.782 794.383 525.87 794.383 540.782Z" stroke="#0626A9" stroke-miterlimit="10"/>
<path d="M562.395 705.805H246.026V389.435H562.395V705.805Z" stroke="#0626A9" stroke-width="1.831" stroke-linecap="round" stroke-linejoin="round"/>
<path d="M562.395 705.805H246.026V540.782H562.395V705.805Z" fill="#84AAE4"/>
<path d="M562.395 705.805H246.026V540.782H562.395V705.805Z" stroke="#0626A9" stroke-width="2.09" stroke-linecap="round" stroke-linejoin="round"/>
<path d="M562.395 540.782H246.026V389.435H562.395V540.782Z" stroke="#0626A9" stroke-width="1.267" stroke-linecap="round" stroke-linejoin="round"/>
<path d="M562.395 540.782H246.026V473.922C246.026 473.922 283.102 435.72 328.992 435.72C381.6 435.72 423.512 480.517 486.117 484.164C528.166 486.613 562.395 458.727 562.395 458.727V540.782Z" fill="#8869D5"/>
<path d="M562.395 540.782H246.026V473.922C246.026 473.922 283.102 435.72 328.992 435.72C381.6 435.72 423.512 480.517 486.117 484.164C528.166 486.613 562.395 458.727 562.395 458.727V540.782Z" stroke="#0626A9" stroke-width="2" stroke-miterlimit="10"/>
<path d="M433.372 540.782C433.372 556.887 420.317 569.942 404.212 569.942C388.107 569.942 375.052 556.887 375.052 540.782C375.052 524.677 388.107 511.622 404.212 511.622C420.317 511.622 433.372 524.677 433.372 540.782Z" fill="white"/>
<path d="M433.372 540.782C433.372 556.887 420.317 569.942 404.212 569.942C388.107 569.942 375.052 556.887 375.052 540.782C375.052 524.677 388.107 511.622 404.212 511.622C420.317 511.622 433.372 524.677 433.372 540.782Z" stroke="#0626A9" stroke-width="1.899" stroke-linecap="round" stroke-linejoin="round"/>
<path d="M322.611 576.035H360.296" stroke="#0626A9" stroke-width="1.056" stroke-linecap="round" stroke-linejoin="round"/>
<path d="M374.884 576.035H453.901" stroke="#0626A9" stroke-width="1.056" stroke-linecap="round" stroke-linejoin="round"/>
<path d="M316.533 623.293H503.741" stroke="#0626A9" stroke-width="1.65" stroke-linecap="round" stroke-linejoin="round"/>
<path d="M377.922 643.503H442.351" stroke="#0626A9" stroke-width="1.65" stroke-linecap="round" stroke-linejoin="round"/>
<path d="M478.01 576.035C478.01 579.168 475.47 581.708 472.337 581.708C469.204 581.708 466.664 579.168 466.664 576.035C466.664 572.902 469.204 570.362 472.337 570.362C475.47 570.362 478.01 572.902 478.01 576.035Z" fill="#8869D5"/>
<path d="M478.01 576.035C478.01 579.168 475.47 581.708 472.337 581.708C469.204 581.708 466.664 579.168 466.664 576.035C466.664 572.902 469.204 570.362 472.337 570.362C475.47 570.362 478.01 572.902 478.01 576.035Z" stroke="#0626A9" stroke-width="2" stroke-miterlimit="10"/>
</g>
</g>
</g>
</g>
<defs>
<clipPath id="clip0_25_44573">
<rect width="1600" height="1600" fill="white"/>
</clipPath>
</defs>
</svg>
