<svg xmlns="http://www.w3.org/2000/svg" xmlns:xlink="http://www.w3.org/1999/xlink" viewBox="0 0 1600 1600" width="1600" height="1600" preserveAspectRatio="xMidYMid meet" style="width: 100%; height: 100%; transform: translate3d(0px, 0px, 0px); content-visibility: visible;"><defs><clipPath id="__lottie_element_2"><rect width="1600" height="1600" x="0" y="0"></rect></clipPath><g id="__lottie_element_3"><g transform="matrix(1,0,0,0.9059299826622009,800,811.4426879882812)" opacity="1" style="display: block;"><g opacity="1" transform="matrix(1,0,0,1,0,0)"><path fill="rgb(255,255,255)" fill-opacity="1" d=" M577.7860107421875,148.21400451660156 C577.7860107421875,148.21400451660156 -622.530029296875,148.21400451660156 -622.530029296875,148.21400451660156 C-622.530029296875,148.21400451660156 -622.530029296875,-494.9219970703125 -622.530029296875,-494.9219970703125 C-622.530029296875,-494.9219970703125 577.7860107421875,-494.9219970703125 577.7860107421875,-494.9219970703125 C577.7860107421875,-494.9219970703125 577.7860107421875,148.21400451660156 577.7860107421875,148.21400451660156z"></path><path stroke-linecap="round" stroke-linejoin="round" fill-opacity="0" stroke="rgb(32,40,112)" stroke-opacity="1" stroke-width="2.09" d=" M577.7860107421875,148.21400451660156 C577.7860107421875,148.21400451660156 -622.530029296875,148.21400451660156 -622.530029296875,148.21400451660156 C-622.530029296875,148.21400451660156 -622.530029296875,-494.9219970703125 -622.530029296875,-494.9219970703125 C-622.530029296875,-494.9219970703125 577.7860107421875,-494.9219970703125 577.7860107421875,-494.9219970703125 C577.7860107421875,-494.9219970703125 577.7860107421875,148.21400451660156 577.7860107421875,148.21400451660156z"></path></g></g></g><clipPath id="__lottie_element_7"><path d="M0,0 L1600,0 L1600,1600 L0,1600z"></path></clipPath><mask id="__lottie_element_3_1" mask-type="alpha"><use xlink:href="#__lottie_element_3"></use></mask></defs><g clip-path="url(#__lottie_element_2)"><g transform="matrix(1,0,0,1,800,800)" opacity="1" style="display: block;"><g opacity="1" transform="matrix(1,0,0,1,0,0)"><path stroke-linecap="round" stroke-linejoin="round" fill-opacity="0" stroke="rgb(32,40,112)" stroke-opacity="1" stroke-width="1.779" d=" M-85.37200164794922,100.0270004272461 C-85.37200164794922,100.0270004272461 -718.260986328125,100.0270004272461 -718.260986328125,100.0270004272461 C-718.260986328125,100.0270004272461 -718.260986328125,-696.4180297851562 -718.260986328125,-696.4180297851562 C-718.260986328125,-696.4180297851562 -85.37200164794922,-696.4180297851562 -85.37200164794922,-696.4180297851562 C-85.37200164794922,-696.4180297851562 -85.37200164794922,100.0270004272461 -85.37200164794922,100.0270004272461z"></path></g><g opacity="1" transform="matrix(1,0,0,1,0,0)"><path stroke-linecap="round" stroke-linejoin="round" fill-opacity="0" stroke="rgb(32,40,112)" stroke-opacity="1" stroke-width="1.934" d=" M718.1829833984375,-45.750999450683594 C718.1829833984375,-45.750999450683594 380.406005859375,-45.750999450683594 380.406005859375,-45.750999450683594 C380.406005859375,-45.750999450683594 380.406005859375,-696.4180297851562 380.406005859375,-696.4180297851562"></path></g></g><g transform="matrix(1,0,0,1,800,800)" opacity="1" style="display: block;"><g opacity="1" transform="matrix(1,0,0,1,0,0)"><path fill="rgb(132,132,250)" fill-opacity="1" d=" M117.40299987792969,443.8389892578125 C117.40299987792969,443.8389892578125 -162.14700317382812,443.8389892578125 -162.14700317382812,443.8389892578125 C-162.14700317382812,443.8389892578125 -162.14700317382812,-20.91200065612793 -162.14700317382812,-20.91200065612793 C-162.14700317382812,-20.91200065612793 117.40299987792969,-20.91200065612793 117.40299987792969,-20.91200065612793 C117.40299987792969,-20.91200065612793 117.40299987792969,443.8389892578125 117.40299987792969,443.8389892578125z"></path><path stroke-linecap="round" stroke-linejoin="round" fill-opacity="0" stroke="rgb(32,40,112)" stroke-opacity="1" stroke-width="2.09" d=" M117.40299987792969,443.8389892578125 C117.40299987792969,443.8389892578125 -162.14700317382812,443.8389892578125 -162.14700317382812,443.8389892578125 C-162.14700317382812,443.8389892578125 -162.14700317382812,-20.91200065612793 -162.14700317382812,-20.91200065612793 C-162.14700317382812,-20.91200065612793 117.40299987792969,-20.91200065612793 117.40299987792969,-20.91200065612793 C117.40299987792969,-20.91200065612793 117.40299987792969,443.8389892578125 117.40299987792969,443.8389892578125z"></path></g><g opacity="1" transform="matrix(1,0,0,1,0,0)"><path fill="rgb(132,132,250)" fill-opacity="1" d=" M205.927001953125,464.80499267578125 C205.927001953125,464.80499267578125 -250.67100524902344,464.80499267578125 -250.67100524902344,464.80499267578125 C-250.67100524902344,464.80499267578125 -250.67100524902344,461.0060119628906 -250.67100524902344,461.0060119628906 C-250.67100524902344,439.9460144042969 -233.59800720214844,422.87200927734375 -212.53799438476562,422.87200927734375 C-212.53799438476562,422.87200927734375 167.79299926757812,422.87200927734375 167.79299926757812,422.87200927734375 C188.85299682617188,422.87200927734375 205.927001953125,439.9460144042969 205.927001953125,461.0060119628906 C205.927001953125,461.0060119628906 205.927001953125,464.80499267578125 205.927001953125,464.80499267578125z"></path><path stroke-linecap="round" stroke-linejoin="round" fill-opacity="0" stroke="rgb(32,40,112)" stroke-opacity="1" stroke-width="2.09" d=" M205.927001953125,464.80499267578125 C205.927001953125,464.80499267578125 -250.67100524902344,464.80499267578125 -250.67100524902344,464.80499267578125 C-250.67100524902344,464.80499267578125 -250.67100524902344,461.0060119628906 -250.67100524902344,461.0060119628906 C-250.67100524902344,439.9460144042969 -233.59800720214844,422.87200927734375 -212.53799438476562,422.87200927734375 C-212.53799438476562,422.87200927734375 167.79299926757812,422.87200927734375 167.79299926757812,422.87200927734375 C188.85299682617188,422.87200927734375 205.927001953125,439.9460144042969 205.927001953125,461.0060119628906 C205.927001953125,461.0060119628906 205.927001953125,464.80499267578125 205.927001953125,464.80499267578125z"></path></g><g opacity="1" transform="matrix(1,0,0,1,0,0)"><path fill="rgb(32,40,112)" fill-opacity="1" d=" M-163.02000427246094,290.08599853515625 C-163.02000427246094,290.08599853515625 118.2760009765625,220.19900512695312 118.2760009765625,220.19900512695312 C118.2760009765625,220.19900512695312 116.52899932861328,132.83999633789062 116.52899932861328,132.83999633789062 C116.52899932861328,132.83999633789062 -163.02000427246094,206.2209930419922 -163.02000427246094,206.2209930419922 C-163.02000427246094,206.2209930419922 -163.02000427246094,290.08599853515625 -163.02000427246094,290.08599853515625z"></path></g><g opacity="1" transform="matrix(1,0,0,1,0,0)"><path fill="rgb(132,132,250)" fill-opacity="1" d=" M568.176025390625,210.58900451660156 C568.176025390625,210.58900451660156 -612.9199829101562,210.58900451660156 -612.9199829101562,210.58900451660156 C-628.3590087890625,210.58900451660156 -640.875,198.07400512695312 -640.875,182.63499450683594 C-640.875,182.63499450683594 -640.875,-529.343017578125 -640.875,-529.343017578125 C-640.875,-544.781982421875 -628.3590087890625,-557.2979736328125 -612.9199829101562,-557.2979736328125 C-612.9199829101562,-557.2979736328125 568.176025390625,-557.2979736328125 568.176025390625,-557.2979736328125 C583.614990234375,-557.2979736328125 596.1309814453125,-544.781982421875 596.1309814453125,-529.343017578125 C596.1309814453125,-529.343017578125 596.1309814453125,182.63499450683594 596.1309814453125,182.63499450683594 C596.1309814453125,198.07400512695312 583.614990234375,210.58900451660156 568.176025390625,210.58900451660156z"></path><path stroke-linecap="round" stroke-linejoin="round" fill-opacity="0" stroke="rgb(32,40,112)" stroke-opacity="1" stroke-width="2.09" d=" M568.176025390625,210.58900451660156 C568.176025390625,210.58900451660156 -612.9199829101562,210.58900451660156 -612.9199829101562,210.58900451660156 C-628.3590087890625,210.58900451660156 -640.875,198.07400512695312 -640.875,182.63499450683594 C-640.875,182.63499450683594 -640.875,-529.343017578125 -640.875,-529.343017578125 C-640.875,-544.781982421875 -628.3590087890625,-557.2979736328125 -612.9199829101562,-557.2979736328125 C-612.9199829101562,-557.2979736328125 568.176025390625,-557.2979736328125 568.176025390625,-557.2979736328125 C583.614990234375,-557.2979736328125 596.1309814453125,-544.781982421875 596.1309814453125,-529.343017578125 C596.1309814453125,-529.343017578125 596.1309814453125,182.63499450683594 596.1309814453125,182.63499450683594 C596.1309814453125,198.07400512695312 583.614990234375,210.58900451660156 568.176025390625,210.58900451660156z"></path></g></g><g transform="matrix(1,0,0,1,800,800)" opacity="1" style="display: block;"><g opacity="1" transform="matrix(1,0,0,1,0,0)"><path fill="rgb(255,255,255)" fill-opacity="1" d=" M577.7860107421875,148.21400451660156 C577.7860107421875,148.21400451660156 -622.530029296875,148.21400451660156 -622.530029296875,148.21400451660156 C-622.530029296875,148.21400451660156 -622.530029296875,-494.9219970703125 -622.530029296875,-494.9219970703125 C-622.530029296875,-494.9219970703125 577.7860107421875,-494.9219970703125 577.7860107421875,-494.9219970703125 C577.7860107421875,-494.9219970703125 577.7860107421875,148.21400451660156 577.7860107421875,148.21400451660156z"></path><path stroke-linecap="round" stroke-linejoin="round" fill-opacity="0" stroke="rgb(32,40,112)" stroke-opacity="1" stroke-width="2.09" d=" M577.7860107421875,148.21400451660156 C577.7860107421875,148.21400451660156 -622.530029296875,148.21400451660156 -622.530029296875,148.21400451660156 C-622.530029296875,148.21400451660156 -622.530029296875,-494.9219970703125 -622.530029296875,-494.9219970703125 C-622.530029296875,-494.9219970703125 577.7860107421875,-494.9219970703125 577.7860107421875,-494.9219970703125 C577.7860107421875,-494.9219970703125 577.7860107421875,148.21400451660156 577.7860107421875,148.21400451660156z"></path></g></g><g transform="matrix(1,0,0,1,800,800)" opacity="1" style="display: block;"><g opacity="1" transform="matrix(1,0,0,1,0,0)"><g opacity="1" transform="matrix(1,0,0,1,0,0)"><path fill="rgb(132,132,250)" fill-opacity="1" d=" M-708.1500244140625,525.1920166015625 C-708.1500244140625,525.1920166015625 663.406005859375,525.1920166015625 663.406005859375,525.1920166015625"></path><path stroke-linecap="round" stroke-linejoin="round" fill-opacity="0" stroke="rgb(32,40,112)" stroke-opacity="1" stroke-width="2" d=" M-708.1500244140625,525.1920166015625 C-708.1500244140625,525.1920166015625 663.406005859375,525.1920166015625 663.406005859375,525.1920166015625"></path></g></g><g opacity="1" transform="matrix(1,0,0,1,0,0)"><path fill="rgb(132,132,250)" fill-opacity="1" d=" M-660.593994140625,696.385009765625 C-660.593994140625,696.385009765625 634.072021484375,696.385009765625 634.072021484375,696.385009765625"></path><path stroke-linecap="round" stroke-linejoin="round" fill-opacity="0" stroke="rgb(32,40,112)" stroke-opacity="1" stroke-width="2" d=" M-660.593994140625,696.385009765625 C-660.593994140625,696.385009765625 634.072021484375,696.385009765625 634.072021484375,696.385009765625"></path></g></g><g transform="matrix(1,0,0,1,800,800)" opacity="1" style="display: block;"><g opacity="1" transform="matrix(1,0,0,1,0,0)"><path fill="rgb(255,255,255)" fill-opacity="1" d=" M-315.1130065917969,629.8170166015625 C-315.1130065917969,629.8170166015625 -363.1130065917969,629.8170166015625 -363.1130065917969,629.8170166015625 C-370.2309875488281,629.8170166015625 -376.00201416015625,624.0460205078125 -376.00201416015625,616.927978515625 C-376.00201416015625,616.927978515625 -376.00201416015625,616.927978515625 -376.00201416015625,616.927978515625 C-376.00201416015625,609.8099975585938 -370.2309875488281,604.0390014648438 -363.1130065917969,604.0390014648438 C-363.1130065917969,604.0390014648438 -315.1130065917969,604.0390014648438 -315.1130065917969,604.0390014648438 C-307.9949951171875,604.0390014648438 -302.2239990234375,609.8099975585938 -302.2239990234375,616.927978515625 C-302.2239990234375,616.927978515625 -302.2239990234375,616.927978515625 -302.2239990234375,616.927978515625 C-302.2239990234375,624.0460205078125 -307.9949951171875,629.8170166015625 -315.1130065917969,629.8170166015625z"></path><path stroke-linecap="round" stroke-linejoin="round" fill-opacity="0" stroke="rgb(32,40,112)" stroke-opacity="1" stroke-width="1.934" d=" M-315.1130065917969,629.8170166015625 C-315.1130065917969,629.8170166015625 -363.1130065917969,629.8170166015625 -363.1130065917969,629.8170166015625 C-370.2309875488281,629.8170166015625 -376.00201416015625,624.0460205078125 -376.00201416015625,616.927978515625 C-376.00201416015625,616.927978515625 -376.00201416015625,616.927978515625 -376.00201416015625,616.927978515625 C-376.00201416015625,609.8099975585938 -370.2309875488281,604.0390014648438 -363.1130065917969,604.0390014648438 C-363.1130065917969,604.0390014648438 -315.1130065917969,604.0390014648438 -315.1130065917969,604.0390014648438 C-307.9949951171875,604.0390014648438 -302.2239990234375,609.8099975585938 -302.2239990234375,616.927978515625 C-302.2239990234375,616.927978515625 -302.2239990234375,616.927978515625 -302.2239990234375,616.927978515625 C-302.2239990234375,624.0460205078125 -307.9949951171875,629.8170166015625 -315.1130065917969,629.8170166015625z"></path></g><g opacity="1" transform="matrix(1,0,0,1,0,0)"><path fill="rgb(255,255,255)" fill-opacity="1" d=" M-222.66799926757812,629.8170166015625 C-222.66799926757812,629.8170166015625 -270.6679992675781,629.8170166015625 -270.6679992675781,629.8170166015625 C-277.7860107421875,629.8170166015625 -283.5570068359375,624.0460205078125 -283.5570068359375,616.927978515625 C-283.5570068359375,616.927978515625 -283.5570068359375,616.927978515625 -283.5570068359375,616.927978515625 C-283.5570068359375,609.8099975585938 -277.7860107421875,604.0390014648438 -270.6679992675781,604.0390014648438 C-270.6679992675781,604.0390014648438 -222.66799926757812,604.0390014648438 -222.66799926757812,604.0390014648438 C-215.5500030517578,604.0390014648438 -209.77999877929688,609.8099975585938 -209.77999877929688,616.927978515625 C-209.77999877929688,616.927978515625 -209.77999877929688,616.927978515625 -209.77999877929688,616.927978515625 C-209.77999877929688,624.0460205078125 -215.5500030517578,629.8170166015625 -222.66799926757812,629.8170166015625z"></path><path stroke-linecap="round" stroke-linejoin="round" fill-opacity="0" stroke="rgb(32,40,112)" stroke-opacity="1" stroke-width="1.934" d=" M-222.66799926757812,629.8170166015625 C-222.66799926757812,629.8170166015625 -270.6679992675781,629.8170166015625 -270.6679992675781,629.8170166015625 C-277.7860107421875,629.8170166015625 -283.5570068359375,624.0460205078125 -283.5570068359375,616.927978515625 C-283.5570068359375,616.927978515625 -283.5570068359375,616.927978515625 -283.5570068359375,616.927978515625 C-283.5570068359375,609.8099975585938 -277.7860107421875,604.0390014648438 -270.6679992675781,604.0390014648438 C-270.6679992675781,604.0390014648438 -222.66799926757812,604.0390014648438 -222.66799926757812,604.0390014648438 C-215.5500030517578,604.0390014648438 -209.77999877929688,609.8099975585938 -209.77999877929688,616.927978515625 C-209.77999877929688,616.927978515625 -209.77999877929688,616.927978515625 -209.77999877929688,616.927978515625 C-209.77999877929688,624.0460205078125 -215.5500030517578,629.8170166015625 -222.66799926757812,629.8170166015625z"></path></g><g opacity="1" transform="matrix(1,0,0,1,0,0)"><path fill="rgb(255,255,255)" fill-opacity="1" d=" M216.4429931640625,629.8170166015625 C216.4429931640625,629.8170166015625 168.4429931640625,629.8170166015625 168.4429931640625,629.8170166015625 C161.3249969482422,629.8170166015625 155.5540008544922,624.0460205078125 155.5540008544922,616.927978515625 C155.5540008544922,616.927978515625 155.5540008544922,616.927978515625 155.5540008544922,616.927978515625 C155.5540008544922,609.8099975585938 161.3249969482422,604.0390014648438 168.4429931640625,604.0390014648438 C168.4429931640625,604.0390014648438 216.4429931640625,604.0390014648438 216.4429931640625,604.0390014648438 C223.56100463867188,604.0390014648438 229.33200073242188,609.8099975585938 229.33200073242188,616.927978515625 C229.33200073242188,616.927978515625 229.33200073242188,616.927978515625 229.33200073242188,616.927978515625 C229.33200073242188,624.0460205078125 223.56100463867188,629.8170166015625 216.4429931640625,629.8170166015625z"></path><path stroke-linecap="round" stroke-linejoin="round" fill-opacity="0" stroke="rgb(32,40,112)" stroke-opacity="1" stroke-width="1.934" d=" M216.4429931640625,629.8170166015625 C216.4429931640625,629.8170166015625 168.4429931640625,629.8170166015625 168.4429931640625,629.8170166015625 C161.3249969482422,629.8170166015625 155.5540008544922,624.0460205078125 155.5540008544922,616.927978515625 C155.5540008544922,616.927978515625 155.5540008544922,616.927978515625 155.5540008544922,616.927978515625 C155.5540008544922,609.8099975585938 161.3249969482422,604.0390014648438 168.4429931640625,604.0390014648438 C168.4429931640625,604.0390014648438 216.4429931640625,604.0390014648438 216.4429931640625,604.0390014648438 C223.56100463867188,604.0390014648438 229.33200073242188,609.8099975585938 229.33200073242188,616.927978515625 C229.33200073242188,616.927978515625 229.33200073242188,616.927978515625 229.33200073242188,616.927978515625 C229.33200073242188,624.0460205078125 223.56100463867188,629.8170166015625 216.4429931640625,629.8170166015625z"></path></g><g opacity="1" transform="matrix(1,0,0,1,0,0)"><path fill="rgb(255,255,255)" fill-opacity="1" d=" M309.7760009765625,629.8170166015625 C309.7760009765625,629.8170166015625 261.7760009765625,629.8170166015625 261.7760009765625,629.8170166015625 C254.6580047607422,629.8170166015625 248.88699340820312,624.0460205078125 248.88699340820312,616.927978515625 C248.88699340820312,616.927978515625 248.88699340820312,616.927978515625 248.88699340820312,616.927978515625 C248.88699340820312,609.8099975585938 254.6580047607422,604.0390014648438 261.7760009765625,604.0390014648438 C261.7760009765625,604.0390014648438 309.7760009765625,604.0390014648438 309.7760009765625,604.0390014648438 C316.8940124511719,604.0390014648438 322.6650085449219,609.8099975585938 322.6650085449219,616.927978515625 C322.6650085449219,616.927978515625 322.6650085449219,616.927978515625 322.6650085449219,616.927978515625 C322.6650085449219,624.0460205078125 316.8940124511719,629.8170166015625 309.7760009765625,629.8170166015625z"></path><path stroke-linecap="round" stroke-linejoin="round" fill-opacity="0" stroke="rgb(32,40,112)" stroke-opacity="1" stroke-width="1.934" d=" M309.7760009765625,629.8170166015625 C309.7760009765625,629.8170166015625 261.7760009765625,629.8170166015625 261.7760009765625,629.8170166015625 C254.6580047607422,629.8170166015625 248.88699340820312,624.0460205078125 248.88699340820312,616.927978515625 C248.88699340820312,616.927978515625 248.88699340820312,616.927978515625 248.88699340820312,616.927978515625 C248.88699340820312,609.8099975585938 254.6580047607422,604.0390014648438 261.7760009765625,604.0390014648438 C261.7760009765625,604.0390014648438 309.7760009765625,604.0390014648438 309.7760009765625,604.0390014648438 C316.8940124511719,604.0390014648438 322.6650085449219,609.8099975585938 322.6650085449219,616.927978515625 C322.6650085449219,616.927978515625 322.6650085449219,616.927978515625 322.6650085449219,616.927978515625 C322.6650085449219,624.0460205078125 316.8940124511719,629.8170166015625 309.7760009765625,629.8170166015625z"></path></g><g opacity="1" transform="matrix(1,0,0,1,0,0)"><path fill="rgb(255,255,255)" fill-opacity="1" d=" M122.66500091552734,629.8170166015625 C122.66500091552734,629.8170166015625 -180.0019989013672,629.8170166015625 -180.0019989013672,629.8170166015625 C-187.1199951171875,629.8170166015625 -192.89100646972656,624.0460205078125 -192.89100646972656,616.927978515625 C-192.89100646972656,616.927978515625 -192.89100646972656,616.927978515625 -192.89100646972656,616.927978515625 C-192.89100646972656,609.8099975585938 -187.1199951171875,604.0390014648438 -180.0019989013672,604.0390014648438 C-180.0019989013672,604.0390014648438 122.66500091552734,604.0390014648438 122.66500091552734,604.0390014648438 C129.7830047607422,604.0390014648438 135.5540008544922,609.8099975585938 135.5540008544922,616.927978515625 C135.5540008544922,616.927978515625 135.5540008544922,616.927978515625 135.5540008544922,616.927978515625 C135.5540008544922,624.0460205078125 129.7830047607422,629.8170166015625 122.66500091552734,629.8170166015625z"></path><path stroke-linecap="round" stroke-linejoin="round" fill-opacity="0" stroke="rgb(32,40,112)" stroke-opacity="1" stroke-width="1.934" d=" M122.66500091552734,629.8170166015625 C122.66500091552734,629.8170166015625 -180.0019989013672,629.8170166015625 -180.0019989013672,629.8170166015625 C-187.1199951171875,629.8170166015625 -192.89100646972656,624.0460205078125 -192.89100646972656,616.927978515625 C-192.89100646972656,616.927978515625 -192.89100646972656,616.927978515625 -192.89100646972656,616.927978515625 C-192.89100646972656,609.8099975585938 -187.1199951171875,604.0390014648438 -180.0019989013672,604.0390014648438 C-180.0019989013672,604.0390014648438 122.66500091552734,604.0390014648438 122.66500091552734,604.0390014648438 C129.7830047607422,604.0390014648438 135.5540008544922,609.8099975585938 135.5540008544922,616.927978515625 C135.5540008544922,616.927978515625 135.5540008544922,616.927978515625 135.5540008544922,616.927978515625 C135.5540008544922,624.0460205078125 129.7830047607422,629.8170166015625 122.66500091552734,629.8170166015625z"></path></g><g opacity="1" transform="matrix(1,0,0,1,0,0)"><path fill="rgb(255,255,255)" fill-opacity="1" d=" M378.2200012207031,650.2119750976562 C378.2200012207031,650.2119750976562 -422.9649963378906,650.2119750976562 -422.9649963378906,650.2119750976562 C-422.9649963378906,650.2119750976562 -422.9649963378906,650.2119750976562 -422.9649963378906,650.2119750976562 C-422.9649963378906,631.093017578125 -407.46600341796875,615.594970703125 -388.34698486328125,615.594970703125 C-388.34698486328125,615.594970703125 343.6029968261719,615.594970703125 343.6029968261719,615.594970703125 C362.72198486328125,615.594970703125 378.2200012207031,631.093017578125 378.2200012207031,650.2119750976562 C378.2200012207031,650.2119750976562 378.2200012207031,650.2119750976562 378.2200012207031,650.2119750976562z"></path><path stroke-linecap="round" stroke-linejoin="round" fill-opacity="0" stroke="rgb(32,40,112)" stroke-opacity="1" stroke-width="1.934" d=" M378.2200012207031,650.2119750976562 C378.2200012207031,650.2119750976562 -422.9649963378906,650.2119750976562 -422.9649963378906,650.2119750976562 C-422.9649963378906,650.2119750976562 -422.9649963378906,650.2119750976562 -422.9649963378906,650.2119750976562 C-422.9649963378906,631.093017578125 -407.46600341796875,615.594970703125 -388.34698486328125,615.594970703125 C-388.34698486328125,615.594970703125 343.6029968261719,615.594970703125 343.6029968261719,615.594970703125 C362.72198486328125,615.594970703125 378.2200012207031,631.093017578125 378.2200012207031,650.2119750976562 C378.2200012207031,650.2119750976562 378.2200012207031,650.2119750976562 378.2200012207031,650.2119750976562z"></path></g></g><g transform="matrix(1,0,0,1,800,800)" opacity="1" style="display: block;"><g opacity="1" transform="matrix(1,0,0,1,0,0)"><path fill="rgb(32,40,112)" fill-opacity="1" d=" M-622.530029296875,-436.3380126953125 C-622.530029296875,-436.3380126953125 577.7860107421875,-436.3380126953125 577.7860107421875,-436.3380126953125"></path><path stroke-linecap="butt" stroke-linejoin="miter" fill-opacity="0" stroke-miterlimit="10" stroke="rgb(32,40,112)" stroke-opacity="1" stroke-width="2" d=" M-622.530029296875,-436.3380126953125 C-622.530029296875,-436.3380126953125 577.7860107421875,-436.3380126953125 577.7860107421875,-436.3380126953125"></path></g><g opacity="1" transform="matrix(1,0,0,1,0,0)"><path fill="rgb(132,132,250)" fill-opacity="1" d=" M-549.1619873046875,-446.0880126953125 C-549.6519775390625,-445.5979919433594 -550.2919921875,-445.3580017089844 -550.9320068359375,-445.3580017089844 C-551.572021484375,-445.3580017089844 -552.2119750976562,-445.5979919433594 -552.7020263671875,-446.0880126953125 C-552.7020263671875,-446.0880126953125 -564.1220092773438,-457.50799560546875 -564.1220092773438,-457.50799560546875 C-564.1719970703125,-457.5580139160156 -564.2219848632812,-457.6080017089844 -564.2620239257812,-457.6679992675781 C-566.6019897460938,-456.01800537109375 -569.4520263671875,-455.0580139160156 -572.531982421875,-455.0580139160156 C-580.4819946289062,-455.0580139160156 -586.9320068359375,-461.50799560546875 -586.9320068359375,-469.4580078125 C-586.9320068359375,-477.4079895019531 -580.4819946289062,-483.8580017089844 -572.531982421875,-483.8580017089844 C-564.5819702148438,-483.8580017089844 -558.1320190429688,-477.4079895019531 -558.1320190429688,-469.4580078125 C-558.1320190429688,-466.37799072265625 -559.0919799804688,-463.52801513671875 -560.7420043945312,-461.18798828125 C-560.6820068359375,-461.14801025390625 -560.6320190429688,-461.0979919433594 -560.5819702148438,-461.0480041503906 C-560.5819702148438,-461.0480041503906 -549.1619873046875,-449.62799072265625 -549.1619873046875,-449.62799072265625 C-548.1920166015625,-448.64801025390625 -548.1920166015625,-447.0679931640625 -549.1619873046875,-446.0880126953125z"></path><path stroke-linecap="round" stroke-linejoin="round" fill-opacity="0" stroke="rgb(32,40,112)" stroke-opacity="1" stroke-width="2.09" d=" M-549.1619873046875,-446.0880126953125 C-549.6519775390625,-445.5979919433594 -550.2919921875,-445.3580017089844 -550.9320068359375,-445.3580017089844 C-551.572021484375,-445.3580017089844 -552.2119750976562,-445.5979919433594 -552.7020263671875,-446.0880126953125 C-552.7020263671875,-446.0880126953125 -564.1220092773438,-457.50799560546875 -564.1220092773438,-457.50799560546875 C-564.1719970703125,-457.5580139160156 -564.2219848632812,-457.6080017089844 -564.2620239257812,-457.6679992675781 C-566.6019897460938,-456.01800537109375 -569.4520263671875,-455.0580139160156 -572.531982421875,-455.0580139160156 C-580.4819946289062,-455.0580139160156 -586.9320068359375,-461.50799560546875 -586.9320068359375,-469.4580078125 C-586.9320068359375,-477.4079895019531 -580.4819946289062,-483.8580017089844 -572.531982421875,-483.8580017089844 C-564.5819702148438,-483.8580017089844 -558.1320190429688,-477.4079895019531 -558.1320190429688,-469.4580078125 C-558.1320190429688,-466.37799072265625 -559.0919799804688,-463.52801513671875 -560.7420043945312,-461.18798828125 C-560.6820068359375,-461.14801025390625 -560.6320190429688,-461.0979919433594 -560.5819702148438,-461.0480041503906 C-560.5819702148438,-461.0480041503906 -549.1619873046875,-449.62799072265625 -549.1619873046875,-449.62799072265625 C-548.1920166015625,-448.64801025390625 -548.1920166015625,-447.0679931640625 -549.1619873046875,-446.0880126953125z"></path></g><g opacity="1" transform="matrix(1,0,0,1,0,0)"><path fill="rgb(132,132,250)" fill-opacity="1" d=" M-544.0919799804688,-464.6080017089844 C-544.0919799804688,-464.6080017089844 -70.33200073242188,-464.6080017089844 -70.33200073242188,-464.6080017089844"></path><path stroke-linecap="round" stroke-linejoin="round" fill-opacity="0" stroke="rgb(32,40,112)" stroke-opacity="1" stroke-width="2.09" d=" M-544.0919799804688,-464.6080017089844 C-544.0919799804688,-464.6080017089844 -70.33200073242188,-464.6080017089844 -70.33200073242188,-464.6080017089844"></path></g><g opacity="1" transform="matrix(1,0,0,1,0,0)"><g opacity="1" transform="matrix(1,0,0,1,0,0)"><g opacity="1" transform="matrix(1,0,0,1,0,0)"><path fill="rgb(32,40,112)" fill-opacity="1" d=" M490.26800537109375,-463.56298828125 C490.26800537109375,-463.56298828125 443.1839904785156,-463.56298828125 443.1839904785156,-463.56298828125 C442.60699462890625,-463.56298828125 442.1390075683594,-464.031005859375 442.1390075683594,-464.6080017089844 C442.1390075683594,-465.18499755859375 442.60699462890625,-465.65301513671875 443.1839904785156,-465.65301513671875 C443.1839904785156,-465.65301513671875 490.26800537109375,-465.65301513671875 490.26800537109375,-465.65301513671875 C490.8450012207031,-465.65301513671875 491.31298828125,-465.18499755859375 491.31298828125,-464.6080017089844 C491.31298828125,-464.031005859375 490.8450012207031,-463.56298828125 490.26800537109375,-463.56298828125z M396.0989990234375,-463.56298828125 C396.0989990234375,-463.56298828125 349.0150146484375,-463.56298828125 349.0150146484375,-463.56298828125 C348.43798828125,-463.56298828125 347.9700012207031,-464.031005859375 347.9700012207031,-464.6080017089844 C347.9700012207031,-465.18499755859375 348.43798828125,-465.65301513671875 349.0150146484375,-465.65301513671875 C349.0150146484375,-465.65301513671875 396.0989990234375,-465.65301513671875 396.0989990234375,-465.65301513671875 C396.6759948730469,-465.65301513671875 397.1440124511719,-465.18499755859375 397.1440124511719,-464.6080017089844 C397.1440124511719,-464.031005859375 396.6759948730469,-463.56298828125 396.0989990234375,-463.56298828125z M301.92999267578125,-463.56298828125 C301.92999267578125,-463.56298828125 254.8459930419922,-463.56298828125 254.8459930419922,-463.56298828125 C254.2689971923828,-463.56298828125 253.80099487304688,-464.031005859375 253.80099487304688,-464.6080017089844 C253.80099487304688,-465.18499755859375 254.2689971923828,-465.65301513671875 254.8459930419922,-465.65301513671875 C254.8459930419922,-465.65301513671875 301.92999267578125,-465.65301513671875 301.92999267578125,-465.65301513671875 C302.5069885253906,-465.65301513671875 302.9750061035156,-465.18499755859375 302.9750061035156,-464.6080017089844 C302.9750061035156,-464.031005859375 302.5069885253906,-463.56298828125 301.92999267578125,-463.56298828125z M207.76100158691406,-463.56298828125 C207.76100158691406,-463.56298828125 160.677001953125,-463.56298828125 160.677001953125,-463.56298828125 C160.10000610351562,-463.56298828125 159.6320037841797,-464.031005859375 159.6320037841797,-464.6080017089844 C159.6320037841797,-465.18499755859375 160.10000610351562,-465.65301513671875 160.677001953125,-465.65301513671875 C160.677001953125,-465.65301513671875 207.76100158691406,-465.65301513671875 207.76100158691406,-465.65301513671875 C208.33799743652344,-465.65301513671875 208.80599975585938,-465.18499755859375 208.80599975585938,-464.6080017089844 C208.80599975585938,-464.031005859375 208.33799743652344,-463.56298828125 207.76100158691406,-463.56298828125z"></path></g></g></g></g><g mask="url(#__lottie_element_3_1)" style="display: block;"><g clip-path="url(#__lottie_element_7)" transform="matrix(1,0,0,1,0,0)" opacity="1"><g transform="matrix(1,0,0,1,800,1561)" opacity="1" style="display: block;"><g opacity="1" transform="matrix(1,0,0,1,0,0)"><path fill="rgb(249,74,130)" fill-opacity="1" d=" M129.51600646972656,-35.617000579833984 C129.51600646972656,-35.617000579833984 129.51600646972656,280.75201416015625 129.51600646972656,280.75201416015625 C129.51600646972656,280.75201416015625 -186.85299682617188,280.75201416015625 -186.85299682617188,280.75201416015625 C-186.85299682617188,280.75201416015625 -186.85299682617188,-35.617000579833984 -186.85299682617188,-35.617000579833984 C-186.85299682617188,-35.617000579833984 129.51600646972656,-35.617000579833984 129.51600646972656,-35.617000579833984z"></path><path stroke-linecap="butt" stroke-linejoin="miter" fill-opacity="0" stroke-miterlimit="10" stroke="rgb(32,40,112)" stroke-opacity="1" stroke-width="2" d=" M129.51600646972656,-35.617000579833984 C129.51600646972656,-35.617000579833984 129.51600646972656,280.75201416015625 129.51600646972656,280.75201416015625 C129.51600646972656,280.75201416015625 -186.85299682617188,280.75201416015625 -186.85299682617188,280.75201416015625 C-186.85299682617188,280.75201416015625 -186.85299682617188,-35.617000579833984 -186.85299682617188,-35.617000579833984 C-186.85299682617188,-35.617000579833984 129.51600646972656,-35.617000579833984 129.51600646972656,-35.617000579833984z"></path></g><g opacity="1" transform="matrix(1,0,0,1,0,0)"><path fill="rgb(132,132,250)" fill-opacity="1" d=" M66.88600158691406,-35.617000579833984 C55,5.959000110626221 16.715999603271484,36.38399887084961 -28.667999267578125,36.38399887084961 C-74.052001953125,36.38399887084961 -112.33599853515625,5.959000110626221 -124.22200012207031,-35.617000579833984 C-124.22200012207031,-35.617000579833984 66.88600158691406,-35.617000579833984 66.88600158691406,-35.617000579833984z"></path><path stroke-linecap="round" stroke-linejoin="round" fill-opacity="0" stroke="rgb(32,40,112)" stroke-opacity="1" stroke-width="2.09" d=" M66.88600158691406,-35.617000579833984 C55,5.959000110626221 16.715999603271484,36.38399887084961 -28.667999267578125,36.38399887084961 C-74.052001953125,36.38399887084961 -112.33599853515625,5.959000110626221 -124.22200012207031,-35.617000579833984 C-124.22200012207031,-35.617000579833984 66.88600158691406,-35.617000579833984 66.88600158691406,-35.617000579833984z"></path></g></g><g transform="matrix(1,0,0,1,800,1561)" opacity="1" style="display: block;"><g opacity="1" transform="matrix(1,0,0,1,0,0)"><path fill="rgb(132,132,250)" fill-opacity="1" d=" M496.63800048828125,-35.617000579833984 C496.63800048828125,-35.617000579833984 496.63800048828125,280.75201416015625 496.63800048828125,280.75201416015625 C496.63800048828125,280.75201416015625 180.2689971923828,280.75201416015625 180.2689971923828,280.75201416015625 C180.2689971923828,280.75201416015625 180.2689971923828,-35.617000579833984 180.2689971923828,-35.617000579833984 C180.2689971923828,-35.617000579833984 496.63800048828125,-35.617000579833984 496.63800048828125,-35.617000579833984z"></path><path stroke-linecap="round" stroke-linejoin="round" fill-opacity="0" stroke="rgb(32,40,112)" stroke-opacity="1" stroke-width="2.09" d=" M496.63800048828125,-35.617000579833984 C496.63800048828125,-35.617000579833984 496.63800048828125,280.75201416015625 496.63800048828125,280.75201416015625 C496.63800048828125,280.75201416015625 180.2689971923828,280.75201416015625 180.2689971923828,280.75201416015625 C180.2689971923828,280.75201416015625 180.2689971923828,-35.617000579833984 180.2689971923828,-35.617000579833984 C180.2689971923828,-35.617000579833984 496.63800048828125,-35.617000579833984 496.63800048828125,-35.617000579833984z"></path></g><g opacity="1" transform="matrix(1,0,0,1,0,0)"><path fill="rgb(249,74,130)" fill-opacity="1" d=" M393.5409851074219,280.75201416015625 C393.5409851074219,280.75201416015625 420.0150146484375,251.5850067138672 420.0150146484375,251.5850067138672 C420.0150146484375,251.5850067138672 347.4150085449219,171.59800720214844 347.4150085449219,171.59800720214844 C347.4150085449219,171.59800720214844 420.0150146484375,91.61100006103516 420.0150146484375,91.61100006103516 C420.0150146484375,91.61100006103516 347.4150085449219,11.62399959564209 347.4150085449219,11.62399959564209 C347.4150085449219,11.62399959564209 390.2909851074219,-35.617000579833984 390.2909851074219,-35.617000579833984 C390.2909851074219,-35.617000579833984 299.76800537109375,-35.617000579833984 299.76800537109375,-35.617000579833984 C299.76800537109375,-35.617000579833984 256.8919982910156,11.62399959564209 256.8919982910156,11.62399959564209 C256.8919982910156,11.62399959564209 329.49200439453125,91.61100006103516 329.49200439453125,91.61100006103516 C329.49200439453125,91.61100006103516 256.8919982910156,171.59800720214844 256.8919982910156,171.59800720214844 C256.8919982910156,171.59800720214844 329.49200439453125,251.5850067138672 329.49200439453125,251.5850067138672 C329.49200439453125,251.5850067138672 303.0190124511719,280.75201416015625 303.0190124511719,280.75201416015625"></path><path stroke-linecap="butt" stroke-linejoin="miter" fill-opacity="0" stroke-miterlimit="10" stroke="rgb(32,40,112)" stroke-opacity="1" stroke-width="2" d=" M393.5409851074219,280.75201416015625 C393.5409851074219,280.75201416015625 420.0150146484375,251.5850067138672 420.0150146484375,251.5850067138672 C420.0150146484375,251.5850067138672 347.4150085449219,171.59800720214844 347.4150085449219,171.59800720214844 C347.4150085449219,171.59800720214844 420.0150146484375,91.61100006103516 420.0150146484375,91.61100006103516 C420.0150146484375,91.61100006103516 347.4150085449219,11.62399959564209 347.4150085449219,11.62399959564209 C347.4150085449219,11.62399959564209 390.2909851074219,-35.617000579833984 390.2909851074219,-35.617000579833984 C390.2909851074219,-35.617000579833984 299.76800537109375,-35.617000579833984 299.76800537109375,-35.617000579833984 C299.76800537109375,-35.617000579833984 256.8919982910156,11.62399959564209 256.8919982910156,11.62399959564209 C256.8919982910156,11.62399959564209 329.49200439453125,91.61100006103516 329.49200439453125,91.61100006103516 C329.49200439453125,91.61100006103516 256.8919982910156,171.59800720214844 256.8919982910156,171.59800720214844 C256.8919982910156,171.59800720214844 329.49200439453125,251.5850067138672 329.49200439453125,251.5850067138672 C329.49200439453125,251.5850067138672 303.0190124511719,280.75201416015625 303.0190124511719,280.75201416015625"></path></g></g><g transform="matrix(1,0,0,1,800,1561)" opacity="1" style="display: block;"><g opacity="1" transform="matrix(1,0,0,1,0,0)"><path fill="rgb(132,132,250)" fill-opacity="1" d=" M-237.6060028076172,-35.617000579833984 C-237.6060028076172,-35.617000579833984 -237.6060028076172,280.75201416015625 -237.6060028076172,280.75201416015625 C-237.6060028076172,280.75201416015625 -553.9749755859375,280.75201416015625 -553.9749755859375,280.75201416015625 C-553.9749755859375,280.75201416015625 -553.9749755859375,-35.617000579833984 -553.9749755859375,-35.617000579833984 C-553.9749755859375,-35.617000579833984 -237.6060028076172,-35.617000579833984 -237.6060028076172,-35.617000579833984z"></path><path stroke-linecap="round" stroke-linejoin="round" fill-opacity="0" stroke="rgb(32,40,112)" stroke-opacity="1" stroke-width="2.09" d=" M-237.6060028076172,-35.617000579833984 C-237.6060028076172,-35.617000579833984 -237.6060028076172,280.75201416015625 -237.6060028076172,280.75201416015625 C-237.6060028076172,280.75201416015625 -553.9749755859375,280.75201416015625 -553.9749755859375,280.75201416015625 C-553.9749755859375,280.75201416015625 -553.9749755859375,-35.617000579833984 -553.9749755859375,-35.617000579833984 C-553.9749755859375,-35.617000579833984 -237.6060028076172,-35.617000579833984 -237.6060028076172,-35.617000579833984z"></path></g><g opacity="1" transform="matrix(1,0,0,1,0,0)"><path fill="rgb(32,40,112)" fill-opacity="1" d=" M-290.39801025390625,280.75299072265625 C-289.4859924316406,278.8110046386719 -289.1109924316406,276.71600341796875 -289.1109924316406,274.44500732421875 C-289.1109924316406,245.86900329589844 -366.7770080566406,245.8679962158203 -366.7770080566406,217.30099487304688 C-366.7770080566406,188.73399353027344 -289.1109924316406,188.73399353027344 -289.1109924316406,160.16700744628906 C-289.1109924316406,131.60000610351562 -366.7770080566406,131.5989990234375 -366.7770080566406,103.03199768066406 C-366.7770080566406,74.46499633789062 -289.1109924316406,74.46399688720703 -289.1109924316406,45.904998779296875 C-289.1109924316406,17.33799934387207 -366.7770080566406,17.336999893188477 -366.7770080566406,-11.229999542236328 C-366.7770080566406,-22.761999130249023 -354.12200927734375,-29.641000747680664 -339.02801513671875,-35.61800003051758 C-339.02801513671875,-35.61800003051758 -479.0950012207031,-35.617000579833984 -479.0950012207031,-35.617000579833984 C-494.1889953613281,-29.639999389648438 -506.8429870605469,-22.760000228881836 -506.8429870605469,-11.227999687194824 C-506.8429870605469,17.339000701904297 -429.1780090332031,17.34000015258789 -429.1780090332031,45.90700149536133 C-429.1780090332031,74.46600341796875 -506.8429870605469,74.46600341796875 -506.8429870605469,103.03299713134766 C-506.8429870605469,131.60000610351562 -429.1780090332031,131.6009979248047 -429.1780090332031,160.16799926757812 C-429.1780090332031,188.73500061035156 -506.8429870605469,188.73599243164062 -506.8429870605469,217.30299377441406 C-506.8429870605469,245.8699951171875 -429.1780090332031,245.8699951171875 -429.1780090332031,274.4460144042969 C-429.1780090332031,276.7170104980469 -429.9289855957031,278.80999755859375 -430.84100341796875,280.75201416015625 C-430.84100341796875,280.75201416015625 -290.39801025390625,280.75299072265625 -290.39801025390625,280.75299072265625z"></path></g></g><g transform="matrix(1,0,0,1,800,1561)" opacity="1" style="display: block;"><g opacity="1" transform="matrix(1,0,0,1,0,0)"><path stroke-linecap="round" stroke-linejoin="round" fill-opacity="0" stroke="rgb(32,40,112)" stroke-opacity="1" stroke-width="1.831" d=" M496.63800048828125,-94.19499969482422 C496.63800048828125,-94.19499969482422 180.2689971923828,-94.19499969482422 180.2689971923828,-94.19499969482422 C180.2689971923828,-94.19499969482422 180.2689971923828,-410.56500244140625 180.2689971923828,-410.56500244140625 C180.2689971923828,-410.56500244140625 496.63800048828125,-410.56500244140625 496.63800048828125,-410.56500244140625 C496.63800048828125,-410.56500244140625 496.63800048828125,-94.19499969482422 496.63800048828125,-94.19499969482422z"></path></g><g opacity="1" transform="matrix(1,0,0,1,0,0)"><path fill="rgb(132,132,250)" fill-opacity="1" d=" M496.63800048828125,-94.19499969482422 C496.63800048828125,-94.19499969482422 180.2689971923828,-94.19499969482422 180.2689971923828,-94.19499969482422 C180.2689971923828,-94.19499969482422 180.2689971923828,-410.56500244140625 180.2689971923828,-410.56500244140625 C180.2689971923828,-410.56500244140625 496.63800048828125,-410.56500244140625 496.63800048828125,-410.56500244140625 C496.63800048828125,-410.56500244140625 496.63800048828125,-94.19499969482422 496.63800048828125,-94.19499969482422z"></path><path stroke-linecap="round" stroke-linejoin="round" fill-opacity="0" stroke="rgb(32,40,112)" stroke-opacity="1" stroke-width="2.09" d=" M496.63800048828125,-94.19499969482422 C496.63800048828125,-94.19499969482422 180.2689971923828,-94.19499969482422 180.2689971923828,-94.19499969482422 C180.2689971923828,-94.19499969482422 180.2689971923828,-410.56500244140625 180.2689971923828,-410.56500244140625 C180.2689971923828,-410.56500244140625 496.63800048828125,-410.56500244140625 496.63800048828125,-410.56500244140625 C496.63800048828125,-410.56500244140625 496.63800048828125,-94.19499969482422 496.63800048828125,-94.19499969482422z"></path></g><g opacity="1" transform="matrix(1,0,0,1,0,0)"><path stroke-linecap="round" stroke-linejoin="round" fill-opacity="0" stroke="rgb(32,40,112)" stroke-opacity="1" stroke-width="1.323" d=" M496.63800048828125,-94.19499969482422 C496.63800048828125,-94.19499969482422 180.2689971923828,-94.19499969482422 180.2689971923828,-94.19499969482422 C180.2689971923828,-94.19499969482422 180.2689971923828,-259.2179870605469 180.2689971923828,-259.2179870605469 C180.2689971923828,-259.2179870605469 496.63800048828125,-259.2179870605469 496.63800048828125,-259.2179870605469 C496.63800048828125,-259.2179870605469 496.63800048828125,-94.19499969482422 496.63800048828125,-94.19499969482422z"></path></g><g opacity="1" transform="matrix(1,0,0,1,0,0)"><path fill="rgb(255,255,255)" fill-opacity="1" d=" M496.63800048828125,-259.2179870605469 C496.63800048828125,-259.2179870605469 250.6909942626953,-259.2179870605469 250.6909942626953,-259.2179870605469 C250.6909942626953,-259.2179870605469 253.20199584960938,-263.27398681640625 253.20199584960938,-263.27398681640625 C295.85198974609375,-332.1709899902344 371.114013671875,-374.09600830078125 452.1440124511719,-374.09600830078125 C452.1440124511719,-374.09600830078125 496.63800048828125,-374.09600830078125 496.63800048828125,-374.09600830078125 C496.63800048828125,-374.09600830078125 496.63800048828125,-259.2179870605469 496.63800048828125,-259.2179870605469z"></path><path stroke-linecap="round" stroke-linejoin="round" fill-opacity="0" stroke="rgb(32,40,112)" stroke-opacity="1" stroke-width="2.636" d=" M496.63800048828125,-259.2179870605469 C496.63800048828125,-259.2179870605469 250.6909942626953,-259.2179870605469 250.6909942626953,-259.2179870605469 C250.6909942626953,-259.2179870605469 253.20199584960938,-263.27398681640625 253.20199584960938,-263.27398681640625 C295.85198974609375,-332.1709899902344 371.114013671875,-374.09600830078125 452.1440124511719,-374.09600830078125 C452.1440124511719,-374.09600830078125 496.63800048828125,-374.09600830078125 496.63800048828125,-374.09600830078125 C496.63800048828125,-374.09600830078125 496.63800048828125,-259.2179870605469 496.63800048828125,-259.2179870605469z"></path></g><g opacity="1" transform="matrix(1,0,0,1,0,0)"><path fill="rgb(249,74,130)" fill-opacity="1" d=" M348.75,-259.2179870605469 C348.75,-259.2179870605469 180.2689971923828,-259.2179870605469 180.2689971923828,-259.2179870605469 C180.2689971923828,-259.2179870605469 180.2689971923828,-410.56500244140625 180.2689971923828,-410.56500244140625 C180.2689971923828,-410.56500244140625 234.47999572753906,-410.56500244140625 234.47999572753906,-410.56500244140625 C297.5889892578125,-410.56500244140625 348.75,-359.40399169921875 348.75,-296.2950134277344 C348.75,-296.2950134277344 348.75,-259.2179870605469 348.75,-259.2179870605469z"></path><path stroke-linecap="butt" stroke-linejoin="miter" fill-opacity="0" stroke-miterlimit="10" stroke="rgb(32,40,112)" stroke-opacity="1" stroke-width="2" d=" M348.75,-259.2179870605469 C348.75,-259.2179870605469 180.2689971923828,-259.2179870605469 180.2689971923828,-259.2179870605469 C180.2689971923828,-259.2179870605469 180.2689971923828,-410.56500244140625 180.2689971923828,-410.56500244140625 C180.2689971923828,-410.56500244140625 234.47999572753906,-410.56500244140625 234.47999572753906,-410.56500244140625 C297.5889892578125,-410.56500244140625 348.75,-359.40399169921875 348.75,-296.2950134277344 C348.75,-296.2950134277344 348.75,-259.2179870605469 348.75,-259.2179870605469z"></path></g><g opacity="1" transform="matrix(1,0,0,1,0,0)"><path fill="rgb(255,255,255)" fill-opacity="1" d=" M363.8280029296875,-259.2179870605469 C363.8280029296875,-245.20399475097656 352.4679870605469,-233.843994140625 338.4540100097656,-233.843994140625 C324.44000244140625,-233.843994140625 313.0790100097656,-245.20399475097656 313.0790100097656,-259.2179870605469 C313.0790100097656,-273.23199462890625 324.44000244140625,-284.5920104980469 338.4540100097656,-284.5920104980469 C352.4679870605469,-284.5920104980469 363.8280029296875,-273.23199462890625 363.8280029296875,-259.2179870605469z"></path><path stroke-linecap="round" stroke-linejoin="round" fill-opacity="0" stroke="rgb(32,40,112)" stroke-opacity="1" stroke-width="2.636" d=" M363.8280029296875,-259.2179870605469 C363.8280029296875,-245.20399475097656 352.4679870605469,-233.843994140625 338.4540100097656,-233.843994140625 C324.44000244140625,-233.843994140625 313.0790100097656,-245.20399475097656 313.0790100097656,-259.2179870605469 C313.0790100097656,-273.23199462890625 324.44000244140625,-284.5920104980469 338.4540100097656,-284.5920104980469 C352.4679870605469,-284.5920104980469 363.8280029296875,-273.23199462890625 363.8280029296875,-259.2179870605469z"></path></g><g opacity="1" transform="matrix(1,0,0,1,0,0)"><path stroke-linecap="round" stroke-linejoin="round" fill-opacity="0" stroke="rgb(32,40,112)" stroke-opacity="1" stroke-width="1.056" d=" M309.1260070800781,-223.96499633789062 C309.1260070800781,-223.96499633789062 388.14300537109375,-223.96499633789062 388.14300537109375,-223.96499633789062"></path></g><g opacity="1" transform="matrix(1,0,0,1,0,0)"><path stroke-linecap="round" stroke-linejoin="round" fill-opacity="0" stroke="rgb(32,40,112)" stroke-opacity="1" stroke-width="1.65" d=" M250.7760009765625,-176.70700073242188 C250.7760009765625,-176.70700073242188 437.9840087890625,-176.70700073242188 437.9840087890625,-176.70700073242188"></path></g><g opacity="1" transform="matrix(1,0,0,1,0,0)"><path stroke-linecap="round" stroke-linejoin="round" fill-opacity="0" stroke="rgb(32,40,112)" stroke-opacity="1" stroke-width="1.65" d=" M312.1659851074219,-156.4969940185547 C312.1659851074219,-156.4969940185547 376.593994140625,-156.4969940185547 376.593994140625,-156.4969940185547"></path></g></g><g transform="matrix(1,0,0,1,800,1561)" opacity="1" style="display: block;"><g opacity="1" transform="matrix(1,0,0,1,0,0)"><path stroke-linecap="round" stroke-linejoin="round" fill-opacity="0" stroke="rgb(32,40,112)" stroke-opacity="1" stroke-width="1.831" d=" M129.51600646972656,-94.19499969482422 C129.51600646972656,-94.19499969482422 -186.85299682617188,-94.19499969482422 -186.85299682617188,-94.19499969482422 C-186.85299682617188,-94.19499969482422 -186.85299682617188,-410.56500244140625 -186.85299682617188,-410.56500244140625 C-186.85299682617188,-410.56500244140625 129.51600646972656,-410.56500244140625 129.51600646972656,-410.56500244140625 C129.51600646972656,-410.56500244140625 129.51600646972656,-94.19499969482422 129.51600646972656,-94.19499969482422z"></path></g><g opacity="1" transform="matrix(1,0,0,1,0,0)"><path fill="rgb(132,132,250)" fill-opacity="1" d=" M129.51600646972656,-94.19499969482422 C129.51600646972656,-94.19499969482422 -186.85299682617188,-94.19499969482422 -186.85299682617188,-94.19499969482422 C-186.85299682617188,-94.19499969482422 -186.85299682617188,-410.56500244140625 -186.85299682617188,-410.56500244140625 C-186.85299682617188,-410.56500244140625 129.51600646972656,-410.56500244140625 129.51600646972656,-410.56500244140625 C129.51600646972656,-410.56500244140625 129.51600646972656,-94.19499969482422 129.51600646972656,-94.19499969482422z"></path><path stroke-linecap="round" stroke-linejoin="round" fill-opacity="0" stroke="rgb(32,40,112)" stroke-opacity="1" stroke-width="2.09" d=" M129.51600646972656,-94.19499969482422 C129.51600646972656,-94.19499969482422 -186.85299682617188,-94.19499969482422 -186.85299682617188,-94.19499969482422 C-186.85299682617188,-94.19499969482422 -186.85299682617188,-410.56500244140625 -186.85299682617188,-410.56500244140625 C-186.85299682617188,-410.56500244140625 129.51600646972656,-410.56500244140625 129.51600646972656,-410.56500244140625 C129.51600646972656,-410.56500244140625 129.51600646972656,-94.19499969482422 129.51600646972656,-94.19499969482422z"></path></g><g opacity="1" transform="matrix(1,0,0,1,0,0)"><path fill="rgb(255,255,255)" fill-opacity="1" d=" M129.51600646972656,-94.19499969482422 C129.51600646972656,-94.19499969482422 -186.85299682617188,-94.19499969482422 -186.85299682617188,-94.19499969482422 C-186.85299682617188,-94.19499969482422 -186.85299682617188,-259.2179870605469 -186.85299682617188,-259.2179870605469 C-186.85299682617188,-259.2179870605469 129.51600646972656,-259.2179870605469 129.51600646972656,-259.2179870605469 C129.51600646972656,-259.2179870605469 129.51600646972656,-94.19499969482422 129.51600646972656,-94.19499969482422z"></path><path stroke-linecap="round" stroke-linejoin="round" fill-opacity="0" stroke="rgb(32,40,112)" stroke-opacity="1" stroke-width="2.636" d=" M129.51600646972656,-94.19499969482422 C129.51600646972656,-94.19499969482422 -186.85299682617188,-94.19499969482422 -186.85299682617188,-94.19499969482422 C-186.85299682617188,-94.19499969482422 -186.85299682617188,-259.2179870605469 -186.85299682617188,-259.2179870605469 C-186.85299682617188,-259.2179870605469 129.51600646972656,-259.2179870605469 129.51600646972656,-259.2179870605469 C129.51600646972656,-259.2179870605469 129.51600646972656,-94.19499969482422 129.51600646972656,-94.19499969482422z"></path></g><g opacity="1" transform="matrix(1,0,0,1,0,0)"><path fill="rgb(249,74,130)" fill-opacity="1" d=" M-186.85299682617188,-259.2179870605469 C-186.85299682617188,-259.2179870605469 -186.85299682617188,-410.56500244140625 -186.85299682617188,-410.56500244140625 C-186.85299682617188,-410.56500244140625 -71.052001953125,-410.56500244140625 -71.052001953125,-410.56500244140625 C-71.052001953125,-410.56500244140625 -129.94700622558594,-331.1090087890625 -112.6989974975586,-311.79400634765625 C-93.74099731445312,-290.5639953613281 -22.881000518798828,-364.3710021972656 33.78499984741211,-364.3710021972656 C112.49700164794922,-364.3710021972656 21.020999908447266,-259.2179870605469 21.020999908447266,-259.2179870605469 C21.020999908447266,-259.2179870605469 -186.85299682617188,-259.2179870605469 -186.85299682617188,-259.2179870605469z"></path><path stroke-linecap="butt" stroke-linejoin="miter" fill-opacity="0" stroke-miterlimit="10" stroke="rgb(32,40,112)" stroke-opacity="1" stroke-width="2" d=" M-186.85299682617188,-259.2179870605469 C-186.85299682617188,-259.2179870605469 -186.85299682617188,-410.56500244140625 -186.85299682617188,-410.56500244140625 C-186.85299682617188,-410.56500244140625 -71.052001953125,-410.56500244140625 -71.052001953125,-410.56500244140625 C-71.052001953125,-410.56500244140625 -129.94700622558594,-331.1090087890625 -112.6989974975586,-311.79400634765625 C-93.74099731445312,-290.5639953613281 -22.881000518798828,-364.3710021972656 33.78499984741211,-364.3710021972656 C112.49700164794922,-364.3710021972656 21.020999908447266,-259.2179870605469 21.020999908447266,-259.2179870605469 C21.020999908447266,-259.2179870605469 -186.85299682617188,-259.2179870605469 -186.85299682617188,-259.2179870605469z"></path></g><g opacity="1" transform="matrix(1,0,0,1,0,0)"><path stroke-linecap="round" stroke-linejoin="round" fill-opacity="0" stroke="rgb(32,40,112)" stroke-opacity="1" stroke-width="1.056" d=" M-57.99599838256836,-211.96499633789062 C-57.99599838256836,-211.96499633789062 21.020999908447266,-211.96499633789062 21.020999908447266,-211.96499633789062"></path></g><g opacity="1" transform="matrix(1,0,0,1,0,0)"><path stroke-linecap="round" stroke-linejoin="round" fill-opacity="0" stroke="rgb(32,40,112)" stroke-opacity="1" stroke-width="1.65" d=" M-116.34600067138672,-164.70700073242188 C-116.34600067138672,-164.70700073242188 70.86199951171875,-164.70700073242188 70.86199951171875,-164.70700073242188"></path></g><g opacity="1" transform="matrix(1,0,0,1,0,0)"><path fill="rgb(32,40,112)" fill-opacity="1" d=" M-5.61899995803833,-259.2179870605469 C-5.61899995803833,-244.30599975585938 -17.707000732421875,-232.21800231933594 -32.61899948120117,-232.21800231933594 C-47.53099822998047,-232.21800231933594 -59.61899948120117,-244.30599975585938 -59.61899948120117,-259.2179870605469 C-59.61899948120117,-274.1300048828125 -47.53099822998047,-286.2179870605469 -32.61899948120117,-286.2179870605469 C-17.707000732421875,-286.2179870605469 -5.61899995803833,-274.1300048828125 -5.61899995803833,-259.2179870605469z"></path><path stroke-linecap="butt" stroke-linejoin="miter" fill-opacity="0" stroke-miterlimit="10" stroke="rgb(32,40,112)" stroke-opacity="1" stroke-width="1" d=" M-5.61899995803833,-259.2179870605469 C-5.61899995803833,-244.30599975585938 -17.707000732421875,-232.21800231933594 -32.61899948120117,-232.21800231933594 C-47.53099822998047,-232.21800231933594 -59.61899948120117,-244.30599975585938 -59.61899948120117,-259.2179870605469 C-59.61899948120117,-274.1300048828125 -47.53099822998047,-286.2179870605469 -32.61899948120117,-286.2179870605469 C-17.707000732421875,-286.2179870605469 -5.61899995803833,-274.1300048828125 -5.61899995803833,-259.2179870605469z"></path></g></g><g transform="matrix(1,0,0,1,800,1561)" opacity="1" style="display: block;"><g opacity="1" transform="matrix(1,0,0,1,0,0)"><path stroke-linecap="round" stroke-linejoin="round" fill-opacity="0" stroke="rgb(32,40,112)" stroke-opacity="1" stroke-width="1.831" d=" M-237.6060028076172,-94.19499969482422 C-237.6060028076172,-94.19499969482422 -553.9749755859375,-94.19499969482422 -553.9749755859375,-94.19499969482422 C-553.9749755859375,-94.19499969482422 -553.9749755859375,-410.56500244140625 -553.9749755859375,-410.56500244140625 C-553.9749755859375,-410.56500244140625 -237.6060028076172,-410.56500244140625 -237.6060028076172,-410.56500244140625 C-237.6060028076172,-410.56500244140625 -237.6060028076172,-94.19499969482422 -237.6060028076172,-94.19499969482422z"></path></g><g opacity="1" transform="matrix(1,0,0,1,0,0)"><path fill="rgb(132,132,250)" fill-opacity="1" d=" M-237.6060028076172,-94.19499969482422 C-237.6060028076172,-94.19499969482422 -553.9749755859375,-94.19499969482422 -553.9749755859375,-94.19499969482422 C-553.9749755859375,-94.19499969482422 -553.9749755859375,-259.2179870605469 -553.9749755859375,-259.2179870605469 C-553.9749755859375,-259.2179870605469 -237.6060028076172,-259.2179870605469 -237.6060028076172,-259.2179870605469 C-237.6060028076172,-259.2179870605469 -237.6060028076172,-94.19499969482422 -237.6060028076172,-94.19499969482422z"></path><path stroke-linecap="round" stroke-linejoin="round" fill-opacity="0" stroke="rgb(32,40,112)" stroke-opacity="1" stroke-width="2.09" d=" M-237.6060028076172,-94.19499969482422 C-237.6060028076172,-94.19499969482422 -553.9749755859375,-94.19499969482422 -553.9749755859375,-94.19499969482422 C-553.9749755859375,-94.19499969482422 -553.9749755859375,-259.2179870605469 -553.9749755859375,-259.2179870605469 C-553.9749755859375,-259.2179870605469 -237.6060028076172,-259.2179870605469 -237.6060028076172,-259.2179870605469 C-237.6060028076172,-259.2179870605469 -237.6060028076172,-94.19499969482422 -237.6060028076172,-94.19499969482422z"></path></g><g opacity="1" transform="matrix(1,0,0,1,0,0)"><path stroke-linecap="round" stroke-linejoin="round" fill-opacity="0" stroke="rgb(32,40,112)" stroke-opacity="1" stroke-width="1.267" d=" M-237.6060028076172,-259.2179870605469 C-237.6060028076172,-259.2179870605469 -553.9749755859375,-259.2179870605469 -553.9749755859375,-259.2179870605469 C-553.9749755859375,-259.2179870605469 -553.9749755859375,-410.56500244140625 -553.9749755859375,-410.56500244140625 C-553.9749755859375,-410.56500244140625 -237.6060028076172,-410.56500244140625 -237.6060028076172,-410.56500244140625 C-237.6060028076172,-410.56500244140625 -237.6060028076172,-259.2179870605469 -237.6060028076172,-259.2179870605469z"></path></g><g opacity="1" transform="matrix(1,0,0,1,0,0)"><path fill="rgb(249,74,130)" fill-opacity="1" d=" M-237.6060028076172,-259.2179870605469 C-237.6060028076172,-259.2179870605469 -553.9749755859375,-259.2179870605469 -553.9749755859375,-259.2179870605469 C-553.9749755859375,-259.2179870605469 -553.9749755859375,-326.0780029296875 -553.9749755859375,-326.0780029296875 C-553.9749755859375,-326.0780029296875 -516.8989868164062,-364.2799987792969 -471.0090026855469,-364.2799987792969 C-418.4010009765625,-364.2799987792969 -376.489013671875,-319.4830017089844 -313.8840026855469,-315.83599853515625 C-271.8349914550781,-313.3869934082031 -237.6060028076172,-341.27301025390625 -237.6060028076172,-341.27301025390625 C-237.6060028076172,-341.27301025390625 -237.6060028076172,-259.2179870605469 -237.6060028076172,-259.2179870605469z"></path><path stroke-linecap="butt" stroke-linejoin="miter" fill-opacity="0" stroke-miterlimit="10" stroke="rgb(32,40,112)" stroke-opacity="1" stroke-width="2" d=" M-237.6060028076172,-259.2179870605469 C-237.6060028076172,-259.2179870605469 -553.9749755859375,-259.2179870605469 -553.9749755859375,-259.2179870605469 C-553.9749755859375,-259.2179870605469 -553.9749755859375,-326.0780029296875 -553.9749755859375,-326.0780029296875 C-553.9749755859375,-326.0780029296875 -516.8989868164062,-364.2799987792969 -471.0090026855469,-364.2799987792969 C-418.4010009765625,-364.2799987792969 -376.489013671875,-319.4830017089844 -313.8840026855469,-315.83599853515625 C-271.8349914550781,-313.3869934082031 -237.6060028076172,-341.27301025390625 -237.6060028076172,-341.27301025390625 C-237.6060028076172,-341.27301025390625 -237.6060028076172,-259.2179870605469 -237.6060028076172,-259.2179870605469z"></path></g><g opacity="1" transform="matrix(1,0,0,1,0,0)"><path fill="rgb(255,255,255)" fill-opacity="1" d=" M-366.6300048828125,-259.2179870605469 C-366.6300048828125,-243.11300659179688 -379.68499755859375,-230.05799865722656 -395.7900085449219,-230.05799865722656 C-411.8949890136719,-230.05799865722656 -424.95001220703125,-243.11300659179688 -424.95001220703125,-259.2179870605469 C-424.95001220703125,-275.322998046875 -411.8949890136719,-288.37799072265625 -395.7900085449219,-288.37799072265625 C-379.68499755859375,-288.37799072265625 -366.6300048828125,-275.322998046875 -366.6300048828125,-259.2179870605469z"></path><path stroke-linecap="round" stroke-linejoin="round" fill-opacity="0" stroke="rgb(32,40,112)" stroke-opacity="1" stroke-width="1.899" d=" M-366.6300048828125,-259.2179870605469 C-366.6300048828125,-243.11300659179688 -379.68499755859375,-230.05799865722656 -395.7900085449219,-230.05799865722656 C-411.8949890136719,-230.05799865722656 -424.95001220703125,-243.11300659179688 -424.95001220703125,-259.2179870605469 C-424.95001220703125,-275.322998046875 -411.8949890136719,-288.37799072265625 -395.7900085449219,-288.37799072265625 C-379.68499755859375,-288.37799072265625 -366.6300048828125,-275.322998046875 -366.6300048828125,-259.2179870605469z"></path></g><g opacity="1" transform="matrix(1,0,0,1,0,0)"><path stroke-linecap="round" stroke-linejoin="round" fill-opacity="0" stroke="rgb(32,40,112)" stroke-opacity="1" stroke-width="1.056" d=" M-477.3900146484375,-223.96499633789062 C-477.3900146484375,-223.96499633789062 -439.7049865722656,-223.96499633789062 -439.7049865722656,-223.96499633789062"></path></g><g opacity="1" transform="matrix(1,0,0,1,0,0)"><path stroke-linecap="round" stroke-linejoin="round" fill-opacity="0" stroke="rgb(32,40,112)" stroke-opacity="1" stroke-width="1.056" d=" M-425.1180114746094,-223.96499633789062 C-425.1180114746094,-223.96499633789062 -346.10101318359375,-223.96499633789062 -346.10101318359375,-223.96499633789062"></path></g><g opacity="1" transform="matrix(1,0,0,1,0,0)"><path stroke-linecap="round" stroke-linejoin="round" fill-opacity="0" stroke="rgb(32,40,112)" stroke-opacity="1" stroke-width="1.65" d=" M-483.4679870605469,-176.70700073242188 C-483.4679870605469,-176.70700073242188 -296.260009765625,-176.70700073242188 -296.260009765625,-176.70700073242188"></path></g><g opacity="1" transform="matrix(1,0,0,1,0,0)"><path stroke-linecap="round" stroke-linejoin="round" fill-opacity="0" stroke="rgb(32,40,112)" stroke-opacity="1" stroke-width="1.65" d=" M-422.0790100097656,-156.4969940185547 C-422.0790100097656,-156.4969940185547 -357.6499938964844,-156.4969940185547 -357.6499938964844,-156.4969940185547"></path></g><g opacity="1" transform="matrix(1,0,0,1,0,0)"><path fill="rgb(249,74,130)" fill-opacity="1" d=" M-321.9909973144531,-223.96499633789062 C-321.9909973144531,-220.83200073242188 -324.531005859375,-218.29200744628906 -327.66400146484375,-218.29200744628906 C-330.7969970703125,-218.29200744628906 -333.3370056152344,-220.83200073242188 -333.3370056152344,-223.96499633789062 C-333.3370056152344,-227.09800720214844 -330.7969970703125,-229.63800048828125 -327.66400146484375,-229.63800048828125 C-324.531005859375,-229.63800048828125 -321.9909973144531,-227.09800720214844 -321.9909973144531,-223.96499633789062z"></path><path stroke-linecap="butt" stroke-linejoin="miter" fill-opacity="0" stroke-miterlimit="10" stroke="rgb(32,40,112)" stroke-opacity="1" stroke-width="2" d=" M-321.9909973144531,-223.96499633789062 C-321.9909973144531,-220.83200073242188 -324.531005859375,-218.29200744628906 -327.66400146484375,-218.29200744628906 C-330.7969970703125,-218.29200744628906 -333.3370056152344,-220.83200073242188 -333.3370056152344,-223.96499633789062 C-333.3370056152344,-227.09800720214844 -330.7969970703125,-229.63800048828125 -327.66400146484375,-229.63800048828125 C-324.531005859375,-229.63800048828125 -321.9909973144531,-227.09800720214844 -321.9909973144531,-223.96499633789062z"></path></g></g><g transform="matrix(1,0,0,1,800,800.0000610351562)" opacity="1" style="display: block;"><g opacity="1" transform="matrix(1,0,0,1,0,0)"><path fill="rgb(132,132,250)" fill-opacity="1" d=" M496.63800048828125,-35.617000579833984 C496.63800048828125,-35.617000579833984 496.63800048828125,280.75201416015625 496.63800048828125,280.75201416015625 C496.63800048828125,280.75201416015625 180.2689971923828,280.75201416015625 180.2689971923828,280.75201416015625 C180.2689971923828,280.75201416015625 180.2689971923828,-35.617000579833984 180.2689971923828,-35.617000579833984 C180.2689971923828,-35.617000579833984 496.63800048828125,-35.617000579833984 496.63800048828125,-35.617000579833984z"></path><path stroke-linecap="round" stroke-linejoin="round" fill-opacity="0" stroke="rgb(32,40,112)" stroke-opacity="1" stroke-width="2.09" d=" M496.63800048828125,-35.617000579833984 C496.63800048828125,-35.617000579833984 496.63800048828125,280.75201416015625 496.63800048828125,280.75201416015625 C496.63800048828125,280.75201416015625 180.2689971923828,280.75201416015625 180.2689971923828,280.75201416015625 C180.2689971923828,280.75201416015625 180.2689971923828,-35.617000579833984 180.2689971923828,-35.617000579833984 C180.2689971923828,-35.617000579833984 496.63800048828125,-35.617000579833984 496.63800048828125,-35.617000579833984z"></path></g><g opacity="1" transform="matrix(1,0,0,1,0,0)"><path fill="rgb(249,74,130)" fill-opacity="1" d=" M393.5409851074219,280.75201416015625 C393.5409851074219,280.75201416015625 420.0150146484375,251.5850067138672 420.0150146484375,251.5850067138672 C420.0150146484375,251.5850067138672 347.4150085449219,171.59800720214844 347.4150085449219,171.59800720214844 C347.4150085449219,171.59800720214844 420.0150146484375,91.61100006103516 420.0150146484375,91.61100006103516 C420.0150146484375,91.61100006103516 347.4150085449219,11.62399959564209 347.4150085449219,11.62399959564209 C347.4150085449219,11.62399959564209 390.2909851074219,-35.617000579833984 390.2909851074219,-35.617000579833984 C390.2909851074219,-35.617000579833984 299.76800537109375,-35.617000579833984 299.76800537109375,-35.617000579833984 C299.76800537109375,-35.617000579833984 256.8919982910156,11.62399959564209 256.8919982910156,11.62399959564209 C256.8919982910156,11.62399959564209 329.49200439453125,91.61100006103516 329.49200439453125,91.61100006103516 C329.49200439453125,91.61100006103516 256.8919982910156,171.59800720214844 256.8919982910156,171.59800720214844 C256.8919982910156,171.59800720214844 329.49200439453125,251.5850067138672 329.49200439453125,251.5850067138672 C329.49200439453125,251.5850067138672 303.0190124511719,280.75201416015625 303.0190124511719,280.75201416015625"></path><path stroke-linecap="butt" stroke-linejoin="miter" fill-opacity="0" stroke-miterlimit="10" stroke="rgb(32,40,112)" stroke-opacity="1" stroke-width="2" d=" M393.5409851074219,280.75201416015625 C393.5409851074219,280.75201416015625 420.0150146484375,251.5850067138672 420.0150146484375,251.5850067138672 C420.0150146484375,251.5850067138672 347.4150085449219,171.59800720214844 347.4150085449219,171.59800720214844 C347.4150085449219,171.59800720214844 420.0150146484375,91.61100006103516 420.0150146484375,91.61100006103516 C420.0150146484375,91.61100006103516 347.4150085449219,11.62399959564209 347.4150085449219,11.62399959564209 C347.4150085449219,11.62399959564209 390.2909851074219,-35.617000579833984 390.2909851074219,-35.617000579833984 C390.2909851074219,-35.617000579833984 299.76800537109375,-35.617000579833984 299.76800537109375,-35.617000579833984 C299.76800537109375,-35.617000579833984 256.8919982910156,11.62399959564209 256.8919982910156,11.62399959564209 C256.8919982910156,11.62399959564209 329.49200439453125,91.61100006103516 329.49200439453125,91.61100006103516 C329.49200439453125,91.61100006103516 256.8919982910156,171.59800720214844 256.8919982910156,171.59800720214844 C256.8919982910156,171.59800720214844 329.49200439453125,251.5850067138672 329.49200439453125,251.5850067138672 C329.49200439453125,251.5850067138672 303.0190124511719,280.75201416015625 303.0190124511719,280.75201416015625"></path></g></g><g transform="matrix(1,0,0,1,800,800.0000610351562)" opacity="1" style="display: block;"><g opacity="1" transform="matrix(1,0,0,1,0,0)"><path fill="rgb(249,74,130)" fill-opacity="1" d=" M129.51600646972656,-35.617000579833984 C129.51600646972656,-35.617000579833984 129.51600646972656,280.75201416015625 129.51600646972656,280.75201416015625 C129.51600646972656,280.75201416015625 -186.85299682617188,280.75201416015625 -186.85299682617188,280.75201416015625 C-186.85299682617188,280.75201416015625 -186.85299682617188,-35.617000579833984 -186.85299682617188,-35.617000579833984 C-186.85299682617188,-35.617000579833984 129.51600646972656,-35.617000579833984 129.51600646972656,-35.617000579833984z"></path><path stroke-linecap="butt" stroke-linejoin="miter" fill-opacity="0" stroke-miterlimit="10" stroke="rgb(32,40,112)" stroke-opacity="1" stroke-width="2" d=" M129.51600646972656,-35.617000579833984 C129.51600646972656,-35.617000579833984 129.51600646972656,280.75201416015625 129.51600646972656,280.75201416015625 C129.51600646972656,280.75201416015625 -186.85299682617188,280.75201416015625 -186.85299682617188,280.75201416015625 C-186.85299682617188,280.75201416015625 -186.85299682617188,-35.617000579833984 -186.85299682617188,-35.617000579833984 C-186.85299682617188,-35.617000579833984 129.51600646972656,-35.617000579833984 129.51600646972656,-35.617000579833984z"></path></g><g opacity="1" transform="matrix(1,0,0,1,0,0)"><path fill="rgb(132,132,250)" fill-opacity="1" d=" M66.88600158691406,-35.617000579833984 C55,5.959000110626221 16.715999603271484,36.38399887084961 -28.667999267578125,36.38399887084961 C-74.052001953125,36.38399887084961 -112.33599853515625,5.959000110626221 -124.22200012207031,-35.617000579833984 C-124.22200012207031,-35.617000579833984 66.88600158691406,-35.617000579833984 66.88600158691406,-35.617000579833984z"></path><path stroke-linecap="round" stroke-linejoin="round" fill-opacity="0" stroke="rgb(32,40,112)" stroke-opacity="1" stroke-width="2.09" d=" M66.88600158691406,-35.617000579833984 C55,5.959000110626221 16.715999603271484,36.38399887084961 -28.667999267578125,36.38399887084961 C-74.052001953125,36.38399887084961 -112.33599853515625,5.959000110626221 -124.22200012207031,-35.617000579833984 C-124.22200012207031,-35.617000579833984 66.88600158691406,-35.617000579833984 66.88600158691406,-35.617000579833984z"></path></g></g><g transform="matrix(1,0,0,1,800,800.0000610351562)" opacity="1" style="display: block;"><g opacity="1" transform="matrix(1,0,0,1,0,0)"><path fill="rgb(132,132,250)" fill-opacity="1" d=" M-237.6060028076172,-35.617000579833984 C-237.6060028076172,-35.617000579833984 -237.6060028076172,280.75201416015625 -237.6060028076172,280.75201416015625 C-237.6060028076172,280.75201416015625 -553.9749755859375,280.75201416015625 -553.9749755859375,280.75201416015625 C-553.9749755859375,280.75201416015625 -553.9749755859375,-35.617000579833984 -553.9749755859375,-35.617000579833984 C-553.9749755859375,-35.617000579833984 -237.6060028076172,-35.617000579833984 -237.6060028076172,-35.617000579833984z"></path><path stroke-linecap="round" stroke-linejoin="round" fill-opacity="0" stroke="rgb(32,40,112)" stroke-opacity="1" stroke-width="2.09" d=" M-237.6060028076172,-35.617000579833984 C-237.6060028076172,-35.617000579833984 -237.6060028076172,280.75201416015625 -237.6060028076172,280.75201416015625 C-237.6060028076172,280.75201416015625 -553.9749755859375,280.75201416015625 -553.9749755859375,280.75201416015625 C-553.9749755859375,280.75201416015625 -553.9749755859375,-35.617000579833984 -553.9749755859375,-35.617000579833984 C-553.9749755859375,-35.617000579833984 -237.6060028076172,-35.617000579833984 -237.6060028076172,-35.617000579833984z"></path></g><g opacity="1" transform="matrix(1,0,0,1,0,0)"><path fill="rgb(32,40,112)" fill-opacity="1" d=" M-290.39801025390625,280.75299072265625 C-289.4859924316406,278.8110046386719 -289.1109924316406,276.71600341796875 -289.1109924316406,274.44500732421875 C-289.1109924316406,245.86900329589844 -366.7770080566406,245.8679962158203 -366.7770080566406,217.30099487304688 C-366.7770080566406,188.73399353027344 -289.1109924316406,188.73399353027344 -289.1109924316406,160.16700744628906 C-289.1109924316406,131.60000610351562 -366.7770080566406,131.5989990234375 -366.7770080566406,103.03199768066406 C-366.7770080566406,74.46499633789062 -289.1109924316406,74.46399688720703 -289.1109924316406,45.904998779296875 C-289.1109924316406,17.33799934387207 -366.7770080566406,17.336999893188477 -366.7770080566406,-11.229999542236328 C-366.7770080566406,-22.761999130249023 -354.12200927734375,-29.641000747680664 -339.02801513671875,-35.61800003051758 C-339.02801513671875,-35.61800003051758 -479.0950012207031,-35.617000579833984 -479.0950012207031,-35.617000579833984 C-494.1889953613281,-29.639999389648438 -506.8429870605469,-22.760000228881836 -506.8429870605469,-11.227999687194824 C-506.8429870605469,17.339000701904297 -429.1780090332031,17.34000015258789 -429.1780090332031,45.90700149536133 C-429.1780090332031,74.46600341796875 -506.8429870605469,74.46600341796875 -506.8429870605469,103.03299713134766 C-506.8429870605469,131.60000610351562 -429.1780090332031,131.6009979248047 -429.1780090332031,160.16799926757812 C-429.1780090332031,188.73500061035156 -506.8429870605469,188.73599243164062 -506.8429870605469,217.30299377441406 C-506.8429870605469,245.8699951171875 -429.1780090332031,245.8699951171875 -429.1780090332031,274.4460144042969 C-429.1780090332031,276.7170104980469 -429.9289855957031,278.80999755859375 -430.84100341796875,280.75201416015625 C-430.84100341796875,280.75201416015625 -290.39801025390625,280.75299072265625 -290.39801025390625,280.75299072265625z"></path></g></g><g transform="matrix(1,0,0,1,800,800.0000610351562)" opacity="1" style="display: block;"><g opacity="1" transform="matrix(1,0,0,1,0,0)"><path stroke-linecap="round" stroke-linejoin="round" fill-opacity="0" stroke="rgb(32,40,112)" stroke-opacity="1" stroke-width="1.831" d=" M496.63800048828125,-94.19499969482422 C496.63800048828125,-94.19499969482422 180.2689971923828,-94.19499969482422 180.2689971923828,-94.19499969482422 C180.2689971923828,-94.19499969482422 180.2689971923828,-410.56500244140625 180.2689971923828,-410.56500244140625 C180.2689971923828,-410.56500244140625 496.63800048828125,-410.56500244140625 496.63800048828125,-410.56500244140625 C496.63800048828125,-410.56500244140625 496.63800048828125,-94.19499969482422 496.63800048828125,-94.19499969482422z"></path></g><g opacity="1" transform="matrix(1,0,0,1,0,0)"><path fill="rgb(132,132,250)" fill-opacity="1" d=" M496.63800048828125,-94.19499969482422 C496.63800048828125,-94.19499969482422 180.2689971923828,-94.19499969482422 180.2689971923828,-94.19499969482422 C180.2689971923828,-94.19499969482422 180.2689971923828,-410.56500244140625 180.2689971923828,-410.56500244140625 C180.2689971923828,-410.56500244140625 496.63800048828125,-410.56500244140625 496.63800048828125,-410.56500244140625 C496.63800048828125,-410.56500244140625 496.63800048828125,-94.19499969482422 496.63800048828125,-94.19499969482422z"></path><path stroke-linecap="round" stroke-linejoin="round" fill-opacity="0" stroke="rgb(32,40,112)" stroke-opacity="1" stroke-width="2.09" d=" M496.63800048828125,-94.19499969482422 C496.63800048828125,-94.19499969482422 180.2689971923828,-94.19499969482422 180.2689971923828,-94.19499969482422 C180.2689971923828,-94.19499969482422 180.2689971923828,-410.56500244140625 180.2689971923828,-410.56500244140625 C180.2689971923828,-410.56500244140625 496.63800048828125,-410.56500244140625 496.63800048828125,-410.56500244140625 C496.63800048828125,-410.56500244140625 496.63800048828125,-94.19499969482422 496.63800048828125,-94.19499969482422z"></path></g><g opacity="1" transform="matrix(1,0,0,1,0,0)"><path stroke-linecap="round" stroke-linejoin="round" fill-opacity="0" stroke="rgb(32,40,112)" stroke-opacity="1" stroke-width="1.323" d=" M496.63800048828125,-94.19499969482422 C496.63800048828125,-94.19499969482422 180.2689971923828,-94.19499969482422 180.2689971923828,-94.19499969482422 C180.2689971923828,-94.19499969482422 180.2689971923828,-259.2179870605469 180.2689971923828,-259.2179870605469 C180.2689971923828,-259.2179870605469 496.63800048828125,-259.2179870605469 496.63800048828125,-259.2179870605469 C496.63800048828125,-259.2179870605469 496.63800048828125,-94.19499969482422 496.63800048828125,-94.19499969482422z"></path></g><g opacity="1" transform="matrix(1,0,0,1,0,0)"><path fill="rgb(255,255,255)" fill-opacity="1" d=" M496.63800048828125,-259.2179870605469 C496.63800048828125,-259.2179870605469 250.6909942626953,-259.2179870605469 250.6909942626953,-259.2179870605469 C250.6909942626953,-259.2179870605469 253.20199584960938,-263.27398681640625 253.20199584960938,-263.27398681640625 C295.85198974609375,-332.1709899902344 371.114013671875,-374.09600830078125 452.1440124511719,-374.09600830078125 C452.1440124511719,-374.09600830078125 496.63800048828125,-374.09600830078125 496.63800048828125,-374.09600830078125 C496.63800048828125,-374.09600830078125 496.63800048828125,-259.2179870605469 496.63800048828125,-259.2179870605469z"></path><path stroke-linecap="round" stroke-linejoin="round" fill-opacity="0" stroke="rgb(32,40,112)" stroke-opacity="1" stroke-width="2.636" d=" M496.63800048828125,-259.2179870605469 C496.63800048828125,-259.2179870605469 250.6909942626953,-259.2179870605469 250.6909942626953,-259.2179870605469 C250.6909942626953,-259.2179870605469 253.20199584960938,-263.27398681640625 253.20199584960938,-263.27398681640625 C295.85198974609375,-332.1709899902344 371.114013671875,-374.09600830078125 452.1440124511719,-374.09600830078125 C452.1440124511719,-374.09600830078125 496.63800048828125,-374.09600830078125 496.63800048828125,-374.09600830078125 C496.63800048828125,-374.09600830078125 496.63800048828125,-259.2179870605469 496.63800048828125,-259.2179870605469z"></path></g><g opacity="1" transform="matrix(1,0,0,1,0,0)"><path fill="rgb(249,74,130)" fill-opacity="1" d=" M348.75,-259.2179870605469 C348.75,-259.2179870605469 180.2689971923828,-259.2179870605469 180.2689971923828,-259.2179870605469 C180.2689971923828,-259.2179870605469 180.2689971923828,-410.56500244140625 180.2689971923828,-410.56500244140625 C180.2689971923828,-410.56500244140625 234.47999572753906,-410.56500244140625 234.47999572753906,-410.56500244140625 C297.5889892578125,-410.56500244140625 348.75,-359.40399169921875 348.75,-296.2950134277344 C348.75,-296.2950134277344 348.75,-259.2179870605469 348.75,-259.2179870605469z"></path><path stroke-linecap="butt" stroke-linejoin="miter" fill-opacity="0" stroke-miterlimit="10" stroke="rgb(32,40,112)" stroke-opacity="1" stroke-width="2" d=" M348.75,-259.2179870605469 C348.75,-259.2179870605469 180.2689971923828,-259.2179870605469 180.2689971923828,-259.2179870605469 C180.2689971923828,-259.2179870605469 180.2689971923828,-410.56500244140625 180.2689971923828,-410.56500244140625 C180.2689971923828,-410.56500244140625 234.47999572753906,-410.56500244140625 234.47999572753906,-410.56500244140625 C297.5889892578125,-410.56500244140625 348.75,-359.40399169921875 348.75,-296.2950134277344 C348.75,-296.2950134277344 348.75,-259.2179870605469 348.75,-259.2179870605469z"></path></g><g opacity="1" transform="matrix(1,0,0,1,0,0)"><path fill="rgb(255,255,255)" fill-opacity="1" d=" M363.8280029296875,-259.2179870605469 C363.8280029296875,-245.20399475097656 352.4679870605469,-233.843994140625 338.4540100097656,-233.843994140625 C324.44000244140625,-233.843994140625 313.0790100097656,-245.20399475097656 313.0790100097656,-259.2179870605469 C313.0790100097656,-273.23199462890625 324.44000244140625,-284.5920104980469 338.4540100097656,-284.5920104980469 C352.4679870605469,-284.5920104980469 363.8280029296875,-273.23199462890625 363.8280029296875,-259.2179870605469z"></path><path stroke-linecap="round" stroke-linejoin="round" fill-opacity="0" stroke="rgb(32,40,112)" stroke-opacity="1" stroke-width="2.636" d=" M363.8280029296875,-259.2179870605469 C363.8280029296875,-245.20399475097656 352.4679870605469,-233.843994140625 338.4540100097656,-233.843994140625 C324.44000244140625,-233.843994140625 313.0790100097656,-245.20399475097656 313.0790100097656,-259.2179870605469 C313.0790100097656,-273.23199462890625 324.44000244140625,-284.5920104980469 338.4540100097656,-284.5920104980469 C352.4679870605469,-284.5920104980469 363.8280029296875,-273.23199462890625 363.8280029296875,-259.2179870605469z"></path></g><g opacity="1" transform="matrix(1,0,0,1,0,0)"><path stroke-linecap="round" stroke-linejoin="round" fill-opacity="0" stroke="rgb(32,40,112)" stroke-opacity="1" stroke-width="1.056" d=" M309.1260070800781,-223.96499633789062 C309.1260070800781,-223.96499633789062 388.14300537109375,-223.96499633789062 388.14300537109375,-223.96499633789062"></path></g><g opacity="1" transform="matrix(1,0,0,1,0,0)"><path stroke-linecap="round" stroke-linejoin="round" fill-opacity="0" stroke="rgb(32,40,112)" stroke-opacity="1" stroke-width="1.65" d=" M250.7760009765625,-176.70700073242188 C250.7760009765625,-176.70700073242188 437.9840087890625,-176.70700073242188 437.9840087890625,-176.70700073242188"></path></g><g opacity="1" transform="matrix(1,0,0,1,0,0)"><path stroke-linecap="round" stroke-linejoin="round" fill-opacity="0" stroke="rgb(32,40,112)" stroke-opacity="1" stroke-width="1.65" d=" M312.1659851074219,-156.4969940185547 C312.1659851074219,-156.4969940185547 376.593994140625,-156.4969940185547 376.593994140625,-156.4969940185547"></path></g></g><g transform="matrix(1,0,0,1,800,800.0000610351562)" opacity="1" style="display: block;"><g opacity="1" transform="matrix(1,0,0,1,0,0)"><path stroke-linecap="round" stroke-linejoin="round" fill-opacity="0" stroke="rgb(32,40,112)" stroke-opacity="1" stroke-width="1.831" d=" M129.51600646972656,-94.19499969482422 C129.51600646972656,-94.19499969482422 -186.85299682617188,-94.19499969482422 -186.85299682617188,-94.19499969482422 C-186.85299682617188,-94.19499969482422 -186.85299682617188,-410.56500244140625 -186.85299682617188,-410.56500244140625 C-186.85299682617188,-410.56500244140625 129.51600646972656,-410.56500244140625 129.51600646972656,-410.56500244140625 C129.51600646972656,-410.56500244140625 129.51600646972656,-94.19499969482422 129.51600646972656,-94.19499969482422z"></path></g><g opacity="1" transform="matrix(1,0,0,1,0,0)"><path fill="rgb(132,132,250)" fill-opacity="1" d=" M129.51600646972656,-94.19499969482422 C129.51600646972656,-94.19499969482422 -186.85299682617188,-94.19499969482422 -186.85299682617188,-94.19499969482422 C-186.85299682617188,-94.19499969482422 -186.85299682617188,-410.56500244140625 -186.85299682617188,-410.56500244140625 C-186.85299682617188,-410.56500244140625 129.51600646972656,-410.56500244140625 129.51600646972656,-410.56500244140625 C129.51600646972656,-410.56500244140625 129.51600646972656,-94.19499969482422 129.51600646972656,-94.19499969482422z"></path><path stroke-linecap="round" stroke-linejoin="round" fill-opacity="0" stroke="rgb(32,40,112)" stroke-opacity="1" stroke-width="2.09" d=" M129.51600646972656,-94.19499969482422 C129.51600646972656,-94.19499969482422 -186.85299682617188,-94.19499969482422 -186.85299682617188,-94.19499969482422 C-186.85299682617188,-94.19499969482422 -186.85299682617188,-410.56500244140625 -186.85299682617188,-410.56500244140625 C-186.85299682617188,-410.56500244140625 129.51600646972656,-410.56500244140625 129.51600646972656,-410.56500244140625 C129.51600646972656,-410.56500244140625 129.51600646972656,-94.19499969482422 129.51600646972656,-94.19499969482422z"></path></g><g opacity="1" transform="matrix(1,0,0,1,0,0)"><path fill="rgb(255,255,255)" fill-opacity="1" d=" M129.51600646972656,-94.19499969482422 C129.51600646972656,-94.19499969482422 -186.85299682617188,-94.19499969482422 -186.85299682617188,-94.19499969482422 C-186.85299682617188,-94.19499969482422 -186.85299682617188,-259.2179870605469 -186.85299682617188,-259.2179870605469 C-186.85299682617188,-259.2179870605469 129.51600646972656,-259.2179870605469 129.51600646972656,-259.2179870605469 C129.51600646972656,-259.2179870605469 129.51600646972656,-94.19499969482422 129.51600646972656,-94.19499969482422z"></path><path stroke-linecap="round" stroke-linejoin="round" fill-opacity="0" stroke="rgb(32,40,112)" stroke-opacity="1" stroke-width="2.636" d=" M129.51600646972656,-94.19499969482422 C129.51600646972656,-94.19499969482422 -186.85299682617188,-94.19499969482422 -186.85299682617188,-94.19499969482422 C-186.85299682617188,-94.19499969482422 -186.85299682617188,-259.2179870605469 -186.85299682617188,-259.2179870605469 C-186.85299682617188,-259.2179870605469 129.51600646972656,-259.2179870605469 129.51600646972656,-259.2179870605469 C129.51600646972656,-259.2179870605469 129.51600646972656,-94.19499969482422 129.51600646972656,-94.19499969482422z"></path></g><g opacity="1" transform="matrix(1,0,0,1,0,0)"><path fill="rgb(249,74,130)" fill-opacity="1" d=" M-186.85299682617188,-259.2179870605469 C-186.85299682617188,-259.2179870605469 -186.85299682617188,-410.56500244140625 -186.85299682617188,-410.56500244140625 C-186.85299682617188,-410.56500244140625 -71.052001953125,-410.56500244140625 -71.052001953125,-410.56500244140625 C-71.052001953125,-410.56500244140625 -129.94700622558594,-331.1090087890625 -112.6989974975586,-311.79400634765625 C-93.74099731445312,-290.5639953613281 -22.881000518798828,-364.3710021972656 33.78499984741211,-364.3710021972656 C112.49700164794922,-364.3710021972656 21.020999908447266,-259.2179870605469 21.020999908447266,-259.2179870605469 C21.020999908447266,-259.2179870605469 -186.85299682617188,-259.2179870605469 -186.85299682617188,-259.2179870605469z"></path><path stroke-linecap="butt" stroke-linejoin="miter" fill-opacity="0" stroke-miterlimit="10" stroke="rgb(32,40,112)" stroke-opacity="1" stroke-width="2" d=" M-186.85299682617188,-259.2179870605469 C-186.85299682617188,-259.2179870605469 -186.85299682617188,-410.56500244140625 -186.85299682617188,-410.56500244140625 C-186.85299682617188,-410.56500244140625 -71.052001953125,-410.56500244140625 -71.052001953125,-410.56500244140625 C-71.052001953125,-410.56500244140625 -129.94700622558594,-331.1090087890625 -112.6989974975586,-311.79400634765625 C-93.74099731445312,-290.5639953613281 -22.881000518798828,-364.3710021972656 33.78499984741211,-364.3710021972656 C112.49700164794922,-364.3710021972656 21.020999908447266,-259.2179870605469 21.020999908447266,-259.2179870605469 C21.020999908447266,-259.2179870605469 -186.85299682617188,-259.2179870605469 -186.85299682617188,-259.2179870605469z"></path></g><g opacity="1" transform="matrix(1,0,0,1,0,0)"><path stroke-linecap="round" stroke-linejoin="round" fill-opacity="0" stroke="rgb(32,40,112)" stroke-opacity="1" stroke-width="1.056" d=" M-57.99599838256836,-211.96499633789062 C-57.99599838256836,-211.96499633789062 21.020999908447266,-211.96499633789062 21.020999908447266,-211.96499633789062"></path></g><g opacity="1" transform="matrix(1,0,0,1,0,0)"><path stroke-linecap="round" stroke-linejoin="round" fill-opacity="0" stroke="rgb(32,40,112)" stroke-opacity="1" stroke-width="1.65" d=" M-116.34600067138672,-164.70700073242188 C-116.34600067138672,-164.70700073242188 70.86199951171875,-164.70700073242188 70.86199951171875,-164.70700073242188"></path></g><g opacity="1" transform="matrix(1,0,0,1,0,0)"><path fill="rgb(32,40,112)" fill-opacity="1" d=" M-5.61899995803833,-259.2179870605469 C-5.61899995803833,-244.30599975585938 -17.707000732421875,-232.21800231933594 -32.61899948120117,-232.21800231933594 C-47.53099822998047,-232.21800231933594 -59.61899948120117,-244.30599975585938 -59.61899948120117,-259.2179870605469 C-59.61899948120117,-274.1300048828125 -47.53099822998047,-286.2179870605469 -32.61899948120117,-286.2179870605469 C-17.707000732421875,-286.2179870605469 -5.61899995803833,-274.1300048828125 -5.61899995803833,-259.2179870605469z"></path><path stroke-linecap="butt" stroke-linejoin="miter" fill-opacity="0" stroke-miterlimit="10" stroke="rgb(32,40,112)" stroke-opacity="1" stroke-width="1" d=" M-5.61899995803833,-259.2179870605469 C-5.61899995803833,-244.30599975585938 -17.707000732421875,-232.21800231933594 -32.61899948120117,-232.21800231933594 C-47.53099822998047,-232.21800231933594 -59.61899948120117,-244.30599975585938 -59.61899948120117,-259.2179870605469 C-59.61899948120117,-274.1300048828125 -47.53099822998047,-286.2179870605469 -32.61899948120117,-286.2179870605469 C-17.707000732421875,-286.2179870605469 -5.61899995803833,-274.1300048828125 -5.61899995803833,-259.2179870605469z"></path></g></g><g transform="matrix(1,0,0,1,800,800.0000610351562)" opacity="1" style="display: block;"><g opacity="1" transform="matrix(1,0,0,1,0,0)"><path stroke-linecap="round" stroke-linejoin="round" fill-opacity="0" stroke="rgb(32,40,112)" stroke-opacity="1" stroke-width="1.831" d=" M-237.6060028076172,-94.19499969482422 C-237.6060028076172,-94.19499969482422 -553.9749755859375,-94.19499969482422 -553.9749755859375,-94.19499969482422 C-553.9749755859375,-94.19499969482422 -553.9749755859375,-410.56500244140625 -553.9749755859375,-410.56500244140625 C-553.9749755859375,-410.56500244140625 -237.6060028076172,-410.56500244140625 -237.6060028076172,-410.56500244140625 C-237.6060028076172,-410.56500244140625 -237.6060028076172,-94.19499969482422 -237.6060028076172,-94.19499969482422z"></path></g><g opacity="1" transform="matrix(1,0,0,1,0,0)"><path fill="rgb(132,132,250)" fill-opacity="1" d=" M-237.6060028076172,-94.19499969482422 C-237.6060028076172,-94.19499969482422 -553.9749755859375,-94.19499969482422 -553.9749755859375,-94.19499969482422 C-553.9749755859375,-94.19499969482422 -553.9749755859375,-259.2179870605469 -553.9749755859375,-259.2179870605469 C-553.9749755859375,-259.2179870605469 -237.6060028076172,-259.2179870605469 -237.6060028076172,-259.2179870605469 C-237.6060028076172,-259.2179870605469 -237.6060028076172,-94.19499969482422 -237.6060028076172,-94.19499969482422z"></path><path stroke-linecap="round" stroke-linejoin="round" fill-opacity="0" stroke="rgb(32,40,112)" stroke-opacity="1" stroke-width="2.09" d=" M-237.6060028076172,-94.19499969482422 C-237.6060028076172,-94.19499969482422 -553.9749755859375,-94.19499969482422 -553.9749755859375,-94.19499969482422 C-553.9749755859375,-94.19499969482422 -553.9749755859375,-259.2179870605469 -553.9749755859375,-259.2179870605469 C-553.9749755859375,-259.2179870605469 -237.6060028076172,-259.2179870605469 -237.6060028076172,-259.2179870605469 C-237.6060028076172,-259.2179870605469 -237.6060028076172,-94.19499969482422 -237.6060028076172,-94.19499969482422z"></path></g><g opacity="1" transform="matrix(1,0,0,1,0,0)"><path stroke-linecap="round" stroke-linejoin="round" fill-opacity="0" stroke="rgb(32,40,112)" stroke-opacity="1" stroke-width="1.267" d=" M-237.6060028076172,-259.2179870605469 C-237.6060028076172,-259.2179870605469 -553.9749755859375,-259.2179870605469 -553.9749755859375,-259.2179870605469 C-553.9749755859375,-259.2179870605469 -553.9749755859375,-410.56500244140625 -553.9749755859375,-410.56500244140625 C-553.9749755859375,-410.56500244140625 -237.6060028076172,-410.56500244140625 -237.6060028076172,-410.56500244140625 C-237.6060028076172,-410.56500244140625 -237.6060028076172,-259.2179870605469 -237.6060028076172,-259.2179870605469z"></path></g><g opacity="1" transform="matrix(1,0,0,1,0,0)"><path fill="rgb(249,74,130)" fill-opacity="1" d=" M-237.6060028076172,-259.2179870605469 C-237.6060028076172,-259.2179870605469 -553.9749755859375,-259.2179870605469 -553.9749755859375,-259.2179870605469 C-553.9749755859375,-259.2179870605469 -553.9749755859375,-326.0780029296875 -553.9749755859375,-326.0780029296875 C-553.9749755859375,-326.0780029296875 -516.8989868164062,-364.2799987792969 -471.0090026855469,-364.2799987792969 C-418.4010009765625,-364.2799987792969 -376.489013671875,-319.4830017089844 -313.8840026855469,-315.83599853515625 C-271.8349914550781,-313.3869934082031 -237.6060028076172,-341.27301025390625 -237.6060028076172,-341.27301025390625 C-237.6060028076172,-341.27301025390625 -237.6060028076172,-259.2179870605469 -237.6060028076172,-259.2179870605469z"></path><path stroke-linecap="butt" stroke-linejoin="miter" fill-opacity="0" stroke-miterlimit="10" stroke="rgb(32,40,112)" stroke-opacity="1" stroke-width="2" d=" M-237.6060028076172,-259.2179870605469 C-237.6060028076172,-259.2179870605469 -553.9749755859375,-259.2179870605469 -553.9749755859375,-259.2179870605469 C-553.9749755859375,-259.2179870605469 -553.9749755859375,-326.0780029296875 -553.9749755859375,-326.0780029296875 C-553.9749755859375,-326.0780029296875 -516.8989868164062,-364.2799987792969 -471.0090026855469,-364.2799987792969 C-418.4010009765625,-364.2799987792969 -376.489013671875,-319.4830017089844 -313.8840026855469,-315.83599853515625 C-271.8349914550781,-313.3869934082031 -237.6060028076172,-341.27301025390625 -237.6060028076172,-341.27301025390625 C-237.6060028076172,-341.27301025390625 -237.6060028076172,-259.2179870605469 -237.6060028076172,-259.2179870605469z"></path></g><g opacity="1" transform="matrix(1,0,0,1,0,0)"><path fill="rgb(255,255,255)" fill-opacity="1" d=" M-366.6300048828125,-259.2179870605469 C-366.6300048828125,-243.11300659179688 -379.68499755859375,-230.05799865722656 -395.7900085449219,-230.05799865722656 C-411.8949890136719,-230.05799865722656 -424.95001220703125,-243.11300659179688 -424.95001220703125,-259.2179870605469 C-424.95001220703125,-275.322998046875 -411.8949890136719,-288.37799072265625 -395.7900085449219,-288.37799072265625 C-379.68499755859375,-288.37799072265625 -366.6300048828125,-275.322998046875 -366.6300048828125,-259.2179870605469z"></path><path stroke-linecap="round" stroke-linejoin="round" fill-opacity="0" stroke="rgb(32,40,112)" stroke-opacity="1" stroke-width="1.899" d=" M-366.6300048828125,-259.2179870605469 C-366.6300048828125,-243.11300659179688 -379.68499755859375,-230.05799865722656 -395.7900085449219,-230.05799865722656 C-411.8949890136719,-230.05799865722656 -424.95001220703125,-243.11300659179688 -424.95001220703125,-259.2179870605469 C-424.95001220703125,-275.322998046875 -411.8949890136719,-288.37799072265625 -395.7900085449219,-288.37799072265625 C-379.68499755859375,-288.37799072265625 -366.6300048828125,-275.322998046875 -366.6300048828125,-259.2179870605469z"></path></g><g opacity="1" transform="matrix(1,0,0,1,0,0)"><path stroke-linecap="round" stroke-linejoin="round" fill-opacity="0" stroke="rgb(32,40,112)" stroke-opacity="1" stroke-width="1.056" d=" M-477.3900146484375,-223.96499633789062 C-477.3900146484375,-223.96499633789062 -439.7049865722656,-223.96499633789062 -439.7049865722656,-223.96499633789062"></path></g><g opacity="1" transform="matrix(1,0,0,1,0,0)"><path stroke-linecap="round" stroke-linejoin="round" fill-opacity="0" stroke="rgb(32,40,112)" stroke-opacity="1" stroke-width="1.056" d=" M-425.1180114746094,-223.96499633789062 C-425.1180114746094,-223.96499633789062 -346.10101318359375,-223.96499633789062 -346.10101318359375,-223.96499633789062"></path></g><g opacity="1" transform="matrix(1,0,0,1,0,0)"><path stroke-linecap="round" stroke-linejoin="round" fill-opacity="0" stroke="rgb(32,40,112)" stroke-opacity="1" stroke-width="1.65" d=" M-483.4679870605469,-176.70700073242188 C-483.4679870605469,-176.70700073242188 -296.260009765625,-176.70700073242188 -296.260009765625,-176.70700073242188"></path></g><g opacity="1" transform="matrix(1,0,0,1,0,0)"><path stroke-linecap="round" stroke-linejoin="round" fill-opacity="0" stroke="rgb(32,40,112)" stroke-opacity="1" stroke-width="1.65" d=" M-422.0790100097656,-156.4969940185547 C-422.0790100097656,-156.4969940185547 -357.6499938964844,-156.4969940185547 -357.6499938964844,-156.4969940185547"></path></g><g opacity="1" transform="matrix(1,0,0,1,0,0)"><path fill="rgb(249,74,130)" fill-opacity="1" d=" M-321.9909973144531,-223.96499633789062 C-321.9909973144531,-220.83200073242188 -324.531005859375,-218.29200744628906 -327.66400146484375,-218.29200744628906 C-330.7969970703125,-218.29200744628906 -333.3370056152344,-220.83200073242188 -333.3370056152344,-223.96499633789062 C-333.3370056152344,-227.09800720214844 -330.7969970703125,-229.63800048828125 -327.66400146484375,-229.63800048828125 C-324.531005859375,-229.63800048828125 -321.9909973144531,-227.09800720214844 -321.9909973144531,-223.96499633789062z"></path><path stroke-linecap="butt" stroke-linejoin="miter" fill-opacity="0" stroke-miterlimit="10" stroke="rgb(32,40,112)" stroke-opacity="1" stroke-width="2" d=" M-321.9909973144531,-223.96499633789062 C-321.9909973144531,-220.83200073242188 -324.531005859375,-218.29200744628906 -327.66400146484375,-218.29200744628906 C-330.7969970703125,-218.29200744628906 -333.3370056152344,-220.83200073242188 -333.3370056152344,-223.96499633789062 C-333.3370056152344,-227.09800720214844 -330.7969970703125,-229.63800048828125 -327.66400146484375,-229.63800048828125 C-324.531005859375,-229.63800048828125 -321.9909973144531,-227.09800720214844 -321.9909973144531,-223.96499633789062z"></path></g></g></g></g></g></svg>