<svg width="1600" height="1600" viewBox="0 0 1600 1600" fill="none" xmlns="http://www.w3.org/2000/svg">
<g clip-path="url(#clip0_25_44826)">
<mask id="mask0_25_44826" style="mask-type:luminance" maskUnits="userSpaceOnUse" x="0" y="0" width="1600" height="1600">
<path d="M1600 0H0V1600H1600V0Z" fill="white"/>
</mask>
<g mask="url(#mask0_25_44826)">
<mask id="mask1_25_44826" style="mask-type:luminance" maskUnits="userSpaceOnUse" x="0" y="0" width="1600" height="1600">
<path d="M0 0H1600V1600H0V0Z" fill="white"/>
</mask>
<g mask="url(#mask1_25_44826)">
<path d="M1244.41 882.361C1244.41 888.323 1239.58 893.157 1233.62 893.157C1227.66 893.157 1222.82 888.323 1222.82 882.361C1222.82 876.399 1227.66 871.565 1233.62 871.565C1239.58 871.565 1244.41 876.399 1244.41 882.361Z" fill="#8869D5"/>
<path d="M1244.41 882.361C1244.41 888.323 1239.58 893.157 1233.62 893.157C1227.66 893.157 1222.82 888.323 1222.82 882.361C1222.82 876.399 1227.66 871.565 1233.62 871.565C1239.58 871.565 1244.41 876.399 1244.41 882.361Z" stroke="#0626A9" stroke-width="2" stroke-linecap="round" stroke-linejoin="round"/>
<path d="M270.371 978.213C270.371 984.977 264.888 990.46 258.124 990.46C251.36 990.46 245.877 984.977 245.877 978.213C245.877 971.449 251.36 965.966 258.124 965.966C264.888 965.966 270.371 971.449 270.371 978.213Z" fill="#8869D5"/>
<path d="M270.371 978.213C270.371 984.977 264.888 990.46 258.124 990.46C251.36 990.46 245.877 984.977 245.877 978.213C245.877 971.449 251.36 965.966 258.124 965.966C264.888 965.966 270.371 971.449 270.371 978.213Z" stroke="#0626A9" stroke-width="2" stroke-linecap="round" stroke-linejoin="round"/>
<path d="M798.272 759.316C798.272 764.342 794.197 768.417 789.171 768.417C784.145 768.417 780.07 764.342 780.07 759.316C780.07 754.29 784.145 750.215 789.171 750.215C794.197 750.215 798.272 754.29 798.272 759.316Z" fill="white"/>
<path d="M798.272 759.316C798.272 764.342 794.197 768.417 789.171 768.417C784.145 768.417 780.07 764.342 780.07 759.316C780.07 754.29 784.145 750.215 789.171 750.215C794.197 750.215 798.272 754.29 798.272 759.316Z" stroke="#0626A9" stroke-width="2" stroke-linecap="round" stroke-linejoin="round"/>
<path d="M437.189 688.357C437.189 693.383 433.114 697.458 428.088 697.458C423.062 697.458 418.987 693.383 418.987 688.357C418.987 683.331 423.062 679.256 428.088 679.256C433.114 679.256 437.189 683.331 437.189 688.357Z" fill="white"/>
<path d="M437.189 688.357C437.189 693.383 433.114 697.458 428.088 697.458C423.062 697.458 418.987 693.383 418.987 688.357C418.987 683.331 423.062 679.256 428.088 679.256C433.114 679.256 437.189 683.331 437.189 688.357Z" stroke="#0626A9" stroke-width="2" stroke-linecap="round" stroke-linejoin="round"/>
<path d="M1082.18 525.354C1082.18 532.585 1076.32 538.446 1069.09 538.446C1061.86 538.446 1056 532.585 1056 525.354C1056 518.123 1061.86 512.262 1069.09 512.262C1076.32 512.262 1082.18 518.123 1082.18 525.354Z" fill="#84AAE4"/>
<path d="M1082.18 525.354C1082.18 532.585 1076.32 538.446 1069.09 538.446C1061.86 538.446 1056 532.585 1056 525.354C1056 518.123 1061.86 512.262 1069.09 512.262C1076.32 512.262 1082.18 518.123 1082.18 525.354Z" stroke="#0626A9" stroke-width="2" stroke-linecap="round" stroke-linejoin="round"/>
<path d="M916.079 355.399C916.079 359.737 912.562 363.254 908.224 363.254C903.886 363.254 900.369 359.737 900.369 355.399C900.369 351.061 903.886 347.544 908.224 347.544C912.562 347.544 916.079 351.061 916.079 355.399Z" fill="#0626A9"/>
<path d="M916.079 355.399C916.079 359.737 912.562 363.254 908.224 363.254C903.886 363.254 900.369 359.737 900.369 355.399C900.369 351.061 903.886 347.544 908.224 347.544C912.562 347.544 916.079 351.061 916.079 355.399Z" stroke="#0626A9" stroke-width="2" stroke-linecap="round" stroke-linejoin="round"/>
</g>
<mask id="mask2_25_44826" style="mask-type:luminance" maskUnits="userSpaceOnUse" x="0" y="0" width="1600" height="1600">
<path d="M0 0H1600V1600H0V0Z" fill="white"/>
</mask>
<g mask="url(#mask2_25_44826)">
<path d="M463.638 577.855L243.978 591.44L225.832 298.037L445.492 284.452L463.638 577.855Z" fill="white"/>
<path d="M463.638 577.855L243.978 591.44L225.832 298.037L445.492 284.452L463.638 577.855Z" stroke="#0626A9" stroke-width="2" stroke-linecap="round" stroke-linejoin="round"/>
<path d="M259.097 510.337C259.097 510.337 270.417 509.637 286.556 508.639" stroke="#0626A9" stroke-width="2" stroke-linecap="round" stroke-linejoin="round"/>
<path d="M398.371 458.162L256.251 466.952L253.352 420.064L395.471 411.274L398.371 458.162Z" fill="#84AAE4"/>
<path d="M398.371 458.162L256.251 466.952L253.352 420.064L395.471 411.274L398.371 458.162Z" stroke="#0626A9" stroke-width="2" stroke-linecap="round" stroke-linejoin="round"/>
<path d="M250.829 376.66L317.422 372.541" stroke="#0626A9" stroke-width="2" stroke-linecap="round" stroke-linejoin="round"/>
<path d="M501.193 281.007C503.095 311.769 479.7 338.248 448.938 340.151C418.176 342.054 391.696 318.658 389.793 287.896C387.891 257.134 411.286 230.654 442.048 228.752C472.81 226.849 499.29 250.244 501.193 281.007Z" fill="#8869D5"/>
<path d="M501.193 281.007C503.095 311.769 479.7 338.248 448.938 340.151C418.176 342.054 391.696 318.658 389.793 287.896C387.891 257.134 411.286 230.654 442.048 228.752C472.81 226.849 499.29 250.244 501.193 281.007Z" stroke="#0626A9" stroke-width="2" stroke-linecap="round" stroke-linejoin="round"/>
</g>
<path d="M776.096 527.98V587.466H690.892L670.784 609.734V527.98H776.096Z" fill="#84AAE4"/>
<path d="M776.096 527.98V587.466H690.892L670.784 609.734V527.98H776.096Z" stroke="#0626A9" stroke-width="2" stroke-linecap="round" stroke-linejoin="round"/>
<path d="M757.417 557.723C757.417 557.723 708.25 557.812 708.25 557.723C703.25 557.75 697.812 557.75 692.75 557.723C692.75 557.687 692.633 557.723 692.633 557.723" stroke="#0626A9" stroke-width="2" stroke-linecap="round" stroke-linejoin="round"/>
<path d="M808.472 585.98V645.466H893.676L913.784 667.734V585.98H808.472Z" fill="white"/>
<path d="M808.472 585.98V645.466H893.676L913.784 667.734V585.98H808.472Z" stroke="#0626A9" stroke-width="2" stroke-linecap="round" stroke-linejoin="round"/>
<path d="M827.152 615.723C827.152 615.723 853.194 615.812 853.194 615.723C855.569 606.687 866.506 606.75 868.694 615.723C868.694 615.687 891.936 615.723 891.936 615.723" stroke="#0626A9" stroke-width="2" stroke-linecap="round" stroke-linejoin="round"/>
<mask id="mask3_25_44826" style="mask-type:luminance" maskUnits="userSpaceOnUse" x="0" y="0" width="1600" height="1600">
<path d="M0 0H1600V1600H0V0Z" fill="white"/>
</mask>
<g mask="url(#mask3_25_44826)">
<path d="M1156.45 794.976L1479.28 798.267L1481.37 593.199L1158.54 589.909L1156.45 794.976Z" fill="white"/>
<path d="M1156.45 794.976L1479.28 798.267L1481.37 593.199L1158.54 589.909L1156.45 794.976Z" stroke="#0626A9" stroke-width="2" stroke-linecap="round" stroke-linejoin="round"/>
<path d="M1158.54 589.91L1481.37 593.2L1481.79 551.942L1158.96 548.652L1158.54 589.91Z" fill="#0626A9"/>
<path d="M1463.29 572.385C1463.23 577.682 1458.9 581.932 1453.6 581.878C1448.3 581.824 1444.05 577.486 1444.11 572.189C1444.16 566.893 1448.5 562.643 1453.79 562.697C1459.09 562.751 1463.34 567.088 1463.29 572.385Z" fill="white"/>
<path d="M1463.29 572.385C1463.23 577.682 1458.9 581.932 1453.6 581.878C1448.3 581.824 1444.05 577.486 1444.11 572.189C1444.16 566.893 1448.5 562.643 1453.79 562.697C1459.09 562.751 1463.34 567.088 1463.29 572.385Z" stroke="#0626A9" stroke-width="2" stroke-linecap="round" stroke-linejoin="round"/>
<path d="M1421.19 571.956C1421.13 577.252 1416.8 581.502 1411.5 581.448C1406.2 581.394 1401.95 577.057 1402.01 571.76C1402.06 566.463 1406.4 562.213 1411.69 562.267C1416.99 562.321 1421.24 566.659 1421.19 571.956Z" fill="white"/>
<path d="M1421.19 571.956C1421.13 577.252 1416.8 581.502 1411.5 581.448C1406.2 581.394 1401.95 577.057 1402.01 571.76C1402.06 566.463 1406.4 562.213 1411.69 562.267C1416.99 562.321 1421.24 566.659 1421.19 571.956Z" stroke="#0626A9" stroke-width="2" stroke-linecap="round" stroke-linejoin="round"/>
<path d="M1379.09 571.527C1379.03 576.823 1374.7 581.073 1369.4 581.019C1364.1 580.965 1359.85 576.628 1359.91 571.331C1359.96 566.034 1364.3 561.784 1369.59 561.838C1374.89 561.892 1379.14 566.23 1379.09 571.527Z" fill="white"/>
<path d="M1379.09 571.527C1379.03 576.823 1374.7 581.073 1369.4 581.019C1364.1 580.965 1359.85 576.628 1359.91 571.331C1359.96 566.034 1364.3 561.784 1369.59 561.838C1374.89 561.892 1379.14 566.23 1379.09 571.527Z" stroke="#0626A9" stroke-width="2" stroke-linecap="round" stroke-linejoin="round"/>
<g clip-path="url(#clip1_25_44826)">
<mask id="mask4_25_44826" style="mask-type:luminance" maskUnits="userSpaceOnUse" x="1235" y="609" width="168" height="171">
<path d="M1402.93 609.85L1235.07 609.85L1235.07 779.15L1402.93 779.15L1402.93 609.85Z" fill="white"/>
</mask>
<g mask="url(#mask4_25_44826)">
<mask id="mask5_25_44826" style="mask-type:luminance" maskUnits="userSpaceOnUse" x="1235" y="610" width="367" height="377">
<path d="M1601.66 610.638L1235.86 610.638L1235.86 986.549L1601.66 986.549L1601.66 610.638Z" fill="white"/>
</mask>
<g mask="url(#mask5_25_44826)">
<path d="M1400.86 776.292L1235.86 776.292L1235.86 610.638L1400.86 610.638L1400.86 776.292Z" fill="#84AAE4"/>
<path d="M1400.86 776.292L1235.86 776.292L1235.86 610.638L1400.86 610.638L1400.86 776.292Z" stroke="#0626A9" stroke-width="2" stroke-linecap="round" stroke-linejoin="round"/>
<path d="M1391.1 724.029L1245.62 724.029L1245.62 620.436L1391.1 620.436L1391.1 724.029Z" fill="white"/>
<path d="M1391.1 724.029L1245.62 724.029L1245.62 620.436L1391.1 620.436L1391.1 724.029Z" stroke="#0626A9" stroke-width="2" stroke-linecap="round" stroke-linejoin="round"/>
<mask id="mask6_25_44826" style="mask-type:alpha" maskUnits="userSpaceOnUse" x="1244" y="619" width="149" height="107">
<path d="M1391.1 724.029L1245.62 724.029L1245.62 620.436L1391.1 620.436L1391.1 724.029Z" fill="white"/>
<path d="M1391.1 724.029L1245.62 724.029L1245.62 620.436L1391.1 620.436L1391.1 724.029Z" stroke="#202870" stroke-width="2" stroke-linecap="round" stroke-linejoin="round"/>
</mask>
<g mask="url(#mask6_25_44826)">
<path d="M1536.58 672.427L1536.58 724.028L1245.62 724.028L1245.62 672.427C1255.86 667.482 1267.04 668.207 1278.69 669.396C1286.2 670.167 1293.63 672.317 1300.59 675.223C1307.49 678.097 1313.74 682.247 1320.67 685.05C1333.9 690.412 1347.98 690.137 1361.3 685.207C1371.45 681.451 1381.2 676.774 1391.1 672.427C1401.35 667.482 1412.52 668.207 1424.17 669.396C1431.68 670.167 1439.11 672.317 1446.08 675.223C1452.97 678.097 1459.22 682.247 1466.15 685.05C1479.38 690.412 1493.46 690.137 1506.79 685.207C1516.93 681.451 1526.69 676.774 1536.58 672.427Z" fill="#8869D5"/>
<path d="M1536.58 672.427L1536.58 724.028L1245.62 724.028L1245.62 672.427C1255.86 667.482 1267.04 668.207 1278.69 669.396C1286.2 670.167 1293.63 672.317 1300.59 675.223C1307.49 678.097 1313.74 682.247 1320.67 685.05C1333.9 690.412 1347.98 690.137 1361.3 685.207C1371.45 681.451 1381.2 676.774 1391.1 672.427C1401.35 667.482 1412.52 668.207 1424.17 669.396C1431.68 670.167 1439.11 672.317 1446.08 675.223C1452.97 678.097 1459.22 682.247 1466.15 685.05C1479.38 690.412 1493.46 690.137 1506.79 685.207C1516.93 681.451 1526.69 676.774 1536.58 672.427Z" stroke="#0626A9" stroke-width="2" stroke-linecap="round" stroke-linejoin="round"/>
</g>
<path d="M1391.1 724.029L1245.62 724.029L1245.62 620.436L1391.1 620.436L1391.1 724.029Z" stroke="#0626A9" stroke-width="2" stroke-linecap="round" stroke-linejoin="round"/>
<path d="M1270.48 750.16C1270.48 757.054 1264.92 762.643 1258.05 762.643C1251.18 762.643 1245.62 757.054 1245.62 750.16C1245.62 743.266 1251.18 737.678 1258.05 737.678C1264.92 737.678 1270.48 743.266 1270.48 750.16Z" fill="white"/>
<path d="M1270.48 750.16C1270.48 757.054 1264.92 762.643 1258.05 762.643C1251.18 762.643 1245.62 757.054 1245.62 750.16C1245.62 743.266 1251.18 737.678 1258.05 737.678C1264.92 737.678 1270.48 743.266 1270.48 750.16Z" stroke="#0626A9" stroke-width="2" stroke-linecap="round" stroke-linejoin="round"/>
<path d="M1280.01 750.16L1345.09 750.16" stroke="#0626A9" stroke-width="2" stroke-linecap="round" stroke-linejoin="round"/>
</g>
</g>
</g>
</g>
<path d="M768.321 1180.26H1037.22L1062.63 993.647C1063.18 989.592 1060.34 986.305 1056.28 986.305H802.065C798.01 986.305 794.276 989.592 793.724 993.647L768.321 1180.26Z" fill="#0626A9"/>
<path d="M783.02 1176.97H1047.36L1072.33 993.523C1072.88 989.537 1070.08 986.305 1066.1 986.305H816.192C812.206 986.305 808.536 989.537 807.993 993.523L783.02 1176.97Z" fill="white"/>
<path d="M783.02 1176.97H1047.36L1072.33 993.523C1072.88 989.537 1070.08 986.305 1066.1 986.305H816.192C812.206 986.305 808.536 989.537 807.993 993.523L783.02 1176.97Z" stroke="#0626A9" stroke-width="2" stroke-linecap="round" stroke-linejoin="round"/>
<path d="M915.814 1084.93C914.92 1091.5 919.521 1096.82 926.091 1096.82C932.661 1096.82 938.712 1091.5 939.606 1084.93C940.5 1078.36 935.899 1073.03 929.329 1073.03C922.759 1073.03 916.708 1078.36 915.814 1084.93Z" fill="#0626A9"/>
<path d="M647.403 1188.51H1029.78C1039.95 1188.51 1048.18 1180.27 1048.18 1170.1H629C629 1180.27 637.239 1188.51 647.403 1188.51Z" fill="#0626A9"/>
<path d="M1512.56 1272.46H87.4414V1189.3H1512.56V1272.46Z" fill="white"/>
<path d="M1512.56 1272.46H87.4414V1189.3H1512.56V1272.46Z" stroke="#0626A9" stroke-width="2" stroke-linecap="round" stroke-linejoin="round"/>
</g>
<path d="M445.5 318.417C463.679 318.417 478.416 303.679 478.416 285.5C478.416 267.321 463.679 252.583 445.5 252.583C427.32 252.583 412.583 267.321 412.583 285.5C412.583 303.679 427.32 318.417 445.5 318.417Z" stroke="white" stroke-width="2" stroke-linecap="round" stroke-linejoin="round"/>
<path d="M445.5 252.583C437.047 261.458 432.333 273.244 432.333 285.5C432.333 297.756 437.047 309.542 445.5 318.417C453.952 309.542 458.666 297.756 458.666 285.5C458.666 273.244 453.952 261.458 445.5 252.583Z" stroke="white" stroke-width="2" stroke-linecap="round" stroke-linejoin="round"/>
<path d="M412.583 285.5H478.416" stroke="white" stroke-width="2" stroke-linecap="round" stroke-linejoin="round"/>
</g>
<defs>
<clipPath id="clip0_25_44826">
<rect width="1600" height="1600" fill="white"/>
</clipPath>
<clipPath id="clip1_25_44826">
<rect width="167.853" height="169.3" fill="white" transform="translate(1235.07 609.85)"/>
</clipPath>
</defs>
</svg>
