<svg width="1600" height="1600" viewBox="0 0 1600 1600" fill="none" xmlns="http://www.w3.org/2000/svg">
<g clip-path="url(#clip0_25_45452)">
<mask id="mask0_25_45452" style="mask-type:luminance" maskUnits="userSpaceOnUse" x="0" y="0" width="1600" height="1600">
<path d="M1600 0H0V1600H1600V0Z" fill="white"/>
</mask>
<g mask="url(#mask0_25_45452)">
<path d="M1260.43 576.89H353.769C334.991 576.89 319.769 592.112 319.769 610.89V1170.07H1294.43V610.89C1294.43 592.112 1279.21 576.89 1260.43 576.89Z" fill="#84AAE4"/>
<path d="M1260.43 576.89H353.769C334.991 576.89 319.769 592.112 319.769 610.89V1170.07H1294.43V610.89C1294.43 592.112 1279.21 576.89 1260.43 576.89Z" stroke="#0626A9" stroke-width="2" stroke-miterlimit="10"/>
<path d="M1268.59 1144.3H347.769V610.225H1268.59V1144.3Z" fill="white"/>
<path d="M1268.59 1144.3H347.769V610.225H1268.59V1144.3Z" stroke="#0626A9" stroke-width="2" stroke-linecap="round" stroke-linejoin="round"/>
<path d="M1358.77 1220.45H260.658C232.185 1220.45 209.103 1197.36 209.103 1168.89H1410.32C1410.32 1197.36 1387.24 1220.45 1358.77 1220.45Z" fill="#84AAE4"/>
<path d="M1358.77 1220.45H260.658C232.185 1220.45 209.103 1197.36 209.103 1168.89H1410.32C1410.32 1197.36 1387.24 1220.45 1358.77 1220.45Z" stroke="#0626A9" stroke-width="2" stroke-miterlimit="10"/>
<path d="M860.658 1194.67H693.546C679.309 1194.67 667.769 1183.13 667.769 1168.89H886.435C886.435 1183.13 874.895 1194.67 860.658 1194.67Z" fill="#0626A9"/>
<mask id="mask1_25_45452" style="mask-type:luminance" maskUnits="userSpaceOnUse" x="0" y="0" width="1600" height="1600">
<path d="M0 0H1600V1600H0V0Z" fill="white"/>
</mask>
<g mask="url(#mask1_25_45452)">
<path d="M319.488 794.44L320.73 831.753L488.356 804.381L486.086 736.197" fill="#0626A9"/>
<path d="M259.5 665V494H495.5L562.5 548.5" stroke="#0626A9" stroke-width="2" stroke-dasharray="71 34"/>
<path d="M514.259 794.357L195.769 804.961L190.696 652.602L509.186 641.997L514.259 794.357Z" fill="#84AAE4"/>
<path d="M514.259 794.357L195.769 804.961L190.696 652.602L509.186 641.997L514.259 794.357Z" stroke="#0626A9" stroke-width="2" stroke-miterlimit="10"/>
<path d="M225.481 735.712L304.549 733.079L324.062 771.562L366.679 675.869L382.061 737.169L410.045 736.237L417.923 719.077L433.113 761.261L457.28 685.749L485.67 723.714" stroke="#0626A9" stroke-width="2" stroke-linecap="round" stroke-linejoin="round"/>
</g>
<mask id="mask2_25_45452" style="mask-type:alpha" maskUnits="userSpaceOnUse" x="189" y="493" width="375" height="339">
<mask id="mask3_25_45452" style="mask-type:luminance" maskUnits="userSpaceOnUse" x="0" y="0" width="1600" height="1600">
<path d="M0 0H1600V1600H0V0Z" fill="white"/>
</mask>
<g mask="url(#mask3_25_45452)">
<path d="M319.488 794.44L320.73 831.753L488.356 804.381L486.086 736.197" fill="#202870"/>
<path d="M259.5 665V494H495.5L562.5 548.5" stroke="#202870" stroke-width="2" stroke-dasharray="71 34"/>
<path d="M514.259 794.357L195.769 804.961L190.696 652.602L509.186 641.997L514.259 794.357Z" fill="#8484FA"/>
<path d="M514.259 794.357L195.769 804.961L190.696 652.602L509.186 641.997L514.259 794.357Z" stroke="#202870" stroke-width="2" stroke-miterlimit="10"/>
<path d="M225.481 735.712L304.549 733.079L324.062 771.562L366.679 675.869L382.061 737.169L410.045 736.237L417.923 719.077L433.113 761.261L457.28 685.749L485.67 723.714" stroke="#202870" stroke-width="2" stroke-linecap="round" stroke-linejoin="round"/>
</g>
</mask>
<g mask="url(#mask2_25_45452)">
<path d="M468.485 847.129C462.5 823.488 462.09 790.802 462.09 783.809C462.09 601.295 610.046 453.339 792.56 453.339C975.074 453.339 1123.03 601.295 1123.03 783.809L527.028 792.002L499.948 840.727L468.485 847.129Z" fill="#0626A9"/>
</g>
<mask id="mask4_25_45452" style="mask-type:luminance" maskUnits="userSpaceOnUse" x="0" y="0" width="1600" height="1600">
<path d="M0 0H1600V1600H0V0Z" fill="white"/>
</mask>
<g mask="url(#mask4_25_45452)">
<path d="M279.092 877.955V1048.96L483.092 1048.91L555.717 979.285" stroke="#0626A9" stroke-width="2" stroke-dasharray="71 34"/>
<path d="M319.554 944.674L320.207 997.836L441.797 961.446" fill="#0626A9"/>
<path d="M441.797 961.447L155.545 964.964L154.058 843.922L440.31 840.404L441.797 961.447Z" fill="#84AAE4"/>
<path d="M441.797 961.447L155.545 964.964L154.058 843.922L440.31 840.404L441.797 961.447Z" stroke="#0626A9" stroke-width="2" stroke-miterlimit="10"/>
<path d="M401.674 887.593L273.424 889.169" stroke="#0626A9" stroke-width="2" stroke-linecap="round" stroke-linejoin="round" stroke-dasharray="116 10"/>
<path d="M360.832 915.726L273.765 916.796" stroke="#0626A9" stroke-width="2" stroke-linecap="round" stroke-linejoin="round" stroke-dasharray="65 10"/>
<path d="M257.859 903.177C258.111 923.733 241.651 940.603 221.095 940.855C200.538 941.108 183.669 924.648 183.416 904.091C183.164 883.535 199.624 866.665 220.18 866.413C240.737 866.16 257.606 882.62 257.859 903.177Z" fill="white"/>
<path d="M257.859 903.177C258.111 923.733 241.651 940.603 221.095 940.855C200.538 941.108 183.669 924.648 183.416 904.091C183.164 883.535 199.624 866.665 220.18 866.413C240.737 866.16 257.606 882.62 257.859 903.177Z" stroke="#0626A9" stroke-width="2" stroke-miterlimit="10"/>
</g>
<mask id="mask5_25_45452" style="mask-type:luminance" maskUnits="userSpaceOnUse" x="0" y="0" width="1600" height="1600">
<path d="M0 0H1600V1600H0V0Z" fill="white"/>
</mask>
<g mask="url(#mask5_25_45452)">
<path d="M1211.18 682.069L1294.44 758.373V707.78" fill="#0626A9"/>
<path d="M1282.34 612.205V441.205L1116.37 441.229L1024.4 517.5" stroke="#0626A9" stroke-width="2" stroke-dasharray="71 34"/>
<path d="M1388.88 609.78C1388.88 666.972 1342.52 713.336 1285.32 713.336C1228.13 713.336 1181.77 666.972 1181.77 609.78C1181.77 552.588 1228.13 506.224 1285.32 506.224C1342.52 506.224 1388.88 552.588 1388.88 609.78Z" fill="#84AAE4"/>
<path d="M1388.88 609.78C1388.88 666.972 1342.52 713.336 1285.32 713.336C1228.13 713.336 1181.77 666.972 1181.77 609.78C1181.77 552.588 1228.13 506.224 1285.32 506.224C1342.52 506.224 1388.88 552.588 1388.88 609.78Z" stroke="#0626A9" stroke-width="2" stroke-miterlimit="10"/>
<path d="M1310.93 553.501L1313.48 662.567" stroke="#0626A9" stroke-width="2" stroke-linecap="round" stroke-linejoin="round"/>
<path d="M1317.66 546.439C1317.75 550.249 1314.74 553.411 1310.93 553.5C1307.12 553.59 1303.96 550.573 1303.87 546.763C1303.78 542.953 1306.79 539.791 1310.6 539.702C1314.41 539.613 1317.57 542.629 1317.66 546.439Z" fill="#0626A9"/>
<path d="M1320.55 669.493C1320.64 673.303 1317.62 676.464 1313.81 676.553C1310 676.643 1306.84 673.626 1306.75 669.816C1306.66 666.006 1309.68 662.845 1313.49 662.755C1317.3 662.666 1320.46 665.683 1320.55 669.493Z" fill="#0626A9"/>
<path d="M1283.01 554.156L1285.57 663.222" stroke="#0626A9" stroke-width="2" stroke-linecap="round" stroke-linejoin="round"/>
<path d="M1289.75 547.094C1289.84 550.904 1286.82 554.065 1283.01 554.155C1279.2 554.244 1276.04 551.227 1275.95 547.417C1275.86 543.607 1278.88 540.446 1282.69 540.357C1286.5 540.267 1289.66 543.284 1289.75 547.094Z" fill="#0626A9"/>
<path d="M1292.63 670.147C1292.72 673.957 1289.71 677.119 1285.9 677.208C1282.09 677.297 1278.92 674.28 1278.83 670.471C1278.75 666.661 1281.76 663.499 1285.57 663.41C1289.38 663.32 1292.54 666.337 1292.63 670.147Z" fill="#0626A9"/>
<path d="M1255.09 554.81L1257.65 663.876" stroke="#0626A9" stroke-width="2" stroke-linecap="round" stroke-linejoin="round"/>
<path d="M1261.83 547.748C1261.92 551.558 1258.9 554.72 1255.09 554.809C1251.28 554.898 1248.12 551.882 1248.03 548.072C1247.94 544.262 1250.96 541.1 1254.77 541.011C1258.58 540.922 1261.74 543.938 1261.83 547.748Z" fill="#0626A9"/>
<path d="M1264.72 670.801C1264.81 674.611 1261.79 677.773 1257.98 677.862C1254.17 677.952 1251.01 674.935 1250.92 671.125C1250.83 667.315 1253.85 664.153 1257.66 664.064C1261.47 663.975 1264.63 666.992 1264.72 670.801Z" fill="#0626A9"/>
<path d="M1229.01 582.147L1338.08 579.59" stroke="#0626A9" stroke-width="2" stroke-linecap="round" stroke-linejoin="round"/>
<path d="M1221.95 575.41C1225.76 575.32 1228.92 578.337 1229.01 582.147C1229.1 585.957 1226.08 589.119 1222.27 589.208C1218.46 589.297 1215.3 586.28 1215.21 582.471C1215.12 578.661 1218.14 575.499 1221.95 575.41Z" fill="#0626A9"/>
<path d="M1345 572.525C1348.81 572.435 1351.97 575.452 1352.06 579.262C1352.15 583.072 1349.14 586.234 1345.33 586.323C1341.52 586.412 1338.35 583.396 1338.27 579.586C1338.18 575.776 1341.19 572.614 1345 572.525Z" fill="#0626A9"/>
<path d="M1229.67 610.063L1338.73 607.506" stroke="#0626A9" stroke-width="2" stroke-linecap="round" stroke-linejoin="round"/>
<path d="M1222.6 603.326C1226.41 603.237 1229.58 606.253 1229.67 610.063C1229.75 613.873 1226.74 617.035 1222.93 617.124C1219.12 617.214 1215.96 614.197 1215.87 610.387C1215.78 606.577 1218.79 603.415 1222.6 603.326Z" fill="#0626A9"/>
<path d="M1345.66 600.441C1349.47 600.352 1352.63 603.369 1352.72 607.179C1352.81 610.988 1349.79 614.15 1345.98 614.239C1342.17 614.329 1339.01 611.312 1338.92 607.502C1338.83 603.692 1341.85 600.53 1345.66 600.441Z" fill="#0626A9"/>
<path d="M1230.32 637.979L1339.39 635.422" stroke="#0626A9" stroke-width="2" stroke-linecap="round" stroke-linejoin="round"/>
<path d="M1223.26 631.242C1227.07 631.153 1230.23 634.17 1230.32 637.98C1230.41 641.79 1227.39 644.951 1223.58 645.04C1219.77 645.13 1216.61 642.113 1216.52 638.303C1216.43 634.493 1219.45 631.332 1223.26 631.242Z" fill="#0626A9"/>
<path d="M1346.31 628.356C1350.12 628.267 1353.28 631.284 1353.37 635.094C1353.46 638.904 1350.45 642.065 1346.64 642.155C1342.83 642.244 1339.66 639.227 1339.57 635.417C1339.49 631.607 1342.5 628.446 1346.31 628.356Z" fill="#0626A9"/>
<path d="M1329.3 651.243L1242.31 653.282L1240.28 566.3L1327.26 564.26L1329.3 651.243Z" fill="white"/>
<path d="M1329.3 651.243L1242.31 653.282L1240.28 566.3L1327.26 564.26L1329.3 651.243Z" stroke="#0626A9" stroke-width="2" stroke-linecap="round" stroke-linejoin="round"/>
<path d="M1308.56 631.456L1262.1 632.545L1261.01 586.086L1307.47 584.997L1308.56 631.456Z" fill="#0626A9"/>
<mask id="mask6_25_45452" style="mask-type:alpha" maskUnits="userSpaceOnUse" x="1215" y="539" width="139" height="139">
<path d="M1310.93 553.501L1313.48 662.567" stroke="#202870" stroke-width="2" stroke-linecap="round" stroke-linejoin="round"/>
<path d="M1317.66 546.439C1317.75 550.249 1314.74 553.411 1310.93 553.5C1307.12 553.59 1303.96 550.573 1303.87 546.763C1303.78 542.953 1306.79 539.791 1310.6 539.702C1314.41 539.613 1317.57 542.629 1317.66 546.439Z" fill="#202870"/>
<path d="M1320.55 669.493C1320.64 673.302 1317.62 676.464 1313.81 676.553C1310 676.643 1306.84 673.626 1306.75 669.816C1306.66 666.006 1309.68 662.844 1313.49 662.755C1317.3 662.666 1320.46 665.683 1320.55 669.493Z" fill="#202870"/>
<path d="M1283.01 554.156L1285.57 663.222" stroke="#202870" stroke-width="2" stroke-linecap="round" stroke-linejoin="round"/>
<path d="M1289.75 547.094C1289.84 550.904 1286.82 554.065 1283.01 554.155C1279.2 554.244 1276.04 551.227 1275.95 547.417C1275.86 543.607 1278.88 540.446 1282.69 540.356C1286.5 540.267 1289.66 543.284 1289.75 547.094Z" fill="#202870"/>
<path d="M1292.63 670.147C1292.72 673.957 1289.71 677.119 1285.9 677.208C1282.09 677.297 1278.92 674.28 1278.83 670.47C1278.75 666.661 1281.76 663.499 1285.57 663.41C1289.38 663.32 1292.54 666.337 1292.63 670.147Z" fill="#202870"/>
<path d="M1255.09 554.81L1257.65 663.876" stroke="#202870" stroke-width="2" stroke-linecap="round" stroke-linejoin="round"/>
<path d="M1261.83 547.748C1261.92 551.558 1258.9 554.72 1255.09 554.809C1251.28 554.898 1248.12 551.882 1248.03 548.072C1247.94 544.262 1250.96 541.1 1254.77 541.011C1258.58 540.922 1261.74 543.938 1261.83 547.748Z" fill="#202870"/>
<path d="M1264.72 670.801C1264.81 674.611 1261.79 677.773 1257.98 677.862C1254.17 677.952 1251.01 674.935 1250.92 671.125C1250.83 667.315 1253.85 664.153 1257.66 664.064C1261.47 663.975 1264.63 666.992 1264.72 670.801Z" fill="#202870"/>
<path d="M1229.01 582.147L1338.08 579.59" stroke="#202870" stroke-width="2" stroke-linecap="round" stroke-linejoin="round"/>
<path d="M1221.95 575.41C1225.76 575.32 1228.92 578.337 1229.01 582.147C1229.1 585.957 1226.08 589.119 1222.27 589.208C1218.46 589.297 1215.3 586.28 1215.21 582.471C1215.12 578.661 1218.14 575.499 1221.95 575.41Z" fill="#202870"/>
<path d="M1345 572.525C1348.81 572.435 1351.97 575.452 1352.06 579.262C1352.15 583.072 1349.14 586.234 1345.33 586.323C1341.52 586.412 1338.35 583.396 1338.27 579.586C1338.18 575.776 1341.19 572.614 1345 572.525Z" fill="#202870"/>
<path d="M1229.67 610.063L1338.73 607.506" stroke="#202870" stroke-width="2" stroke-linecap="round" stroke-linejoin="round"/>
<path d="M1222.6 603.326C1226.41 603.237 1229.58 606.253 1229.67 610.063C1229.75 613.873 1226.74 617.035 1222.93 617.124C1219.12 617.214 1215.96 614.197 1215.87 610.387C1215.78 606.577 1218.79 603.415 1222.6 603.326Z" fill="#202870"/>
<path d="M1345.66 600.441C1349.47 600.352 1352.63 603.369 1352.72 607.179C1352.81 610.988 1349.79 614.15 1345.98 614.239C1342.17 614.329 1339.01 611.312 1338.92 607.502C1338.83 603.692 1341.85 600.53 1345.66 600.441Z" fill="#202870"/>
<path d="M1230.32 637.979L1339.39 635.422" stroke="#202870" stroke-width="2" stroke-linecap="round" stroke-linejoin="round"/>
<path d="M1223.26 631.242C1227.07 631.153 1230.23 634.17 1230.32 637.98C1230.41 641.79 1227.39 644.951 1223.58 645.04C1219.77 645.13 1216.61 642.113 1216.52 638.303C1216.43 634.493 1219.45 631.332 1223.26 631.242Z" fill="#202870"/>
<path d="M1346.31 628.356C1350.12 628.267 1353.28 631.284 1353.37 635.094C1353.46 638.904 1350.45 642.065 1346.64 642.155C1342.83 642.244 1339.66 639.227 1339.57 635.417C1339.49 631.607 1342.5 628.446 1346.31 628.356Z" fill="#202870"/>
<path d="M1329.3 651.243L1242.31 653.282L1240.28 566.3L1327.26 564.26L1329.3 651.243Z" fill="white"/>
<path d="M1329.3 651.243L1242.31 653.282L1240.28 566.3L1327.26 564.26L1329.3 651.243Z" stroke="#202870" stroke-width="2" stroke-linecap="round" stroke-linejoin="round"/>
<path d="M1308.56 631.456L1262.1 632.545L1261.01 586.086L1307.47 584.997L1308.56 631.456Z" fill="#202870"/>
</mask>
<g mask="url(#mask6_25_45452)">
<path d="M1308 405.5L1043 651.5L1094 687L1351 443L1308 405.5Z" fill="white"/>
</g>
</g>
<mask id="mask7_25_45452" style="mask-type:luminance" maskUnits="userSpaceOnUse" x="0" y="0" width="1600" height="1600">
<path d="M0 0H1600V1600H0V0Z" fill="white"/>
</mask>
<g mask="url(#mask7_25_45452)">
<path d="M1294.7 1064.42L1293.27 1117.05L1150.44 1072.26" fill="#0626A9"/>
<path d="M1358.34 965.705V794.705L1141.09 794.75" stroke="#0626A9" stroke-width="2" stroke-dasharray="71 34"/>
<path d="M1519.63 1082.34L1150.44 1072.26L1155.57 884.334L1524.76 894.415L1519.63 1082.34Z" fill="#84AAE4"/>
<path d="M1519.63 1082.34L1150.44 1072.26L1155.57 884.334L1524.76 894.415L1519.63 1082.34Z" stroke="#0626A9" stroke-width="2" stroke-miterlimit="10"/>
<path d="M1309.96 941.124L1194.89 937.982" stroke="#0626A9" stroke-width="2" stroke-linecap="round" stroke-linejoin="round" stroke-dasharray="245 14"/>
<path d="M1356.97 970.048L1194.14 965.602" stroke="#0626A9" stroke-width="2" stroke-linecap="round" stroke-linejoin="round" stroke-dasharray="220 5"/>
<path d="M1356.21 997.668L1193.39 993.222" stroke="#0626A9" stroke-width="2" stroke-linecap="round" stroke-linejoin="round" stroke-dasharray="150 15"/>
<path d="M1285.04 1023.36L1192.63 1020.84" stroke="#0626A9" stroke-width="2" stroke-linecap="round" stroke-linejoin="round" stroke-dasharray="77 10"/>
<path d="M1481.44 987.267C1480.75 1012.42 1459.8 1032.25 1434.65 1031.56C1409.5 1030.88 1389.67 1009.93 1390.36 984.78C1391.04 959.629 1411.99 939.797 1437.14 940.484C1462.29 941.171 1482.12 962.116 1481.44 987.267Z" fill="white"/>
<path d="M1481.44 987.267C1480.75 1012.42 1459.8 1032.25 1434.65 1031.56C1409.5 1030.88 1389.67 1009.93 1390.36 984.78C1391.04 959.629 1411.99 939.797 1437.14 940.484C1462.29 941.171 1482.12 962.116 1481.44 987.267Z" stroke="#0626A9" stroke-width="2" stroke-linecap="round" stroke-linejoin="round"/>
<path d="M1481.44 987.267C1480.75 1012.42 1459.8 1032.25 1434.65 1031.56C1409.5 1030.88 1389.67 1009.93 1390.36 984.78C1391.04 959.629 1411.99 939.797 1437.14 940.484C1462.29 941.171 1482.12 962.116 1481.44 987.267Z" stroke="#0626A9" stroke-width="2" stroke-linecap="round" stroke-linejoin="round"/>
</g>
<mask id="mask8_25_45452" style="mask-type:luminance" maskUnits="userSpaceOnUse" x="0" y="0" width="1600" height="1600">
<path d="M0 0H1600V1600H0V0Z" fill="white"/>
</mask>
<g mask="url(#mask8_25_45452)">
<path d="M1140.42 768.92C1140.42 951.434 992.468 1099.39 809.954 1099.39C627.44 1099.39 479.484 951.434 479.484 768.92C479.484 586.406 627.44 438.45 809.954 438.45C992.468 438.45 1140.42 586.406 1140.42 768.92Z" fill="white"/>
<path d="M1140.42 768.92C1140.42 951.434 992.468 1099.39 809.954 1099.39C627.44 1099.39 479.484 951.434 479.484 768.92C479.484 586.406 627.44 438.45 809.954 438.45C992.468 438.45 1140.42 586.406 1140.42 768.92Z" stroke="#0626A9" stroke-width="2" stroke-miterlimit="10"/>
</g>
</g>
<path d="M747.254 804.347C752.34 804.347 756.464 800.22 756.464 795.13C756.464 790.039 752.34 785.912 747.254 785.912C742.167 785.912 738.043 790.039 738.043 795.13C738.043 800.22 742.167 804.347 747.254 804.347Z" fill="#DEE1E3" stroke="#455564" stroke-miterlimit="10"/>
<path d="M1036.52 644.944H562.564V947.222H1036.52V644.944Z" fill="#455564" stroke="#455564" stroke-width="2.4"/>
<mask id="mask9_25_45452" style="mask-type:luminance" maskUnits="userSpaceOnUse" x="561" y="788" width="477" height="161">
<path d="M1037.55 788.137H561.135V948.573H1037.55V788.137Z" fill="white"/>
</mask>
<g mask="url(#mask9_25_45452)">
<path d="M510 798.149C510 798.149 547.24 842.807 647.763 841.457H652.13C739.234 841.457 828.799 817.141 889.542 812.294C903.676 811.261 917.968 810.784 932.498 811.34C1027.54 814.916 1088.92 850.118 1088.92 850.118V959.777H510V798.07V798.149Z" fill="#CDF3C3"/>
<path d="M930.672 800.215C837.137 800.215 760.593 837.642 654.194 832.795C611.238 830.888 579.08 820.16 556.133 809.433C527.151 795.924 512.858 781.621 510 778.283V791.395C510 791.395 522.784 809.115 555.18 822.465C576.698 831.365 607.188 838.119 647.366 837.563H651.336C737.805 837.563 823.082 816.346 887.398 808.559C902.167 807.367 917.094 806.89 932.34 807.446C1027.3 811.022 1089 846.224 1089 846.224V842.013V827.392C1089 827.392 1025.8 800.136 930.672 800.136" fill="#CDF3C3"/>
</g>
<path d="M1008.72 855.76H901.531V924.098H1008.72V855.76Z" fill="white"/>
<path d="M616.24 771.847L628.547 769.225C630.056 768.907 633.946 768.192 635.455 770.814C636.487 772.641 635.931 776.774 634.82 778.919C633.152 782.257 629.42 782.813 627.356 783.21L622.195 784.243L620.766 792.825L612.508 794.414L616.24 771.847ZM622.83 779.952C625.847 779.316 626.721 779.237 627.118 777.091L627.356 775.582C627.753 772.88 626.324 773.436 623.862 773.992L622.83 780.032V779.952Z" fill="white"/>
<path d="M641.807 789.011C640.139 789.09 637.837 788.614 636.487 786.786C635.852 785.991 635.455 784.561 635.693 783.051L636.884 775.582C638.154 767.874 642.124 765.808 647.841 764.616L649.826 764.218C651.653 763.821 655.067 763.344 657.131 765.808C658.561 767.476 658.402 769.383 657.926 771.847L656.814 778.442C656.179 782.098 654.67 785.117 650.779 787.104C649.191 787.898 642.839 789.011 641.886 789.011M645.539 772.88L644.11 780.747C643.713 782.733 643.633 783.687 644.189 784.164C644.665 784.561 645.698 784.481 646.333 784.084C647.365 783.448 647.524 782.892 648 780.349L649.429 772.324C649.747 770.575 649.906 769.383 649.429 768.986C648.953 768.668 647.603 768.907 647.206 769.066C646.015 769.781 645.856 770.575 645.459 772.88" fill="white"/>
<path d="M666.978 760.96L667.454 773.913L672.695 759.768L680.556 758.1L681.032 771.37L686.352 756.908L690.56 755.954L681.35 781.065L672.695 782.733L672.298 771.847L668.01 783.607L659.435 785.276L658.641 762.788L666.978 760.96Z" fill="white"/>
<path d="M690.877 755.875L708.743 752.061L708.108 756.193L698.579 758.259L697.785 763.424L704.296 762.073L703.661 766.602L697.071 767.874L696.118 773.833L705.567 772.006L704.852 776.535L687.146 779.952L690.877 755.875Z" fill="white"/>
<path d="M710.173 751.822L723.433 748.961C727.959 748.008 728.673 748.485 729.706 750.471C730.42 751.981 730.023 755.875 729.388 757.226C728.356 759.292 726.847 760.325 725.1 760.881C726.371 761.993 726.45 763.026 726.609 764.854L727.323 772.165L718.986 773.754L718.351 767.159C717.954 763.503 718.033 763.662 716.287 764.059L714.619 774.628L706.361 776.217L710.093 751.822H710.173ZM717.001 759.61C720.892 758.815 721.051 758.974 721.448 756.352C721.924 753.491 720.971 753.809 717.795 754.444L717.001 759.61Z" fill="white"/>
<path d="M656.814 794.017L669.518 791.554C671.503 791.156 674.124 790.441 675.87 792.269C677.3 793.779 676.982 795.686 676.664 797.672L675.315 805.619C674.203 811.737 672.536 813.088 666.342 814.201L653.082 816.505L656.814 794.017ZM661.975 811.102H662.451C665.628 810.466 665.866 810.704 666.422 807.128L667.771 799.023C668.327 795.368 668.168 795.447 664.516 796.163L662.054 811.022L661.975 811.102Z" fill="#CDF3C3"/>
<path d="M679.92 789.488L693.18 786.865C697.706 785.991 698.42 786.468 699.453 788.375C700.167 789.806 699.77 793.461 699.135 794.732C698.103 796.639 696.594 797.593 694.847 798.149C696.118 799.182 696.197 800.215 696.356 801.884L697.071 808.718L688.733 810.148L688.098 803.95C687.701 800.533 687.781 800.692 686.034 801.01L684.366 810.863L676.108 812.294L679.84 789.408H679.92V789.488ZM686.748 796.878C690.639 796.163 690.798 796.242 691.195 793.779C691.671 791.077 690.718 791.395 687.542 791.951L686.748 796.798V796.878Z" fill="#CDF3C3"/>
<path d="M702.312 785.117L710.57 783.528L706.838 807.049L698.58 808.479L702.312 785.117Z" fill="#CDF3C3"/>
<path d="M713.031 783.051L721.606 781.382L726.926 795.288L729.308 779.873L733.517 779.078L729.705 802.996L720.336 804.665L715.492 792.03L713.349 805.857L709.22 806.572L713.031 783.051Z" fill="#CDF3C3"/>
<path d="M735.661 778.681L743.998 777.012L742.489 786.23L752.891 775.264L758.37 774.231L750.032 783.448L752.573 798.944L744.236 800.454L742.569 791.395L741.536 792.666L740.187 801.169L731.929 802.599L735.661 778.681Z" fill="#CDF3C3"/>
<path d="M747.888 667.512H692.386V686.901H747.888V667.512Z" fill="#CDF3C3"/>
<path d="M740.266 769.86L759.56 767C759.084 734.102 732.564 707.561 699.85 707.561C667.136 707.561 691.116 708.117 687.066 709.071V667.512H667.771V743.161C675.235 733.387 686.828 727.03 699.929 727.03C722.241 727.03 740.345 745.306 740.345 767.874V769.781L740.266 769.86Z" fill="#CDF3C3"/>
<path fill-rule="evenodd" clip-rule="evenodd" d="M630.929 748.882C630.929 749.756 630.214 750.471 629.341 750.471C628.468 750.471 627.753 749.756 627.753 748.882C627.753 748.008 628.468 747.293 629.341 747.293C630.214 747.293 630.929 748.008 630.929 748.882Z" fill="#CDF3C3"/>
<path fill-rule="evenodd" clip-rule="evenodd" d="M630.929 805.857C630.929 806.652 630.294 807.367 629.421 807.367C628.547 807.367 627.912 806.731 627.912 805.857C627.912 804.983 628.547 804.347 629.421 804.347C630.294 804.347 630.929 804.983 630.929 805.857Z" fill="#CDF3C3"/>
<path fill-rule="evenodd" clip-rule="evenodd" d="M641.728 756.431C641.728 757.702 640.696 758.656 639.505 758.656C638.313 758.656 637.281 757.623 637.281 756.431C637.281 755.239 638.313 754.206 639.505 754.206C640.696 754.206 641.728 755.239 641.728 756.431Z" fill="#CDF3C3"/>
<path fill-rule="evenodd" clip-rule="evenodd" d="M640.219 816.505C640.219 818.174 638.869 819.525 637.202 819.525C635.534 819.525 634.185 818.174 634.185 816.505C634.185 814.836 635.534 813.486 637.202 813.486C638.869 813.486 640.219 814.836 640.219 816.505Z" fill="#CDF3C3"/>
<path fill-rule="evenodd" clip-rule="evenodd" d="M644.824 800.454C644.824 801.804 643.713 802.917 642.363 802.917C641.013 802.917 639.901 801.804 639.901 800.454C639.901 799.103 641.013 797.99 642.363 797.99C643.713 797.99 644.824 799.103 644.824 800.454Z" fill="#CDF3C3"/>
<path fill-rule="evenodd" clip-rule="evenodd" d="M640.219 739.903C640.219 740.697 639.584 741.412 638.711 741.412C637.837 741.412 637.202 740.777 637.202 739.903C637.202 739.029 637.837 738.393 638.711 738.393C639.584 738.393 640.219 739.029 640.219 739.903Z" fill="#CDF3C3"/>
<path d="M635.375 904.868C630.611 904.868 626.8 908.682 626.8 913.371C626.8 918.059 627.117 916.072 627.753 917.264V917.423H631.485L631.008 916.867C630.214 915.834 629.817 914.642 629.817 913.371C629.817 910.272 632.358 907.729 635.375 907.729C638.392 907.729 640.933 910.272 640.933 913.371C640.933 916.47 640.536 915.914 639.742 916.867L639.266 917.423H642.918V917.264C643.633 916.072 643.951 914.722 643.951 913.371C643.951 908.682 640.06 904.868 635.375 904.868Z" fill="#455564"/>
<path d="M635.375 903.517C638.631 903.517 641.568 901.769 642.998 898.908L643.236 898.432H639.742V898.591C638.631 899.941 637.043 900.736 635.296 900.736C633.549 900.736 632.04 899.941 630.929 898.591V898.432H627.355L627.594 898.908C629.102 901.769 632.04 903.517 635.216 903.517H635.375Z" fill="#455564"/>
<path d="M612.984 898.352H602.186V917.503H604.965V909.239H610.682V906.457H604.965V901.133H612.984V898.352Z" fill="#455564"/>
<path d="M618.542 914.563V898.352H615.684V917.423H624.735V914.563H618.542Z" fill="#455564"/>
<path d="M657.449 907.888L656.019 903.12L653.082 912.576L648.556 898.352H645.459L651.573 917.423H654.59L657.369 907.888H657.449ZM653.082 912.656H652.764C652.764 912.735 653.082 912.656 653.082 912.656Z" fill="#455564"/>
<path d="M667.85 898.352L663.324 912.576L659.513 901.054H656.813L661.816 917.423H664.912L670.947 898.352H667.85Z" fill="#455564"/>
<path d="M592.101 905.583H591.863L592.339 901.054H596.786V898.352H589.878L588.846 908.206H591.545C595.277 908.206 595.674 910.828 595.674 911.702C595.674 913.609 594.166 915.039 592.181 915.039C590.195 915.039 589.401 914.483 588.052 913.212L587.575 912.735V916.311H587.734C588.528 916.947 590.116 917.821 592.26 917.821C595.992 917.821 598.533 915.357 598.533 911.702C598.533 908.047 595.992 905.583 592.101 905.583Z" fill="#455564"/>
<path d="M600.835 898.352H598.136V901.054H600.835V898.352Z" fill="#455564"/>
<path d="M951.078 690.477H834.119" stroke="#CDF3C3" stroke-width="2" stroke-linecap="round" stroke-linejoin="round"/>
<path d="M1000.86 711.137H834.119" stroke="#CDF3C3" stroke-width="2" stroke-linecap="round" stroke-linejoin="round"/>
<path d="M1000.86 729.97H834.119" stroke="#CDF3C3" stroke-width="2" stroke-linecap="round" stroke-linejoin="round"/>
<path d="M1000.86 751.504H834.119" stroke="#CDF3C3" stroke-width="2" stroke-linecap="round" stroke-linejoin="round"/>
<path d="M905.581 773.039H834.119" stroke="#CDF3C3" stroke-width="2" stroke-linecap="round" stroke-linejoin="round"/>
<path d="M977.043 668.942H834.119" stroke="#CDF3C3" stroke-width="2" stroke-linecap="round" stroke-linejoin="round"/>
<path d="M874.852 857.349H803.391" stroke="#415463" stroke-linecap="round" stroke-linejoin="round"/>
<path d="M874.852 870.858H803.391" stroke="#415463" stroke-linecap="round" stroke-linejoin="round"/>
<path d="M874.852 884.287H803.391" stroke="#415463" stroke-linecap="round" stroke-linejoin="round"/>
<path d="M839.122 917.979H803.391" stroke="#415463" stroke-linecap="round" stroke-linejoin="round"/>
<path d="M969.579 864.66V900.418" stroke="black" stroke-width="2" stroke-linecap="round" stroke-linejoin="round"/>
<path d="M921.54 864.66V900.418" stroke="black" stroke-width="3" stroke-linecap="round" stroke-linejoin="round"/>
<path d="M926.86 864.66V900.418" stroke="black" stroke-width="3" stroke-linecap="round" stroke-linejoin="round"/>
<path d="M932.975 864.66V900.418" stroke="black" stroke-width="3" stroke-linecap="round" stroke-linejoin="round"/>
<path d="M938.294 864.66V900.418" stroke="black" stroke-width="3" stroke-linecap="round" stroke-linejoin="round"/>
<path d="M944.011 864.66V900.418" stroke="black" stroke-width="3" stroke-linecap="round" stroke-linejoin="round"/>
<path d="M964.18 864.66V900.418" stroke="black" stroke-width="3" stroke-linecap="round" stroke-linejoin="round"/>
<path d="M975.613 864.66V900.418" stroke="black" stroke-width="3" stroke-linecap="round" stroke-linejoin="round"/>
<path d="M981.013 864.66V900.418" stroke="black" stroke-width="3" stroke-linecap="round" stroke-linejoin="round"/>
<path d="M986.729 864.66V900.418" stroke="black" stroke-width="3" stroke-linecap="round" stroke-linejoin="round"/>
<path d="M915.823 864.739V912.417" stroke="black" stroke-width="3" stroke-linecap="round" stroke-linejoin="round"/>
<path d="M909.074 864.739V912.417" stroke="black" stroke-width="3" stroke-linecap="round" stroke-linejoin="round"/>
<path d="M958.224 864.739V912.417" stroke="black" stroke-width="3" stroke-linecap="round" stroke-linejoin="round"/>
<path d="M951.475 864.739V912.417" stroke="black" stroke-width="3" stroke-linecap="round" stroke-linejoin="round"/>
<path d="M1000.94 864.739V912.417" stroke="black" stroke-width="3" stroke-linecap="round" stroke-linejoin="round"/>
<path d="M994.193 864.739V912.417" stroke="black" stroke-width="3" stroke-linecap="round" stroke-linejoin="round"/>
<path d="M590.514 884.923H593.213C593.531 884.923 594.404 884.923 594.722 885.559C594.96 885.956 594.722 886.83 594.563 887.227C594.166 887.863 593.372 887.863 592.975 887.863H591.864L591.546 889.611H589.72L590.514 884.843V884.923ZM591.943 886.989C592.578 886.989 592.816 886.989 592.896 886.592V886.274C593.055 885.717 592.737 885.797 592.181 885.797L591.943 887.068V886.989Z" fill="#455564"/>
<path d="M596.231 889.691C595.834 889.691 595.357 889.452 595.04 888.975C594.881 888.817 594.801 888.419 594.881 888.181L595.119 886.671C595.437 885.082 596.231 884.843 597.501 884.843H597.898C598.295 884.843 599.01 884.843 599.486 885.479C599.804 885.876 599.724 886.274 599.645 886.75L599.407 888.101C599.248 888.817 598.93 889.373 598.057 889.691C597.739 889.77 596.31 889.691 596.151 889.691M597.025 886.433L596.707 888.022V888.737C596.707 888.817 597.025 888.896 597.183 888.737C597.422 888.658 597.422 888.499 597.58 888.022L597.898 886.433V885.717C597.898 885.638 597.501 885.638 597.422 885.717C597.183 885.797 597.104 885.956 597.025 886.433Z" fill="#455564"/>
<path d="M601.789 884.923L601.869 887.625L603.06 884.923H604.727L604.806 887.625L605.997 884.923H606.95L604.886 889.611H603.06L602.98 887.386L602.027 889.611H600.122L599.963 884.923H601.789Z" fill="#455564"/>
<path d="M607.108 884.923H610.999L610.84 885.717H608.776L608.617 886.75H610.046L609.888 887.625H608.458L608.22 888.737H610.285L610.126 889.611H606.314L607.108 884.923Z" fill="#455564"/>
<path d="M611.396 884.923H614.255C615.207 884.923 615.366 885.082 615.604 885.479C615.763 885.797 615.604 886.592 615.604 886.83C615.366 887.227 615.049 887.307 614.652 887.386C614.89 887.625 614.969 887.863 614.969 888.26L615.128 889.691H613.302L613.143 888.34C613.064 887.625 613.143 887.625 612.667 887.625L612.27 889.691H610.443L611.237 884.923H611.396ZM612.905 886.75C613.461 886.75 613.778 886.592 613.858 886.274C613.937 885.717 613.778 885.717 613.064 885.717L612.905 886.75Z" fill="#455564"/>
<path d="M616.319 884.923H620.21L620.051 885.717H617.987L617.828 886.75H619.257L619.098 887.625H617.669L617.51 888.737H619.495L619.416 889.611H615.525L616.319 884.923Z" fill="#455564"/>
<path d="M620.607 884.923H623.386C623.783 884.923 624.418 884.923 624.736 885.32C625.053 885.717 624.974 886.115 624.895 886.512L624.577 888.181C624.339 889.452 623.942 889.691 622.592 889.691H619.733L620.527 884.923H620.607ZM621.798 888.817H621.877C622.354 888.817 622.671 888.578 622.751 888.181L623.068 886.512C623.227 885.717 623.148 885.797 622.354 885.797L621.798 888.896V888.817Z" fill="#455564"/>
<path d="M630.056 884.923C630.453 884.923 630.93 884.923 631.247 885.4C631.486 885.717 631.406 886.115 631.247 886.433C631.009 886.909 630.533 887.068 630.136 887.148C630.453 887.227 630.612 887.386 630.771 887.704C630.93 888.022 630.771 888.658 630.612 888.975C630.215 889.611 629.421 889.611 628.945 889.611H626.007L626.801 884.843H630.056V884.923ZM628.23 888.817C628.627 888.817 628.945 888.817 629.024 888.578C629.024 888.578 629.183 887.784 629.104 887.704C629.024 887.545 628.865 887.545 628.389 887.545L628.151 888.817H628.23ZM628.548 886.671C629.104 886.671 629.262 886.671 629.421 886.433C629.421 886.433 629.58 885.956 629.421 885.876C629.342 885.717 629.104 885.717 628.707 885.717L628.548 886.75V886.671Z" fill="#455564"/>
<path d="M631.644 884.923H633.39L633.867 886.75L635.058 884.923H636.09L634.026 887.942L633.787 889.611H631.961L632.279 887.625L631.644 884.923Z" fill="#455564"/>
</g>
<defs>
<clipPath id="clip0_25_45452">
<rect width="1600" height="1600" fill="white"/>
</clipPath>
</defs>
</svg>
