<svg width="1600" height="1600" viewBox="0 0 1600 1600" fill="none" xmlns="http://www.w3.org/2000/svg">
<g clip-path="url(#clip0_24_22281)">
<mask id="mask0_24_22281" style="mask-type:luminance" maskUnits="userSpaceOnUse" x="0" y="0" width="1600" height="1600">
<path d="M1600 0H0V1600H1600V0Z" fill="white"/>
</mask>
<g mask="url(#mask0_24_22281)">
<path d="M683.844 1150.64H197.018V799.225H683.844V1150.64Z" fill="white"/>
<path d="M683.844 1150.64H197.018V799.225H683.844V1150.64Z" stroke="#0626A9" stroke-width="2" stroke-linecap="round" stroke-linejoin="round"/>
<path d="M686.475 918.258L303.652 937.066L303.135 1063.33L684.003 1094.08L686.475 918.258Z" fill="#0626A9"/>
<path d="M1377.72 1062.74H301.856V362.551H1377.72V1062.74Z" fill="white"/>
<path d="M1377.72 1062.74H301.856V362.551H1377.72V1062.74Z" stroke="#0626A9" stroke-width="2" stroke-linecap="round" stroke-linejoin="round"/>
<path d="M1377.72 413.056H301.856V362.551H1377.72V413.056Z" fill="#0626A9"/>
<path d="M1377.72 413.056H301.856V362.551H1377.72V413.056Z" stroke="#84AAE4" stroke-width="2" stroke-linecap="round" stroke-linejoin="round"/>
<path d="M342.769 387.804C342.769 391.966 339.395 395.34 335.233 395.34C331.071 395.34 327.696 391.966 327.696 387.804C327.696 383.642 331.071 380.267 335.233 380.267C339.395 380.267 342.769 383.642 342.769 387.804Z" fill="#8869D5"/>
<path d="M342.769 387.804C342.769 391.966 339.395 395.34 335.233 395.34C331.071 395.34 327.696 391.966 327.696 387.804C327.696 383.642 331.071 380.267 335.233 380.267C339.395 380.267 342.769 383.642 342.769 387.804Z" stroke="#0626A9" stroke-width="2" stroke-linecap="round" stroke-linejoin="round"/>
<path d="M376.83 387.804C376.83 391.966 373.456 395.34 369.294 395.34C365.132 395.34 361.757 391.966 361.757 387.804C361.757 383.642 365.132 380.267 369.294 380.267C373.456 380.267 376.83 383.642 376.83 387.804Z" fill="white"/>
<path d="M376.83 387.804C376.83 391.966 373.456 395.34 369.294 395.34C365.132 395.34 361.757 391.966 361.757 387.804C361.757 383.642 365.132 380.267 369.294 380.267C373.456 380.267 376.83 383.642 376.83 387.804Z" stroke="#0626A9" stroke-width="2" stroke-linecap="round" stroke-linejoin="round"/>
<path d="M410.892 387.804C410.892 391.966 407.517 395.34 403.355 395.34C399.193 395.34 395.819 391.966 395.819 387.804C395.819 383.642 399.193 380.267 403.355 380.267C407.517 380.267 410.892 383.642 410.892 387.804Z" fill="#84AAE4"/>
<path d="M410.892 387.804C410.892 391.966 407.517 395.34 403.355 395.34C399.193 395.34 395.819 391.966 395.819 387.804C395.819 383.642 399.193 380.267 403.355 380.267C407.517 380.267 410.892 383.642 410.892 387.804Z" stroke="#0626A9" stroke-width="2" stroke-linecap="round" stroke-linejoin="round"/>
<path d="M1303.27 540.06H376.312V469.823H1303.27V540.06Z" stroke="#0626A9" stroke-width="2" stroke-linecap="round" stroke-linejoin="round"/>
<path d="M430.886 500.658C430.886 508.938 424.174 515.65 415.894 515.65C407.614 515.65 400.902 508.938 400.902 500.658C400.902 492.378 407.614 485.666 415.894 485.666C424.174 485.666 430.886 492.378 430.886 500.658Z" stroke="#0626A9" stroke-width="2" stroke-linecap="round" stroke-linejoin="round"/>
<path d="M426.35 511.398L439.168 524.217" stroke="#0626A9" stroke-width="2" stroke-linecap="round" stroke-linejoin="round"/>
<path d="M463.671 469.823V540.06" stroke="#0626A9" stroke-width="2" stroke-linecap="round" stroke-linejoin="round"/>
<path d="M498.354 504.941H839.443" stroke="#0626A9" stroke-width="2" stroke-linecap="round" stroke-linejoin="round"/>
<g clip-path="url(#clip1_24_22281)">
<path d="M494.422 688.422H381V575H494.422V688.422Z" fill="#84AAE4"/>
<path d="M494.422 688.422H381V575H494.422V688.422Z" stroke="#0626A9" stroke-width="2" stroke-linecap="round" stroke-linejoin="round"/>
<path d="M487.712 652.638H387.709V581.709H487.712V652.638Z" fill="white"/>
<path d="M487.712 652.638H387.709V581.709H487.712V652.638Z" stroke="#0626A9" stroke-width="2" stroke-linecap="round" stroke-linejoin="round"/>
<mask id="mask1_24_22281" style="mask-type:alpha" maskUnits="userSpaceOnUse" x="386" y="580" width="103" height="74">
<path d="M487.712 652.638H387.709V581.709H487.712V652.638Z" fill="white"/>
<path d="M487.712 652.638H387.709V581.709H487.712V652.638Z" stroke="#202870" stroke-width="2" stroke-linecap="round" stroke-linejoin="round"/>
</mask>
<g mask="url(#mask1_24_22281)">
<path d="M587.715 617.307V652.638H387.711V617.307C394.752 613.921 402.435 614.417 410.442 615.231C415.607 615.759 420.713 617.231 425.5 619.221C430.239 621.189 434.536 624.03 439.297 625.949C448.393 629.621 458.07 629.432 467.231 626.057C474.202 623.486 480.909 620.283 487.713 617.307C494.754 613.921 502.437 614.417 510.444 615.231C515.609 615.759 520.715 617.231 525.502 619.221C530.242 621.189 534.539 624.03 539.299 625.949C548.395 629.621 558.073 629.432 567.233 626.057C574.204 623.486 580.911 620.283 587.715 617.307Z" fill="#8869D5"/>
<path d="M587.715 617.307V652.638H387.711V617.307C394.752 613.921 402.435 614.417 410.442 615.231C415.607 615.759 420.713 617.231 425.5 619.221C430.239 621.189 434.536 624.03 439.297 625.949C448.393 629.621 458.07 629.432 467.231 626.057C474.202 623.486 480.909 620.283 487.713 617.307C494.754 613.921 502.437 614.417 510.444 615.231C515.609 615.759 520.715 617.231 525.502 619.221C530.242 621.189 534.539 624.03 539.299 625.949C548.395 629.621 558.073 629.432 567.233 626.057C574.204 623.486 580.911 620.283 587.715 617.307Z" stroke="#0626A9" stroke-width="2" stroke-linecap="round" stroke-linejoin="round"/>
</g>
<path d="M487.712 652.638H387.709V581.709H487.712V652.638Z" stroke="#0626A9" stroke-width="2" stroke-linecap="round" stroke-linejoin="round"/>
<path d="M404.802 670.53C404.802 675.25 400.976 679.077 396.256 679.077C391.535 679.077 387.709 675.25 387.709 670.53C387.709 665.81 391.535 661.983 396.256 661.983C400.976 661.983 404.802 665.81 404.802 670.53Z" fill="white"/>
<path d="M404.802 670.53C404.802 675.25 400.976 679.077 396.256 679.077C391.535 679.077 387.709 675.25 387.709 670.53C387.709 665.81 391.535 661.983 396.256 661.983C400.976 661.983 404.802 665.81 404.802 670.53Z" stroke="#0626A9" stroke-width="2" stroke-linecap="round" stroke-linejoin="round"/>
<path d="M411.353 670.53H456.082" stroke="#0626A9" stroke-width="2" stroke-linecap="round" stroke-linejoin="round"/>
<path d="M632.445 688.422H519.023V575H632.445V688.422Z" fill="#84AAE4"/>
<path d="M632.445 688.422H519.023V575H632.445V688.422Z" stroke="#0626A9" stroke-width="2" stroke-linecap="round" stroke-linejoin="round"/>
<path d="M625.736 652.638H525.732V581.709H625.736V652.638Z" fill="white"/>
<path d="M625.736 652.638H525.732V581.709H625.736V652.638Z" stroke="#0626A9" stroke-width="2" stroke-linecap="round" stroke-linejoin="round"/>
<path d="M594.219 617.174C594.219 627.382 585.943 635.658 575.735 635.658C565.526 635.658 557.251 627.382 557.251 617.174C557.251 606.965 565.526 598.69 575.735 598.69C585.943 598.69 594.219 606.965 594.219 617.174Z" fill="#0626A9"/>
<path d="M594.219 617.174C594.219 627.382 585.943 635.658 575.735 635.658C565.526 635.658 557.251 627.382 557.251 617.174C557.251 606.965 565.526 598.69 575.735 598.69C585.943 598.69 594.219 606.965 594.219 617.174Z" stroke="#0626A9" stroke-width="2" stroke-linecap="round" stroke-linejoin="round"/>
<path d="M570.674 624.215V610.132L584.757 617.174L570.674 624.215Z" fill="white"/>
<path d="M570.674 624.215V610.132L584.757 617.174L570.674 624.215Z" stroke="#0626A9" stroke-width="2" stroke-linecap="round" stroke-linejoin="round"/>
<path d="M542.826 670.53C542.826 675.25 538.999 679.077 534.279 679.077C529.559 679.077 525.732 675.25 525.732 670.53C525.732 665.81 529.559 661.983 534.279 661.983C538.999 661.983 542.826 665.81 542.826 670.53Z" fill="white"/>
<path d="M542.826 670.53C542.826 675.25 538.999 679.077 534.279 679.077C529.559 679.077 525.732 675.25 525.732 670.53C525.732 665.81 529.559 661.983 534.279 661.983C538.999 661.983 542.826 665.81 542.826 670.53Z" stroke="#0626A9" stroke-width="2" stroke-linecap="round" stroke-linejoin="round"/>
<path d="M549.376 670.53H594.105" stroke="#0626A9" stroke-width="2" stroke-linecap="round" stroke-linejoin="round"/>
<path d="M494.422 832.383H381V718.961H494.422V832.383Z" fill="#84AAE4"/>
<path d="M494.422 832.383H381V718.961H494.422V832.383Z" stroke="#0626A9" stroke-width="2" stroke-linecap="round" stroke-linejoin="round"/>
<path d="M487.712 796.599H387.709V725.67H487.712V796.599Z" fill="white"/>
<path d="M487.712 796.599H387.709V725.67H487.712V796.599Z" stroke="#0626A9" stroke-width="2" stroke-linecap="round" stroke-linejoin="round"/>
<path d="M456.195 761.135C456.195 771.343 447.92 779.619 437.711 779.619C427.503 779.619 419.228 771.343 419.228 761.135C419.228 750.926 427.503 742.651 437.711 742.651C447.92 742.651 456.195 750.926 456.195 761.135Z" fill="#0626A9"/>
<path d="M456.195 761.135C456.195 771.343 447.92 779.619 437.711 779.619C427.503 779.619 419.228 771.343 419.228 761.135C419.228 750.926 427.503 742.651 437.711 742.651C447.92 742.651 456.195 750.926 456.195 761.135Z" stroke="#0626A9" stroke-width="2" stroke-linecap="round" stroke-linejoin="round"/>
<path d="M432.65 768.176V754.094L446.733 761.135L432.65 768.176Z" fill="white"/>
<path d="M432.65 768.176V754.094L446.733 761.135L432.65 768.176Z" stroke="#0626A9" stroke-width="2" stroke-linecap="round" stroke-linejoin="round"/>
<path d="M404.802 814.491C404.802 819.211 400.976 823.038 396.256 823.038C391.535 823.038 387.709 819.211 387.709 814.491C387.709 809.771 391.535 805.944 396.256 805.944C400.976 805.944 404.802 809.771 404.802 814.491Z" fill="white"/>
<path d="M404.802 814.491C404.802 819.211 400.976 823.038 396.256 823.038C391.535 823.038 387.709 819.211 387.709 814.491C387.709 809.771 391.535 805.944 396.256 805.944C400.976 805.944 404.802 809.771 404.802 814.491Z" stroke="#0626A9" stroke-width="2" stroke-linecap="round" stroke-linejoin="round"/>
<path d="M411.353 814.491H456.082" stroke="#0626A9" stroke-width="2" stroke-linecap="round" stroke-linejoin="round"/>
<path d="M632.445 832.383H519.023V718.961H632.445V832.383Z" fill="#84AAE4"/>
<path d="M632.445 832.383H519.023V718.961H632.445V832.383Z" stroke="#0626A9" stroke-width="2" stroke-linecap="round" stroke-linejoin="round"/>
<path d="M625.736 796.599H525.732V725.67H625.736V796.599Z" fill="#0626A9"/>
<path d="M625.736 796.599H525.732V725.67H625.736V796.599Z" stroke="#0626A9" stroke-width="2" stroke-linecap="round" stroke-linejoin="round"/>
<path d="M625.735 796.599H588.354L559.6 774.048L586.437 725.67H625.735V796.599Z" fill="white"/>
<path d="M625.735 796.599H588.354L559.6 774.048L586.437 725.67H625.735V796.599Z" stroke="#0626A9" stroke-width="2" stroke-linecap="round" stroke-linejoin="round"/>
<path d="M572.46 750.867L525.733 733.117V725.67H586.438L572.46 750.867Z" fill="#8869D5"/>
<path d="M572.46 750.867L525.733 733.117V725.67H586.438L572.46 750.867Z" stroke="#0626A9" stroke-width="2" stroke-linecap="round" stroke-linejoin="round"/>
<path d="M542.826 814.491C542.826 819.211 538.999 823.038 534.279 823.038C529.559 823.038 525.732 819.211 525.732 814.491C525.732 809.771 529.559 805.944 534.279 805.944C538.999 805.944 542.826 809.771 542.826 814.491Z" fill="white"/>
<path d="M542.826 814.491C542.826 819.211 538.999 823.038 534.279 823.038C529.559 823.038 525.732 819.211 525.732 814.491C525.732 809.771 529.559 805.944 534.279 805.944C538.999 805.944 542.826 809.771 542.826 814.491Z" stroke="#0626A9" stroke-width="2" stroke-linecap="round" stroke-linejoin="round"/>
<path d="M549.376 814.491H594.105" stroke="#0626A9" stroke-width="2" stroke-linecap="round" stroke-linejoin="round"/>
</g>
<path d="M828.661 608.435H1002.38" stroke="#0626A9" stroke-width="2" stroke-linecap="round" stroke-linejoin="round"/>
<path d="M828.661 664.841H934.502" stroke="#0626A9" stroke-width="2" stroke-linecap="round" stroke-linejoin="round"/>
<path d="M376.312 893.521H550.031" stroke="#0626A9" stroke-width="2" stroke-linecap="round" stroke-linejoin="round"/>
<path d="M376.312 949.928H902.39" stroke="#0626A9" stroke-width="2" stroke-linecap="round" stroke-linejoin="round"/>
<path d="M376.312 1006.33H735.02" stroke="#0626A9" stroke-width="2" stroke-linecap="round" stroke-linejoin="round"/>
<mask id="mask2_24_22281" style="mask-type:alpha" maskUnits="userSpaceOnUse" x="301" y="362" width="1077" height="701">
<path d="M1377.72 1062.74H301.856V362.551H1377.72V1062.74Z" fill="white"/>
</mask>
<g mask="url(#mask2_24_22281)">
<path d="M992.405 618.058C1110.1 608.384 1213.52 696.092 1223.2 813.791C1232.87 931.491 1145.16 1034.91 1027.46 1044.58C909.765 1054.26 806.347 966.55 796.672 848.85C786.998 731.151 874.706 627.733 992.405 618.058Z" fill="#0626A9"/>
</g>
<path d="M1441.43 1118.51L1052.75 836.693L1067.89 815.809L1456.57 1097.63L1441.43 1118.51Z" fill="#0626A9"/>
<path d="M1426.07 1125.32L1235.7 983.133L1264.44 944.808L1454.81 1086.99C1465.39 1094.93 1467.53 1109.94 1459.6 1120.53C1451.66 1131.11 1436.65 1133.26 1426.07 1125.32Z" fill="#84AAE4"/>
<path d="M1426.07 1125.32L1235.7 983.133L1264.44 944.808L1454.81 1086.99C1465.39 1094.93 1467.53 1109.94 1459.6 1120.53C1451.66 1131.11 1436.65 1133.26 1426.07 1125.32Z" stroke="#0626A9" stroke-width="2" stroke-linecap="round" stroke-linejoin="round"/>
<path d="M1250.1 768.764C1263.64 888.164 1177.82 995.932 1058.42 1009.47C939.018 1023 831.25 937.184 817.714 817.784C804.178 698.384 889.998 590.617 1009.4 577.081C1128.8 563.544 1236.57 649.364 1250.1 768.764Z" fill="#8869D5"/>
<path d="M1250.1 768.764C1263.64 888.164 1177.82 995.932 1058.42 1009.47C939.018 1023 831.25 937.184 817.714 817.784C804.178 698.384 889.998 590.617 1009.4 577.081C1128.8 563.544 1236.57 649.364 1250.1 768.764Z" stroke="#0626A9" stroke-width="2" stroke-linecap="round" stroke-linejoin="round"/>
<path d="M1210.05 773.305C1221.08 870.585 1151.16 958.389 1053.88 969.418C956.596 980.446 868.794 910.524 857.765 813.243C846.736 715.962 916.658 628.16 1013.94 617.131C1111.22 606.103 1199.02 676.024 1210.05 773.305Z" fill="white"/>
<path d="M1210.05 773.305C1221.08 870.585 1151.16 958.389 1053.88 969.418C956.596 980.446 868.794 910.524 857.765 813.243C846.736 715.962 916.658 628.16 1013.94 617.131C1111.22 606.103 1199.02 676.024 1210.05 773.305Z" stroke="#0626A9" stroke-width="2" stroke-linecap="round" stroke-linejoin="round"/>
<path d="M227.125 598.042C227.125 603.82 222.442 608.503 216.664 608.503C210.886 608.503 206.202 603.82 206.202 598.042C206.202 592.264 210.886 587.581 216.664 587.581C222.442 587.581 227.125 592.264 227.125 598.042Z" fill="#84AAE4"/>
<path d="M227.125 598.042C227.125 603.82 222.442 608.503 216.664 608.503C210.886 608.503 206.202 603.82 206.202 598.042C206.202 592.264 210.886 587.581 216.664 587.581C222.442 587.581 227.125 592.264 227.125 598.042Z" stroke="#0626A9" stroke-width="2" stroke-linecap="round" stroke-linejoin="round"/>
<path d="M289.101 707.037C289.101 710.404 286.37 713.134 283.003 713.134C279.636 713.134 276.906 710.404 276.906 707.037C276.906 703.67 279.636 700.94 283.003 700.94C286.37 700.94 289.101 703.67 289.101 707.037Z" stroke="#0626A9" stroke-width="2" stroke-linecap="round" stroke-linejoin="round"/>
<path d="M179.727 880.87C179.727 885.843 175.696 889.873 170.723 889.873C165.75 889.873 161.719 885.843 161.719 880.87C161.719 875.897 165.75 871.866 170.723 871.866C175.696 871.866 179.727 875.897 179.727 880.87Z" stroke="#0626A9" stroke-width="2" stroke-linecap="round" stroke-linejoin="round"/>
<path d="M894.837 1190.84C894.837 1195.8 890.818 1199.82 885.861 1199.82C880.904 1199.82 876.886 1195.8 876.886 1190.84C876.886 1185.89 880.904 1181.87 885.861 1181.87C890.818 1181.87 894.837 1185.89 894.837 1190.84Z" fill="#84AAE4"/>
<path d="M894.837 1190.84C894.837 1195.8 890.818 1199.82 885.861 1199.82C880.904 1199.82 876.886 1195.8 876.886 1190.84C876.886 1185.89 880.904 1181.87 885.861 1181.87C890.818 1181.87 894.837 1185.89 894.837 1190.84Z" stroke="#0626A9" stroke-width="2" stroke-linecap="round" stroke-linejoin="round"/>
<path d="M771.465 1287.5C771.465 1289.98 769.455 1291.99 766.977 1291.99C764.499 1291.99 762.49 1289.98 762.49 1287.5C762.49 1285.02 764.499 1283.01 766.977 1283.01C769.455 1283.01 771.465 1285.02 771.465 1287.5Z" fill="#84AAE4"/>
<path d="M771.465 1287.5C771.465 1289.98 769.455 1291.99 766.977 1291.99C764.499 1291.99 762.49 1289.98 762.49 1287.5C762.49 1285.02 764.499 1283.01 766.977 1283.01C769.455 1283.01 771.465 1285.02 771.465 1287.5Z" stroke="#0626A9" stroke-width="2" stroke-linecap="round" stroke-linejoin="round"/>
<path d="M1454.92 583.216C1454.92 588.885 1450.32 593.481 1444.66 593.481C1438.99 593.481 1434.39 588.885 1434.39 583.216C1434.39 577.547 1438.99 572.952 1444.66 572.952C1450.32 572.952 1454.92 577.547 1454.92 583.216Z" stroke="#0626A9" stroke-width="2" stroke-linecap="round" stroke-linejoin="round"/>
<path d="M1481.05 640.101C1481.05 648.032 1474.62 654.461 1466.69 654.461C1458.76 654.461 1452.33 648.032 1452.33 640.101C1452.33 632.17 1458.76 625.741 1466.69 625.741C1474.62 625.741 1481.05 632.17 1481.05 640.101Z" fill="#84AAE4"/>
<path d="M1481.05 640.101C1481.05 648.032 1474.62 654.461 1466.69 654.461C1458.76 654.461 1452.33 648.032 1452.33 640.101C1452.33 632.17 1458.76 625.741 1466.69 625.741C1474.62 625.741 1481.05 632.17 1481.05 640.101Z" stroke="#0626A9" stroke-width="2" stroke-linecap="round" stroke-linejoin="round"/>
<path d="M1403.52 492.869C1403.52 496.545 1400.54 499.524 1396.87 499.524C1393.19 499.524 1390.21 496.545 1390.21 492.869C1390.21 489.193 1393.19 486.213 1396.87 486.213C1400.54 486.213 1403.52 489.193 1403.52 492.869Z" fill="#84AAE4"/>
<path d="M1403.52 492.869C1403.52 496.545 1400.54 499.524 1396.87 499.524C1393.19 499.524 1390.21 496.545 1390.21 492.869C1390.21 489.193 1393.19 486.213 1396.87 486.213C1400.54 486.213 1403.52 489.193 1403.52 492.869Z" stroke="#0626A9" stroke-width="2" stroke-linecap="round" stroke-linejoin="round"/>
</g>
</g>
<defs>
<clipPath id="clip0_24_22281">
<rect width="1600" height="1600" fill="white"/>
</clipPath>
<clipPath id="clip1_24_22281">
<rect width="251.445" height="257.383" fill="white" transform="translate(381 575)"/>
</clipPath>
</defs>
</svg>
