<svg xmlns="http://www.w3.org/2000/svg" xmlns:xlink="http://www.w3.org/1999/xlink" viewBox="0 0 1600 1600" width="1600" height="1600" preserveAspectRatio="xMidYMid meet" style="width: 100%; height: 100%; transform: translate3d(0px, 0px, 0px); content-visibility: visible;"><defs><clipPath id="__lottie_element_2"><rect width="1600" height="1600" x="0" y="0"></rect></clipPath><g id="__lottie_element_33"><g transform="matrix(1,0,0,1,816.614013671875,793.6810302734375)" opacity="1" style="display: block;"><g opacity="1" transform="matrix(1,0,0,1,0,0)"><path fill="rgb(255,255,255)" fill-opacity="1" d=" M561.1099853515625,269.05999755859375 C561.1099853515625,269.05999755859375 -514.7570190429688,269.05999755859375 -514.7570190429688,269.05999755859375 C-514.7570190429688,269.05999755859375 -514.7570190429688,-431.1300048828125 -514.7570190429688,-431.1300048828125 C-514.7570190429688,-431.1300048828125 561.1099853515625,-431.1300048828125 561.1099853515625,-431.1300048828125 C561.1099853515625,-431.1300048828125 561.1099853515625,269.05999755859375 561.1099853515625,269.05999755859375z"></path><path stroke-linecap="round" stroke-linejoin="round" fill-opacity="0" stroke="rgb(32,40,112)" stroke-opacity="1" stroke-width="0" d=" M561.1099853515625,269.05999755859375 C561.1099853515625,269.05999755859375 -514.7570190429688,269.05999755859375 -514.7570190429688,269.05999755859375 C-514.7570190429688,269.05999755859375 -514.7570190429688,-431.1300048828125 -514.7570190429688,-431.1300048828125 C-514.7570190429688,-431.1300048828125 561.1099853515625,-431.1300048828125 561.1099853515625,-431.1300048828125 C561.1099853515625,-431.1300048828125 561.1099853515625,269.05999755859375 561.1099853515625,269.05999755859375z"></path></g></g></g><mask id="__lottie_element_33_1" mask-type="alpha"><use xlink:href="#__lottie_element_33"></use></mask></defs><g clip-path="url(#__lottie_element_2)"><g transform="matrix(1,0,0,1,793.8590087890625,794.1270141601562)" opacity="1" style="display: block;"><g opacity="1" transform="matrix(1,0,0,1,0,0)"><path fill="rgb(255,255,255)" fill-opacity="1" d=" M-110.01499938964844,356.5169982910156 C-110.01499938964844,356.5169982910156 -596.8410034179688,356.5169982910156 -596.8410034179688,356.5169982910156 C-596.8410034179688,356.5169982910156 -596.8410034179688,5.0980000495910645 -596.8410034179688,5.0980000495910645 C-596.8410034179688,5.0980000495910645 -110.01499938964844,5.0980000495910645 -110.01499938964844,5.0980000495910645 C-110.01499938964844,5.0980000495910645 -110.01499938964844,356.5169982910156 -110.01499938964844,356.5169982910156z"></path><path stroke-linecap="round" stroke-linejoin="round" fill-opacity="0" stroke="rgb(32,40,112)" stroke-opacity="1" stroke-width="2" d=" M-110.01499938964844,356.5169982910156 C-110.01499938964844,356.5169982910156 -596.8410034179688,356.5169982910156 -596.8410034179688,356.5169982910156 C-596.8410034179688,356.5169982910156 -596.8410034179688,5.0980000495910645 -596.8410034179688,5.0980000495910645 C-596.8410034179688,5.0980000495910645 -110.01499938964844,5.0980000495910645 -110.01499938964844,5.0980000495910645 C-110.01499938964844,5.0980000495910645 -110.01499938964844,356.5169982910156 -110.01499938964844,356.5169982910156z"></path></g></g><g transform="matrix(1,0,0,1,785.0030517578125,790.083984375)" opacity="1" style="display: block;"><g opacity="1" transform="matrix(1,0,0,1,0,0)"><path fill="rgb(32,40,112)" fill-opacity="1" d=" M-98.52799987792969,128.1739959716797 C-98.52799987792969,128.1739959716797 -481.35101318359375,146.98199462890625 -481.35101318359375,146.98199462890625 C-481.35101318359375,146.98199462890625 -481.8680114746094,273.2449951171875 -481.8680114746094,273.2449951171875 C-481.8680114746094,273.2449951171875 -101,304 -101,304 C-101,304 -98.52799987792969,128.1739959716797 -98.52799987792969,128.1739959716797z"></path><path stroke-linecap="butt" stroke-linejoin="miter" fill-opacity="0" stroke-miterlimit="4" stroke="rgb(255,253,253)" stroke-opacity="1" stroke-width="0" d=" M-98.52799987792969,128.1739959716797 C-98.52799987792969,128.1739959716797 -481.35101318359375,146.98199462890625 -481.35101318359375,146.98199462890625 C-481.35101318359375,146.98199462890625 -481.8680114746094,273.2449951171875 -481.8680114746094,273.2449951171875 C-481.8680114746094,273.2449951171875 -101,304 -101,304 C-101,304 -98.52799987792969,128.1739959716797 -98.52799987792969,128.1739959716797z"></path></g></g><g transform="matrix(1,0,0,1,816.614013671875,793.6810302734375)" opacity="1" style="display: block;"><g opacity="1" transform="matrix(1,0,0,1,0,0)"><path fill="rgb(255,255,255)" fill-opacity="1" d=" M561.1099853515625,269.05999755859375 C561.1099853515625,269.05999755859375 -514.7570190429688,269.05999755859375 -514.7570190429688,269.05999755859375 C-514.7570190429688,269.05999755859375 -514.7570190429688,-431.1300048828125 -514.7570190429688,-431.1300048828125 C-514.7570190429688,-431.1300048828125 561.1099853515625,-431.1300048828125 561.1099853515625,-431.1300048828125 C561.1099853515625,-431.1300048828125 561.1099853515625,269.05999755859375 561.1099853515625,269.05999755859375z"></path><path stroke-linecap="round" stroke-linejoin="round" fill-opacity="0" stroke="rgb(32,40,112)" stroke-opacity="1" stroke-width="2" d=" M561.1099853515625,269.05999755859375 C561.1099853515625,269.05999755859375 -514.7570190429688,269.05999755859375 -514.7570190429688,269.05999755859375 C-514.7570190429688,269.05999755859375 -514.7570190429688,-431.1300048828125 -514.7570190429688,-431.1300048828125 C-514.7570190429688,-431.1300048828125 561.1099853515625,-431.1300048828125 561.1099853515625,-431.1300048828125 C561.1099853515625,-431.1300048828125 561.1099853515625,269.05999755859375 561.1099853515625,269.05999755859375z"></path></g><g opacity="1" transform="matrix(1,0,0,1,0,0)"><path fill="rgb(32,40,112)" fill-opacity="1" d=" M561.1099853515625,-380.625 C561.1099853515625,-380.625 -514.7570190429688,-380.625 -514.7570190429688,-380.625 C-514.7570190429688,-380.625 -514.7570190429688,-431.1300048828125 -514.7570190429688,-431.1300048828125 C-514.7570190429688,-431.1300048828125 561.1099853515625,-431.1300048828125 561.1099853515625,-431.1300048828125 C561.1099853515625,-431.1300048828125 561.1099853515625,-380.625 561.1099853515625,-380.625z"></path><path stroke-linecap="round" stroke-linejoin="round" fill-opacity="0" stroke="rgb(132,132,250)" stroke-opacity="1" stroke-width="2" d=" M561.1099853515625,-380.625 C561.1099853515625,-380.625 -514.7570190429688,-380.625 -514.7570190429688,-380.625 C-514.7570190429688,-380.625 -514.7570190429688,-431.1300048828125 -514.7570190429688,-431.1300048828125 C-514.7570190429688,-431.1300048828125 561.1099853515625,-431.1300048828125 561.1099853515625,-431.1300048828125 C561.1099853515625,-431.1300048828125 561.1099853515625,-380.625 561.1099853515625,-380.625z"></path></g><g opacity="1" transform="matrix(1,0,0,1,0,0)"><g opacity="1" transform="matrix(1,0,0,1,0,0)"><path fill="rgb(249,74,130)" fill-opacity="1" d=" M-473.843994140625,-405.87701416015625 C-473.843994140625,-401.7149963378906 -477.2179870605469,-398.34100341796875 -481.3800048828125,-398.34100341796875 C-485.5419921875,-398.34100341796875 -488.9169921875,-401.7149963378906 -488.9169921875,-405.87701416015625 C-488.9169921875,-410.03900146484375 -485.5419921875,-413.41400146484375 -481.3800048828125,-413.41400146484375 C-477.2179870605469,-413.41400146484375 -473.843994140625,-410.03900146484375 -473.843994140625,-405.87701416015625z"></path><path stroke-linecap="round" stroke-linejoin="round" fill-opacity="0" stroke="rgb(32,40,112)" stroke-opacity="1" stroke-width="2" d=" M-473.843994140625,-405.87701416015625 C-473.843994140625,-401.7149963378906 -477.2179870605469,-398.34100341796875 -481.3800048828125,-398.34100341796875 C-485.5419921875,-398.34100341796875 -488.9169921875,-401.7149963378906 -488.9169921875,-405.87701416015625 C-488.9169921875,-410.03900146484375 -485.5419921875,-413.41400146484375 -481.3800048828125,-413.41400146484375 C-477.2179870605469,-413.41400146484375 -473.843994140625,-410.03900146484375 -473.843994140625,-405.87701416015625z"></path></g><g opacity="1" transform="matrix(1,0,0,1,0,0)"><path fill="rgb(255,255,255)" fill-opacity="1" d=" M-439.7829895019531,-405.87701416015625 C-439.7829895019531,-401.7149963378906 -443.1570129394531,-398.34100341796875 -447.3190002441406,-398.34100341796875 C-451.4809875488281,-398.34100341796875 -454.8559875488281,-401.7149963378906 -454.8559875488281,-405.87701416015625 C-454.8559875488281,-410.03900146484375 -451.4809875488281,-413.41400146484375 -447.3190002441406,-413.41400146484375 C-443.1570129394531,-413.41400146484375 -439.7829895019531,-410.03900146484375 -439.7829895019531,-405.87701416015625z"></path><path stroke-linecap="round" stroke-linejoin="round" fill-opacity="0" stroke="rgb(32,40,112)" stroke-opacity="1" stroke-width="2" d=" M-439.7829895019531,-405.87701416015625 C-439.7829895019531,-401.7149963378906 -443.1570129394531,-398.34100341796875 -447.3190002441406,-398.34100341796875 C-451.4809875488281,-398.34100341796875 -454.8559875488281,-401.7149963378906 -454.8559875488281,-405.87701416015625 C-454.8559875488281,-410.03900146484375 -451.4809875488281,-413.41400146484375 -447.3190002441406,-413.41400146484375 C-443.1570129394531,-413.41400146484375 -439.7829895019531,-410.03900146484375 -439.7829895019531,-405.87701416015625z"></path></g><g opacity="1" transform="matrix(1,0,0,1,0,0)"><path fill="rgb(132,132,250)" fill-opacity="1" d=" M-405.72100830078125,-405.87701416015625 C-405.72100830078125,-401.7149963378906 -409.09600830078125,-398.34100341796875 -413.25799560546875,-398.34100341796875 C-417.4200134277344,-398.34100341796875 -420.79400634765625,-401.7149963378906 -420.79400634765625,-405.87701416015625 C-420.79400634765625,-410.03900146484375 -417.4200134277344,-413.41400146484375 -413.25799560546875,-413.41400146484375 C-409.09600830078125,-413.41400146484375 -405.72100830078125,-410.03900146484375 -405.72100830078125,-405.87701416015625z"></path><path stroke-linecap="round" stroke-linejoin="round" fill-opacity="0" stroke="rgb(32,40,112)" stroke-opacity="1" stroke-width="2" d=" M-405.72100830078125,-405.87701416015625 C-405.72100830078125,-401.7149963378906 -409.09600830078125,-398.34100341796875 -413.25799560546875,-398.34100341796875 C-417.4200134277344,-398.34100341796875 -420.79400634765625,-401.7149963378906 -420.79400634765625,-405.87701416015625 C-420.79400634765625,-410.03900146484375 -417.4200134277344,-413.41400146484375 -413.25799560546875,-413.41400146484375 C-409.09600830078125,-413.41400146484375 -405.72100830078125,-410.03900146484375 -405.72100830078125,-405.87701416015625z"></path></g></g></g><g transform="matrix(1,0,0,1,816.614013671875,793.6810302734375)" opacity="1" style="display: block;"><g opacity="1" transform="matrix(1,0,0,1,0,0)"><path stroke-linecap="round" stroke-linejoin="round" fill-opacity="0" stroke="rgb(32,40,112)" stroke-opacity="1" stroke-width="2" d=" M486.6549987792969,-253.62100219726562 C486.6549987792969,-253.62100219726562 -440.3009948730469,-253.62100219726562 -440.3009948730469,-253.62100219726562 C-440.3009948730469,-253.62100219726562 -440.3009948730469,-323.8580017089844 -440.3009948730469,-323.8580017089844 C-440.3009948730469,-323.8580017089844 486.6549987792969,-323.8580017089844 486.6549987792969,-323.8580017089844 C486.6549987792969,-323.8580017089844 486.6549987792969,-253.62100219726562 486.6549987792969,-253.62100219726562z"></path></g><g opacity="1" transform="matrix(1,0,0,1,0,0)"><g opacity="1" transform="matrix(1,0,0,1,0,0)"><path stroke-linecap="round" stroke-linejoin="round" fill-opacity="0" stroke="rgb(32,40,112)" stroke-opacity="1" stroke-width="2" d=" M-385.72698974609375,-293.02301025390625 C-385.72698974609375,-284.7430114746094 -392.4389953613281,-278.031005859375 -400.718994140625,-278.031005859375 C-408.9989929199219,-278.031005859375 -415.71099853515625,-284.7430114746094 -415.71099853515625,-293.02301025390625 C-415.71099853515625,-301.3030090332031 -408.9989929199219,-308.0150146484375 -400.718994140625,-308.0150146484375 C-392.4389953613281,-308.0150146484375 -385.72698974609375,-301.3030090332031 -385.72698974609375,-293.02301025390625z"></path></g><g opacity="1" transform="matrix(1,0,0,1,0,0)"><path stroke-linecap="round" stroke-linejoin="round" fill-opacity="0" stroke="rgb(32,40,112)" stroke-opacity="1" stroke-width="2" d=" M-390.2640075683594,-282.2829895019531 C-390.2640075683594,-282.2829895019531 -377.4460144042969,-269.4639892578125 -377.4460144042969,-269.4639892578125"></path></g></g><g opacity="1" transform="matrix(1,0,0,1,0,0)"><path stroke-linecap="round" stroke-linejoin="round" fill-opacity="0" stroke="rgb(32,40,112)" stroke-opacity="1" stroke-width="2" d=" M-352.9429931640625,-323.8580017089844 C-352.9429931640625,-323.8580017089844 -352.9429931640625,-253.62100219726562 -352.9429931640625,-253.62100219726562"></path></g><g opacity="1" transform="matrix(1,0,0,1,0,0)"><path stroke-linecap="round" stroke-linejoin="round" fill-opacity="0" stroke="rgb(32,40,112)" stroke-opacity="1" stroke-width="2" d=" M-318.2590026855469,-288.739990234375 C-318.2590026855469,-288.739990234375 22.829999923706055,-288.739990234375 22.829999923706055,-288.739990234375"></path></g></g><g transform="matrix(1,0,0,1,816.614013671875,793.6810302734375)" opacity="1" style="display: block;"><g opacity="1" transform="matrix(1,0,0,1,0,0)"><path fill="rgb(132,132,250)" fill-opacity="1" d=" M-50.77899932861328,43.43299865722656 C-50.77899932861328,43.43299865722656 -440.3009948730469,43.43299865722656 -440.3009948730469,43.43299865722656 C-440.3009948730469,43.43299865722656 -440.3009948730469,-185.24600219726562 -440.3009948730469,-185.24600219726562 C-440.3009948730469,-185.24600219726562 -50.77899932861328,-185.24600219726562 -50.77899932861328,-185.24600219726562 C-50.77899932861328,-185.24600219726562 -50.77899932861328,43.43299865722656 -50.77899932861328,43.43299865722656z"></path><path stroke-linecap="round" stroke-linejoin="round" fill-opacity="0" stroke="rgb(32,40,112)" stroke-opacity="1" stroke-width="2" d=" M-50.77899932861328,43.43299865722656 C-50.77899932861328,43.43299865722656 -440.3009948730469,43.43299865722656 -440.3009948730469,43.43299865722656 C-440.3009948730469,43.43299865722656 -440.3009948730469,-185.24600219726562 -440.3009948730469,-185.24600219726562 C-440.3009948730469,-185.24600219726562 -50.77899932861328,-185.24600219726562 -50.77899932861328,-185.24600219726562 C-50.77899932861328,-185.24600219726562 -50.77899932861328,43.43299865722656 -50.77899932861328,43.43299865722656z"></path></g><g opacity="1" transform="matrix(1,0,0,1,0,0)"><g opacity="1" transform="matrix(1,0,0,1,0,0)"><path fill="rgb(32,40,112)" fill-opacity="1" d=" M-181.3699951171875,-70.90699768066406 C-181.3699951171875,-35.46699905395508 -210.10000610351562,-6.736000061035156 -245.5399932861328,-6.736000061035156 C-280.9800109863281,-6.736000061035156 -309.7099914550781,-35.46699905395508 -309.7099914550781,-70.90699768066406 C-309.7099914550781,-106.34700012207031 -280.9800109863281,-135.07699584960938 -245.5399932861328,-135.07699584960938 C-210.10000610351562,-135.07699584960938 -181.3699951171875,-106.34700012207031 -181.3699951171875,-70.90699768066406z"></path><path stroke-linecap="round" stroke-linejoin="round" fill-opacity="0" stroke="rgb(32,40,112)" stroke-opacity="1" stroke-width="2" d=" M-181.3699951171875,-70.90699768066406 C-181.3699951171875,-35.46699905395508 -210.10000610351562,-6.736000061035156 -245.5399932861328,-6.736000061035156 C-280.9800109863281,-6.736000061035156 -309.7099914550781,-35.46699905395508 -309.7099914550781,-70.90699768066406 C-309.7099914550781,-106.34700012207031 -280.9800109863281,-135.07699584960938 -245.5399932861328,-135.07699584960938 C-210.10000610351562,-135.07699584960938 -181.3699951171875,-106.34700012207031 -181.3699951171875,-70.90699768066406z"></path></g><g opacity="1" transform="matrix(1.014140009880066,0,0,1.014140009880066,3.4643096923828125,1.0039443969726562)"><path fill="rgb(255,255,255)" fill-opacity="1" d=" M-263.1099853515625,-46.46099853515625 C-263.1099853515625,-46.46099853515625 -263.1099853515625,-95.35199737548828 -263.1099853515625,-95.35199737548828 C-263.1099853515625,-95.35199737548828 -214.218994140625,-70.90699768066406 -214.218994140625,-70.90699768066406 C-214.218994140625,-70.90699768066406 -263.1099853515625,-46.46099853515625 -263.1099853515625,-46.46099853515625z"></path><path stroke-linecap="round" stroke-linejoin="round" fill-opacity="0" stroke="rgb(32,40,112)" stroke-opacity="1" stroke-width="2" d=" M-263.1099853515625,-46.46099853515625 C-263.1099853515625,-46.46099853515625 -263.1099853515625,-95.35199737548828 -263.1099853515625,-95.35199737548828 C-263.1099853515625,-95.35199737548828 -214.218994140625,-70.90699768066406 -214.218994140625,-70.90699768066406 C-214.218994140625,-70.90699768066406 -263.1099853515625,-46.46099853515625 -263.1099853515625,-46.46099853515625z"></path></g></g></g><g transform="matrix(1,0,0,1,816.614013671875,793.6810302734375)" opacity="1" style="display: block;"><g opacity="1" transform="matrix(1,0,0,1,0,0)"><path stroke-linecap="round" stroke-linejoin="round" fill-opacity="0" stroke="rgb(32,40,112)" stroke-opacity="1" stroke-width="2" d=" M12.04699993133545,-185.24600219726562 C12.04699993133545,-185.24600219726562 185.76600646972656,-185.24600219726562 185.76600646972656,-185.24600219726562"></path></g><g opacity="1" transform="matrix(1,0,0,1,0,0)"><path stroke-linecap="round" stroke-linejoin="round" fill-opacity="0" stroke="rgb(32,40,112)" stroke-opacity="1" stroke-width="2" d=" M12.04699993133545,-128.83999633789062 C12.04699993133545,-128.83999633789062 117.88800048828125,-128.83999633789062 117.88800048828125,-128.83999633789062"></path></g></g><g transform="matrix(1,0,0,1,816.614013671875,793.6810302734375)" opacity="1" style="display: block;"><g opacity="1" transform="matrix(1,0,0,1,0,0)"><path stroke-linecap="round" stroke-linejoin="round" fill-opacity="0" stroke="rgb(32,40,112)" stroke-opacity="1" stroke-width="2" d=" M-440.3009948730469,99.83999633789062 C-440.3009948730469,99.83999633789062 -266.5820007324219,99.83999633789062 -266.5820007324219,99.83999633789062"></path></g><g opacity="1" transform="matrix(1,0,0,1,0,0)"><path stroke-linecap="round" stroke-linejoin="round" fill-opacity="0" stroke="rgb(32,40,112)" stroke-opacity="1" stroke-width="2" d=" M-440.3009948730469,156.2469940185547 C-440.3009948730469,156.2469940185547 85.7760009765625,156.2469940185547 85.7760009765625,156.2469940185547"></path></g><g opacity="1" transform="matrix(1,0,0,1,0,0)"><path stroke-linecap="round" stroke-linejoin="round" fill-opacity="0" stroke="rgb(32,40,112)" stroke-opacity="1" stroke-width="2" d=" M-440.3009948730469,212.6529998779297 C-440.3009948730469,212.6529998779297 -81.59400177001953,212.6529998779297 -81.59400177001953,212.6529998779297"></path></g></g><g mask="url(#__lottie_element_33_1)" style="display: block;"><g transform="matrix(0.996638834476471,-0.08192110806703568,0.08192110806703568,0.996638834476471,773.4718627929688,786.5416259765625)" opacity="1"><g opacity="1" transform="matrix(1.048930048942566,0,0,1.048930048942566,232,64)"><path fill="rgb(32,40,112)" fill-opacity="1" d=" M0,-204 C112.58760070800781,-204 204,-112.58760070800781 204,0 C204,112.58760070800781 112.58760070800781,204 0,204 C-112.58760070800781,204 -204,112.58760070800781 -204,0 C-204,-112.58760070800781 -112.58760070800781,-204 0,-204z"></path><path stroke-linecap="butt" stroke-linejoin="miter" fill-opacity="0" stroke-miterlimit="4" stroke="rgb(255,253,253)" stroke-opacity="1" stroke-width="0" d=" M0,-204 C112.58760070800781,-204 204,-112.58760070800781 204,0 C204,112.58760070800781 112.58760070800781,204 0,204 C-112.58760070800781,204 -204,112.58760070800781 -204,0 C-204,-112.58760070800781 -112.58760070800781,-204 0,-204z"></path></g></g></g><g transform="matrix(0.9936349391937256,-0.11264827847480774,0.11264827847480774,0.9936349391937256,752.8635864257812,838.2402954101562)" opacity="1" style="display: block;"><g opacity="1" transform="matrix(1,0,0,1,0,0)"><g opacity="1" transform="matrix(1,0,0,1,0,0)"><path fill="rgb(32,40,112)" fill-opacity="1" d=" M652.6090087890625,356.0509948730469 C652.6090087890625,356.0509948730469 298.1510009765625,32.24399948120117 298.1510009765625,32.24399948120117 C298.1510009765625,32.24399948120117 315.54998779296875,13.199000358581543 315.54998779296875,13.199000358581543 C315.54998779296875,13.199000358581543 670.0079956054688,337.0060119628906 670.0079956054688,337.0060119628906 C670.0079956054688,337.0060119628906 652.6090087890625,356.0509948730469 652.6090087890625,356.0509948730469z"></path></g><g opacity="1" transform="matrix(1,0,0,1,0,0)"><path fill="rgb(132,132,250)" fill-opacity="1" d=" M636.5780029296875,361.0880126953125 C636.5780029296875,361.0880126953125 463.4419860839844,198.36099243164062 463.4419860839844,198.36099243164062 C463.4419860839844,198.36099243164062 496.3179931640625,163.51800537109375 496.3179931640625,163.51800537109375 C496.3179931640625,163.51800537109375 669.4530029296875,326.2430114746094 669.4530029296875,326.2430114746094 C679.0750122070312,335.3210144042969 679.5150146484375,350.4809875488281 670.43701171875,360.1029968261719 C670.43701171875,360.1029968261719 670.43701171875,360.1029968261719 670.43701171875,360.1029968261719 C661.3590087890625,369.7250061035156 646.2000122070312,370.1659851074219 636.5780029296875,361.0880126953125z"></path><path stroke-linecap="round" stroke-linejoin="round" fill-opacity="0" stroke="rgb(32,40,112)" stroke-opacity="1" stroke-width="2" d=" M636.5780029296875,361.0880126953125 C636.5780029296875,361.0880126953125 463.4419860839844,198.36099243164062 463.4419860839844,198.36099243164062 C463.4419860839844,198.36099243164062 496.3179931640625,163.51800537109375 496.3179931640625,163.51800537109375 C496.3179931640625,163.51800537109375 669.4530029296875,326.2430114746094 669.4530029296875,326.2430114746094 C679.0750122070312,335.3210144042969 679.5150146484375,350.4809875488281 670.43701171875,360.1029968261719 C670.43701171875,360.1029968261719 670.43701171875,360.1029968261719 670.43701171875,360.1029968261719 C661.3590087890625,369.7250061035156 646.2000122070312,370.1659851074219 636.5780029296875,361.0880126953125z"></path></g></g><g opacity="1" transform="matrix(1,0,0,1,0,0)"><g opacity="1" transform="matrix(1,0,0,1,0,0)"><path fill="rgb(249,74,130)" fill-opacity="1" d=" M501.8999938964844,-13.020999908447266 C501.8999938964844,107.14399719238281 404.4859924316406,204.55799865722656 284.3210144042969,204.55799865722656 C164.156005859375,204.55799865722656 66.74199676513672,107.14399719238281 66.74199676513672,-13.020999908447266 C66.74199676513672,-133.18600463867188 164.156005859375,-230.5989990234375 284.3210144042969,-230.5989990234375 C404.4859924316406,-230.5989990234375 501.8999938964844,-133.18600463867188 501.8999938964844,-13.020999908447266z"></path><path stroke-linecap="round" stroke-linejoin="round" fill-opacity="0" stroke="rgb(32,40,112)" stroke-opacity="1" stroke-width="2" d=" M501.8999938964844,-13.020999908447266 C501.8999938964844,107.14399719238281 404.4859924316406,204.55799865722656 284.3210144042969,204.55799865722656 C164.156005859375,204.55799865722656 66.74199676513672,107.14399719238281 66.74199676513672,-13.020999908447266 C66.74199676513672,-133.18600463867188 164.156005859375,-230.5989990234375 284.3210144042969,-230.5989990234375 C404.4859924316406,-230.5989990234375 501.8999938964844,-133.18600463867188 501.8999938964844,-13.020999908447266z"></path></g><g opacity="1" transform="matrix(1,0,0,1,0,0)"><path fill="rgb(255,255,255)" fill-opacity="1" d=" M461.5920104980469,-13.020999908447266 C461.5920104980469,84.88300323486328 382.2250061035156,164.25100708007812 284.3210144042969,164.25100708007812 C186.41700744628906,164.25100708007812 107.05000305175781,84.88300323486328 107.05000305175781,-13.020999908447266 C107.05000305175781,-110.92500305175781 186.41700744628906,-190.29200744628906 284.3210144042969,-190.29200744628906 C382.2250061035156,-190.29200744628906 461.5920104980469,-110.92500305175781 461.5920104980469,-13.020999908447266z"></path><path stroke-linecap="round" stroke-linejoin="round" fill-opacity="0" stroke="rgb(32,40,112)" stroke-opacity="1" stroke-width="2" d=" M461.5920104980469,-13.020999908447266 C461.5920104980469,84.88300323486328 382.2250061035156,164.25100708007812 284.3210144042969,164.25100708007812 C186.41700744628906,164.25100708007812 107.05000305175781,84.88300323486328 107.05000305175781,-13.020999908447266 C107.05000305175781,-110.92500305175781 186.41700744628906,-190.29200744628906 284.3210144042969,-190.29200744628906 C382.2250061035156,-190.29200744628906 461.5920104980469,-110.92500305175781 461.5920104980469,-13.020999908447266z"></path></g></g></g><g transform="matrix(1,0,0,1,749.5870361328125,806.294921875)" opacity="1" style="display: block;"><g opacity="1" transform="matrix(1,0,0,1,0,0)"><path stroke-linecap="round" stroke-linejoin="round" fill-opacity="0" stroke="rgb(32,40,112)" stroke-opacity="1" stroke-width="2" d=" M157.42100524902344,63.354000091552734 C157.42100524902344,63.354000091552734 411.22100830078125,63.354000091552734 411.22100830078125,63.354000091552734"></path></g><g opacity="1" transform="matrix(1,0,0,1,0,0)"><g opacity="1" transform="matrix(1,0,0,1,0,0)"><path fill="rgb(132,132,250)" fill-opacity="1" d=" M351.7099914550781,63.354000091552734 C351.7099914550781,63.354000091552734 391.7359924316406,63.354000091552734 391.7359924316406,63.354000091552734 C391.7359924316406,63.354000091552734 391.7359924316406,-89.3949966430664 391.7359924316406,-89.3949966430664 C391.7359924316406,-89.3949966430664 351.7099914550781,-89.3949966430664 351.7099914550781,-89.3949966430664 C351.7099914550781,-89.3949966430664 351.7099914550781,63.354000091552734 351.7099914550781,63.354000091552734z"></path><path stroke-linecap="round" stroke-linejoin="round" fill-opacity="0" stroke="rgb(32,40,112)" stroke-opacity="1" stroke-width="2" d=" M351.7099914550781,63.354000091552734 C351.7099914550781,63.354000091552734 391.7359924316406,63.354000091552734 391.7359924316406,63.354000091552734 C391.7359924316406,63.354000091552734 391.7359924316406,-89.3949966430664 391.7359924316406,-89.3949966430664 C391.7359924316406,-89.3949966430664 351.7099914550781,-89.3949966430664 351.7099914550781,-89.3949966430664 C351.7099914550781,-89.3949966430664 351.7099914550781,63.354000091552734 351.7099914550781,63.354000091552734z"></path></g><g opacity="1" transform="matrix(1,0,0,1,0,0)"><path fill="rgb(132,132,250)" fill-opacity="1" d=" M293.4419860839844,63.354000091552734 C293.4419860839844,63.354000091552734 333.4679870605469,63.354000091552734 333.4679870605469,63.354000091552734 C333.4679870605469,63.354000091552734 333.4679870605469,-49.308998107910156 333.4679870605469,-49.308998107910156 C333.4679870605469,-49.308998107910156 293.4419860839844,-49.308998107910156 293.4419860839844,-49.308998107910156 C293.4419860839844,-49.308998107910156 293.4419860839844,63.354000091552734 293.4419860839844,63.354000091552734z"></path><path stroke-linecap="round" stroke-linejoin="round" fill-opacity="0" stroke="rgb(32,40,112)" stroke-opacity="1" stroke-width="2" d=" M293.4419860839844,63.354000091552734 C293.4419860839844,63.354000091552734 333.4679870605469,63.354000091552734 333.4679870605469,63.354000091552734 C333.4679870605469,63.354000091552734 333.4679870605469,-49.308998107910156 333.4679870605469,-49.308998107910156 C333.4679870605469,-49.308998107910156 293.4419860839844,-49.308998107910156 293.4419860839844,-49.308998107910156 C293.4419860839844,-49.308998107910156 293.4419860839844,63.354000091552734 293.4419860839844,63.354000091552734z"></path></g><g opacity="1" transform="matrix(1,0,0,1,0,0)"><path fill="rgb(132,132,250)" fill-opacity="1" d=" M235.1739959716797,63.354000091552734 C235.1739959716797,63.354000091552734 275.1990051269531,63.354000091552734 275.1990051269531,63.354000091552734 C275.1990051269531,63.354000091552734 275.1990051269531,-9.223999977111816 275.1990051269531,-9.223999977111816 C275.1990051269531,-9.223999977111816 235.1739959716797,-9.223999977111816 235.1739959716797,-9.223999977111816 C235.1739959716797,-9.223999977111816 235.1739959716797,63.354000091552734 235.1739959716797,63.354000091552734z"></path><path stroke-linecap="round" stroke-linejoin="round" fill-opacity="0" stroke="rgb(32,40,112)" stroke-opacity="1" stroke-width="2" d=" M235.1739959716797,63.354000091552734 C235.1739959716797,63.354000091552734 275.1990051269531,63.354000091552734 275.1990051269531,63.354000091552734 C275.1990051269531,63.354000091552734 275.1990051269531,-9.223999977111816 275.1990051269531,-9.223999977111816 C275.1990051269531,-9.223999977111816 235.1739959716797,-9.223999977111816 235.1739959716797,-9.223999977111816 C235.1739959716797,-9.223999977111816 235.1739959716797,63.354000091552734 235.1739959716797,63.354000091552734z"></path></g><g opacity="1" transform="matrix(1,0,0,1,0,0)"><path fill="rgb(132,132,250)" fill-opacity="1" d=" M176.906005859375,63.354000091552734 C176.906005859375,63.354000091552734 216.93099975585938,63.354000091552734 216.93099975585938,63.354000091552734 C216.93099975585938,63.354000091552734 216.93099975585938,30.86199951171875 216.93099975585938,30.86199951171875 C216.93099975585938,30.86199951171875 176.906005859375,30.86199951171875 176.906005859375,30.86199951171875 C176.906005859375,30.86199951171875 176.906005859375,63.354000091552734 176.906005859375,63.354000091552734z"></path><path stroke-linecap="round" stroke-linejoin="round" fill-opacity="0" stroke="rgb(32,40,112)" stroke-opacity="1" stroke-width="2" d=" M176.906005859375,63.354000091552734 C176.906005859375,63.354000091552734 216.93099975585938,63.354000091552734 216.93099975585938,63.354000091552734 C216.93099975585938,63.354000091552734 216.93099975585938,30.86199951171875 216.93099975585938,30.86199951171875 C216.93099975585938,30.86199951171875 176.906005859375,30.86199951171875 176.906005859375,30.86199951171875 C176.906005859375,30.86199951171875 176.906005859375,63.354000091552734 176.906005859375,63.354000091552734z"></path></g></g></g><g transform="matrix(1,0,0,1,823.9660034179688,743.5799560546875)" opacity="1" style="display: block;"><g opacity="1" transform="matrix(1,0,0,1,0,0)"><path fill="rgb(132,132,250)" fill-opacity="1" d=" M-596.8410034179688,-145.53799438476562 C-596.8410034179688,-139.75999450683594 -601.5239868164062,-135.07699584960938 -607.302001953125,-135.07699584960938 C-613.0800170898438,-135.07699584960938 -617.7639770507812,-139.75999450683594 -617.7639770507812,-145.53799438476562 C-617.7639770507812,-151.3159942626953 -613.0800170898438,-155.99899291992188 -607.302001953125,-155.99899291992188 C-601.5239868164062,-155.99899291992188 -596.8410034179688,-151.3159942626953 -596.8410034179688,-145.53799438476562z"></path><path stroke-linecap="round" stroke-linejoin="round" fill-opacity="0" stroke="rgb(32,40,112)" stroke-opacity="1" stroke-width="2" d=" M-596.8410034179688,-145.53799438476562 C-596.8410034179688,-139.75999450683594 -601.5239868164062,-135.07699584960938 -607.302001953125,-135.07699584960938 C-613.0800170898438,-135.07699584960938 -617.7639770507812,-139.75999450683594 -617.7639770507812,-145.53799438476562 C-617.7639770507812,-151.3159942626953 -613.0800170898438,-155.99899291992188 -607.302001953125,-155.99899291992188 C-601.5239868164062,-155.99899291992188 -596.8410034179688,-151.3159942626953 -596.8410034179688,-145.53799438476562z"></path></g></g><g transform="matrix(1,0,0,1,827.656005859375,802.4320068359375)" opacity="1" style="display: block;"><g opacity="1" transform="matrix(1,0,0,1,0,0)"><path stroke-linecap="round" stroke-linejoin="round" fill-opacity="0" stroke="rgb(32,40,112)" stroke-opacity="1" stroke-width="2" d=" M-538.5540161132812,-95.3949966430664 C-538.5540161132812,-92.02799987792969 -541.2849731445312,-89.2979965209961 -544.6519775390625,-89.2979965209961 C-548.0189819335938,-89.2979965209961 -550.7490234375,-92.02799987792969 -550.7490234375,-95.3949966430664 C-550.7490234375,-98.76200103759766 -548.0189819335938,-101.49199676513672 -544.6519775390625,-101.49199676513672 C-541.2849731445312,-101.49199676513672 -538.5540161132812,-98.76200103759766 -538.5540161132812,-95.3949966430664z"></path></g></g><g transform="matrix(1,0,0,1,838.68701171875,808.511962890625)" opacity="1" style="display: block;"><g opacity="1" transform="matrix(1,0,0,1,0,0)"><path stroke-linecap="round" stroke-linejoin="round" fill-opacity="0" stroke="rgb(32,40,112)" stroke-opacity="1" stroke-width="2" d=" M-658.9600219726562,72.35800170898438 C-658.9600219726562,77.33100128173828 -662.9910278320312,81.36100006103516 -667.9639892578125,81.36100006103516 C-672.93701171875,81.36100006103516 -676.968017578125,77.33100128173828 -676.968017578125,72.35800170898438 C-676.968017578125,67.38500213623047 -672.93701171875,63.354000091552734 -667.9639892578125,63.354000091552734 C-662.9910278320312,63.354000091552734 -658.9600219726562,67.38500213623047 -658.9600219726562,72.35800170898438z"></path></g></g><g transform="matrix(1,0,0,1,820.89404296875,818.1290283203125)" opacity="1" style="display: block;"><g opacity="1" transform="matrix(1,0,0,1,0,0)"><path fill="rgb(132,132,250)" fill-opacity="1" d=" M73.94300079345703,372.7149963378906 C73.94300079345703,377.6719970703125 69.92400360107422,381.69000244140625 64.96700286865234,381.69000244140625 C60.0099983215332,381.69000244140625 55.992000579833984,377.6719970703125 55.992000579833984,372.7149963378906 C55.992000579833984,367.75799560546875 60.0099983215332,363.739013671875 64.96700286865234,363.739013671875 C69.92400360107422,363.739013671875 73.94300079345703,367.75799560546875 73.94300079345703,372.7149963378906z"></path><path stroke-linecap="round" stroke-linejoin="round" fill-opacity="0" stroke="rgb(32,40,112)" stroke-opacity="1" stroke-width="2" d=" M73.94300079345703,372.7149963378906 C73.94300079345703,377.6719970703125 69.92400360107422,381.69000244140625 64.96700286865234,381.69000244140625 C60.0099983215332,381.69000244140625 55.992000579833984,377.6719970703125 55.992000579833984,372.7149963378906 C55.992000579833984,367.75799560546875 60.0099983215332,363.739013671875 64.96700286865234,363.739013671875 C69.92400360107422,363.739013671875 73.94300079345703,367.75799560546875 73.94300079345703,372.7149963378906z"></path></g></g><g transform="matrix(1,0,0,1,768.3930053710938,860.8580322265625)" opacity="1" style="display: block;"><g opacity="1" transform="matrix(1,0,0,1,0,0)"><path fill="rgb(132,132,250)" fill-opacity="1" d=" M3.072000026702881,426.6419982910156 C3.072000026702881,429.1199951171875 1.062000036239624,431.1300048828125 -1.4160000085830688,431.1300048828125 C-3.8940000534057617,431.1300048828125 -5.9029998779296875,429.1199951171875 -5.9029998779296875,426.6419982910156 C-5.9029998779296875,424.16400146484375 -3.8940000534057617,422.15399169921875 -1.4160000085830688,422.15399169921875 C1.062000036239624,422.15399169921875 3.072000026702881,424.16400146484375 3.072000026702881,426.6419982910156z"></path><path stroke-linecap="round" stroke-linejoin="round" fill-opacity="0" stroke="rgb(32,40,112)" stroke-opacity="1" stroke-width="2" d=" M3.072000026702881,426.6419982910156 C3.072000026702881,429.1199951171875 1.062000036239624,431.1300048828125 -1.4160000085830688,431.1300048828125 C-3.8940000534057617,431.1300048828125 -5.9029998779296875,429.1199951171875 -5.9029998779296875,426.6419982910156 C-5.9029998779296875,424.16400146484375 -3.8940000534057617,422.15399169921875 -1.4160000085830688,422.15399169921875 C1.062000036239624,422.15399169921875 3.072000026702881,424.16400146484375 3.072000026702881,426.6419982910156z"></path></g></g><g transform="matrix(1,0,0,1,810.2000122070312,759.7160034179688)" opacity="1" style="display: block;"><g opacity="1" transform="matrix(1,0,0,1,0,0)"><path stroke-linecap="round" stroke-linejoin="round" fill-opacity="0" stroke="rgb(32,40,112)" stroke-opacity="1" stroke-width="2" d=" M644.719970703125,-176.5 C644.719970703125,-170.83099365234375 640.125,-166.23500061035156 634.4559936523438,-166.23500061035156 C628.7869873046875,-166.23500061035156 624.1920166015625,-170.83099365234375 624.1920166015625,-176.5 C624.1920166015625,-182.16900634765625 628.7869873046875,-186.76400756835938 634.4559936523438,-186.76400756835938 C640.125,-186.76400756835938 644.719970703125,-182.16900634765625 644.719970703125,-176.5z"></path></g></g><g transform="matrix(1,0,0,1,870.1689453125,721.135986328125)" opacity="1" style="display: block;"><g opacity="1" transform="matrix(1,0,0,1,0,0)"><path fill="rgb(132,132,250)" fill-opacity="1" d=" M610.8809814453125,-81.03500366210938 C610.8809814453125,-73.10399627685547 604.4520263671875,-66.67500305175781 596.52099609375,-66.67500305175781 C588.5900268554688,-66.67500305175781 582.1610107421875,-73.10399627685547 582.1610107421875,-81.03500366210938 C582.1610107421875,-88.96600341796875 588.5900268554688,-95.3949966430664 596.52099609375,-95.3949966430664 C604.4520263671875,-95.3949966430664 610.8809814453125,-88.96600341796875 610.8809814453125,-81.03500366210938z"></path><path stroke-linecap="round" stroke-linejoin="round" fill-opacity="0" stroke="rgb(32,40,112)" stroke-opacity="1" stroke-width="2" d=" M610.8809814453125,-81.03500366210938 C610.8809814453125,-73.10399627685547 604.4520263671875,-66.67500305175781 596.52099609375,-66.67500305175781 C588.5900268554688,-66.67500305175781 582.1610107421875,-73.10399627685547 582.1610107421875,-81.03500366210938 C582.1610107421875,-88.96600341796875 588.5900268554688,-95.3949966430664 596.52099609375,-95.3949966430664 C604.4520263671875,-95.3949966430664 610.8809814453125,-88.96600341796875 610.8809814453125,-81.03500366210938z"></path></g></g><g transform="matrix(1,0,0,1,792.6420288085938,767.386962890625)" opacity="1" style="display: block;"><g opacity="1" transform="matrix(1,0,0,1,0,0)"><path fill="rgb(132,132,250)" fill-opacity="1" d=" M610.8809814453125,-274.51800537109375 C610.8809814453125,-270.8420104980469 607.9019775390625,-267.8630065917969 604.2260131835938,-267.8630065917969 C600.5499877929688,-267.8630065917969 597.5709838867188,-270.8420104980469 597.5709838867188,-274.51800537109375 C597.5709838867188,-278.1940002441406 600.5499877929688,-281.17401123046875 604.2260131835938,-281.17401123046875 C607.9019775390625,-281.17401123046875 610.8809814453125,-278.1940002441406 610.8809814453125,-274.51800537109375z"></path><path stroke-linecap="round" stroke-linejoin="round" fill-opacity="0" stroke="rgb(32,40,112)" stroke-opacity="1" stroke-width="2" d=" M610.8809814453125,-274.51800537109375 C610.8809814453125,-270.8420104980469 607.9019775390625,-267.8630065917969 604.2260131835938,-267.8630065917969 C600.5499877929688,-267.8630065917969 597.5709838867188,-270.8420104980469 597.5709838867188,-274.51800537109375 C597.5709838867188,-278.1940002441406 600.5499877929688,-281.17401123046875 604.2260131835938,-281.17401123046875 C607.9019775390625,-281.17401123046875 610.8809814453125,-278.1940002441406 610.8809814453125,-274.51800537109375z"></path></g></g></g></svg>