<svg width="500" height="250" viewBox="0 0 500 250" fill="none" xmlns="http://www.w3.org/2000/svg">
<rect width="500" height="250" fill="white"/>
<g clip-path="url(#clip0_3_2)">
<path d="M300.991 29.131C300.991 34.5813 299.075 42.099 291.337 42.099C282.06 42.099 282.06 31.6494 282.06 29.4693C282.06 27.3267 282.06 16.1631 291.6 16.1631C300.315 16.1631 300.991 25.7856 300.991 29.131ZM282.172 0H275.937V40.182L275.787 46.1585H281.834L281.984 41.0841C282.623 42.099 283.374 43.2266 285.252 44.5046C288.107 46.4216 291.075 46.6096 292.69 46.6096C297.272 46.6096 301.705 44.6926 304.372 40.8961C306.062 38.716 307.564 35.1828 307.564 28.7176C307.564 21.3878 305.311 18.0801 303.658 16.1631C300.578 12.705 296.408 11.878 293.065 11.878C285.478 11.878 283.036 16.0878 282.172 17.6289V0Z" fill="#168A44"/>
<path d="M318.345 30.4467C318.345 27.4396 318.345 16.8773 328.299 16.8773C335.699 16.8773 337.502 23.1169 337.502 29.1311C337.502 31.5367 337.164 36.3105 334.76 39.5807C332.656 42.5126 329.313 42.8132 327.735 42.8132C318.946 42.8132 318.345 34.5062 318.345 30.4467ZM312.372 59.0138H318.533V42.4374C320.336 45.3693 323.942 47.3991 328.787 47.3991C336.75 47.3991 344 41.9487 344 29.507C344 17.1404 337.164 12.2163 329.989 12.2163C327.247 12.2163 321.725 13.0057 318.608 18.2681L318.495 12.7426H312.147C312.297 15.9376 312.372 16.7646 312.372 18.2305V59.0138Z" fill="#168A44"/>
<path d="M262.79 82.0179C258.095 70.8917 252.31 62.3967 250.019 58.9762C247.727 62.3967 241.943 70.8917 237.248 82.0179C241.83 86.9795 246.375 92.8433 250.019 99.4588C253.625 92.8433 258.17 86.9795 262.79 82.0179Z" fill="#168A44"/>
<path d="M237.248 226.959C241.943 238.085 247.727 246.58 250.019 250C252.31 246.58 258.095 238.085 262.79 226.959C258.17 221.959 253.625 216.133 250.019 209.518C246.375 216.133 241.83 221.959 237.248 226.959Z" fill="#168A44"/>
<path d="M237.248 82.0178C229.021 73.1846 220.682 67.1704 217.377 64.7272C216.4 68.7491 213.846 78.71 213.245 90.7759C219.255 93.8581 225.528 97.8049 231.2 102.767C232.327 95.2864 234.618 88.2575 237.248 82.0178Z" fill="#168A44"/>
<path d="M262.79 226.959C270.979 235.792 279.355 241.806 282.661 244.249C283.637 240.227 286.154 230.266 286.755 218.2C280.745 215.118 274.472 211.171 268.8 206.21C267.673 213.652 265.419 220.719 262.79 226.959Z" fill="#168A44"/>
<path d="M213.245 90.7759C202.502 85.2504 192.623 82.4689 188.679 81.3036C189.092 85.4383 190.144 95.6624 193.675 107.202C200.399 108.029 207.648 109.57 214.672 112.314C213.17 104.947 212.907 97.5042 213.245 90.7759Z" fill="#168A44"/>
<path d="M286.755 218.2C297.498 223.726 307.377 226.507 311.358 227.635C310.908 223.538 309.894 213.314 306.325 201.774C299.639 200.947 292.389 199.369 285.365 196.625C286.83 204.067 287.131 211.435 286.755 218.2Z" fill="#168A44"/>
<path d="M202.39 126.973C198.483 120.508 195.666 113.667 193.675 107.202C181.73 105.698 171.476 106.45 167.344 106.713C169.184 110.435 173.654 119.681 180.904 129.304C187.515 127.8 194.839 126.785 202.39 126.973Z" fill="#168A44"/>
<path d="M297.61 182.003C301.554 188.43 304.334 195.309 306.325 201.774C318.307 203.278 328.562 202.526 332.656 202.263C330.853 198.542 326.383 189.295 319.096 179.635C312.523 181.176 305.198 182.191 297.61 182.003Z" fill="#168A44"/>
<path d="M180.904 129.304C169.147 132.01 159.794 136.22 156 137.912C159.005 140.731 166.367 147.91 176.472 154.488C182.143 150.804 188.717 147.346 195.854 144.941C189.956 140.205 184.998 134.717 180.904 129.304Z" fill="#168A44"/>
<path d="M323.528 154.488C317.856 158.172 311.32 161.63 304.184 164.036C310.043 168.772 315.039 174.26 319.096 179.635C330.89 176.966 340.244 172.719 344 171.065C341.032 168.246 333.67 161.029 323.528 154.488Z" fill="#168A44"/>
<path d="M195.854 164.036C188.717 161.63 182.143 158.172 176.472 154.488C166.367 161.029 159.005 168.246 156 171.065C159.794 172.719 169.147 176.966 180.904 179.635C184.998 174.26 189.956 168.772 195.854 164.036Z" fill="#168A44"/>
<path d="M304.184 144.941C311.32 147.346 317.856 150.804 323.528 154.488C333.67 147.91 341.032 140.731 344 137.912C340.244 136.22 330.89 132.01 319.096 129.304C315.039 134.717 310.043 140.205 304.184 144.941Z" fill="#168A44"/>
<path d="M180.904 179.635C173.654 189.295 169.184 198.542 167.344 202.263C171.476 202.526 181.73 203.278 193.675 201.774C195.666 195.309 198.483 188.43 202.39 182.003C194.839 182.191 187.515 181.176 180.904 179.635Z" fill="#168A44"/>
<path d="M319.096 129.304C326.383 119.681 330.853 110.435 332.656 106.713C328.562 106.45 318.307 105.698 306.325 107.202C304.334 113.667 301.554 120.508 297.61 126.973C305.198 126.785 312.523 127.8 319.096 129.304Z" fill="#168A44"/>
<path d="M214.672 196.625C207.648 199.369 200.399 200.947 193.675 201.774C190.144 213.314 189.092 223.538 188.679 227.635C192.623 226.507 202.502 223.726 213.245 218.2C212.907 211.435 213.17 204.067 214.672 196.625Z" fill="#168A44"/>
<path d="M285.365 112.314C292.389 109.57 299.639 108.029 306.325 107.202C309.894 95.6624 310.908 85.4383 311.358 81.3036C307.377 82.4689 297.498 85.2504 286.755 90.7759C287.131 97.5042 286.83 104.909 285.365 112.314Z" fill="#168A44"/>
<path d="M213.245 218.2C213.846 230.266 216.4 240.227 217.377 244.249C220.682 241.806 229.021 235.792 237.248 226.959C234.618 220.719 232.327 213.652 231.2 206.21C225.528 211.171 219.255 215.118 213.245 218.2Z" fill="#168A44"/>
<path d="M286.755 90.7759C286.154 78.71 283.637 68.7491 282.661 64.7272C279.355 67.1704 270.979 73.1846 262.79 82.0178C265.419 88.2575 267.673 95.2864 268.8 102.767C274.472 97.8049 280.745 93.8581 286.755 90.7759Z" fill="#168A44"/>
<path d="M243.483 117.351C244.685 110.886 247.014 104.909 250.019 99.4588C246.375 92.8432 241.83 86.9795 237.248 82.0178C234.618 88.2575 232.327 95.2865 231.2 102.767C235.896 106.864 240.14 111.713 243.483 117.351Z" fill="#5BB046"/>
<path d="M256.554 191.625C255.352 198.053 253.024 204.067 250.019 209.518C253.625 216.133 258.17 221.959 262.79 226.958C265.419 220.719 267.673 213.652 268.8 206.21C264.142 202.075 259.897 197.264 256.554 191.625Z" fill="#5BB046"/>
<path d="M214.673 112.314C220.457 114.607 226.091 117.652 231.162 121.824C230.111 115.359 230.261 108.931 231.2 102.767C225.528 97.8049 219.255 93.8581 213.245 90.7759C212.907 97.5042 213.17 104.947 214.673 112.314Z" fill="#5BB046"/>
<path d="M285.365 196.625C279.58 194.369 273.908 191.287 268.837 187.152C269.927 193.618 269.739 200.045 268.8 206.21C274.472 211.171 280.745 215.118 286.755 218.2C287.13 211.434 286.83 204.067 285.365 196.625Z" fill="#5BB046"/>
<path d="M221.171 130.244C217.94 124.53 215.874 118.441 214.672 112.314C207.648 109.57 200.399 108.029 193.675 107.202C195.666 113.667 198.483 120.508 202.39 126.973C208.587 127.124 214.973 128.064 221.171 130.244Z" fill="#5BB046"/>
<path d="M278.867 178.732C282.097 184.446 284.125 190.535 285.365 196.625C292.389 199.368 299.639 200.947 306.325 201.774C304.334 195.309 301.554 188.43 297.61 182.003C291.413 181.852 285.064 180.913 278.867 178.732Z" fill="#5BB046"/>
<path d="M195.854 144.941C201.751 142.911 208.061 141.671 214.597 141.595C209.639 137.31 205.62 132.274 202.39 126.974C194.839 126.786 187.515 127.8 180.904 129.304C184.998 134.717 189.956 140.205 195.854 144.941Z" fill="#5BB046"/>
<path d="M304.184 164.036C298.286 166.028 291.976 167.306 285.402 167.381C290.398 171.628 294.417 176.665 297.61 182.003C305.198 182.191 312.522 181.176 319.096 179.635C315.039 174.26 310.043 168.772 304.184 164.036Z" fill="#5BB046"/>
<path d="M212.344 154.488C206.183 152.195 200.699 148.812 195.854 144.941C188.717 147.346 182.143 150.804 176.471 154.488C182.143 158.172 188.717 161.63 195.854 164.036C200.699 160.164 206.183 156.781 212.344 154.488Z" fill="#5BB046"/>
<path d="M287.694 154.488C293.817 156.781 299.301 160.164 304.184 164.036C311.321 161.63 317.856 158.172 323.528 154.488C317.856 150.804 311.321 147.346 304.184 144.941C299.301 148.812 293.817 152.195 287.694 154.488Z" fill="#5BB046"/>
<path d="M202.39 182.003C205.62 176.665 209.639 171.628 214.597 167.381C208.061 167.306 201.751 166.028 195.854 164.036C189.956 168.772 184.998 174.26 180.904 179.635C187.515 181.176 194.839 182.191 202.39 182.003Z" fill="#5BB046"/>
<path d="M297.61 126.974C294.417 132.274 290.398 137.31 285.402 141.595C291.976 141.671 298.286 142.911 304.184 144.941C310.043 140.205 315.039 134.717 319.096 129.304C312.522 127.8 305.198 126.786 297.61 126.974Z" fill="#5BB046"/>
<path d="M221.171 178.732C214.973 180.913 208.587 181.852 202.39 182.003C198.483 188.43 195.666 195.309 193.675 201.774C200.399 200.947 207.648 199.368 214.672 196.625C215.874 190.535 217.94 184.446 221.171 178.732Z" fill="#5BB046"/>
<path d="M278.867 130.244C285.064 128.064 291.413 127.124 297.61 126.973C301.554 120.508 304.334 113.667 306.325 107.202C299.639 108.029 292.389 109.57 285.365 112.314C284.125 118.441 282.097 124.53 278.867 130.244Z" fill="#5BB046"/>
<path d="M243.483 191.625C240.14 197.264 235.896 202.075 231.2 206.21C232.327 213.652 234.618 220.719 237.248 226.958C241.83 221.959 246.375 216.133 250.019 209.518C247.014 204.067 244.685 198.053 243.483 191.625Z" fill="#5BB046"/>
<path d="M231.162 187.152C226.091 191.287 220.457 194.369 214.673 196.625C213.17 204.067 212.907 211.434 213.245 218.2C219.255 215.118 225.528 211.171 231.2 206.21C230.261 200.045 230.111 193.618 231.162 187.152Z" fill="#5BB046"/>
<path d="M256.554 117.351C259.897 111.713 264.142 106.864 268.8 102.767C267.673 95.2865 265.419 88.2575 262.79 82.0178C258.17 86.9795 253.625 92.8432 250.019 99.4588C253.024 104.909 255.352 110.886 256.554 117.351Z" fill="#5BB046"/>
<path d="M268.837 121.824C273.908 117.652 279.58 114.607 285.365 112.314C286.83 104.909 287.13 97.5042 286.755 90.7759C280.745 93.8581 274.472 97.8049 268.8 102.767C269.739 108.931 269.927 115.359 268.837 121.824Z" fill="#5BB046"/>
<path d="M243.483 136.596C240.14 130.582 235.895 125.733 231.163 121.824C232.177 127.876 234.243 133.965 237.774 139.866C232.552 135.393 226.918 132.273 221.171 130.244C224.138 135.581 228.195 140.58 233.529 144.941C227.068 142.535 220.72 141.52 214.597 141.595C219.255 145.58 224.739 148.887 231.238 151.18C224.364 151.105 218.053 152.308 212.344 154.488C218.053 156.631 224.364 157.871 231.238 157.796C224.739 160.089 219.255 163.397 214.597 167.381C220.72 167.456 227.068 166.441 233.529 163.998C228.195 168.396 224.138 173.357 221.171 178.733C226.918 176.665 232.552 173.583 237.774 169.072C234.243 175.011 232.177 181.101 231.163 187.152C235.895 183.243 240.14 178.394 243.483 172.38C242.206 179.146 242.356 185.574 243.483 191.625C246.601 186.325 248.892 180.349 250.019 173.545C251.146 180.349 253.437 186.325 256.555 191.625C257.682 185.574 257.794 179.146 256.517 172.38C259.898 178.394 264.105 183.243 268.838 187.152C267.861 181.101 265.758 175.011 262.227 169.072C267.485 173.583 273.082 176.665 278.867 178.733C275.862 173.357 271.843 168.396 266.509 163.998C272.97 166.441 279.28 167.456 285.403 167.381C280.745 163.397 275.261 160.089 268.763 157.796C275.674 157.871 281.947 156.631 287.694 154.488C281.947 152.308 275.674 151.105 268.763 151.18C275.261 148.887 280.745 145.58 285.403 141.595C279.28 141.52 272.97 142.535 266.509 144.941C271.843 140.58 275.862 135.581 278.867 130.244C273.082 132.273 267.485 135.393 262.227 139.866C265.758 133.965 267.861 127.876 268.838 121.824C264.105 125.733 259.898 130.582 256.517 136.596C257.794 129.793 257.682 123.365 256.555 117.351C253.437 122.613 251.146 128.627 250.019 135.431C248.892 128.627 246.601 122.613 243.483 117.351C242.356 123.365 242.206 129.793 243.483 136.596Z" fill="white"/>
<path d="M243.483 136.596C242.206 129.793 242.356 123.365 243.483 117.351C240.14 111.713 235.895 106.864 231.2 102.767C230.261 108.931 230.111 115.359 231.163 121.824C235.895 125.733 240.14 130.582 243.483 136.596Z" fill="#FEDC00"/>
<path d="M256.517 172.38C257.794 179.146 257.682 185.574 256.555 191.625C259.898 197.264 264.142 202.075 268.8 206.21C269.739 200.045 269.927 193.617 268.838 187.152C264.105 183.243 259.898 178.394 256.517 172.38Z" fill="#FEDC00"/>
<path d="M231.163 121.824C226.092 117.651 220.457 114.607 214.673 112.314C215.875 118.441 217.941 124.53 221.171 130.244C226.918 132.273 232.552 135.393 237.774 139.866C234.243 133.965 232.177 127.875 231.163 121.824Z" fill="#FEDC00"/>
<path d="M268.838 187.153C273.908 191.287 279.58 194.369 285.365 196.625C284.125 190.535 282.097 184.446 278.867 178.733C273.082 176.665 267.485 173.583 262.227 169.073C265.757 175.011 267.861 181.101 268.838 187.153Z" fill="#FEDC00"/>
<path d="M233.529 144.941C228.195 140.58 224.138 135.581 221.171 130.244C214.973 128.063 208.587 127.124 202.39 126.973C205.62 132.273 209.639 137.31 214.597 141.595C220.72 141.52 227.068 142.535 233.529 144.941Z" fill="#FEDC00"/>
<path d="M266.509 163.998C271.843 168.396 275.862 173.357 278.867 178.733C285.065 180.913 291.413 181.852 297.61 182.003C294.418 176.665 290.398 171.628 285.403 167.381C279.28 167.456 272.97 166.441 266.509 163.998Z" fill="#FEDC00"/>
<path d="M231.238 151.18C224.739 148.887 219.255 145.58 214.597 141.595C208.062 141.67 201.751 142.911 195.854 144.941C200.699 148.812 206.183 152.195 212.344 154.488C218.053 152.308 224.364 151.105 231.238 151.18Z" fill="#FEDC00"/>
<path d="M268.762 157.796C275.261 160.089 280.745 163.397 285.402 167.381C291.976 167.306 298.286 166.028 304.184 164.036C299.3 160.164 293.816 156.781 287.694 154.488C281.947 156.631 275.674 157.871 268.762 157.796Z" fill="#FEDC00"/>
<path d="M212.344 154.488C206.183 156.781 200.699 160.164 195.854 164.036C201.751 166.028 208.062 167.306 214.597 167.381C219.255 163.397 224.739 160.089 231.238 157.796C224.364 157.871 218.053 156.631 212.344 154.488Z" fill="#FEDC00"/>
<path d="M287.694 154.488C293.816 152.195 299.3 148.812 304.184 144.941C298.286 142.911 291.976 141.67 285.402 141.595C280.745 145.58 275.261 148.887 268.762 151.18C275.674 151.105 281.947 152.308 287.694 154.488Z" fill="#FEDC00"/>
<path d="M233.529 163.998C227.068 166.441 220.72 167.456 214.597 167.381C209.639 171.628 205.62 176.665 202.39 182.003C208.587 181.852 214.973 180.913 221.171 178.733C224.138 173.357 228.195 168.396 233.529 163.998Z" fill="#FEDC00"/>
<path d="M266.509 144.941C272.97 142.535 279.28 141.52 285.403 141.595C290.398 137.31 294.418 132.273 297.61 126.973C291.413 127.124 285.065 128.063 278.867 130.244C275.862 135.581 271.843 140.58 266.509 144.941Z" fill="#FEDC00"/>
<path d="M243.483 191.625C244.685 198.053 247.014 204.067 250.019 209.517C253.024 204.067 255.353 198.053 256.555 191.625C253.437 186.325 251.146 180.349 250.019 173.545C248.892 180.349 246.601 186.325 243.483 191.625Z" fill="#FEDC00"/>
<path d="M243.483 172.38C240.14 178.394 235.895 183.243 231.163 187.152C230.111 193.617 230.261 200.045 231.2 206.21C235.895 202.075 240.14 197.264 243.483 191.625C242.356 185.574 242.206 179.146 243.483 172.38Z" fill="#FEDC00"/>
<path d="M221.171 178.733C217.941 184.446 215.875 190.535 214.673 196.625C220.457 194.369 226.092 191.287 231.163 187.153C232.177 181.101 234.243 175.011 237.774 169.073C232.552 173.583 226.918 176.665 221.171 178.733Z" fill="#FEDC00"/>
<path d="M256.555 117.351C255.353 110.886 253.024 104.909 250.019 99.4589C247.014 104.909 244.685 110.886 243.483 117.351C246.601 122.613 248.892 128.627 250.019 135.431C251.146 128.627 253.437 122.613 256.555 117.351Z" fill="#FEDC00"/>
<path d="M256.517 136.596C259.898 130.582 264.105 125.733 268.838 121.824C269.927 115.359 269.739 108.931 268.8 102.767C264.142 106.864 259.898 111.713 256.555 117.351C257.682 123.365 257.794 129.793 256.517 136.596Z" fill="#FEDC00"/>
<path d="M278.867 130.244C282.097 124.53 284.125 118.441 285.365 112.314C279.58 114.607 273.908 117.651 268.838 121.824C267.861 127.875 265.757 133.965 262.227 139.866C267.485 135.393 273.082 132.273 278.867 130.244Z" fill="#FEDC00"/>
</g>
<defs>
<clipPath id="clip0_3_2">
<rect width="188" height="250" fill="white" transform="translate(156)"/>
</clipPath>
</defs>
</svg>
